<svg width="33" height="33" viewBox="0 0 33 33" fill="none" xmlns="http://www.w3.org/2000/svg">
<rect width="33" height="33" fill="white"/>
<path d="M16.5 8.12109C16.1442 8.12109 15.8555 8.40987 15.8555 8.76562C15.8555 9.12138 16.1442 9.41016 16.5 9.41016C16.8558 9.41016 17.1445 9.12138 17.1445 8.76562C17.1445 8.40987 16.8558 8.12109 16.5 8.12109Z" fill="#FEB400"/>
<path d="M5.80078 19.7227C6.15653 19.7227 6.44531 19.4339 6.44531 19.0781C6.44531 18.7224 6.15653 18.4336 5.80078 18.4336C5.44503 18.4336 5.15625 18.7224 5.15625 19.0781C5.15625 19.4339 5.44503 19.7227 5.80078 19.7227Z" fill="#FEB400"/>
<path d="M21.6562 1.67578C15.8537 1.67578 11.0912 5.67641 10.7229 10.7156C5.19678 10.9928 0 14.9775 0 20.3672C0 22.6195 0.891266 24.8019 2.51367 26.531C2.83468 27.8543 2.44494 29.2569 1.47789 30.224C1.29359 30.4083 1.23846 30.6855 1.33816 30.9264C1.43786 31.1671 1.67276 31.3242 1.93359 31.3242C3.77177 31.3242 5.54322 30.6034 6.85947 29.3332C8.14174 29.7703 9.81475 30.0352 11.3438 30.0352C17.1455 30.0352 21.9075 26.0355 22.2769 20.9974C23.6264 20.9374 25.03 20.6882 26.1405 20.3098C27.4568 21.58 29.2282 22.3008 31.0664 22.3008C31.3272 22.3008 31.5621 22.1437 31.6618 21.903C31.7615 21.662 31.7064 21.3848 31.5221 21.2005C30.5551 20.2335 30.1653 18.8309 30.4863 17.5076C32.1087 15.7784 33 13.5961 33 11.3438C33 5.74363 27.4029 1.67578 21.6562 1.67578ZM11.3438 28.7461C9.82256 28.7461 8.08912 28.4475 6.92796 27.9855C6.67921 27.8863 6.39496 27.9515 6.21394 28.1491C5.43571 28.9999 4.42385 29.593 3.32135 29.8657C3.92887 28.7018 4.08396 27.3296 3.71436 26.0295C3.68516 25.927 3.63103 25.8334 3.55676 25.7571C2.09447 24.251 1.28906 22.3368 1.28906 20.3672C1.28906 15.8253 5.89343 11.9883 11.3438 11.9883C16.4904 11.9883 21.0117 15.5672 21.0117 20.3672C21.0117 24.9874 16.6747 28.7461 11.3438 28.7461ZM29.4432 16.7336C29.369 16.8102 29.3148 16.9038 29.2856 17.0061C28.916 18.3062 29.0711 19.6783 29.6786 20.8423C28.5761 20.5699 27.5643 19.9764 26.7861 19.1257C26.605 18.9283 26.3208 18.8629 26.072 18.9621C25.0657 19.3624 23.6301 19.6396 22.2748 19.7065C22.0865 17.2692 20.8707 14.9783 18.7921 13.2773H27.1992C27.5552 13.2773 27.8438 12.9888 27.8438 12.6328C27.8438 12.2768 27.5552 11.9883 27.1992 11.9883H16.8119C15.3489 11.2435 13.7061 10.8092 12.0152 10.7181C12.3856 6.38917 16.5682 2.96484 21.6562 2.96484C27.1066 2.96484 31.7109 6.80182 31.7109 11.3438C31.7109 13.3133 30.9055 15.2276 29.4432 16.7336Z" fill="#14804B"/>
<path d="M16.5 18.4336H8.37891C8.0229 18.4336 7.73438 18.7221 7.73438 19.0781C7.73438 19.4341 8.0229 19.7227 8.37891 19.7227H16.5C16.856 19.7227 17.1445 19.4341 17.1445 19.0781C17.1445 18.7221 16.856 18.4336 16.5 18.4336Z" fill="#FEB400"/>
<path d="M16.5 22.3008H5.80078C5.44478 22.3008 5.15625 22.5893 5.15625 22.9453C5.15625 23.3013 5.44478 23.5898 5.80078 23.5898H16.5C16.856 23.5898 17.1445 23.3013 17.1445 22.9453C17.1445 22.5893 16.856 22.3008 16.5 22.3008Z" fill="#FEB400"/>
<path d="M27.1992 8.12109H19.0781C18.7221 8.12109 18.4336 8.40962 18.4336 8.76562C18.4336 9.12163 18.7221 9.41016 19.0781 9.41016H27.1992C27.5552 9.41016 27.8438 9.12163 27.8438 8.76562C27.8438 8.40962 27.5552 8.12109 27.1992 8.12109Z" fill="#FEB400"/>
</svg>
