<svg width="67" height="67" viewBox="0 0 67 67" fill="none" xmlns="http://www.w3.org/2000/svg">
<path d="M67.0001 67.0005H61.0883L59.1177 65.0299L61.0883 63.0593H67.0001V67.0005Z" fill="#C6CBC8"/>
<path d="M55.175 0C51.426 3.16583 49.2632 7.82313 49.2632 12.7298V13.7942L52.5038 15.7648L55.175 13.7942L56.7077 9.23999L55.175 0Z" fill="#F2F2FC"/>
<path d="M55.1777 0V13.7942L58.1336 15.7648L61.0895 13.7942V12.7298C61.0895 7.82313 58.9266 3.16583 55.1777 0Z" fill="#DDE1DE"/>
<path d="M19.5389 24.749C14.01 28.6194 10.5187 34.725 9.93945 41.3822L19.7057 43.3528L29.5587 41.3822L31.5293 31.5293L29.5587 17.7351L19.5389 24.749Z" fill="#129D59"/>
<path d="M39.5804 24.749L29.5605 17.7351V41.3822L37.4429 43.3528L49.1797 41.3822C48.6006 34.725 45.1093 28.6194 39.5804 24.749Z" fill="#0C6036"/>
<path d="M9.93973 41.3823L9.85303 49.2647L19.706 51.2353L29.559 49.2647L31.5296 45.3235L29.559 41.3823H9.93973Z" fill="#0C6036"/>
<path d="M49.1796 41.3823H29.5605V49.2647L39.4135 51.2353L49.2665 49.2647L49.1796 41.3823Z" fill="#0C6036"/>
<path d="M49.2632 21.6764V49.2647L53.2044 67.0001H55.175L57.1456 45.3235L55.175 21.6764L52.7665 19.7058L49.2632 21.6764Z" fill="#F2F2FC"/>
<path d="M55.1777 67.0001H61.0895V21.6764L57.7614 19.7058L55.1777 21.6764V67.0001Z" fill="#DDE1DE"/>
<path d="M55.175 13.7944H49.2632V21.6768H55.175L57.1456 17.7356L55.175 13.7944Z" fill="#DDE1DE"/>
<path d="M55.1777 13.7944H61.0895V21.6768H55.1777V13.7944Z" fill="#C6CBC8"/>
<path d="M5.91178 67.0005H0V63.0593H5.91178L7.88238 65.0299L5.91178 67.0005Z" fill="#C6CBC8"/>
<path d="M5.90967 49.2649V67.0002H29.5568L31.5274 57.1473L29.5568 49.2649H5.90967Z" fill="#129D59"/>
<path d="M29.5605 49.2649V67.0002L53.2077 57.1473V49.2649H29.5605Z" fill="#0C6036"/>
<path d="M29.5605 67.0005H53.2077V57.1475H39.4135C38.302 58.259 30.5372 66.0238 29.5605 67.0005Z" fill="#0C6036"/>
<path d="M11.8232 57.1475H15.7644V61.0887H11.8232V57.1475Z" fill="#0C6036"/>
<path d="M19.7075 57.1475H23.6487V61.0887H19.7075V57.1475Z" fill="#0C6036"/>
</svg>
