<svg width="24" height="26" viewBox="0 0 24 26" fill="none" xmlns="http://www.w3.org/2000/svg">
<path fill-rule="evenodd" clip-rule="evenodd" d="M20.2461 11.3315C20.2461 5.60954 15.7292 0.958466 10.176 0.958466C4.62124 0.958466 0.105957 5.61121 0.105957 11.3315C0.105957 17.0502 4.62449 21.7046 10.176 21.7046L10.6083 21.6952L11.0374 21.667C12.8892 21.5045 14.6376 20.8208 16.1168 19.7043L16.2787 19.5749L21.1901 24.6334L21.324 24.7542C21.5585 24.9394 21.8467 25.0418 22.1397 25.0418C22.4964 25.0418 22.8441 24.8958 23.0983 24.6238L23.2077 24.4959L23.2987 24.3574C23.5992 23.8325 23.5312 23.1318 23.0893 22.6766L18.179 17.6185L18.3041 17.4511L18.5468 17.0947C19.6439 15.4089 20.2461 13.4168 20.2461 11.3315ZM2.7929 11.3316C2.7929 7.14107 6.10363 3.73219 10.1706 3.73219C14.239 3.73219 17.5483 7.14249 17.5483 11.3316C17.5483 15.5218 14.2379 18.9361 10.1706 18.9361C6.10469 18.9361 2.7929 15.5233 2.7929 11.3316Z" fill="white"/>
</svg>
