<svg width="55" height="49" viewBox="0 0 55 49" fill="none" xmlns="http://www.w3.org/2000/svg">
<path d="M27.4282 10.7035C26.8528 10.7035 26.3857 11.1706 26.3857 11.746C26.3857 12.3213 26.8528 12.7884 27.4282 12.7884C28.0035 12.7884 28.4706 12.3213 28.4706 11.746C28.4706 11.1706 28.0035 10.7035 27.4282 10.7035Z" fill="white"/>
<path d="M10.1279 29.4702C10.7033 29.4702 11.1703 29.0031 11.1703 28.4277C11.1703 27.8523 10.7033 27.3853 10.1279 27.3853C9.55251 27.3853 9.08545 27.8523 9.08545 28.4277C9.08545 29.0031 9.55251 29.4702 10.1279 29.4702Z" fill="white"/>
<path d="M35.7694 0.281311C26.3847 0.281311 18.6821 6.75173 18.0863 14.9019C9.14868 15.3502 0.743652 21.7949 0.743652 30.5119C0.743652 34.1547 2.18514 37.6843 4.80914 40.481C5.32832 42.6212 4.69798 44.8897 3.13392 46.4538C2.83585 46.7519 2.74667 47.2002 2.90792 47.5899C3.06918 47.9792 3.44909 48.2333 3.87095 48.2333C6.84393 48.2333 9.70899 47.0674 11.8378 45.0131C13.9117 45.72 16.6176 46.1484 19.0905 46.1484C28.474 46.1484 36.1758 39.6796 36.7732 31.5311C38.9558 31.4342 41.2259 31.0311 43.0221 30.419C45.1509 32.4734 48.016 33.6392 50.989 33.6392C51.4108 33.6392 51.7907 33.3851 51.952 32.9958C52.1132 32.6061 52.0241 32.1578 51.726 31.8597C50.1619 30.2957 49.5316 28.0271 50.0508 25.8869C52.6748 23.0902 54.1163 19.5606 54.1163 15.9178C54.1163 6.86045 45.0638 0.281311 35.7694 0.281311ZM19.0905 44.0635C16.6302 44.0635 13.8266 43.5806 11.9486 42.8334C11.5463 42.6729 11.0865 42.7784 10.7938 43.0981C9.53512 44.474 7.89858 45.4333 6.11544 45.8743C7.09802 43.9919 7.34885 41.7726 6.75108 39.6698C6.70385 39.5041 6.6163 39.3526 6.49618 39.2292C4.13115 36.7934 2.82852 33.6974 2.82852 30.5119C2.82852 23.166 10.2754 16.9603 19.0905 16.9603C27.4145 16.9603 34.727 22.7486 34.727 30.5119C34.727 37.9844 27.7126 44.0635 19.0905 44.0635ZM48.3637 24.6352C48.2436 24.759 48.1561 24.9104 48.1088 25.0758C47.5111 27.1785 47.7619 29.3978 48.7445 31.2803C46.9613 30.8397 45.3248 29.8799 44.0661 28.504C43.7734 28.1847 43.3136 28.0789 42.9113 28.2393C41.2837 28.8867 38.9619 29.3351 36.7699 29.4434C36.4653 25.5013 34.499 21.7962 31.1371 19.0451H44.7344C45.3101 19.0451 45.7768 18.5785 45.7768 18.0027C45.7768 17.4269 45.3101 16.9603 44.7344 16.9603H27.9345C25.5682 15.7558 22.9113 15.0533 20.1765 14.9059C20.7755 7.90451 27.5403 2.36618 35.7694 2.36618C44.5845 2.36618 52.0314 8.57192 52.0314 15.9178C52.0314 19.1033 50.7288 22.1993 48.3637 24.6352Z" fill="white"/>
<path d="M27.4281 27.3853H14.2934C13.7176 27.3853 13.251 27.8519 13.251 28.4277C13.251 29.0035 13.7176 29.4702 14.2934 29.4702H27.4281C28.0039 29.4702 28.4705 29.0035 28.4705 28.4277C28.4705 27.8519 28.0039 27.3853 27.4281 27.3853Z" fill="white"/>
<path d="M27.4323 33.6384H10.1279C9.5521 33.6384 9.08545 34.1051 9.08545 34.6809C9.08545 35.2566 9.5521 35.7233 10.1279 35.7233H27.4323C28.0081 35.7233 28.4747 35.2566 28.4747 34.6809C28.4747 34.1051 28.0081 33.6384 27.4323 33.6384Z" fill="white"/>
<path d="M44.7279 10.7035H31.5932C31.0174 10.7035 30.5508 11.1702 30.5508 11.746C30.5508 12.3218 31.0174 12.7884 31.5932 12.7884H44.7279C45.3037 12.7884 45.7703 12.3218 45.7703 11.746C45.7703 11.1702 45.3037 10.7035 44.7279 10.7035Z" fill="white"/>
</svg>
