<svg width="21" height="18" viewBox="0 0 21 18" fill="none" xmlns="http://www.w3.org/2000/svg">
<path fill-rule="evenodd" clip-rule="evenodd" d="M7.59503 1.70438H19.5106C19.9427 1.70438 20.293 2.06061 20.293 2.5C20.293 2.93939 19.9427 3.29562 19.5106 3.29562H7.59508C7.26749 4.28511 6.34721 5 5.26518 5C4.18316 5 3.26287 4.28511 2.93528 3.29562H1.0753C0.643247 3.29562 0.292969 2.93939 0.292969 2.5C0.292969 2.06061 0.643247 1.70438 1.0753 1.70438H2.93523C3.26282 0.714892 4.18311 0 5.26513 0C6.34715 0 7.26744 0.714892 7.59503 1.70438ZM4.37155 2.5C4.37155 3.00108 4.77242 3.40876 5.26513 3.40876C5.75785 3.40876 6.15871 3.00108 6.15871 2.5C6.15871 1.99892 5.75785 1.59124 5.26513 1.59124C4.77242 1.59124 4.37155 1.99892 4.37155 2.5Z" fill="white"/>
<path fill-rule="evenodd" clip-rule="evenodd" d="M17.6506 8.70438H19.5106C19.9427 8.70438 20.293 9.06061 20.293 9.5C20.293 9.93939 19.9427 10.2956 19.5106 10.2956H17.6507C17.3231 11.2851 16.4027 12 15.3208 12C14.2388 12 13.3184 11.2851 12.9909 10.2956H1.0753C0.643247 10.2956 0.292969 9.93939 0.292969 9.5C0.292969 9.06061 0.643247 8.70438 1.0753 8.70438H12.9909C13.3184 7.71489 14.2387 7 15.3207 7C16.4027 7 17.323 7.71489 17.6506 8.70438ZM14.4272 9.5C14.4272 10.0011 14.828 10.4088 15.3208 10.4088C15.8135 10.4088 16.2143 10.0011 16.2143 9.5C16.2143 8.99892 15.8135 8.59124 15.3208 8.59124C14.828 8.59124 14.4272 8.99892 14.4272 9.5Z" fill="white"/>
<path fill-rule="evenodd" clip-rule="evenodd" d="M10.9469 14.7044H19.5106C19.9427 14.7044 20.293 15.0606 20.293 15.5C20.293 15.9394 19.9427 16.2956 19.5106 16.2956H10.9469C10.6193 17.2851 9.69905 18 8.61702 18C7.535 18 6.61471 17.2851 6.28712 16.2956H1.0753C0.643247 16.2956 0.292969 15.9394 0.292969 15.5C0.292969 15.0606 0.643247 14.7044 1.0753 14.7044H6.28712C6.61471 13.7149 7.535 13 8.61702 13C9.69905 13 10.6193 13.7149 10.9469 14.7044ZM7.72344 15.5001C7.72344 16.0011 8.12431 16.4088 8.61702 16.4088C9.10974 16.4088 9.51061 16.0011 9.51061 15.5C9.51061 14.9989 9.10974 14.5913 8.61702 14.5913C8.12431 14.5913 7.72344 14.999 7.72344 15.5001Z" fill="white"/>
</svg>
