<svg width="30" height="24" viewBox="0 0 30 24" fill="none" xmlns="http://www.w3.org/2000/svg">
<path fill-rule="evenodd" clip-rule="evenodd" d="M15 12C12.2386 12 10 9.76142 10 7C10 4.23858 12.2386 2 15 2C17.7614 2 20 4.23858 20 7C20 9.76142 17.7614 12 15 12ZM24 21V19C24 16.2386 21.7614 14 19 14H11C8.23858 14 6 16.2386 6 19V21C6 21.5523 6.44772 22 7 22C7.55228 22 8 21.5523 8 21V19C8 17.3431 9.34315 16 11 16H19C20.6569 16 22 17.3431 22 19V21C22 21.5523 22.4477 22 23 22C23.5523 22 24 21.5523 24 21ZM30 19V21C30 21.5523 29.5523 22 29 22C28.4477 22 28 21.5523 28 21V19.0007C27.999 17.6336 27.0737 16.44 25.75 16.0982C25.2153 15.9602 24.8937 15.4147 25.0318 14.88C25.1698 14.3453 25.7153 14.0237 26.25 14.1618C28.4562 14.7314 29.9983 16.7207 30 19ZM21.752 4.09875C23.0794 4.43863 24.0078 5.63474 24.0078 7.005C24.0078 8.37526 23.0794 9.57137 21.752 9.91125C21.2169 10.0482 20.8943 10.593 21.0312 11.128C21.1682 11.6631 21.713 11.9857 22.248 11.8487C24.4604 11.2823 26.0078 9.28876 26.0078 7.005C26.0078 4.72124 24.4604 2.72771 22.248 2.16125C21.713 2.02426 21.1682 2.34694 21.0312 2.88196C20.8943 3.41699 21.2169 3.96176 21.752 4.09875ZM18 7C18 8.65685 16.6569 10 15 10C13.3431 10 12 8.65685 12 7C12 5.34315 13.3431 4 15 4C16.6569 4 18 5.34315 18 7Z" fill="#5A9E7C"/>
<path d="M-0.000242233 20.9991V18.9991C0.00145769 16.7198 1.54351 14.7306 3.74976 14.1609C4.28451 14.0228 4.82993 14.3444 4.968 14.8791C5.10607 15.4139 4.78451 15.9593 4.24976 16.0974C2.92601 16.4392 2.00078 17.6327 1.99976 18.9999L1.99976 20.9991C1.99976 21.5514 1.55204 21.9991 0.999758 21.9991C0.447473 21.9991 -0.000242233 21.5514 -0.000242233 20.9991Z" fill="#5A9E7C"/>
<path d="M8.2478 4.0979C6.92036 4.43777 5.99192 5.63389 5.99192 7.00415C5.99192 8.3744 6.92036 9.57052 8.2478 9.9104C8.78282 10.0474 9.1055 10.5922 8.96851 11.1272C8.83152 11.6622 8.28675 11.9849 7.75172 11.8479C5.53933 11.2814 3.99192 9.28791 3.99192 7.00415C3.99192 4.72039 5.53933 2.72686 7.75172 2.1604C8.28675 2.02341 8.83152 2.34608 8.96851 2.88111C9.1055 3.41613 8.78282 3.96091 8.2478 4.0979Z" fill="#5A9E7C"/>
<mask id="mask0" mask-type="alpha" maskUnits="userSpaceOnUse" x="6" y="2" width="24" height="20">
<path fill-rule="evenodd" clip-rule="evenodd" d="M15 12C12.2386 12 10 9.76142 10 7C10 4.23858 12.2386 2 15 2C17.7614 2 20 4.23858 20 7C20 9.76142 17.7614 12 15 12ZM24 21V19C24 16.2386 21.7614 14 19 14H11C8.23858 14 6 16.2386 6 19V21C6 21.5523 6.44772 22 7 22C7.55228 22 8 21.5523 8 21V19C8 17.3431 9.34315 16 11 16H19C20.6569 16 22 17.3431 22 19V21C22 21.5523 22.4477 22 23 22C23.5523 22 24 21.5523 24 21ZM30 19V21C30 21.5523 29.5523 22 29 22C28.4477 22 28 21.5523 28 21V19.0007C27.999 17.6336 27.0737 16.44 25.75 16.0982C25.2153 15.9602 24.8937 15.4147 25.0318 14.88C25.1698 14.3453 25.7153 14.0237 26.25 14.1618C28.4562 14.7314 29.9983 16.7207 30 19ZM21.752 4.09875C23.0794 4.43863 24.0078 5.63474 24.0078 7.005C24.0078 8.37526 23.0794 9.57137 21.752 9.91125C21.2169 10.0482 20.8943 10.593 21.0312 11.128C21.1682 11.6631 21.713 11.9857 22.248 11.8487C24.4604 11.2823 26.0078 9.28876 26.0078 7.005C26.0078 4.72124 24.4604 2.72771 22.248 2.16125C21.713 2.02426 21.1682 2.34694 21.0312 2.88196C20.8943 3.41699 21.2169 3.96176 21.752 4.09875ZM18 7C18 8.65685 16.6569 10 15 10C13.3431 10 12 8.65685 12 7C12 5.34315 13.3431 4 15 4C16.6569 4 18 5.34315 18 7Z" fill="white"/>
</mask>
<g mask="url(#mask0)">
<rect x="6" width="24" height="24" fill="#5A9E7C"/>
</g>
</svg>
