<svg width="68" height="75" viewBox="0 0 68 75" fill="none" xmlns="http://www.w3.org/2000/svg">
<path fill-rule="evenodd" clip-rule="evenodd" d="M1.82439 70.5479C2.83397 70.5459 3.65475 71.3627 3.65673 72.3722C3.65872 73.3828 2.84093 74.2026 1.83135 74.2046C0.821772 74.2066 0.00198841 73.3898 9.53674e-07 72.3802C-0.00297999 71.3706 0.814816 70.5498 1.82439 70.5479Z" fill="#B0F8D5"/>
<path fill-rule="evenodd" clip-rule="evenodd" d="M1.82439 56.4443C2.83496 56.4424 3.65475 57.2592 3.65673 58.2687C3.65872 59.2793 2.84192 60.0991 1.83135 60.1011C0.821769 60.1031 0.00198388 59.2863 -3.57628e-06 58.2767C-0.0019908 57.2671 0.814813 56.4463 1.82439 56.4443Z" fill="#B0F8D5"/>
<path fill-rule="evenodd" clip-rule="evenodd" d="M1.82439 42.3398C2.83397 42.3379 3.65475 43.1544 3.65673 44.1647C3.65872 45.174 2.84192 45.9936 1.83135 45.9966C0.821769 45.9986 0.00198388 45.181 -3.57628e-06 44.1717C-0.0019908 43.1624 0.814813 42.3418 1.82439 42.3398Z" fill="#B0F8D5"/>
<path fill-rule="evenodd" clip-rule="evenodd" d="M1.82439 28.2334C2.83397 28.2314 3.65475 29.0482 3.65673 30.0578C3.65872 31.0684 2.84092 31.8881 1.83135 31.8901C0.821769 31.8931 0.00198388 31.0753 -3.57628e-06 30.0657C-0.0019908 29.0562 0.814813 28.2354 1.82439 28.2334Z" fill="#B0F8D5"/>
<path fill-rule="evenodd" clip-rule="evenodd" d="M1.82439 14.1299C2.83397 14.1279 3.65475 14.9447 3.65673 15.9543C3.65872 16.9649 2.84093 17.7846 1.83135 17.7866C0.821772 17.7886 0.00198841 16.9718 9.53674e-07 15.9622C-0.00297999 14.9527 0.813823 14.1319 1.82439 14.1299Z" fill="#B0F8D5"/>
<path fill-rule="evenodd" clip-rule="evenodd" d="M1.82439 0.0253942C2.83496 0.0234069 3.65475 0.840211 3.65673 1.84979C3.65872 2.86036 2.84192 3.68015 1.83135 3.68213C0.821769 3.68412 0.00198388 2.86732 -3.57628e-06 1.85774C-0.0019908 0.847167 0.814813 0.0273816 1.82439 0.0253942Z" fill="#B0F8D5"/>
<path fill-rule="evenodd" clip-rule="evenodd" d="M14.881 56.4443C15.8906 56.4424 16.7114 57.2592 16.7134 58.2687C16.7154 59.2793 15.8976 60.0991 14.888 60.1011C13.8784 60.1031 13.0586 59.2863 13.0566 58.2767C13.0537 57.2661 13.8715 56.4463 14.881 56.4443Z" fill="#B0F8D5"/>
<path fill-rule="evenodd" clip-rule="evenodd" d="M14.8815 42.3398C15.8908 42.3379 16.7114 43.1544 16.7134 44.1637C16.7154 45.174 15.8978 45.9936 14.8885 45.9966C13.8792 45.9986 13.0596 45.181 13.0566 44.1717C13.0547 43.1624 13.8712 42.3418 14.8815 42.3398Z" fill="#B0F8D5"/>
<path fill-rule="evenodd" clip-rule="evenodd" d="M14.881 28.2334C15.8916 28.2314 16.7114 29.0482 16.7134 30.0578C16.7154 31.0684 15.8986 31.8882 14.888 31.8901C13.8784 31.8921 13.0586 31.0753 13.0566 30.0657C13.0546 29.0562 13.8715 28.2354 14.881 28.2334Z" fill="#B0F8D5"/>
<path fill-rule="evenodd" clip-rule="evenodd" d="M14.881 14.1299C15.8906 14.1279 16.7114 14.9447 16.7134 15.9543C16.7154 16.9649 15.8976 17.7846 14.888 17.7866C13.8784 17.7886 13.0586 16.9718 13.0566 15.9622C13.0546 14.9527 13.8715 14.1319 14.881 14.1299Z" fill="#B0F8D5"/>
<path fill-rule="evenodd" clip-rule="evenodd" d="M14.881 0.0253942C15.8906 0.0234074 16.7114 0.83999 16.7134 1.84929C16.7154 2.85959 15.8976 3.68015 14.888 3.68213C13.8784 3.68412 13.0586 2.86654 13.0566 1.85724C13.0546 0.847937 13.8715 0.0273811 14.881 0.0253942Z" fill="#B0F8D5"/>
<path fill-rule="evenodd" clip-rule="evenodd" d="M27.9391 42.3398C28.9487 42.3379 29.7695 43.1547 29.7715 44.1642C29.7735 45.1748 28.9557 45.9946 27.9461 45.9966C26.9365 45.9986 26.1167 45.1818 26.1147 44.1722C26.1128 43.1626 26.9296 42.3418 27.9391 42.3398Z" fill="#B0F8D5"/>
<path fill-rule="evenodd" clip-rule="evenodd" d="M27.9391 28.2334C28.9487 28.2314 29.7695 29.0482 29.7715 30.0578C29.7735 31.0684 28.9557 31.8882 27.9461 31.8901C26.9365 31.8921 26.1167 31.0753 26.1147 30.0657C26.1118 29.0552 26.9296 28.2354 27.9391 28.2334Z" fill="#B0F8D5"/>
<path fill-rule="evenodd" clip-rule="evenodd" d="M27.9391 14.1299C28.9497 14.1289 29.7695 14.9445 29.7715 15.9548C29.7735 16.9641 28.9567 17.7846 27.9461 17.7866C26.9365 17.7886 26.1167 16.971 26.1147 15.9617C26.1128 14.9524 26.9296 14.1319 27.9391 14.1299Z" fill="#B0F8D5"/>
<path fill-rule="evenodd" clip-rule="evenodd" d="M27.9391 0.0253942C28.9487 0.0234074 29.7695 0.83999 29.7715 1.84929C29.7735 2.85959 28.9557 3.67915 27.9461 3.68213C26.9365 3.68412 26.1167 2.86654 26.1147 1.85724C26.1128 0.847937 26.9296 0.0273811 27.9391 0.0253942Z" fill="#B0F8D5"/>
<path fill-rule="evenodd" clip-rule="evenodd" d="M41.0065 28.2334C42.0161 28.2314 42.8369 29.048 42.8389 30.0583C42.8409 31.0676 42.0231 31.8882 41.0135 31.8901C40.0039 31.8921 39.1841 31.0746 39.1821 30.0652C39.1801 29.0559 39.9969 28.2354 41.0065 28.2334Z" fill="#B0F8D5"/>
<path fill-rule="evenodd" clip-rule="evenodd" d="M41.0065 14.1299C42.0161 14.1279 42.8369 14.9445 42.8389 15.9538C42.8409 16.9641 42.0231 17.7846 41.0135 17.7866C40.0039 17.7886 39.1841 16.971 39.1821 15.9617C39.1791 14.9524 39.9969 14.1319 41.0065 14.1299Z" fill="#B0F8D5"/>
<path fill-rule="evenodd" clip-rule="evenodd" d="M41.007 0.0253942C42.0163 0.0234069 42.8369 0.84021 42.8389 1.84979C42.8409 2.86036 42.0233 3.68014 41.014 3.68213C40.0047 3.68511 39.1841 2.86731 39.1821 1.85774C39.1801 0.848159 39.9967 0.0273816 41.007 0.0253942Z" fill="#B0F8D5"/>
<path fill-rule="evenodd" clip-rule="evenodd" d="M53.5378 14.1299C54.5473 14.1279 55.3681 14.9445 55.3701 15.9538C55.3721 16.9641 54.5543 17.7846 53.5447 17.7866C52.5352 17.7886 51.7154 16.971 51.7134 15.9617C51.7104 14.9524 52.5282 14.1319 53.5378 14.1299Z" fill="#B0F8D5"/>
<path fill-rule="evenodd" clip-rule="evenodd" d="M53.5383 0.0253942C54.5476 0.0234069 55.3681 0.84021 55.3701 1.84979C55.3721 2.86036 54.5545 3.68014 53.5452 3.68213C52.5359 3.68511 51.7154 2.86731 51.7134 1.85774C51.7114 0.848159 52.528 0.0273816 53.5383 0.0253942Z" fill="#B0F8D5"/>
<mask id="mask0_1799_12703" style="mask-type:alpha" maskUnits="userSpaceOnUse" x="64" y="0" width="4" height="4">
<path fill-rule="evenodd" clip-rule="evenodd" d="M67.9121 0H64.0675V3.84482H67.9121V0Z" fill="white"/>
</mask>
<g mask="url(#mask0_1799_12703)">
<path fill-rule="evenodd" clip-rule="evenodd" d="M65.985 3.80501e-06C67.0465 -0.00208576 67.9095 0.856727 67.9116 1.91823C67.9137 2.98077 67.0549 3.84272 65.9923 3.84481C64.9308 3.84795 64.0689 2.98809 64.0668 1.92659C64.0647 0.865085 64.9235 0.00209337 65.985 3.80501e-06Z" fill="#B0F8D5"/>
</g>
</svg>
