<svg width="75" height="68" viewBox="0 0 75 68" fill="none" xmlns="http://www.w3.org/2000/svg">
<path fill-rule="evenodd" clip-rule="evenodd" d="M3.65673 66.0882C3.65872 65.0786 2.84192 64.2579 1.83234 64.2559C0.821769 64.2539 0.00198392 65.0717 -3.49649e-06 66.0812C-0.00199067 67.0908 0.814813 67.9106 1.82439 67.9126C2.83397 67.9156 3.65475 67.0978 3.65673 66.0882Z" fill="#B0F8D5"/>
<path fill-rule="evenodd" clip-rule="evenodd" d="M17.7603 66.0882C17.7622 65.0776 16.9454 64.2579 15.9359 64.2559C14.9253 64.2539 14.1055 65.0707 14.1035 66.0813C14.1015 67.0908 14.9183 67.9106 15.9279 67.9126C16.9375 67.9146 17.7583 67.0978 17.7603 66.0882Z" fill="#B0F8D5"/>
<path fill-rule="evenodd" clip-rule="evenodd" d="M31.8638 66.0882C31.8658 65.0786 31.0492 64.2579 30.0389 64.2559C29.0296 64.2539 28.21 65.0707 28.207 66.0813C28.205 67.0908 29.0226 67.9106 30.0319 67.9126C31.0412 67.9146 31.8618 67.0978 31.8638 66.0882Z" fill="#B0F8D5"/>
<path fill-rule="evenodd" clip-rule="evenodd" d="M45.9702 66.0882C45.9722 65.0786 45.1554 64.2579 44.1458 64.2559C43.1352 64.2539 42.3155 65.0717 42.3135 66.0813C42.3105 67.0908 43.1283 67.9106 44.1379 67.9126C45.1474 67.9146 45.9682 67.0978 45.9702 66.0882Z" fill="#B0F8D5"/>
<path fill-rule="evenodd" clip-rule="evenodd" d="M60.0737 66.0882C60.0757 65.0786 59.2589 64.2579 58.2493 64.2559C57.2388 64.2539 56.419 65.0717 56.417 66.0812C56.415 67.0908 57.2318 67.9106 58.2414 67.9126C59.251 67.9156 60.0717 67.0988 60.0737 66.0882Z" fill="#B0F8D5"/>
<path fill-rule="evenodd" clip-rule="evenodd" d="M74.1787 66.0882C74.1807 65.0776 73.3639 64.2579 72.3543 64.2559C71.3437 64.2539 70.524 65.0707 70.522 66.0813C70.52 67.0908 71.3368 67.9106 72.3464 67.9126C73.3569 67.9146 74.1767 67.0978 74.1787 66.0882Z" fill="#B0F8D5"/>
<path fill-rule="evenodd" clip-rule="evenodd" d="M17.7603 53.0306C17.7622 52.021 16.9454 51.2002 15.9359 51.1982C14.9253 51.1963 14.1055 52.0141 14.1035 53.0236C14.1015 54.0332 14.9183 54.853 15.9279 54.855C16.9385 54.858 17.7583 54.0402 17.7603 53.0306Z" fill="#B0F8D5"/>
<path fill-rule="evenodd" clip-rule="evenodd" d="M31.8638 53.0301C31.8658 52.0208 31.0492 51.2002 30.0399 51.1982C29.0296 51.1963 28.21 52.0138 28.207 53.0231C28.205 54.0324 29.0226 54.852 30.0319 54.855C31.0412 54.857 31.8618 54.0404 31.8638 53.0301Z" fill="#B0F8D5"/>
<path fill-rule="evenodd" clip-rule="evenodd" d="M45.9702 53.0306C45.9722 52.02 45.1554 51.2002 44.1458 51.1982C43.1352 51.1963 42.3155 52.0131 42.3135 53.0236C42.3115 54.0332 43.1283 54.853 44.1379 54.855C45.1474 54.857 45.9682 54.0402 45.9702 53.0306Z" fill="#B0F8D5"/>
<path fill-rule="evenodd" clip-rule="evenodd" d="M60.0737 53.0306C60.0757 52.021 59.2589 51.2002 58.2493 51.1982C57.2388 51.1963 56.419 52.0141 56.417 53.0236C56.415 54.0332 57.2318 54.853 58.2414 54.855C59.251 54.857 60.0717 54.0402 60.0737 53.0306Z" fill="#B0F8D5"/>
<path fill-rule="evenodd" clip-rule="evenodd" d="M74.1787 53.0306C74.1807 52.021 73.3641 51.2002 72.3548 51.1982C71.3445 51.1963 70.524 52.0141 70.522 53.0236C70.52 54.0332 71.3376 54.853 72.3469 54.855C73.3562 54.857 74.1767 54.0402 74.1787 53.0306Z" fill="#B0F8D5"/>
<path fill-rule="evenodd" clip-rule="evenodd" d="M31.8638 39.973C31.8658 38.9634 31.0489 38.1426 30.0394 38.1406C29.0288 38.1386 28.209 38.9564 28.207 39.966C28.205 40.9756 29.0218 41.7954 30.0314 41.7974C31.041 41.7994 31.8618 40.9826 31.8638 39.973Z" fill="#B0F8D5"/>
<path fill-rule="evenodd" clip-rule="evenodd" d="M45.9702 39.973C45.9722 38.9634 45.1554 38.1426 44.1458 38.1406C43.1352 38.1386 42.3155 38.9564 42.3135 39.966C42.3115 40.9756 43.1283 41.7954 44.1379 41.7974C45.1484 41.8003 45.9682 40.9825 45.9702 39.973Z" fill="#B0F8D5"/>
<path fill-rule="evenodd" clip-rule="evenodd" d="M60.0737 39.973C60.0747 38.9624 59.2591 38.1426 58.2488 38.1406C57.2395 38.1386 56.419 38.9554 56.417 39.966C56.415 40.9756 57.2326 41.7954 58.2419 41.7974C59.2512 41.7994 60.0717 40.9826 60.0737 39.973Z" fill="#B0F8D5"/>
<path fill-rule="evenodd" clip-rule="evenodd" d="M74.1787 39.973C74.1807 38.9634 73.3641 38.1426 72.3548 38.1406C71.3445 38.1386 70.5249 38.9564 70.522 39.966C70.52 40.9756 71.3376 41.7954 72.3469 41.7974C73.3562 41.7994 74.1767 40.9826 74.1787 39.973Z" fill="#B0F8D5"/>
<path fill-rule="evenodd" clip-rule="evenodd" d="M45.9702 26.9056C45.9722 25.896 45.1556 25.0752 44.1453 25.0732C43.136 25.0713 42.3155 25.8891 42.3135 26.8986C42.3115 27.9082 43.1291 28.728 44.1384 28.73C45.1477 28.732 45.9682 27.9152 45.9702 26.9056Z" fill="#B0F8D5"/>
<path fill-rule="evenodd" clip-rule="evenodd" d="M60.0737 26.9056C60.0757 25.896 59.2591 25.0752 58.2498 25.0732C57.2395 25.0713 56.419 25.8891 56.417 26.8986C56.415 27.9082 57.2326 28.728 58.2419 28.73C59.2512 28.733 60.0717 27.9152 60.0737 26.9056Z" fill="#B0F8D5"/>
<path fill-rule="evenodd" clip-rule="evenodd" d="M74.1787 26.9051C74.1807 25.8958 73.3639 25.0752 72.3543 25.0732C71.3437 25.0713 70.524 25.8888 70.522 26.8981C70.519 27.9074 71.3368 28.728 72.3464 28.73C73.3559 28.732 74.1767 27.9154 74.1787 26.9051Z" fill="#B0F8D5"/>
<path fill-rule="evenodd" clip-rule="evenodd" d="M60.0737 14.3743C60.0757 13.3648 59.2591 12.544 58.2498 12.542C57.2395 12.54 56.419 13.3578 56.417 14.3674C56.415 15.377 57.2326 16.1967 58.2419 16.1987C59.2512 16.2017 60.0717 15.3839 60.0737 14.3743Z" fill="#B0F8D5"/>
<path fill-rule="evenodd" clip-rule="evenodd" d="M74.1787 14.3738C74.1807 13.3645 73.3639 12.544 72.3543 12.542C71.3437 12.54 70.524 13.3576 70.522 14.3669C70.519 15.3762 71.3368 16.1967 72.3464 16.1987C73.3559 16.2007 74.1767 15.3841 74.1787 14.3738Z" fill="#B0F8D5"/>
<mask id="mask0_1799_12752" style="mask-type:alpha" maskUnits="userSpaceOnUse" x="70" y="0" width="5" height="4">
<path fill-rule="evenodd" clip-rule="evenodd" d="M74.2041 0L74.2041 3.8446L70.3593 3.8446L70.3593 1.68062e-07L74.2041 0Z" fill="white"/>
</mask>
<g mask="url(#mask0_1799_12752)">
<path fill-rule="evenodd" clip-rule="evenodd" d="M74.2041 1.92659C74.2062 0.865085 73.3474 0.00209341 72.2859 3.88885e-06C71.2233 -0.00208563 70.3614 0.856727 70.3593 1.91927C70.3562 2.98077 71.216 3.84272 72.2775 3.84481C73.339 3.8469 74.202 2.98809 74.2041 1.92659Z" fill="#B0F8D5"/>
</g>
</svg>
