<svg width="68" height="75" viewBox="0 0 68 75" fill="none" xmlns="http://www.w3.org/2000/svg">
<path fill-rule="evenodd" clip-rule="evenodd" d="M66.0877 70.5479C65.0781 70.5459 64.2574 71.3627 64.2554 72.3722C64.2534 73.3828 65.0712 74.2026 66.0808 74.2046C67.0903 74.2066 67.9101 73.3898 67.9121 72.3802C67.9151 71.3706 67.0973 70.5498 66.0877 70.5479Z" fill="#FEFFFF"/>
<path fill-rule="evenodd" clip-rule="evenodd" d="M66.0877 56.4443C65.0771 56.4424 64.2574 57.2592 64.2554 58.2687C64.2534 59.2793 65.0702 60.0991 66.0808 60.1011C67.0903 60.1031 67.9101 59.2863 67.9121 58.2767C67.9141 57.2671 67.0973 56.4463 66.0877 56.4443Z" fill="#FEFFFF"/>
<path fill-rule="evenodd" clip-rule="evenodd" d="M66.0877 42.3398C65.0781 42.3379 64.2574 43.1544 64.2554 44.1647C64.2534 45.174 65.0702 45.9936 66.0808 45.9966C67.0903 45.9986 67.9101 45.181 67.9121 44.1717C67.9141 43.1624 67.0973 42.3418 66.0877 42.3398Z" fill="#FEFFFF"/>
<path fill-rule="evenodd" clip-rule="evenodd" d="M66.0877 28.2334C65.0781 28.2314 64.2574 29.0482 64.2554 30.0578C64.2534 31.0684 65.0712 31.8881 66.0808 31.8901C67.0903 31.8931 67.9101 31.0753 67.9121 30.0657C67.9141 29.0562 67.0973 28.2354 66.0877 28.2334Z" fill="#FEFFFF"/>
<path fill-rule="evenodd" clip-rule="evenodd" d="M66.0877 14.1299C65.0781 14.1279 64.2574 14.9447 64.2554 15.9543C64.2534 16.9649 65.0712 17.7846 66.0808 17.7866C67.0903 17.7886 67.9101 16.9718 67.9121 15.9622C67.9151 14.9527 67.0983 14.1319 66.0877 14.1299Z" fill="#FEFFFF"/>
<path fill-rule="evenodd" clip-rule="evenodd" d="M66.0877 0.0253942C65.0771 0.0234069 64.2574 0.840211 64.2554 1.84979C64.2534 2.86036 65.0702 3.68015 66.0808 3.68213C67.0903 3.68412 67.9101 2.86732 67.9121 1.85774C67.9141 0.847167 67.0973 0.0273816 66.0877 0.0253942Z" fill="#FEFFFF"/>
<path fill-rule="evenodd" clip-rule="evenodd" d="M53.0311 56.4443C52.0215 56.4424 51.2007 57.2592 51.1987 58.2687C51.1967 59.2793 52.0145 60.0991 53.0241 60.1011C54.0337 60.1031 54.8535 59.2863 54.8555 58.2767C54.8584 57.2661 54.0407 56.4463 53.0311 56.4443Z" fill="#FEFFFF"/>
<path fill-rule="evenodd" clip-rule="evenodd" d="M53.0306 42.3398C52.0213 42.3379 51.2007 43.1544 51.1987 44.1637C51.1967 45.174 52.0143 45.9936 53.0236 45.9966C54.0329 45.9986 54.8525 45.181 54.8555 44.1717C54.8575 43.1624 54.0409 42.3418 53.0306 42.3398Z" fill="#FEFFFF"/>
<path fill-rule="evenodd" clip-rule="evenodd" d="M53.0311 28.2334C52.0205 28.2314 51.2007 29.0482 51.1987 30.0578C51.1967 31.0684 52.0136 31.8882 53.0241 31.8901C54.0337 31.8921 54.8535 31.0753 54.8555 30.0657C54.8575 29.0562 54.0407 28.2354 53.0311 28.2334Z" fill="#FEFFFF"/>
<path fill-rule="evenodd" clip-rule="evenodd" d="M53.0311 14.1299C52.0215 14.1279 51.2007 14.9447 51.1987 15.9543C51.1967 16.9649 52.0145 17.7846 53.0241 17.7866C54.0337 17.7886 54.8535 16.9718 54.8555 15.9622C54.8575 14.9527 54.0407 14.1319 53.0311 14.1299Z" fill="#FEFFFF"/>
<path fill-rule="evenodd" clip-rule="evenodd" d="M53.0311 0.0253942C52.0215 0.0234074 51.2007 0.83999 51.1987 1.84929C51.1967 2.85959 52.0145 3.68015 53.0241 3.68213C54.0337 3.68412 54.8535 2.86654 54.8555 1.85724C54.8575 0.847937 54.0407 0.0273811 53.0311 0.0253942Z" fill="#FEFFFF"/>
<path fill-rule="evenodd" clip-rule="evenodd" d="M39.973 42.3398C38.9634 42.3379 38.1426 43.1547 38.1406 44.1642C38.1386 45.1748 38.9564 45.9946 39.966 45.9966C40.9756 45.9986 41.7954 45.1818 41.7974 44.1722C41.7994 43.1626 40.9826 42.3418 39.973 42.3398Z" fill="#FEFFFF"/>
<path fill-rule="evenodd" clip-rule="evenodd" d="M39.973 28.2334C38.9634 28.2314 38.1426 29.0482 38.1406 30.0578C38.1386 31.0684 38.9564 31.8882 39.966 31.8901C40.9756 31.8921 41.7954 31.0753 41.7974 30.0657C41.8003 29.0552 40.9825 28.2354 39.973 28.2334Z" fill="#FEFFFF"/>
<path fill-rule="evenodd" clip-rule="evenodd" d="M39.973 14.1299C38.9624 14.1289 38.1426 14.9445 38.1406 15.9548C38.1386 16.9641 38.9554 17.7846 39.966 17.7866C40.9756 17.7886 41.7954 16.971 41.7974 15.9617C41.7994 14.9524 40.9826 14.1319 39.973 14.1299Z" fill="#FEFFFF"/>
<path fill-rule="evenodd" clip-rule="evenodd" d="M39.973 0.0253942C38.9634 0.0234074 38.1426 0.83999 38.1406 1.84929C38.1386 2.85959 38.9564 3.67915 39.966 3.68213C40.9756 3.68412 41.7954 2.86654 41.7974 1.85724C41.7994 0.847937 40.9826 0.0273811 39.973 0.0253942Z" fill="#FEFFFF"/>
<path fill-rule="evenodd" clip-rule="evenodd" d="M26.9056 28.2334C25.896 28.2314 25.0752 29.048 25.0732 30.0583C25.0713 31.0676 25.8891 31.8882 26.8986 31.8901C27.9082 31.8921 28.728 31.0746 28.73 30.0652C28.732 29.0559 27.9152 28.2354 26.9056 28.2334Z" fill="#FEFFFF"/>
<path fill-rule="evenodd" clip-rule="evenodd" d="M26.9056 14.1299C25.896 14.1279 25.0752 14.9445 25.0732 15.9538C25.0713 16.9641 25.8891 17.7846 26.8986 17.7866C27.9082 17.7886 28.728 16.971 28.73 15.9617C28.733 14.9524 27.9152 14.1319 26.9056 14.1299Z" fill="#FEFFFF"/>
<path fill-rule="evenodd" clip-rule="evenodd" d="M26.9051 0.0253942C25.8958 0.0234069 25.0752 0.84021 25.0732 1.84979C25.0713 2.86036 25.8888 3.68014 26.8981 3.68213C27.9074 3.68511 28.728 2.86731 28.73 1.85774C28.732 0.848159 27.9154 0.0273816 26.9051 0.0253942Z" fill="#FEFFFF"/>
<path fill-rule="evenodd" clip-rule="evenodd" d="M14.3743 14.1299C13.3648 14.1279 12.544 14.9445 12.542 15.9538C12.54 16.9641 13.3578 17.7846 14.3674 17.7866C15.377 17.7886 16.1967 16.971 16.1987 15.9617C16.2017 14.9524 15.3839 14.1319 14.3743 14.1299Z" fill="#FEFFFF"/>
<path fill-rule="evenodd" clip-rule="evenodd" d="M14.3738 0.0253942C13.3645 0.0234069 12.544 0.84021 12.542 1.84979C12.54 2.86036 13.3576 3.68014 14.3669 3.68213C15.3762 3.68511 16.1967 2.86731 16.1987 1.85774C16.2007 0.848159 15.3841 0.0273816 14.3738 0.0253942Z" fill="#FEFFFF"/>
<mask id="mask0_1799_12679" style="mask-type:alpha" maskUnits="userSpaceOnUse" x="0" y="0" width="4" height="4">
<path fill-rule="evenodd" clip-rule="evenodd" d="M0 0H3.8446V3.84482H0V0Z" fill="white"/>
</mask>
<g mask="url(#mask0_1799_12679)">
<path fill-rule="evenodd" clip-rule="evenodd" d="M1.92708 3.80501e-06C0.865574 -0.00208576 0.00258166 0.856727 0.000492086 1.91823C-0.00159748 2.98077 0.857216 3.84272 1.91976 3.84481C2.98126 3.84795 3.84321 2.98809 3.8453 1.92659C3.84739 0.865085 2.98858 0.00209337 1.92708 3.80501e-06Z" fill="#FEFFFF"/>
</g>
</svg>
