<svg width="146" height="146" viewBox="0 0 146 146" fill="none" xmlns="http://www.w3.org/2000/svg">
<path fill-rule="evenodd" clip-rule="evenodd" d="M72.5111 12.2305L54.6947 29.7406L29.7256 29.9315L29.4975 54.9171L12.0039 72.7185L29.4975 90.5569L29.7256 115.514L54.6947 115.765L72.5111 133.245L90.3276 115.765L115.297 115.514L115.523 90.5569L133.018 72.7185L115.523 54.9171L115.297 29.9315L90.3276 29.7406L72.5111 12.2305ZM55.8289 113.002L32.4599 112.793L32.251 89.4239L15.8662 72.7173L32.251 56.0603L32.4599 32.6834L55.8289 32.4806L72.5113 16.0926L89.1936 32.4806L112.563 32.6834L112.772 56.0603L129.156 72.7173L112.772 89.4239L112.563 112.793L89.1936 113.002L72.5113 129.383L55.8289 113.002Z" fill="#FEB400"/>
<path fill-rule="evenodd" clip-rule="evenodd" d="M72.7374 0L51.3198 21.0494L21.3037 21.2789L21.0296 51.3148L0 72.7143L21.0296 94.1584L21.3037 124.16L51.3198 124.462L72.7374 145.475L94.1551 124.462L124.171 124.16L124.444 94.1584L145.475 72.7143L124.444 51.3148L124.171 21.2789L94.1551 21.0494L72.7374 0ZM52.6428 121.238L24.4937 120.986L24.2421 92.8368L4.50585 72.713L24.2421 52.6489L24.4937 24.4903L52.6428 24.246L72.7374 4.50585L92.832 24.246L120.981 24.4903L121.233 52.6489L140.969 72.713L121.233 92.8368L120.981 120.986L92.832 121.238L72.7374 140.969L52.6428 121.238Z" fill="#129D59"/>
</svg>
