<svg width="146" height="146" viewBox="0 0 146 146" fill="none" xmlns="http://www.w3.org/2000/svg">
<path fill-rule="evenodd" clip-rule="evenodd" d="M72.7374 0L51.3198 21.0494L21.3037 21.2789L21.0296 51.3148L0 72.7143L21.0296 94.1584L21.3037 124.16L51.3198 124.462L72.7374 145.475L94.1551 124.462L124.171 124.16L124.444 94.1584L145.475 72.7143L124.444 51.3148L124.171 21.2789L94.1551 21.0494L72.7374 0ZM52.6426 121.238L24.4934 120.986L24.2419 92.8368L4.50561 72.713L24.2419 52.6489L24.4934 24.4903L52.6426 24.246L72.7372 4.50585L92.8318 24.246L120.981 24.4903L121.233 52.6489L140.969 72.713L121.233 92.8368L120.981 120.986L92.8318 121.238L72.7372 140.969L52.6426 121.238Z" fill="#129D59"/>
<path fill-rule="evenodd" clip-rule="evenodd" d="M72.6244 12.2305L54.808 29.7406L29.8389 29.9315L29.6108 54.9171L12.1172 72.7185L29.6108 90.5569L29.8389 115.514L54.808 115.765L72.6244 133.245L90.4409 115.765L115.41 115.514L115.637 90.5569L133.132 72.7185L115.637 54.9171L115.41 29.9315L90.4409 29.7406L72.6244 12.2305ZM55.9409 113.002L32.5718 112.793L32.363 89.4239L15.9782 72.7173L32.363 56.0603L32.5718 32.6834L55.9409 32.4806L72.6232 16.0926L89.3056 32.4806L112.675 32.6834L112.884 56.0603L129.268 72.7173L112.884 89.4239L112.675 112.793L89.3056 113.002L72.6232 129.383L55.9409 113.002Z" fill="#0F4128"/>
</svg>
