<svg width="58" height="87" viewBox="0 0 58 87" fill="none" xmlns="http://www.w3.org/2000/svg">
<path d="M0.731259 86.3146C0.141146 86.0836 0.0128609 85.6004 0.0171371 85.0317C0.0214133 83.2656 0.0171371 81.4996 0.0171371 79.7292C0.0171371 67.1359 0.0299652 54.5425 3.19646e-05 41.9492C-0.00424422 40.1532 0.419099 38.6822 2.12957 37.8269C2.43318 37.6772 2.38614 37.4292 2.38614 37.1855C2.38614 29.8946 2.40325 22.5994 2.36476 15.3085C2.36048 14.4276 2.00984 13.5553 1.90293 12.6701C1.32565 7.89362 3.42098 4.51116 7.46197 2.18064C8.70206 1.46652 10.0106 0.906341 11.3661 0.448789C11.6013 0.367542 11.8108 0.277741 12.0888 0.376093C14.3466 1.16719 16.5061 2.1336 18.3449 3.71152C21.505 6.42262 22.3089 9.88633 21.5092 13.8247C21.3296 14.7099 21.227 15.5822 21.2313 16.4845C21.2441 19.063 21.2484 21.6458 21.2227 24.2244C21.2185 24.6862 21.3767 24.9171 21.7572 25.1352C25.8325 27.4743 29.8948 29.8347 33.9658 32.1866C34.774 32.6527 35.6506 32.1567 35.6591 31.2288C35.6634 30.7242 35.6506 30.2196 35.6634 29.715C35.6805 28.8127 36.1338 28.2654 36.8351 28.2782C37.5364 28.291 37.9554 28.8298 37.9768 29.7535C37.9768 29.839 37.9854 29.9245 37.9768 30.0058C37.8528 31.1304 37.9768 32.0284 39.1912 32.657C40.1748 33.1659 40.5511 34.282 40.5468 35.398C40.5468 35.877 40.7093 36.0908 41.0856 36.3046C44.4595 38.2374 47.8249 40.1874 51.1902 42.1288C51.9856 42.5863 53.0589 41.9449 53.0632 41.0127C53.0675 40.4781 53.0418 39.9436 53.0717 39.4134C53.1145 38.7035 53.6105 38.2246 54.2605 38.2631C54.949 38.3058 55.321 38.7078 55.4023 39.3834C55.4194 39.5203 55.4194 39.6657 55.4065 39.8025C55.2868 40.9229 55.5049 41.7054 56.6039 42.458C58.7163 43.9076 58.3485 47.2046 56.0608 48.4233C55.5049 48.7184 55.398 49.0348 55.4023 49.5821C55.4194 53.5376 55.4194 57.4931 55.4023 61.4443C55.4023 61.9531 55.4835 62.291 55.9795 62.5903C57.0913 63.2617 57.4249 64.3606 57.4249 65.6178C57.4121 72.293 57.4206 78.9681 57.4206 85.6432C57.4206 85.9212 57.4334 86.2034 57.4377 86.4813C57.3265 86.4813 57.2154 86.4813 57.0999 86.4813C56.8476 86.2119 56.5226 86.3231 56.2276 86.3231C38.2377 86.3188 20.252 86.3188 2.26213 86.3231C1.96708 86.3231 1.63781 86.2119 1.38979 86.4813C1.22302 86.4813 1.05197 86.4813 0.885202 86.4813C0.893754 86.3787 0.829611 86.3317 0.731259 86.3146ZM31.4685 84.1465C39.0972 84.1465 46.7259 84.138 54.3546 84.1594C54.9404 84.1594 55.0986 84.0225 55.0901 83.4281C55.0559 80.9052 55.0559 78.378 55.0901 75.855C55.0986 75.2563 54.9191 75.1238 54.346 75.1281C50.5317 75.1537 46.7173 75.1452 42.903 75.1366C42.5694 75.1366 42.2231 75.1366 41.9023 75.0511C41.3507 74.9014 41.0813 74.4866 41.107 73.9136C41.1326 73.3406 41.4448 72.9643 42.005 72.8531C42.3043 72.7933 42.6208 72.8104 42.9286 72.8104C46.6575 72.8061 50.3906 72.7762 54.1194 72.8318C54.9661 72.8446 55.12 72.588 55.0986 71.8097C55.0388 69.847 55.0815 67.8842 55.0773 65.9214C55.0773 64.4675 54.9746 64.3649 53.4823 64.3649C48.6288 64.3649 43.7796 64.3564 38.9261 64.3777C38.336 64.382 38.165 64.2238 38.1821 63.6337C38.2248 62.1755 38.1564 60.7173 38.212 59.2591C38.2377 58.5536 38.0923 58.3141 37.3183 58.3269C33.9529 58.3783 30.5876 58.3526 27.2222 58.3483C26.1874 58.3483 25.6186 57.9079 25.6357 57.1467C25.6486 56.4069 26.1788 56.0092 27.1795 56.0092C29.929 56.005 32.6786 56.0135 35.4239 56.005C36.3177 56.0007 37.5235 56.3129 38.0239 55.8596C38.5883 55.3422 38.1778 54.1192 38.1906 53.2041C38.2077 51.8699 37.7801 51.4679 36.4246 51.4679C31.6267 51.4679 26.8331 51.4551 22.0352 51.4851C21.4066 51.4893 21.2441 51.3354 21.2527 50.7025C21.2869 47.6194 21.274 44.532 21.2655 41.4446C21.2612 40.2857 20.7951 39.8025 19.6491 39.7769C18.6698 39.7555 17.6863 39.7726 16.7028 39.7726C12.525 39.7726 8.34286 39.7683 4.16503 39.7769C2.79665 39.7811 2.36476 40.2259 2.36048 41.5985C2.35621 42.4666 2.39897 43.3389 2.34766 44.207C2.30917 44.7971 2.48877 44.9468 3.07888 44.9425C6.72647 44.9126 10.3698 44.9254 14.0174 44.9297C15.2232 44.9297 15.7749 45.3102 15.762 46.127C15.7492 46.9181 15.2232 47.273 14.0644 47.273C10.4467 47.273 6.8291 47.2944 3.21145 47.2559C2.5187 47.2473 2.34338 47.4056 2.34338 48.1154C2.36904 59.3618 2.36049 70.6124 2.36904 81.8588C2.36904 82.6028 2.04405 83.5949 2.5187 84.0225C2.92494 84.3903 3.90419 84.091 4.62258 84.1636C5.31105 84.2363 5.4992 84.0268 5.49493 83.3127C5.46499 74.5337 5.47782 65.7547 5.47782 56.9757C5.47782 56.6678 5.46499 56.3513 5.54196 56.0563C5.70018 55.4277 6.13208 55.1112 6.78206 55.1754C7.39355 55.2353 7.73565 55.6073 7.79979 56.2145C7.82972 56.4925 7.81262 56.7747 7.81262 57.0569C7.81262 65.806 7.82117 74.5593 7.79551 83.3084C7.79124 84.0311 7.99649 84.1636 8.67641 84.1636C16.2666 84.138 23.8654 84.1465 31.4685 84.1465ZM4.72522 25.9006C4.72522 29.2959 4.72522 32.6869 4.72522 36.0822C4.72522 37.4506 4.72949 37.395 6.08076 37.472C6.92745 37.519 7.08139 37.2325 7.07284 36.4457C7.03435 31.9001 7.06856 27.3588 7.04718 22.8132C7.03863 20.8462 7.81262 19.3153 9.52737 18.3574C12.649 16.617 16.4975 18.8064 16.5489 22.3984C16.6173 26.9398 16.5702 31.4853 16.5702 36.0309C16.5702 37.4506 16.5745 37.395 17.9686 37.472C18.7768 37.5148 18.9093 37.2282 18.905 36.497C18.8794 29.5397 18.8922 22.5823 18.8837 15.6292C18.8837 15.0349 18.9521 14.4618 19.0932 13.8888C20.1537 9.63403 18.9649 6.48248 15.1377 4.34012C11.4816 2.2961 12.2812 2.41156 8.73627 4.15196C8.71062 4.16479 8.68496 4.17334 8.6593 4.18617C5.17849 6.13611 3.60913 8.9755 4.30615 12.7385C4.69956 14.8638 4.70811 16.9634 4.72094 19.0844C4.73804 21.3551 4.72522 23.6257 4.72522 25.9006ZM46.743 62.0387C48.6502 62.0387 50.5573 62.0258 52.4645 62.0472C52.9349 62.0515 53.0803 61.9232 53.0803 61.44C53.0632 57.4033 53.0675 53.3666 53.076 49.3256C53.076 48.9621 53.0162 48.744 52.6356 48.5473C51.2116 47.8204 50.4804 46.6273 50.5531 45.0109C50.5702 44.5876 50.4419 44.378 50.0741 44.1685C46.7216 42.2528 43.3862 40.3114 40.0465 38.3828C39.3922 38.0065 37.9896 38.7762 37.9896 39.5246C37.9811 42.6077 37.9896 45.6951 37.9854 48.7782C37.9854 49.069 37.9854 49.3042 38.3232 49.4581C39.9952 50.2107 40.5596 51.5877 40.5297 53.3452C40.4912 55.9793 40.5382 58.6177 40.504 61.2519C40.4955 61.8591 40.628 62.0772 41.2823 62.06C43.0954 62.0087 44.9213 62.0387 46.743 62.0387ZM21.2356 27.5213C21.2356 30.8482 21.2398 34.0382 21.2313 37.2282C21.2313 37.5319 21.2954 37.72 21.6033 37.8868C23.0144 38.6608 23.6259 39.8923 23.6088 41.4873C23.5875 43.8392 23.6131 46.1954 23.596 48.5473C23.5917 48.9578 23.6602 49.1246 24.1348 49.1246C27.7781 49.1032 31.4214 49.1032 35.0647 49.1246C35.5479 49.1289 35.6762 48.9878 35.672 48.5131C35.6506 45.5155 35.6549 42.5179 35.672 39.516C35.672 39.1269 35.5479 38.9387 35.1973 38.7548C33.6835 37.9509 32.9694 36.6809 33.1704 34.9576C33.2131 34.6069 33.1533 34.406 32.8283 34.2178C29.0011 32.0241 25.1825 29.8091 21.2356 27.5213ZM14.2526 29.715C14.2526 27.3888 14.2654 25.0625 14.2483 22.7363C14.2354 21.1455 13.2476 20.1021 11.8109 20.1064C10.4125 20.1107 9.39053 21.1156 9.38198 22.6593C9.35205 27.393 9.3777 32.131 9.3606 36.869C9.3606 37.3865 9.57013 37.4634 10.0106 37.4549C11.1865 37.4335 12.3668 37.4121 13.5384 37.4634C14.1628 37.4891 14.2697 37.2496 14.2611 36.6937C14.2354 34.3675 14.2526 32.0412 14.2526 29.715ZM36.8137 34.0681C36.0483 34.0724 35.4111 34.7139 35.4282 35.4665C35.441 36.2191 36.091 36.8519 36.8436 36.8391C37.6048 36.8306 38.2377 36.1934 38.2291 35.4365C38.2248 34.6839 37.5834 34.0639 36.8137 34.0681ZM55.6203 45.2418C55.6246 44.455 55.0431 43.8692 54.2477 43.8649C53.4566 43.8606 52.8708 44.4422 52.8708 45.2333C52.8708 46.0244 53.4566 46.6145 54.2391 46.6145C55.0345 46.6145 55.6161 46.0329 55.6203 45.2418Z" fill="#126963"/>
<path d="M22.9973 74.6699C23.1106 74.6896 23.1845 74.7438 23.1697 74.872C23.1057 74.872 23.0416 74.872 22.9775 74.872C22.9973 74.8276 23.0268 74.7882 23.0367 74.7438C23.0367 74.7241 23.012 74.6946 22.9973 74.6699Z" fill="white"/>
<path d="M31.6717 1.2168C31.7735 1.21757 31.8359 1.26688 31.8632 1.35626C31.8926 1.4518 31.8668 1.53733 31.7872 1.59588C31.7061 1.65521 31.6201 1.70761 31.5383 1.76693C31.4594 1.82472 31.4064 1.90717 31.3547 1.99346C31.2945 2.09363 31.2027 2.13292 31.0987 2.07051C30.9998 2.01041 30.9632 1.91487 31.0141 1.80084C31.141 1.51575 31.3712 1.35472 31.6258 1.2245C31.6423 1.21449 31.6638 1.21757 31.6717 1.2168Z" fill="#50291D"/>
</svg>
