<svg width="96" height="119" viewBox="0 0 96 119" fill="none" xmlns="http://www.w3.org/2000/svg">
<g clip-path="url(#clip0_2262_17203)">
<path d="M82.6768 62.9189C82.6768 62.2573 82.4562 61.5957 81.9892 61.1157C78.266 57.3016 78.266 52.6443 81.9633 48.7525C82.3006 48.4022 82.6379 48.0519 82.6508 47.546C82.7806 43.7838 82.6249 40.0606 81.12 36.5319C78.8627 31.2779 75.0876 27.4119 70.1579 24.6357C64.2681 21.3146 58.3265 18.0843 52.3979 14.8411C49.3492 13.1806 45.6649 13.1676 42.6162 14.8411C36.8043 18.0195 31.0054 21.2108 25.2195 24.4281C20.16 27.2433 16.2162 31.1222 13.9071 36.506C12.4671 39.853 12.2595 43.3687 12.3244 46.9492C12.3373 47.6368 12.5968 48.3114 13.0768 48.8043C16.7481 52.5924 16.7092 57.3795 12.973 61.1546C12.5319 61.5957 12.3114 62.2184 12.3244 62.8411C12.3503 66.1752 12.3373 69.5092 12.3373 72.8303C12.3373 74.0368 12.8433 74.6854 13.7644 74.6854C14.6984 74.6984 15.2044 74.0627 15.2044 72.8692C15.2044 69.8206 15.2173 66.7719 15.2044 63.7362C15.2044 63.2822 15.2822 62.906 15.6065 62.5297C19.68 57.8595 19.706 52.0346 15.6714 47.3384C15.4508 47.0789 15.2044 46.8584 15.2044 46.4433C15.2044 44.3546 15.1914 42.253 15.7103 40.2033C17.1503 34.56 20.6271 30.4216 25.5568 27.5546C31.693 23.987 37.9589 20.6141 44.1989 17.2022C46.4562 15.9697 48.7914 16.0865 51.0487 17.3189C57.0292 20.6011 63.0616 23.8054 68.9514 27.2433C76.1514 31.4335 80.186 37.5568 79.8098 46.1319C79.7838 46.6119 79.5762 47.066 79.2779 47.4292C75.3081 52.1124 75.36 57.9114 79.3816 62.5168C79.6152 62.7762 79.8098 63.0227 79.8098 63.4249C79.7968 67.4984 79.7968 69.4054 79.8098 73.4789C79.8098 74.2703 80.4584 74.906 81.2368 74.906C82.0281 74.906 82.6638 74.2703 82.6638 73.4789C82.6768 69.2497 82.6638 67.1741 82.6768 62.9189Z" fill="#CEBB97"/>
<path d="M71.9222 91.2H54.9146C52.8 91.2 51.0746 89.4746 51.0746 87.36C51.0746 85.2454 52.8 83.52 54.9146 83.52H71.9352C74.0498 83.52 75.7752 85.2454 75.7752 87.36C75.7622 89.4876 74.0368 91.2 71.9222 91.2ZM54.9146 85.0768C53.6562 85.0768 52.6314 86.1016 52.6314 87.36C52.6314 88.6184 53.6562 89.6433 54.9146 89.6433H71.9352C73.1935 89.6433 74.2184 88.6184 74.2184 87.36C74.2184 86.1016 73.1935 85.0768 71.9352 85.0768H54.9146Z" fill="#CEBB97"/>
<path d="M47.079 91.2H30.0714C27.9568 91.2 26.2314 89.4746 26.2314 87.36C26.2314 85.2454 27.9568 83.52 30.0714 83.52H47.092C49.2066 83.52 50.932 85.2454 50.932 87.36C50.932 89.4876 49.2066 91.2 47.079 91.2ZM30.0714 85.0768C28.813 85.0768 27.7882 86.1016 27.7882 87.36C27.7882 88.6184 28.813 89.6433 30.0714 89.6433H47.092C48.3503 89.6433 49.3752 88.6184 49.3752 87.36C49.3752 86.1016 48.3503 85.0768 47.092 85.0768H30.0714Z" fill="#CEBB97"/>
<path d="M50.1665 78.4479C48.3633 78.4479 46.8844 76.9819 46.8844 75.1657V72.2338C46.8844 70.4176 48.3503 68.9517 50.1665 68.9517C51.9698 68.9517 53.4487 70.4176 53.4487 72.2338V75.1657C53.4487 76.969 51.9698 78.4479 50.1665 78.4479ZM50.1665 70.5863C49.2584 70.5863 48.5319 71.3257 48.5319 72.2208V75.1527C48.5319 76.0608 49.2714 76.7873 50.1665 76.7873C51.0746 76.7873 51.8011 76.0479 51.8011 75.1527V72.2208C51.8011 71.3257 51.0746 70.5863 50.1665 70.5863Z" fill="#CEBB97"/>
<path d="M66.8887 95.9093H34.3914C33.7038 95.9093 33.133 95.3515 33.133 94.651C33.133 93.9634 33.6908 93.3926 34.3914 93.3926H66.8757C67.5633 93.3926 68.1341 93.9504 68.1341 94.651C68.1341 95.3515 67.5762 95.9093 66.8887 95.9093Z" fill="#CEBB97"/>
<path d="M49.8421 93.8984V77.4097C49.8421 77.0335 50.2184 76.7222 50.6854 76.7222C51.1524 76.7222 51.5286 77.0335 51.5286 77.4097V93.8984C51.5286 94.2746 51.1524 94.586 50.6854 94.586C50.2184 94.586 49.8421 94.2876 49.8421 93.8984Z" fill="#CEBB97"/>
<path d="M74.6984 100.502H26.5168C25.8293 100.502 25.2585 99.9438 25.2585 99.2432C25.2585 98.5557 25.8163 97.9849 26.5168 97.9849H74.6984C75.386 97.9849 75.9568 98.5427 75.9568 99.2432C75.9439 99.9438 75.386 100.502 74.6984 100.502Z" fill="#CEBB97"/>
<path d="M42.3048 49.479C42.0453 49.479 41.7988 49.3752 41.6172 49.1676C41.0723 48.5449 40.0604 47.7147 38.5167 46.6379C38.335 46.5211 38.2183 46.3395 38.1534 46.119C37.6864 44.3287 37.388 42.4736 37.3231 40.8779C37.3102 40.5665 37.4529 40.2811 37.7123 40.0995C43.7967 35.8314 51.9956 35.8314 58.1058 40.0995C58.3653 40.2811 58.508 40.5795 58.495 40.9038C58.3912 42.5514 58.0929 44.4066 57.6388 46.132C57.5869 46.3395 57.4572 46.5211 57.2756 46.6509C55.8226 47.6628 54.7848 48.519 54.1621 49.1936C53.9156 49.466 53.5264 49.5568 53.1891 49.4401L52.6312 49.2325C50.6983 48.532 50.1145 48.3244 47.8961 48.3244C45.7166 48.3244 45.1329 48.532 43.1999 49.2325L42.6031 49.4401C42.5123 49.453 42.4085 49.479 42.3048 49.479ZM47.9091 46.4952C50.4388 46.4952 51.2691 46.7936 53.2539 47.5201H53.2669C53.9285 46.8844 54.8237 46.1579 55.9783 45.3406C56.3156 44.0044 56.5491 42.5903 56.6658 41.306C51.3599 37.8552 44.4583 37.8552 39.1912 41.306C39.2821 42.5644 39.5156 43.9655 39.8529 45.3406C41.0723 46.1968 41.9545 46.9103 42.5642 47.5201L42.6031 47.5071C44.588 46.7806 45.4183 46.4952 47.9091 46.4952Z" fill="#CEBB97"/>
<path d="M28.5145 76.1645C28.0086 76.1645 27.6064 75.7623 27.6064 75.2564C27.6064 69.5483 29.0853 64.3461 31.667 60.9732C33.1199 59.0791 35.2734 58.7807 37.1675 58.5213C38.7372 58.3137 40.2161 58.1061 41.254 57.0942C41.5783 56.7959 41.7599 56.4067 41.8507 55.8099C41.9286 55.3169 42.3956 54.9796 42.9015 55.0705C43.3945 55.1483 43.7318 55.6153 43.641 56.1213C43.4724 57.1202 43.1091 57.8467 42.4994 58.4175C41.0464 59.8445 39.1005 60.104 37.401 60.3375C35.6237 60.584 34.0929 60.7915 33.094 62.0888C30.7459 65.1505 29.4097 69.9504 29.4097 75.2564C29.4226 75.7494 29.0205 76.1645 28.5145 76.1645Z" fill="#CEBB97"/>
<path d="M67.3166 76.1645C66.8107 76.1645 66.4085 75.7623 66.4085 75.2564C66.4085 69.9634 65.0463 65.1634 62.6853 62.0888C61.6863 60.7786 60.1555 60.571 58.3912 60.3375C56.6917 60.104 54.7588 59.8445 53.2669 58.4045C52.6701 57.8467 52.3069 57.1202 52.1382 56.1213C52.0604 55.6283 52.3847 55.1613 52.8777 55.0705C53.3707 54.9796 53.8377 55.3169 53.9285 55.8099C54.0323 56.4067 54.2009 56.7959 54.5123 57.0813C55.5761 58.1061 57.055 58.3137 58.6247 58.5213C60.5188 58.7807 62.6593 59.0661 64.1253 60.9732C66.7328 64.3591 68.2247 69.5742 68.2247 75.2564C68.2247 75.7494 67.8225 76.1645 67.3166 76.1645Z" fill="#CEBB97"/>
<path d="M38.2443 41.7475C38.0886 41.7475 37.9459 41.7085 37.8032 41.6307C34.6248 39.8534 32.8734 37.4015 32.8734 34.7161C32.8734 29.6048 39.6194 25.4404 47.9091 25.4404C56.3416 25.4404 62.9448 29.5139 62.9448 34.7161C62.9448 37.3885 61.2064 39.8534 58.054 41.6307C57.6129 41.8772 57.068 41.7215 56.8216 41.2804C56.5751 40.8393 56.7307 40.2945 57.1718 40.048C59.7275 38.595 61.1416 36.701 61.1416 34.7161C61.1416 30.6685 55.0832 27.2566 47.9221 27.2566C40.761 27.2566 34.7026 30.6685 34.7026 34.7161C34.7026 36.7139 36.1167 38.608 38.6983 40.048C39.1394 40.2945 39.2951 40.8393 39.0486 41.2804C38.867 41.5788 38.5556 41.7475 38.2443 41.7475Z" fill="#CEBB97"/>
<path d="M38.2443 41.7472C38.1016 41.7472 37.9459 41.7082 37.8162 41.6304C37.3751 41.3839 37.2194 40.8391 37.4529 40.398C41.0465 33.8077 47.6627 29.4877 57.12 27.5677C57.6129 27.4639 58.0929 27.7882 58.1967 28.2812C58.3005 28.7742 57.9762 29.2542 57.4832 29.358C48.5838 31.1742 42.3827 35.1828 39.0486 41.2801C38.867 41.5785 38.5556 41.7472 38.2443 41.7472Z" fill="#CEBB97"/>
<path d="M57.5999 41.7473C57.2237 41.7473 56.8734 41.5138 56.7437 41.1506C55.1999 36.8565 52.2161 34.0284 47.6237 32.5106C47.1437 32.3549 46.8842 31.836 47.0529 31.3689C47.2086 30.8889 47.7275 30.6295 48.1945 30.7981C53.2929 32.4846 56.7437 35.7668 58.4561 40.5538C58.6248 41.0208 58.3783 41.5397 57.9113 41.7084C57.8075 41.7343 57.7037 41.7473 57.5999 41.7473Z" fill="#CEBB97"/>
<path d="M52.2162 27.6585C51.7881 27.6585 51.4119 27.3602 51.3211 26.9191C50.9967 25.2585 49.5567 24.0521 47.9092 24.0521C46.2616 24.0521 44.8086 25.2585 44.4973 26.9191C44.4065 27.4121 43.9265 27.7364 43.4335 27.6326C42.9405 27.5418 42.6162 27.0618 42.72 26.5688C43.213 24.0521 45.3924 22.2358 47.9221 22.2358C50.4519 22.2358 52.6313 24.065 53.1243 26.5688C53.2151 27.0618 52.9038 27.5418 52.4108 27.6326C52.333 27.6456 52.2681 27.6585 52.2162 27.6585Z" fill="#CEBB97"/>
<path d="M47.9091 59.0143C47.8312 59.0143 47.7534 59.0014 47.6756 58.9884C39.9307 56.9257 36.7264 52.45 38.1534 45.7041C38.2183 45.4057 38.4258 45.1592 38.7112 45.0425C38.9967 44.9257 39.321 44.9646 39.5675 45.1462C40.9296 46.0933 41.8896 46.8587 42.5642 47.5203L42.6031 47.5073C44.601 46.7938 45.4312 46.4954 47.9221 46.4954C48.428 46.4954 48.8302 46.8976 48.8302 47.4035C48.8302 47.9095 48.428 48.3116 47.9221 48.3116C45.7426 48.3116 45.1588 48.5192 43.2258 49.2197L42.6291 49.4273C42.2788 49.557 41.8896 49.4533 41.6431 49.1679C41.2539 48.7268 40.6183 48.1689 39.7231 47.4943C39.1912 52.45 41.9026 55.5635 48.1556 57.237C48.6356 57.3668 48.921 57.8597 48.8042 58.3527C48.6745 58.7549 48.3112 59.0143 47.9091 59.0143Z" fill="#CEBB97"/>
<path d="M47.8962 59.0143C47.494 59.0143 47.1308 58.7418 47.014 58.3397C46.8843 57.8597 47.1697 57.3537 47.6627 57.224C53.9156 55.5505 56.627 52.437 56.0951 47.4813C55.2389 48.13 54.6032 48.6878 54.1621 49.1678C53.9156 49.4402 53.5264 49.531 53.1891 49.4143L52.6313 49.2067C50.6983 48.5062 50.1145 48.2986 47.8962 48.2986C47.3902 48.2986 46.9881 47.8964 46.9881 47.3905C46.9881 46.8846 47.3902 46.4824 47.8962 46.4824C50.4259 46.4824 51.2562 46.7808 53.241 47.5073H53.254C53.9675 46.8197 54.9664 46.0283 56.2378 45.1332C56.4843 44.9646 56.8086 44.9256 57.094 45.0294C57.3794 45.1462 57.587 45.3927 57.6518 45.691C59.0789 52.437 55.8745 56.9127 48.1297 58.9754C48.0648 59.0013 47.974 59.0143 47.8962 59.0143Z" fill="#CEBB97"/>
<path d="M46.0539 51.6327C45.6518 51.6327 45.2885 51.3732 45.1848 50.971C45.0421 50.491 45.3275 49.9851 45.8075 49.8554C47.1696 49.4662 48.6226 49.4662 50.0237 49.8554C50.5037 49.9851 50.7891 50.491 50.6594 50.971C50.5296 51.451 50.0237 51.7364 49.5437 51.6067C48.4669 51.3083 47.3512 51.3083 46.3004 51.6067C46.2226 51.6197 46.1318 51.6327 46.0539 51.6327Z" fill="#CEBB97"/>
<path d="M51.2173 65.9157L39.5416 59.6757C39.1005 59.4422 38.9319 58.8843 39.1654 58.4432C39.3989 58.0022 39.9567 57.8335 40.3978 58.067L52.5535 64.5665C52.8519 64.7222 53.0335 65.0335 53.0335 65.3708" fill="#CEBB97"/>
<path d="M48.2594 67.6415L34.8973 60.5712C34.4562 60.3377 34.2875 59.7928 34.521 59.3388C34.7546 58.8977 35.3124 58.729 35.7535 58.9625L49.6086 66.2923C49.907 66.4479 50.0886 66.7593 50.0886 67.0966" fill="#CEBB97"/>
<path d="M48.8302 64.5277C48.5448 64.5277 48.2464 64.385 48.0778 64.1255C47.7924 63.7104 47.9091 63.1396 48.3243 62.8671L55.3427 58.132C55.7578 57.8466 56.3286 57.9633 56.601 58.3785C56.8864 58.7936 56.7697 59.3644 56.3545 59.6369L49.3362 64.372C49.1805 64.4758 48.9989 64.5277 48.8302 64.5277Z" fill="#CEBB97"/>
<path d="M52.1254 66.2792C51.827 66.2792 51.5416 66.1365 51.3729 65.877C51.1005 65.4619 51.2043 64.8911 51.6194 64.6186L60.0259 59.0143C60.441 58.7289 61.0119 58.8457 61.2843 59.2608C61.5567 59.6759 61.4529 60.2468 61.0378 60.5192L52.6313 66.1235C52.4627 66.2273 52.294 66.2792 52.1254 66.2792Z" fill="#CEBB97"/>
<path d="M34.8453 67.9656C34.3394 67.9656 33.9372 67.5635 33.9372 67.0575V65.8251C33.9372 65.3192 34.3394 64.917 34.8453 64.917C35.3512 64.917 35.7534 65.3192 35.7534 65.8251V67.0575C35.7534 67.5635 35.3383 67.9656 34.8453 67.9656Z" fill="#CEBB97"/>
<path d="M35.1308 76.1645C34.6248 76.1645 34.2227 75.7624 34.2227 75.2564V71.598C34.2227 71.0921 34.6248 70.6899 35.1308 70.6899C35.6367 70.6899 36.0389 71.0921 36.0389 71.598V75.2564C36.0389 75.7494 35.6367 76.1645 35.1308 76.1645Z" fill="#CEBB97"/>
<path d="M28.5664 81.3666C28.0605 81.3666 27.6583 80.9645 27.6583 80.4585V75.5028C27.6583 74.9969 28.0605 74.5947 28.5664 74.5947C29.0724 74.5947 29.4745 74.9969 29.4745 75.5028V80.4585C29.4745 80.9645 29.0594 81.3666 28.5664 81.3666Z" fill="#CEBB97"/>
<path d="M67.3686 81.5351C66.8627 81.5351 66.4605 81.1329 66.4605 80.627V75.6713C66.4605 75.1653 66.8627 74.7632 67.3686 74.7632C67.8746 74.7632 68.2767 75.1653 68.2767 75.6713V80.627C68.2767 81.1329 67.8616 81.5351 67.3686 81.5351Z" fill="#CEBB97"/>
<path d="M60.6745 76.1645C60.1686 76.1645 59.7664 75.7624 59.7664 75.2564V71.598C59.7664 71.0921 60.1686 70.6899 60.6745 70.6899C61.1805 70.6899 61.5826 71.0921 61.5826 71.598V75.2564C61.5826 75.7494 61.1805 76.1645 60.6745 76.1645Z" fill="#CEBB97"/>
</g>
<defs>
<clipPath id="clip0_2262_17203">
<rect width="96" height="118.054" fill="white"/>
</clipPath>
</defs>
</svg>
