<svg width="67" height="55" viewBox="0 0 67 55" fill="none" xmlns="http://www.w3.org/2000/svg">
<path d="M64.6042 23.3482C64.1305 23.0159 63.5354 23.0801 63.1234 23.5085C62.1328 24.5386 61.1278 25.4899 60.0916 26.3831C60.3072 25.5524 60.4951 24.735 60.6563 23.9338C62.492 22.7144 63.9618 20.7275 64.9235 18.1539C65.8108 15.7788 66.2336 12.968 66.114 10.239C66.086 9.59794 65.7038 9.06647 65.1629 8.9166C64.6207 8.76613 64.0697 9.04007 63.7917 9.59824C63.1196 10.9481 62.4096 12.2255 61.6514 13.4564C61.6421 12.4183 61.6004 11.4102 61.527 10.4378C61.5268 10.4153 61.527 10.3929 61.5256 10.3703C61.3165 7.15903 60.8038 3.94049 60.0018 0.804275C59.8499 0.210316 59.3095 -0.129089 58.7954 0.046429C58.2809 0.221798 57.9871 0.845432 58.139 1.43939C58.6319 3.36696 59.0081 5.32689 59.2676 7.29577C58.306 6.23163 57.3155 5.23354 56.2756 4.28512C55.853 3.89933 55.2664 3.87085 54.8164 4.21428C54.3669 4.55727 54.1597 5.19045 54.301 5.78977C55.3954 10.4342 57.2238 14.3975 59.5983 17.295C59.5435 18.109 59.4636 18.9449 59.3561 19.801C58.7153 18.5057 58.0324 17.2639 57.292 16.0548C56.9843 15.5523 56.4338 15.332 55.9222 15.5061C55.4115 15.6799 55.0534 16.2086 55.0311 16.8218C54.9113 20.0976 55.1925 24.8755 57.1575 29.3125C56.9036 30.0529 56.6216 30.8054 56.3102 31.5676C56.0214 30.1215 55.6787 28.7139 55.2727 27.3198C55.1035 26.7389 54.6327 26.3456 54.1013 26.3406C54.098 26.3406 54.0947 26.3406 54.0914 26.3406C53.5651 26.3406 53.0948 26.7233 52.9192 27.2961C51.6119 31.5574 51.2303 36.0065 51.8268 39.8942C51.3944 40.5226 50.9319 41.1523 50.4388 41.7807C50.5317 40.2965 50.5618 38.8305 50.5262 37.3555C50.5115 36.7423 50.1606 36.207 49.6529 36.0231C49.1466 35.84 48.5948 36.0475 48.2803 36.5399C45.9571 40.1765 44.4417 44.3072 43.9769 48.237L43.7152 47.4187C43.5096 46.7756 42.9725 46.3436 42.3789 46.3436H39.1029C38.6582 45.5133 38.2503 44.6211 37.888 43.6818C37.6698 43.116 37.0958 42.8617 36.6058 43.1136C36.1157 43.3656 35.8953 44.0283 36.1136 44.594C36.3455 45.1949 36.5949 45.779 36.8594 46.3436H29.2747C30.8001 43.0823 31.5788 39.6222 31.9749 36.8688C32.3364 36.942 32.7019 36.9799 33.0676 36.9799C33.4338 36.9799 33.7999 36.9418 34.162 36.8685C34.2832 37.7138 34.4263 38.5474 34.5941 39.3561C34.7008 39.8706 35.0988 40.2164 35.5378 40.2164C35.6127 40.2164 35.6888 40.2063 35.7649 40.1853C36.2866 40.0411 36.6081 39.4359 36.483 38.8336C36.3016 37.9586 36.1488 37.0529 36.0255 36.1325C36.3096 35.9599 36.5859 35.7618 36.851 35.5362C37.8512 34.6854 38.7554 33.713 39.5553 32.6454C42.0106 32.4128 44.3669 31.3005 46.2868 29.4142C48.9659 26.7822 50.5023 22.9441 50.5023 18.884V15.0925C50.5023 14.6543 50.3543 14.2424 50.0855 13.9328C49.8176 13.6243 49.462 13.4547 49.0841 13.4547C49.0829 13.4547 49.0816 13.4547 49.0803 13.4547L43.6482 13.4684V12.8645C44.3588 12.7107 44.8985 11.9902 44.8985 11.1259V8.43686C44.8985 7.46085 44.2107 6.66677 43.3653 6.66677H22.7691C21.9237 6.66677 21.2359 7.46085 21.2359 8.43686V11.1259C21.2359 11.9902 21.7757 12.7106 22.4862 12.8645V13.4684L17.0544 13.4547C17.0531 13.4547 17.0519 13.4547 17.0506 13.4547C16.6724 13.4547 16.3168 13.6246 16.0489 13.9328C15.7801 14.2424 15.6321 14.6543 15.6321 15.0925V18.884C15.6321 22.9441 17.1685 26.7822 19.8476 29.4142C21.7678 31.3006 24.1238 32.4128 26.5793 32.6454C27.3793 33.7129 28.2834 34.6856 29.2835 35.5362C29.5488 35.7618 29.8251 35.96 30.1093 36.1327C29.7178 39.0521 28.8682 42.9129 27.0315 46.3435H23.8418C23.2482 46.3435 22.7111 46.7755 22.5053 47.4188L22.2146 48.3283C22.1973 48.3147 22.1804 48.301 22.1629 48.2873C21.7052 44.3424 20.1872 40.1918 17.854 36.5398C17.5395 36.0475 16.9878 35.84 16.4814 36.0229C15.9737 36.2068 15.6228 36.7422 15.6081 37.3554C15.5726 38.8305 15.6027 40.2965 15.6954 41.7806C15.2022 41.152 14.7398 40.5223 14.3074 39.8939C14.904 36.0062 14.5223 31.5571 13.215 27.2959C13.0382 26.7196 12.565 26.3356 12.0327 26.3403C11.5012 26.3453 11.0304 26.7389 10.8612 27.3198C10.4552 28.7138 10.1125 30.1214 9.82371 31.5673C9.51216 30.8051 9.23032 30.0526 8.97638 29.3122C10.9414 24.8751 11.2226 20.0974 11.1029 16.8216C11.0805 16.2083 10.7225 15.6796 10.2117 15.5058C9.7001 15.3317 9.14959 15.5523 8.84191 16.0544C8.10153 17.2633 7.41849 18.5052 6.77782 19.8007C6.67035 18.9446 6.59053 18.1087 6.53563 17.2945C8.91011 14.3972 10.7383 10.4339 11.8329 5.78933C11.9741 5.18985 11.7669 4.55667 11.3173 4.21384C10.8674 3.8707 10.281 3.89918 9.85846 4.28467C8.81853 5.23309 7.82795 6.23118 6.8663 7.29532C7.1258 5.32645 7.50193 3.36666 7.99496 1.43894C8.14686 0.844985 7.85301 0.221351 7.33853 0.0459818C6.82471 -0.128791 6.28401 0.209868 6.13211 0.803827C5.32999 3.94064 4.81732 7.15888 4.60833 10.3698C4.60691 10.392 4.6073 10.4139 4.60691 10.436C4.53341 11.409 4.49169 12.4176 4.48239 13.4559C3.72431 12.2251 3.01428 10.9477 2.34209 9.59779C2.06425 9.03977 1.51284 8.76568 0.971239 8.91615C0.430416 9.06587 0.0480809 9.5972 0.0199224 10.2384C-0.0998156 12.9675 0.323078 15.7785 1.21046 18.1535C2.17211 20.727 3.6419 22.714 5.47762 23.9333C5.63895 24.7346 5.82689 25.5519 6.04247 26.3828C5.00616 25.4894 4.00098 24.538 3.0104 23.5079C2.59849 23.0796 2.00341 23.0152 1.52963 23.3477C1.05688 23.6794 0.832901 24.3173 0.972014 24.935C2.02963 29.63 5.09684 34.7609 9.61821 35.9435C9.97277 36.6519 10.3563 37.3662 10.769 38.0841C9.5553 37.5808 8.35598 37.0133 7.14982 36.367C6.64801 36.0978 6.06327 36.238 5.69501 36.715C5.32766 37.1913 5.2747 37.8762 5.56339 38.4196C7.65719 42.3617 11.6069 46.0745 15.9907 46.0745C16.1976 46.0745 16.4057 46.0651 16.6144 46.0482C17.8223 47.3486 19.1921 48.624 20.696 49.8442C20.6962 49.8443 20.6964 49.8444 20.6966 49.8446C20.9649 50.0625 21.242 50.2775 21.523 50.491L20.8886 52.4759C20.7274 52.9802 20.79 53.5446 21.0562 53.9856C21.3224 54.4267 21.7593 54.6899 22.2249 54.6899H43.9949C44.4605 54.6899 44.8974 54.4267 45.1636 53.9856C45.4298 53.5445 45.4925 52.9801 45.3313 52.4759L44.68 50.4384C44.937 50.2422 45.1907 50.0446 45.4369 49.8446C45.4372 49.8444 45.4373 49.8443 45.4376 49.8442C46.9415 48.624 48.3111 47.3486 49.519 46.0484C49.7277 46.0654 49.9357 46.0746 50.1427 46.0746C54.5263 46.0746 58.4765 42.3616 60.5701 38.4196C60.8587 37.8762 60.8057 37.1912 60.4383 36.7152C60.07 36.2378 59.4854 36.0978 58.9837 36.3671C57.7775 37.0134 56.5782 37.581 55.3644 38.0843C55.777 37.3665 56.1606 36.6521 56.5152 35.9436C61.0366 34.761 64.1038 29.6302 65.1615 24.935C65.3009 24.3176 65.0768 23.6797 64.6042 23.3482ZM61.2428 20.3867C61.2622 20.2391 61.2812 20.0916 61.2992 19.9449C61.3149 19.8151 61.3298 19.6861 61.3445 19.5573C61.361 19.4121 61.3772 19.2671 61.3922 19.1229C61.4056 18.9945 61.4183 18.8667 61.4305 18.7392C61.4442 18.5964 61.4574 18.4539 61.4698 18.3123C61.4808 18.1858 61.4911 18.0598 61.5009 17.9342C61.512 17.7927 61.5222 17.652 61.5319 17.5116C61.5363 17.4468 61.5421 17.3807 61.5463 17.3161C62.4442 16.0462 63.2763 14.7406 64.058 13.373C63.7372 16.0626 62.8262 18.7647 61.2113 20.6349C61.2226 20.5517 61.232 20.4696 61.2428 20.3867ZM43.6477 20.0078V15.711L48.5594 15.6986V18.8842C48.5594 22.2858 47.272 25.5014 45.0275 27.7065C43.8983 28.8158 42.589 29.6051 41.1978 30.0444C42.775 27.0536 43.6477 23.5823 43.6477 20.0078ZM21.1065 27.7065C18.8619 25.5012 17.5745 22.2855 17.5745 18.8842V15.6986L22.4861 15.711V20.0078C22.4861 23.5823 23.3589 27.0537 24.9361 30.0446C23.5449 29.6053 22.2355 28.8156 21.1065 27.7065ZM24.4286 20.0078V12.896H25.6959C26.2323 12.896 26.6671 12.394 26.6671 11.7747C26.6671 11.1554 26.2323 10.6534 25.6959 10.6534H23.1783V8.90929H42.9556V10.6534H30.2148C29.6784 10.6534 29.2436 11.1554 29.2436 11.7747C29.2436 12.394 29.6784 12.896 30.2148 12.896H41.7053V20.0078C41.7053 25.4016 39.4597 30.5318 35.6982 33.7308C34.1245 35.0693 32.0096 35.0693 30.4354 33.7308C26.6742 30.5316 24.4286 25.4016 24.4286 20.0078ZM2.07601 13.373C2.85785 14.7408 3.68982 16.0463 4.58779 17.3161C4.59205 17.382 4.59787 17.4494 4.60239 17.5157C4.61182 17.6543 4.62202 17.7935 4.633 17.9334C4.64282 18.0592 4.65315 18.1854 4.66426 18.3121C4.67653 18.4541 4.68983 18.5968 4.70352 18.7398C4.7158 18.867 4.72832 18.9945 4.74176 19.1228C4.75687 19.2673 4.77302 19.4125 4.78955 19.5582C4.80415 19.6864 4.819 19.8148 4.83463 19.944C4.85271 20.0921 4.87196 20.241 4.89146 20.3902C4.90218 20.472 4.91148 20.5529 4.92272 20.635C3.30774 18.7646 2.39686 16.0627 2.07601 13.373ZM9.14817 19.5816C9.03476 21.9424 8.65307 24.1924 8.02661 26.202C8.01033 26.1416 7.99367 26.081 7.97753 26.0206C7.9451 25.8985 7.9132 25.7768 7.88194 25.6553C7.85042 25.5327 7.81955 25.4106 7.7892 25.2887C7.7591 25.1676 7.72952 25.0468 7.70072 24.9264C7.67166 24.8051 7.64324 24.6842 7.61547 24.5637C7.58783 24.4439 7.56083 24.3246 7.53448 24.2056C7.508 24.086 7.48217 23.967 7.45698 23.8482C7.43179 23.7293 7.40699 23.6109 7.3831 23.493C7.37186 23.4374 7.36114 23.3822 7.35016 23.3267C7.91191 22.0181 8.50737 20.7774 9.14817 19.5816ZM6.42661 13.3679C6.42804 13.2382 6.4301 13.1089 6.43269 12.9801C6.43527 12.8493 6.43837 12.7189 6.44199 12.5892C6.4456 12.4616 6.44974 12.3344 6.45451 12.2078C6.45929 12.0794 6.46459 11.9516 6.4704 11.8242C6.47609 11.6989 6.48241 11.5744 6.48926 11.4504C6.49624 11.3233 6.50373 11.197 6.51174 11.0711C6.51561 11.0103 6.52013 10.95 6.52426 10.8893C7.40596 9.79523 8.30393 8.77716 9.23587 7.81621C8.49561 10.1306 7.5474 12.2019 6.4239 13.9604C6.4239 13.8946 6.42351 13.8289 6.42377 13.7634C6.42416 13.6311 6.42519 13.4992 6.42661 13.3679ZM3.73477 27.1607C4.82675 28.1692 5.9474 29.1054 7.11818 29.9878C7.1382 30.0468 7.16003 30.1065 7.18031 30.1655C7.22422 30.2932 7.26891 30.4213 7.31438 30.5495C7.3552 30.6648 7.39666 30.78 7.43877 30.8958C7.48591 31.0249 7.53396 31.1545 7.58266 31.2842C7.62619 31.4004 7.67024 31.5166 7.71506 31.6332C7.76517 31.7632 7.8162 31.8937 7.86786 32.0242C7.91423 32.1415 7.96086 32.2589 8.00852 32.3766C8.06148 32.5073 8.1156 32.6384 8.16998 32.7697C8.20047 32.8432 8.22953 32.9162 8.26053 32.9899C6.26619 31.7769 4.722 29.5608 3.73477 27.1607ZM12.0385 30.5725C12.5187 32.839 12.7155 35.1052 12.6189 37.2404C12.5887 37.1891 12.5581 37.1376 12.5281 37.0863C12.4671 36.9819 12.4069 36.8776 12.3473 36.7733C12.2862 36.6666 12.2257 36.5598 12.1659 36.453C12.1071 36.3482 12.049 36.2435 11.9915 36.139C11.933 36.0323 11.8751 35.926 11.8181 35.8195C11.7625 35.7162 11.7075 35.6128 11.6531 35.5097C11.5964 35.4017 11.5403 35.294 11.4851 35.1865C11.4335 35.0864 11.3826 34.9864 11.3324 34.8866C11.3064 34.835 11.2812 34.7836 11.2557 34.732C11.4657 33.2995 11.7249 31.9214 12.0385 30.5725ZM8.75912 39.6074C10.0567 40.2015 11.3625 40.7181 12.7018 41.1678C12.7345 41.2157 12.769 41.2636 12.802 41.3116C12.8797 41.4242 12.9581 41.5366 13.0375 41.6492C13.104 41.7435 13.1711 41.8377 13.2389 41.9319C13.3186 42.0428 13.3992 42.1534 13.4806 42.264C13.5507 42.3593 13.6211 42.4546 13.6925 42.5499C13.7752 42.6604 13.8592 42.7708 13.9435 42.881C14.0158 42.9755 14.0884 43.0701 14.162 43.1646C14.2495 43.2769 14.3382 43.389 14.4274 43.501C14.473 43.5583 14.5169 43.6157 14.563 43.673C12.3454 43.1756 10.3076 41.5709 8.75912 39.6074ZM19.7227 46.1923C19.6356 46.1111 19.5494 46.0299 19.4637 45.9484C19.3778 45.8667 19.2926 45.785 19.208 45.7031C19.1222 45.6201 19.0372 45.537 18.9529 45.4537C18.8703 45.3721 18.7884 45.2904 18.7072 45.2085C18.6241 45.1248 18.5417 45.0409 18.4601 44.9569C18.3804 44.8749 18.3013 44.7927 18.2231 44.7106C18.1431 44.6266 18.0638 44.5427 17.9854 44.4585C17.9481 44.4184 17.9115 44.3783 17.8744 44.3382C17.7068 42.8896 17.6019 41.4765 17.5586 40.0721C18.6032 42.0949 19.3827 44.2164 19.8526 46.3122C19.8094 46.2722 19.7657 46.2322 19.7227 46.1923ZM22.9683 52.4477L24.2027 48.586C24.2034 48.586 24.2027 48.586 24.2034 48.586H42.0168H42.0175L43.2519 52.4477H22.9683ZM48.2595 44.3382C48.2215 44.3794 48.184 44.4205 48.1457 44.4615C48.069 44.5439 47.9915 44.6259 47.9133 44.7079C47.8337 44.7915 47.7534 44.8751 47.6724 44.9584C47.5916 45.0416 47.5099 45.1245 47.4276 45.2075C47.346 45.2898 47.2636 45.3719 47.1805 45.454C47.0966 45.5369 47.0118 45.6198 46.9265 45.7025C46.8416 45.7847 46.7561 45.8667 46.6698 45.9487C46.5843 46.03 46.4982 46.111 46.4114 46.192C46.3683 46.2321 46.3247 46.2719 46.2813 46.312C46.7512 44.2162 47.5306 42.0949 48.5753 40.0719C48.532 41.4764 48.4273 42.8892 48.2595 44.3382ZM54.0954 30.5725C54.4091 31.9214 54.6682 33.2993 54.8783 34.7321C54.8533 34.7824 54.8288 34.8325 54.8036 34.8827C54.7523 34.9846 54.7004 35.0866 54.6478 35.1889C54.5929 35.2957 54.5374 35.4026 54.4811 35.5097C54.4269 35.6124 54.3722 35.7154 54.3168 35.8185C54.259 35.926 54.2006 36.0335 54.1414 36.1412C54.0848 36.2441 54.0276 36.3471 53.9698 36.4503C53.9091 36.5587 53.8476 36.6671 53.7855 36.7757C53.7265 36.8789 53.6668 36.9822 53.6065 37.0856C53.5764 37.1372 53.5456 37.1888 53.5152 37.2405C53.4184 35.1054 53.6153 32.839 54.0954 30.5725ZM57.3749 39.6073C55.8265 41.5711 53.7887 43.1759 51.5709 43.6731C51.6209 43.6108 51.6688 43.5485 51.7183 43.4861C51.8014 43.3816 51.884 43.2772 51.9655 43.1727C52.0439 43.0722 52.1212 42.9715 52.198 42.8708C52.278 42.7663 52.3574 42.6618 52.4358 42.5571C52.5114 42.4563 52.5859 42.3555 52.6599 42.2547C52.7369 42.1498 52.8134 42.045 52.8888 41.9402C52.961 41.8399 53.0323 41.7396 53.1031 41.6394C53.1778 41.5335 53.2515 41.4278 53.3245 41.3219C53.3599 41.2706 53.397 41.2191 53.432 41.1678C54.7712 40.7181 56.0773 40.2014 57.3749 39.6073ZM56.898 7.81636C57.83 8.77716 58.7281 9.79538 59.6097 10.8895C59.6139 10.9512 59.6184 11.0127 59.6224 11.0747C59.6305 11.1988 59.6378 11.3235 59.6447 11.4487C59.6515 11.5734 59.6578 11.6985 59.6636 11.8242C59.6695 11.9514 59.6748 12.0792 59.6795 12.2076C59.6842 12.3342 59.6884 12.4613 59.6921 12.5889C59.6957 12.7185 59.6988 12.8485 59.7014 12.9793C59.7039 13.1082 59.7059 13.2375 59.7074 13.3672C59.709 13.4993 59.7099 13.6319 59.7103 13.7651C59.7104 13.8299 59.7101 13.8952 59.71 13.9604C58.5865 12.2021 57.6383 10.1306 56.898 7.81636ZM56.9859 19.5816C57.6267 20.7774 58.2223 22.0184 58.784 23.3269C58.773 23.3823 58.7624 23.4375 58.7511 23.4931C58.7272 23.6111 58.7025 23.7293 58.6772 23.848C58.6519 23.9672 58.626 24.0866 58.5994 24.2065C58.5732 24.3249 58.5462 24.4436 58.5188 24.5626C58.4908 24.684 58.4623 24.8059 58.4329 24.928C58.4043 25.0473 58.3751 25.167 58.3452 25.2871C58.3148 25.41 58.2835 25.5333 58.2517 25.6568C58.2206 25.7775 58.1889 25.8988 58.1567 26.0202C58.1406 26.0806 58.1238 26.1414 58.1074 26.202C57.4809 24.1924 57.0993 21.9425 56.9859 19.5816ZM57.8735 32.9901C57.9044 32.9167 57.9332 32.8439 57.9635 32.7708C58.0184 32.6387 58.0729 32.5067 58.1262 32.3751C58.1732 32.2589 58.2192 32.143 58.2649 32.0273C58.3172 31.895 58.3689 31.7631 58.4195 31.6314C58.4638 31.5161 58.5073 31.4011 58.5505 31.2863C58.5996 31.1557 58.6479 31.0252 58.6953 30.895C58.7373 30.7797 58.7785 30.6649 58.8193 30.5501C58.8649 30.4216 58.9097 30.2933 58.9536 30.1655C58.9739 30.1065 58.9957 30.0468 59.0156 29.9879C60.1864 29.1055 61.3069 28.1695 62.399 27.1608C61.4119 29.5607 59.8677 31.7769 57.8735 32.9901Z" fill="#FEB400"/>
</svg>
