<svg width="50" height="50" viewBox="0 0 50 50" fill="none" xmlns="http://www.w3.org/2000/svg">
<g clip-path="url(#clip0)">
<path d="M48.584 39.9922H31.7992V38.3957C38.5631 37.9587 43.9326 32.3177 43.9326 25.4454V19.4864C43.9326 19.0819 43.6048 18.754 43.2002 18.754H36.2352L38.3793 12.7513C39.3688 13.0335 40.5129 12.5973 40.9997 11.5994C41.5567 10.4946 41.1134 9.14176 40.0094 8.58141L39.1762 8.15846C38.8156 7.97535 38.3747 8.11949 38.1916 8.48004C38.0085 8.84078 38.1525 9.2816 38.5132 9.46471L39.3464 9.88766C39.7319 10.0834 39.8864 10.5563 39.6907 10.9419C39.5137 11.2959 38.9791 11.4607 38.6363 11.2866L33.0225 8.43746C32.6369 8.24186 32.4824 7.76891 32.6779 7.38346C32.9342 6.9774 33.2856 6.86256 33.7322 7.03883L35.6667 8.02037C36.0275 8.20357 36.4684 8.05934 36.6513 7.69869C36.8343 7.33795 36.6902 6.89713 36.3295 6.71412L34.395 5.73258C33.1143 5.22691 32.1064 5.55631 31.3716 6.72086C30.8778 7.6943 31.1625 8.86139 31.992 9.50973L25.7185 18.7541H18.2217C20.1357 17.3605 21.3833 15.1041 21.3833 12.5606V9.82525C21.3833 9.42076 21.0555 9.09283 20.6509 9.09283C17.5953 9.09283 14.9529 10.8922 13.7252 13.4866C12.4975 10.8922 9.85508 9.09283 6.79951 9.09283C6.39492 9.09283 6.06709 9.42076 6.06709 9.82525V12.5606C6.06709 15.1042 7.31455 17.3606 9.22871 18.7541H6.7998C6.39521 18.7541 6.06738 19.082 6.06738 19.4865V25.4455C6.06738 32.3178 11.4369 37.9588 18.2008 38.3958V39.9923H15.3213C14.9167 39.9923 14.5889 40.3203 14.5889 40.7248C14.5889 41.1293 14.9167 41.4572 15.3213 41.4572H48.5352V43.0314H1.46484V41.4572H12.1289C12.5335 41.4572 12.8613 41.1293 12.8613 40.7248C12.8613 40.3203 12.5335 39.9923 12.1289 39.9923H1.41602C0.635254 39.9923 0 40.6276 0 41.4084V43.0802C0 43.861 0.635254 44.4963 1.41602 44.4963H48.584C49.3647 44.4963 50 43.861 50 43.0802V41.4084C50 40.6275 49.3647 39.9922 48.584 39.9922ZM33.2848 10.2133L37.0481 12.1234L34.6797 18.7541H27.4888L33.2848 10.2133ZM19.9185 10.6006V12.5605C19.9185 15.4328 17.9529 17.8546 15.2963 18.5518L17.9363 14.869C18.172 14.5403 18.0966 14.0827 17.7678 13.847C17.439 13.6114 16.9814 13.6868 16.7457 14.0156L14.4575 17.2075C14.3693 13.9706 16.5785 10.9961 19.9185 10.6006ZM7.53193 12.5605V10.6006C10.8719 10.9961 13.0811 13.9706 12.9928 17.2074L10.7046 14.0155C10.4688 13.6865 10.011 13.6114 9.68252 13.8469C9.35381 14.0827 9.27832 14.5402 9.51396 14.8689L12.154 18.5517C9.49746 17.8546 7.53193 15.4328 7.53193 12.5605ZM7.53223 25.4454V23.252H24.5107C24.9153 23.252 25.2432 22.9241 25.2432 22.5196C25.2432 22.1151 24.9153 21.7872 24.5107 21.7872H7.53223V20.2188H42.4678V21.7872H27.7031C27.2985 21.7872 26.9707 22.1151 26.9707 22.5196C26.9707 22.9241 27.2985 23.252 27.7031 23.252H42.4678V25.4454C42.4678 31.794 37.3027 36.959 30.9541 36.959H19.0459C12.6973 36.959 7.53223 31.7941 7.53223 25.4454ZM19.6656 38.4242H30.3344V39.9922H19.6656V38.4242Z" fill="#129D59"/>
</g>
<defs>
<clipPath id="clip0">
<rect width="50" height="50" fill="white"/>
</clipPath>
</defs>
</svg>
