<svg width="46" height="46" viewBox="0 0 46 46" fill="none" xmlns="http://www.w3.org/2000/svg">
<g clip-path="url(#clip0)">
<path d="M10.7338 42.167C10.5421 42.167 10.1588 41.9753 9.96712 41.7837C9.58379 41.4003 9.58379 40.8253 9.96712 40.442C10.7338 39.6753 11.1171 38.9087 11.1171 37.9503C11.1171 36.992 10.7338 36.0337 9.96712 35.4587C9.58379 35.0753 9.58379 34.5003 9.96712 34.117L13.8005 29.1337C14.1838 28.5587 14.3755 27.792 13.9921 27.0253C13.9921 26.8337 13.9921 26.8337 13.8005 26.8337C13.8005 26.8337 13.6088 26.8337 13.4171 27.0253L6.32546 33.9253C5.94212 34.3087 5.36712 34.3087 4.98379 33.9253C4.60046 33.542 4.60046 32.967 4.98379 32.5837L12.0755 25.6837C12.6505 25.1087 13.4171 24.917 14.1838 24.917C14.9505 25.1087 15.5255 25.492 15.9088 26.067C16.6755 27.4087 16.4838 28.942 15.5255 30.092L12.0755 34.5003C12.8421 35.4587 13.2255 36.6087 13.2255 37.7587C13.2255 39.292 12.6505 40.6337 11.5005 41.7837C11.3088 42.167 11.1171 42.167 10.7338 42.167Z" fill="#129D59"/>
<path d="M16.2917 46.0001H0.958333C0.383333 46.0001 0 45.6168 0 45.0418V35.6501C0 32.3918 1.34167 29.3251 3.64167 26.8335L7.28333 23.1918C7.66667 22.8085 8.24167 22.8085 8.625 23.1918C9.00833 23.5751 9.00833 24.1501 8.625 24.5335L4.98333 28.1751C3.06667 30.0918 1.91667 32.7751 1.91667 35.6501V44.0835H15.3333V42.3585C15.3333 41.9751 15.525 41.7835 15.7167 41.5918C17.25 40.6335 18.0167 39.1001 18.2083 37.3751C18.2083 36.8001 18.5917 36.4168 19.1667 36.4168C19.7417 36.4168 20.125 36.8001 20.125 37.3751C20.125 39.4835 18.975 41.5918 17.25 42.9335V45.0418C17.25 45.6168 16.8667 46.0001 16.2917 46.0001Z" fill="#129D59"/>
<path d="M32.1996 21.0839C32.0079 21.0839 32.0079 21.0839 31.8162 21.0839C31.0496 20.8922 30.4746 20.5089 30.0912 19.9339C29.3246 18.5922 29.5162 17.0589 30.4746 15.9089L33.9246 11.5005C33.1579 10.5422 32.7746 9.39219 32.7746 8.24219C32.7746 6.70885 33.3496 5.36719 34.4996 4.21719C34.8829 3.83385 35.4579 3.83385 35.8412 4.21719C36.2246 4.60052 36.2246 5.17552 35.8412 5.55885C35.0746 6.32552 34.6912 7.09219 34.6912 8.05052C34.6912 9.00885 35.0746 9.96719 35.8412 10.5422C36.2246 10.9255 36.2246 11.5005 35.8412 11.8839L32.0079 16.8672C31.6246 17.4422 31.4329 18.2089 31.8162 18.9755C31.8162 19.1672 32.0079 19.1672 32.1996 19.1672C32.1996 19.1672 32.3912 19.1672 32.5829 18.9755L39.6746 12.0755C40.0579 11.6922 40.6329 11.6922 41.0162 12.0755C41.3996 12.4589 41.3996 13.0339 41.0162 13.4172L33.9246 20.3172C33.3496 20.8922 32.7746 21.0839 32.1996 21.0839Z" fill="#129D59"/>
<path d="M38.1417 23C37.95 23 37.5667 23 37.5667 22.8083C37.1833 22.425 37.1833 21.85 37.5667 21.4667L41.2083 17.825C43.125 15.9083 44.275 13.225 44.275 10.35V1.91667H30.8583V3.64167C30.8583 4.025 30.6667 4.21667 30.475 4.40833C28.9417 5.36667 28.175 6.9 27.9833 8.625C27.7917 9.2 27.4083 9.58333 26.8333 9.58333C26.2583 9.58333 25.875 9.2 25.875 8.625C25.875 6.51667 27.025 4.40833 28.75 3.06667V0.958333C28.75 0.383333 29.1333 0 29.7083 0H45.0417C45.6167 0 46 0.383333 46 0.958333V10.35C46 13.6083 44.6583 16.675 42.3583 19.1667L38.7167 22.8083C38.7167 22.8083 38.3333 23 38.1417 23Z" fill="#129D59"/>
<path d="M8.62533 31.242C8.05033 31.242 7.66699 30.8587 7.66699 30.2837V8.62533C7.66699 8.05033 8.05033 7.66699 8.62533 7.66699H33.7337C34.3087 7.66699 34.692 8.05033 34.692 8.62533C34.692 9.20033 34.3087 9.58366 33.7337 9.58366H9.58366V30.2837C9.58366 30.8587 9.20033 31.242 8.62533 31.242Z" fill="#129D59"/>
<path d="M37.3745 38.3338H12.4579C12.2662 38.3338 12.0745 38.3338 11.8829 38.3338C11.3079 38.1421 11.1162 37.7588 11.1162 37.1838C11.1162 36.6088 11.6912 36.4171 12.2662 36.4171H36.4162V15.7171C36.4162 15.1421 36.7995 14.7588 37.3745 14.7588C37.9495 14.7588 38.3329 15.1421 38.3329 15.7171V37.3755C38.3329 37.9505 37.9495 38.3338 37.3745 38.3338Z" fill="#129D59"/>
</g>
<defs>
<clipPath id="clip0">
<rect width="46" height="46" fill="white"/>
</clipPath>
</defs>
</svg>
