<svg width="50" height="51" viewBox="0 0 50 51" fill="none" xmlns="http://www.w3.org/2000/svg">
<path d="M48.4077 41.4141H47.2503V29.0937C47.2503 28.479 46.8186 27.9804 46.286 27.9804C45.7534 27.9804 45.3217 28.479 45.3217 29.0937V41.4141H44.8398H42.6219V36.9213V9.35156H44.0683C44.7594 9.35156 45.3218 10.0007 45.3218 10.7986V20.4844C45.3218 21.0991 45.7535 21.5977 46.2861 21.5977C46.8187 21.5977 47.2504 21.0991 47.2504 20.4844V10.7986C47.2504 8.77299 45.8229 7.125 44.0683 7.125H42.6219V1.11328C42.6219 0.498527 42.1902 0 41.6576 0H28.5432C26.9676 0 25.5664 0.877043 24.686 2.23046C23.8056 0.877043 22.4044 0 20.8288 0H7.71438C7.1818 0 6.75008 0.498527 6.75008 1.11328V7.125H5.30373C3.54919 7.125 2.12165 8.77299 2.12165 10.7986V41.4141H0.964297C0.431716 41.4141 0 41.9126 0 42.5273V44.5312C0 48.0916 2.50901 50.9883 5.59292 50.9883H43.7791C46.863 50.9883 49.372 48.0916 49.372 44.5312V42.5273C49.372 41.9126 48.9403 41.4141 48.4077 41.4141ZM25.6503 12.8348V5.56641C25.6503 3.72482 26.9481 2.22656 28.5432 2.22656H40.6933V35.808H28.5432C27.4588 35.808 26.4567 36.2236 25.6503 36.9239V12.8348ZM25.6503 41.3744C25.6503 39.5328 26.9481 38.0346 28.5432 38.0346H40.6933V41.4141H25.6486C25.649 41.4008 25.6503 41.3878 25.6503 41.3744ZM8.67868 2.22656H20.8288C22.424 2.22656 23.7217 3.72482 23.7217 5.56641V12.8348V36.9243C22.9153 36.2238 21.9135 35.808 20.8288 35.808H8.67868V2.22656ZM8.67868 38.0346H20.8288C22.424 38.0346 23.7217 39.5328 23.7217 41.3744C23.7217 41.3878 23.7231 41.4008 23.7234 41.4141H8.67868V38.0346ZM4.05034 10.7986C4.05034 10.0007 4.61262 9.35156 5.30383 9.35156H6.75008V36.9213V41.4141H4.05034V10.7986ZM47.4434 44.5312C47.4434 46.8639 45.7996 48.7617 43.7791 48.7617H5.59292C3.57243 48.7617 1.92859 46.8639 1.92859 44.5312V43.6406H47.4434V44.5312Z" fill="#129D59"/>
</svg>
