<svg width="51" height="56" viewBox="0 0 51 56" fill="none" xmlns="http://www.w3.org/2000/svg">
<path d="M49.9392 53.5718C49.9559 53.555 49.9741 53.5398 49.9924 53.5246C49.9696 53.406 50.0015 53.2616 49.9939 53.1415C49.8738 51.0236 49.781 47.3854 49.5665 45.272C49.3779 43.4233 48.4562 42.1948 46.8363 41.3799C44.1198 40.0131 41.1584 39.4171 38.2609 38.6158C37.9202 38.5216 37.5734 38.444 37.2357 38.3391C37.0958 38.2966 36.8555 38.2038 36.8555 38.1339C36.8524 37.1624 35.9003 36.8932 35.479 36.238C34.7595 35.119 34.3108 33.8875 33.9108 32.6332C33.8195 32.3443 33.7663 32.0432 33.6811 31.7529C33.348 30.6095 33.383 29.603 34.1785 28.557C35.2736 27.1157 35.8334 25.3734 36.2379 23.6173C36.9087 20.7043 37.3863 17.7608 37.2388 14.7551C37.0821 11.5425 36.5178 8.42268 34.8903 5.58718C33.0545 2.38831 30.3106 0.516728 26.6313 0.100145C23.0645 -0.302754 19.8172 0.480239 17.1509 2.9919C14.9043 5.10674 13.686 7.81149 13.0107 10.7808C11.7604 16.2785 12.5726 21.5755 14.6047 26.7463C15.0047 27.7634 15.5721 28.6954 16.2702 29.5377C16.5896 29.9223 16.6702 30.3131 16.5622 30.8011C16.2839 32.0584 16.185 33.3553 15.7911 34.5884C15.1659 36.542 13.9081 37.8541 11.9019 38.4471C9.47738 39.1632 7.00271 39.7166 4.65275 40.6744C4.04283 40.9238 3.46029 41.2248 2.89295 41.5593C1.63812 42.2997 0.889788 43.3533 0.664679 44.8144C0.471512 46.0657 0.374167 47.323 0.261613 48.5804C0.168832 49.6112 0.158185 52.17 0.100386 53.2038C0.0973443 53.2662 0.103428 53.3346 0.109512 53.403C0.0395461 53.6052 0 53.8196 0 54.0446C0 55.1241 0.876099 55.9998 1.95601 55.9998H48.0455C49.1254 55.9998 50.0015 55.1241 50.0015 54.0446C50 53.8819 49.9772 53.7238 49.9392 53.5718ZM33.5975 35.9552C33.9199 36.6485 34.3473 37.2688 34.8112 37.8724C35.1763 38.3467 34.9405 38.8652 34.5329 39.0309C32.9009 39.6938 31.17 39.9811 29.398 40.1621C30.2604 39.3639 31.1791 38.6554 31.8407 37.696C32.2423 37.1137 32.6392 36.5268 33.018 35.9293C33.2461 35.5705 33.4286 35.5918 33.5975 35.9552ZM23.9193 39.9766C21.2758 40.2928 18.2734 37.6139 17.9844 34.3238C17.9296 33.7005 17.7456 33.0756 17.9524 32.4446C18.0133 32.2591 17.9615 31.9824 18.1851 31.9231C18.4239 31.8608 18.4939 32.1345 18.6095 32.2865C19.0354 32.8506 19.4202 33.4496 19.8795 33.9848C21.4051 35.7545 23.4752 35.9765 25.6229 35.9293C28.2146 35.8731 29.9653 34.5093 31.2049 32.3397C31.3738 32.0448 31.5304 31.5552 31.8833 31.6008C32.2772 31.651 32.1343 32.1907 32.2727 32.4978C32.4202 32.8278 32.4096 33.1714 32.3092 33.5332C31.2247 37.4102 27.9348 39.9431 23.9193 39.9766ZM14.2959 14.1287C14.0967 13.443 14.2685 12.9869 14.337 12.552C14.8252 9.44134 15.8763 6.57695 18.1791 4.31767C21.9298 0.635318 28.7972 0.720459 32.2316 4.50467C34.1131 6.57847 35.0105 9.11294 35.4485 11.8314C35.5733 12.5992 35.6432 13.3761 35.7391 14.1499C35.6828 14.1925 35.6265 14.2336 35.5717 14.2761C33.6842 9.41701 30.2391 6.33673 25.016 6.26071C19.8172 6.18317 16.2489 9.04756 14.2959 14.1287ZM16.5957 27.1142C13.4122 21.5922 14.9211 14.2396 18.214 10.799C23.1041 5.69209 30.2345 7.3721 33.2872 12.8652C34.6348 15.2887 35.0744 17.9387 35.1961 21.1421C34.9512 23.926 34.0812 26.9181 31.7495 29.3446C30.9251 30.2021 30.2056 31.1553 29.5729 32.1588C28.3165 34.1474 26.4564 34.6477 24.2631 34.45C22.6721 34.3071 21.396 33.6396 20.5503 32.2789C19.3974 30.4286 17.6893 29.0131 16.5957 27.1142ZM15.4276 38.6204C15.6587 39.0552 15.8686 39.5037 16.1272 39.9234C17.8946 42.7862 20.5184 44.3096 23.8052 44.7673C24.6555 44.8859 25.5118 44.9877 26.3742 44.9269C26.6997 44.9041 27.0267 44.86 27.3477 44.8022C27.8268 44.7156 28.0382 44.4115 27.9804 43.9326C27.9241 43.4658 27.6123 43.3047 27.1819 43.3016C25.9696 43.2925 24.7574 43.367 23.5512 43.1435C20.5549 42.5886 18.2536 41.1001 16.9273 38.2813C16.7447 37.8921 16.585 37.4877 16.5805 37.0498C16.579 36.8704 16.6413 36.6698 16.8451 36.6409C17.0292 36.6135 17.0642 36.8096 17.125 36.9434C18.7327 40.4251 21.7321 41.649 25.2852 41.8968C27.7492 42.0671 30.1783 41.7417 32.5754 41.1564C32.8613 41.0864 33.1427 40.9283 33.6081 41.0636C31.9 43.7289 29.7722 45.7084 26.7088 46.5005C21.2758 47.9053 16.1622 44.4997 15.3469 38.9427C15.3333 38.8469 15.3348 38.7511 15.4276 38.6204ZM13.324 39.6968C13.8792 39.5661 13.867 39.9857 13.9613 40.3156C15.134 44.4191 17.7106 47.1771 21.8949 48.1668C25.8175 49.0943 29.2261 47.8384 32.1845 45.2279C33.742 43.855 34.8751 42.1537 35.8349 40.3308C35.9915 40.0328 36.0858 39.6132 36.5893 39.7972C37.0958 39.9827 36.8905 40.3734 36.8159 40.6942C36.1512 43.5768 35.0287 46.2147 32.8248 48.2961C31.0026 50.0171 28.8018 50.864 26.3605 51.1772C25.7354 51.2578 25.1027 51.2912 24.6996 51.3262C21.5861 51.2547 18.9137 50.569 16.7265 48.5591C14.915 46.8943 13.9172 44.7597 13.2951 42.4259C13.1324 41.8162 13.0441 41.1883 12.9042 40.5726C12.8084 40.1575 12.8069 39.82 13.324 39.6968ZM2.15374 54.2164C2.05488 54.2164 1.95753 54.2088 1.86171 54.1936C1.91495 53.6919 1.86779 53.1765 1.86779 52.6671C1.86627 50.6679 2.05184 47.1634 2.28151 45.1793C2.43057 43.8855 3.15 43.0477 4.25273 42.4958C6.30152 41.4711 8.5085 40.8979 10.7003 40.2852C11.2174 40.1408 11.4227 40.3688 11.5155 40.8721C11.9186 43.0477 12.53 45.1504 13.7134 47.0524C15.7348 50.3014 18.6764 52.0605 22.447 52.5349C25.0814 52.8663 27.6549 52.6611 30.1281 51.6789C33.8804 50.1905 36.1923 47.3428 37.5643 43.6392C37.908 42.7132 38.1924 41.7691 38.4054 40.8052C38.4966 40.3932 38.6761 40.1666 39.1385 40.2898C41.5812 40.942 44.0377 41.5426 46.3161 42.6965C47.3945 43.2423 47.9041 44.0846 48.0592 45.2584C48.3847 47.729 48.2919 51.577 48.4531 54.2027C48.3832 54.2103 48.3132 54.2164 48.2417 54.2164H2.15374Z" fill="#129D59"/>
</svg>
