<svg width="47" height="47" viewBox="0 0 47 47" fill="none" xmlns="http://www.w3.org/2000/svg">
<g clip-path="url(#clip0)">
<path d="M43.0837 45.4333V1.56667C43.0837 0.701421 42.3822 0 41.517 0H7.05033C5.31983 0 3.91699 1.40284 3.91699 3.13333V43.8667C3.91699 45.5972 5.31983 47 7.05033 47H41.517C42.3822 47 43.0837 46.2986 43.0837 45.4333ZM7.05033 1.56667H41.517V39.1667H7.05033C6.50002 39.1676 5.95967 39.3135 5.48366 39.5897V3.13333C5.48366 2.26809 6.18508 1.56667 7.05033 1.56667ZM8.61699 40.7333H37.6003V42.3H9.40033C8.9677 42.3 8.61699 41.9493 8.61699 41.5167V40.7333ZM41.517 45.4333H7.05033C6.18508 45.4333 5.48366 44.7319 5.48366 43.8667V42.3C5.48366 41.4348 6.18508 40.7333 7.05033 40.7333V41.5167C7.05033 42.8145 8.10246 43.8667 9.40033 43.8667H37.6003C38.4656 43.8667 39.167 43.1652 39.167 42.3V40.7333H41.517V45.4333Z" fill="#129D59"/>
<path d="M9.40065 36.817H37.6007C38.4659 36.817 39.1673 36.1156 39.1673 35.2503V5.48366C39.1673 4.61841 38.4659 3.91699 37.6007 3.91699H9.40065C8.5354 3.91699 7.83398 4.61841 7.83398 5.48366V35.2503C7.83398 36.1156 8.5354 36.817 9.40065 36.817ZM9.40065 5.48366H37.6007V35.2503H9.40065V5.48366Z" fill="#129D59"/>
<path d="M32.1169 15.8941L32.0072 15.8392C31.6599 13.9993 30.0722 12.6534 28.2002 12.6119C27.1506 12.6119 26.8607 12.9566 26.7746 12.8156C26.364 12.1567 25.7707 11.6314 25.0669 11.3037L25.6309 10.7397C25.9299 10.4453 26.0983 10.0431 26.0983 9.62347C26.0983 9.20381 25.9299 8.80169 25.6309 8.50722L24.6204 7.51239C24.3257 7.21094 23.9218 7.04102 23.5002 7.04102C23.0786 7.04102 22.6748 7.21094 22.3801 7.51239L21.3852 8.50722C21.0862 8.80169 20.9179 9.20381 20.9179 9.62347C20.9179 10.0431 21.0862 10.4453 21.3852 10.7397L21.9492 11.3037C21.2397 11.6289 20.6407 12.1544 20.2259 12.8156C20.2085 12.85 20.1686 12.8666 20.1319 12.8547C19.0425 12.4712 17.8393 12.588 16.8441 13.174C15.8488 13.76 15.1629 14.7554 14.9697 15.8941C9.54124 15.8941 9.72141 24.8397 14.8836 24.8397L14.9697 24.8946C15.1748 26.0246 15.8656 27.0078 16.8593 27.5838C17.8529 28.1598 19.0493 28.2706 20.1319 27.8869C20.1587 27.863 20.1991 27.863 20.2259 27.8869C20.6318 28.5574 21.2256 29.0939 21.9336 29.4301L21.3696 29.9941C21.0706 30.2885 20.9022 30.6906 20.9022 31.1103C20.9022 31.53 21.0706 31.9321 21.3696 32.2266L22.3644 33.2214C22.6592 33.5228 23.063 33.6928 23.4846 33.6928C23.9062 33.6928 24.31 33.5228 24.6047 33.2214L25.5996 32.2266C25.8986 31.9321 26.067 31.53 26.067 31.1103C26.067 30.6906 25.8986 30.2885 25.5996 29.9941L25.0669 29.4301C25.7765 29.1049 26.3755 28.5794 26.7902 27.9182C26.8181 27.8973 26.8564 27.8973 26.8842 27.9182C27.9737 28.3018 29.1768 28.1849 30.1721 27.5989C31.1673 27.013 31.8532 26.0176 32.0464 24.8789C37.4514 24.8397 37.2791 15.8941 32.1169 15.8941ZM23.5002 8.61689L24.5029 9.63522L23.5002 10.6379L22.4897 9.61955L23.5002 8.61689ZM23.5002 32.1169L22.4976 31.0986L23.5002 30.0959L24.5107 31.1142L23.5002 32.1169ZM32.1169 23.2731C31.3115 23.2226 30.5995 23.7922 30.4719 24.5891C30.3541 25.2622 29.949 25.8507 29.3624 26.2012C28.7757 26.5517 28.0655 26.6295 27.4169 26.4142C26.6824 26.1428 25.8583 26.4241 25.4429 27.0879C25.0444 27.7947 24.296 28.2319 23.4846 28.2319C22.6732 28.2319 21.9247 27.7947 21.5262 27.0879C21.2257 26.602 20.6954 26.3058 20.1241 26.3046C19.6149 26.3046 19.4191 26.5474 18.7689 26.5474C17.6314 26.5199 16.6711 25.694 16.4737 24.5734C16.3462 23.8103 15.6807 23.2546 14.9071 23.2652C13.3169 23.2731 12.5336 21.9336 12.5336 20.3669C12.5336 18.8002 13.2777 17.4607 14.9697 17.4607C15.7433 17.4713 16.4088 16.9156 16.5364 16.1526C16.6527 15.4799 17.0557 14.891 17.6407 14.5391C18.2257 14.1872 18.9348 14.1071 19.5836 14.3196C20.3181 14.5909 21.1422 14.3097 21.5576 13.6459C21.9561 12.9391 22.7045 12.5019 23.5159 12.5019C24.3273 12.5019 25.0757 12.9391 25.4742 13.6459C25.8896 14.3097 26.7137 14.5909 27.4482 14.3196C28.0998 14.0961 28.8166 14.1697 29.4091 14.521C30.0016 14.8723 30.4102 15.4658 30.5267 16.1447C30.6509 16.9109 31.3173 17.4707 32.0934 17.4607H32.1169C33.8324 17.4607 34.4669 18.9569 34.4669 20.3669C34.4669 21.7769 33.8559 23.2731 32.1169 23.2731Z" fill="#129D59"/>
<path d="M16.4503 10.1829C16.883 10.1829 17.2337 9.83217 17.2337 9.39955C17.2337 8.96692 16.883 8.61621 16.4503 8.61621C16.0177 8.61621 15.667 8.96692 15.667 9.39955C15.667 9.83217 16.0177 10.1829 16.4503 10.1829Z" fill="#129D59"/>
<path d="M12.5333 13.3167C12.966 13.3167 13.3167 12.966 13.3167 12.5333C13.3167 12.1007 12.966 11.75 12.5333 11.75C12.1007 11.75 11.75 12.1007 11.75 12.5333C11.75 12.966 12.1007 13.3167 12.5333 13.3167Z" fill="#129D59"/>
<path d="M30.5499 10.1829C30.9826 10.1829 31.3333 9.83217 31.3333 9.39955C31.3333 8.96692 30.9826 8.61621 30.5499 8.61621C30.1173 8.61621 29.7666 8.96692 29.7666 9.39955C29.7666 9.83217 30.1173 10.1829 30.5499 10.1829Z" fill="#129D59"/>
<path d="M34.4669 13.3167C34.8995 13.3167 35.2502 12.966 35.2502 12.5333C35.2502 12.1007 34.8995 11.75 34.4669 11.75C34.0343 11.75 33.6836 12.1007 33.6836 12.5333C33.6836 12.966 34.0343 13.3167 34.4669 13.3167Z" fill="#129D59"/>
<path d="M16.4503 32.1165C16.883 32.1165 17.2337 31.7657 17.2337 31.3331C17.2337 30.9005 16.883 30.5498 16.4503 30.5498C16.0177 30.5498 15.667 30.9005 15.667 31.3331C15.667 31.7657 16.0177 32.1165 16.4503 32.1165Z" fill="#129D59"/>
<path d="M12.5333 28.9837C12.966 28.9837 13.3167 28.6329 13.3167 28.2003C13.3167 27.7677 12.966 27.417 12.5333 27.417C12.1007 27.417 11.75 27.7677 11.75 28.2003C11.75 28.6329 12.1007 28.9837 12.5333 28.9837Z" fill="#129D59"/>
<path d="M30.5499 32.1165C30.9826 32.1165 31.3333 31.7657 31.3333 31.3331C31.3333 30.9005 30.9826 30.5498 30.5499 30.5498C30.1173 30.5498 29.7666 30.9005 29.7666 31.3331C29.7666 31.7657 30.1173 32.1165 30.5499 32.1165Z" fill="#129D59"/>
<path d="M34.4669 28.9837C34.8995 28.9837 35.2502 28.6329 35.2502 28.2003C35.2502 27.7677 34.8995 27.417 34.4669 27.417C34.0343 27.417 33.6836 27.7677 33.6836 28.2003C33.6836 28.6329 34.0343 28.9837 34.4669 28.9837Z" fill="#129D59"/>
</g>
<defs>
<clipPath id="clip0">
<rect width="47" height="47" fill="white"/>
</clipPath>
</defs>
</svg>
