<svg width="246" height="99" viewBox="0 0 246 99" fill="none" xmlns="http://www.w3.org/2000/svg">
<g filter="url(#filter0_d_2364_18219)">
<rect x="14" y="10" width="218" height="71" rx="10" fill="black"/>
<rect x="15" y="11" width="216" height="69" rx="9" stroke="white" stroke-width="2"/>
</g>
<path d="M180.496 37.2984C176.949 43.4578 179.204 52.8 183.128 58.4682C185.088 61.3023 187.073 63.8417 189.789 63.8417C189.838 63.8417 189.892 63.8417 189.946 63.8368C191.223 63.7877 192.147 63.3948 193.036 63.0116C194.038 62.5843 195.074 62.1423 196.695 62.1423C198.242 62.1423 199.224 62.5696 200.177 62.9822C201.115 63.3899 202.083 63.8074 203.517 63.7828C206.577 63.7239 208.454 60.9831 210.114 58.5616C211.843 56.032 212.712 53.581 213.002 52.6429L213.012 52.6036C213.066 52.4366 212.987 52.2548 212.83 52.1812C212.825 52.1812 212.81 52.1713 212.805 52.1713C212.265 51.9503 207.54 49.853 207.491 44.1406C207.447 39.4989 211.037 37.0381 211.754 36.5912L211.789 36.5715C211.867 36.5224 211.921 36.4438 211.941 36.3505C211.961 36.2571 211.941 36.1638 211.887 36.0901C209.407 32.4603 205.61 31.9151 204.077 31.8513C203.856 31.8267 203.625 31.8169 203.394 31.8169C201.597 31.8169 199.878 32.4947 198.493 33.0399C197.54 33.4181 196.714 33.7423 196.145 33.7423C195.506 33.7423 194.676 33.4132 193.718 33.035C192.436 32.5242 190.977 31.9495 189.44 31.9495C189.406 31.9495 189.366 31.9495 189.332 31.9495C185.746 32.0035 182.362 34.0567 180.496 37.2984Z" fill="#ADABAB"/>
<path d="M204.077 21.8706C201.906 21.959 199.308 23.295 197.751 25.1173C196.429 26.6498 195.137 29.2039 195.476 31.7777C195.496 31.9398 195.629 32.0626 195.791 32.0773C195.938 32.0871 196.085 32.0969 196.238 32.0969C198.36 32.0969 200.649 30.923 202.21 29.032C203.856 27.0378 204.686 24.4739 204.436 22.1801C204.416 21.9983 204.254 21.8608 204.077 21.8706Z" fill="#ADABAB"/>
<path d="M76.2394 25.2447C76.4394 25.2447 76.6094 25.3197 76.7494 25.4697C76.8994 25.6097 76.9744 25.7797 76.9744 25.9797C76.9744 26.1897 76.8994 26.3697 76.7494 26.5197C76.6094 26.6597 76.4394 26.7297 76.2394 26.7297C76.0394 26.7297 75.8644 26.6597 75.7144 26.5197C75.5744 26.3697 75.5044 26.1897 75.5044 25.9797C75.5044 25.7797 75.5744 25.6097 75.7144 25.4697C75.8644 25.3197 76.0394 25.2447 76.2394 25.2447ZM81.1894 25.4247V31.2597H81.9544V32.3247H81.1894C81.1594 33.5147 80.7594 34.4247 79.9894 35.0547C79.2794 35.6247 78.3544 35.9097 77.2144 35.9097H75.5494C74.4394 35.9097 73.5344 35.6447 72.8344 35.1147C71.9844 34.4647 71.5594 33.4897 71.5594 32.1897V29.0547L72.2044 28.5297H72.8344V32.1597C72.8344 33.1597 73.0944 33.8547 73.6144 34.2447C74.1444 34.6447 75.0644 34.8447 76.3744 34.8447C77.6244 34.8447 78.5044 34.6747 79.0144 34.3347C79.6144 33.9247 79.9144 33.1997 79.9144 32.1597V25.4247H81.1894ZM84.6065 27.9747C84.6065 26.9547 84.9665 26.2047 85.6865 25.7247C86.1565 25.4147 86.7815 25.2597 87.5615 25.2597C88.5115 25.2597 89.3065 25.5847 89.9465 26.2347C90.5865 26.8847 90.9065 27.7947 90.9065 28.9647C90.9065 30.0547 90.5865 30.9747 89.9465 31.7247C89.3465 32.4247 88.5865 32.7747 87.6665 32.7747C86.8065 32.7747 86.1065 32.4497 85.5665 31.7997C85.2965 32.1497 84.9365 32.3247 84.4865 32.3247H81.9065V31.2597H84.0365C84.1965 31.2597 84.3315 31.2047 84.4415 31.0947C84.5515 30.9847 84.6065 30.8497 84.6065 30.6897V27.9747ZM85.8815 30.9147C86.4015 31.4447 86.9765 31.7097 87.6065 31.7097C88.2065 31.7097 88.6915 31.4647 89.0615 30.9747C89.4415 30.4747 89.6315 29.8297 89.6315 29.0397C89.6315 28.1597 89.4115 27.4647 88.9715 26.9547C88.6015 26.5347 88.1115 26.3247 87.5015 26.3247C87.0415 26.3247 86.6665 26.4597 86.3765 26.7297C86.0465 27.0397 85.8815 27.4547 85.8815 27.9747V30.9147ZM101.499 25.0197V30.6897C101.499 30.8697 101.549 31.0097 101.649 31.1097C101.739 31.2097 101.839 31.2597 101.949 31.2597H102.249V32.3247H101.619C101.159 32.3247 100.794 32.1497 100.524 31.7997C99.8741 32.2597 99.1741 32.4897 98.4241 32.4897C97.3741 32.4897 96.5441 32.0797 95.9341 31.2597C95.4341 30.5897 95.1841 29.7897 95.1841 28.8597C95.1841 27.7697 95.5441 26.8647 96.2641 26.1447C96.9041 25.4947 97.6891 25.1697 98.6191 25.1697C99.1491 25.1697 99.6841 25.2897 100.224 25.5297L100.869 25.0197H101.499ZM100.224 26.5797C99.7841 26.3597 99.3391 26.2497 98.8891 26.2497C98.1291 26.2497 97.5141 26.5497 97.0441 27.1497C96.6541 27.6397 96.4591 28.2197 96.4591 28.8897C96.4591 29.6897 96.6491 30.3197 97.0291 30.7797C97.3991 31.1997 97.8991 31.4097 98.5291 31.4097C99.0691 31.4097 99.6341 31.2647 100.224 30.9747V26.5797ZM106.126 25.4247V30.8997C106.126 31.0197 106.111 31.1397 106.081 31.2597H106.876V32.3247H106.291L105.856 31.7997H105.811C105.541 32.1497 105.191 32.3247 104.761 32.3247H102.151V31.2597H104.281C104.441 31.2597 104.571 31.2097 104.671 31.1097C104.791 30.9997 104.851 30.8597 104.851 30.6897V25.4247H106.126ZM103.561 33.8847C103.761 33.8847 103.931 33.9547 104.071 34.0947C104.221 34.2447 104.296 34.4197 104.296 34.6197C104.296 34.8297 104.221 35.0047 104.071 35.1447C103.931 35.2947 103.761 35.3697 103.561 35.3697C103.361 35.3697 103.186 35.2947 103.036 35.1447C102.896 35.0047 102.826 34.8297 102.826 34.6197C102.826 34.4197 102.896 34.2447 103.036 34.0947C103.186 33.9547 103.361 33.8847 103.561 33.8847ZM105.376 33.8847C105.586 33.8847 105.761 33.9547 105.901 34.0947C106.051 34.2447 106.126 34.4197 106.126 34.6197C106.126 34.8297 106.051 35.0047 105.901 35.1447C105.761 35.2947 105.586 35.3697 105.376 35.3697C105.176 35.3697 105.001 35.2947 104.851 35.1447C104.711 35.0047 104.641 34.8297 104.641 34.6197C104.641 34.4197 104.711 34.2447 104.851 34.0947C105.001 33.9547 105.176 33.8847 105.376 33.8847ZM110.74 21.5847V30.8997C110.74 31.0197 110.725 31.1397 110.695 31.2597H111.49V32.3247H110.965L110.47 31.7997H110.425C110.155 32.1497 109.805 32.3247 109.375 32.3247H106.765V31.2597H108.895C109.085 31.2597 109.235 31.1847 109.345 31.0347C109.425 30.9347 109.465 30.8197 109.465 30.6897V21.5847H110.74ZM114.664 31.2597C114.014 30.5897 113.689 29.7297 113.689 28.6797C113.689 27.5597 114.059 26.6797 114.799 26.0397C115.419 25.5097 116.219 25.2447 117.199 25.2447C117.729 25.2447 118.284 25.3297 118.864 25.4997V26.5047C118.274 26.3547 117.759 26.2797 117.319 26.2797C116.579 26.2797 115.999 26.5097 115.579 26.9697C115.169 27.4197 114.964 28.0447 114.964 28.8447C114.964 29.4947 115.184 30.0697 115.624 30.5697C116.034 31.0297 116.509 31.2597 117.049 31.2597H120.079V31.6797L119.554 32.3247H111.379V31.2597H114.664ZM134.131 21.5847V31.2597H134.896V32.3247H134.131C134.101 33.4547 133.736 34.3347 133.036 34.9647C132.326 35.5947 131.366 35.9097 130.156 35.9097H128.491C127.301 35.9097 126.351 35.6047 125.641 34.9947C124.881 34.3447 124.501 33.4097 124.501 32.1897V29.0547L125.146 28.5297H125.776V32.1597C125.776 33.1597 126.036 33.8547 126.556 34.2447C127.086 34.6447 128.006 34.8447 129.316 34.8447C130.566 34.8447 131.446 34.6747 131.956 34.3347C132.556 33.9247 132.856 33.1997 132.856 32.1597V21.5847H134.131ZM138.718 28.7247C140.098 26.4047 141.908 25.2447 144.148 25.2447C145.338 25.2447 146.293 25.6147 147.013 26.3547C147.663 27.0247 147.988 27.8747 147.988 28.9047V30.8997C147.988 31.0297 147.973 31.1497 147.943 31.2597H148.468V32.3247H148.153L147.733 31.7997H147.688C147.408 32.1497 147.058 32.3247 146.638 32.3247H134.773V31.2597H137.473L137.458 25.4247H138.733L138.718 28.7247ZM146.713 28.7697C146.703 27.9697 146.408 27.3497 145.828 26.9097C145.348 26.5297 144.718 26.3397 143.938 26.3397C143.158 26.3397 142.428 26.5547 141.748 26.9847C140.488 27.7747 139.478 29.1997 138.718 31.2597H146.143C146.523 31.2597 146.713 31.0697 146.713 30.6897V28.7697ZM150.362 25.6797C151.282 25.3897 152.142 25.2447 152.942 25.2447C154.182 25.2447 155.127 25.6297 155.777 26.3997C156.337 27.0597 156.617 27.9247 156.617 28.9947V30.8997C156.617 31.2397 156.512 31.5397 156.302 31.7997C156.042 32.1497 155.697 32.3247 155.267 32.3247H148.367V31.2597H154.772C155.152 31.2597 155.342 31.0697 155.342 30.6897V28.9497C155.342 28.1697 155.137 27.5547 154.727 27.1047C154.277 26.6047 153.622 26.3547 152.762 26.3547C152.242 26.3547 151.442 26.4647 150.362 26.6847V25.6797ZM159.76 21.5847V32.1747L159.115 32.6997H158.485V21.5847H159.76Z" fill="#ADABAB"/>
<path d="M52.5181 58.4934H44.1782L42.3052 63.6887H39.5982L47.1997 43.7825H49.4966L57.1118 63.6887H54.4185L52.5181 58.4934ZM44.9712 56.3333H51.7388L48.3482 47.0227L44.9712 56.3333ZM71.8911 56.4563C71.8911 58.7076 71.3762 60.5214 70.3462 61.8977C69.3163 63.274 67.9217 63.9622 66.1626 63.9622C64.367 63.9622 62.9543 63.3925 61.9243 62.2532V69.3762H59.395V48.8958H61.7056L61.8286 50.5364C62.8586 49.2603 64.2896 48.6223 66.1216 48.6223C67.8989 48.6223 69.3026 49.2922 70.3325 50.6321C71.3716 51.9719 71.8911 53.8359 71.8911 56.2239V56.4563ZM69.3618 56.1692C69.3618 54.5012 69.0064 53.1842 68.2954 52.218C67.5845 51.2519 66.6092 50.7688 65.3696 50.7688C63.8384 50.7688 62.69 51.4478 61.9243 52.8059V59.8743C62.6808 61.2232 63.8384 61.8977 65.397 61.8977C66.6092 61.8977 67.5708 61.4192 68.2818 60.4622C69.0018 59.496 69.3618 58.065 69.3618 56.1692ZM87.6138 56.4563C87.6138 58.7076 87.0988 60.5214 86.0689 61.8977C85.0389 63.274 83.6444 63.9622 81.8853 63.9622C80.0897 63.9622 78.6769 63.3925 77.647 62.2532V69.3762H75.1177V48.8958H77.4282L77.5513 50.5364C78.5812 49.2603 80.0122 48.6223 81.8443 48.6223C83.6216 48.6223 85.0252 49.2922 86.0552 50.6321C87.0943 51.9719 87.6138 53.8359 87.6138 56.2239V56.4563ZM85.0845 56.1692C85.0845 54.5012 84.729 53.1842 84.0181 52.218C83.3071 51.2519 82.3319 50.7688 81.0923 50.7688C79.5611 50.7688 78.4126 51.4478 77.647 52.8059V59.8743C78.4035 61.2232 79.5611 61.8977 81.1196 61.8977C82.3319 61.8977 83.2935 61.4192 84.0044 60.4622C84.7245 59.496 85.0845 58.065 85.0845 56.1692ZM104.047 54.8157C101.796 54.1685 100.155 53.3756 99.1255 52.4368C98.1047 51.4889 97.5943 50.3222 97.5943 48.9368C97.5943 47.3691 98.2186 46.0748 99.4673 45.054C100.725 44.024 102.357 43.509 104.362 43.509C105.729 43.509 106.946 43.7734 108.012 44.302C109.088 44.8306 109.917 45.5598 110.501 46.4895C111.093 47.4192 111.389 48.4355 111.389 49.5383H108.751C108.751 48.3352 108.368 47.3918 107.602 46.7083C106.836 46.0155 105.756 45.6692 104.362 45.6692C103.068 45.6692 102.056 45.9563 101.327 46.5305C100.607 47.0956 100.247 47.884 100.247 48.8958C100.247 49.7069 100.588 50.3951 101.272 50.9602C101.965 51.5162 103.136 52.0266 104.786 52.4915C106.445 52.9563 107.739 53.4713 108.668 54.0364C109.607 54.5924 110.3 55.2441 110.747 55.9915C111.202 56.7389 111.43 57.6184 111.43 58.6301C111.43 60.2434 110.801 61.5377 109.543 62.5129C108.286 63.4791 106.604 63.9622 104.499 63.9622C103.131 63.9622 101.855 63.7024 100.67 63.1829C99.4855 62.6542 98.5695 61.9342 97.9224 61.0227C97.2844 60.1112 96.9653 59.0767 96.9653 57.9192H99.604C99.604 59.1223 100.046 60.0748 100.93 60.7766C101.823 61.4693 103.013 61.8157 104.499 61.8157C105.884 61.8157 106.946 61.5331 107.684 60.968C108.422 60.4029 108.792 59.6327 108.792 58.6575C108.792 57.6822 108.45 56.9303 107.766 56.4016C107.083 55.8639 105.843 55.3352 104.047 54.8157ZM117.842 45.3137V48.8958H120.604V50.8508H117.842V60.0247C117.842 60.6171 117.965 61.0637 118.211 61.3645C118.458 61.6562 118.877 61.802 119.469 61.802C119.761 61.802 120.162 61.7473 120.672 61.6379V63.6887C120.007 63.871 119.36 63.9622 118.731 63.9622C117.601 63.9622 116.749 63.6204 116.174 62.9368C115.6 62.2532 115.313 61.2825 115.313 60.0247V50.8508H112.62V48.8958H115.313V45.3137H117.842ZM122.627 56.1555C122.627 54.7063 122.91 53.4029 123.475 52.2454C124.049 51.0878 124.842 50.1946 125.854 49.5657C126.875 48.9368 128.037 48.6223 129.34 48.6223C131.355 48.6223 132.982 49.3196 134.221 50.7141C135.47 52.1086 136.094 53.9635 136.094 56.2786V56.4563C136.094 57.8964 135.816 59.1907 135.26 60.3391C134.713 61.4784 133.925 62.3671 132.895 63.0051C131.874 63.6431 130.698 63.9622 129.368 63.9622C127.362 63.9622 125.736 63.2649 124.487 61.8704C123.247 60.4758 122.627 58.6301 122.627 56.3333V56.1555ZM125.17 56.4563C125.17 58.0969 125.549 59.414 126.305 60.4075C127.071 61.401 128.092 61.8977 129.368 61.8977C130.653 61.8977 131.674 61.3964 132.43 60.3938C133.187 59.3821 133.565 57.9693 133.565 56.1555C133.565 54.5331 133.178 53.2206 132.403 52.218C131.637 51.2063 130.616 50.7004 129.34 50.7004C128.092 50.7004 127.084 51.1972 126.319 52.1907C125.553 53.1842 125.17 54.606 125.17 56.4563ZM146.417 51.1653C146.034 51.1015 145.619 51.0696 145.172 51.0696C143.514 51.0696 142.388 51.776 141.795 53.1887V63.6887H139.266V48.8958H141.727L141.768 50.6047C142.598 49.2831 143.773 48.6223 145.295 48.6223C145.788 48.6223 146.161 48.6861 146.417 48.8137V51.1653ZM154.62 63.9622C152.614 63.9622 150.983 63.3059 149.725 61.9934C148.467 60.6718 147.838 58.9081 147.838 56.7024V56.2375C147.838 54.7701 148.116 53.4622 148.672 52.3137C149.237 51.1562 150.021 50.2538 151.024 49.6067C152.036 48.9504 153.129 48.6223 154.305 48.6223C156.228 48.6223 157.723 49.2558 158.79 50.5227C159.856 51.7896 160.389 53.6034 160.389 55.9641V57.0168H150.368C150.404 58.4752 150.828 59.6555 151.639 60.5579C152.459 61.4511 153.499 61.8977 154.756 61.8977C155.65 61.8977 156.406 61.7154 157.026 61.3508C157.646 60.9862 158.188 60.5032 158.653 59.9016L160.198 61.1047C158.958 63.0097 157.099 63.9622 154.62 63.9622ZM154.305 50.7004C153.284 50.7004 152.428 51.0741 151.735 51.8215C151.042 52.5598 150.614 53.5989 150.45 54.9387H157.86V54.7473C157.787 53.4622 157.441 52.4687 156.821 51.7668C156.201 51.0559 155.362 50.7004 154.305 50.7004Z" fill="white"/>
<defs>
<filter id="filter0_d_2364_18219" x="0" y="0" width="246" height="99" filterUnits="userSpaceOnUse" color-interpolation-filters="sRGB">
<feFlood flood-opacity="0" result="BackgroundImageFix"/>
<feColorMatrix in="SourceAlpha" type="matrix" values="0 0 0 0 0 0 0 0 0 0 0 0 0 0 0 0 0 0 127 0" result="hardAlpha"/>
<feOffset dy="4"/>
<feGaussianBlur stdDeviation="7"/>
<feComposite in2="hardAlpha" operator="out"/>
<feColorMatrix type="matrix" values="0 0 0 0 0 0 0 0 0 0 0 0 0 0 0 0 0 0 0.15 0"/>
<feBlend mode="normal" in2="BackgroundImageFix" result="effect1_dropShadow_2364_18219"/>
<feBlend mode="normal" in="SourceGraphic" in2="effect1_dropShadow_2364_18219" result="shape"/>
</filter>
</defs>
</svg>
