<svg width="44" height="54" viewBox="0 0 44 54" fill="none" xmlns="http://www.w3.org/2000/svg">
<g clip-path="url(#clip0)">
<path d="M44.0001 36.4354C44.0001 34.8967 43.7068 33.4161 43.1641 31.9645C42.5628 30.3241 41.6241 28.887 40.4361 27.5806C40.5975 27.3628 40.7588 27.1596 40.8908 26.9564C43.1055 23.6612 43.7361 20.1919 41.9908 16.5048C40.8908 14.1822 39.0868 12.4403 37.0921 10.858C34.3935 8.73865 31.3575 7.11285 28.4095 5.37091C26.3561 4.15156 24.1855 3.10639 22.6455 1.17575C22.3081 0.754781 21.6775 0.769297 21.3401 1.19027C20.2841 2.5693 18.8175 3.44026 17.3655 4.32575C14.6521 5.98059 11.8948 7.54833 9.19614 9.24672C6.84948 10.7274 4.69348 12.4693 3.05081 14.7628C1.26148 17.2741 0.572143 20.0177 1.30548 23.0516C1.71614 24.7209 2.47881 26.2016 3.56414 27.5661C3.47614 27.6677 3.43214 27.7403 3.38814 27.7838C1.10014 30.3677 -0.0145238 33.3725 0.000142845 36.7983C0.0148095 41.8354 0.000142845 46.887 0.000142845 51.9241C0.000142845 52.8532 0.278809 53.1145 1.20281 53.129C3.93081 53.129 6.65881 53.1145 9.40148 53.1435L39.9521 53.129C40.9201 53.1435 41.8881 53.129 42.8708 53.129C43.6921 53.129 44.0001 52.8241 44.0001 52.0112C44.0001 46.8145 44.0001 41.6322 44.0001 36.4354ZM28.6148 53.1145C23.8335 53.1145 19.0521 53.129 14.2708 53.1145L29.0401 53.0709C28.8935 53.0999 28.7468 53.1145 28.6148 53.1145ZM42.2401 50.7048C42.2401 50.908 42.2401 51.0967 42.2401 51.3725C41.2868 51.3725 40.4068 51.387 39.5415 51.358L8.44814 51.329C6.29214 51.329 4.07748 51.329 1.80414 51.329C1.78948 51.1548 1.77481 50.9951 1.77481 50.8209C1.77481 46.1032 1.77481 41.3854 1.77481 36.6677C1.77481 33.4451 2.93348 30.687 5.23614 28.408C5.80814 27.8419 5.82281 27.4499 5.29481 26.8693C3.78414 25.1999 2.94814 23.2403 2.80148 21.0193C2.68414 19.1612 3.32948 17.4919 4.37081 15.9677C5.66148 14.0951 7.36281 12.629 9.21081 11.3516C10.6921 10.3354 12.2468 9.39188 13.7868 8.44833C16.5735 6.74994 19.5508 5.35639 22.0001 3.14994C25.0508 5.80639 28.7468 7.44672 32.1201 9.56607C34.2761 10.9161 36.3881 12.3387 38.1628 14.1677C39.4975 15.5467 40.6121 17.0854 41.0228 18.987C41.6681 21.9919 40.7001 24.5612 38.7495 26.8403C38.2068 27.4645 38.1921 27.8274 38.7788 28.4225C41.0815 30.7016 42.2401 33.4596 42.2401 36.6822C42.2548 41.3564 42.2401 46.0306 42.2401 50.7048Z" fill="#129D59"/>
<path d="M40.5977 44.4633C40.9057 44.4633 41.155 44.2165 41.155 43.9117V43.0552C41.155 41.5165 40.1724 40.1665 38.691 39.6875L35.1857 38.5407V37.3359C36.403 36.6101 37.2244 35.2891 37.2244 33.7794V31.3842C37.2244 29.1052 35.347 27.2326 33.0297 27.2326C31.6657 27.2326 30.463 27.8713 29.7004 28.873C29.275 28.0891 28.5564 27.4649 27.6617 27.1746L24.1564 26.0278V24.823C25.3737 24.0971 26.195 22.7762 26.195 21.2665V18.8713C26.195 16.5923 24.3177 14.7197 22.0004 14.7197C19.683 14.7197 17.8057 16.5778 17.8057 18.8713V21.2665C17.8057 22.7762 18.627 24.0971 19.8444 24.823V26.0278L16.339 27.1746C15.4444 27.4649 14.7257 28.0746 14.3004 28.873C13.5377 27.8713 12.3204 27.2326 10.971 27.2326C8.66837 27.2326 6.77637 29.0907 6.77637 31.3842V33.7794C6.77637 35.2891 7.5977 36.6101 8.81504 37.3359V38.5407L5.3097 39.6875C3.84304 40.1665 2.8457 41.5165 2.8457 43.0552V43.9117C2.8457 44.2165 3.09504 44.4633 3.40304 44.4633C3.71104 44.4633 3.96037 44.2165 3.96037 43.9117V43.0552C3.96037 41.9955 4.63504 41.0665 5.64704 40.7471L8.93237 39.673C9.2257 40.4859 10.0177 41.0665 10.9564 41.0665C11.8804 41.0665 12.6724 40.4859 12.9804 39.673L16.2657 40.7471C16.9844 40.9794 17.5417 41.5165 17.8057 42.2133L16.339 42.6923C14.8724 43.1713 13.875 44.5213 13.875 46.06V46.6988H7.14304V45.3052C7.14304 45.0004 6.8937 44.7536 6.5857 44.7536C6.2777 44.7536 6.02837 45.0004 6.02837 45.3052V46.6988H3.97504V46.51C3.97504 46.2052 3.7257 45.9584 3.4177 45.9584C3.1097 45.9584 2.86037 46.2052 2.86037 46.51V47.2504C2.86037 47.5552 3.1097 47.802 3.4177 47.802H13.8897V52.1133C13.8897 52.4181 14.139 52.6649 14.447 52.6649H29.5537C29.8617 52.6649 30.111 52.4181 30.111 52.1133V51.373C30.111 51.0681 29.8617 50.8213 29.5537 50.8213C29.2457 50.8213 28.9964 51.0681 28.9964 51.373V51.5617H26.943V48.31C26.943 48.0052 26.6937 47.7584 26.3857 47.7584C26.0777 47.7584 25.8284 48.0052 25.8284 48.31V51.5617H18.187V48.31C18.187 48.0052 17.9377 47.7584 17.6297 47.7584C17.3217 47.7584 17.0724 48.0052 17.0724 48.31V51.5617H15.019V46.06C15.019 45.0004 15.6937 44.0713 16.7057 43.752L19.991 42.6778C20.2844 43.4907 21.0764 44.0713 22.015 44.0713C22.9537 44.0713 23.731 43.4907 24.039 42.6778L27.3244 43.752C28.3364 44.0859 29.011 45.0149 29.011 46.06V48.7746C29.011 49.0794 29.2604 49.3262 29.5684 49.3262C29.8764 49.3262 30.1257 49.0794 30.1257 48.7746V47.802H40.5977C40.9057 47.802 41.155 47.5552 41.155 47.2504V46.51C41.155 46.2052 40.9057 45.9584 40.5977 45.9584C40.2897 45.9584 40.0404 46.2052 40.0404 46.51V46.6988H37.987V45.3052C37.987 45.0004 37.7377 44.7536 37.4297 44.7536C37.1217 44.7536 36.8724 45.0004 36.8724 45.3052V46.6988H30.1404V46.06C30.1404 44.5213 29.1577 43.1713 27.6764 42.6923L26.2097 42.2133C26.4737 41.531 27.031 40.9939 27.7497 40.7471L31.035 39.673C31.3284 40.4859 32.1204 41.0665 33.059 41.0665C33.983 41.0665 34.775 40.4859 35.083 39.673L38.3684 40.7471C39.3804 41.081 40.055 42.01 40.055 43.0552V43.9117C40.0257 44.202 40.275 44.4633 40.5977 44.4633ZM33.0297 28.3504C34.7164 28.3504 36.095 29.7149 36.095 31.3842V33.7794C36.095 35.4488 34.7164 36.8133 33.0297 36.8133C31.343 36.8133 29.9644 35.4488 29.9644 33.7794V31.3842C29.9644 29.7149 31.343 28.3504 33.0297 28.3504ZM18.935 21.2955V18.9004C18.935 17.231 20.3137 15.8665 22.0004 15.8665C23.687 15.8665 25.0657 17.231 25.0657 18.9004V21.2955C25.0657 22.9649 23.687 24.3294 22.0004 24.3294C20.3137 24.3294 18.935 22.9649 18.935 21.2955ZM22.0004 25.4326C22.3524 25.4326 22.7044 25.3891 23.027 25.302V26.4342V26.4488C23.027 27.0149 22.5724 27.4649 22.0004 27.4649C21.4284 27.4649 20.9737 27.0149 20.9737 26.4488V26.4342V25.302C21.311 25.3891 21.6484 25.4326 22.0004 25.4326ZM16.7057 28.2488L19.991 27.1746C20.2844 27.9875 21.0764 28.5681 22.015 28.5681C22.9537 28.5681 23.731 27.9875 24.039 27.1746L27.3244 28.2488C28.263 28.5536 28.9084 29.3665 28.9964 30.3391C28.9084 30.673 28.8644 31.0359 28.8644 31.3988V33.7939C28.8644 33.9391 28.8644 34.0697 28.879 34.2149H26.195C26.0924 32.0084 24.259 30.252 22.015 30.252C19.771 30.252 17.923 32.0084 17.835 34.2149H15.151C15.1657 34.0842 15.1657 33.9391 15.1657 33.7939V31.3988C15.1657 31.0359 15.1217 30.673 15.0337 30.3391C15.107 29.3665 15.767 28.5536 16.7057 28.2488ZM22.0004 39.8036C20.3137 39.8036 18.935 38.4391 18.935 36.7697V34.3746C18.935 32.7052 20.3137 31.3407 22.0004 31.3407C23.687 31.3407 25.0657 32.7052 25.0657 34.3746V36.7697C25.0657 38.4391 23.687 39.8036 22.0004 39.8036ZM7.9057 33.7794V31.3842C7.9057 29.7149 9.28437 28.3504 10.971 28.3504C12.6577 28.3504 14.0364 29.7149 14.0364 31.3842V33.7794C14.0364 35.4488 12.6577 36.8133 10.971 36.8133C9.28437 36.8133 7.9057 35.4488 7.9057 33.7794ZM11.9977 38.9471C11.9977 39.5133 11.543 39.9633 10.971 39.9633C10.399 39.9633 9.94437 39.5133 9.94437 38.9471V37.8004C10.267 37.8875 10.619 37.931 10.971 37.931C11.323 37.931 11.675 37.8875 11.9977 37.8004V38.9471ZM16.6177 39.6875L13.1124 38.5407V37.3359C13.8897 36.8713 14.5204 36.16 14.8577 35.3036H17.8057V36.7697C17.8057 38.2794 18.627 39.6004 19.8444 40.3262V41.531L18.8617 41.8504C18.5097 40.8342 17.6884 40.0213 16.6177 39.6875ZM22.0004 42.9536C21.4284 42.9536 20.9737 42.5036 20.9737 41.9375V40.7907C21.2964 40.8778 21.6484 40.9213 22.0004 40.9213C22.3524 40.9213 22.7044 40.8778 23.027 40.7907V41.923C23.027 42.4891 22.5724 42.9536 22.0004 42.9536ZM27.383 39.6875C26.327 40.0359 25.5057 40.8342 25.139 41.8504L24.1564 41.531V40.3262C25.3737 39.6004 26.195 38.2794 26.195 36.7697V35.3036H29.143C29.4804 36.16 30.0964 36.8713 30.8884 37.3359V38.5407L27.383 39.6875ZM33.0297 39.9633C32.4577 39.9633 32.003 39.5133 32.003 38.9471V37.8004C32.3257 37.8875 32.6777 37.931 33.0297 37.931C33.3817 37.931 33.7337 37.8875 34.0564 37.8004V38.9471C34.0564 39.4988 33.6017 39.9633 33.0297 39.9633Z" fill="#129D59"/>
</g>
<defs>
<clipPath id="clip0">
<rect width="44" height="54" fill="white"/>
</clipPath>
</defs>
</svg>
