<svg width="33" height="56" viewBox="0 0 33 56" fill="none" xmlns="http://www.w3.org/2000/svg">
<path d="M30.0861 12.4688H29.3146V7.125C29.3146 4.17792 27.2387 1.78125 24.686 1.78125H24.2571C23.7217 0.721406 22.7374 0 21.6003 0H16.9716C15.2698 0 13.8859 1.59778 13.8859 3.5625V5.34375C13.8859 6.32611 14.5779 7.125 15.4288 7.125H23.1431C23.994 7.125 24.686 6.32611 24.686 5.34375V3.5625C26.3878 3.5625 27.7718 5.16028 27.7718 7.125V12.4688H16.9716V10.6875C16.9716 9.70514 16.2797 8.90625 15.4288 8.90625H4.62863C3.77773 8.90625 3.08575 9.70514 3.08575 10.6875V12.4688H2.31431C1.03836 12.4688 0 13.6675 0 15.1406V34.8787L1.54288 40.2224V55.2188H30.8575V40.2224L32.4004 34.8787V15.1406C32.4004 13.6675 31.362 12.4688 30.0861 12.4688ZM23.1439 5.34375H15.4288V3.5625C15.4288 2.58014 16.1207 1.78125 16.9716 1.78125H21.6003C22.4512 1.78125 23.1431 2.58014 23.1431 3.5625L23.1439 5.34375ZM4.62863 10.6875H15.4288L15.4295 30.2812H4.62863V10.6875ZM2.31431 14.25H3.08575V30.2812C3.08575 31.2636 3.77773 32.0625 4.62863 32.0625H15.4288C16.2797 32.0625 16.9716 31.2636 16.9716 30.2812V14.25H27.7718V24.9375H20.0574C19.2065 24.9375 18.5145 25.7364 18.5145 26.7188V28.5C18.5145 29.4824 19.2065 30.2812 20.0574 30.2812H27.7718C28.6227 30.2812 29.3146 29.4824 29.3146 28.5V14.25H30.0861C30.5119 14.25 30.8575 14.6499 30.8575 15.1406V33.8438H1.54288V15.1406C1.54288 14.6499 1.88848 14.25 2.31431 14.25ZM27.7718 26.7188V28.5H20.0574V26.7188H27.7718ZM2.87052 39.1875L1.84219 35.625H30.559L29.5306 39.1875H2.87052ZM7.71438 53.4375H6.1715V44.5312H7.71438V53.4375ZM13.8859 53.4375H12.343V44.5312H13.8859V53.4375ZM20.0574 53.4375H18.5145V44.5312H20.0574V53.4375ZM26.2289 53.4375H24.686V44.5312H26.2289V53.4375ZM27.7718 53.4375V44.5312C27.7718 43.5489 27.0798 42.75 26.2289 42.75H24.686C23.8351 42.75 23.1431 43.5489 23.1431 44.5312V53.4375H21.6003V44.5312C21.6003 43.5489 20.9083 42.75 20.0574 42.75H18.5145C17.6636 42.75 16.9716 43.5489 16.9716 44.5312V53.4375H15.4288V44.5312C15.4288 43.5489 14.7368 42.75 13.8859 42.75H12.343C11.4921 42.75 10.8001 43.5489 10.8001 44.5312V53.4375H9.25725V44.5312C9.25725 43.5489 8.56528 42.75 7.71438 42.75H6.1715C5.32061 42.75 4.62863 43.5489 4.62863 44.5312V53.4375H3.08575V40.9688H29.3146V53.4375H27.7718Z" fill="#1CD87C"/>
<path d="M6.1709 12.4688H9.25665V14.25H6.1709V12.4688Z" fill="#1CD87C"/>
<path d="M10.7998 12.4688H13.8856V14.25H10.7998V12.4688Z" fill="#1CD87C"/>
<path d="M6.1709 16.0312H13.8853V17.8125H6.1709V16.0312Z" fill="#1CD87C"/>
<path d="M6.1709 19.5938H13.8853V21.375H6.1709V19.5938Z" fill="#1CD87C"/>
<path d="M6.1709 26.7188H7.71377V28.5H6.1709V26.7188Z" fill="#1CD87C"/>
<path d="M9.25684 26.7188H10.7997V28.5H9.25684V26.7188Z" fill="#1CD87C"/>
<path d="M12.3428 26.7188H13.8856V28.5H12.3428V26.7188Z" fill="#1CD87C"/>
<path d="M6.1709 23.1562H9.25665V24.9375H6.1709V23.1562Z" fill="#1CD87C"/>
<path d="M10.7998 23.1562H13.8856V24.9375H10.7998V23.1562Z" fill="#1CD87C"/>
</svg>
