<svg width="251" height="99" viewBox="0 0 251 99" fill="none" xmlns="http://www.w3.org/2000/svg">
<g filter="url(#filter0_d_2364_18188)">
<rect x="14" y="10" width="223" height="71" rx="10" fill="black"/>
<rect x="15" y="11" width="221" height="69" rx="9" stroke="white" stroke-width="2"/>
</g>
<path d="M124.007 27.92C124.207 27.92 124.377 27.995 124.517 28.145C124.667 28.285 124.742 28.455 124.742 28.655C124.742 28.865 124.667 29.045 124.517 29.195C124.377 29.335 124.207 29.405 124.007 29.405C123.807 29.405 123.632 29.335 123.482 29.195C123.342 29.045 123.272 28.865 123.272 28.655C123.272 28.455 123.342 28.285 123.482 28.145C123.632 27.995 123.807 27.92 124.007 27.92ZM128.957 28.1V33.935H129.722V35H128.957C128.927 36.19 128.527 37.1 127.757 37.73C127.047 38.3 126.122 38.585 124.982 38.585H123.317C122.207 38.585 121.302 38.32 120.602 37.79C119.752 37.14 119.327 36.165 119.327 34.865V31.73L119.972 31.205H120.602V34.835C120.602 35.835 120.862 36.53 121.382 36.92C121.912 37.32 122.832 37.52 124.142 37.52C125.392 37.52 126.272 37.35 126.782 37.01C127.382 36.6 127.682 35.875 127.682 34.835V28.1H128.957ZM132.374 30.65C132.374 29.63 132.734 28.88 133.454 28.4C133.924 28.09 134.549 27.935 135.329 27.935C136.279 27.935 137.074 28.26 137.714 28.91C138.354 29.56 138.674 30.47 138.674 31.64C138.674 32.73 138.354 33.65 137.714 34.4C137.114 35.1 136.354 35.45 135.434 35.45C134.574 35.45 133.874 35.125 133.334 34.475C133.064 34.825 132.704 35 132.254 35H129.674V33.935H131.804C131.964 33.935 132.099 33.88 132.209 33.77C132.319 33.66 132.374 33.525 132.374 33.365V30.65ZM133.649 33.59C134.169 34.12 134.744 34.385 135.374 34.385C135.974 34.385 136.459 34.14 136.829 33.65C137.209 33.15 137.399 32.505 137.399 31.715C137.399 30.835 137.179 30.14 136.739 29.63C136.369 29.21 135.879 29 135.269 29C134.809 29 134.434 29.135 134.144 29.405C133.814 29.715 133.649 30.13 133.649 30.65V33.59ZM152.791 24.26V33.935H153.556V35H152.791C152.761 36.13 152.396 37.01 151.696 37.64C150.986 38.27 150.026 38.585 148.816 38.585H147.151C145.961 38.585 145.011 38.28 144.301 37.67C143.541 37.02 143.161 36.085 143.161 34.865V31.73L143.806 31.205H144.436V34.835C144.436 35.835 144.696 36.53 145.216 36.92C145.746 37.32 146.666 37.52 147.976 37.52C149.226 37.52 150.106 37.35 150.616 37.01C151.216 36.6 151.516 35.875 151.516 34.835V24.26H152.791ZM157.409 28.1V33.575C157.409 33.945 157.289 34.265 157.049 34.535C156.779 34.845 156.444 35 156.044 35H153.434V33.935H155.564C155.734 33.935 155.874 33.875 155.984 33.755C156.084 33.655 156.134 33.525 156.134 33.365V28.1H157.409ZM154.709 36.56C154.909 36.56 155.079 36.63 155.219 36.77C155.369 36.92 155.444 37.095 155.444 37.295C155.444 37.505 155.369 37.68 155.219 37.82C155.079 37.97 154.909 38.045 154.709 38.045C154.499 38.045 154.319 37.97 154.169 37.82C154.029 37.68 153.959 37.505 153.959 37.295C153.959 37.095 154.029 36.92 154.169 36.77C154.319 36.63 154.499 36.56 154.709 36.56ZM156.524 36.56C156.734 36.56 156.909 36.63 157.049 36.77C157.189 36.92 157.259 37.095 157.259 37.295C157.259 37.505 157.189 37.68 157.049 37.82C156.909 37.97 156.734 38.045 156.524 38.045C156.324 38.045 156.149 37.97 155.999 37.82C155.859 37.68 155.789 37.505 155.789 37.295C155.789 37.095 155.859 36.92 155.999 36.77C156.149 36.63 156.324 36.56 156.524 36.56ZM162.795 24.8C162.995 24.8 163.165 24.875 163.305 25.025C163.455 25.165 163.53 25.335 163.53 25.535C163.53 25.745 163.455 25.925 163.305 26.075C163.165 26.215 162.995 26.285 162.795 26.285C162.595 26.285 162.42 26.215 162.27 26.075C162.13 25.925 162.06 25.745 162.06 25.535C162.06 25.335 162.13 25.165 162.27 25.025C162.42 24.875 162.595 24.8 162.795 24.8ZM163.425 28.1V33.935H164.19V35H163.425C163.395 36.04 163.08 36.87 162.48 37.49C161.99 37.99 161.32 38.32 160.47 38.48C160.15 38.54 159.81 38.57 159.45 38.57C159.21 38.57 158.98 38.565 158.76 38.555L158.265 37.94V37.46C158.555 37.5 158.87 37.52 159.21 37.52C161.17 37.52 162.15 36.62 162.15 34.82V28.1H163.425ZM167.413 24.8C167.623 24.8 167.798 24.875 167.938 25.025C168.088 25.165 168.163 25.335 168.163 25.535C168.163 25.745 168.088 25.925 167.938 26.075C167.798 26.215 167.623 26.285 167.413 26.285C167.213 26.285 167.038 26.215 166.888 26.075C166.748 25.925 166.678 25.745 166.678 25.535C166.678 25.335 166.748 25.165 166.888 25.025C167.038 24.875 167.213 24.8 167.413 24.8ZM168.058 28.1V33.575C168.058 33.695 168.043 33.815 168.013 33.935H168.808V35H168.223L167.788 34.475H167.743C167.473 34.825 167.123 35 166.693 35H164.083V33.935H166.213C166.373 33.935 166.503 33.885 166.603 33.785C166.723 33.675 166.783 33.535 166.783 33.365V28.1H168.058ZM170.242 24.8C170.452 24.8 170.627 24.875 170.767 25.025C170.907 25.165 170.977 25.335 170.977 25.535C170.977 25.745 170.907 25.925 170.767 26.075C170.627 26.215 170.452 26.285 170.242 26.285C170.042 26.285 169.867 26.215 169.717 26.075C169.577 25.925 169.507 25.745 169.507 25.535C169.507 25.335 169.577 25.165 169.717 25.025C169.867 24.875 170.042 24.8 170.242 24.8ZM172.072 24.8C172.272 24.8 172.442 24.875 172.582 25.025C172.732 25.165 172.807 25.335 172.807 25.535C172.807 25.745 172.732 25.925 172.582 26.075C172.442 26.215 172.272 26.285 172.072 26.285C171.862 26.285 171.682 26.215 171.532 26.075C171.392 25.925 171.322 25.745 171.322 25.535C171.322 25.335 171.392 25.165 171.532 25.025C171.682 24.875 171.862 24.8 172.072 24.8ZM172.672 28.1V33.575C172.672 33.945 172.552 34.265 172.312 34.535C172.042 34.845 171.707 35 171.307 35H168.697V33.935H170.827C170.997 33.935 171.137 33.875 171.247 33.755C171.347 33.655 171.397 33.525 171.397 33.365V28.1H172.672Z" fill="#ADABAB"/>
<path d="M47.5061 67.4819C46.8557 68.4136 45.946 69.1123 44.7771 69.5781C43.6169 70.0352 42.2634 70.2637 40.7165 70.2637C39.1521 70.2637 37.7634 69.8989 36.5505 69.1694C35.3376 68.4312 34.3972 67.3853 33.7292 66.0317C33.07 64.6782 32.7317 63.1094 32.7141 61.3252V59.6509C32.7141 56.7593 33.3864 54.5181 34.7312 52.9272C36.0847 51.3364 37.9831 50.541 40.4265 50.541C42.4304 50.541 44.0432 51.0552 45.2649 52.0835C46.4865 53.103 47.2336 54.5532 47.5061 56.4341H44.9748C44.5002 53.894 42.9885 52.624 40.4397 52.624C38.7434 52.624 37.4558 53.2217 36.5769 54.417C35.7068 55.6035 35.2673 57.3262 35.2585 59.585V61.1538C35.2585 63.3071 35.7507 65.021 36.7351 66.2954C37.7195 67.561 39.051 68.1938 40.7297 68.1938C41.6789 68.1938 42.5095 68.0884 43.2214 67.8774C43.9333 67.6665 44.5222 67.3105 44.988 66.8096V62.4985H40.5451V60.4419H47.5061V67.4819ZM50.7097 62.7358C50.7097 61.3384 50.9821 60.0815 51.5271 58.9653C52.0808 57.8491 52.8454 56.9878 53.821 56.3813C54.8054 55.7749 55.926 55.4717 57.1828 55.4717C59.1252 55.4717 60.6941 56.144 61.8894 57.4888C63.0935 58.8335 63.6955 60.6221 63.6955 62.8545V63.0259C63.6955 64.4146 63.4275 65.6626 62.8913 66.77C62.364 67.8687 61.6037 68.7256 60.6106 69.3408C59.6262 69.9561 58.4924 70.2637 57.2092 70.2637C55.2756 70.2637 53.7068 69.5913 52.5027 68.2466C51.3073 66.9019 50.7097 65.1221 50.7097 62.9072V62.7358ZM53.1618 63.0259C53.1618 64.6079 53.5266 65.8779 54.2561 66.8359C54.9944 67.7939 55.9787 68.2729 57.2092 68.2729C58.4485 68.2729 59.4328 67.7896 60.1623 66.8228C60.8918 65.8472 61.2566 64.4849 61.2566 62.7358C61.2566 61.1714 60.883 59.9058 60.136 58.939C59.3977 57.9634 58.4133 57.4756 57.1828 57.4756C55.9787 57.4756 55.0075 57.9546 54.2693 58.9126C53.531 59.8706 53.1618 61.2417 53.1618 63.0259ZM66.1081 62.7358C66.1081 61.3384 66.3806 60.0815 66.9255 58.9653C67.4792 57.8491 68.2439 56.9878 69.2195 56.3813C70.2038 55.7749 71.3244 55.4717 72.5813 55.4717C74.5237 55.4717 76.0925 56.144 77.2878 57.4888C78.4919 58.8335 79.094 60.6221 79.094 62.8545V63.0259C79.094 64.4146 78.8259 65.6626 78.2898 66.77C77.7624 67.8687 77.0022 68.7256 76.009 69.3408C75.0246 69.9561 73.8908 70.2637 72.6076 70.2637C70.674 70.2637 69.1052 69.5913 67.9011 68.2466C66.7058 66.9019 66.1081 65.1221 66.1081 62.9072V62.7358ZM68.5603 63.0259C68.5603 64.6079 68.925 65.8779 69.6545 66.8359C70.3928 67.7939 71.3772 68.2729 72.6076 68.2729C73.8469 68.2729 74.8313 67.7896 75.5608 66.8228C76.2903 65.8472 76.655 64.4849 76.655 62.7358C76.655 61.1714 76.2815 59.9058 75.5344 58.939C74.7961 57.9634 73.8117 57.4756 72.5813 57.4756C71.3772 57.4756 70.406 57.9546 69.6677 58.9126C68.9294 59.8706 68.5603 61.2417 68.5603 63.0259ZM81.5725 62.749C81.5725 60.5254 82.0866 58.7588 83.115 57.4492C84.1433 56.1309 85.5056 55.4717 87.2019 55.4717C88.9421 55.4717 90.3 56.0869 91.2756 57.3174L91.3943 55.7354H93.6223V69.6572C93.6223 71.5029 93.073 72.9575 91.9743 74.021C90.8845 75.0845 89.4167 75.6162 87.571 75.6162C86.5427 75.6162 85.5363 75.3965 84.552 74.957C83.5676 74.5176 82.8161 73.9155 82.2976 73.1509L83.5632 71.6875C84.6091 72.9795 85.8879 73.6255 87.3996 73.6255C88.5862 73.6255 89.509 73.2915 90.1682 72.6235C90.8362 71.9556 91.1701 71.0151 91.1701 69.8022V68.5762C90.1945 69.7012 88.863 70.2637 87.1755 70.2637C85.5056 70.2637 84.1521 69.5913 83.115 68.2466C82.0866 66.9019 81.5725 65.0693 81.5725 62.749ZM84.0246 63.0259C84.0246 64.6343 84.3542 65.8999 85.0134 66.8228C85.6726 67.7368 86.5954 68.1938 87.782 68.1938C89.32 68.1938 90.4494 67.4951 91.1701 66.0977V59.585C90.4231 58.2227 89.3025 57.5415 87.8083 57.5415C86.6218 57.5415 85.6945 58.0029 85.0266 58.9258C84.3586 59.8486 84.0246 61.2153 84.0246 63.0259ZM99.9636 70H97.5246V49.75H99.9636V70ZM109.799 70.2637C107.865 70.2637 106.292 69.6309 105.079 68.3652C103.866 67.0908 103.259 65.3901 103.259 63.2632V62.8149C103.259 61.3999 103.528 60.1387 104.064 59.0312C104.609 57.915 105.364 57.0449 106.331 56.4209C107.307 55.7881 108.362 55.4717 109.495 55.4717C111.35 55.4717 112.791 56.0825 113.82 57.3042C114.848 58.5259 115.362 60.2749 115.362 62.5513V63.5664H105.698C105.734 64.9727 106.142 66.1108 106.925 66.981C107.716 67.8423 108.717 68.2729 109.93 68.2729C110.792 68.2729 111.521 68.0972 112.119 67.7456C112.717 67.394 113.239 66.9282 113.688 66.3481L115.177 67.5083C113.982 69.3452 112.189 70.2637 109.799 70.2637ZM109.495 57.4756C108.511 57.4756 107.685 57.8359 107.017 58.5566C106.349 59.2686 105.936 60.2705 105.778 61.5625H112.923V61.3779C112.853 60.1387 112.519 59.1807 111.921 58.5039C111.323 57.8184 110.515 57.4756 109.495 57.4756ZM127.807 62.4854V70H125.276V50.8047H132.356C134.456 50.8047 136.1 51.3408 137.286 52.4131C138.482 53.4854 139.079 54.9048 139.079 56.6714C139.079 58.5347 138.495 59.9717 137.326 60.9824C136.166 61.9844 134.5 62.4854 132.329 62.4854H127.807ZM127.807 60.4155H132.356C133.709 60.4155 134.746 60.0991 135.467 59.4663C136.188 58.8247 136.548 57.9019 136.548 56.6978C136.548 55.5552 136.188 54.6411 135.467 53.9556C134.746 53.27 133.758 52.9141 132.501 52.8877H127.807V60.4155ZM144.577 70H142.138V49.75H144.577V70ZM157.299 70C157.158 69.7188 157.044 69.2178 156.956 68.4971C155.822 69.6748 154.469 70.2637 152.896 70.2637C151.489 70.2637 150.334 69.8682 149.428 69.0771C148.532 68.2773 148.084 67.2666 148.084 66.0449C148.084 64.5596 148.646 63.4082 149.771 62.5908C150.905 61.7646 152.496 61.3516 154.544 61.3516H156.917V60.231C156.917 59.3784 156.662 58.7017 156.152 58.2007C155.642 57.6909 154.891 57.436 153.898 57.436C153.028 57.436 152.298 57.6558 151.709 58.0952C151.12 58.5347 150.826 59.0664 150.826 59.6904H148.374C148.374 58.9785 148.624 58.293 149.125 57.6338C149.635 56.9658 150.321 56.4385 151.182 56.0518C152.052 55.665 153.006 55.4717 154.043 55.4717C155.686 55.4717 156.974 55.8848 157.905 56.7109C158.837 57.5283 159.321 58.6577 159.356 60.0991V66.6646C159.356 67.9741 159.523 69.0156 159.857 69.7891V70H157.299ZM153.252 68.1411C154.016 68.1411 154.741 67.9434 155.427 67.5479C156.113 67.1523 156.609 66.6382 156.917 66.0054V63.0786H155.005C152.017 63.0786 150.523 63.9531 150.523 65.7021C150.523 66.4668 150.778 67.0645 151.287 67.4951C151.797 67.9258 152.452 68.1411 153.252 68.1411ZM167.635 66.4272L170.957 55.7354H173.568L167.833 72.2017C166.945 74.5747 165.534 75.7612 163.601 75.7612L163.139 75.7217L162.23 75.5503V73.5728L162.889 73.6255C163.715 73.6255 164.357 73.4585 164.814 73.1245C165.28 72.7905 165.662 72.1797 165.961 71.292L166.501 69.8418L161.412 55.7354H164.075L167.635 66.4272Z" fill="white"/>
<path d="M206.937 48.7319H206.904L206.87 48.7236C204.254 46.1218 201.642 43.5159 199.021 40.9141C196.793 38.6999 194.552 36.5022 192.336 34.2757C191.234 33.1665 190.145 32.0491 189.014 30.9729C190.082 29.8761 191.643 29.6865 193.066 30.507C196.041 32.2223 199 33.9582 201.98 35.6693C205.648 37.7763 209.324 39.8709 212.992 41.9738C213.151 42.0645 213.297 42.1759 213.447 42.2789C212.608 43.1036 211.765 43.9241 210.931 44.757C209.595 46.0765 208.268 47.4042 206.937 48.7319Z" fill="#01EF76"/>
<path d="M206.937 48.732C208.268 47.4043 209.599 46.0766 210.935 44.753C211.769 43.9242 212.612 43.1037 213.451 42.2749C215.066 43.1861 216.685 44.0974 218.3 45.0128C218.809 45.3014 219.318 45.5818 219.815 45.8828C222.064 47.2393 222.064 50.2782 219.798 51.6018C217.745 52.8016 215.671 53.9644 213.605 55.1395C213.555 55.1684 213.493 55.1849 213.438 55.2055C211.398 53.181 209.353 51.1564 207.313 49.1319C207.179 49.0041 207.058 48.8639 206.937 48.732Z" fill="#FECD01"/>
<path d="M188.021 43.8749C188.017 40.3907 188.013 36.9065 188.005 33.4224C188.005 33.1008 188.021 32.7833 188.113 32.474C188.284 31.9009 188.526 31.3649 189.019 30.9731C190.15 32.0493 191.239 33.1667 192.34 34.2759C194.556 36.5025 196.797 38.7002 199.025 40.9144C201.642 43.5162 204.254 46.1221 206.871 48.7239C206.291 49.3094 205.715 49.8949 205.13 50.4762C203.403 52.1792 201.675 53.8821 199.948 55.585C199.943 55.3953 199.797 55.2922 199.676 55.1768C195.983 51.5277 192.29 47.8786 188.601 44.2295C188.434 44.0645 188.268 43.9037 188.021 43.8749Z" fill="#00CAFE"/>
<path d="M188.976 32.103C189.247 32.3422 189.51 32.5978 189.773 32.8535C190.591 33.6575 191.392 34.4739 192.197 35.2862C194.338 37.4385 196.504 39.562 198.657 41.702C201.19 44.2213 203.723 46.7407 206.252 49.26C205.918 49.6352 205.584 50.0145 205.25 50.3898C205.083 50.5794 204.916 50.765 204.737 50.9588C203.03 52.6452 201.319 54.3275 199.613 56.0139C199.6 55.849 199.454 55.7665 199.337 55.6676C198.974 55.3624 198.607 55.0573 198.244 54.7522C198.185 54.6945 198.127 54.6326 198.069 54.5749C196.011 52.5421 193.954 50.5093 191.897 48.4766C191.801 48.3817 191.709 48.291 191.609 48.2044C190.603 47.0911 189.593 45.9779 188.588 44.8687C188.437 44.7038 188.287 44.5388 188.058 44.4935C188.054 41.4546 188.049 38.4116 188.041 35.3728C188.041 35.0718 188.041 34.7708 188.041 34.4698C188.041 34.1605 188.058 33.8554 188.141 33.5585C188.304 32.9978 188.525 32.4824 188.976 32.103Z" fill="#00CBFE"/>
<path d="M188.934 33.2324C189.206 33.4551 189.456 33.6984 189.711 33.9457C190.499 34.7209 191.276 35.5085 192.056 36.2919C194.121 38.3659 196.216 40.4193 198.294 42.4851C200.744 44.9178 203.189 47.3546 205.639 49.7874C205.355 50.1502 205.075 50.5131 204.796 50.8759C204.654 51.0573 204.516 51.2388 204.354 51.4284C202.668 53.0984 200.978 54.7642 199.288 56.43C199.267 56.2898 199.125 56.2238 199.008 56.1455C198.645 55.8981 198.286 55.6507 197.923 55.4033C197.865 55.3456 197.81 55.2837 197.752 55.226C195.711 53.2097 193.671 51.1893 191.626 49.173C191.534 49.0823 191.438 48.9875 191.338 48.9091C190.42 47.7711 189.506 46.6331 188.588 45.4909C188.45 45.3219 188.313 45.1528 188.108 45.0951C188.104 42.1841 188.1 39.2771 188.092 36.3661C188.092 36.0775 188.092 35.7889 188.092 35.5002C188.092 35.2033 188.104 34.9106 188.183 34.6302C188.321 34.1024 188.526 33.6035 188.934 33.2324Z" fill="#00CCFE"/>
<path d="M188.893 34.3584C189.16 34.5604 189.406 34.7996 189.648 35.0387C190.408 35.7851 191.159 36.5479 191.91 37.3024C193.905 39.3022 195.92 41.2814 197.923 43.2729C200.289 45.6232 202.651 47.9735 205.017 50.3237C204.788 50.6742 204.558 51.0247 204.329 51.3752C204.212 51.5525 204.103 51.7215 203.957 51.9153C202.292 53.5646 200.619 55.2139 198.95 56.8632C198.921 56.7478 198.783 56.6983 198.666 56.6365C198.307 56.4468 197.948 56.2571 197.589 56.0675C197.535 56.0097 197.481 55.9479 197.423 55.8902C195.399 53.8862 193.371 51.8864 191.343 49.8825C191.251 49.7918 191.159 49.697 191.05 49.6269C190.224 48.46 189.402 47.2972 188.576 46.1304C188.451 45.9572 188.33 45.784 188.142 45.7098C188.138 42.9307 188.134 40.1516 188.129 37.3725C188.129 37.0963 188.129 36.82 188.129 36.5437C188.129 36.2634 188.142 35.983 188.213 35.7108C188.338 35.2037 188.522 34.7254 188.893 34.3584Z" fill="#00CDFE"/>
<path d="M188.851 35.4883C189.114 35.6738 189.352 35.9006 189.586 36.1315C190.32 36.8531 191.042 37.5829 191.768 38.3127C193.688 40.2383 195.628 42.1432 197.56 44.0606C199.839 46.3243 202.117 48.5879 204.396 50.8557C204.216 51.1938 204.041 51.5319 203.861 51.8701C203.77 52.0391 203.69 52.204 203.561 52.3937C201.913 54.0265 200.264 55.6594 198.612 57.288C198.57 57.1973 198.437 57.1643 198.324 57.1231C197.965 56.9912 197.61 56.8551 197.252 56.7232C197.197 56.6654 197.147 56.5995 197.089 56.5459C195.077 54.5584 193.066 52.571 191.055 50.5836C190.963 50.4929 190.871 50.3981 190.763 50.3362C190.028 49.1446 189.294 47.9529 188.563 46.7613C188.455 46.584 188.342 46.4067 188.18 46.3201C188.175 43.6689 188.171 41.0217 188.167 38.3705C188.167 38.1066 188.167 37.8427 188.167 37.5829C188.167 37.3149 188.18 37.0469 188.242 36.7871C188.359 36.3047 188.522 35.847 188.851 35.4883Z" fill="#00CEFE"/>
<path d="M188.81 36.6182C189.073 36.7831 189.298 37.0016 189.523 37.2243C190.228 37.917 190.925 38.6221 191.622 39.323C193.471 41.1703 195.336 43.0051 197.189 44.8441C199.384 47.0253 201.579 49.2065 203.778 51.3877C203.653 51.7135 203.528 52.0392 203.402 52.365C203.34 52.5258 203.286 52.6824 203.173 52.8762C201.546 54.4926 199.914 56.1048 198.286 57.717C198.236 57.651 198.107 57.6386 197.99 57.6139C197.635 57.5397 197.281 57.4613 196.926 57.3871C196.872 57.3253 196.826 57.2634 196.767 57.2098C194.773 55.2348 192.778 53.2638 190.779 51.2929C190.687 51.2022 190.596 51.1074 190.483 51.0538C189.84 49.8374 189.198 48.621 188.555 47.4005C188.459 47.2191 188.363 47.0418 188.217 46.9346C188.213 44.4153 188.209 41.896 188.205 39.3766C188.205 39.1251 188.205 38.8777 188.205 38.6262C188.205 38.3706 188.217 38.119 188.271 37.8716C188.376 37.4098 188.522 36.9728 188.81 36.6182Z" fill="#00CFFE"/>
<path d="M188.764 37.7476C189.022 37.8919 189.243 38.1022 189.46 38.3166C190.136 38.9845 190.808 39.6608 191.48 40.3329C193.254 42.1059 195.044 43.8665 196.826 45.6313C198.937 47.7259 201.049 49.8246 203.16 51.9193C203.085 52.2326 203.014 52.546 202.939 52.8552C202.901 53.0119 202.876 53.1604 202.78 53.35C201.174 54.9457 199.563 56.5415 197.952 58.1372C197.894 58.0959 197.769 58.1001 197.652 58.0959C197.301 58.0794 196.947 58.0588 196.596 58.0423C196.546 57.9805 196.496 57.9186 196.442 57.8609C194.464 55.9023 192.482 53.9438 190.499 51.9894C190.408 51.8986 190.32 51.8079 190.203 51.7585C189.652 50.5132 189.102 49.2721 188.551 48.0269C188.467 47.8413 188.384 47.6599 188.263 47.5403C188.259 45.153 188.254 42.7615 188.25 40.3741C188.25 40.1391 188.25 39.8999 188.25 39.6649C188.25 39.4216 188.259 39.1825 188.304 38.9474C188.396 38.5104 188.517 38.0939 188.764 37.7476Z" fill="#00D0FE"/>
<path d="M188.722 38.8115C188.981 38.9393 189.189 39.1414 189.398 39.3434C190.049 39.9825 190.691 40.6299 191.334 41.2731C193.037 42.9719 194.748 44.6583 196.454 46.3489C198.482 48.361 200.51 50.3732 202.539 52.3853C202.518 52.6863 202.497 52.9832 202.476 53.2842C202.463 53.4327 202.468 53.5729 202.388 53.7666C200.798 55.3459 199.208 56.9251 197.619 58.5002C197.552 58.4837 197.427 58.5043 197.314 58.5208C196.963 58.562 196.613 58.5991 196.262 58.6404C196.212 58.5785 196.166 58.5167 196.112 58.4589C194.147 56.5169 192.181 54.5748 190.216 52.6327C190.124 52.542 190.036 52.4513 189.915 52.4101C189.456 51.1401 188.997 49.8702 188.538 48.6002C188.467 48.4105 188.401 48.225 188.296 48.0889C188.292 45.8293 188.288 43.5698 188.284 41.3144C188.284 41.0917 188.284 40.8649 188.284 40.6423C188.284 40.4155 188.292 40.1846 188.33 39.9619C188.413 39.5455 188.517 39.1455 188.722 38.8115Z" fill="#00D0FE"/>
<path d="M188.626 39.8215C188.88 39.9287 189.081 40.1225 189.281 40.3204C189.903 40.9348 190.52 41.5533 191.138 42.1677C192.765 43.7881 194.405 45.4045 196.037 47.0208C197.982 48.9463 199.926 50.876 201.867 52.8016C201.896 53.0902 201.929 53.3747 201.959 53.6634C201.971 53.8077 202.004 53.9396 201.942 54.1293C200.373 55.692 198.804 57.2506 197.231 58.8092C197.155 58.8175 197.034 58.8587 196.922 58.8876C196.575 58.9865 196.225 59.0814 195.879 59.1762C195.828 59.1144 195.787 59.0484 195.732 58.9948C193.784 57.0651 191.835 55.1395 189.882 53.2139C189.79 53.1232 189.707 53.0325 189.582 52.9995C189.214 51.7048 188.847 50.4101 188.476 49.1113C188.421 48.9175 188.367 48.7278 188.284 48.5794C188.28 46.4518 188.275 44.32 188.275 42.1924C188.275 41.9821 188.275 41.7718 188.275 41.5574C188.275 41.343 188.284 41.1286 188.313 40.9183C188.376 40.5307 188.459 40.1514 188.626 39.8215Z" fill="#00D1FE"/>
<path d="M188.48 40.8359C188.734 40.9225 188.926 41.1081 189.114 41.2977C189.707 41.8832 190.299 42.4729 190.888 43.0625C192.444 44.6087 194.005 46.1508 195.565 47.6929C197.427 49.5361 199.283 51.3792 201.145 53.2223C201.228 53.4944 201.312 53.7707 201.391 54.0428C201.433 54.1789 201.491 54.3026 201.445 54.4964C199.897 56.0385 198.345 57.5847 196.792 59.1227C196.709 59.1557 196.592 59.2134 196.479 59.2629C196.137 59.4195 195.787 59.5721 195.444 59.7247C195.398 59.6628 195.357 59.5968 195.302 59.5432C193.37 57.63 191.434 55.7168 189.498 53.8036C189.41 53.7171 189.323 53.6222 189.197 53.5975C188.922 52.2739 188.642 50.9545 188.367 49.6309C188.325 49.433 188.284 49.2392 188.221 49.0742C188.217 47.0745 188.213 45.0788 188.213 43.079C188.213 42.8811 188.213 42.6832 188.213 42.4852C188.213 42.2832 188.217 42.0812 188.242 41.8833C188.292 41.5163 188.355 41.1576 188.48 40.8359Z" fill="#00D2FE"/>
<path d="M188.33 41.8503C188.58 41.9204 188.764 42.0936 188.947 42.275C189.515 42.8358 190.078 43.3966 190.641 43.9573C192.123 45.4293 193.608 46.8931 195.094 48.3651C196.872 50.1216 198.645 51.8823 200.423 53.6388C200.556 53.8986 200.694 54.1624 200.828 54.4222C200.894 54.55 200.982 54.6696 200.957 54.8593C199.425 56.3849 197.898 57.9105 196.367 59.4361C196.275 59.4938 196.158 59.5681 196.05 59.6382C195.707 59.8526 195.361 60.0587 195.019 60.2731C194.973 60.2113 194.931 60.1453 194.877 60.0917C192.957 58.195 191.038 56.2983 189.118 54.3975C189.031 54.3109 188.943 54.216 188.814 54.1996C188.63 52.8512 188.442 51.5029 188.259 50.1546C188.229 49.9526 188.204 49.7547 188.163 49.5774C188.158 47.7095 188.158 45.8417 188.154 43.9738C188.154 43.7883 188.154 43.6027 188.154 43.4172C188.154 43.2275 188.158 43.042 188.175 42.8523C188.204 42.5018 188.246 42.1637 188.33 41.8503Z" fill="#00D3FE"/>
<path d="M188.179 42.8611C188.43 42.9106 188.601 43.0755 188.776 43.2487C189.315 43.7806 189.853 44.3125 190.391 44.8444C191.802 46.238 193.212 47.6317 194.623 49.0295C196.313 50.7036 198.007 52.3776 199.697 54.0517C199.885 54.2991 200.068 54.5506 200.256 54.798C200.348 54.9217 200.465 55.0289 200.456 55.2185C198.946 56.7277 197.435 58.2368 195.924 59.7418C195.824 59.8242 195.712 59.915 195.599 60.0057C195.261 60.2778 194.919 60.5417 194.577 60.8097C194.531 60.7479 194.493 60.6778 194.439 60.6283C192.536 58.7439 190.633 56.8637 188.726 54.9794C188.639 54.8928 188.555 54.798 188.422 54.7938C188.33 53.4208 188.234 52.0436 188.138 50.6706C188.125 50.4685 188.109 50.2624 188.088 50.0686C188.084 48.3285 188.084 46.5927 188.079 44.8526C188.079 44.6794 188.079 44.5063 188.079 44.3372C188.079 44.1599 188.084 43.9867 188.092 43.8136C188.109 43.4878 188.134 43.1703 188.179 42.8611Z" fill="#00D4FE"/>
<path d="M199.947 55.581C198.457 57.0695 196.968 58.5621 195.474 60.0506C195.031 60.4918 194.577 60.9206 194.13 61.3536C194.088 61.2917 194.051 61.2216 193.997 61.168C192.11 59.3002 190.22 57.4323 188.33 55.5645C188.242 55.4779 188.159 55.3872 188.021 55.3872C188.017 53.7791 188.017 52.171 188.012 50.563C188.008 48.9549 188.008 47.3468 188.004 45.7387C188.004 45.1161 188.012 44.4935 188.021 43.875C188.267 43.9039 188.43 44.0647 188.597 44.2255C190.441 46.0521 192.29 47.8746 194.134 49.7012C195.979 51.5278 197.827 53.3503 199.672 55.1769C199.793 55.2923 199.939 55.3913 199.947 55.581Z" fill="#00D5FE"/>
<path d="M188.021 45.2686C188.255 45.2974 188.409 45.4459 188.568 45.6025C190.312 47.3302 192.06 49.0537 193.805 50.7814C195.549 52.509 197.297 54.2326 199.042 55.9602C199.154 56.0715 199.288 56.1664 199.296 56.3437C197.877 57.7621 196.459 59.1846 195.036 60.5989C194.627 61.0071 194.205 61.4071 193.788 61.807C193.746 61.7534 193.713 61.6957 193.663 61.6503C191.91 60.0629 190.157 58.4795 188.401 56.8962C188.309 56.8055 188.221 56.7106 188.088 56.6983C188.042 56.2241 188.017 55.7376 188.013 55.2428C188.008 54.0676 188.008 52.8925 188.004 51.7174C188 50.167 188 48.6167 188 47.0704C188.008 46.4684 188.017 45.8664 188.021 45.2686Z" fill="#00D6FE"/>
<path d="M188.021 46.6624C188.242 46.6871 188.388 46.8314 188.538 46.9757C190.182 48.6044 191.831 50.229 193.475 51.8577C195.119 53.4864 196.767 55.1109 198.412 56.7396C198.516 56.8427 198.637 56.9376 198.649 57.0984C197.302 58.4467 195.954 59.795 194.602 61.1392C194.222 61.5185 193.834 61.8855 193.45 62.2566C193.412 62.2112 193.379 62.1618 193.333 62.1246C191.714 60.8217 190.095 59.5187 188.476 58.2158C188.38 58.1251 188.288 58.0261 188.159 57.9972C188.067 57.5189 188.017 57.02 188.013 56.5087C188.008 55.2924 188.004 54.076 188.004 52.8638C188.004 51.3711 188 49.8826 188 48.39C188.008 47.8169 188.017 47.2396 188.021 46.6624Z" fill="#00D7FE"/>
<path d="M188.021 48.0598C188.229 48.0804 188.367 48.2165 188.509 48.3526C190.053 49.8823 191.601 51.4079 193.145 52.9376C194.689 54.4633 196.237 55.993 197.781 57.5227C197.877 57.6176 197.986 57.7083 198.007 57.8567C196.73 59.1349 195.453 60.4131 194.172 61.6872C193.825 62.0336 193.471 62.3717 193.116 62.7139C193.078 62.6809 193.049 62.6397 193.008 62.6109C191.526 61.5883 190.041 60.5698 188.555 59.5473C188.455 59.4524 188.359 59.3535 188.229 59.3122C188.092 58.8339 188.017 58.3185 188.012 57.7907C188.004 56.5331 188.004 55.2797 188.004 54.0221C188.004 52.5913 188.004 51.1564 188.004 49.7256C188.008 49.1649 188.017 48.6123 188.021 48.0598Z" fill="#00D8FE"/>
<path d="M188.021 49.4539C188.217 49.4704 188.346 49.5982 188.475 49.7301C189.919 51.1609 191.367 52.5875 192.811 54.0142C194.255 55.4409 195.703 56.8716 197.147 58.3024C197.234 58.389 197.335 58.4756 197.355 58.6117C196.149 59.8157 194.943 61.0238 193.737 62.2278C193.42 62.5411 193.099 62.8504 192.782 63.1596C192.749 63.1349 192.719 63.1019 192.682 63.0813C191.334 62.3432 189.986 61.6052 188.638 60.8671C188.53 60.7681 188.434 60.665 188.308 60.6114C188.125 60.129 188.025 59.6054 188.025 59.057C188.016 57.7623 188.016 56.4634 188.016 55.1687C188.016 53.7957 188.016 52.4226 188.016 51.0496C188.012 50.5135 188.016 49.9858 188.021 49.4539Z" fill="#00D9FE"/>
<path d="M188.021 50.8472C188.209 50.8595 188.325 50.9832 188.446 51.1028C189.79 52.4305 191.138 53.7623 192.482 55.09C193.825 56.4177 195.173 57.7495 196.517 59.0814C196.6 59.1638 196.684 59.2463 196.709 59.3659C195.574 60.4998 194.439 61.6378 193.304 62.7676C193.02 63.0521 192.728 63.3283 192.444 63.6087C192.415 63.5922 192.386 63.5716 192.352 63.5592C191.138 63.1015 189.924 62.648 188.714 62.1903C188.601 62.0913 188.501 61.9841 188.38 61.914C188.146 61.4316 188.025 60.8915 188.025 60.3225C188.017 58.9865 188.012 57.6506 188.012 56.3146C188.012 54.9993 188.012 53.684 188.012 52.3687C188.012 51.8656 188.017 51.3543 188.021 50.8472Z" fill="#01D9FE"/>
<path d="M188.021 52.2407C188.196 52.2531 188.305 52.3644 188.417 52.4757C189.661 53.7045 190.908 54.9373 192.152 56.1661C193.396 57.3948 194.643 58.6277 195.887 59.8605C195.962 59.9348 196.033 60.0131 196.066 60.1203C195.002 61.1841 193.938 62.2479 192.874 63.3117C192.619 63.5632 192.365 63.8106 192.11 64.0622C192.081 64.0539 192.06 64.0457 192.027 64.0374C190.95 63.8642 189.869 63.6911 188.793 63.5179C188.676 63.4148 188.567 63.3076 188.451 63.221C188.171 62.7386 188.029 62.1861 188.025 61.5964C188.012 60.2193 188.012 58.8421 188.012 57.4649C188.012 56.2073 188.012 54.9538 188.017 53.6962C188.017 53.2138 188.021 52.7273 188.021 52.2407Z" fill="#01DAFE"/>
<path d="M188.021 53.47C188.184 53.4782 188.284 53.5854 188.388 53.6885C189.531 54.8183 190.679 55.9522 191.822 57.082C192.966 58.2117 194.113 59.3456 195.257 60.4795C195.323 60.5455 195.386 60.6239 195.419 60.7146C194.426 61.7083 193.433 62.702 192.44 63.6916C192.219 63.9142 191.993 64.1286 191.772 64.3513C191.747 64.3513 191.726 64.3513 191.697 64.3554C190.754 64.4626 189.811 64.574 188.868 64.6812C188.747 64.5781 188.634 64.4626 188.522 64.3678C188.196 63.8812 188.029 63.3164 188.025 62.7102C188.012 61.2918 188.012 59.8775 188.012 58.4591C188.012 57.2634 188.017 56.0635 188.017 54.8678C188.017 54.3977 188.021 53.9359 188.021 53.47Z" fill="#01DBFE"/>
<path d="M188.021 54.4299C188.171 54.4341 188.263 54.533 188.359 54.6278C189.402 55.6587 190.449 56.6936 191.493 57.7244C192.536 58.7552 193.583 59.7902 194.626 60.821C194.685 60.8787 194.735 60.953 194.772 61.0313C193.85 61.9508 192.928 62.8744 192.006 63.7939C191.818 63.9836 191.626 64.1732 191.434 64.3588C191.413 64.367 191.392 64.3794 191.367 64.3876C190.558 64.7794 189.748 65.1711 188.943 65.5587C188.818 65.4515 188.701 65.336 188.592 65.2247C188.221 64.7381 188.029 64.1567 188.025 63.5341C188.012 62.0745 188.008 60.619 188.012 59.1593C188.012 58.0213 188.016 56.8792 188.021 55.7411C188.021 55.3082 188.021 54.8711 188.021 54.4299Z" fill="#01DCFE"/>
<path d="M188.021 55.3867C188.158 55.3867 188.242 55.4816 188.329 55.564C189.273 56.4959 190.22 57.4319 191.163 58.3637C192.106 59.2956 193.053 60.2316 193.996 61.1634C194.051 61.217 194.084 61.2871 194.13 61.349C193.279 62.1984 192.427 63.0478 191.576 63.9013C190.725 64.7507 189.873 65.6042 189.022 66.4536C188.375 65.9093 188.033 65.1836 188.025 64.3755C188.008 62.8787 188.008 61.3778 188.012 59.8811C188.012 58.3843 188.021 56.8835 188.021 55.3867Z" fill="#01DDFE"/>
<path d="M199.947 55.5811C201.675 53.8782 203.407 52.1794 205.13 50.4724C205.714 49.8951 206.29 49.3055 206.87 48.72L206.904 48.7282H206.937C207.062 48.8602 207.183 49.0004 207.313 49.1282C209.353 51.1527 211.398 53.1772 213.438 55.2018C212.441 55.8821 211.356 56.4264 210.313 57.0284C204.621 60.3064 198.929 63.572 193.241 66.8376C191.743 67.6994 190.379 67.6252 189.177 66.6232C189.118 66.5738 189.077 66.5119 189.027 66.4583C190.729 64.7554 192.432 63.0566 194.134 61.3537C194.581 60.9207 195.036 60.4919 195.478 60.0507C196.964 58.5622 198.453 57.0737 199.947 55.5811Z" fill="#F53549"/>
<defs>
<filter id="filter0_d_2364_18188" x="0" y="0" width="251" height="99" filterUnits="userSpaceOnUse" color-interpolation-filters="sRGB">
<feFlood flood-opacity="0" result="BackgroundImageFix"/>
<feColorMatrix in="SourceAlpha" type="matrix" values="0 0 0 0 0 0 0 0 0 0 0 0 0 0 0 0 0 0 127 0" result="hardAlpha"/>
<feOffset dy="4"/>
<feGaussianBlur stdDeviation="7"/>
<feComposite in2="hardAlpha" operator="out"/>
<feColorMatrix type="matrix" values="0 0 0 0 0 0 0 0 0 0 0 0 0 0 0 0 0 0 0.15 0"/>
<feBlend mode="normal" in2="BackgroundImageFix" result="effect1_dropShadow_2364_18188"/>
<feBlend mode="normal" in="SourceGraphic" in2="effect1_dropShadow_2364_18188" result="shape"/>
</filter>
</defs>
</svg>
