<svg width="46" height="57" viewBox="0 0 46 57" fill="none" xmlns="http://www.w3.org/2000/svg">
<path d="M4.12797 27.7074C3.01057 26.2922 2.22537 24.7565 1.80257 23.0251C1.04758 19.8784 1.74217 17.0329 3.59947 14.4283C5.29066 12.0495 7.51035 10.2278 9.92634 8.69209C12.7047 6.93058 15.5435 5.30457 18.337 3.60328C19.8319 2.68488 21.3419 1.78154 22.4291 0.351257C22.7764 -0.100413 23.4257 -0.115468 23.773 0.336201C25.3585 2.32355 27.5933 3.42261 29.7073 4.68729C32.7575 6.49397 35.868 8.1802 38.6615 10.3934C40.7151 12.0194 42.5724 13.8411 43.7049 16.25C45.5018 20.0742 44.8525 23.6725 42.5724 27.0901C42.4214 27.3009 42.2704 27.5117 42.1043 27.7375C43.3274 29.0925 44.2938 30.5981 44.9129 32.2843C45.4716 33.7748 45.7736 35.3256 45.7736 36.9215C45.7736 42.2963 45.7736 47.6862 45.7736 53.0611C45.7736 53.9042 45.4565 54.2204 44.6109 54.2204C43.6143 54.2204 42.6177 54.2355 41.606 54.2204C41.3191 54.2204 41.1379 54.2656 41.002 54.5667C40.5792 55.5453 39.7789 56.0271 38.7219 56.0271C30.8549 56.0271 22.9878 56.0271 15.1207 56.0271C13.5503 56.0271 12.1762 55.5001 10.9531 54.5215C10.7417 54.3559 10.4246 54.2355 10.1528 54.2355C7.34425 54.2204 4.53566 54.2204 1.71198 54.2204C0.745579 54.2204 0.47378 53.9343 0.47378 52.9708C0.47378 47.7465 0.48888 42.5071 0.47378 37.2828C0.45868 33.7297 1.60628 30.6131 3.96187 27.9483C4.00717 27.873 4.03737 27.8128 4.12797 27.7074ZM43.9465 52.3987C43.9465 52.1126 43.9465 51.9169 43.9465 51.7061C43.9465 46.8582 43.9465 41.9952 43.9465 37.1473C43.9465 33.8049 42.7536 30.9444 40.3829 28.5806C39.7789 27.9784 39.794 27.602 40.3527 26.9396C42.361 24.5909 43.3576 21.911 42.6932 18.7944C42.2704 16.8221 41.1228 15.2262 39.7487 13.796C37.9216 11.8989 35.7472 10.4385 33.5275 9.03837C30.0546 6.84025 26.2494 5.13896 23.0935 2.38377C20.5718 4.67223 17.4914 6.11757 14.6375 7.87909C13.052 8.8577 11.4514 9.83632 9.92634 10.8902C8.00865 12.2151 6.25706 13.7357 4.94336 15.6779C3.87127 17.2588 3.20687 18.9902 3.32767 20.9173C3.47867 23.2208 4.33936 25.2533 5.89466 26.9847C6.43826 27.602 6.42316 28.0085 5.83426 28.5806C3.46357 30.9444 2.27067 33.8049 2.27067 37.1473C2.27067 42.0404 2.27067 46.9335 2.27067 51.8266C2.27067 52.0072 2.28577 52.1879 2.30087 52.3535C4.64136 52.3535 6.93655 52.3535 9.14115 52.3535C8.95995 51.4953 8.67305 50.6522 8.64285 49.8091C8.55225 47.0539 9.79044 45.0063 12.2366 43.7116C13.4899 43.0491 14.7885 42.4318 16.2683 41.6941C15.9965 41.5134 15.8002 41.4231 15.6643 41.2876C13.9429 39.5713 12.2064 37.87 10.5001 36.1386C8.79385 34.4072 9.44314 31.6068 11.7232 30.8992C12.9916 30.5077 14.109 30.8089 15.0452 31.7423C16.0267 32.7059 16.9931 33.6694 18.0048 34.6782C18.5635 32.48 19.6054 30.6282 21.1607 29.0775C21.5684 28.671 21.3117 27.7074 20.7832 27.4514C19.1222 26.6234 17.9746 25.3135 17.8085 23.4767C17.6424 21.64 17.6122 19.7429 17.8085 17.9062C18.1407 14.895 20.9342 12.6216 23.9995 12.6216C27.1252 12.6216 29.8734 14.88 30.2358 17.9212C30.4321 19.5773 30.3566 21.2636 30.2811 22.9347C30.2056 24.636 29.4053 25.976 27.8953 26.8643C27.4876 27.1052 27.5782 27.4213 27.7745 27.7224C27.8953 27.9182 28.1067 28.0687 28.2879 28.2494C30.8851 30.839 32.1988 33.9555 32.1837 37.614C32.1686 39.3002 32.1384 41.0015 32.1988 42.6878C32.2592 44.5998 31.7307 46.2861 30.4321 47.7164C30.417 47.7314 30.4321 47.7766 30.4321 47.8669C31.2928 47.8669 32.1535 47.8519 33.0142 47.8669C34.3731 47.882 35.5811 48.3638 36.3814 49.4478C37.1213 50.4565 38.0424 50.9684 39.2353 51.1792C39.8695 51.2845 40.3829 51.6158 40.7906 52.1427C40.8812 52.2632 41.0473 52.3686 41.1832 52.3836C42.059 52.3987 42.965 52.3987 43.9465 52.3987ZM30.3415 49.6887C30.0848 49.6887 29.8885 49.6887 29.6771 49.6887C26.1437 49.6887 22.6254 49.6887 19.092 49.6887C18.941 49.6887 18.79 49.6887 18.639 49.6887C18.0501 49.6585 17.6726 49.3123 17.6726 48.8004C17.6575 48.2734 18.0501 47.882 18.6692 47.882C20.9946 47.8669 23.3049 47.882 25.6303 47.882C28.3785 47.882 30.3415 45.9398 30.3415 43.1997C30.3415 41.393 30.3264 39.5863 30.3415 37.7796C30.3868 34.4373 29.1939 31.6219 26.7477 29.3183C26.5212 29.1076 26.34 29.0473 26.0531 29.1377C25.0263 29.4538 23.9995 29.755 22.9727 30.0561C22.8368 30.1012 22.6707 30.1464 22.565 30.2518C21.1758 31.5315 20.2547 33.0973 19.847 34.9642C20.4359 34.4523 20.9795 33.8802 21.5382 33.3382C22.8972 32.0133 24.8149 31.9681 26.0984 33.2328C27.397 34.4975 27.3668 36.4547 26.0078 37.8248C24.6488 39.1949 23.2898 40.5348 21.9308 41.9049C20.8738 42.9588 19.6205 43.3502 18.1558 43.019C17.9897 42.9889 17.7783 42.9738 17.6273 43.0491C16.0116 43.8471 14.3657 44.6149 12.7802 45.4881C11.2853 46.3011 10.4699 47.6411 10.4095 49.3424C10.3038 52.0373 12.4027 54.2053 15.1056 54.2053C20.0282 54.2204 24.9508 54.2053 29.8734 54.2053C30.0093 54.2053 30.1603 54.1752 30.3113 54.1602C30.3415 52.6697 30.3415 51.2243 30.3415 49.6887ZM25.7964 27.3461C25.8115 27.2557 25.8417 27.1955 25.8266 27.1353C25.7058 26.2771 26.0682 25.7652 26.8534 25.3587C27.3819 25.0877 27.9104 24.5608 28.152 24.0338C28.7711 22.724 28.5144 21.2937 28.5295 19.9086C25.4793 19.9086 22.5046 19.9086 19.4846 19.9086C19.4846 20.6613 19.4846 21.3991 19.4846 22.1217C19.4846 24.3199 20.2849 25.434 22.3838 26.1265C22.8519 26.2771 23.1086 26.5782 23.1086 27.0751C23.1086 27.4063 23.1086 27.7375 23.1086 28.144C24.0448 27.8579 24.9206 27.602 25.7964 27.3461ZM13.4899 36.6203C14.8036 37.9302 16.1475 39.2701 17.5065 40.595C18.488 41.5586 19.696 41.5586 20.6624 40.6101C22.0214 39.2852 23.3653 37.9302 24.7092 36.5902C25.3736 35.9127 25.4189 35.1298 24.83 34.5427C24.2411 33.9705 23.4559 34.0157 22.7764 34.6782C21.8553 35.5966 20.9342 36.515 20.0131 37.4333C19.2732 38.1711 18.9108 38.1711 18.1709 37.4484C17.2347 36.5149 16.2985 35.5966 15.4076 34.7083C14.7734 35.3406 14.1543 35.9579 13.4899 36.6203ZM28.3936 18.0417C28.152 16.0694 26.1739 14.4434 24.0146 14.4434C21.8704 14.4434 19.8772 16.0694 19.6356 18.0417C22.5499 18.0417 25.4793 18.0417 28.3936 18.0417ZM32.2139 49.7188C32.2139 51.2243 32.2139 52.6998 32.2139 54.2053C34.0258 54.2053 35.8076 54.2053 37.5743 54.2053C37.9518 54.2053 38.3444 54.2656 38.7068 54.1903C38.9635 54.1301 39.3108 53.9042 39.3863 53.6784C39.5222 53.302 39.2202 53.0611 38.8578 52.9708C38.5256 52.8955 38.1934 52.8202 37.8763 52.7299C36.8344 52.4589 35.9435 51.9319 35.3395 51.0437C34.5694 49.9295 33.5427 49.5532 32.2139 49.7188ZM14.0486 33.3533C13.5654 32.751 13.052 32.3445 12.2819 32.5704C11.7534 32.7209 11.4212 33.0973 11.3457 33.6544C11.24 34.377 11.6477 34.8287 12.1762 35.2202C12.7953 34.5878 13.4144 33.9705 14.0486 33.3533Z" fill="#129D59"/>
</svg>
