<svg width="85" height="85" viewBox="0 0 85 85" fill="none" xmlns="http://www.w3.org/2000/svg">
<path d="M21.236 11.9978C21.5735 11.9978 21.9084 11.9978 22.2458 11.9978C36.2244 11.9978 50.2005 11.9978 64.1791 11.9978C67.5887 11.9978 69.364 13.7605 69.3666 17.1425C69.3691 24.5863 69.3766 32.0301 69.3514 39.474C69.3489 40.1639 69.5126 40.4989 70.1925 40.7708C79.389 44.465 85.2514 53.8051 84.3977 63.334C83.4685 73.714 76.2992 81.8654 66.2767 83.9404C53.3835 86.6072 40.7773 77.4107 39.3823 64.2884C39.2941 63.4523 39.0045 63.2458 38.1836 63.2483C27.1589 63.2786 16.1342 63.2685 5.10944 63.2685C1.78289 63.2685 0 61.4806 0 58.1414C0 44.4474 0 30.7509 0 17.0569C0 13.7983 1.81059 11.9147 5.08174 12.023C8.26224 12.1262 11.2035 11.0711 14.2102 10.371C28.7504 6.99412 43.2729 3.5467 57.8029 0.12949C59.2232 -0.205432 60.0139 0.109344 60.2708 1.07382C60.5302 2.04333 59.8981 2.75094 58.4501 3.0909C47.7352 5.61163 37.0227 8.13235 26.3077 10.6531C24.6104 11.051 22.9132 11.4488 21.2159 11.8467C21.2209 11.8971 21.2285 11.9474 21.236 11.9978ZM34.6757 15.0146C24.8421 15.0146 15.011 15.0146 5.17744 15.0146C3.44743 15.0146 3.01429 15.4503 3.01429 17.1853C3.01429 30.8189 3.01429 44.4525 3.01429 58.086C3.01429 59.816 3.45246 60.2542 5.18247 60.2542C15.8622 60.2542 26.5444 60.2542 37.2242 60.2542C39.1481 60.2542 39.1481 60.2542 39.4477 58.4033C39.4931 58.1238 39.5459 57.8468 39.5938 57.5698C41.6789 45.6889 53.5472 37.3511 65.423 39.4513C66.1684 39.5822 66.3699 39.4437 66.3674 38.6631C66.3372 31.5013 66.3497 24.3395 66.3497 17.1777C66.3497 15.4528 65.9116 15.0196 64.174 15.0171C54.3404 15.0146 44.5093 15.0146 34.6757 15.0146ZM81.4288 61.7601C81.459 51.035 72.6427 42.176 61.9227 42.1584C51.1171 42.1407 42.2455 50.8839 42.2278 61.5687C42.2077 72.5028 50.8955 81.314 61.7339 81.3568C72.5873 81.3996 81.3986 72.6362 81.4288 61.7601Z" fill="#65501D"/>
<path d="M33.177 43.6628C33.187 51.1066 27.0804 57.2334 19.6517 57.236C12.1273 57.236 6.03824 51.1696 6.03321 43.6653C6.02817 36.1737 12.1172 30.1048 19.6517 30.0947C27.0779 30.0872 33.1669 36.1963 33.177 43.6628ZM19.5484 42.1569C22.4645 42.1569 25.3831 42.1569 28.2992 42.1569C30.2281 42.1569 30.1879 42.1695 29.6187 40.301C29.3493 39.4197 28.9489 39.1024 27.9844 39.1149C22.6534 39.1729 17.3198 39.1426 11.9888 39.1426C9.75764 39.1426 9.77274 39.1452 9.28673 41.3763C9.15075 42.0033 9.30436 42.1771 9.95154 42.172C13.1497 42.1393 16.3478 42.1569 19.5484 42.1569ZM19.6366 48.188C22.1774 48.188 24.7183 48.188 27.2592 48.188C29.3644 48.188 29.3342 48.1805 29.8832 46.1005C30.0871 45.3223 29.9008 45.1536 29.1252 45.1561C23.1646 45.1838 17.204 45.1712 11.2434 45.1712C8.88382 45.1712 8.90648 45.1637 9.73497 47.4175C9.95405 48.0143 10.2436 48.2132 10.8858 48.2057C13.8019 48.1679 16.718 48.188 19.6366 48.188ZM12.3766 36.0402C17.2342 36.0402 21.9886 36.0402 26.826 36.0402C22.9077 32.1748 16.2571 32.1798 12.3766 36.0402ZM26.7732 51.2703C21.9483 51.2703 17.204 51.2703 12.4018 51.2703C15.9549 55.1458 23.4945 55.1333 26.7732 51.2703Z" fill="#65501D"/>
<path d="M34.6096 27.0738C25.8135 27.0738 17.0174 27.0738 8.22126 27.0738C6.47362 27.0738 6.03293 26.6432 6.03042 24.9283C6.0279 23.3897 6.03042 21.8485 6.03042 20.3099C6.03042 18.4313 6.42577 18.0259 8.2691 18.0259C25.8613 18.0259 43.4535 18.0259 61.0457 18.0259C62.9495 18.0259 63.3322 18.4162 63.3322 20.3577C63.3322 21.8032 63.3322 23.2486 63.3322 24.6941C63.3322 26.7011 62.9671 27.0738 60.9979 27.0738C52.2018 27.0738 43.4057 27.0738 34.6096 27.0738ZM45.1407 24.057C49.535 24.057 53.9318 24.057 58.326 24.057C60.3205 24.057 60.2802 24.057 60.3381 22.0575C60.3608 21.2492 60.1769 21.015 59.3232 21.0175C50.3131 21.0528 41.303 21.0402 32.2928 21.0402C30.1423 21.0402 30.1876 21.0402 30.1372 23.1807C30.1171 23.989 30.4344 24.0721 31.1092 24.0696C35.783 24.0444 40.4619 24.057 45.1407 24.057ZM18.0448 24.057C20.3666 24.057 22.6884 24.057 25.0127 24.057C27.1607 24.057 27.1154 24.057 27.1657 21.9165C27.1859 21.1056 26.8686 21.0251 26.1937 21.0276C21.2026 21.0502 16.214 21.0402 11.223 21.0402C9.01953 21.0402 9.04723 21.0402 9.0296 23.2285C9.02456 23.8732 9.17566 24.0822 9.85306 24.0721C12.5828 24.0343 15.315 24.057 18.0448 24.057Z" fill="#65501D"/>
<path d="M39.1712 33.0991C38.6675 33.0991 38.1639 33.1293 37.6653 33.0941C36.7789 33.0311 36.1795 32.3839 36.1972 31.5655C36.2148 30.7798 36.794 30.1453 37.6376 30.11C38.6726 30.0647 39.7101 30.0647 40.745 30.1075C41.6314 30.1427 42.2333 30.8126 42.2131 31.631C42.1955 32.4116 41.6113 33.0286 40.7727 33.0916C40.2414 33.1319 39.705 33.0991 39.1712 33.0991Z" fill="#65501D"/>
<path d="M48.2584 33.0952C47.7246 33.0952 47.1882 33.1304 46.6569 33.0876C45.8208 33.0196 45.2467 32.3876 45.2441 31.6019C45.2416 30.8162 45.8133 30.1489 46.6443 30.1086C47.7095 30.0582 48.7797 30.0582 49.8449 30.1086C50.681 30.1463 51.2551 30.8011 51.2601 31.5893C51.2652 32.3724 50.6885 32.9919 49.86 33.0952C49.7971 33.1027 49.7341 33.1027 49.6712 33.1027C49.2003 33.1027 48.7293 33.1027 48.2584 33.1027C48.2584 33.1002 48.2584 33.0977 48.2584 33.0952Z" fill="#65501D"/>
<path d="M57.3817 30.1028C57.8854 30.1028 58.389 30.0701 58.8876 30.1104C59.7262 30.1784 60.3028 30.7978 60.3129 31.586C60.323 32.3692 59.7488 33.0466 58.9229 33.0894C57.8577 33.1423 56.7874 33.1398 55.7222 33.0919C54.8837 33.0542 54.3095 32.4045 54.2994 31.6188C54.2894 30.7953 54.8912 30.1633 55.7827 30.1053C56.314 30.0726 56.8504 30.1003 57.3842 30.1003C57.3817 30.1003 57.3817 30.1003 57.3817 30.1028Z" fill="#65501D"/>
<path d="M73.89 60.2684C73.89 63.1568 73.8975 66.0452 73.8875 68.9336C73.8824 70.442 73.0816 71.0539 71.6412 70.6485C68.6571 69.8074 65.6706 68.9663 62.6966 68.0875C62.0192 67.886 61.7573 67.9313 61.8076 68.7372C61.8781 69.8628 61.8404 70.996 61.8202 72.1267C61.8001 73.2397 61.241 73.8063 60.128 73.8189C58.2771 73.839 56.4237 73.834 54.5728 73.8214C53.3389 73.8139 52.7899 73.2674 52.7824 72.0385C52.7698 70.029 52.7572 68.0195 52.7925 66.0125C52.8025 65.4459 52.6565 65.1336 52.0697 65.048C51.6995 64.9926 51.342 64.8642 50.9819 64.7559C50.2037 64.5192 49.7681 64.008 49.7656 63.1744C49.763 61.2279 49.763 59.2813 49.7656 57.3347C49.7656 56.5012 50.1937 55.9774 50.9793 55.7533C57.9346 53.7639 64.8874 51.772 71.8477 49.8002C73.0313 49.4653 73.8749 50.1452 73.8824 51.4169C73.9026 54.3657 73.89 57.3171 73.89 60.2684ZM70.8757 60.3465C70.8757 58.2413 70.8631 56.136 70.8832 54.0333C70.8883 53.4491 70.8505 53.1973 70.1278 53.4113C66.6124 54.4564 63.0818 55.4536 59.5488 56.4332C59.0049 56.5843 58.7833 56.7807 58.7984 57.38C58.8387 59.2964 58.8311 61.2128 58.8034 63.1291C58.7959 63.6453 58.9142 63.8997 59.4607 64.0508C63.0264 65.0354 66.5847 66.0401 70.1303 67.0902C70.848 67.3043 70.8933 67.06 70.8858 66.4733C70.8606 64.431 70.8757 62.3888 70.8757 60.3465ZM55.7941 60.344C55.7941 59.591 55.7765 58.8406 55.8017 58.0877C55.8168 57.6369 55.6405 57.5462 55.2427 57.6671C54.5854 57.8661 53.9181 58.0373 53.2608 58.2413C53.0694 58.3017 52.7925 58.3143 52.7925 58.614C52.795 59.7396 52.5406 60.9634 52.9033 61.9607C53.1651 62.6783 54.4671 62.4744 55.2553 62.8294C55.6531 63.0082 55.8168 62.8445 55.8017 62.4114C55.7765 61.7214 55.7941 61.0314 55.7941 60.344ZM55.7941 66.2341C55.7941 67.0021 55.7941 67.7727 55.7941 68.5458C55.7941 70.9859 55.7942 70.9859 58.2544 70.8071C58.3174 70.8021 58.3804 70.8021 58.4408 70.8046C58.7304 70.8147 58.8185 70.651 58.8084 70.3941C58.7656 69.276 59.1736 67.9993 58.6397 67.0928C58.2368 66.4103 56.9425 66.5211 56.0636 66.224C56.0107 66.2064 55.9427 66.2265 55.7941 66.2341Z" fill="#65501D"/>
</svg>
