<?xml version="1.0" encoding="utf-8"?>
<!-- Generator: Adobe Illustrator 25.2.3, SVG Export Plug-In . SVG Version: 6.00 Build 0)  -->
<svg version="1.1" id="Calque_1" xmlns="http://www.w3.org/2000/svg" xmlns:xlink="http://www.w3.org/1999/xlink" x="0px" y="0px"
	 viewBox="0 0 636.4 636.4" style="enable-background:new 0 0 636.4 636.4;" xml:space="preserve">
<style type="text/css">
	.st0{fill:#F4F4F4;}
	.st1{fill:#DFDFDF;}
	.st2{fill:#4F8C42;}
	.st3{fill:#FEFEFE;}
	.st4{fill:#B2BDC3;}
	.st5{fill:#D0D7DB;}
	.st6{fill:#93A3AD;}
	.st7{fill:#83BD7A;}
	.st8{fill:#65AD58;}
	.st9{fill:#C1CACF;}
	.st10{fill:#A8B5BC;}
</style>
<g id="ClaeTw.tif">
	<g>
		<path class="st0" d="M492.1,564.3c-10.6,0-21.3,0-31.9,0c0-14.6-0.2-29.2,0.1-43.8c0.1-4.2-1.3-5.4-5.4-5.2
			c-7.1,0.3-14.3,0.3-21.4,0c-4.1-0.2-5.4,1-5.4,5.2c0.2,14.6,0.1,29.2,0.1,43.8c-10.6,0-21.3,0-31.9,0c0-14.6-0.2-29.2,0.1-43.8
			c0.1-4.2-1.3-5.4-5.4-5.2c-7.1,0.3-14.3,0.3-21.4,0c-4.1-0.2-5.4,1-5.4,5.2c0.2,14.6,0.1,29.2,0.1,43.8c-10.6,0-21.3,0-31.9,0
			c0-14.6-0.2-29.2,0.1-43.8c0.1-4.2-1.3-5.4-5.4-5.2c-7.1,0.3-14.3,0.3-21.4,0c-4.1-0.2-5.4,1-5.4,5.2c0.2,14.6,0.1,29.2,0.1,43.8
			c-10.6,0-21.3,0-31.9,0c0-14.6-0.2-29.2,0.1-43.8c0.1-4.2-1.3-5.4-5.4-5.2c-7.1,0.3-14.3,0.3-21.4,0c-4.1-0.2-5.4,1-5.4,5.2
			c0.2,14.6,0.1,29.2,0.1,43.8c-10.6,0-21.3,0-31.9,0c0-14.6-0.2-29.2,0.1-43.8c0.1-4.2-1.3-5.4-5.4-5.2c-7.1,0.3-14.3,0.3-21.4,0
			c-4.1-0.2-5.4,1-5.4,5.2c0.2,14.6,0.1,29.2,0.1,43.8c-10.6,0-21.3,0-31.9,0c0-25.1,0.1-50.1-0.1-75.2c0-4.7,1.4-5.8,5.9-5.7
			c32.7,0.2,65.4,0.1,98.1,0c47.8,0,95.7,0,143.5,0c32.8,0,65.7,0.1,98.5,0c4.1,0,5.4,1,5.4,5.2C492,513.8,492.1,539.1,492.1,564.3z
			"/>
		<path class="st1" d="M492.1,564.3c0-25.2-0.1-50.4,0.1-75.7c0-4.2-1.3-5.2-5.4-5.2c-32.8,0.1-65.7,0-98.5,0
			c0-15.9,0.1-31.9,0.1-47.8c42.6,0,85.1,0,127.7,0c13.6,0,27.2,0,40.9,0c0,42.6,0,85.1,0,127.7c-0.3,0.3-0.7,0.7-1,1
			C534.7,564.3,513.4,564.3,492.1,564.3z"/>
		<path class="st1" d="M244.8,483.4c-32.7,0-65.4,0.1-98.1,0c-4.5,0-5.9,1-5.9,5.7c0.2,25.1,0.1,50.1,0.1,75.2
			c-20.9,0-41.9,0-62.8,0c-0.3-0.3-0.7-0.7-1-1c0-42.6,0-85.1,0-127.7c13.3,0,26.6,0,39.9,0c42.6,0,85.1,0,127.7,0
			c0,2.7,0,5.3,0.1,8C244.7,456.9,244.8,470.1,244.8,483.4z"/>
		<path class="st1" d="M172.9,564.3c0-14.6,0.2-29.2-0.1-43.8c-0.1-4.2,1.3-5.4,5.4-5.2c7.1,0.3,14.3,0.3,21.4,0
			c4.1-0.2,5.4,1,5.4,5.2c-0.2,14.6-0.1,29.2-0.1,43.8C194.2,564.3,183.5,564.3,172.9,564.3z"/>
		<path class="st1" d="M236.7,564.3c0-14.6,0.2-29.2-0.1-43.8c-0.1-4.2,1.3-5.4,5.4-5.2c7.1,0.3,14.3,0.3,21.4,0
			c4.1-0.2,5.4,1,5.4,5.2c-0.2,14.6-0.1,29.2-0.1,43.8C258,564.3,247.4,564.3,236.7,564.3z"/>
		<path class="st1" d="M300.6,564.3c0-14.6,0.2-29.2-0.1-43.8c-0.1-4.2,1.3-5.4,5.4-5.2c7.1,0.3,14.3,0.3,21.4,0
			c4.1-0.2,5.4,1,5.4,5.2c-0.2,14.6-0.1,29.2-0.1,43.8C321.8,564.3,311.2,564.3,300.6,564.3z"/>
		<path class="st1" d="M364.4,564.3c0-14.6,0.2-29.2-0.1-43.8c-0.1-4.2,1.3-5.4,5.4-5.2c7.1,0.3,14.3,0.3,21.4,0
			c4.1-0.2,5.4,1,5.4,5.2c-0.2,14.6-0.1,29.2-0.1,43.8C385.7,564.3,375,564.3,364.4,564.3z"/>
		<path class="st1" d="M428.2,564.3c0-14.6,0.2-29.2-0.1-43.8c-0.1-4.2,1.3-5.4,5.4-5.2c7.1,0.3,14.3,0.3,21.4,0
			c4.1-0.2,5.4,1,5.4,5.2c-0.2,14.6-0.1,29.2-0.1,43.8C449.5,564.3,438.9,564.3,428.2,564.3z"/>
		<path class="st2" d="M308.6,116.3c0-13.3,0-26.6,0-39.9c5.3,0,10.6,0,16,0c0,13.3,0,26.6,0,39.9
			C319.2,116.3,313.9,116.3,308.6,116.3z"/>
		<path class="st3" d="M77.1,563.3c0.3,0.3,0.7,0.7,1,1C77.2,564.5,76.9,564.1,77.1,563.3z"/>
		<path class="st3" d="M555.9,564.3c0.3-0.3,0.7-0.7,1-1C557.1,564.1,556.8,564.5,555.9,564.3z"/>
		<path class="st4" d="M244.8,483.4c0-13.3,0-26.5,0-39.8c21.1,0,42.2,0,63.3,0c13.8,0,24.4-10.7,24.5-24.6c0-58.3,0-116.6,0-174.9
			c18.6,0,37.2,0,55.7-0.1c0,37.9,0.1,75.9,0.1,113.8c0,4.6,0,9.3,0,13.9c0,10.6,0,21.2,0,31.8c0,10.7,0,21.3,0,32
			c0,15.9-0.1,31.9-0.1,47.8C340.4,483.4,292.6,483.4,244.8,483.4z"/>
		<path class="st5" d="M388.4,435.6c0-10.7,0-21.3,0-32c37.1,0,74.2,0,111.2,0c3.9,0,7.9,0.3,11.8,0c3.8-0.3,4.7,1.3,4.7,4.8
			c-0.2,9-0.1,18.1,0,27.2C473.5,435.6,430.9,435.6,388.4,435.6z"/>
		<path class="st6" d="M388.2,244c-18.6,0-37.2,0-55.7,0.1l0,0c0-21.2,0-42.5,0-63.7c13.3-0.1,26.6-0.1,40-0.2c4,0,7.9,0.2,11.9,0
			c2.9-0.1,4.1,0.6,4.1,3.8C388.2,203.9,388.2,224,388.2,244z"/>
		<path class="st7" d="M308.6,116.3c5.3,0,10.6,0,15.9,0c7.3,2,14.7,3.6,21.1,8c1.3,0.9,3,1.4,3.8,3c-2.1,4.4-0.8,9.1-0.9,13.6
			c-0.4,12.1-11.2,23.2-23.3,23.3c-21.2,0.1-42.4,0-63.7,0c1-19.8,18-39.6,39.4-45.8C303.5,117.6,306,117,308.6,116.3z"/>
		<path class="st8" d="M499.6,403.6c-37.1,0-74.2,0-111.2,0c0-10.6,0-21.2,0-31.9c25.2,0,50.5,0,75.7,0c1.9,0,3.9-0.4,5.6,1.3
			C479.6,383.3,489.6,393.4,499.6,403.6z"/>
		<path class="st8" d="M261.5,164.2c21.2,0,42.4,0.1,63.7,0c12.1,0,22.9-11.1,23.3-23.3c0.1-4.5-1.2-9.2,0.9-13.6
			c14.4,10.5,21.7,24.8,22.9,42.4c0.2,3.5,0.1,6.9,0.1,10.4c-13.3,0.1-26.6,0.1-40,0.2c-23.9-0.1-47.9-0.1-71.8-0.2
			C260.9,174.8,260,169.4,261.5,164.2z"/>
		<path class="st9" d="M332.5,244c0,58.3,0,116.6,0,174.9c0,13.9-10.6,24.6-24.5,24.6c-21.1,0-42.2,0-63.3,0c0-2.7,0-5.3-0.1-8
			c0-10.7,0-21.4,0-32c0-10.6,0-21.2,0-31.8c0-42.6,0.1-85.2,0.1-127.8C274,244,303.3,244,332.5,244C332.5,244,332.5,244,332.5,244z
			"/>
		<path class="st10" d="M332.5,244c-29.2,0-58.4,0-87.7,0c0-20,0-40-0.2-60c0-3.2,1.3-3.9,4.1-3.8c4,0.2,7.9,0,11.9,0
			c23.9,0,47.9,0.1,71.8,0.2C332.5,201.5,332.5,222.8,332.5,244z"/>
		<path class="st5" d="M244.7,403.6c0,10.7,0,21.4,0,32c-42.6,0-85.1,0-127.7,0c0-9.2,0.1-18.5,0-27.7c-0.1-3.2,0.8-4.5,4.2-4.3
			c4.1,0.2,8.2,0,12.4-0.1C170.5,403.5,207.6,403.6,244.7,403.6z"/>
		<path class="st8" d="M244.7,403.6c-37.1,0-74.1,0-111.2,0c10-10.1,20-20.3,30-30.5c1.5-1.5,3.3-1.3,5.1-1.3c25.4,0,50.8,0,76.2,0
			C244.7,382.4,244.7,393,244.7,403.6z"/>
	</g>
</g>
</svg>
