<svg width="78" height="80" viewBox="0 0 78 80" fill="none" xmlns="http://www.w3.org/2000/svg">
<path d="M0 70.2421C0.553566 69.3724 1.41648 69.4053 2.29567 69.4217C3.90753 69.4545 3.90753 69.4217 3.90753 67.8301C3.90753 59.3964 3.90753 50.9628 3.90753 42.5455C3.90753 40.9868 4.26571 40.6094 5.81244 40.6094C9.45947 40.6094 13.1228 40.6094 16.7698 40.6094C16.9326 40.6094 17.0954 40.6094 17.2582 40.6094C18.0723 40.6586 18.6259 41.2001 18.6096 41.9384C18.5933 42.6604 18.0723 43.1854 17.2908 43.2182C16.721 43.251 16.1511 43.2182 15.5813 43.2182C12.7646 43.2182 9.94791 43.2346 7.13123 43.2018C6.64279 43.2018 6.49626 43.3167 6.49626 43.8417C6.51254 52.1605 6.51254 60.4793 6.49626 68.7982C6.49626 69.3232 6.67536 69.4217 7.14751 69.4217C17.9746 69.4053 28.8017 69.4053 39.6288 69.4217C40.2475 69.4217 40.3126 69.1755 40.3126 68.6669C40.2964 64.9095 40.2964 61.1357 40.2964 57.3783C40.2964 57.1814 40.2964 57.0009 40.2964 56.804C40.3126 55.8359 40.8174 55.278 41.6151 55.2945C42.3966 55.3109 42.8851 55.8523 42.8851 56.7712C42.9014 58.4612 42.8851 60.1512 42.8851 61.8412C42.8851 64.0235 42.9339 66.2057 42.8688 68.388C42.8362 69.2904 43.1293 69.5201 43.9434 69.4217C44.4481 69.356 44.9691 69.3888 45.4901 69.4217C46.239 69.4709 46.7438 69.8811 46.7763 70.6358C46.8252 71.8336 46.874 73.0478 46.7112 74.2292C46.2228 77.6256 43.5689 79.8899 40.1173 79.8899C32.8883 79.9063 25.6594 79.8899 18.4305 79.8899C14.5881 79.8899 10.7457 79.8899 6.90329 79.8899C3.35396 79.9063 0.976881 78.0194 0.113969 74.5409C0.0976881 74.4589 0.0325627 74.4097 0 74.3276C0 72.9822 0 71.6039 0 70.2421ZM23.4452 72.0469C16.8186 72.0469 10.1758 72.0469 3.54934 72.0469C3.35396 72.0469 3.17486 72.0469 2.97949 72.0469C2.76783 72.0469 2.63758 72.0961 2.60502 72.3587C2.39336 74.6066 3.28883 76.4771 5.48682 77.1498C6.23576 77.3795 6.9847 77.281 7.74992 77.2975C9.00359 77.3139 9.00359 77.2975 9.10128 76.0176C9.1664 75.2301 9.67112 74.705 10.3712 74.6886C11.1039 74.6722 11.6412 75.2137 11.69 76.0505C11.69 76.1653 11.7063 76.2638 11.69 76.3786C11.576 77.1006 11.8203 77.3303 12.5855 77.3303C19.6028 77.2975 26.6037 77.3139 33.621 77.3139C34.9723 77.3139 34.9723 77.3139 35.0863 75.9848C35.1514 75.2137 35.6887 74.6886 36.4051 74.705C37.0889 74.7214 37.5936 75.2301 37.6751 75.952C37.7239 76.395 37.4471 77.0021 37.8379 77.2482C38.1798 77.4615 38.7333 77.3139 39.1892 77.3139C39.4009 77.3139 39.6288 77.3139 39.8405 77.3139C42.6083 77.3139 44.155 75.7223 44.1876 72.9658C44.2039 72.2602 44.0573 72.0633 43.3084 72.0633C36.6982 72.0633 30.0717 72.0469 23.4452 72.0469Z" fill="#2E2724"/>
<path d="M0 13.9135C0.455878 13.2407 1.09085 13.0767 1.88864 13.0767C6.74048 13.1095 11.576 13.0931 16.4279 13.0931C17.8118 13.0931 18.2026 13.5033 18.2026 14.8979C18.2026 21.5596 18.2026 28.2048 18.2026 34.8664C18.2026 36.261 17.7955 36.6712 16.4279 36.6712C11.576 36.6712 6.74048 36.6548 1.88864 36.6876C1.09085 36.6876 0.472159 36.5236 0 35.8508C0 28.5493 0 21.2314 0 13.9135ZM2.60502 24.8083C2.60502 27.6469 2.6213 30.4855 2.58874 33.324C2.58874 33.9475 2.75155 34.0952 3.35396 34.0788C7.19636 34.046 11.0388 34.046 14.8812 34.0788C15.4347 34.0788 15.6138 33.9639 15.6138 33.3732C15.5975 27.7289 15.5975 22.0846 15.6138 16.4403C15.6138 15.8496 15.451 15.7183 14.8974 15.7183C11.055 15.7347 7.21264 15.7512 3.37024 15.7183C2.68642 15.7183 2.58874 15.9645 2.60502 16.5551C2.6213 19.2953 2.60502 22.0518 2.60502 24.8083Z" fill="#2E2724"/>
<path d="M33.7999 0C35.135 0.328158 36.4701 0.607092 37.7237 1.247C42.3314 3.57692 44.8875 8.66337 44.0083 13.8647C43.178 18.8363 39.1077 22.7742 34.093 23.4633C27.7758 24.3329 21.8169 19.9192 20.9377 13.7006C20.0259 7.0554 24.2753 1.14855 30.739 0.147671C30.9019 0.131263 31.0484 0.0492237 31.1949 0C32.0578 0 32.9207 0 33.7999 0ZM32.4974 2.62526C27.4502 2.64167 23.3799 6.74365 23.3962 11.8465C23.3962 16.8673 27.5316 20.9857 32.53 20.9529C37.5446 20.9365 41.5987 16.8181 41.5824 11.7645C41.5824 6.72724 37.4958 2.60886 32.4974 2.62526Z" fill="#2E2724"/>
<path d="M29.6806 66.8951C28.1827 66.8623 27.0267 66.2059 26.2615 64.9097C25.4963 63.6135 24.7473 62.3173 24.0472 61.0046C23.7867 60.5288 23.5914 60.3975 23.0866 60.7257C20.8561 62.1368 18.6581 62.186 16.5741 60.4304C16.2322 60.1514 16.0368 60.3811 15.7926 60.5124C15.0111 60.9554 14.2459 61.3984 13.3178 61.4477C11.5106 61.5297 9.94759 60.4796 9.37774 58.7732C8.82418 57.0996 9.36146 55.2127 10.9082 54.343C11.999 53.7195 12.3898 53.096 12.2921 51.7834C12.1619 50.1262 13.041 48.7479 14.3924 47.7471C14.4575 47.6978 14.5226 47.6486 14.5878 47.6158C20.7421 44.5639 25.6102 39.7728 30.8691 35.5068C33.3602 33.4886 35.8024 31.4212 38.2609 29.3702C39.2866 28.517 40.0192 28.6647 40.7031 29.8132C41.0612 30.4203 41.4194 31.0274 41.7613 31.6509C42.1521 32.4057 41.9893 33.1276 41.3543 33.5214C40.6868 33.9316 39.9053 33.7347 39.5145 32.9471C39.1238 32.1431 38.8307 32.2744 38.2446 32.7666C33.2788 36.9342 28.2804 41.0854 23.282 45.2202C22.8424 45.5812 22.7447 45.8109 23.0704 46.336C24.0798 48.0096 25.0404 49.716 26.001 51.4224C26.4243 52.1772 26.2452 52.8991 25.6265 53.2929C24.9753 53.7031 24.2263 53.4734 23.7542 52.7351C23.6565 52.571 23.5588 52.4069 23.4611 52.2428C22.6145 50.7497 21.7353 49.2894 20.9212 47.7799C20.6444 47.2548 20.4002 47.2384 19.9443 47.5173C18.7232 48.2721 17.4696 48.9612 16.2322 49.6996C14.7994 50.5528 14.4087 52.0295 15.239 53.4898C16.0205 54.8845 16.8183 56.2792 17.6324 57.6738C18.479 59.1013 19.9606 59.5772 21.312 58.6747C26.636 55.1306 32.7415 53.4406 38.6028 51.1271C41.452 49.9949 44.3175 48.9284 47.183 47.8947C47.8017 47.665 47.8017 47.4681 47.4924 46.9431C45.734 43.9732 44.057 41.0198 42.3638 38.0664C42.2498 37.8859 42.1358 37.689 42.0544 37.4921C41.7613 36.8358 41.973 36.1139 42.5917 35.8021C43.2267 35.4739 43.8291 35.5724 44.2524 36.1631C44.6269 36.6881 44.9199 37.2788 45.2455 37.8531C46.9877 40.905 48.7298 43.9404 50.4719 46.9923C51.3511 48.5346 51.1394 49.1089 49.4624 49.7324C43.4383 52.0131 37.4142 54.2938 31.3901 56.5417C30.8203 56.755 30.6249 56.9191 31.0157 57.5262C31.7483 58.7075 32.4484 59.9053 33.0671 61.1359C34.4185 63.7776 32.5624 66.8623 29.6806 66.8951ZM30.9017 62.8587C30.918 62.629 30.7552 62.3501 30.5923 62.0712C30.1039 61.2179 29.6155 60.3811 29.127 59.5279C28.085 57.7231 28.085 57.7231 26.3592 58.8552C26.2941 58.9044 26.2127 58.9372 26.1475 58.9865C25.9847 59.1013 25.9684 59.2326 26.0661 59.3967C26.929 60.8734 27.7594 62.3665 28.6549 63.8268C28.9642 64.3354 29.5503 64.4175 30.1039 64.2042C30.6412 63.9745 30.9017 63.5479 30.9017 62.8587ZM12.9922 58.8224C13.5132 58.8224 14.6855 58.1989 14.6855 57.9035C14.6855 57.6738 13.5132 55.8526 13.3504 55.8526C12.7154 55.869 11.706 56.9191 11.706 57.5426C11.706 58.2645 12.2595 58.8224 12.9922 58.8224Z" fill="#2E2724"/>
<path d="M66.2809 1.31367C68.8045 1.31367 71.3118 1.31367 73.8354 1.31367C76.3428 1.31367 77.9872 2.95446 77.9872 5.44846C78.0035 10.5513 78.0035 15.6542 77.9872 20.757C77.9872 23.2182 76.3428 24.8918 73.9168 24.8918C68.8208 24.9082 63.741 24.9082 58.6449 24.8918C56.2679 24.8918 54.6072 23.2182 54.5909 20.8391C54.5746 18.3615 54.5909 15.8675 54.5909 13.3899C54.5909 12.4054 55.0793 11.8311 55.8608 11.8147C56.6749 11.7983 57.1959 12.4054 57.1959 13.4063C57.1959 15.8019 57.1959 18.2138 57.1959 20.6094C57.1959 21.84 57.6355 22.283 58.8729 22.283C63.8224 22.283 68.7882 22.283 73.7377 22.283C74.9588 22.283 75.3984 21.84 75.3984 20.6094C75.3984 15.6214 75.3984 10.617 75.3984 5.62895C75.3984 4.39836 74.9588 3.95535 73.7377 3.95535C68.7882 3.95535 63.8224 3.95535 58.8729 3.95535C57.6518 3.95535 57.2122 4.39836 57.1959 5.62895C57.1959 6.36731 57.2122 7.10566 57.1796 7.84402C57.147 8.66441 56.5772 9.22228 55.8445 9.18947C55.1444 9.17306 54.6072 8.6316 54.5909 7.84402C54.5583 6.89236 54.542 5.92429 54.6072 4.97264C54.7211 2.93805 56.4144 1.34649 58.4984 1.33008C61.0871 1.29726 63.6921 1.31367 66.2809 1.31367Z" fill="#2E2724"/>
<path d="M66.2976 65.501C63.8066 65.501 61.3155 65.501 58.8245 65.501C56.2194 65.501 54.6076 63.8766 54.5913 61.2842C54.5913 56.2305 54.5913 51.1933 54.5913 46.1397C54.5913 43.5801 56.2194 41.9229 58.7431 41.9229C63.774 41.9229 68.8212 41.9229 73.8522 41.9229C76.3432 41.9229 77.9876 43.5636 77.9876 46.0576C78.0039 48.486 77.9876 50.9144 77.9876 53.3427C77.9876 54.3929 77.5317 54.9835 76.7177 55.0164C75.8873 55.0328 75.3826 54.4257 75.3826 53.3427C75.3826 50.9636 75.3826 48.6009 75.3826 46.2217C75.3826 44.9911 74.943 44.5481 73.7056 44.5481C68.7561 44.5481 63.7903 44.5481 58.8407 44.5481C57.6196 44.5481 57.18 44.9911 57.18 46.2217C57.18 51.2097 57.18 56.2141 57.18 61.2021C57.18 62.4327 57.6196 62.8757 58.8407 62.8757C63.7903 62.8757 68.7561 62.8757 73.7056 62.8757C74.9267 62.8757 75.3663 62.4327 75.3826 61.2021C75.3826 60.4638 75.3663 59.7254 75.3989 58.9871C75.4315 58.1667 75.985 57.6088 76.7177 57.6416C77.4178 57.658 77.9551 58.1995 77.9713 58.9871C78.0039 59.9387 78.0202 60.9068 77.9551 61.8584C77.8411 63.893 76.1641 65.4846 74.0801 65.501C71.4914 65.5174 68.8863 65.501 66.2976 65.501Z" fill="#2E2724"/>
<path d="M61.0877 53.6711C61.104 50.7833 63.4647 48.4534 66.3465 48.4698C69.2121 48.4862 71.524 50.8818 71.4752 53.786C71.4426 56.641 69.0981 58.9545 66.2489 58.9381C63.3996 58.9381 61.0714 56.5589 61.0877 53.6711ZM66.2814 51.0951C64.8649 51.1115 63.709 52.2764 63.6927 53.7039C63.6927 55.1642 64.8975 56.362 66.3465 56.3292C67.763 56.2964 68.9027 55.115 68.8864 53.6875C68.8702 52.26 67.6816 51.0787 66.2814 51.0951Z" fill="#2E2724"/>
<path d="M63.6926 16.5562C63.6926 16.3593 63.6926 16.1788 63.6926 15.9819C63.6763 15.4897 63.8229 14.899 63.5949 14.5544C63.367 14.1935 62.7483 14.4724 62.2924 14.4068C61.576 14.3083 61.0876 13.7669 61.0876 13.0941C61.0876 12.405 61.5923 11.8964 62.3087 11.7979C62.7483 11.7323 63.367 12.0112 63.6112 11.6338C63.8229 11.3057 63.6763 10.7314 63.6926 10.272C63.7903 8.28661 65.3859 6.66223 67.3396 6.56378C68.2514 6.51456 69.1794 6.53097 70.1075 6.56378C70.9378 6.58019 71.4751 7.12165 71.4751 7.87641C71.4751 8.61477 70.9215 9.15623 70.0912 9.17264C69.2771 9.18905 68.4631 9.15623 67.649 9.18905C66.5581 9.22186 65.7766 10.6658 66.2976 11.6502C66.3953 11.8307 66.5581 11.7979 66.7209 11.8143C67.0466 11.8307 67.3722 11.7979 67.6978 11.8307C68.3979 11.9128 68.9189 12.487 68.8701 13.1598C68.8212 13.8817 68.4142 14.3083 67.7141 14.4232C67.2745 14.5052 66.6558 14.2263 66.3953 14.5544C66.0697 14.9646 66.3139 15.6045 66.2976 16.146C66.2813 16.8351 66.2976 17.5079 66.2976 18.197C66.2813 19.0994 65.7766 19.6737 65.0114 19.6901C64.2462 19.7065 63.7252 19.1322 63.6926 18.2462C63.6926 18.2134 63.6926 18.197 63.6926 18.1642C63.6926 17.5899 63.6926 17.0812 63.6926 16.5562Z" fill="#2E2724"/>
<path d="M53.5813 39.2982C52.5231 39.3146 51.9369 38.8388 51.8555 38.1004C51.7904 37.4113 52.2626 36.8534 53.0441 36.6893C55.1118 36.2627 57.1795 35.8361 59.2472 35.4259C60.2404 35.229 60.9242 35.6064 61.087 36.4104C61.2499 37.2308 60.794 37.8215 59.7845 38.0348C57.6354 38.4778 55.4863 38.9044 53.5813 39.2982Z" fill="#2E2724"/>
<path d="M50.6833 22.1184C50.6833 22.6435 50.5043 22.9552 50.2926 23.2342C49.0715 24.8586 47.8667 26.4993 46.6456 28.1237C46.0757 28.8949 45.3105 29.0262 44.6918 28.5339C44.0894 28.0417 44.0243 27.3197 44.5616 26.5814C45.7989 24.9078 47.0526 23.2342 48.29 21.5606C48.6645 21.0683 49.1692 20.8386 49.7879 21.0519C50.374 21.2324 50.6345 21.6754 50.6833 22.1184Z" fill="#2E2724"/>
<path d="M55.8939 28.7966C55.8776 29.2889 55.666 29.6498 55.2915 29.9288C53.6145 31.2086 51.9375 32.4884 50.2443 33.7354C49.5605 34.2441 48.8278 34.1292 48.3719 33.5385C47.8998 32.915 48.0137 32.1602 48.7301 31.6188C50.3908 30.3554 52.0515 29.1084 53.7122 27.845C54.1844 27.484 54.6891 27.3691 55.2264 27.6809C55.6497 27.9434 55.8614 28.3208 55.8939 28.7966Z" fill="#2E2724"/>
<path d="M9.06863 26.2027C8.25456 26.2027 7.44049 26.2191 6.62642 26.2027C5.74723 26.1863 5.17738 25.6284 5.20994 24.8573C5.22623 24.1189 5.77979 23.5938 6.61014 23.5938C8.25456 23.5774 9.91526 23.5774 11.5597 23.5938C12.4389 23.6103 13.0087 24.1681 12.9762 24.9229C12.9599 25.6612 12.4063 26.1699 11.5597 26.2027C10.7456 26.2191 9.89897 26.2027 9.06863 26.2027Z" fill="#2E2724"/>
<path d="M9.08539 31.4386C8.23876 31.4386 7.40842 31.455 6.56179 31.4386C5.73144 31.4222 5.19415 30.8807 5.19415 30.1259C5.19415 29.3876 5.74772 28.8461 6.57807 28.8297C8.25505 28.8133 9.93203 28.8133 11.609 28.8297C12.4394 28.8461 12.9766 29.3876 12.9766 30.1423C12.9766 30.8807 12.4231 31.4222 11.5927 31.4386C10.7787 31.455 9.93202 31.4386 9.08539 31.4386Z" fill="#2E2724"/>
<path d="M10.3382 20.9525C9.89864 20.9525 9.47532 20.9853 9.03573 20.9525C8.30307 20.9033 7.81463 20.3618 7.79834 19.6891C7.78206 18.9672 8.30307 18.3929 9.06829 18.3601C9.96377 18.3272 10.8592 18.3272 11.7547 18.3601C12.4711 18.3929 12.9758 18.9507 12.9921 19.6235C13.0084 20.329 12.4874 20.9033 11.7222 20.9525C11.2663 20.9853 10.8104 20.9525 10.3382 20.9525Z" fill="#2E2724"/>
<path d="M29.8921 6.56348C30.2015 6.56348 30.462 6.69474 30.7388 6.826C33.1484 8.04019 35.5743 9.27078 37.984 10.4686C38.5213 10.7475 38.9609 11.0921 38.9771 11.7484C38.9934 12.4375 38.5701 12.8149 37.984 13.1102C35.5581 14.3244 33.1484 15.555 30.7225 16.7528C29.4525 17.3763 28.5896 16.8184 28.5896 15.3909C28.5734 12.9626 28.5896 10.5342 28.5896 8.10582C28.6059 7.15416 29.1106 6.56348 29.8921 6.56348ZM34.7766 11.7976C33.5066 11.1577 32.3995 10.5998 31.2598 10.0255C31.2598 11.2561 31.2598 12.3719 31.2598 13.5697C32.432 12.979 33.5066 12.4375 34.7766 11.7976Z" fill="#2E2724"/>
</svg>
