<svg width="75" height="76" viewBox="0 0 75 76" fill="none" xmlns="http://www.w3.org/2000/svg">
<g clip-path="url(#clip0_1799_3989)">
<path d="M50.8268 0C51.0763 0 51.3111 0 51.5607 0C52.7201 0.748533 52.7935 1.46771 51.7955 2.46576C49.5205 4.74071 47.2309 7.01566 44.956 9.30529C44.7798 9.48142 44.5303 9.62819 44.4276 9.99512C44.7505 9.99512 45.0294 9.99512 45.3082 9.99512C52.9256 9.99512 60.543 9.99512 68.1605 9.99512C72.3728 9.99512 74.9853 12.5783 74.9853 16.7759C74.9853 31.4531 74.9853 46.1155 74.9853 60.7926C74.9853 64.8875 72.3581 67.5147 68.2485 67.5147C63.8748 67.5147 59.5157 67.5147 55.1419 67.5147C54.8924 67.5147 54.6429 67.5441 54.364 67.5588C56.2573 71.551 53.2926 75.2936 49.3885 75.0294C47.6419 74.912 45.8806 75.0148 44.1194 75.0148C37.7789 75.0148 31.4237 75.0294 25.0832 75.0148C22.1918 75.0148 19.9902 72.7985 20.0049 69.9805C20.0049 69.1439 20.2838 68.366 20.6213 67.5294C20.2838 67.5294 20.0196 67.5294 19.7554 67.5294C15.5577 67.5294 11.3601 67.5294 7.16243 67.5294C3.18493 67.5294 1.20352 66.0617 0.0587084 62.2603C0.0440313 62.2163 0.0293542 62.1723 0 62.1282C0 46.5265 0 30.954 0 15.3816C0.0146771 15.3376 0.0440313 15.2936 0.0587084 15.2495C1.14481 11.5069 3.18493 9.98044 7.08904 9.98044C14.6184 9.98044 22.1624 9.98044 29.6918 9.98044C29.9706 9.98044 30.2495 9.98044 30.6751 9.98044C30.3669 9.65754 30.2055 9.46674 30.0147 9.29062C27.7397 7.01566 25.4648 4.74071 23.1898 2.46576C22.1918 1.46771 22.2652 0.748533 23.4247 0C23.6742 0 23.909 0 24.1585 0C24.5254 0.337574 24.9217 0.675147 25.274 1.0274C28.1213 3.86008 30.9687 6.70744 33.8014 9.5548C34.0949 9.84835 34.3885 9.99512 34.8141 9.99512C36.59 9.96576 38.3659 9.96576 40.1566 9.99512C40.5822 9.99512 40.8757 9.86302 41.1693 9.5548C44.002 6.70744 46.8493 3.86008 49.6967 1.01272C50.0783 0.675148 50.4599 0.337574 50.8268 0ZM37.456 65.0196C47.7006 65.0196 57.9599 65.0196 68.2045 65.0196C70.9931 65.0196 72.4902 63.5226 72.4902 60.7192C72.4902 46.0715 72.4902 31.4237 72.4902 16.7906C72.4902 13.9873 71.0078 12.4902 68.2045 12.4902C47.7299 12.4902 27.2407 12.4902 6.76614 12.4902C3.97749 12.4902 2.49511 13.9726 2.49511 16.7759C2.49511 31.3944 2.49511 46.0128 2.49511 60.6312C2.49511 63.5519 3.96282 65.0196 6.85421 65.0196C17.0548 65.0196 27.2554 65.0196 37.456 65.0196ZM37.456 72.505C41.6096 72.505 45.7485 72.5196 49.9021 72.505C51.4139 72.505 52.4853 71.4189 52.4706 69.9952C52.456 68.6155 51.4286 67.5294 50.0049 67.5294C41.6536 67.5147 33.3023 67.5147 24.9658 67.5294C23.4393 67.5294 22.3826 68.7623 22.5147 70.2887C22.6321 71.595 23.7035 72.5196 25.1419 72.5196C29.2661 72.505 33.3611 72.505 37.456 72.505Z" fill="#8F452C"/>
<path d="M37.5 14.9854C47.2896 14.9854 57.0793 14.9854 66.8689 14.9854C69.1145 14.9854 70.0098 15.8807 70.0098 18.1409C70.0098 31.8787 70.0098 45.6312 70.0098 59.369C70.0098 61.6146 69.1145 62.5099 66.8542 62.5099C47.275 62.5099 27.6957 62.5099 8.13113 62.5099C5.88554 62.5099 4.99023 61.6146 4.99023 59.3543C4.99023 45.5871 4.99023 31.82 4.99023 18.0529C4.99023 15.8953 5.90021 14.9854 8.07243 14.9854C17.8767 14.9854 27.6957 14.9854 37.5 14.9854ZM37.4707 42.4903C47.2309 42.4903 57.0059 42.4903 66.7661 42.5049C67.3679 42.5049 67.5294 42.3435 67.5294 41.7417C67.5147 33.9335 67.5147 26.1106 67.5294 18.3024C67.5294 17.6713 67.3826 17.4805 66.7221 17.4805C47.2456 17.4951 27.7544 17.4951 8.2779 17.4805C7.61744 17.4805 7.47066 17.6566 7.47066 18.3024C7.50002 26.0959 7.50002 33.8748 7.47066 41.6684C7.47066 42.3288 7.63211 42.5196 8.30726 42.5049C18.0235 42.4903 27.7397 42.4903 37.4707 42.4903ZM37.5294 44.9854C27.7691 44.9854 18.0088 44.9854 8.24855 44.9707C7.63211 44.9707 7.47066 45.1322 7.48534 45.7486C7.5147 50.2691 7.5147 54.775 7.48534 59.2956C7.48534 59.8827 7.66147 60.0294 8.23387 60.0294C27.7544 60.0148 47.2896 60.0148 66.8102 60.0294C67.3973 60.0294 67.544 59.8533 67.544 59.2956C67.5147 54.8044 67.5147 50.3132 67.544 45.822C67.544 45.1322 67.3386 44.9854 66.6928 44.9854C56.9618 45.0001 47.2456 44.9854 37.5294 44.9854Z" fill="#8F452C"/>
<path d="M31.2331 29.9857C31.2331 27.5933 31.2184 25.201 31.2331 22.8086C31.2478 21.0033 32.5393 19.7998 34.1392 20.0493C34.5648 20.108 34.917 20.3135 35.2693 20.5483C38.8652 22.8967 42.4611 25.2303 46.0423 27.5933C47.9943 28.8849 47.9797 31.1599 46.0129 32.4515C42.4464 34.7998 38.8652 37.1188 35.2986 39.4524C34.4327 40.0248 33.5667 40.2303 32.6274 39.7166C31.6587 39.1883 31.2331 38.3076 31.2331 37.2362C31.2331 34.8145 31.2331 32.3927 31.2331 29.9857ZM33.8016 22.6912C33.8016 27.608 33.8016 32.4955 33.8016 37.4564C34.0071 37.3536 34.1245 37.2949 34.2419 37.2215C37.691 34.9612 41.1255 32.6716 44.5746 30.426C45.1323 30.0591 44.9855 29.8683 44.5305 29.5601C41.1108 27.3438 37.7057 25.1129 34.3006 22.882C34.1685 22.7939 34.0364 22.6471 33.8016 22.6912Z" fill="#8F452C"/>
<path d="M20.034 20.0046C20.8119 20.0046 21.5898 19.9899 22.3824 20.0046C23.2337 20.0339 23.7327 20.5036 23.7327 21.2228C23.7474 21.942 23.2337 22.4703 22.4117 22.485C20.7973 22.5144 19.1828 22.5144 17.583 22.485C16.761 22.4703 16.2473 21.942 16.262 21.2228C16.2767 20.5036 16.7904 20.0339 17.627 20.0046C18.4196 19.9899 19.2268 20.0046 20.034 20.0046Z" fill="#8F452C"/>
<path d="M56.83 39.9954C56.6832 39.9954 56.5365 39.9954 56.3897 39.9954C55.5384 39.966 54.9954 39.467 55.0101 38.7185C55.0247 37.9993 55.5531 37.5296 56.375 37.5003C56.742 37.4856 57.1089 37.4856 57.4758 37.5003C58.2243 37.5443 58.738 38.0433 58.7527 38.7331C58.7527 39.423 58.2537 39.9367 57.5052 39.9807C57.2703 40.0101 57.0502 39.9954 56.83 39.9954Z" fill="#8F452C"/>
<path d="M11.9176 22.5297C11.6094 22.5004 11.2865 22.5004 10.9783 22.4417C10.3472 22.3096 10.039 21.8546 10.0096 21.2382C9.98025 20.6364 10.4499 20.1227 11.0664 20.0493C11.5213 19.9906 11.991 20.0053 12.446 20.02C13.2239 20.064 13.7229 20.5483 13.7376 21.2235C13.7523 21.8986 13.2532 22.4123 12.49 22.5004C12.2992 22.5151 12.0938 22.5004 11.9029 22.5004C11.9176 22.5151 11.9176 22.5297 11.9176 22.5297Z" fill="#8F452C"/>
<path d="M63.1264 39.9948C61.8789 39.9948 61.2625 39.5985 61.2625 38.7619C61.2478 37.9253 61.8789 37.4997 63.1118 37.4997C63.3319 37.4997 63.5521 37.485 63.7722 37.4997C64.5061 37.5584 65.0345 38.1014 65.0198 38.7619C65.0051 39.4077 64.4914 39.9214 63.8016 39.9801C63.5521 40.0095 63.3319 39.9948 63.1264 39.9948Z" fill="#8F452C"/>
<path d="M16.8491 57.5054C15.8804 57.5054 14.897 57.5201 13.9283 57.5054C12.2404 57.4761 11.2718 56.478 11.2718 54.7901C11.2571 53.2344 11.2571 51.6639 11.2718 50.1081C11.2864 48.567 12.2991 47.525 13.8256 47.5103C15.851 47.4809 17.8764 47.4809 19.9019 47.5103C21.443 47.525 22.4704 48.5377 22.4997 50.0935C22.5438 51.708 22.5291 53.3078 22.4997 54.9222C22.4704 56.5221 21.4577 57.4907 19.8432 57.5201C18.8451 57.5201 17.8471 57.5054 16.8491 57.5054ZM16.8637 54.9956C17.715 54.9956 18.5663 54.981 19.4175 55.0103C19.8579 55.025 20.0193 54.8782 20.0046 54.4232C19.9753 53.1316 19.99 51.84 20.0046 50.5485C20.0046 50.1522 19.9019 49.9761 19.4763 49.9761C17.7444 49.9907 16.0125 49.9907 14.2952 49.9761C13.8843 49.9761 13.7522 50.1081 13.7522 50.5191C13.7669 51.84 13.7815 53.1463 13.7522 54.4673C13.7375 54.8929 13.9136 55.0103 14.3099 54.9956C15.1612 54.981 16.0125 54.9956 16.8637 54.9956Z" fill="#8F452C"/>
<path d="M58.1069 57.5051C57.1382 57.5051 56.1549 57.5198 55.1862 57.5051C53.4983 57.4758 52.5149 56.4778 52.5003 54.7899C52.4856 53.2488 52.4856 51.7224 52.5003 50.1813C52.5296 48.5081 53.5423 47.5101 55.2155 47.4954C57.1382 47.4807 59.0756 47.4807 60.9983 47.4954C62.7302 47.5101 63.7283 48.5081 63.743 50.2106C63.7576 51.7517 63.7576 53.2782 63.743 54.8192C63.7283 56.4631 62.7596 57.4611 61.1157 57.4905C60.103 57.5198 59.105 57.5051 58.1069 57.5051ZM58.151 49.9905C57.2997 49.9905 56.4484 50.0052 55.5971 49.9905C55.1715 49.9758 54.9807 50.0785 54.9807 50.5482C55.0101 51.8398 55.0101 53.1314 54.9807 54.423C54.966 54.878 55.1275 55.01 55.5678 55.01C57.2703 54.9954 58.9729 54.9954 60.6754 55.01C61.0717 55.01 61.2332 54.922 61.2332 54.4817C61.2038 53.1607 61.2185 51.8545 61.2332 50.5335C61.2332 50.1226 61.1157 49.9758 60.6901 49.9905C59.8682 50.0052 59.0022 49.9905 58.151 49.9905Z" fill="#8F452C"/>
<path d="M30.602 57.5051C29.648 57.5051 28.694 57.5198 27.7546 57.5051C26.008 57.4758 25.0394 56.5071 25.0247 54.7752C25.01 53.2635 25.01 51.7517 25.0247 50.24C25.0394 48.5081 26.0227 47.5101 27.7399 47.4954C29.6626 47.4807 31.6 47.4807 33.5227 47.4954C35.24 47.5101 36.238 48.4934 36.2527 50.2253C36.2674 51.7664 36.2674 53.2928 36.2527 54.8339C36.2233 56.4924 35.2546 57.4611 33.6108 57.5051C32.5981 57.5198 31.6 57.5051 30.602 57.5051ZM30.6313 54.9954C31.4826 54.9954 32.3339 54.9807 33.1998 54.9954C33.5961 55.01 33.7722 54.8926 33.7576 54.467C33.7429 53.1461 33.7429 51.8251 33.7576 50.5189C33.7576 50.0932 33.5961 49.9758 33.1998 49.9905C31.4973 50.0052 29.7801 50.0052 28.0775 49.9905C27.6666 49.9905 27.5198 50.1079 27.5198 50.5335C27.5345 51.8545 27.5491 53.1754 27.5198 54.4817C27.5051 54.9073 27.6812 55.0247 28.0775 55.01C28.9141 54.9807 29.7654 54.9954 30.6313 54.9954Z" fill="#8F452C"/>
<path d="M44.3543 47.4955C45.3523 47.4955 46.3503 47.4808 47.3484 47.4955C48.9482 47.5248 49.9462 48.5229 49.9756 50.108C49.9903 51.7225 49.9903 53.3223 49.9756 54.9368C49.9609 56.4192 49.0069 57.4466 47.5245 57.4906C45.4257 57.5493 43.3269 57.5346 41.228 57.4906C39.731 57.4613 38.777 56.4632 38.7476 54.9661C38.7182 53.3076 38.7182 51.6491 38.7476 49.9906C38.777 48.5229 39.7897 47.5395 41.2721 47.4955C42.3141 47.4661 43.3415 47.4955 44.3543 47.4955ZM44.3836 49.9906C43.5323 49.9906 42.6811 50.0053 41.8151 49.9906C41.4188 49.9759 41.2427 50.0786 41.2427 50.519C41.2574 51.8399 41.2574 53.1609 41.2427 54.4671C41.2427 54.8928 41.3895 55.0102 41.8004 55.0102C43.503 54.9955 45.2202 54.9955 46.9227 55.0102C47.3044 55.0102 47.4952 54.9368 47.4952 54.4818C47.4658 53.1609 47.4805 51.8399 47.4952 50.5336C47.4952 50.1227 47.3631 49.9759 46.9521 49.9906C46.1008 50.0053 45.2349 49.9906 44.3836 49.9906Z" fill="#8F452C"/>
</g>
<defs>
<clipPath id="clip0_1799_3989">
<rect width="75" height="75.0294" fill="white"/>
</clipPath>
</defs>
</svg>
