<svg width="207" height="207" viewBox="0 0 207 207" fill="none" xmlns="http://www.w3.org/2000/svg">
<path d="M181.5 206.8H25.3C11.3 206.8 0 195.5 0 181.5V25.3C0 11.3 11.3 0 25.3 0H181.5C195.5 0 206.8 11.3 206.8 25.3V181.5C206.8 195.5 195.5 206.8 181.5 206.8Z" fill="#129D59"/>
<g opacity="0.49">
<path opacity="0.29" d="M79.3915 159.1C81.0278 161.2 82.8567 163.1 84.878 164.8C85.1668 165 85.4555 165.2 85.8405 165.5C88.6319 163.5 90.8457 161.1 92.8671 158.2C90.942 155.3 88.6319 152.9 85.8405 150.9C85.4555 151.2 85.0705 151.4 84.7817 151.6C82.7604 153.2 81.0278 155.1 79.3915 157.2C79.2952 157.3 79.199 157.5 79.1027 157.7C78.7177 158.1 78.814 158.5 79.1027 158.9C79.199 158.9 79.2952 159 79.3915 159.1ZM85.7442 154.2C87.1881 155.3 88.4394 156.7 89.5944 158.1C88.5356 159.6 87.2843 160.8 85.7442 162.1C84.4929 160.8 83.2417 159.5 81.9904 158.2C83.1454 156.7 84.3967 155.5 85.7442 154.2Z" fill="white"/>
<path opacity="0.29" d="M146.769 87.5C146.962 87.8 147.058 88.1 147.251 88.3C148.887 90.6 150.812 92.6 153.026 94.3C153.796 94.9 153.796 94.9 154.566 94.3C155.528 93.6 156.395 92.8 157.165 91.9C157.55 89.4 157.742 86.8 157.742 84.2C157.742 84 157.742 83.8 157.742 83.6C156.491 82.3 155.24 81.2 153.796 80.1C151.005 82.3 148.598 84.6 146.769 87.5ZM157.646 87.5C156.395 89 155.24 90.3 153.796 91.5C152.448 90.3 151.197 89.1 150.042 87.6C151.101 86.1 152.448 84.8 153.892 83.6C155.047 84.9 156.299 86.1 157.646 87.5Z" fill="white"/>
<path opacity="0.29" d="M102.781 157.5C103.359 156.9 103.84 156.4 104.321 155.8C107.787 151.8 107.786 146.4 104.418 142.4C104.129 142 103.744 141.6 103.455 141.2C104.129 141.6 104.61 142.1 105.188 142.5C108.46 145.3 113.369 145.5 116.738 142.8C117.604 142.1 118.374 141.3 119.337 140.5C118.567 139.8 117.893 139.1 117.219 138.5C115.583 137 113.562 136.3 111.348 136.2C108.942 136.2 106.824 137 104.899 138.6C104.61 138.8 104.418 139.2 104.033 139.2C104.225 138.9 104.418 138.6 104.706 138.3C106.246 136.4 107.016 134.2 107.016 131.7C107.016 128.2 105.284 125.7 102.974 123.5C102.107 124.2 100.664 126 100.086 127C98.1611 130.4 98.5461 134.9 100.952 138C101.434 138.6 101.915 139.1 102.396 139.7C101.915 139.4 101.53 139.1 101.145 138.8C99.6049 137.3 97.7761 136.4 95.6585 136.2C91.9046 135.8 89.1132 137.6 86.7068 140.5C87.2843 141.1 87.8619 141.6 88.3431 142.1C91.9045 145.6 97.5835 145.5 101.049 142.2C101.241 142 101.434 141.8 101.722 141.7C101.626 142 101.53 142.3 101.337 142.4C99.5086 144.5 98.7386 147 98.9311 149.7C98.8348 153.1 100.567 155.4 102.781 157.5ZM116.546 140.5C113.562 144 107.979 143.5 105.669 140.5C107.979 137.5 113.562 137.1 116.546 140.5ZM89.0169 140.5C91.712 137.2 97.2948 137.3 99.7974 140.5C97.5836 143.5 92.0008 144 89.0169 140.5ZM102.685 126.2C105.765 128.7 105.861 134.7 102.685 137.4C99.8937 135.1 99.4124 129.4 102.685 126.2ZM102.781 143.5C105.765 146 106.054 151.8 102.781 154.7C99.5086 151.7 99.8936 146 102.781 143.5Z" fill="white"/>
<path opacity="0.29" d="M75.5414 162C76.6002 163.2 77.1777 164.6 77.3702 166.1C77.3702 166.3 77.4664 166.5 77.4664 166.7C79.584 166.8 81.2204 167.8 82.6642 169.3C83.2417 169.9 83.8192 170.4 84.493 171C84.878 171.3 85.263 171.6 85.7443 171.9C86.3218 171.4 86.8993 171 87.3806 170.5C88.1506 169.9 88.8244 169.2 89.4982 168.5C90.557 167.5 91.8083 166.9 93.1558 166.7C93.3484 166.7 93.6371 166.6 93.9259 166.6C94.0221 166.4 94.0222 166.2 94.0222 166C94.2147 164.2 94.9847 162.8 96.1398 161.5C96.8135 160.8 97.391 160.1 97.9685 159.4C98.3536 159 98.6423 158.5 98.9311 158C98.4498 157.4 98.0648 156.8 97.6798 156.3C97.1023 155.6 96.5247 154.9 95.8509 154.2C94.7922 153 94.1184 151.7 93.9259 150.1C93.9259 149.9 93.8297 149.6 93.7334 149.4C93.5409 149.4 93.4446 149.3 93.3484 149.3C91.6158 149.1 90.172 148.3 88.8244 147C88.1506 146.4 87.4769 145.7 86.8031 145.1C86.4181 144.7 85.9368 144.4 85.4555 144.1C84.9742 144.5 84.493 144.8 84.0117 145.2C83.2417 145.9 82.4717 146.6 81.7979 147.3C80.6428 148.3 79.3915 149 77.9477 149.2C77.7552 149.2 77.4664 149.3 77.2739 149.4C77.1777 151.6 76.1189 153.4 74.675 154.9C74.1938 155.5 73.6162 156 73.2312 156.6C72.1724 158.1 72.0762 157.8 73.2312 159.3C74.0975 160.4 74.8676 161.2 75.5414 162ZM75.5414 157.6C76.1189 157 76.6002 156.4 77.1777 155.7C78.044 154.6 78.814 153.5 79.199 152.1C79.2953 151.6 79.4877 151.4 79.969 151.2C81.3166 150.8 82.4716 150 83.5304 149C84.2042 148.3 84.9742 147.7 85.7443 146.9C86.5143 147.6 87.1881 148.2 87.7656 148.8C88.8244 149.9 90.0757 150.7 91.6158 151.1C91.9046 151.2 92.1933 151.3 92.2896 151.7C92.7709 153.3 93.6371 154.7 94.6959 156C95.2735 156.6 95.7547 157.2 96.3322 157.9C96.1397 158.1 96.0435 158.3 95.8509 158.5C95.1772 159.3 94.5034 160 93.9259 160.8C93.1558 161.8 92.5784 162.9 92.2896 164.1C92.1933 164.4 92.097 164.7 91.712 164.8C89.8832 165.3 88.4394 166.5 87.0918 167.8C86.7068 168.2 86.2255 168.6 85.7443 169.1C85.3592 168.7 84.878 168.3 84.493 168C83.9155 167.4 83.338 166.9 82.6642 166.4C81.7979 165.7 80.9316 165.2 79.8728 164.9C79.584 164.8 79.2953 164.7 79.199 164.3C78.7177 162.5 77.6589 161 76.5039 159.7C76.0226 159.2 75.6376 158.7 75.1563 158.1C75.3488 158 75.4451 157.8 75.5414 157.6Z" fill="white"/>
<path opacity="0.29" d="M154.085 105.4C155.24 106.5 156.395 107.7 157.742 108.5V106.4C157.357 106.1 156.972 105.8 156.684 105.3C156.972 104.9 157.357 104.5 157.742 104.3V103.4H156.01C155.336 103.9 154.662 104.6 154.085 105.4Z" fill="white"/>
<path opacity="0.29" d="M120.3 158.1C120.203 157.9 120.011 157.7 119.722 157.4C119.53 157.7 119.241 157.9 119.241 158.1C119.241 158.3 119.53 158.5 119.722 158.6C120.011 158.8 120.396 158.4 120.3 158.1Z" fill="white"/>
<path opacity="0.29" d="M153.7 73.7C153.218 74.1 152.737 74.4 152.256 74.8C151.486 75.5 150.716 76.2 149.946 76.9C148.791 77.9 147.539 78.6 146.096 78.8C145.903 78.8 145.614 78.9 145.422 79C145.326 81.2 144.267 83 142.823 84.5C142.342 85 141.86 85.6 141.379 86.2C140.224 87.8 140.224 87.5 141.379 89C142.053 89.8 142.727 90.6 143.497 91.4C144.556 92.6 145.133 94 145.326 95.5C145.326 95.7 145.422 95.9 145.422 96.1C147.539 96.2 149.176 97.2 150.62 98.7C151.197 99.3 151.775 99.8 152.448 100.4C152.833 100.7 153.218 101 153.7 101.3C154.181 100.9 154.662 100.5 155.143 100.1C155.529 98.8 155.914 97.4 156.299 96.1C156.106 96.2 155.914 96.4 155.817 96.6C155.144 97.2 154.47 97.9 153.7 98.6C153.122 98.1 152.641 97.6 152.16 97.1C150.908 95.8 149.464 94.8 147.732 94.2C147.539 94.1 147.347 93.9 147.251 93.7C146.673 91.6 145.422 90 143.978 88.5C143.689 88.2 143.4 87.9 143.112 87.5C143.304 87.3 143.4 87.1 143.497 86.9C143.978 86.3 144.556 85.7 145.037 85.1C145.999 84 146.673 82.8 147.058 81.4C147.154 80.9 147.443 80.7 147.828 80.6C149.176 80.2 150.331 79.4 151.39 78.4C152.063 77.7 152.833 77.1 153.507 76.4C153.7 76.6 153.988 76.8 154.181 76.9C154.758 77.4 155.24 77.9 155.817 78.5C156.299 78.9 156.78 79.3 157.357 79.7C157.261 78.6 157.165 77.6 156.972 76.6L156.876 76.5C156.202 75.9 155.529 75.2 154.855 74.6C154.662 74.3 154.181 74 153.7 73.7Z" fill="white"/>
<path opacity="0.29" d="M153.7 88.1C153.892 88.2 154.373 87.8 154.277 87.6C154.181 87.4 153.988 87.2 153.796 86.9C153.603 87.2 153.315 87.4 153.315 87.6C153.315 87.8 153.507 88 153.7 88.1Z" fill="white"/>
<path opacity="0.29" d="M68.8998 122.1C69.3811 121.6 69.8623 121 70.3436 120.5C73.8088 116.5 73.8088 111.1 70.4399 107.1C70.1511 106.7 69.7661 106.3 69.4774 105.9C69.9586 106.2 70.3436 106.5 70.7287 106.9C71.5949 107.8 72.6538 108.5 73.8088 108.9C78.3327 110.4 82.0867 108.9 85.0705 105.2C83.2417 103.2 81.3166 101.5 78.5252 101.1C75.1563 100.6 72.365 101.7 69.9586 104.1C69.8624 104 69.8623 104 69.8623 103.9C70.0549 103.6 70.2474 103.4 70.5361 103.1C72.75 100.4 73.4238 97.4 72.5575 94C71.98 91.6 70.4399 89.9 68.7073 88.2C67.9373 89.1 67.1672 89.9 66.4935 90.8C63.8946 94.3 63.9909 99.4 66.7823 102.9C67.2635 103.5 67.6485 104 68.1298 104.5C67.5523 104.2 67.071 103.7 66.686 103.3C63.0283 100 56.7718 99.7 52.5366 105.3C54.3654 107.2 56.2905 109 58.9856 109.4C62.2583 109.9 65.1459 108.9 67.6485 106.5C67.456 106.9 67.2635 107.2 66.9747 107.5C63.7021 111.3 63.5096 117.8 68.8998 122.1ZM82.4717 105.2C79.6803 108.5 74.1938 108.3 71.6912 105.2C74.1938 102 79.9691 101.9 82.4717 105.2ZM55.0393 105.2C57.5419 101.9 63.4134 102 65.8197 105.2C63.2209 108.4 57.6381 108.4 55.0393 105.2ZM68.8036 90.9C72.0762 93.7 71.8837 99.6 68.8036 102.1C65.7234 99.4 65.6272 93.7 68.8036 90.9ZM68.7073 108.2C71.4987 110.3 72.2687 116.3 68.7073 119.4C65.6272 116.4 65.6272 111.3 68.7073 108.2Z" fill="white"/>
<path opacity="0.29" d="M119.722 88.1C119.915 88.2 120.396 87.8 120.3 87.6C120.203 87.4 120.011 87.2 119.818 86.9C119.626 87.2 119.337 87.4 119.337 87.6C119.241 87.7 119.53 88 119.722 88.1Z" fill="white"/>
<path opacity="0.29" d="M134.738 68.1C132.139 65.8 129.251 65.1 125.979 66C123.668 66.6 122.032 68.2 120.396 70C120.973 70.5 121.455 71 121.936 71.5C125.497 75.1 131.369 75.1 134.834 71.7C135.026 71.5 135.219 71.4 135.411 71.2L135.508 71.3C135.219 71.6 135.026 71.9 134.738 72.2C132.235 75.5 131.85 79 133.486 82.8C134.16 84.4 135.411 85.6 136.663 86.9C137.529 85.9 138.492 85 139.165 83.9C141.475 80.4 141.187 75.6 138.588 72.3C138.107 71.7 137.721 71.2 137.24 70.7L137.337 70.6C137.818 71 138.203 71.4 138.684 71.8C142.342 75.2 148.694 75.5 153.026 69.8C152.063 69 151.101 68 150.042 67.3C148.598 66.2 146.866 65.7 145.037 65.7C142.534 65.7 140.417 66.5 138.588 68.2C138.299 68.4 138.203 68.7 137.625 68.8C138.01 68.4 138.203 68.1 138.395 67.8C139.935 65.9 140.705 63.7 140.705 61.2C140.705 57.7 138.973 55.2 136.566 52.9C135.893 53.7 135.123 54.5 134.449 55.3C133.968 56 133.486 56.7 133.198 57.4C131.85 61 132.235 64.4 134.641 67.5C135.026 68 135.508 68.5 135.989 69.2C135.796 69.2 135.796 69.2 135.7 69.1C135.604 68.8 135.219 68.5 134.738 68.1ZM123.091 69.9C125.497 66.8 130.984 66.5 133.968 69.9C130.984 73.2 125.497 73 123.091 69.9ZM150.523 69.9C147.828 73.2 142.245 73 139.647 69.9C142.63 66.4 148.117 66.9 150.523 69.9ZM136.759 55.6C139.743 58.1 140.032 63.8 136.759 66.9C133.679 64.1 133.679 58.4 136.759 55.6ZM136.759 72.9C139.743 75.4 140.032 81.2 136.759 84.1C133.775 81.8 133.486 75.7 136.759 72.9Z" fill="white"/>
<path opacity="0.29" d="M55.0393 175.8C57.4456 172.7 63.0284 172.4 65.8197 175.7C65.2422 176.6 63.2209 177.3 63.2209 177.3H66.686C66.686 177.3 66.7822 177.6 66.8785 177.5C67.071 177.3 67.2635 177.1 67.5523 177L67.6485 177.1C67.5523 177.3 67.2635 178.3 67.2635 178.3H70.4399V177.6C70.1511 177.2 69.7661 176.8 69.4774 176.4C70.0549 176.7 70.5361 177.2 71.0174 178.2H74.4826C73.5201 177.2 72.5575 176.6 71.7874 175.7C74.0975 172.8 79.4878 172.2 82.5679 175.6C82.0866 176.5 81.1241 177.2 79.969 178.3H83.2417C83.9155 177.1 84.5893 176.4 85.3593 175.7C84.2042 174.7 83.1454 173.7 82.0866 172.9C80.6428 171.9 79.0065 171.5 77.3702 171.5C74.9639 171.5 72.8463 172.3 70.9212 173.9C70.6324 174.1 70.4399 174.5 70.0549 174.5C70.2474 174.2 70.4399 173.9 70.7287 173.6C72.365 171.7 73.0388 169.5 73.0388 166.9C73.0388 163.5 71.3062 161 68.8998 158.7C67.7448 159.9 66.4935 161.1 65.8197 162.7C64.1834 166.5 64.4721 170 66.9747 173.3C67.3597 173.9 67.841 174.4 68.3223 174.9C67.841 174.6 67.456 174.3 67.071 174C65.531 172.5 63.7021 171.6 61.5845 171.4C57.8306 171 55.0393 172.8 52.6329 175.7C53.2104 176.3 53.788 176.8 54.2692 177.3C54.3655 177.4 54.558 177.1 54.558 177.1H57.8306C57.7343 177.3 55.8093 176.7 55.0393 175.8ZM68.7073 161.6C71.6912 163.9 72.0762 169.9 68.7073 172.8C65.6272 169.8 65.6272 164.6 68.7073 161.6Z" fill="white"/>
<path opacity="0.29" d="M118.278 74.8C117.508 75.5 116.738 76.2 115.968 76.9C114.813 77.9 113.562 78.6 112.118 78.8C111.925 78.8 111.637 78.9 111.444 79C111.348 81.2 110.289 83 108.845 84.5C108.46 84.9 108.075 85.4 107.594 85.9C107.305 86.3 107.016 86.6 106.728 87C106.439 87.4 106.343 87.8 106.728 88.2C107.113 88.6 107.401 89.1 107.69 89.5C108.268 90.2 108.845 90.8 109.423 91.5C110.482 92.7 111.059 94.1 111.252 95.6C111.252 95.8 111.348 96 111.348 96.2C113.465 96.3 115.102 97.3 116.449 98.8C116.931 99.3 117.316 99.7 117.797 100.1C119.626 101.7 119.337 101.7 121.166 100.1C121.936 99.5 122.61 98.7 123.38 98.1C124.438 97.1 125.69 96.5 127.037 96.3C127.23 96.3 127.519 96.2 127.711 96.2C127.807 96 127.807 95.8 127.807 95.6C128 94 128.674 92.6 129.732 91.4C130.31 90.7 130.984 90 131.561 89.3C131.946 88.8 132.331 88.2 132.813 87.6C132.331 87 131.946 86.4 131.561 85.9C130.984 85.1 130.31 84.4 129.636 83.7C128.674 82.6 128.096 81.3 127.904 79.8C127.904 79.5 127.807 79.3 127.711 79C127.519 79 127.422 78.9 127.326 78.9C125.593 78.7 124.15 77.9 122.898 76.7C122.225 76 121.551 75.4 120.877 74.8C120.492 74.4 120.011 74.1 119.529 73.8C119.241 74.1 118.759 74.4 118.278 74.8ZM120.396 77C120.973 77.5 121.455 78 122.032 78.6C123.091 79.6 124.246 80.3 125.69 80.7C126.075 80.8 126.267 81 126.363 81.3C126.845 82.9 127.711 84.3 128.77 85.6C129.347 86.2 129.829 86.8 130.406 87.5C129.925 88.1 129.444 88.7 128.866 89.2C127.711 90.5 126.749 91.9 126.267 93.7C126.171 94 126.075 94.2 125.786 94.3C123.957 94.8 122.513 95.9 121.166 97.3C120.685 97.7 120.203 98.2 119.722 98.6C119.144 98.1 118.663 97.6 118.182 97.2C116.931 95.9 115.487 94.9 113.754 94.3C113.562 94.2 113.369 94 113.273 93.8C112.695 91.7 111.444 90.1 110 88.6C109.712 88.3 109.423 88 109.134 87.6C109.327 87.4 109.423 87.2 109.519 87C110 86.4 110.578 85.8 111.059 85.2C112.022 84.1 112.695 82.9 113.08 81.5C113.177 81 113.465 80.8 113.85 80.7C115.198 80.3 116.353 79.6 117.412 78.6C118.182 77.9 118.856 77.2 119.626 76.5C120.011 76.7 120.203 76.8 120.396 77Z" fill="white"/>
<path opacity="0.29" d="M113.273 86.6C112.695 87.5 112.599 87.5 113.273 88.4C114.813 90.5 116.546 92.3 118.567 93.9C119.818 94.9 119.626 94.9 120.877 93.9C122.706 92.4 124.342 90.6 125.882 88.7C126.171 88.3 126.46 87.9 126.749 87.4C124.823 84.5 122.513 82.1 119.818 80.2C118.374 80.9 114.524 84.8 113.273 86.6ZM119.818 83.5C121.07 84.8 122.321 86.1 123.572 87.4C122.417 88.9 121.166 90.2 119.626 91.5C118.374 90.2 117.123 88.9 115.872 87.6C117.123 86.1 118.374 84.8 119.818 83.5Z" fill="white"/>
<path opacity="0.29" d="M138.395 103.3C140.417 100.9 141.187 98.2 140.802 95.1C140.417 92.2 138.78 90.2 136.759 88.3C136.181 88.9 135.796 89.5 135.219 90C131.85 93.7 131.85 99.7 135.219 103.4C135.604 103.8 135.893 104.2 136.181 104.5C135.7 104.2 135.315 103.9 134.93 103.5C131.272 100 124.92 99.6 120.588 105.3C122.898 107.8 124.342 108.9 127.134 109.4C130.406 109.9 133.198 108.9 135.604 106.4C135.604 106.5 135.7 106.5 135.7 106.6C135.508 106.8 135.315 107.1 135.123 107.3C131.85 111.1 131.561 117.7 136.951 122.1C137.433 121.5 138.01 121 138.492 120.4C141.86 116.5 141.86 111 138.588 107.1C138.203 106.7 137.914 106.3 137.529 105.9C138.01 106.1 138.395 106.5 138.684 106.8C139.647 107.7 140.609 108.4 141.86 108.8C146.384 110.3 150.138 108.9 153.218 105.1C152.16 104.1 151.197 103 149.946 102.3C149.176 101.9 148.406 101.5 147.636 101.3C144.363 100.4 141.475 101.1 138.877 103.4C138.588 103.6 138.395 103.8 138.01 104.2C138.107 103.9 138.107 103.8 138.107 103.8C138.107 103.6 138.203 103.4 138.395 103.3ZM122.995 105.2C125.978 101.7 131.561 102.2 133.871 105.2C131.369 108.3 125.786 108.5 122.995 105.2ZM150.523 105.2C147.443 108.7 141.86 108.1 139.647 105.2C142.149 102.1 147.636 101.8 150.523 105.2ZM136.759 119.4C133.968 117.1 133.39 111.3 136.759 108.2C139.839 110.9 139.839 116.7 136.759 119.4ZM136.759 102.2C133.871 99.8 133.39 94.1 136.759 90.9C140.032 94 139.647 99.7 136.759 102.2Z" fill="white"/>
<path opacity="0.29" d="M64.6647 79.2C64.8572 82.4 66.5897 84.7 68.8036 86.9C69.3811 86.3 69.8624 85.8 70.3436 85.2C73.8088 81.2 73.8088 75.8 70.4399 71.8C70.1511 71.4 69.7661 71 69.4774 70.6C69.8624 70.8 70.1511 71 70.5361 71.3C71.0174 71.7 71.4987 72.2 72.0762 72.6C75.9264 75.1 81.3166 74.8 85.1668 69.8C82.8567 67.2 81.3166 66.2 78.7177 65.7C75.3488 65.1 72.4612 66.2 70.0549 68.7C69.9586 68.6 69.9586 68.6 69.9586 68.5C70.1511 68.2 70.4399 67.9 70.6324 67.7C72.2688 65.8 72.9425 63.6 72.9425 61C72.9425 57.6 71.2099 55.1 68.8998 52.9C68.0335 53.6 66.5897 55.4 66.0122 56.4C64.0871 59.8 64.4721 64.3 66.8785 67.4C67.3598 68 67.841 68.5 68.3223 69.2C68.1298 69.2 68.1298 69.2 68.1298 69.2C67.7448 68.9 67.3598 68.6 67.071 68.2C64.7609 66 62.0658 65.3 59.0819 65.7C56.3868 66.1 54.4617 67.8 52.6329 69.9C53.2104 70.5 53.7879 71 54.3655 71.5C57.9269 75 63.6059 74.9 67.071 71.6C67.2635 71.4 67.456 71.2 67.7448 71.1C67.6486 71.4 67.5523 71.7 67.3598 71.8C65.3384 73.9 64.5684 76.4 64.6647 79.2ZM82.5679 69.9C79.4878 73.1 74.5788 73.1 71.7874 69.9C73.8088 66.9 79.584 66.4 82.5679 69.9ZM55.0393 69.9C57.6381 66.6 63.4134 66.7 65.8197 69.9C63.1246 73.2 57.5419 73 55.0393 69.9ZM68.7073 55.6C71.8837 58.2 71.8837 64.2 68.7073 66.8C65.916 64.4 65.4347 58.7 68.7073 55.6ZM68.7073 72.9C71.595 75.1 72.1725 81.1 68.7073 84.1C65.6272 81.1 65.6272 75.9 68.7073 72.9Z" fill="white"/>
<path opacity="0.29" d="M94.5034 65.6C91.1345 65.6 88.6319 67.4 86.4181 69.9C87.6694 71.1 88.8244 72.5 90.4607 73.2C94.0221 74.8 97.391 74.4 100.567 71.9C100.856 71.6 101.145 71.3 101.53 71.2C101.337 71.5 101.145 71.8 100.952 72.1C99.0274 74.5 98.4498 77.2 98.8349 80.3C99.2199 83.1 100.952 85 102.781 86.9C104.033 85.6 105.284 84.3 106.054 82.6C107.594 78.9 107.113 75.4 104.706 72.2C104.321 71.7 103.84 71.2 103.359 70.6C103.84 70.8 104.225 71.2 104.514 71.5C106.535 73.5 108.942 74.3 111.733 74.1C114.813 73.9 117.027 72.1 119.048 69.9C116.834 67.4 114.909 66.2 112.792 65.8C109.423 65.2 106.439 66.3 103.936 68.7C104.033 68.4 104.225 68.1 104.514 67.9C105.284 67 105.861 66 106.246 64.9C107.787 60.3 106.439 56.2 102.685 52.9C101.819 54 100.952 55 100.182 56.1C99.7011 56.8 99.3161 57.6 99.1236 58.4C98.1611 61.9 98.8349 65 101.049 67.8C101.434 68.2 101.819 68.7 102.107 69.1C101.53 68.8 101.049 68.3 100.567 67.9C98.8349 66.4 96.8135 65.6 94.5034 65.6ZM89.0169 69.9C92.0008 66.5 97.4873 66.9 99.8936 69.9C97.391 73 91.9046 73.2 89.0169 69.9ZM116.546 69.9C113.465 73.4 107.883 72.8 105.669 69.9C108.075 66.8 113.658 66.5 116.546 69.9ZM102.781 55.6C105.669 58 106.15 63.8 102.878 66.8C100.086 64.9 99.2199 58.8 102.781 55.6ZM102.781 72.9C105.958 75.5 105.958 81.5 102.781 84.1C99.7011 81.4 99.6049 75.7 102.781 72.9Z" fill="white"/>
<path opacity="0.29" d="M68.8998 157.5C69.7661 156.4 70.7286 155.4 71.4987 154.2C72.6537 152.4 73.0388 150.3 72.8463 148.1C72.6538 145.9 71.7874 144 70.3436 142.5C70.0549 142.1 69.6698 141.7 69.3811 141.3C70.0549 141.7 70.5362 142.2 71.1137 142.6C71.98 143.2 72.8462 143.8 73.7125 144.1C78.1402 145.7 81.8942 144.2 85.0705 140.3C84.108 139.4 83.1454 138.5 82.0866 137.7C81.4129 137.2 80.5466 136.8 79.7766 136.6C76.5039 135.6 73.4238 136.2 70.8249 138.6C70.5361 138.8 70.3436 139.2 69.8624 139.3C69.9586 139.1 69.9586 139.1 69.9586 139C70.1511 138.8 70.3436 138.5 70.5361 138.3C72.6537 135.7 73.2313 132.8 72.5575 129.5C72.0762 127 70.4399 125.2 68.7073 123.4C68.1298 124 67.6485 124.6 67.1672 125.1C63.7984 128.8 63.7984 134.8 67.1672 138.5C67.5523 138.9 67.841 139.3 68.1298 139.6C67.5523 139.3 67.1673 139 66.7823 138.6C63.1246 135.1 56.7718 134.8 52.4404 140.4C54.7505 142.9 56.1943 144 58.9857 144.5C62.2583 145 65.0496 144 67.456 141.6C67.3597 141.9 67.1672 142.2 66.9747 142.4C63.7021 146.3 63.4133 153 68.8998 157.5ZM82.4717 140.5C79.6803 143.8 74.0976 143.6 71.6912 140.5C74.1938 137.3 79.9691 137.2 82.4717 140.5ZM55.0393 140.5C57.5419 137.2 63.3171 137.2 65.8197 140.5C63.2209 143.7 57.6381 143.7 55.0393 140.5ZM68.8036 126.3C71.7875 128.9 71.98 134.6 68.8036 137.6C65.6272 134.6 65.7234 128.9 68.8036 126.3ZM68.8036 143.5C71.7875 146 72.0762 151.8 68.8036 154.7C65.5309 151.8 65.8197 146 68.8036 143.5Z" fill="white"/>
<path opacity="0.29" d="M136.855 157.4C137.337 156.8 137.818 156.3 138.395 155.7C141.764 151.8 141.764 146.4 138.492 142.4C138.107 142 137.818 141.6 137.433 141.2C137.914 141.4 138.299 141.8 138.684 142.1C139.647 143 140.609 143.7 141.86 144.1C146.384 145.6 150.138 144.1 153.218 140.3C152.545 139.7 151.871 139 151.197 138.4C149.561 136.9 147.539 136.2 145.326 136.1C142.919 136 140.802 136.8 138.877 138.5C138.588 138.7 138.395 139.1 138.01 139.1C138.203 138.8 138.395 138.5 138.684 138.2C140.802 135.6 141.379 132.7 140.705 129.4C140.417 128 139.839 126.7 138.877 125.6C138.203 124.8 137.529 124 136.855 123.3C136.085 124.2 135.315 125 134.641 125.9C132.043 129.4 132.139 134.5 134.93 138C135.411 138.6 135.796 139.1 136.278 139.6C135.7 139.2 135.219 138.8 134.641 138.3C130.887 135 124.727 134.9 120.588 140.4C122.225 142.2 123.572 143.3 125.016 143.9C126.364 144.5 127.807 144.7 129.251 144.6C131.754 144.5 133.775 143.3 135.604 141.6C135.604 141.7 135.7 141.7 135.7 141.8C135.411 142.1 135.219 142.4 135.026 142.7C131.657 146.6 131.465 153.1 136.855 157.4ZM150.523 140.5C147.539 143.7 142.534 143.7 139.743 140.5C141.668 137.7 147.443 136.9 150.523 140.5ZM123.091 140.5C125.594 137.3 131.176 137.2 133.871 140.5C131.561 143.6 125.69 143.8 123.091 140.5ZM136.663 126.3C139.647 128.5 140.128 134.5 136.663 137.5C133.679 134.5 133.679 129.3 136.663 126.3ZM136.759 143.5C139.935 146.3 139.935 152 136.759 154.7C133.968 152.5 133.39 146.7 136.759 143.5Z" fill="white"/>
<path opacity="0.29" d="M96.0435 119C95.0809 117.8 94.4072 116.5 94.2147 115C94.2147 114.8 94.1184 114.6 94.1184 114.3C93.9259 114.2 93.7334 114.2 93.6371 114.2C92.0008 114 90.557 113.2 89.402 112.1C88.7282 111.4 88.0544 110.8 87.3806 110.2C86.8993 109.8 86.4181 109.5 85.9368 109.1C85.4555 109.5 84.9742 109.8 84.493 110.2C83.7229 110.9 82.9529 111.6 82.2791 112.3C81.1241 113.3 79.8728 114 78.429 114.2C78.2365 114.2 77.9477 114.3 77.659 114.4C77.5627 116.7 76.5039 118.4 74.9639 119.9C74.2901 120.6 73.7125 121.3 73.135 122.1C72.5575 122.9 72.5575 123 73.135 123.8C73.905 124.8 74.7713 125.8 75.6376 126.8C76.6964 128 77.2739 129.4 77.4664 130.9C77.4664 131.1 77.5627 131.3 77.5627 131.5C79.6803 131.6 81.3166 132.6 82.7604 134.1C83.2417 134.6 83.6267 135 84.108 135.4C84.493 135.7 84.878 136 85.263 136.3C85.648 136.6 85.9368 136.6 86.3218 136.3C86.7068 135.9 87.1881 135.6 87.5731 135.3C88.2469 134.7 88.8244 134.1 89.402 133.6C90.557 132.5 91.9046 131.8 93.5409 131.6C93.6371 131.6 93.8296 131.5 94.0222 131.5C94.1184 131.3 94.1184 131.1 94.1184 131C94.3109 129.2 95.0809 127.8 96.236 126.5C96.9098 125.8 97.4873 125 98.1611 124.3C98.5461 123.9 98.7386 123.4 99.1236 122.9C98.7386 122.4 98.4499 121.9 98.0648 121.4C97.3911 120.6 96.7172 119.8 96.0435 119ZM94.5997 125C93.5409 126.1 92.7708 127.4 92.3858 129C92.2896 129.4 92.097 129.6 91.712 129.7C90.2682 130.1 89.0169 131 87.8619 132C87.1881 132.6 86.5143 133.2 85.8406 133.9C85.648 133.7 85.4555 133.6 85.263 133.4C84.6855 132.8 84.108 132.3 83.4342 131.7C82.3754 130.8 81.3166 130 79.969 129.7C79.584 129.6 79.2953 129.4 79.199 128.9C78.814 127.4 78.0439 126.2 77.0814 125.1C76.4076 124.4 75.8301 123.6 75.1563 122.9C75.6376 122.3 76.0226 121.8 76.5039 121.3C77.7552 119.9 78.814 118.5 79.2953 116.6C79.3915 116.4 79.584 116.2 79.7766 116.1C81.7016 115.5 83.2417 114.3 84.5893 112.9C84.9743 112.5 85.3592 112.2 85.7443 111.8C85.9368 112 86.1293 112.1 86.3218 112.2C86.8993 112.7 87.3806 113.2 87.8619 113.7C88.9207 114.8 90.172 115.5 91.6158 116C91.9046 116.1 92.1933 116.2 92.2896 116.6C92.7709 118.3 93.6371 119.7 94.7922 120.9C95.3697 121.5 95.851 122.1 96.4285 122.8C95.7547 123.6 95.1772 124.3 94.5997 125Z" fill="white"/>
<path opacity="0.29" d="M86.3218 158.2C86.4181 158 86.0331 157.5 85.8406 157.6C85.6481 157.7 85.3593 157.9 85.3593 158.1C85.3593 158.3 85.5518 158.5 85.7443 158.8C85.9368 158.6 86.2256 158.4 86.3218 158.2Z" fill="white"/>
<path opacity="0.29" d="M85.7443 122.3C85.5518 122.4 85.263 122.7 85.263 122.9C85.263 123.1 85.5518 123.3 85.7443 123.6C86.033 123.3 86.2256 123.1 86.3218 122.9C86.4181 122.6 85.9368 122.2 85.7443 122.3Z" fill="white"/>
<path opacity="0.29" d="M102.781 122.2C104.033 120.8 105.284 119.6 106.054 117.9C107.594 114.2 107.113 110.7 104.706 107.5C104.321 107 103.84 106.5 103.359 105.9C103.455 105.9 103.551 105.9 103.551 105.9C103.84 106.2 104.225 106.5 104.514 106.8C106.535 108.8 108.942 109.6 111.733 109.4C114.813 109.2 117.027 107.4 119.048 105.1C117.219 103.1 115.294 101.4 112.599 101C109.23 100.4 106.343 101.5 103.84 103.9C103.936 103.6 104.129 103.3 104.418 103.1C105.188 102.2 105.765 101.2 106.15 100.1C107.69 95.5 106.343 91.4 102.589 88.1C102.011 88.7 101.434 89.4 100.952 90C97.7761 93.7 97.776 99.1 100.856 102.8C101.241 103.3 101.722 103.8 102.107 104.3L102.011 104.4C101.53 104 101.049 103.5 100.567 103.1C98.8349 101.5 96.7172 100.8 94.4071 100.8C91.0382 100.8 88.5357 102.6 86.3218 105.1C86.9956 105.7 87.6694 106.4 88.3431 107C89.3057 107.9 90.3645 108.5 91.6158 108.9C94.9847 109.8 97.9685 109.3 100.664 106.9C100.856 106.7 101.145 106.5 101.53 106.2C101.434 106.5 101.434 106.5 101.434 106.6C101.241 106.8 101.049 107.1 100.856 107.3C98.9311 109.7 98.3536 112.4 98.7386 115.5C99.2198 118.3 100.856 120.3 102.781 122.2ZM116.449 105.2C113.947 108.5 108.171 108.5 105.669 105.2C108.171 102.1 113.658 101.8 116.449 105.2ZM89.0169 105.2C91.7121 101.9 97.2948 102 99.7974 105.2C97.6798 108.1 92.0971 108.7 89.0169 105.2ZM102.685 90.9C105.861 93.5 105.861 99.5 102.685 102.1C99.8937 99.7 99.5086 94 102.685 90.9ZM102.685 108.2C105.765 110.7 105.958 116.7 102.685 119.4C99.7974 116.9 99.6049 111.1 102.685 108.2Z" fill="white"/>
<path opacity="0.29" d="M85.6481 115.6C85.3593 115.8 84.9743 116 84.6855 116.2C82.7604 117.8 80.9316 119.7 79.3916 121.7C78.6215 122.7 78.6215 122.8 79.3916 123.8C80.9316 125.9 82.7604 127.7 84.6855 129.3C84.9743 129.6 85.3593 129.8 85.7443 130C88.4394 128 90.7495 125.6 92.6746 122.8C91.6158 120.7 87.4769 116.4 85.6481 115.6ZM85.7443 126.8C84.3005 125.7 83.1455 124.3 81.9904 123C82.6642 121.9 84.3968 120.1 85.6481 119.1C86.6106 119.7 88.632 121.8 89.402 123C88.4395 124.3 87.1881 125.6 85.7443 126.8Z" fill="white"/>
<path opacity="0.29" d="M122.995 175.8C125.786 172.5 131.272 172.6 133.775 175.8C133.101 176.7 132.235 177.3 131.08 177.3H134.641C134.93 177.5 135.123 177.3 135.411 177.1C135.315 177.3 135.123 177.5 135.026 177.3H138.203V177.7C137.914 177.3 137.529 176.9 137.24 176.5C137.721 176.8 138.107 177.1 138.492 177.5C138.588 177.6 138.684 177.6 138.78 177.3H142.245C141.283 177.3 140.32 176.7 139.647 175.8C141.764 172.8 147.539 172.2 150.427 175.8C149.657 176.7 148.694 177.3 147.636 177.3H151.101C151.775 177.1 152.448 176.5 153.026 175.7C151.967 174.7 151.005 173.6 149.657 172.8C148.309 171.9 146.769 171.5 145.133 171.5C142.727 171.5 140.609 172.2 138.684 173.9C138.395 174.1 138.203 174.5 137.818 174.5C138.01 174.2 138.203 173.9 138.395 173.7C141.668 169.8 141.572 164.4 138.299 160.6C137.818 160 137.337 159.3 136.566 158.8C135.796 159.7 135.026 160.5 134.449 161.3C131.85 164.8 131.946 169.9 134.738 173.4C135.219 174 135.604 174.5 136.085 175C135.508 174.7 135.026 174.2 134.545 173.8C132.139 171.7 129.347 171.1 126.364 171.7C123.861 172.2 122.128 173.9 120.396 175.7C121.07 176.3 121.743 177 122.417 178.2H125.69C124.727 177.3 123.765 176.7 122.995 175.8ZM136.759 161.6C139.935 164.3 139.839 170.3 136.759 172.8C133.775 170.2 133.583 164.5 136.759 161.6Z" fill="white"/>
<path opacity="0.29" d="M149.176 55.4C148.406 54.2 147.636 53.1 146.866 52C146.769 52.1 146.769 52.1 146.673 52.2C147.058 52.8 147.443 53.4 147.924 53.9C148.309 54.4 148.791 54.9 149.176 55.4Z" fill="white"/>
<path opacity="0.29" d="M115.776 162C116.834 163.1 117.893 164 119.048 165C119.722 165.6 119.722 165.5 120.492 165C120.685 164.9 120.781 164.8 120.877 164.7C122.706 163.1 124.438 161.4 125.979 159.4C126.267 159 126.46 158.6 126.749 158.2C124.823 155.4 122.513 152.9 119.722 150.9C119.337 151.2 118.952 151.4 118.663 151.7C117.604 152.7 116.546 153.6 115.583 154.6C114.717 155.5 113.947 156.6 113.177 157.5C112.792 157.9 112.792 158.4 113.177 158.8C114.043 159.9 114.813 161 115.776 162ZM119.722 154.2C121.166 155.3 122.321 156.7 123.476 158.1C122.417 159.6 121.166 160.8 119.626 162.1C118.374 160.8 117.123 159.5 115.872 158.2C117.123 156.7 118.374 155.5 119.722 154.2Z" fill="white"/>
<path opacity="0.29" d="M51.1891 175.4C50.6116 174.9 50.1303 174.4 49.649 173.9C48.1089 172.4 46.2801 171.5 44.355 171.3V173.2C45.9913 173.5 47.6277 174.2 48.5902 175.5C47.9164 176.4 46.9539 177 45.8951 177.4H49.264C49.9378 176.8 50.5153 176.1 51.1891 175.4Z" fill="white"/>
<path opacity="0.29" d="M50.9003 164.8C51.7666 165.5 51.7666 165.5 52.6329 164.8C54.7505 163.1 56.5793 161.2 58.2156 159C58.4081 158.7 58.6006 158.4 58.7931 158C56.868 155.1 54.558 152.7 51.7666 150.7C48.9752 152.7 46.6651 155.1 44.7401 158C45.0288 158.4 45.125 158.7 45.3176 159C46.9539 161.2 48.7827 163.2 50.9003 164.8ZM51.8629 154.2C53.1142 155.5 54.3654 156.8 55.6168 158.1C54.4617 159.6 53.2104 160.9 51.6704 162.2C50.4191 160.9 49.1677 159.6 47.9164 158.3C49.0715 156.7 50.3228 155.5 51.8629 154.2Z" fill="white"/>
<path opacity="0.29" d="M52.5366 158.2C52.2478 157.9 52.0554 157.7 51.8629 157.6C51.5741 157.5 51.189 157.9 51.2853 158.2C51.3815 158.4 51.5741 158.7 51.7666 158.7C51.9591 158.7 52.1516 158.4 52.5366 158.2Z" fill="white"/>
<path opacity="0.29" d="M50.2265 170.8C50.6116 171.1 50.9966 171.4 51.3816 171.7C51.6704 172 51.9591 172 52.2479 171.7C52.6329 171.4 53.1141 171 53.4992 170.7C54.1729 170.1 54.8467 169.5 55.5205 168.8C56.6756 167.7 58.0231 167 59.5632 166.8C59.7557 166.8 59.852 166.7 60.0445 166.7C60.0445 166.5 60.1407 166.4 60.1407 166.2C60.3332 164.5 61.1032 163 62.162 161.8C62.8358 161.1 63.4133 160.3 64.0871 159.6C64.4721 159.2 64.7609 158.7 65.0496 158.2C64.6646 157.7 64.3759 157.2 63.9909 156.7C63.3171 155.9 62.6433 155.1 61.9696 154.4C61.007 153.2 60.3332 151.9 60.1407 150.4C60.1407 150.2 60.0444 149.9 59.9482 149.7C59.7557 149.7 59.6594 149.6 59.4669 149.6C57.7343 149.4 56.3868 148.6 55.1355 147.4C54.4617 146.8 53.7879 146.1 53.1142 145.5C52.6329 145.1 52.1516 144.8 51.6704 144.4C51.0928 144.9 50.5153 145.3 50.034 145.8C49.264 146.5 48.5902 147.2 47.8202 147.8C46.7614 148.7 45.6063 149.3 44.2588 149.3H43.2962V154.4C44.6438 153.7 44.9326 153 45.1251 152.3C45.2213 151.8 45.5101 151.6 45.9913 151.5C47.3389 151.1 48.494 150.4 49.5528 149.4C50.3228 148.7 50.9966 148 51.7666 147.3C52.3441 147.9 52.9216 148.4 53.4992 148.9C54.7505 150.1 56.098 151.1 57.7344 151.6C58.0231 151.7 58.2156 151.8 58.3119 152.1C58.7931 153.9 59.852 155.4 61.007 156.7C61.4883 157.2 61.8733 157.8 62.4508 158.3C61.9696 158.9 61.4883 159.5 61.007 160C59.7557 161.3 58.7931 162.8 58.3119 164.5C58.2156 164.7 58.0231 165 57.9269 165C55.8093 165.6 54.2692 167 52.7291 168.5C52.4404 168.8 52.1516 169 51.8629 169.3C51.1891 168.7 50.6116 168.2 50.034 167.6C48.879 166.4 47.5314 165.5 45.8951 165C45.6064 164.9 45.4138 164.7 45.3176 164.4C45.125 163.6 44.7401 162.8 44.4513 162.1V166.9C46.1839 167.2 47.6277 168.2 48.9753 169.6C49.264 170 49.7453 170.4 50.2265 170.8Z" fill="white"/>
<path opacity="0.29" d="M161.015 149.2C159.571 149.1 158.32 148.4 157.261 147.4C156.587 146.8 155.914 146.1 155.24 145.5C154.758 145.1 154.277 144.7 153.7 144.3C153.218 144.7 152.737 145 152.352 145.3C151.582 146 150.716 146.8 149.946 147.5C148.887 148.5 147.636 149.2 146.096 149.4C145.903 149.4 145.614 149.5 145.422 149.6C145.422 149.7 145.326 149.8 145.326 149.9C145.133 151.8 144.363 153.3 143.112 154.7C142.534 155.4 141.86 156.1 141.283 156.8C140.898 157.2 140.609 157.7 140.32 158.2C140.609 158.6 140.802 159 140.994 159.3C141.668 160.1 142.245 160.9 142.919 161.6C144.267 163 145.133 164.7 145.229 166.7C145.229 166.8 145.326 166.8 145.326 166.9C147.539 167 149.176 168.2 150.716 169.8C151.197 170.3 151.582 170.7 152.063 171.1C153.603 172.3 153.315 172.3 154.855 171.1C155.529 170.6 156.106 170 156.684 169.4C157.839 168.2 159.186 167.5 160.437 167.1V162.9C160.437 163.3 160.245 163.8 160.052 164.3C159.86 164.8 159.667 165.1 159.186 165.2C157.839 165.6 156.684 166.4 155.625 167.4C154.951 168.1 154.181 168.7 153.411 169.4C152.833 168.9 152.352 168.4 151.871 168C150.62 166.7 149.176 165.7 147.443 165.1C147.251 165 146.962 164.8 146.962 164.6C146.384 162.5 145.037 160.8 143.593 159.3C143.304 159 143.112 158.7 142.727 158.3C143.304 157.6 143.786 157 144.363 156.5C145.518 155.2 146.384 153.9 146.866 152.2C146.962 151.9 147.154 151.7 147.443 151.6C149.08 151.1 150.427 150.2 151.678 148.9C152.256 148.4 152.737 147.9 153.411 147.3C153.603 147.5 153.796 147.6 153.988 147.8C154.566 148.3 155.047 148.8 155.528 149.3C156.587 150.4 157.839 151.1 159.282 151.6C159.667 151.7 159.86 151.8 159.956 152.2C160.149 152.8 160.341 153.4 161.4 154V149.4H161.015V149.2Z" fill="white"/>
<path opacity="0.29" d="M153.7 157.6C153.507 157.7 153.218 158 153.218 158.2C153.218 158.4 153.507 158.6 153.7 158.9C153.988 158.6 154.181 158.4 154.181 158.2C154.373 157.9 153.892 157.5 153.7 157.6Z" fill="white"/>
<path opacity="0.29" d="M153.796 150.8C151.005 152.9 148.694 155.2 146.769 158.1C146.962 158.4 147.154 158.7 147.251 159C148.887 161.2 150.812 163.2 152.93 164.9C153.7 165.5 153.796 165.5 154.662 164.9C156.78 163.2 158.609 161.3 160.245 159.1C160.437 158.8 160.63 158.5 160.822 158.1C158.897 155.3 156.587 152.9 153.796 150.8ZM153.796 162.2C152.352 161 151.101 159.7 149.946 158.3C150.62 157.2 152.352 155.4 153.7 154.4C154.951 155.3 156.78 157.2 157.55 158.4C156.299 159.5 155.143 160.8 153.796 162.2Z" fill="white"/>
<path opacity="0.29" d="M160.726 136.7C158.127 137.1 156.01 138.7 154.181 140.9C154.951 141.7 155.721 142.4 156.587 143.1C157.839 144.1 159.282 144.7 160.726 144.9V143.1C159.186 142.8 157.839 142.1 156.78 140.8C157.839 139.5 159.282 138.8 160.726 138.5V136.7Z" fill="white"/>
<path opacity="0.29" d="M153.7 122.3C153.507 122.4 153.218 122.7 153.218 122.9C153.218 123.1 153.507 123.3 153.7 123.6C153.988 123.3 154.181 123.1 154.181 122.9C154.373 122.6 153.892 122.2 153.7 122.3Z" fill="white"/>
<path opacity="0.29" d="M153.7 115.6C153.411 115.8 153.026 116 152.737 116.3C150.812 117.9 148.983 119.8 147.443 121.8C146.673 122.8 146.673 122.9 147.443 123.9C148.983 126 150.812 127.8 152.737 129.4C153.026 129.7 153.411 129.9 153.7 130.1C155.721 129 159.571 124.9 160.726 122.9C159.571 120.7 155.432 116.4 153.7 115.6ZM153.796 126.8C152.352 125.6 151.101 124.3 149.946 122.9C151.005 121.4 152.352 120.1 153.7 118.9C155.144 120.1 156.395 121.4 157.55 122.9C156.299 124.3 155.047 125.5 153.796 126.8Z" fill="white"/>
<path opacity="0.29" d="M160.726 113.8C159.282 113.5 158.031 112.8 156.972 111.7C156.395 111.1 155.721 110.5 155.144 110C154.662 109.6 154.085 109.2 153.603 108.8C152.448 109.4 151.582 110.3 150.716 111.1C149.272 112.6 147.539 113.7 145.422 114C145.326 114 145.326 114.1 145.229 114.1C145.229 114.2 145.133 114.3 145.133 114.4C144.941 116.2 144.171 117.7 143.015 119.1C142.245 120 141.475 120.8 140.705 121.8C140.032 122.7 140.032 122.9 140.802 123.9C141.572 124.9 142.342 125.8 143.208 126.7C144.171 127.9 144.844 129.2 145.037 130.8C145.037 131 145.133 131.2 145.133 131.5C145.326 131.5 145.422 131.6 145.614 131.6C147.251 131.8 148.598 132.5 149.85 133.7C150.523 134.3 151.101 134.9 151.775 135.5C152.16 135.9 152.641 136.2 153.026 136.5C153.218 136.7 153.603 136.7 153.796 136.5C154.085 136.3 154.373 136.1 154.662 135.8C155.432 135.1 156.299 134.3 157.069 133.6C158.127 132.6 159.282 132 160.63 131.7V127C160.341 127.6 160.052 128.1 159.86 128.8C159.764 129 159.571 129.3 159.475 129.3C157.454 129.9 155.817 131.3 154.374 132.8C154.085 133.1 153.796 133.3 153.603 133.5C153.603 133.5 153.507 133.5 153.411 133.6C152.833 133.1 152.256 132.5 151.678 132C150.523 130.8 149.176 129.9 147.539 129.4C147.251 129.3 147.058 129.1 146.962 128.8C146.481 127.1 145.614 125.7 144.363 124.4C143.882 123.8 143.401 123.3 142.823 122.6C143.016 122.4 143.112 122.2 143.304 122C143.882 121.3 144.459 120.6 145.133 119.9C145.999 118.9 146.481 117.7 146.962 116.4C147.154 116 147.347 115.8 147.828 115.7C149.176 115.3 150.331 114.5 151.39 113.5C152.063 112.8 152.833 112.2 153.603 111.5C154.181 112.1 154.759 112.6 155.336 113.1C156.587 114.3 157.935 115.3 159.571 115.8C159.86 115.9 160.052 116.1 160.052 116.3C160.245 116.9 160.437 117.5 160.822 118.1L160.726 113.8Z" fill="white"/>
<path opacity="0.29" d="M156.684 175.4C157.742 174.1 159.186 173.4 160.63 173.1V171.3C160.341 171.4 159.956 171.4 159.667 171.5C157.357 172.1 155.721 173.7 154.085 175.4C154.758 176.1 155.336 176.7 156.01 177.3H159.379C158.416 176.9 157.454 176.3 156.684 175.4Z" fill="white"/>
<path opacity="0.29" d="M89.0169 175.9C90.942 173 96.8135 172.2 99.7974 175.8C99.0274 176.7 98.0648 177.3 97.1023 177.3H100.76C101.049 177.5 101.241 177.3 101.53 177C101.434 177.3 101.337 177.5 101.145 177.3H104.321C104.033 177.3 103.648 176.9 103.359 176.5C103.936 176.8 104.418 177.3 104.899 177.3H108.364C107.401 177.3 106.439 176.7 105.765 175.8C107.787 172.9 113.562 172.1 116.546 175.8C115.776 176.7 114.813 177.3 113.754 177.3H117.123C117.797 177.1 118.471 176.4 119.144 175.7C118.182 174.8 117.219 173.9 116.161 173.1C115.583 172.6 114.813 172.3 114.043 172C110.578 170.9 107.498 171.5 104.803 173.9C104.514 174.1 104.321 174.3 104.033 174.6C104.033 174.5 103.936 174.5 103.936 174.4C104.129 174.1 104.418 173.9 104.61 173.6C106.728 171 107.401 168 106.631 164.8C106.054 162.3 104.514 160.6 102.781 158.8C102.204 159.4 101.722 160 101.241 160.5C97.8723 164.2 97.776 170.2 101.145 173.9C101.53 174.3 101.819 174.7 102.107 175C101.722 174.8 101.337 174.5 101.049 174.2C100.471 173.8 99.9899 173.3 99.4124 172.9C95.3697 170.4 90.2682 170.9 86.4181 175.8C87.0918 176.5 87.7656 177.2 88.3431 178.3H91.712C90.7495 177.3 89.8832 176.7 89.0169 175.9ZM102.685 161.6C105.573 163.7 106.15 169.8 102.781 172.8C99.7011 169.8 99.7012 164.7 102.685 161.6Z" fill="white"/>
<path opacity="0.29" d="M155.432 68.8C155.143 69.1 154.758 69.5 154.47 69.9C155.047 70.5 155.625 71 156.202 71.6C156.01 70.7 155.721 69.7 155.432 68.8Z" fill="white"/>
<path opacity="0.29" d="M130.117 38.7C130.887 38.6 131.657 38.3 132.331 38C131.754 37.6 131.08 37.1 130.406 36.7C127.904 37.4 124.92 36.8 122.995 34.6C123.38 34.1 123.957 33.7 124.438 33.3C123.861 33 123.187 32.7 122.61 32.4C121.84 33 121.07 33.8 120.396 34.7C121.358 35.5 122.225 36.5 123.283 37.2C125.305 38.7 127.615 39.1 130.117 38.7Z" fill="white"/>
<path opacity="0.29" d="M136.855 51.5C137.433 50.8 138.107 50.1 138.684 49.4C139.743 48.1 140.417 46.6 140.705 45C140.128 44.5 139.647 44 139.069 43.5C138.973 45.6 138.203 47.6 136.759 48.9C134.545 47 133.775 43.2 135.026 40.1C134.545 39.7 134.064 39.3 133.583 39C131.754 42.8 132.428 47.8 136.855 51.5Z" fill="white"/>
<path opacity="0.29" d="M140.802 52.8C141.572 53.7 142.245 54.7 143.112 55.5C144.459 56.9 145.326 58.6 145.422 60.6C145.422 60.7 145.518 60.7 145.518 60.8C147.636 60.9 149.368 62.1 150.812 63.6C151.486 64.2 152.16 64.9 152.833 65.4C153.507 66 153.7 66 154.277 65.6C153.892 64.6 153.507 63.6 153.026 62.7C152.448 62.2 151.967 61.7 151.39 61.2C150.331 60.2 149.176 59.5 147.828 59.1C147.443 59 147.154 58.8 147.058 58.3C146.673 56.8 145.903 55.5 144.844 54.4C144.267 53.7 143.593 53 142.919 52.2C143.401 51.6 143.882 51.1 144.363 50.6C144.556 50.3 144.844 50.1 145.037 49.8C144.556 49.2 144.074 48.6 143.593 48.1C143.497 48.2 143.401 48.4 143.304 48.5C142.438 49.5 141.572 50.6 140.705 51.6C140.513 52 140.417 52.4 140.802 52.8Z" fill="white"/>
<path opacity="0.29" d="M118.759 129.4C119.048 129.7 119.433 129.9 119.818 130.1C122.61 128 124.92 125.7 126.845 122.8C124.823 119.9 122.61 117.5 119.818 115.5C119.433 115.8 119.048 116 118.759 116.2C116.834 117.8 115.006 119.7 113.466 121.7C112.695 122.7 112.695 122.8 113.466 123.8C115.006 126 116.738 127.8 118.759 129.4ZM119.722 118.9C121.166 120 122.321 121.4 123.572 122.8C122.61 124.1 120.781 126 119.626 126.8C118.374 125.5 117.219 124.3 115.968 123C117.123 121.4 118.374 120.2 119.722 118.9Z" fill="white"/>
<path opacity="0.29" d="M120.3 52.3C120.396 52.1 120.011 51.6 119.818 51.7C119.626 51.8 119.337 52 119.337 52.2C119.337 52.4 119.53 52.6 119.722 52.9C120.011 52.7 120.203 52.5 120.3 52.3Z" fill="white"/>
<path opacity="0.29" d="M107.786 124.7C108.364 125.4 108.942 126 109.423 126.6C110.578 127.8 111.252 129.3 111.444 131C111.444 131.1 111.54 131.3 111.54 131.5C113.658 131.6 115.294 132.6 116.642 134C117.219 134.5 117.701 135.1 118.278 135.6C119.914 137 119.626 137 121.262 135.6C122.032 134.9 122.802 134.2 123.572 133.4C124.631 132.4 125.979 131.8 127.422 131.5C127.615 131.5 127.807 131.4 128 131.4C128.096 131.3 128.096 131.3 128.096 131.2C128.096 131.1 128.192 130.9 128.192 130.7C128.385 129.1 129.059 127.7 130.117 126.5C130.695 125.8 131.369 125.1 131.946 124.4C132.331 123.9 132.716 123.3 133.198 122.7C132.716 122.1 132.331 121.5 131.946 121C131.369 120.2 130.695 119.5 130.021 118.8C129.059 117.7 128.481 116.4 128.289 114.9C128.289 114.6 128.192 114.4 128.096 114.1C127.904 114.1 127.711 114 127.615 114C125.978 113.8 124.535 113 123.38 111.8C122.802 111.2 122.128 110.6 121.551 110.1C121.07 109.7 120.492 109.3 119.914 108.8C119.337 109.2 118.856 109.6 118.374 110C117.604 110.6 116.931 111.3 116.257 112C115.102 113.1 113.85 113.8 112.31 114C112.118 114 111.829 114.1 111.637 114.2C111.54 114.8 111.444 115.4 111.252 116C110.963 117.2 110.289 118.2 109.423 119.2C108.557 120.2 107.786 121.2 106.92 122.2C106.631 122.6 106.535 123 106.92 123.4C107.113 123.8 107.401 124.3 107.786 124.7ZM109.615 122.2C110.193 121.6 110.77 120.9 111.252 120.3C112.118 119.3 112.792 118.1 113.08 116.8C113.177 116.4 113.369 116.1 113.85 116C115.294 115.6 116.546 114.8 117.604 113.7C118.278 113.1 118.952 112.4 119.722 111.7C120.3 112.3 120.877 112.8 121.455 113.3C122.706 114.5 124.053 115.5 125.786 116C125.978 116.1 126.267 116.3 126.267 116.4C126.845 118.5 128.096 120.1 129.444 121.6C129.732 122 130.117 122.3 130.406 122.7C129.829 123.4 129.251 124 128.674 124.7C127.615 125.9 126.749 127.3 126.267 128.9C126.171 129.2 125.978 129.4 125.69 129.5C123.957 130 122.61 131 121.358 132.3C120.877 132.8 120.299 133.2 119.818 133.8C119.626 133.6 119.433 133.5 119.241 133.4C118.663 132.8 118.086 132.3 117.412 131.7C116.353 130.8 115.294 130 113.947 129.6C113.465 129.5 113.273 129.2 113.177 128.8C112.792 127.4 112.118 126.2 111.155 125.1C110.482 124.3 109.808 123.6 109.134 122.8C109.327 122.6 109.519 122.4 109.615 122.2Z" fill="white"/>
<path opacity="0.29" d="M120.3 122.9C120.396 122.7 120.011 122.2 119.722 122.3C119.53 122.4 119.241 122.7 119.241 122.9C119.241 123.1 119.53 123.3 119.722 123.6C120.011 123.3 120.203 123.1 120.3 122.9Z" fill="white"/>
<path opacity="0.29" d="M108.942 161.4C110.385 162.9 111.252 164.6 111.444 166.8C113.85 166.9 115.583 168.2 117.123 169.8C117.701 170.4 118.374 171 119.144 171.5C119.818 172 119.818 172 120.492 171.5C121.358 170.8 122.225 170.1 122.995 169.3C124.342 167.9 125.979 167 127.904 166.8C128 166.8 128 166.7 128.096 166.7C128.096 166.5 128.192 166.4 128.192 166.2C128.385 164.5 129.155 163.1 130.214 161.9C130.887 161.2 131.465 160.5 132.043 159.8C132.428 159.3 132.716 158.8 133.101 158.3C132.813 157.9 132.62 157.5 132.331 157.2C131.657 156.4 130.887 155.5 130.214 154.7C129.059 153.4 128.385 152 128.096 150.3C128.096 150.1 128 149.9 128 149.8C127.904 149.7 127.807 149.7 127.807 149.7C127.711 149.7 127.615 149.6 127.422 149.6C125.786 149.4 124.438 148.6 123.283 147.5C122.61 146.9 121.936 146.2 121.262 145.6C120.781 145.2 120.3 144.8 119.722 144.4C119.241 144.7 118.856 145 118.471 145.3C117.701 146 116.834 146.8 116.064 147.5C114.909 148.6 113.562 149.3 112.022 149.5C111.829 149.5 111.637 149.6 111.444 149.6C111.444 149.7 111.348 149.9 111.348 150C111.155 151.8 110.482 153.3 109.327 154.5C108.653 155.2 108.075 156 107.401 156.7C107.016 157.1 106.728 157.6 106.439 158.1C106.728 158.5 106.824 158.8 107.113 159.1C107.69 159.9 108.268 160.7 108.942 161.4ZM110.77 156.3C111.925 155.1 112.792 153.7 113.273 152C113.369 151.7 113.465 151.5 113.85 151.4C115.487 150.9 116.834 150 118.086 148.7C118.663 148.2 119.144 147.7 119.818 147.1C120.011 147.3 120.203 147.4 120.396 147.5C120.973 148 121.455 148.5 121.936 149C122.995 150.1 124.246 150.8 125.69 151.3C125.978 151.4 126.267 151.5 126.364 151.9C126.845 153.6 127.711 155 128.866 156.2C129.444 156.8 129.925 157.4 130.406 158C130.214 158.2 130.117 158.4 129.925 158.6C129.347 159.2 128.77 159.9 128.289 160.5C127.422 161.6 126.749 162.8 126.364 164.1C126.267 164.5 126.075 164.7 125.786 164.8C124.15 165.3 122.802 166.2 121.647 167.4C121.07 168 120.492 168.5 119.818 169.1C119.144 168.4 118.471 167.9 117.893 167.3C116.738 166.2 115.487 165.3 113.947 164.9C113.658 164.8 113.369 164.7 113.369 164.3C112.888 162.5 111.829 161 110.674 159.7C110.193 159.2 109.808 158.7 109.23 158.1C109.712 157.5 110.193 156.9 110.77 156.3Z" fill="white"/>
<path opacity="0.29" d="M84.3005 74.8C83.5305 75.5 82.7604 76.2 82.0867 76.9C80.9316 77.9 79.6803 78.6 78.2365 78.8C78.044 78.8 77.7552 78.9 77.5627 79C77.4665 81.2 76.4077 83 74.9639 84.5C74.4826 85 74.0976 85.5 73.6163 86C72.365 87.7 72.2688 87.4 73.6163 89.1C74.1938 89.9 74.9639 90.6 75.5414 91.4C76.6002 92.6 77.1777 94 77.3702 95.5C77.3702 95.7 77.4665 95.9 77.4665 96.1C79.5841 96.2 81.2204 97.2 82.5679 98.7C83.0492 99.2 83.5305 99.7 84.108 100.1C84.5893 100.5 85.0705 100.9 85.6481 101.3C86.2256 100.9 86.7068 100.5 87.1881 100.1C87.9581 99.4 88.7282 98.7 89.4982 97.9C90.557 96.9 91.8083 96.3 93.1559 96.1C93.3484 96.1 93.6372 96 93.8297 96C93.9259 95.8 93.9259 95.6 93.9259 95.4C94.1184 93.6 94.8885 92.2 96.0435 90.9C96.7173 90.2 97.2948 89.5 97.8724 88.8C98.2574 88.4 98.5461 87.9 98.8349 87.4C98.3536 86.8 97.9686 86.2 97.5836 85.7C97.0061 85 96.4285 84.3 95.7548 83.6C94.696 82.4 94.0222 81.1 93.8297 79.5C93.8297 79.3 93.7334 79 93.6371 78.8C93.4446 78.8 93.3484 78.7 93.2522 78.7C91.5196 78.5 90.0758 77.7 88.7282 76.4C88.0544 75.8 87.3806 75.1 86.7068 74.5C86.3218 74.1 85.8406 73.8 85.3593 73.5C85.2631 74.1 84.7818 74.4 84.3005 74.8ZM87.7657 78.3C88.9207 79.4 90.172 80.3 91.7121 80.7C92.0008 80.8 92.1934 80.9 92.2896 81.3C92.7709 83.1 93.7334 84.5 94.8884 85.8C95.3697 86.4 95.851 86.9 96.4285 87.5C95.851 88.2 95.3697 88.8 94.7922 89.4C93.6372 90.6 92.7709 92 92.2896 93.7C92.1934 94 92.0008 94.2 91.7121 94.3C89.9795 94.8 88.6319 95.8 87.3806 97C86.8994 97.5 86.3218 98 85.7443 98.5C85.5518 98.3 85.3593 98.2 85.1668 98C84.493 97.4 83.9155 96.8 83.2417 96.2C82.2792 95.3 81.2204 94.7 79.9691 94.3C79.4878 94.2 79.1991 93.9 79.1028 93.4C78.7178 92 78.044 90.8 77.0814 89.7C76.4077 88.9 75.7339 88.2 75.0601 87.4C75.5414 86.8 76.0227 86.3 76.5039 85.8C77.7552 84.5 78.7178 83 79.199 81.2C79.2953 80.9 79.3916 80.7 79.7766 80.6C81.5092 80.1 82.8567 79.1 84.108 77.8C84.5893 77.3 85.1668 76.8 85.7443 76.3C86.4181 77.1 87.0919 77.7 87.7657 78.3Z" fill="white"/>
<path opacity="0.29" d="M85.7443 88.1C86.0331 88.1 86.4181 87.8 86.3219 87.5C86.2256 87.3 86.0331 87.1 85.7443 86.8C85.5518 87.1 85.263 87.3 85.263 87.5C85.1668 87.8 85.4555 88 85.7443 88.1Z" fill="white"/>
<path opacity="0.29" d="M79.2953 86.7C78.7178 87.5 78.7178 87.5 79.2953 88.3C80.9316 90.5 82.7604 92.4 84.878 94.1C85.7443 94.8 85.8405 94.8 86.7068 94.1C86.8031 94 86.8993 94 86.8993 93.9C88.7281 92.3 90.4607 90.6 92.0008 88.6C92.2895 88.2 92.4821 87.8 92.7709 87.4C90.8458 84.5 88.5356 82.1 85.7443 80.1C85.4555 80.3 85.1668 80.4 84.878 80.6C82.8567 82.5 80.9316 84.5 79.2953 86.7ZM85.648 83.6C87.0918 84.8 88.3431 86.1 89.5944 87.7C88.3431 89 87.0918 90.3 85.8405 91.6C84.3005 90.4 83.1454 89.1 81.8941 87.6C83.2417 86.2 84.3967 84.9 85.648 83.6Z" fill="white"/>
<path opacity="0.29" d="M52.3441 87.6C52.4404 87.4 52.0554 86.9 51.8629 87C51.6704 87.1 51.3816 87.3 51.3816 87.5C51.3816 87.7 51.5741 87.9 51.7666 88.2C51.9591 88 52.2479 87.8 52.3441 87.6Z" fill="white"/>
<path opacity="0.29" d="M51.7666 76.5C51.9591 76.7 52.1516 76.8 52.3442 76.9C52.9217 77.4 53.4029 77.9 53.8842 78.4C54.943 79.5 56.1943 80.2 57.6381 80.7C57.9269 80.8 58.2156 80.9 58.3119 81.3C58.7931 83 59.6595 84.4 60.8145 85.6C61.392 86.2 61.8733 86.8 62.4508 87.4C62.2583 87.6 62.1621 87.8 61.9696 88C61.4883 88.6 61.007 89.1 60.5258 89.6C59.5632 90.7 58.7931 92 58.3119 93.5C58.2156 93.9 58.0231 94.1 57.7344 94.2C56.098 94.7 54.7505 95.6 53.5954 96.8C53.0179 97.4 52.4404 97.9 51.7666 98.5C51.0928 97.8 50.419 97.3 49.8415 96.7C49.5527 96.4 49.1678 96.1 48.7827 95.8C49.0715 97.1 49.4565 98.5 49.8415 99.8C50.034 100 50.2265 100.2 50.5153 100.4C50.9003 100.7 51.2853 101 51.7666 101.3C52.3441 100.8 52.9217 100.4 53.4029 99.9C54.173 99.3 54.8467 98.6 55.5205 97.9C56.5793 96.9 57.8306 96.3 59.1782 96.1C59.3707 96.1 59.6594 96 59.9482 96C60.0444 95.8 60.0445 95.6 60.0445 95.4C60.237 93.6 61.007 92.2 62.162 90.9C62.8358 90.2 63.4133 89.5 63.9909 88.8C64.3759 88.4 64.6647 87.9 64.9534 87.4C64.5684 86.9 64.2797 86.4 63.8946 85.9C63.2209 85.1 62.5471 84.4 61.9696 83.6C60.9108 82.4 60.237 81.1 60.0445 79.5C60.0445 79.3 59.9482 79 59.852 78.8C59.6595 78.8 59.5632 78.7 59.4669 78.7C57.7343 78.5 56.2905 77.7 54.943 76.4C54.2692 75.8 53.5954 75.1 52.9217 74.5C52.5366 74.1 52.0553 73.8 51.5741 73.5C50.9965 74 50.3228 74.4 49.8415 74.9C49.1677 75.5 48.494 76.1 47.9164 76.7C47.8202 77.7 47.6277 78.7 47.6277 79.7C48.6865 79.1 49.649 78.3 50.5153 77.4C50.9003 77.2 51.2853 76.9 51.7666 76.5Z" fill="white"/>
<path opacity="0.29" d="M51.1891 140.4C50.5153 139.8 49.8415 139.1 49.1677 138.5C47.7239 137.2 46.1838 136.6 44.355 136.3V138.1C45.9913 138.4 47.6277 139.1 48.5902 140.4C47.5314 141.7 45.9913 142.5 44.355 142.7V144.6C46.7614 144.4 49.1678 143 51.1891 140.4Z" fill="white"/>
<path opacity="0.29" d="M51.1891 69.8C50.8041 69.4 50.3228 69 49.9378 68.7C49.649 69.8 49.3602 70.9 49.0715 72C49.7453 71.3 50.4191 70.6 51.1891 69.8Z" fill="white"/>
<path opacity="0.29" d="M53.3067 64.9C54.0767 64.2 54.8467 63.5 55.6168 62.7C56.6755 61.7 57.9268 61.1 59.2744 60.9C59.4669 60.9 59.7557 60.8 59.9482 60.8C60.0444 60.6 60.0445 60.4 60.0445 60.2C60.237 58.4 61.007 57 62.162 55.7C62.8358 55 63.4133 54.3 63.9909 53.6C64.3759 53.2 64.6646 52.7 64.9534 52.2C64.4721 51.6 64.0871 50.9 63.6058 50.4C63.0283 49.7 62.3546 49 61.777 48.3C61.6808 48.2 61.6808 48.1 61.5845 48C61.1032 48.6 60.622 49.1 60.1407 49.7C60.3332 50 60.5257 50.2 60.7182 50.4C61.1995 51 61.6808 51.5 62.2583 52.2C62.0658 52.4 61.9695 52.6 61.8733 52.8C61.392 53.4 60.9107 53.9 60.4295 54.4C59.4669 55.5 58.6969 56.8 58.2156 58.3C58.1194 58.7 58.0231 58.9 57.6381 59C56.0018 59.5 54.6542 60.4 53.4029 61.7C52.9216 62.2 52.4404 62.7 51.8629 63.2C51.5741 64 51.1891 64.7 50.9003 65.5C51.1891 65.7 51.3816 65.9 51.6704 66.1C52.3441 65.7 52.8254 65.3 53.3067 64.9Z" fill="white"/>
<path opacity="0.29" d="M48.0127 91.6C48.9753 92.6 50.034 93.5 51.0928 94.4C51.4778 94.8 51.9591 94.8 52.3442 94.4C52.5367 94.2 52.7291 94.1 52.9217 94C54.7505 92.4 56.3868 90.7 57.9269 88.8C58.2156 88.4 58.5044 88 58.7931 87.5C56.868 84.6 54.558 82.2 51.7666 80.2C50.2265 81.1 48.9752 82.4 47.8202 83.6C47.7239 83.7 47.5314 83.9 47.4352 84C47.4352 84.1 47.4352 84.1 47.4352 84.2C47.5314 86.7 47.724 89.2 48.0127 91.6ZM51.7666 83.6C53.2104 84.7 54.3655 86.1 55.6168 87.6C54.3655 88.9 53.1142 90.2 51.8629 91.5C50.4191 90.2 49.1678 89 48.0127 87.5C49.1678 86.1 50.419 84.8 51.7666 83.6Z" fill="white"/>
<path opacity="0.29" d="M51.3816 105.2C50.7078 104.6 50.034 104 49.264 103.4H47.3389V104.1C47.8202 104.4 48.3014 104.8 48.6865 105.3C48.3014 105.8 47.8202 106.2 47.3389 106.6V108.6C48.7827 107.8 50.1303 106.6 51.3816 105.2Z" fill="white"/>
<path opacity="0.29" d="M51.8629 123.4C52.0554 123.4 52.2479 123.1 52.5366 122.9C52.2479 122.7 52.0554 122.5 51.7666 122.4C51.4779 122.3 51.1891 122.8 51.2853 123C51.3816 123.1 51.6704 123.4 51.8629 123.4Z" fill="white"/>
<path opacity="0.29" d="M50.8041 129.4C51.0928 129.7 51.4779 129.8 51.8629 130.1C54.6543 128 56.9643 125.7 58.7931 122.9C57.6381 120.6 53.4992 116.4 51.6704 115.6C51.3816 115.8 50.9966 116 50.7078 116.3C48.7828 117.9 46.9539 119.8 45.4139 121.8C44.6438 122.8 44.6438 122.9 45.4139 123.9C47.0502 126 48.7827 127.8 50.8041 129.4ZM51.7666 118.9C53.2104 120.1 54.4617 121.4 55.6168 122.9C54.3655 124.2 53.1142 125.5 51.8629 126.8C50.4191 125.6 49.1678 124.3 48.0127 122.8C49.0715 121.4 50.4191 120.1 51.7666 118.9Z" fill="white"/>
<path opacity="0.29" d="M48.5902 134C49.3603 134.8 50.2265 135.5 51.0928 136.2C51.7666 136.7 51.7666 136.7 52.4404 136.2C53.3067 135.5 54.1729 134.8 54.943 134C56.2905 132.6 57.9269 131.7 59.852 131.5C59.9482 131.5 59.9482 131.4 60.0445 131.4C60.0445 131.2 60.1407 131.1 60.1407 130.9C60.3332 129.2 61.1032 127.8 62.162 126.6C62.8358 125.9 63.4133 125.2 63.9909 124.5C64.3759 124 64.6646 123.5 65.0496 123C64.7609 122.6 64.6647 122.3 64.3759 122C63.7021 121.2 63.0283 120.3 62.3545 119.6C61.1032 118.2 60.237 116.7 60.0445 114.8C60.0445 114.7 59.9482 114.6 59.9482 114.5C59.8519 114.5 59.8519 114.4 59.7557 114.4C59.6594 114.4 59.5632 114.3 59.3707 114.3C57.7344 114.1 56.3868 113.3 55.2318 112.2C54.558 111.6 53.8842 110.9 53.2104 110.3C52.7291 109.9 52.2479 109.5 51.6704 109.1C51.1891 109.4 50.8041 109.7 50.4191 110C49.649 110.7 48.7827 111.5 48.0127 112.2C46.8577 113.3 45.6064 114 43.2 114.2V119.1C44.5476 118.4 44.8363 117.7 45.0288 117C45.1251 116.5 45.4138 116.3 45.8951 116.2C47.2427 115.8 48.3977 115.1 49.4565 114.1C50.2266 113.4 50.9003 112.7 51.6704 112C52.2479 112.6 52.8254 113.1 53.4029 113.6C54.6542 114.8 56.0018 115.8 57.6381 116.3C57.9269 116.4 58.1194 116.5 58.2156 116.8C58.6969 118.6 59.7557 120.1 60.9107 121.4C61.392 121.9 61.777 122.5 62.3545 123C61.8733 123.6 61.392 124.1 60.9107 124.7C59.6594 126 58.6969 127.5 58.2156 129.2C58.1194 129.4 57.9268 129.7 57.8306 129.7C55.713 130.3 54.173 131.7 52.6329 133.2C52.3441 133.5 52.0554 133.7 51.7666 134C51.0928 133.4 50.5153 132.9 49.9378 132.3C48.7827 131.1 47.4351 130.2 45.7988 129.7C45.5101 129.6 45.3176 129.4 45.2213 129.1C45.0288 128.3 44.6438 127.5 44.355 126.8V131.6C44.8363 131.8 45.4138 131.9 45.8951 132.1C46.9539 132.5 47.8202 133.2 48.5902 134Z" fill="white"/>
<path opacity="0.29" d="M68.7073 51.5C69.9587 50.5 71.4987 48.6 72.0762 47.2C73.2313 44.2 73.2313 41.4 71.8837 38.8C71.4025 39.2 70.9212 39.5 70.4399 39.9C71.6912 42.7 71.3062 46.7 68.8036 48.9C67.2635 47.6 66.4935 45.5 66.4935 43.3C65.9159 43.8 65.4347 44.3 64.8572 44.8C64.8572 44.9 64.8572 44.9 64.8572 45C65.2422 47.7 66.8785 49.6 68.7073 51.5Z" fill="white"/>
<path opacity="0.29" d="M96.1398 38.7C97.9686 38.4 99.5086 37.6 100.856 36.4C101.049 36.2 101.241 35.9 101.722 35.9C101.241 36.6 100.76 37.1 100.375 37.7C97.8723 41.7 98.0648 47.4 102.974 51.5C103.936 50.4 104.995 49.4 105.669 48.1C106.535 46.6 106.92 45 106.92 43.3C106.92 40.7 106.15 38.5 104.514 36.6C104.129 36.2 103.744 35.7 103.359 35.3C104.033 35.7 104.514 36.2 105.091 36.7C106.728 38.1 108.557 38.8 110.674 38.8C114.236 38.9 116.834 37.2 119.144 34.5C118.086 33.6 117.123 32.7 116.161 31.9C115.583 31.4 114.813 31.1 114.043 30.8C110.578 29.7 107.498 30.3 104.803 32.7C104.514 32.9 104.321 33.1 104.033 33.4C104.033 33.3 103.936 33.3 103.936 33.3C104.225 32.9 104.514 32.6 104.803 32.2C105.958 30.7 106.728 28.9 106.92 27C106.343 26.9 105.765 26.7 105.188 26.6C104.995 28.5 104.321 30.3 102.878 31.5C101.53 30.4 100.76 28.5 100.567 26.5C99.9899 26.6 99.4124 26.7 98.8349 26.9C99.0274 29 99.8936 31.1 101.337 32.7C101.722 33.1 102.011 33.5 102.3 33.8L102.204 33.9C101.915 33.6 101.53 33.3 101.241 33C100.664 32.5 100.182 32 99.5087 31.7C95.5622 29.3 90.3645 29.8 86.5144 34.7C87.4769 35.5 88.3432 36.5 89.402 37.2C91.3271 38.7 93.6372 39.1 96.1398 38.7ZM116.546 34.6C113.465 37.8 108.557 37.8 105.765 34.6C107.787 31.6 113.658 31.1 116.546 34.6ZM102.781 37.6C106.054 40.7 105.669 46.4 102.781 48.9C99.7974 46.2 99.6049 40.5 102.781 37.6ZM99.8936 34.6C97.391 37.7 91.8083 37.9 89.0169 34.6C92.0008 31.1 97.5835 31.6 99.8936 34.6Z" fill="white"/>
<path opacity="0.29" d="M79.4878 51.2C78.7177 52.2 78.7177 52.3 79.4878 53.3C81.0278 55.4 82.8567 57.2 84.7818 58.8C85.0705 59.1 85.4556 59.2 85.8406 59.5C88.5357 57.4 90.942 55.1 92.8671 52.2C90.8458 49.3 88.5357 46.9 85.8406 44.9C85.4556 45.2 85.0705 45.4 84.7818 45.6C82.7604 47.3 81.0278 49.1 79.4878 51.2ZM85.7443 48.3C87.1881 49.5 88.4394 50.8 89.5945 52.3C88.3432 53.6 87.0919 54.9 85.8406 56.2C84.3968 55 83.1455 53.7 81.9904 52.2C83.0492 50.8 84.3967 49.5 85.7443 48.3Z" fill="white"/>
<path opacity="0.29" d="M85.8406 52.7C86.0331 52.7 86.2256 52.4 86.5144 52.2C86.2256 52 86.0331 51.8 85.7443 51.7C85.4555 51.6 85.1668 52.1 85.263 52.3C85.3593 52.5 85.6481 52.7 85.8406 52.7Z" fill="white"/>
<path opacity="0.29" d="M115.968 41.7C114.909 42.7 113.658 43.3 112.214 43.5C112.022 43.5 111.733 43.6 111.444 43.7C111.348 45.9 110.289 47.7 108.942 49.1C108.46 49.6 107.979 50.2 107.498 50.8C107.209 51.1 107.016 51.5 106.728 51.8C106.535 52.1 106.535 52.4 106.728 52.6C107.016 53 107.401 53.5 107.69 53.9C108.268 54.6 108.845 55.3 109.519 56C110.578 57.2 111.252 58.6 111.444 60.2C111.444 60.4 111.54 60.6 111.54 60.8C113.562 60.9 115.198 61.9 116.642 63.3C117.316 63.9 117.893 64.6 118.663 65.1C119.914 66.1 119.722 66.1 120.877 65.1C121.743 64.4 122.513 63.6 123.38 62.8C124.631 61.7 125.978 60.9 127.615 60.7C127.711 60.7 127.904 60.6 128 60.6C128 60.5 128.096 60.5 128.096 60.4C128.096 60.3 128.192 60.1 128.192 59.9C128.385 58.3 129.059 56.9 130.117 55.7C130.695 55 131.369 54.3 131.946 53.6C132.331 53.1 132.716 52.5 133.198 51.9C132.716 51.3 132.331 50.7 131.946 50.2C131.369 49.4 130.695 48.7 130.021 48C129.059 46.9 128.481 45.6 128.289 44.1C128.289 43.8 128.192 43.6 128.096 43.3C127.904 43.3 127.711 43.2 127.615 43.2C125.978 43 124.631 42.3 123.38 41.1C122.706 40.5 122.128 39.9 121.455 39.3C120.973 38.9 120.396 38.5 119.818 38C119.241 38.4 118.663 38.8 118.182 39.3C117.412 40.3 116.738 41 115.968 41.7ZM121.07 42.4C122.417 43.8 123.861 44.9 125.786 45.5C125.978 45.6 126.171 45.7 126.171 45.9C126.748 48.2 128.192 49.8 129.636 51.4C129.829 51.6 130.021 51.9 130.31 52.2C129.829 52.8 129.347 53.4 128.77 53.9C127.615 55.2 126.652 56.6 126.171 58.4C126.075 58.6 125.882 58.9 125.69 58.9C123.957 59.4 122.513 60.5 121.166 61.8C120.685 62.3 120.203 62.7 119.626 63.2C118.952 62.6 118.374 62.1 117.797 61.5C116.642 60.3 115.294 59.4 113.658 58.9C113.369 58.8 113.177 58.6 113.08 58.3C112.599 56.5 111.637 55.1 110.482 53.8C110 53.3 109.519 52.7 109.038 52.1C109.23 51.9 109.327 51.7 109.423 51.5C109.904 50.9 110.482 50.3 110.963 49.7C111.925 48.6 112.599 47.4 112.984 46C113.08 45.5 113.369 45.3 113.754 45.2C115.102 44.8 116.257 44.1 117.316 43.1C118.086 42.4 118.759 41.7 119.529 41C120.203 41.6 120.684 42 121.07 42.4Z" fill="white"/>
<path opacity="0.29" d="M82.1829 41.5C81.0279 42.6 79.6803 43.3 78.1402 43.5C77.9477 43.5 77.7552 43.6 77.5627 43.6C77.5627 43.7 77.4664 43.8 77.4664 43.9C77.2739 45.8 76.5039 47.4 75.2526 48.7C74.5788 49.4 74.0013 50.1 73.4238 50.8C72.365 52.2 72.365 52 73.4238 53.4C74.0975 54.3 74.9638 55.2 75.6376 56C76.6001 57.2 77.2739 58.5 77.4664 60.1C77.4664 60.3 77.5627 60.5 77.5627 60.7C80.6428 61.4 80.7391 61.5 83.1454 63.8C83.8192 64.4 84.3967 65 85.1668 65.5C85.8405 66 85.9368 66 86.5143 65.5C87.3806 64.8 88.2469 64 89.1132 63.2C90.4607 61.8 92.0008 61 93.9259 60.8C94.0221 60.8 94.0221 60.7 94.1184 60.7C94.1184 60.5 94.2147 60.4 94.2147 60.2C94.4072 58.5 95.1772 57.1 96.236 55.9C96.9098 55.2 97.4873 54.5 98.0648 53.8C98.4499 53.3 98.7386 52.8 99.1236 52.3C98.8348 51.9 98.7386 51.6 98.4498 51.3C97.776 50.5 97.1023 49.6 96.4285 48.9C95.1772 47.5 94.3109 46 94.1184 44.1C94.1184 44 94.0222 43.9 94.0222 43.8C93.9259 43.8 93.9259 43.7 93.8296 43.7C93.7334 43.7 93.6371 43.6 93.4446 43.6C91.8083 43.4 90.4607 42.6 89.3057 41.5C88.6319 40.9 87.9581 40.2 87.2844 39.6C86.8031 39.2 86.3218 38.8 85.7443 38.4C85.263 38.7 84.878 39 84.493 39.3C83.7229 40 82.9529 40.7 82.1829 41.5ZM87.4769 42.8C88.7282 44 90.0757 45 91.712 45.5C92.0008 45.6 92.1933 45.7 92.2896 46C92.7709 47.8 93.7334 49.3 94.9847 50.6C95.466 51.1 95.851 51.6 96.4285 52.2C95.851 52.8 95.4659 53.4 94.8884 54C93.7334 55.3 92.7709 56.7 92.2896 58.5C92.1933 58.7 92.0008 59 91.9045 59C89.787 59.6 88.2469 61.1 86.6106 62.6C86.3218 62.9 86.033 63.1 85.7443 63.4C85.0705 62.8 84.493 62.3 83.9155 61.7C82.7604 60.5 81.4129 59.6 79.7766 59.1C79.4878 59 79.2952 58.8 79.199 58.5C78.7177 56.7 77.7552 55.3 76.6001 54C76.1189 53.5 75.6376 52.9 75.1563 52.3C75.3488 52.1 75.4451 51.9 75.5414 51.7C76.0226 51.2 76.4077 50.6 76.8889 50.1C77.9477 49 78.7177 47.7 79.1028 46.1C79.199 45.8 79.2952 45.5 79.6803 45.4C81.3166 44.9 82.6641 44 83.8192 42.8C84.3967 42.2 84.9743 41.7 85.5518 41.1C86.4181 41.7 86.9956 42.2 87.4769 42.8Z" fill="white"/>
<path opacity="0.29" d="M112.695 52.2C113.08 52.8 113.465 53.4 113.947 53.9C114.524 54.6 115.102 55.4 115.776 56C116.738 57 117.797 57.9 118.856 58.8C119.722 59.5 119.818 59.5 120.588 58.8C121.551 58 122.61 57.1 123.476 56.2C124.631 55 125.882 53.8 126.749 52.1C124.823 49.2 122.513 46.8 119.722 44.8C116.931 46.9 114.621 49.3 112.695 52.2ZM123.572 52.3C122.321 53.6 121.07 54.9 119.818 56.2C118.374 55 117.123 53.7 115.872 52.2C117.123 50.9 118.374 49.6 119.626 48.3C121.166 49.5 122.417 50.8 123.572 52.3Z" fill="white"/>
<path opacity="0.29" d="M85.0705 34.5C84.3005 33.8 83.5305 33.1 82.6642 32.4C82.0867 32.7 81.5091 33 80.9316 33.3C81.5091 33.7 82.0867 34.1 82.4717 34.7C80.7391 36.9 77.5627 37.6 74.8676 36.8C74.1938 37.2 73.6163 37.6 73.0388 38.1C76.6964 39.7 81.6054 39.1 85.0705 34.5Z" fill="white"/>
<path opacity="0.29" d="M58.6007 51.8C57.5419 53.3 56.4831 54.8 55.5205 56.3C56.7718 55 57.8306 53.7 58.8894 52.2C58.7932 52.1 58.6969 52 58.6007 51.8Z" fill="white"/>
</g>
<path d="M128.8 111.5C128.8 111.5 131.9 108.4 139.8 107.6C139.8 116.2 139.8 158.9 139.8 158.9C139.8 158.9 125.2 160.7 113.7 176.7C113.7 175.8 116.4 169.6 129.3 156.7C129.2 138.6 128.8 111.1 128.8 111.5Z" fill="white"/>
<path d="M167.6 110C167.6 110 171.1 106.8 178.4 106.5C178.4 115.1 178.4 177.2 178.4 177.2C178.4 177.2 158.7 175 128.6 182.3C135.6 179.4 144.8 174.4 167.6 174.1C167.6 155.1 168 110.4 167.6 110Z" fill="white"/>
<path d="M160.7 95.6L158.4 95.5V89.9H156.7C157.6 85.9 158.1 82 158.1 78C158.1 49.9 134.7 25.9 102.5 20.9L102.1 20.8V31.5C128.5 36 147.5 55.3 147.5 77.9C147.5 83 146.5 88 144.6 93.2L141.8 100.4H147.7C147.7 103.7 148.2 142.6 148.2 163.5C136.1 167.9 126.8 175.4 121.7 179.8C140.1 168.1 161 166.2 161 166.2C161 166.2 161 105.9 161 95.5C160.9 95.5 160.8 95.6 160.7 95.6Z" fill="white"/>
<path d="M75.4 111.5C75.4 111.5 72.3 108.4 64.4 107.6C64.4 116.2 64.4 158.9 64.4 158.9C64.4 158.9 79 160.7 90.5 176.7C90.5 175.8 87.8 169.6 74.9 156.7C75 138.6 75.4 111.1 75.4 111.5Z" fill="white"/>
<path d="M36.5 110C36.5 110 33 106.8 25.7 106.5C25.7 115.1 25.7 177.2 25.7 177.2C25.7 177.2 45.4 175 75.5 182.3C68.5 179.4 59.3 174.4 36.5 174.1C36.5 155.1 36.2 110.4 36.5 110Z" fill="white"/>
<path d="M43.5 95.6L45.8 95.5V89.9H47.5C46.6 85.9 46.1 82 46.1 78C46.1 49.9 69.5 25.9 101.7 20.9L102.1 20.8V31.5C75.7 36 56.7 55.3 56.7 77.9C56.7 83 57.7 88 59.6 93.2L62.4 100.4H56.5C56.5 103.7 56 142.6 56 163.5C68.1 167.9 77.4 175.4 82.5 179.8C64.1 168.1 43.2 166.2 43.2 166.2C43.2 166.2 43.2 105.9 43.2 95.5C43.3 95.5 43.4 95.6 43.5 95.6Z" fill="white"/>
</svg>
