<svg id="bg_dashed" width="113" height="123" viewBox="0 0 113 123" fill="none" xmlns="http://www.w3.org/2000/svg">
<path fill-rule="evenodd" clip-rule="evenodd" d="M3.70021 116.354C5.36389 116.351 6.71645 117.697 6.71972 119.361C6.723 121.026 5.37535 122.377 3.71167 122.38C2.048 122.384 0.697076 121.038 0.693801 119.374C0.688888 117.71 2.03653 116.358 3.70021 116.354Z" fill="#139656"/>
<path fill-rule="evenodd" clip-rule="evenodd" d="M3.70021 93.1133C5.36552 93.11 6.71645 94.456 6.71972 96.1197C6.723 97.785 5.37699 99.1359 3.71167 99.1392C2.04799 99.1425 0.697068 97.7965 0.693793 96.1328C0.690518 94.4691 2.03653 93.1166 3.70021 93.1133Z" fill="#139656"/>
<path fill-rule="evenodd" clip-rule="evenodd" d="M3.70021 69.8721C5.36389 69.8688 6.71645 71.2144 6.71972 72.8793C6.723 74.5425 5.37699 75.8931 3.71167 75.898C2.04799 75.9013 0.697068 74.554 0.693793 72.8908C0.690518 71.2275 2.03653 69.8754 3.70021 69.8721Z" fill="#139656"/>
<path fill-rule="evenodd" clip-rule="evenodd" d="M3.70021 46.626C5.36389 46.6227 6.71645 47.9687 6.71972 49.6324C6.723 51.2977 5.37535 52.6486 3.71167 52.6519C2.04799 52.6568 0.697068 51.3092 0.693793 49.6455C0.690518 47.9818 2.03653 46.6293 3.70021 46.626Z" fill="#139656"/>
<path fill-rule="evenodd" clip-rule="evenodd" d="M3.70021 23.3848C5.36389 23.3815 6.71645 24.7275 6.71972 26.3912C6.723 28.0565 5.37535 29.4074 3.71167 29.4107C2.048 29.414 0.697076 28.068 0.693801 26.4043C0.688888 24.7406 2.0349 23.388 3.70021 23.3848Z" fill="#139656"/>
<path fill-rule="evenodd" clip-rule="evenodd" d="M3.70021 0.141608C5.36552 0.138333 6.71645 1.48434 6.71972 3.14802C6.723 4.81334 5.37699 6.16426 3.71167 6.16753C2.04799 6.17081 0.697068 4.8248 0.693793 3.16112C0.690518 1.4958 2.03653 0.144882 3.70021 0.141608Z" fill="#139656"/>
<path fill-rule="evenodd" clip-rule="evenodd" d="M25.2158 93.1133C26.8795 93.11 28.2321 94.456 28.2353 96.1197C28.2386 97.785 26.891 99.1359 25.2273 99.1392C23.5636 99.1425 22.2127 97.7965 22.2094 96.1328C22.2045 94.4675 23.5522 93.1166 25.2158 93.1133Z" fill="#139656"/>
<path fill-rule="evenodd" clip-rule="evenodd" d="M25.2167 69.8721C26.8799 69.8688 28.2321 71.2144 28.2353 72.8777C28.2386 74.5425 26.8913 75.8931 25.2281 75.898C23.5649 75.9013 22.2143 74.554 22.2094 72.8908C22.2061 71.2275 23.5518 69.8754 25.2167 69.8721Z" fill="#139656"/>
<path fill-rule="evenodd" clip-rule="evenodd" d="M25.2158 46.626C26.8811 46.6227 28.2321 47.9687 28.2353 49.6324C28.2386 51.2977 26.8926 52.6486 25.2273 52.6519C23.5636 52.6552 22.2127 51.3092 22.2094 49.6455C22.2061 47.9818 23.5522 46.6293 25.2158 46.626Z" fill="#139656"/>
<path fill-rule="evenodd" clip-rule="evenodd" d="M25.2158 23.3848C26.8795 23.3815 28.2321 24.7275 28.2353 26.3912C28.2386 28.0565 26.891 29.4074 25.2273 29.4107C23.5636 29.414 22.2127 28.068 22.2094 26.4043C22.2061 24.7406 23.5522 23.388 25.2158 23.3848Z" fill="#139656"/>
<path fill-rule="evenodd" clip-rule="evenodd" d="M25.2158 0.141608C26.8795 0.138333 28.2321 1.48398 28.2353 3.1472C28.2386 4.81207 26.891 6.16426 25.2273 6.16753C23.5636 6.17081 22.2127 4.82353 22.2094 3.1603C22.2061 1.49707 23.5522 0.144882 25.2158 0.141608Z" fill="#139656"/>
<path fill-rule="evenodd" clip-rule="evenodd" d="M46.7344 69.8721C48.3981 69.8688 49.7506 71.2148 49.7539 72.8785C49.7572 74.5438 48.4095 75.8947 46.7458 75.898C45.0822 75.9013 43.7312 74.5553 43.728 72.8916C43.7247 71.2279 45.0707 69.8754 46.7344 69.8721Z" fill="#139656"/>
<path fill-rule="evenodd" clip-rule="evenodd" d="M46.7344 46.626C48.3981 46.6227 49.7506 47.9687 49.7539 49.6324C49.7572 51.2977 48.4095 52.6486 46.7459 52.6519C45.0822 52.6552 43.7313 51.3092 43.728 49.6455C43.7231 47.9802 45.0707 46.6293 46.7344 46.626Z" fill="#139656"/>
<path fill-rule="evenodd" clip-rule="evenodd" d="M46.7344 23.3848C48.3997 23.3831 49.7506 24.7271 49.7539 26.392C49.7572 28.0552 48.4112 29.4074 46.7458 29.4107C45.0822 29.414 43.7312 28.0667 43.728 26.4035C43.7247 24.7402 45.0707 23.388 46.7344 23.3848Z" fill="#139656"/>
<path fill-rule="evenodd" clip-rule="evenodd" d="M46.7344 0.141608C48.3981 0.138333 49.7506 1.48398 49.7539 3.1472C49.7572 4.81207 48.4095 6.16262 46.7458 6.16753C45.0822 6.17081 43.7312 4.82353 43.728 3.1603C43.7247 1.49707 45.0707 0.144882 46.7344 0.141608Z" fill="#139656"/>
<path fill-rule="evenodd" clip-rule="evenodd" d="M68.2676 46.626C69.9313 46.6227 71.2838 47.9684 71.2871 49.6332C71.2904 51.2964 69.9427 52.6486 68.2791 52.6519C66.6154 52.6552 65.2645 51.3079 65.2612 49.6447C65.2579 47.9814 66.6039 46.6293 68.2676 46.626Z" fill="#139656"/>
<path fill-rule="evenodd" clip-rule="evenodd" d="M68.2676 23.3848C69.9313 23.3815 71.2838 24.7271 71.2871 26.3904C71.2904 28.0552 69.9427 29.4074 68.2791 29.4107C66.6154 29.414 65.2645 28.0667 65.2612 26.4035C65.2563 24.7402 66.6039 23.388 68.2676 23.3848Z" fill="#139656"/>
<path fill-rule="evenodd" clip-rule="evenodd" d="M68.2684 0.141608C69.9316 0.138333 71.2838 1.48434 71.2871 3.14802C71.2904 4.81333 69.9431 6.16425 68.2799 6.16753C66.6166 6.17244 65.2645 4.8248 65.2612 3.16112C65.2579 1.49744 66.6035 0.144882 68.2684 0.141608Z" fill="#139656"/>
<path fill-rule="evenodd" clip-rule="evenodd" d="M88.918 23.3848C90.5817 23.3815 91.9342 24.7271 91.9375 26.3904C91.9408 28.0552 90.5931 29.4074 88.9294 29.4107C87.2658 29.414 85.9148 28.0667 85.9116 26.4035C85.9067 24.7402 87.2543 23.388 88.918 23.3848Z" fill="#139656"/>
<path fill-rule="evenodd" clip-rule="evenodd" d="M88.9188 0.141608C90.582 0.138333 91.9342 1.48434 91.9375 3.14802C91.9408 4.81333 90.5935 6.16425 88.9303 6.16753C87.267 6.17244 85.9148 4.8248 85.9116 3.16112C85.9083 1.49744 87.2539 0.144882 88.9188 0.141608Z" fill="#139656"/>
<mask id="mask0" mask-type="alpha" maskUnits="userSpaceOnUse" x="106" y="0" width="7" height="7">
<path fill-rule="evenodd" clip-rule="evenodd" d="M112.605 0.0996094H106.27V6.43548H112.605V0.0996094Z" fill="white"/>
</mask>
<g mask="url(#mask0)">
<path fill-rule="evenodd" clip-rule="evenodd" d="M109.431 0.0996156C111.18 0.0961723 112.602 1.51141 112.605 3.26065C112.609 5.01162 111.194 6.43202 109.443 6.43546C107.693 6.44063 106.273 5.02367 106.27 3.27443C106.266 1.52518 107.681 0.103059 109.431 0.0996156Z" fill="#139656"/>
</g>
</svg>
