<svg width="217" height="113" viewBox="0 0 217 113" fill="none" xmlns="http://www.w3.org/2000/svg">
<path d="M0 56.4217C10.0709 46.9558 14.9462 37.9881 17.5262 31.2801C19.1631 27.0276 23.5046 14.3056 30.1236 7.77555C33.273 4.66177 36.9918 2.72233 36.9918 2.72233C39.981 1.17434 42.6855 0.462615 44.5538 0.106754C86.7767 0.0711678 128.982 0.0355861 171.205 0C173.411 0.551584 176.436 1.5302 179.745 3.3095C180.795 3.87888 182.984 5.07101 185.315 7.02825C187.219 8.61183 189.976 11.3342 193.855 18.3268C195.777 21.7787 196.133 22.9886 198.731 28.629C205.706 43.7887 209.157 48.2903 210.83 50.3365C213.125 53.1478 215.278 55.194 216.666 56.4217C207.503 66.2968 202.859 74.7663 200.296 80.7804C197.752 86.741 194.514 92.3814 191.756 98.2709C190.919 100.068 189.425 103.253 186.329 106.509C183.838 109.107 181.276 110.744 179.461 111.74C87.4884 112.221 53.8774 112.452 50.5323 112.541C49.0021 112.577 47.4007 112.505 44.1801 112.363C41.6713 112.256 40.5504 112.149 39.2159 111.722C38.4152 111.473 36.9028 110.904 34.9989 109.463C29.8034 105.513 25.8177 98.093 24.6968 95.94C22.6861 92.0789 22.5972 91.0469 19.4656 85.0863C19.0919 84.3746 18.1667 82.6131 16.9034 80.3711C15.5333 77.9157 13.0779 73.5742 10.0709 69.1259C7.82894 65.763 4.53723 61.3326 0 56.4217Z" fill="#129D59"/>
<path d="M42.6045 31.1458V39.6864H43.9034C44.0813 39.6864 44.2592 39.6509 44.4194 39.5797C44.5795 39.5085 44.7397 39.4196 44.8642 39.3128C44.9888 39.1882 45.0777 39.0637 45.1489 38.9036C45.2201 38.7434 45.2556 38.5833 45.2556 38.4053V31.1458H47.3196V38.4053C47.3196 38.868 47.2307 39.295 47.0527 39.7042C46.8748 40.1135 46.6257 40.4693 46.3232 40.7718C46.0208 41.0743 45.6471 41.3056 45.2379 41.4835C44.8286 41.6615 44.3838 41.7504 43.9212 41.7504H37.8182C37.7292 42.4266 37.5157 43.0315 37.1776 43.5298C36.8395 44.0457 36.4303 44.4728 35.9321 44.8286C35.4517 45.1667 34.9001 45.4336 34.2951 45.5937C33.6902 45.7717 33.0674 45.8606 32.4447 45.8606C31.7685 45.8606 31.0924 45.7539 30.4341 45.5582C29.7757 45.3624 29.2063 45.06 28.6903 44.6685C28.1921 44.2593 27.7829 43.7611 27.4626 43.1739C27.1423 42.5867 27 41.8928 27 41.0743V33.0852H29.0818V41.0743C29.0818 41.5191 29.1707 41.9284 29.3665 42.2486C29.5622 42.5867 29.8113 42.8714 30.1316 43.1027C30.4518 43.334 30.8077 43.4942 31.1992 43.6009C31.6084 43.7255 32.0176 43.7789 32.4447 43.7789C32.8717 43.7789 33.2809 43.7255 33.6902 43.6009C34.0994 43.4942 34.4553 43.3162 34.7578 43.1027C35.078 42.8714 35.3271 42.5867 35.5051 42.2486C35.7008 41.9106 35.8076 41.5191 35.8076 41.0743V31.1458H37.9071V39.6864H40.5583V31.1458H42.6045ZM50.2021 31.128C51.4654 31.128 52.5508 31.2347 53.4404 31.4483C54.3301 31.6618 55.0774 31.9821 55.6468 32.4091C56.2162 32.8183 56.6432 33.3343 56.9101 33.9571C57.177 34.562 57.3193 35.2738 57.3193 36.0745V38.3876C57.3193 38.8502 57.2304 39.295 57.0524 39.7042C56.8745 40.1135 56.6254 40.4693 56.3229 40.7718C56.0204 41.0743 55.6468 41.3056 55.2375 41.4835C54.8283 41.6615 54.3835 41.7504 53.9031 41.7504H49.6327V39.6864H53.9031C54.081 39.6864 54.2589 39.6509 54.4191 39.5797C54.5792 39.5085 54.7393 39.4196 54.8639 39.295C54.9884 39.1704 55.0774 39.0459 55.1486 38.8858C55.2198 38.7256 55.2553 38.5655 55.2553 38.3876V36.0745C55.2553 35.6118 55.1664 35.2026 54.9706 34.8645C54.7927 34.5087 54.4902 34.2062 54.081 33.9749C53.6718 33.7258 53.1558 33.5478 52.533 33.4233C51.8925 33.2987 51.1274 33.2454 50.2377 33.2454V31.128H50.2021ZM61.7142 27.0356V38.352C61.7142 38.5299 61.7498 38.7078 61.821 38.868C61.8921 39.0281 61.9811 39.1704 62.1057 39.295C62.2302 39.4196 62.3726 39.5085 62.5327 39.5797C62.6928 39.6509 62.8708 39.6864 63.0487 39.6864H64.0273V41.7504H63.0487C62.5861 41.7504 62.1412 41.6615 61.732 41.4835C61.3228 41.3056 60.9669 41.0565 60.6466 40.754C60.3441 40.4516 60.095 40.0957 59.9171 39.6864C59.7392 39.2772 59.6502 38.8324 59.6502 38.3698V27.0356H61.7142ZM78.5108 31.1458V39.6864H80.6282V41.7504H63.1021V39.6864H66.9632V31.1458H69.0272V39.6864H71.6961V31.1458H73.7601V39.6864H76.4468V31.1458H78.5108ZM84.0978 27.0356V38.352C84.0978 38.8146 84.0089 39.2594 83.8309 39.6687C83.653 40.0779 83.4217 40.4338 83.1014 40.7362C82.799 41.0387 82.4253 41.2878 82.0161 41.4658C81.6068 41.6437 81.162 41.7327 80.6994 41.7327H79.7208V39.6687H80.6994C80.8773 39.6687 81.0552 39.6331 81.2154 39.5619C81.3755 39.4907 81.5179 39.4018 81.6424 39.2772C81.767 39.1527 81.8559 39.0103 81.9271 38.8502C81.9983 38.69 82.0339 38.5121 82.0339 38.3342V27H84.0978V27.0356ZM88.4749 27.0356V41.7682H86.4109V27.0356H88.4749ZM94.9516 31.128C96.2149 31.128 97.3003 31.2347 98.2077 31.4483C99.0974 31.6618 99.8447 31.9821 100.414 32.4091C100.983 32.8183 101.393 33.3343 101.66 33.9571C101.926 34.562 102.069 35.2738 102.069 36.0745V39.6864H104.186V41.7504H94.3822V39.6864H100.005V36.0745C100.005 35.6118 99.9159 35.2026 99.7201 34.8645C99.5244 34.5087 99.2397 34.2062 98.8305 33.9749C98.4212 33.7258 97.9052 33.5478 97.2825 33.4233C96.6419 33.2987 95.8768 33.2454 94.9872 33.2454V31.128H94.9516ZM103.261 39.6864H105.556C105.503 39.4729 105.449 39.2594 105.432 39.0459C105.396 38.8146 105.396 38.5833 105.396 38.352V35.9855C105.396 35.3272 105.521 34.7044 105.77 34.1172C106.019 33.5301 106.357 33.0141 106.784 32.5692C107.211 32.1244 107.727 31.7863 108.296 31.5372C108.866 31.2881 109.489 31.1458 110.129 31.1458C110.787 31.1458 111.392 31.2703 111.962 31.5372C112.531 31.8041 113.047 32.16 113.474 32.6048C113.919 33.0496 114.257 33.5656 114.506 34.1528C114.755 34.74 114.88 35.3449 114.88 35.9855V38.3698C114.88 38.6011 114.88 38.8324 114.844 39.0459C114.809 39.2594 114.755 39.4729 114.702 39.6864H116.997V41.7504H113.51C113.065 42.1953 112.567 42.5511 111.98 42.818C111.41 43.0849 110.787 43.2095 110.129 43.2095C109.471 43.2095 108.848 43.0849 108.261 42.818C107.691 42.5689 107.193 42.2131 106.748 41.7504H103.261V39.6864ZM110.111 33.2276C109.738 33.2276 109.4 33.2987 109.079 33.4411C108.759 33.5834 108.474 33.7792 108.243 34.0283C107.994 34.2774 107.816 34.562 107.674 34.9001C107.531 35.2382 107.46 35.594 107.46 35.9677V38.352C107.46 38.7434 107.531 39.0993 107.674 39.4373C107.816 39.7754 107.994 40.0601 108.243 40.327C108.492 40.5761 108.759 40.7718 109.079 40.9142C109.4 41.0565 109.755 41.1277 110.111 41.1277C110.485 41.1277 110.823 41.0565 111.143 40.9142C111.464 40.7718 111.748 40.5761 111.997 40.327C112.246 40.0779 112.442 39.7754 112.585 39.4373C112.727 39.0993 112.798 38.7434 112.798 38.3698V35.9855C112.798 35.6118 112.727 35.256 112.585 34.9357C112.442 34.5976 112.246 34.3129 111.997 34.0638C111.748 33.8147 111.464 33.6012 111.143 33.4589C110.823 33.2987 110.467 33.2276 110.111 33.2276ZM118.065 32.1778C118.26 32.0888 118.527 31.9821 118.848 31.8575C119.168 31.733 119.524 31.6084 119.915 31.5016C120.307 31.3949 120.716 31.3059 121.143 31.2347C121.57 31.1636 121.997 31.128 122.406 31.128C123.011 31.128 123.581 31.1992 124.15 31.3415C124.719 31.4839 125.235 31.7507 125.68 32.1244C126.125 32.4981 126.499 32.9963 126.766 33.6546C127.05 34.2952 127.175 35.0958 127.175 36.0922V39.7042H129.292V41.7682H116.054V39.7042H125.093V36.0922C125.093 35.5229 125.004 35.0603 124.844 34.6866C124.684 34.3129 124.488 34.0283 124.239 33.8147C123.99 33.6012 123.705 33.4411 123.367 33.3521C123.047 33.2632 122.709 33.2276 122.371 33.2276C122.05 33.2276 121.712 33.2632 121.374 33.3165C121.036 33.3699 120.716 33.4411 120.413 33.53C120.111 33.619 119.826 33.708 119.559 33.7969C119.31 33.8859 119.097 33.9749 118.937 34.046L118.065 32.1778ZM128.385 39.6864H130.68C130.627 39.4729 130.573 39.2594 130.555 39.0459C130.52 38.8146 130.52 38.5833 130.52 38.352V35.9855C130.52 35.3272 130.644 34.7044 130.894 34.1172C131.143 33.5301 131.481 33.0141 131.908 32.5692C132.335 32.1244 132.833 31.7863 133.402 31.5372C133.972 31.2881 134.594 31.1458 135.253 31.1458C135.911 31.1458 136.516 31.2703 137.086 31.5372C137.655 31.8041 138.171 32.16 138.598 32.6048C139.025 33.0496 139.363 33.5656 139.612 34.1528C139.861 34.74 139.986 35.3449 139.986 35.9855V38.3698C139.986 39.0281 139.861 39.6331 139.612 40.2202C139.363 40.8074 139.025 41.3234 138.598 41.7504C138.171 42.1953 137.655 42.5511 137.086 42.818C136.516 43.0849 135.893 43.2095 135.253 43.2095C134.577 43.2095 133.954 43.0849 133.367 42.818C132.797 42.5689 132.299 42.2131 131.872 41.7504H128.385V39.6864ZM135.253 33.2276C134.879 33.2276 134.523 33.2987 134.203 33.4411C133.883 33.5834 133.598 33.7792 133.367 34.0283C133.118 34.2774 132.94 34.562 132.797 34.9001C132.655 35.2382 132.584 35.594 132.584 35.9677V38.352C132.584 38.7434 132.655 39.0993 132.797 39.4373C132.94 39.7754 133.118 40.0601 133.367 40.327C133.616 40.5761 133.883 40.7718 134.203 40.9142C134.523 41.0565 134.879 41.1277 135.253 41.1277C135.626 41.1277 135.965 41.0565 136.285 40.9142C136.605 40.7718 136.89 40.5761 137.139 40.327C137.388 40.0779 137.584 39.7754 137.726 39.4373C137.868 39.0993 137.94 38.7434 137.94 38.3698V35.9855C137.94 35.6118 137.868 35.256 137.726 34.9357C137.584 34.5976 137.388 34.3129 137.139 34.0638C136.89 33.8147 136.605 33.6012 136.285 33.4589C135.965 33.2987 135.626 33.2276 135.253 33.2276ZM157.565 39.6864V41.7504H153.366V35.9855C153.366 35.6118 153.295 35.256 153.153 34.9357C153.01 34.5976 152.815 34.3129 152.565 34.0638C152.316 33.8147 152.032 33.6012 151.694 33.4589C151.373 33.2987 151.017 33.2276 150.644 33.2276C150.27 33.2276 149.914 33.2987 149.576 33.4411C149.256 33.5834 148.953 33.7792 148.704 34.046C148.455 34.2951 148.277 34.5976 148.117 34.9357C147.975 35.2738 147.904 35.6474 147.904 36.0389V38.3698C147.904 38.5477 147.939 38.7256 148.01 38.8858C148.082 39.0459 148.171 39.1704 148.295 39.295C148.42 39.4196 148.544 39.5085 148.704 39.5797C148.864 39.6509 149.042 39.6864 149.22 39.6864H151.48V41.7504H149.22C148.758 41.7504 148.313 41.6615 147.904 41.4835C147.494 41.3056 147.139 41.0743 146.836 40.754C146.534 40.4516 146.285 40.0957 146.107 39.6864C145.929 39.2772 145.84 38.8324 145.84 38.3698V36.0389C145.84 35.3627 145.964 34.7222 146.213 34.135C146.462 33.53 146.818 33.0141 147.245 32.587C147.672 32.1422 148.188 31.7863 148.776 31.5372C149.363 31.2703 149.985 31.1458 150.644 31.1458C151.302 31.1458 151.925 31.2703 152.512 31.5372C153.099 31.7863 153.597 32.1422 154.042 32.587C154.487 33.0318 154.825 33.5478 155.074 34.135C155.323 34.7222 155.448 35.3272 155.448 35.9855V39.6864H157.565ZM151.213 28.0854C151.213 27.943 151.231 27.8007 151.284 27.6761C151.338 27.5516 151.427 27.427 151.516 27.3381C151.622 27.2313 151.729 27.1601 151.854 27.1068C151.978 27.0534 152.121 27.0178 152.263 27.0178C152.405 27.0178 152.548 27.0534 152.672 27.1068C152.797 27.1601 152.921 27.2313 153.01 27.3381C153.099 27.427 153.17 27.5516 153.224 27.6761C153.277 27.8007 153.313 27.943 153.313 28.0854C153.313 28.3701 153.206 28.6192 153.01 28.8327C152.815 29.0284 152.565 29.1352 152.263 29.1352C152.121 29.1352 151.978 29.1174 151.854 29.064C151.729 29.0106 151.622 28.9216 151.516 28.8327C151.427 28.7437 151.338 28.637 151.284 28.5124C151.231 28.3701 151.213 28.2277 151.213 28.0854ZM148.099 28.0854C148.099 27.943 148.117 27.8007 148.171 27.6761C148.224 27.5516 148.313 27.427 148.402 27.3381C148.509 27.2313 148.615 27.1601 148.74 27.1068C148.865 27.0534 149.007 27.0178 149.149 27.0178C149.292 27.0178 149.434 27.0534 149.558 27.1068C149.683 27.1601 149.808 27.2313 149.896 27.3381C150.003 27.427 150.074 27.5516 150.128 27.6761C150.181 27.8007 150.217 27.943 150.217 28.0854C150.217 28.2277 150.181 28.3701 150.128 28.4946C150.074 28.6192 150.003 28.7259 149.896 28.8149C149.808 28.9039 149.683 28.9928 149.558 29.0462C149.434 29.0996 149.292 29.1174 149.149 29.1174C149.007 29.1174 148.865 29.0996 148.74 29.0462C148.615 28.9928 148.509 28.9039 148.402 28.8149C148.313 28.7259 148.224 28.6192 148.171 28.4946C148.135 28.3701 148.099 28.2277 148.099 28.0854ZM160.857 31.1458V33.0141C161.213 32.7472 161.587 32.4981 161.978 32.2667C162.387 32.0354 162.796 31.8397 163.223 31.6796C163.651 31.5194 164.095 31.3771 164.522 31.2881C164.967 31.1992 165.394 31.1458 165.821 31.1458C166.426 31.1458 166.996 31.2347 167.547 31.4127C168.099 31.5906 168.579 31.8753 168.988 32.2667C169.398 32.6582 169.718 33.1564 169.949 33.7969C170.198 34.4197 170.305 35.1848 170.305 36.0922V39.6864H172.422V41.7504H156.658V39.6864H158.775V31.1458H160.857ZM165.839 33.2276C165.465 33.2276 165.092 33.2632 164.683 33.3521C164.291 33.4411 163.917 33.5656 163.544 33.708C163.17 33.8503 162.832 34.0283 162.512 34.2418C162.191 34.4375 161.907 34.6688 161.658 34.9179C161.426 35.167 161.231 35.4161 161.071 35.6652C160.928 35.9321 160.857 36.199 160.857 36.4481V39.6687H168.223V36.0745C168.223 35.5407 168.152 35.1136 168.028 34.7578C167.903 34.3841 167.725 34.0994 167.512 33.8681C167.298 33.6368 167.031 33.4767 166.746 33.3699C166.462 33.2809 166.159 33.2276 165.839 33.2276ZM174.202 28.0854C174.202 27.943 174.22 27.8007 174.273 27.6761C174.326 27.5516 174.415 27.427 174.504 27.3381C174.611 27.2313 174.718 27.1601 174.842 27.1068C174.967 27.0534 175.109 27.0178 175.252 27.0178C175.394 27.0178 175.536 27.0534 175.661 27.1068C175.785 27.1601 175.91 27.2313 175.999 27.3381C176.088 27.427 176.159 27.5516 176.212 27.6761C176.266 27.8007 176.301 27.943 176.301 28.0854C176.301 28.3701 176.195 28.6192 175.999 28.8327C175.803 29.0462 175.554 29.1352 175.252 29.1352C175.109 29.1352 174.967 29.1174 174.842 29.064C174.718 29.0106 174.611 28.9216 174.504 28.8327C174.415 28.7437 174.326 28.637 174.273 28.5124C174.22 28.3701 174.202 28.2277 174.202 28.0854ZM177.12 31.1458V39.6864H179.237V41.7504H171.497V39.6864H175.038V31.1458H177.12ZM178.33 39.6864H180.625C180.572 39.4729 180.518 39.2594 180.501 39.0459C180.465 38.8146 180.465 38.5833 180.465 38.352V35.9855C180.465 35.3272 180.589 34.7044 180.839 34.1172C181.088 33.5301 181.426 33.0141 181.853 32.5692C182.28 32.1244 182.778 31.7863 183.347 31.5372C183.917 31.2881 184.54 31.1458 185.198 31.1458C185.856 31.1458 186.461 31.2703 187.031 31.5372C187.6 31.8041 188.116 32.16 188.543 32.6048C188.97 33.0496 189.308 33.5656 189.557 34.1528C189.806 34.74 189.931 35.3449 189.931 35.9855V38.3698C189.931 39.0281 189.806 39.6331 189.557 40.2202C189.308 40.8074 188.97 41.3234 188.543 41.7504C188.116 42.1953 187.6 42.5511 187.031 42.818C186.461 43.0849 185.838 43.2095 185.198 43.2095C184.522 43.2095 183.899 43.0849 183.312 42.818C182.742 42.5689 182.244 42.2131 181.817 41.7504H178.33V39.6864ZM185.198 33.2276C184.824 33.2276 184.468 33.2987 184.148 33.4411C183.828 33.5834 183.543 33.7792 183.312 34.0283C183.063 34.2774 182.885 34.562 182.742 34.9001C182.6 35.2382 182.529 35.594 182.529 35.9677V38.352C182.529 38.7434 182.6 39.0993 182.742 39.4373C182.885 39.7754 183.063 40.0601 183.312 40.327C183.561 40.5761 183.828 40.7718 184.148 40.9142C184.468 41.0565 184.824 41.1277 185.198 41.1277C185.572 41.1277 185.91 41.0565 186.23 40.9142C186.55 40.7718 186.835 40.5761 187.084 40.327C187.333 40.0779 187.529 39.7754 187.671 39.4373C187.813 39.0993 187.885 38.7434 187.885 38.3698V35.9855C187.885 35.6118 187.813 35.256 187.671 34.9357C187.529 34.5976 187.333 34.3129 187.084 34.0638C186.835 33.8147 186.55 33.6012 186.23 33.4589C185.91 33.2987 185.572 33.2276 185.198 33.2276Z" fill="white"/>
<path d="M42.9211 78.7067C42.1738 78.7067 41.5511 78.6177 41.0707 78.422C40.5902 78.2263 40.1988 78.0305 39.9319 77.7992C39.6472 77.5857 39.4515 77.3722 39.3447 77.1765C39.238 76.9807 39.1668 76.8918 39.149 76.8918C39.06 77.0341 38.9177 77.1765 38.7398 77.3544C38.5618 77.5323 38.3661 77.6925 38.1526 77.8704C37.9391 78.0483 37.7434 78.1907 37.5476 78.333C37.3519 78.4754 37.1918 78.5465 37.0672 78.5999H31.1955C30.4838 78.5999 29.8077 78.5287 29.1849 78.3686C28.5621 78.2085 28.0106 77.9771 27.5301 77.6391C27.0497 77.301 26.6761 76.8918 26.4092 76.3758C26.1423 75.8598 25.9999 75.237 25.9999 74.5253C25.9999 73.867 26.0711 73.2798 26.2135 72.7638C26.3558 72.23 26.5693 71.7318 26.8362 71.2692C27.1031 70.8066 27.4412 70.3439 27.8326 69.9169C28.2241 69.4721 28.6689 69.0273 29.1493 68.5646H29.5408V68.7426C29.2027 69.1162 28.8646 69.4543 28.5621 69.7924C28.2419 70.1126 27.975 70.4507 27.7437 70.7888C27.5123 71.1268 27.3344 71.5005 27.1921 71.8741C27.0497 72.2656 26.9786 72.6926 26.9786 73.1908C26.9786 73.7424 27.0497 74.205 27.1743 74.5965C27.2988 74.9879 27.4768 75.326 27.7081 75.5929C27.9394 75.8598 28.2063 76.0733 28.5265 76.2334C28.8468 76.3936 29.1849 76.5181 29.5586 76.6071C29.7543 76.6427 29.9678 76.696 30.2347 76.7138C30.4838 76.7494 30.8574 76.7672 31.3201 76.785C31.8005 76.8028 32.4232 76.8028 33.1883 76.8028C33.9534 76.8028 34.9676 76.8028 36.2132 76.8028C36.2843 76.8028 36.4445 76.785 36.6758 76.7672C36.9071 76.7316 37.1562 76.6783 37.4053 76.6071C37.6544 76.5181 37.8857 76.4114 38.0814 76.269C38.2771 76.1267 38.3839 75.9132 38.3839 75.6641C38.117 75.4327 37.8501 75.1658 37.5654 74.8812C37.2807 74.5965 37.1384 74.2584 37.1384 73.8314C37.1384 73.4399 37.2096 73.0485 37.3519 72.657C37.4943 72.2656 37.69 71.8919 37.9213 71.5717C38.1704 71.2514 38.4551 70.9845 38.7931 70.771C39.1312 70.5575 39.4871 70.4685 39.8429 70.4685C40.4835 70.4685 40.9461 70.682 41.2486 71.109C41.5511 71.5361 41.7112 72.0165 41.7112 72.5503C41.7112 72.9239 41.6578 73.2798 41.5333 73.6001C41.4087 73.9381 41.2664 74.2406 41.1062 74.5253C40.9461 74.81 40.786 75.0769 40.608 75.2904C40.4479 75.5039 40.3234 75.6996 40.2344 75.842C40.3056 76.0199 40.4123 76.1978 40.5725 76.3758C40.7148 76.5537 40.9283 76.696 41.1774 76.8028C41.2664 76.8384 41.3909 76.8562 41.5511 76.874C41.7112 76.8918 41.8891 76.8918 42.0671 76.8918C42.245 76.8918 42.4229 76.8918 42.5831 76.8918C42.7432 76.8918 42.8678 76.8918 42.9389 76.8918V78.7067H42.9211ZM39.9319 81.3045C39.9319 81.6247 39.8251 81.856 39.6294 82.0517C39.4337 82.2297 39.1846 82.3364 38.8999 82.3364C38.6152 82.3364 38.3661 82.2475 38.1704 82.0517C37.9747 81.8738 37.8857 81.6247 37.8857 81.3045C37.8857 80.9842 37.9747 80.7351 38.1704 80.5571C38.3661 80.3614 38.5974 80.2724 38.8999 80.2724C39.2024 80.2724 39.4337 80.3614 39.6294 80.5571C39.8429 80.7351 39.9319 80.9842 39.9319 81.3045ZM39.6294 74.4719C39.8785 74.4719 40.092 74.3652 40.2344 74.1517C40.3945 73.9381 40.4657 73.7602 40.4657 73.6179C40.4657 73.2976 40.3945 72.9773 40.2344 72.6926C40.0742 72.4079 39.8251 72.2656 39.4871 72.2656C39.238 72.2656 38.9711 72.3368 38.722 72.4613C38.4551 72.5859 38.3305 72.8172 38.3305 73.1374L39.6294 74.4719Z" fill="white"/>
<path d="M42.476 76.8564H45.2339C45.4652 76.8564 45.7143 76.8208 45.9812 76.7497C46.2481 76.6785 46.4794 76.5717 46.7107 76.4294C46.9242 76.2871 47.1199 76.1091 47.2801 75.9134C47.4402 75.7177 47.547 75.4864 47.6003 75.2373C47.5648 74.7213 47.3334 74.2764 46.9242 73.9206C46.8886 73.885 46.8175 73.8316 46.7285 73.7782C46.6395 73.7249 46.5683 73.6715 46.4794 73.6003C46.3904 73.5291 46.3192 73.458 46.2481 73.3868C46.1769 73.3156 46.1413 73.2445 46.1413 73.1733C46.1413 73.1021 46.1591 72.9954 46.1769 72.853C46.2125 72.7107 46.2303 72.5683 46.2659 72.4082C46.3015 72.248 46.337 72.1057 46.3726 71.9811C46.4082 71.8566 46.4438 71.7676 46.4794 71.732C46.5328 71.5897 46.6217 71.5363 46.7463 71.5363C46.9776 71.6253 47.2267 71.7854 47.458 71.9989C47.6893 72.2124 47.9028 72.4616 48.0986 72.7462C48.2943 73.0131 48.4544 73.2978 48.5612 73.5825C48.6857 73.8672 48.7391 74.0985 48.7391 74.2942C48.6146 75.0949 48.3832 75.86 48.0096 76.6073C47.6537 77.3546 47.1021 77.924 46.3904 78.3511C46.1769 78.4756 45.8388 78.5646 45.3584 78.6357C45.1271 78.6713 44.7535 78.6891 44.2553 78.7069C43.757 78.7247 43.1521 78.7247 42.4404 78.7247V76.8564H42.476ZM45.1449 81.0022C45.1449 81.3047 45.0559 81.5538 44.8602 81.7317C44.6645 81.9275 44.4154 82.0164 44.1307 82.0164C43.8282 82.0164 43.5969 81.9275 43.4012 81.7317C43.2055 81.536 43.1165 81.3047 43.1165 81.0022C43.1165 80.6819 43.2055 80.4328 43.4012 80.2371C43.5969 80.0414 43.846 79.9524 44.1307 79.9524C44.4332 79.9524 44.6645 80.0414 44.8602 80.2371C45.0382 80.4328 45.1449 80.6819 45.1449 81.0022ZM47.4046 80.931C47.4046 81.2335 47.3157 81.4826 47.1199 81.6606C46.9242 81.8563 46.6751 81.9453 46.3904 81.9453C46.0879 81.9453 45.8566 81.8563 45.6609 81.6606C45.4652 81.4648 45.3762 81.2335 45.3762 80.931C45.3762 80.6108 45.4652 80.3617 45.6609 80.1659C45.8566 79.9702 46.1057 79.8813 46.3904 79.8813C46.6929 79.8813 46.9242 79.9702 47.1199 80.1659C47.3157 80.3617 47.4046 80.6286 47.4046 80.931Z" fill="white"/>
<path d="M42.2092 86.4461C42.6896 86.5173 43.1167 86.5885 43.4903 86.6419C43.864 86.6953 44.3088 86.713 44.7892 86.713C46.8354 86.713 48.6859 86.286 50.3407 85.4142C51.9954 84.5423 53.3655 83.2078 54.4331 81.4285C54.611 81.0904 54.7711 80.7346 54.8957 80.3431C55.0202 79.9517 55.0914 79.5602 55.0914 79.151C55.0914 78.9197 55.038 78.6884 54.9491 78.4571C54.8601 78.2436 54.7355 78.03 54.5932 77.8521C54.4508 77.6742 54.2907 77.4962 54.1128 77.3361C53.9349 77.176 53.7569 77.0336 53.5968 76.9091V76.4109C53.5968 76.2863 53.5968 76.144 53.6146 75.966C53.6146 75.7881 53.6502 75.6102 53.7213 75.45C53.7747 75.2899 53.8637 75.1476 53.9704 75.0408C54.0772 74.934 54.2373 74.8807 54.4508 74.8807L54.7889 74.9696C55.0914 75.3433 55.3405 75.6458 55.5718 75.8949C55.8031 76.144 56.0166 76.3397 56.2479 76.4642C56.4793 76.6066 56.7284 76.7134 56.9953 76.7667C57.2622 76.8201 57.5824 76.8557 57.9739 76.8557H58.2586V78.7062H56.2124C56.07 80.0406 55.7142 81.2506 55.127 82.336C54.5398 83.4213 53.7925 84.3466 52.9029 85.1117C52.0132 85.8768 50.9812 86.4639 49.8602 86.891C48.7393 87.318 47.5471 87.5315 46.3194 87.5315C45.6433 87.5315 44.9672 87.4604 44.291 87.3358C43.6149 87.2112 42.9565 86.9977 42.2626 86.7308C42.2092 86.6953 42.1736 86.6419 42.1736 86.5707C42.1736 86.5173 42.1914 86.4639 42.2092 86.4461Z" fill="white"/>
<path d="M57.8671 76.8556H58.134C58.6856 76.8556 59.166 76.7488 59.5752 76.5175C59.9845 76.304 60.3581 76.0193 60.6962 75.6812C61.0343 75.3432 61.3367 74.9873 61.6214 74.6136C61.9061 74.24 62.2086 73.8841 62.4933 73.5816C62.5289 73.5461 62.5645 73.5105 62.6178 73.5105C62.6712 73.5105 62.7246 73.4927 62.7602 73.4927C63.0449 73.4927 63.1872 73.635 63.1872 73.9197C63.1516 74.151 63.1161 74.4001 63.0449 74.6492C62.9737 74.8983 62.9381 75.1296 62.9381 75.3787C62.9381 75.8058 63.0982 76.1439 63.4363 76.4107C63.7744 76.6598 64.1658 76.7844 64.6107 76.7844C65.0377 76.7488 65.358 76.6421 65.5359 76.4997C65.7316 76.3574 65.8562 76.1616 65.9273 75.9481C65.9985 75.7346 66.0519 75.4677 66.0697 75.1652C66.0875 74.8628 66.1409 74.5247 66.2298 74.151C66.2654 74.0265 66.3188 73.9375 66.4078 73.8841C66.4967 73.8308 66.5857 73.7952 66.6925 73.7952C66.7992 73.7952 66.8882 73.8308 66.9771 73.8841C67.0661 73.9375 67.1195 74.0265 67.1195 74.151C67.1195 74.3645 67.1551 74.6136 67.2262 74.8983C67.2974 75.1652 67.422 75.4321 67.5643 75.6456C67.7244 75.8769 67.9024 76.0727 68.1159 76.2328C68.3294 76.393 68.5785 76.4819 68.881 76.4819C69.0945 76.4463 69.2368 76.3574 69.308 76.2684C69.397 76.1616 69.4326 76.0371 69.4326 75.8947C69.4326 75.7524 69.397 75.5923 69.3436 75.4143C69.2902 75.2364 69.2191 75.0763 69.1301 74.8983C69.0411 74.7204 68.97 74.5603 68.9166 74.4001C68.8632 74.24 68.8098 74.0976 68.792 73.9731C68.8098 73.8308 68.8276 73.6884 68.8276 73.5461C68.8454 73.3859 68.8632 73.2436 68.8988 73.0834C68.9344 72.9411 68.9878 72.7988 69.0589 72.692C69.1301 72.5852 69.2368 72.4963 69.397 72.4607C69.6995 72.4607 69.9308 72.5674 70.0909 72.7987C70.2688 73.0123 70.3934 73.2614 70.4824 73.5105C70.6247 74.0087 70.7315 74.4535 70.8204 74.8627C70.9094 75.272 71.0517 75.6456 71.2297 75.9481C71.4076 76.2506 71.6745 76.4819 72.0126 76.6598C72.3506 76.8378 72.8488 76.9089 73.5072 76.9089C73.6495 76.9089 73.7741 76.9089 73.8986 76.9089C74.0232 76.9089 74.1655 76.9089 74.3079 76.8911V78.7416H73.4182C73.0979 78.7416 72.831 78.7238 72.5997 78.706C72.3684 78.6882 72.1549 78.6349 71.9236 78.5637C71.7101 78.4925 71.4966 78.4036 71.2653 78.279C71.0517 78.1545 70.767 77.9943 70.4646 77.7808C69.913 78.279 69.2724 78.5281 68.5251 78.5281C67.9024 78.5281 67.333 78.3502 66.817 77.9765C66.5145 78.2968 66.1764 78.5103 65.785 78.6705C65.3936 78.8128 65.0021 78.884 64.5751 78.884C63.8989 78.884 63.2584 78.6882 62.689 78.3146C62.1196 77.9409 61.7638 77.3716 61.6036 76.6421C61.1232 77.1936 60.5716 77.674 59.9311 78.0833C59.2905 78.4925 58.561 78.706 57.7603 78.7238V76.8556H57.8671ZM65.4469 70.4323C65.4469 70.7348 65.358 70.9661 65.1622 71.1618C64.9665 71.3575 64.7174 71.4465 64.4149 71.4465C64.1302 71.4465 63.8811 71.3575 63.6854 71.1618C63.4897 70.9661 63.4007 70.717 63.4007 70.4323C63.4007 70.112 63.4897 69.8629 63.6854 69.685C63.8811 69.4892 64.1125 69.4003 64.4149 69.4003C64.7174 69.4003 64.9665 69.4892 65.1622 69.685C65.358 69.8629 65.4469 70.112 65.4469 70.4323ZM67.0305 68.3327C67.0305 68.653 66.9416 68.8843 66.7458 69.08C66.5501 69.2579 66.301 69.3647 65.9985 69.3647C65.696 69.3647 65.4469 69.2757 65.2512 69.08C65.0555 68.9021 64.9665 68.653 64.9665 68.3327C64.9665 68.0124 65.0555 67.7633 65.2512 67.5854C65.4469 67.3897 65.696 67.3007 65.9985 67.3007C66.3188 67.3007 66.5679 67.3897 66.7458 67.5854C66.9238 67.7633 67.0305 68.0302 67.0305 68.3327ZM68.5429 70.4323C68.5429 70.7348 68.454 70.9661 68.2582 71.1618C68.0803 71.3575 67.8312 71.4465 67.5109 71.4465C67.2084 71.4465 66.9771 71.3575 66.7814 71.1618C66.5857 70.9661 66.4967 70.717 66.4967 70.4323C66.4967 70.112 66.5857 69.8629 66.7814 69.685C66.9771 69.4892 67.2262 69.4003 67.5109 69.4003C67.8312 69.4003 68.0625 69.4892 68.2582 69.685C68.4362 69.8629 68.5429 70.112 68.5429 70.4323Z" fill="white"/>
<path d="M73.8449 76.8561C74.1829 76.8561 74.5388 76.8027 74.8947 76.696C75.2505 76.5892 75.5708 76.4469 75.8199 76.2511C76.0868 76.0554 76.3181 75.8063 76.5138 75.5038C76.7096 75.2013 76.8519 74.8989 76.9409 74.5964C76.9231 74.2049 76.9053 73.6178 76.8697 72.7993C76.8341 71.9986 76.7985 71.0912 76.7274 70.0947C76.6562 69.0983 76.5672 68.0663 76.4783 66.9988C76.3715 65.9312 76.2291 64.9526 76.0512 64.0451C75.9623 63.8316 75.8199 63.707 75.642 63.6537C75.4641 63.6003 75.2683 63.5291 75.0726 63.4757C74.8769 63.4224 74.7167 63.3156 74.5566 63.191C74.4143 63.0487 74.3431 62.8174 74.3431 62.4615C74.3431 62.3904 74.3609 62.2302 74.3965 61.9989C74.4321 61.7676 74.4854 61.5185 74.5744 61.2516C74.6634 60.9847 74.7523 60.7534 74.8591 60.5577C74.9658 60.3619 75.1082 60.2552 75.2683 60.2552C76.158 60.2552 76.6918 60.4687 76.8697 60.8957C77.012 61.216 77.0832 61.4651 77.1366 61.6786C77.1722 61.8921 77.2078 62.1057 77.2078 62.337C77.2078 62.5505 77.2256 62.8174 77.2256 63.0843C77.2256 63.369 77.2611 63.7426 77.3323 64.1875C77.528 65.8244 77.6704 67.4614 77.7593 69.0983C77.8483 70.7353 77.9017 72.4968 77.9017 74.3651C77.9017 75.5216 77.5458 76.5002 76.8519 77.2831C76.6384 77.5322 76.4249 77.7458 76.2291 77.9237C76.0334 78.1016 75.8377 78.2439 75.6064 78.3507C75.3751 78.4575 75.126 78.5464 74.8591 78.582C74.5744 78.6176 74.2363 78.6532 73.8271 78.6532V76.8561H73.8449Z" fill="white"/>
<path d="M80.4642 77.5146C80.5353 77.0876 80.6421 76.6962 80.7667 76.3403C80.8912 75.9844 80.9624 75.6286 80.998 75.2549C80.9624 74.2229 80.9268 73.2265 80.8912 72.3013C80.8556 71.376 80.8023 70.4864 80.7489 69.6323C80.6955 68.7782 80.6421 67.942 80.5709 67.1235C80.4998 66.305 80.4464 65.4865 80.3752 64.6503C80.3574 64.5079 80.3574 64.3656 80.3396 64.2232C80.3396 64.0809 80.3218 63.9563 80.304 63.8318C80.1439 63.7606 79.966 63.6716 79.7525 63.6005C79.5567 63.5115 79.361 63.4225 79.2009 63.3336C79.0229 63.2446 78.8806 63.1201 78.7738 62.9955C78.6671 62.871 78.6137 62.7108 78.6137 62.5329C78.6137 62.3372 78.6493 62.1058 78.7205 61.8567C78.7916 61.5898 78.8806 61.3585 79.0051 61.1272C79.1297 60.8959 79.2898 60.7002 79.4678 60.5401C79.6457 60.3799 79.8592 60.291 80.0727 60.291C80.3396 60.291 80.5531 60.3621 80.7311 60.5045C80.909 60.6468 81.0514 60.8425 81.1581 61.0739C81.2649 61.3052 81.3538 61.5721 81.4072 61.8567C81.4606 62.1414 81.4962 62.4261 81.514 62.693C81.5496 63.6183 81.5851 64.5257 81.6207 65.3976C81.6563 66.2694 81.6919 67.1413 81.7453 68.0487C81.7809 68.9384 81.8342 69.8814 81.8876 70.86C81.941 71.8387 81.9944 72.9062 82.03 74.0628C82.0478 74.6678 82.1011 75.1482 82.1723 75.4684C82.2613 75.8065 82.3502 76.0734 82.4392 76.2513C82.5282 76.4471 82.6171 76.5894 82.6883 76.6962C82.7595 76.8029 82.7951 76.9275 82.7951 77.0698C82.7773 77.1588 82.7595 77.3011 82.7061 77.4791C82.6705 77.657 82.5993 77.8527 82.5104 78.0306C82.4214 78.2086 82.3324 78.3687 82.1901 78.5111C82.0656 78.6534 81.9232 78.7068 81.7809 78.689C81.3538 78.6 81.0158 78.4755 80.7845 78.2975C80.5709 78.1552 80.4642 77.8883 80.4642 77.5146Z" fill="white"/>
<path d="M88.4714 75.5214C88.4714 74.6139 88.5959 73.7243 88.845 72.8346C89.0941 71.945 89.4678 71.1621 89.966 70.4682C90.4642 69.7742 91.087 69.2048 91.8165 68.7778C92.5638 68.3508 93.4178 68.1373 94.4143 68.1373C94.4498 68.1551 94.521 68.1906 94.61 68.244C94.6989 68.2974 94.7701 68.3508 94.8591 68.4397C94.948 68.5109 95.0192 68.5999 95.0726 68.7066C95.126 68.8134 95.1616 68.9202 95.1616 69.0269C95.1616 69.1159 95.126 69.2048 95.0192 69.3116C94.9303 69.4006 94.8235 69.4895 94.6989 69.5785C94.5744 69.6675 94.4498 69.7208 94.3075 69.7742C94.1651 69.8276 94.0762 69.8454 93.9872 69.8454C93.8983 69.8454 93.8093 69.8098 93.7381 69.7386C93.667 69.6675 93.578 69.6319 93.489 69.6319C92.8663 69.6319 92.2969 69.8098 91.7631 70.1479C91.2293 70.4859 90.7845 70.913 90.4108 71.429C90.0372 71.945 89.7347 72.5144 89.539 73.1371C89.3254 73.7599 89.2187 74.347 89.2187 74.8986C89.2187 75.7705 89.3254 76.5712 89.5568 77.2651C89.7881 77.9768 90.1261 78.5818 90.5532 79.08C90.998 79.596 91.5318 79.9874 92.1723 80.2543C92.8129 80.5212 93.5424 80.6636 94.3431 80.6636C94.5566 80.6636 94.8413 80.628 95.2149 80.5568C95.5886 80.4856 95.9622 80.3789 96.3537 80.2187C96.7451 80.0586 97.0654 79.8629 97.3323 79.6138C97.5992 79.3647 97.7416 79.0622 97.7416 78.7063C97.7416 78.5284 97.6526 78.4038 97.4569 78.3149C97.2611 78.2259 97.0298 78.1725 96.7451 78.1192C96.4605 78.0658 96.158 78.0124 95.8199 77.9412C95.4818 77.8701 95.1616 77.7633 94.8947 77.621C94.61 77.4786 94.3787 77.2829 94.183 77.0338C93.9872 76.7847 93.8983 76.4288 93.8983 75.984C93.9338 75.6281 93.9872 75.2189 94.0762 74.7563C94.1652 74.2937 94.3431 73.8132 94.61 73.315C94.8769 72.8168 95.2505 72.3008 95.7487 71.7848C96.2469 71.2688 96.8875 70.7884 97.706 70.3436C97.8661 70.3436 97.9729 70.3614 98.044 70.3792C98.0974 70.4148 98.1508 70.4682 98.1864 70.5393C98.5067 71.0731 98.7558 71.5002 98.9337 71.8382C99.1294 72.1763 99.2718 72.4432 99.3785 72.6389C99.4853 72.8346 99.5564 72.9948 99.5742 73.0837C99.6098 73.1727 99.6098 73.2617 99.6098 73.315C99.6098 73.404 99.6098 73.5108 99.592 73.6353C99.5742 73.7599 99.5565 73.8844 99.5209 73.9912C99.4853 74.0979 99.4319 74.2047 99.3785 74.2759C99.3251 74.3648 99.2362 74.4004 99.1294 74.4004C98.8625 74.3648 98.6312 74.2403 98.4533 74.0446C98.2754 73.8488 98.1152 73.6531 97.9907 73.4396C97.8483 73.2261 97.7416 73.0481 97.617 72.8702C97.5102 72.6923 97.3857 72.6211 97.2433 72.6211C97.012 72.6211 96.7807 72.7101 96.5494 72.8702C96.3359 73.0304 96.1224 73.2261 95.9445 73.4752C95.7665 73.7065 95.6064 73.9734 95.464 74.2403C95.3217 74.5072 95.2327 74.7563 95.1794 74.9698C95.1794 75.2901 95.2683 75.5036 95.4285 75.6459C95.6064 75.7883 95.8199 75.8772 96.069 75.9662C96.3359 76.0374 96.6028 76.1086 96.9231 76.1441C97.2256 76.1797 97.5102 76.2865 97.7771 76.411C98.044 76.5534 98.2576 76.7491 98.4177 76.9982C98.5956 77.2651 98.6668 77.6388 98.6668 78.1192C98.6668 78.8487 98.56 79.4892 98.3465 80.0408C98.133 80.5924 97.8483 81.055 97.4747 81.4287C97.101 81.8023 96.6562 82.087 96.1402 82.2827C95.6242 82.4785 95.0548 82.5674 94.4498 82.5674C92.3859 82.5674 90.8734 81.9625 89.8948 80.7347C88.9162 79.507 88.4714 77.7633 88.4714 75.5214ZM93.6492 84.6136C93.6492 84.9161 93.5602 85.1474 93.3645 85.3431C93.1687 85.5389 92.9196 85.6278 92.6172 85.6278C92.3325 85.6278 92.0834 85.5389 91.8876 85.3431C91.6919 85.1474 91.603 84.8983 91.603 84.6136C91.603 84.2934 91.6919 84.0442 91.8876 83.8663C92.0834 83.6706 92.3147 83.5816 92.6172 83.5816C92.9196 83.5816 93.1687 83.6706 93.3645 83.8663C93.5602 84.0442 93.6492 84.3111 93.6492 84.6136ZM96.2647 84.6136C96.2647 84.9161 96.1758 85.1474 95.98 85.3431C95.7843 85.5389 95.553 85.6278 95.2505 85.6278C94.9481 85.6278 94.7167 85.5389 94.521 85.3431C94.3253 85.1474 94.2185 84.8983 94.2185 84.6136C94.2185 84.2934 94.3253 84.0442 94.521 83.8663C94.7167 83.6706 94.9658 83.5816 95.2505 83.5816C95.5352 83.5816 95.7843 83.6706 95.98 83.8663C96.1758 84.0442 96.2647 84.3111 96.2647 84.6136Z" fill="white"/>
<path d="M107.153 78.7066C107.011 79.6852 106.709 80.6638 106.228 81.6247C105.73 82.6033 105.125 83.4751 104.378 84.2402C103.63 85.0053 102.794 85.6281 101.869 86.1085C100.944 86.5889 99.9651 86.8202 98.9509 86.8202C98.1324 86.8202 97.3495 86.6601 96.6022 86.322L96.5666 85.7704C97.1182 85.9484 97.6876 86.0373 98.2747 86.0373C99.2 86.0373 100.125 85.8238 101.015 85.3968C101.905 84.9698 102.687 84.4182 103.364 83.7242C104.04 83.0303 104.591 82.2474 105 81.3756C105.41 80.5037 105.623 79.5963 105.623 78.6888C105.41 78.7244 105.214 78.7422 105.036 78.7422C104.858 78.7422 104.662 78.76 104.467 78.76C104.093 78.76 103.737 78.7244 103.399 78.6354C103.061 78.5465 102.759 78.4219 102.492 78.2262C102.225 78.0305 102.011 77.7814 101.851 77.4789C101.691 77.1764 101.62 76.785 101.62 76.3401C101.62 75.8953 101.655 75.4505 101.727 75.0056C101.798 74.5608 101.922 74.1516 102.118 73.7779C102.296 73.4043 102.545 73.1018 102.865 72.8705C103.186 72.6392 103.577 72.5324 104.04 72.5324C104.591 72.5324 105.072 72.6748 105.481 72.9239C105.89 73.1908 106.228 73.5288 106.495 73.9559C106.762 74.3829 106.958 74.8455 107.1 75.3437C107.242 75.8419 107.314 76.3401 107.349 76.8383H108.684V78.6888H107.153V78.7066ZM104.698 74.6676C104.573 74.6142 104.413 74.5608 104.2 74.543C103.986 74.5252 103.773 74.543 103.541 74.5786C103.328 74.632 103.114 74.7388 102.936 74.8989C102.759 75.059 102.634 75.3081 102.563 75.6284C102.598 76.1266 102.812 76.4647 103.186 76.6248C103.559 76.7849 103.986 76.8561 104.467 76.8205C104.645 76.8027 104.823 76.785 104.983 76.785C105.143 76.7672 105.303 76.7316 105.428 76.6782C105.57 76.6248 105.677 76.5536 105.748 76.4825C105.837 76.3935 105.872 76.2868 105.872 76.1444C105.872 75.8241 105.748 75.5216 105.516 75.237C105.285 74.9879 105.018 74.7921 104.698 74.6676Z" fill="white"/>
<path d="M112.046 74.1697C112.171 74.0985 112.296 74.0629 112.42 74.0629C112.634 74.0629 112.776 74.1341 112.865 74.2764C112.954 74.4188 113.007 74.5611 113.007 74.7391C113.007 74.8992 112.989 75.0593 112.936 75.2017C112.883 75.344 112.829 75.4508 112.794 75.5042C112.989 76.0557 113.31 76.4294 113.772 76.6429C114.128 76.8031 114.573 76.892 115.125 76.892V78.7425H114.626C113.826 78.7425 113.185 78.6002 112.687 78.2977C112.189 77.9952 111.833 77.5148 111.584 76.8386C111.335 76.981 111.086 77.1411 110.854 77.3546C110.623 77.5682 110.392 77.7817 110.16 77.9952C109.929 78.2087 109.68 78.3866 109.413 78.529C109.146 78.6713 108.861 78.7425 108.541 78.7425H108.114V76.892C108.915 76.892 109.751 76.4116 110.623 75.4508C111.388 74.7035 111.869 74.2764 112.046 74.1697ZM112.26 80.3439C112.26 80.6464 112.171 80.8777 111.975 81.0734C111.78 81.2691 111.53 81.3581 111.246 81.3581C110.943 81.3581 110.712 81.2691 110.516 81.0734C110.321 80.8777 110.232 80.6286 110.232 80.3439C110.232 80.0236 110.321 79.7745 110.516 79.5966C110.712 79.4008 110.961 79.3119 111.246 79.3119C111.548 79.3119 111.78 79.4008 111.975 79.5966C112.171 79.7745 112.26 80.0414 112.26 80.3439Z" fill="white"/>
<path d="M118.363 74.1688C118.488 74.0976 118.613 74.062 118.737 74.062C118.951 74.062 119.093 74.1332 119.182 74.2755C119.271 74.4179 119.324 74.5602 119.324 74.7382C119.324 74.8983 119.307 75.0584 119.253 75.2008C119.2 75.3431 119.146 75.4499 119.111 75.5033C119.307 76.0548 119.627 76.4285 120.089 76.642C120.445 76.8022 120.89 76.8911 121.442 76.8911V78.7416H120.943C120.143 78.7416 119.502 78.5993 119.004 78.2968C118.506 77.9943 118.15 77.5139 117.901 76.8377C117.652 76.9801 117.403 77.1402 117.171 77.3537C116.94 77.5673 116.709 77.7808 116.477 77.9943C116.246 78.2078 115.997 78.3857 115.73 78.5281C115.463 78.6704 115.179 78.7416 114.858 78.7416H114.431V76.8911C115.232 76.8911 116.068 76.4107 116.94 75.4499C117.705 74.7026 118.186 74.2755 118.363 74.1688ZM119.36 71.9447C119.36 72.2649 119.271 72.4962 119.075 72.692C118.879 72.8699 118.63 72.9766 118.328 72.9766C118.043 72.9766 117.794 72.8877 117.598 72.692C117.403 72.514 117.314 72.2649 117.314 71.9447C117.314 71.6244 117.403 71.3753 117.598 71.1973C117.794 71.0016 118.025 70.9127 118.328 70.9127C118.63 70.9127 118.879 71.0016 119.075 71.1973C119.253 71.3753 119.36 71.6244 119.36 71.9447Z" fill="white"/>
<path d="M120.854 76.8561C121.192 76.8561 121.548 76.8027 121.904 76.696C122.26 76.5892 122.58 76.4469 122.829 76.2511C123.096 76.0554 123.328 75.8063 123.523 75.5038C123.719 75.2013 123.861 74.8989 123.95 74.5964C123.932 74.2049 123.915 73.6178 123.879 72.7993C123.844 71.9986 123.808 71.0912 123.737 70.0947C123.666 69.0983 123.577 68.0663 123.488 66.9988C123.381 65.9312 123.239 64.9526 123.061 64.0451C122.972 63.8316 122.829 63.707 122.651 63.6537C122.473 63.6003 122.278 63.5291 122.082 63.4757C121.886 63.4224 121.726 63.3156 121.566 63.191C121.424 63.0487 121.352 62.8174 121.352 62.4615C121.352 62.3904 121.37 62.2302 121.406 61.9989C121.441 61.7676 121.495 61.5185 121.584 61.2516C121.673 60.9847 121.762 60.7534 121.868 60.5577C121.975 60.3619 122.118 60.2552 122.278 60.2552C123.167 60.2552 123.701 60.4687 123.879 60.8957C124.021 61.216 124.093 61.4651 124.146 61.6786C124.182 61.8921 124.217 62.1057 124.217 62.337C124.217 62.5505 124.235 62.8174 124.235 63.0843C124.235 63.369 124.271 63.7426 124.342 64.1875C124.537 65.8244 124.68 67.4614 124.769 69.0983C124.858 70.7353 124.911 72.4968 124.911 74.3651C124.911 75.5216 124.555 76.5002 123.861 77.2831C123.648 77.5322 123.434 77.7458 123.239 77.9237C123.043 78.1016 122.847 78.2439 122.616 78.3507C122.384 78.4575 122.135 78.5464 121.868 78.582C121.584 78.6176 121.246 78.6532 120.836 78.6532V76.8561H120.854Z" fill="white"/>
<path d="M127.456 77.5146C127.527 77.0876 127.634 76.6962 127.758 76.3403C127.883 75.9844 127.954 75.6286 127.989 75.2549C127.954 74.2229 127.918 73.2265 127.883 72.3013C127.847 71.376 127.794 70.4864 127.74 69.6323C127.687 68.7782 127.634 67.942 127.562 67.1235C127.491 66.305 127.438 65.4865 127.367 64.6503C127.349 64.5079 127.349 64.3656 127.331 64.2232C127.331 64.0809 127.313 63.9563 127.296 63.8318C127.135 63.7606 126.957 63.6716 126.744 63.6005C126.548 63.5115 126.352 63.4225 126.192 63.3336C126.014 63.2446 125.872 63.1201 125.765 62.9955C125.659 62.871 125.605 62.7108 125.605 62.5329C125.605 62.3372 125.641 62.1058 125.712 61.8567C125.783 61.5898 125.872 61.3585 125.997 61.1272C126.121 60.8959 126.281 60.7002 126.459 60.5401C126.637 60.3799 126.851 60.291 127.064 60.291C127.331 60.291 127.545 60.3621 127.723 60.5045C127.9 60.6468 128.043 60.8425 128.15 61.0739C128.256 61.3052 128.345 61.5721 128.399 61.8567C128.452 62.1414 128.488 62.4261 128.505 62.693C128.541 63.6183 128.577 64.5257 128.612 65.3976C128.648 66.2694 128.683 67.1413 128.737 68.0487C128.772 68.9384 128.826 69.8814 128.879 70.86C128.932 71.8387 128.986 72.9062 129.021 74.0628C129.039 74.6678 129.093 75.1482 129.164 75.4684C129.253 75.8065 129.342 76.0734 129.431 76.2513C129.52 76.4471 129.609 76.5894 129.68 76.6962C129.751 76.8029 129.787 76.9275 129.787 77.0698C129.769 77.1588 129.751 77.3011 129.698 77.4791C129.662 77.657 129.591 77.8527 129.502 78.0306C129.413 78.2086 129.324 78.3687 129.182 78.5111C129.057 78.6534 128.915 78.7068 128.772 78.689C128.345 78.6 128.007 78.4755 127.776 78.2975C127.562 78.1552 127.456 77.8883 127.456 77.5146Z" fill="white"/>
<path d="M152.971 78.7063C152.597 78.7063 152.277 78.7063 152.01 78.6885C151.743 78.6707 151.494 78.6529 151.281 78.6173C151.067 78.5817 150.871 78.5283 150.693 78.4572C150.515 78.386 150.337 78.2792 150.142 78.1725C149.964 78.0657 149.804 77.9412 149.661 77.7988C149.519 77.6565 149.394 77.5141 149.27 77.3718C149.145 77.2294 149.056 77.1227 148.95 77.0337C148.861 76.9448 148.789 76.8914 148.736 76.8914C148.078 77.265 147.491 77.5675 146.957 77.7988C146.423 78.0301 145.925 78.2258 145.48 78.3504C145.035 78.4927 144.608 78.5817 144.199 78.6351C143.807 78.6885 143.416 78.7063 143.042 78.7063C141.957 78.7063 140.961 78.5105 140.035 78.1369C139.11 77.7454 138.327 77.2294 137.651 76.5533C136.975 75.8772 136.459 75.0765 136.085 74.1512C135.712 73.226 135.516 72.2118 135.516 71.1442C135.516 70.3435 135.676 69.4717 136.014 68.5286C136.334 67.5856 136.797 66.7137 137.366 65.8953C137.936 65.0768 138.612 64.4006 139.377 63.8491C140.142 63.2975 140.978 63.0306 141.886 63.0306C142.402 63.0306 142.669 63.1373 142.669 63.3509C142.669 63.4932 142.544 63.6177 142.313 63.7245C141.494 63.8313 140.747 64.0804 140.053 64.4896C139.359 64.8989 138.772 65.4148 138.256 66.0554C137.74 66.6959 137.349 67.4077 137.046 68.2262C136.761 69.0268 136.619 69.8809 136.619 70.7706C136.619 71.678 136.797 72.4965 137.171 73.2438C137.526 73.9911 138.025 74.6317 138.63 75.1832C139.252 75.717 139.946 76.1441 140.747 76.4465C141.548 76.749 142.366 76.9092 143.256 76.9092C143.79 76.9092 144.288 76.8736 144.75 76.7846C145.213 76.6956 145.676 76.5889 146.103 76.4288C146.548 76.2686 146.975 76.0729 147.402 75.8238C147.829 75.5747 148.273 75.3078 148.718 74.9875C149.11 74.7206 149.43 74.5427 149.679 74.4359C149.928 74.347 150.124 74.2936 150.231 74.2936C150.355 74.2936 150.444 74.3292 150.515 74.4003C150.587 74.4715 150.64 74.5605 150.676 74.6494C150.711 74.7384 150.729 74.8452 150.747 74.9519C150.747 75.0587 150.765 75.1299 150.765 75.1654C150.765 75.3256 150.729 75.4857 150.658 75.6281C150.587 75.7704 150.551 75.9128 150.551 76.0551C150.551 76.1797 150.622 76.2864 150.747 76.3754C150.889 76.4643 151.049 76.5533 151.245 76.6245C151.441 76.6956 151.654 76.7668 151.885 76.8024C152.117 76.838 152.295 76.8736 152.455 76.8736H152.971V78.7063ZM145.871 69.5606C145.871 69.8631 145.782 70.0944 145.587 70.2901C145.391 70.4859 145.142 70.5748 144.857 70.5748C144.555 70.5748 144.323 70.4859 144.128 70.2901C143.932 70.0944 143.843 69.8453 143.843 69.5606C143.843 69.2404 143.932 68.9913 144.128 68.8133C144.323 68.6176 144.573 68.5286 144.857 68.5286C145.16 68.5286 145.391 68.6176 145.587 68.8133C145.765 68.9913 145.871 69.2404 145.871 69.5606ZM147.206 67.4433C147.206 67.7457 147.117 67.977 146.921 68.1728C146.725 68.3685 146.494 68.4575 146.192 68.4575C145.889 68.4575 145.64 68.3685 145.444 68.1728C145.249 67.977 145.16 67.7279 145.16 67.4433C145.16 67.123 145.249 66.8739 145.444 66.6959C145.64 66.5002 145.889 66.4113 146.192 66.4113C146.476 66.4113 146.725 66.5002 146.921 66.6959C147.099 66.8739 147.206 67.1408 147.206 67.4433ZM148.469 69.5606C148.469 69.8631 148.38 70.0944 148.185 70.2901C147.989 70.4859 147.757 70.5748 147.455 70.5748C147.153 70.5748 146.903 70.4859 146.708 70.2901C146.512 70.0944 146.423 69.8453 146.423 69.5606C146.423 69.2404 146.512 68.9913 146.708 68.8133C146.903 68.6176 147.153 68.5286 147.455 68.5286C147.74 68.5286 147.989 68.6176 148.185 68.8133C148.38 68.9913 148.469 69.2404 148.469 69.5606Z" fill="white"/>
<path d="M152.491 76.8564H155.249C155.48 76.8564 155.729 76.8208 155.996 76.7497C156.263 76.6785 156.494 76.5717 156.725 76.4294C156.939 76.2871 157.135 76.1091 157.295 75.9134C157.455 75.7177 157.562 75.4864 157.615 75.2373C157.58 74.7213 157.348 74.2764 156.939 73.9206C156.903 73.885 156.832 73.8316 156.743 73.7782C156.654 73.7249 156.583 73.6715 156.494 73.6003C156.405 73.5291 156.334 73.458 156.263 73.3868C156.192 73.3156 156.156 73.2445 156.156 73.1733C156.156 73.1021 156.174 72.9954 156.192 72.853C156.227 72.7107 156.245 72.5683 156.281 72.4082C156.316 72.248 156.352 72.1057 156.387 71.9811C156.423 71.8566 156.459 71.7676 156.494 71.732C156.548 71.5897 156.637 71.5363 156.761 71.5363C156.992 71.6253 157.241 71.7854 157.473 71.9989C157.704 72.2124 157.918 72.4616 158.113 72.7462C158.309 73.0131 158.469 73.2978 158.576 73.5825C158.701 73.8672 158.754 74.0985 158.754 74.2942C158.629 75.0949 158.398 75.86 158.024 76.6073C157.669 77.3546 157.117 77.924 156.405 78.3511C156.192 78.4756 155.854 78.5646 155.373 78.6357C155.142 78.6713 154.768 78.6891 154.27 78.7069C153.772 78.7247 153.167 78.7247 152.455 78.7247V76.8564H152.491ZM155.16 81.0022C155.16 81.3047 155.071 81.5538 154.875 81.7317C154.679 81.9275 154.43 82.0164 154.145 82.0164C153.843 82.0164 153.612 81.9275 153.416 81.7317C153.22 81.536 153.131 81.3047 153.131 81.0022C153.131 80.6819 153.22 80.4328 153.416 80.2371C153.612 80.0414 153.861 79.9524 154.145 79.9524C154.448 79.9524 154.679 80.0414 154.875 80.2371C155.071 80.4328 155.16 80.6819 155.16 81.0022ZM157.437 80.931C157.437 81.2335 157.348 81.4826 157.153 81.6606C156.957 81.8563 156.708 81.9453 156.423 81.9453C156.121 81.9453 155.889 81.8563 155.693 81.6606C155.498 81.4648 155.409 81.2335 155.409 80.931C155.409 80.6108 155.498 80.3617 155.693 80.1659C155.889 79.9702 156.138 79.8813 156.423 79.8813C156.725 79.8813 156.957 79.9702 157.153 80.1659C157.33 80.3617 157.437 80.6286 157.437 80.931Z" fill="white"/>
<path d="M163.486 66.4825C163.362 66.8206 163.291 67.1586 163.237 67.4789C163.202 67.7992 163.166 68.1373 163.166 68.4753C163.166 69.187 163.273 69.881 163.504 70.5393C163.735 71.2155 164.056 71.8026 164.483 72.3542C164.91 72.888 165.426 73.3506 166.031 73.7421C166.636 74.1157 167.312 74.3826 168.077 74.5072C168.29 74.5428 168.575 74.5783 168.895 74.5783H169.589C169.785 74.7385 169.91 74.9164 169.963 75.0943C170.016 75.2723 170.052 75.4502 170.052 75.6459C170.052 75.8416 170.034 76.0374 169.981 76.2153C169.945 76.411 169.874 76.589 169.803 76.7491C169.66 76.7847 169.536 76.7847 169.465 76.7847C169.554 76.8203 169.66 76.8559 169.785 76.8559C169.91 76.8559 170.034 76.8736 170.176 76.8736C170.39 76.8736 170.586 76.8737 170.781 76.8559C170.977 76.8381 171.119 76.8381 171.208 76.8381V78.6885C171.119 78.7063 171.031 78.7063 170.959 78.7063C170.87 78.7063 170.799 78.7063 170.71 78.7063C169.963 78.6885 169.322 78.5284 168.806 78.2081C168.29 77.8879 167.952 77.443 167.774 76.8914C167.685 76.8914 167.507 76.9092 167.241 76.927C166.974 76.9448 166.689 76.9626 166.369 76.9982C166.048 77.0338 165.764 77.0338 165.497 77.0516C165.23 77.0694 165.052 77.0694 164.981 77.0694C164.874 77.0694 164.785 77.0694 164.696 77.0872C164.607 77.0872 164.536 77.105 164.465 77.1405C164.073 77.5676 163.664 77.9056 163.237 78.1369C162.81 78.3683 162.401 78.4928 162.009 78.4928C161.778 78.4928 161.547 78.4572 161.315 78.3683C161.084 78.2793 160.871 78.1547 160.693 77.9946C160.515 77.8167 160.355 77.6032 160.248 77.3541C160.141 77.0872 160.088 76.7847 160.088 76.4288C160.088 75.8061 160.23 75.3257 160.515 75.0054C160.799 74.6851 161.173 74.5072 161.618 74.5072C161.725 74.5428 161.814 74.5961 161.92 74.6673C162.009 74.7385 162.116 74.8097 162.241 74.8808C162.347 74.952 162.49 75.0232 162.65 75.0766C162.81 75.1299 163.006 75.1655 163.255 75.1655C163.308 75.1655 163.415 75.1655 163.575 75.1477C163.735 75.1477 163.895 75.1299 164.073 75.1299C164.251 75.1299 164.411 75.1121 164.572 75.0943C164.714 75.0766 164.821 75.0588 164.856 75.0232C164.323 74.5428 163.878 74.0446 163.54 73.493C163.184 72.9592 162.917 72.4076 162.703 71.8382C162.49 71.2688 162.347 70.7173 162.276 70.1657C162.187 69.6141 162.152 69.0981 162.152 68.5999C162.152 68.3508 162.17 68.0127 162.187 67.5857C162.223 67.1586 162.276 66.7138 162.347 66.2512C162.436 65.7886 162.543 65.3082 162.668 64.8278C162.81 64.3473 162.97 63.9203 163.166 63.5289C163.362 63.1374 163.593 62.8349 163.86 62.5858C164.127 62.3367 164.429 62.2122 164.785 62.2122C164.945 62.2122 165.105 62.3011 165.283 62.4613C165.443 62.6392 165.532 62.8705 165.532 63.1552C165.532 63.3154 165.443 63.5289 165.283 63.7602C165.105 64.0093 164.91 64.2762 164.696 64.5609C164.483 64.8455 164.251 65.148 164.02 65.4683C163.771 65.8598 163.593 66.18 163.486 66.4825Z" fill="white"/>
<path d="M169.999 76.8565H172.223C171.867 76.3938 171.564 75.9134 171.298 75.4152C171.031 74.917 170.906 74.3298 170.906 73.6715C170.906 73.3512 170.959 72.9954 171.084 72.5683C171.209 72.1413 171.386 71.7321 171.618 71.3406C171.849 70.9492 172.152 70.6111 172.49 70.3442C172.828 70.0773 173.219 69.935 173.646 69.935C173.949 69.935 174.198 70.0239 174.429 70.2196C174.643 70.4154 174.892 70.6111 175.141 70.789C175.461 71.0381 175.746 71.2516 176.013 71.394C176.28 71.5541 176.564 71.6787 176.849 71.7676C177.134 71.8566 177.418 71.9278 177.721 71.9634C178.023 71.999 178.361 72.0167 178.735 72.0167C179.251 72.0167 179.767 71.9812 180.301 71.9278C180.817 71.8744 181.315 71.7854 181.778 71.6787C182.24 71.5719 182.667 71.4296 183.059 71.2694C183.45 71.1093 183.753 70.9314 183.984 70.7356C183.842 67.8354 183.664 65.6646 183.486 64.2234C183.308 62.7821 183.148 62.0348 183.023 61.9815C182.899 61.9459 182.756 61.8569 182.596 61.7324C182.436 61.6078 182.276 61.4655 182.116 61.3053C181.956 61.1452 181.831 60.985 181.724 60.8071C181.618 60.647 181.564 60.5046 181.564 60.4157C181.617 60.0242 181.671 59.6861 181.724 59.437C181.76 59.1879 181.831 58.9922 181.938 58.8321C182.027 58.6897 182.169 58.583 182.329 58.5118C182.489 58.4406 182.721 58.405 183.005 58.3695C183.326 58.4406 183.557 58.583 183.753 58.7787C183.931 58.9744 184.091 59.2057 184.197 59.4726C184.304 59.7395 184.393 60.0064 184.429 60.2911C184.464 60.5758 184.518 60.8427 184.536 61.1096C184.589 61.679 184.642 62.2483 184.696 62.8355C184.749 63.4227 184.802 64.0455 184.891 64.7216C185.105 66.5365 185.283 68.3692 185.461 70.2196C185.639 72.0523 185.834 73.9206 186.03 75.8244C186.048 75.9668 186.101 76.1625 186.208 76.376C186.315 76.5896 186.439 76.8031 186.6 76.981C186.76 77.1767 186.955 77.3369 187.187 77.4792C187.418 77.6216 187.667 77.6749 187.952 77.6749C188.379 77.6749 188.735 77.586 189.037 77.4258C189.322 77.2479 189.553 77.0344 189.731 76.7497C189.909 76.4828 190.034 76.1625 190.105 75.7889C190.176 75.433 190.212 75.0593 190.212 74.6679C190.105 73.5647 190.016 72.4972 189.927 71.4474C189.838 70.3976 189.767 69.3656 189.678 68.3336C189.589 67.3016 189.482 66.2518 189.375 65.202C189.269 64.1344 189.126 63.049 188.966 61.9459C188.913 61.7323 188.788 61.6078 188.592 61.5544C188.414 61.501 188.219 61.4477 188.023 61.3943C187.827 61.3409 187.649 61.2519 187.507 61.1096C187.365 60.9673 187.276 60.7181 187.276 60.3623C187.276 60.2911 187.293 60.131 187.329 59.8997C187.365 59.6684 187.418 59.4193 187.507 59.1524C187.596 58.8855 187.685 58.6542 187.792 58.4584C187.898 58.2627 188.041 58.1559 188.201 58.1559C189.091 58.1559 189.624 58.3695 189.802 58.7965C189.909 59.1168 189.98 59.3481 189.998 59.526C190.034 59.7039 190.051 59.8819 190.051 60.042C190.051 60.2199 190.069 60.4157 190.087 60.6292C190.105 60.8427 190.14 61.163 190.229 61.5366C190.478 63.7963 190.728 66.0205 190.959 68.2446C191.19 70.4687 191.386 72.764 191.528 75.1127V75.3974C191.528 75.9312 191.439 76.4472 191.279 76.9454C191.119 77.4436 190.888 77.8884 190.603 78.2621C190.318 78.6535 189.98 78.956 189.607 79.1873C189.215 79.4187 188.806 79.5254 188.361 79.5254C187.382 79.5254 186.635 79.3119 186.119 78.9027C185.603 78.4934 185.229 77.9596 184.998 77.3013C184.767 76.6429 184.607 75.9134 184.536 75.1127C184.464 74.312 184.393 73.5114 184.322 72.7285C184.304 72.5505 184.251 72.4616 184.144 72.4616C184.091 72.4616 184.037 72.4616 183.984 72.4794C183.148 72.764 182.294 72.9954 181.422 73.1733C180.55 73.3512 179.66 73.458 178.771 73.458C177.845 73.458 176.956 73.3334 176.084 73.0843C175.212 72.8352 174.376 72.4082 173.593 71.8032C173.201 71.8388 172.952 71.9989 172.81 72.248C172.668 72.4972 172.596 72.8352 172.596 73.28C172.596 73.6537 172.703 73.9918 172.917 74.2765C173.13 74.5789 173.397 74.8458 173.735 75.0771C174.073 75.3085 174.447 75.522 174.838 75.6999C175.248 75.8778 175.639 76.0202 176.048 76.1269C176.44 76.2337 176.796 76.3227 177.134 76.376C177.454 76.4294 177.721 76.465 177.917 76.465C178.664 76.465 179.429 76.3938 180.176 76.2693C180.924 76.1447 181.706 76.0736 182.525 76.0736C182.881 76.0736 183.237 76.1625 183.575 76.3405C183.913 76.5184 184.091 76.7853 184.091 77.1234C184.091 77.2657 184.073 77.4436 184.055 77.6216C184.02 77.7995 183.966 77.9774 183.895 78.1375C183.824 78.3155 183.717 78.4578 183.61 78.5646C183.486 78.6891 183.343 78.7425 183.148 78.7603C182.916 78.7603 182.721 78.7425 182.596 78.6891C182.472 78.6358 182.365 78.5824 182.294 78.5112C182.222 78.44 182.134 78.3867 182.062 78.3155C181.973 78.2621 181.867 78.2265 181.724 78.2265L179.055 78.4222C177.561 78.5468 176.297 78.618 175.248 78.6358C174.216 78.6713 173.29 78.6713 172.507 78.6713C172.009 78.6713 171.564 78.6713 171.155 78.6535C170.746 78.6535 170.355 78.6358 169.963 78.6358V76.8565H169.999Z" fill="white"/>
</svg>
