<svg width="239" height="127" viewBox="0 0 239 127" fill="none" xmlns="http://www.w3.org/2000/svg">
<path d="M184.323 2.54576L184.326 2.54573L184.328 2.54573L184.329 2.54573L184.329 2.54574L184.354 2.54603C184.38 2.54642 184.422 2.54736 184.481 2.54953C184.6 2.55389 184.784 2.56324 185.027 2.58327C185.514 2.62334 186.237 2.7061 187.146 2.87689C188.965 3.21858 191.52 3.91144 194.412 5.31562C200.172 8.11193 207.353 13.7696 212.707 25.3011C213.075 26.0949 213.436 26.8723 213.789 27.634C222.087 45.5312 226.36 54.7473 236.902 64.0398C235.824 65.3149 234.793 66.4824 233.781 67.6284C231.489 70.2246 229.293 72.7112 226.858 76.0916C222.991 81.4601 218.42 89.184 211.406 103.625L211.39 103.658L211.376 103.691C207.337 113.142 203.686 118.451 199.512 121.451C195.382 124.418 190.521 125.279 183.624 125.279H55.3758C48.4782 125.279 43.6176 124.418 39.4874 121.451C35.3132 118.451 31.6626 113.142 27.6238 103.691L27.6099 103.659L27.5945 103.627C20.5801 89.1428 16.0093 81.3963 12.1414 76.0267C9.67398 72.6013 7.4557 70.1064 5.13339 67.4944C4.15162 66.3902 3.15125 65.2651 2.10562 64.0399C12.886 54.6104 17.2071 45.2579 25.7597 26.7468C25.9928 26.2421 26.2291 25.7307 26.4688 25.2123L26.4932 25.1594L26.5135 25.1047C31.0285 12.937 38.1694 7.33228 44.0793 4.72512C47.0554 3.41219 49.7523 2.84571 51.6965 2.60739C52.6678 2.48833 53.4479 2.45157 53.9766 2.444C54.2408 2.44022 54.4418 2.44372 54.5719 2.44783C54.637 2.44989 54.6843 2.45209 54.7129 2.4536L54.7416 2.45522L54.7417 2.45524L54.7432 2.45533L54.7444 2.45542L54.7453 2.45548L54.7957 2.45917L54.8499 2.4592L184.323 2.54576Z" fill="#129D59" stroke="white" stroke-width="3"/>
<g filter="url(#filter0_d_2801_2851)">
<path d="M60.75 39.5371V47.1543H61.9121C62.0749 47.1543 62.2279 47.125 62.3711 47.0664C62.5208 47.0013 62.651 46.9199 62.7617 46.8223C62.8724 46.7181 62.957 46.5977 63.0156 46.4609C63.0807 46.3177 63.1133 46.168 63.1133 46.0117V39.5371H64.959V46.0117C64.959 46.4219 64.8776 46.8092 64.7148 47.1738C64.5586 47.5384 64.3405 47.8574 64.0605 48.1309C63.7871 48.3978 63.4648 48.6094 63.0938 48.7656C62.7227 48.9219 62.3288 49 61.9121 49H56.4727C56.3945 49.6055 56.2025 50.1361 55.8965 50.5918C55.597 51.054 55.2259 51.4382 54.7832 51.7441C54.347 52.0501 53.8587 52.278 53.3184 52.4277C52.778 52.584 52.2279 52.6621 51.668 52.6621C51.0625 52.6621 50.4668 52.5742 49.8809 52.3984C49.3014 52.2227 48.7839 51.9557 48.3281 51.5977C47.8789 51.2396 47.5143 50.7936 47.2344 50.2598C46.9544 49.7324 46.8145 49.1107 46.8145 48.3945V41.2656H48.6699V48.3945C48.6699 48.7982 48.7546 49.1497 48.9238 49.4492C49.0996 49.7552 49.3275 50.0091 49.6074 50.2109C49.8874 50.4128 50.2064 50.5625 50.5645 50.6602C50.929 50.7643 51.2969 50.8164 51.668 50.8164C52.0456 50.8164 52.4134 50.7643 52.7715 50.6602C53.1296 50.5625 53.4486 50.4128 53.7285 50.2109C54.0085 50.0091 54.2331 49.7552 54.4023 49.4492C54.5781 49.1497 54.666 48.7982 54.666 48.3945V39.5371H56.5312V47.1543H58.8945V39.5371H60.75ZM67.5371 39.5273C68.6634 39.5273 69.627 39.625 70.4277 39.8203C71.2285 40.0091 71.8828 40.2923 72.3906 40.6699C72.9049 41.041 73.2793 41.5 73.5137 42.0469C73.7546 42.5938 73.875 43.222 73.875 43.9316V46.002C73.875 46.4186 73.7936 46.8092 73.6309 47.1738C73.4746 47.5384 73.2565 47.8574 72.9766 48.1309C72.7031 48.3978 72.3809 48.6094 72.0098 48.7656C71.6387 48.9219 71.2415 49 70.8184 49H67.0098V47.1543H70.8184C70.9811 47.1543 71.1341 47.125 71.2773 47.0664C71.4271 47.0013 71.5573 46.9167 71.668 46.8125C71.7786 46.7083 71.8633 46.5879 71.9219 46.4512C71.987 46.3079 72.0195 46.1582 72.0195 46.002V43.9316C72.0195 43.5215 71.9349 43.1602 71.7656 42.8477C71.6029 42.5286 71.3392 42.2617 70.9746 42.0469C70.6165 41.8255 70.1543 41.6595 69.5879 41.5488C69.0215 41.4382 68.3379 41.3828 67.5371 41.3828V39.5273ZM77.791 35.8652V45.9727C77.791 46.1354 77.8203 46.2884 77.8789 46.4316C77.944 46.5749 78.0286 46.7018 78.1328 46.8125C78.2435 46.9167 78.3704 47.0013 78.5137 47.0664C78.6569 47.125 78.8099 47.1543 78.9727 47.1543H79.8418V49H78.9727C78.556 49 78.1621 48.9219 77.791 48.7656C77.4264 48.6029 77.1042 48.3848 76.8242 48.1113C76.5508 47.8379 76.3327 47.5189 76.1699 47.1543C76.0137 46.7832 75.9355 46.3893 75.9355 45.9727V35.8652H77.791ZM92.7812 39.5371V47.1543H94.666V49H79.0312V47.1543H82.4785V39.5371H84.3242V47.1543H86.6973V39.5371H88.543V47.1543H90.9355V39.5371H92.7812ZM97.7617 35.8652V45.9727C97.7617 46.3893 97.6803 46.7832 97.5176 47.1543C97.3613 47.5189 97.1465 47.8379 96.873 48.1113C96.5996 48.3848 96.2773 48.6029 95.9062 48.7656C95.5352 48.9219 95.1413 49 94.7246 49H93.8555V47.1543H94.7246C94.8874 47.1543 95.0404 47.125 95.1836 47.0664C95.3333 47.0013 95.4603 46.9167 95.5645 46.8125C95.6751 46.7018 95.7598 46.5749 95.8184 46.4316C95.8835 46.2884 95.916 46.1354 95.916 45.9727V35.8652H97.7617ZM101.668 35.8652V49H99.8223V35.8652H101.668ZM107.439 39.5273C108.572 39.5273 109.539 39.625 110.34 39.8203C111.141 40.0091 111.795 40.2923 112.303 40.6699C112.811 41.041 113.182 41.5 113.416 42.0469C113.657 42.5938 113.777 43.222 113.777 43.9316V47.1543H115.662V49H106.912V47.1543H111.932V43.9316C111.932 43.5215 111.847 43.1602 111.678 42.8477C111.508 42.5286 111.242 42.2617 110.877 42.0469C110.519 41.8255 110.057 41.6595 109.49 41.5488C108.924 41.4382 108.24 41.3828 107.439 41.3828V39.5273ZM114.852 47.1543H116.902C116.85 46.9655 116.811 46.7734 116.785 46.5781C116.759 46.3763 116.746 46.1712 116.746 45.9629V43.8535C116.746 43.2611 116.857 42.7044 117.078 42.1836C117.299 41.6562 117.599 41.1973 117.977 40.8066C118.361 40.416 118.81 40.1068 119.324 39.8789C119.839 39.651 120.385 39.5371 120.965 39.5371C121.544 39.5371 122.091 39.6543 122.605 39.8887C123.12 40.123 123.569 40.4388 123.953 40.8359C124.344 41.2331 124.65 41.6921 124.871 42.2129C125.092 42.7337 125.203 43.2806 125.203 43.8535V45.9824C125.21 46.1908 125.197 46.3926 125.164 46.5879C125.132 46.7832 125.089 46.972 125.037 47.1543H127.088V49H123.982C123.592 49.3971 123.136 49.7129 122.615 49.9473C122.101 50.1816 121.551 50.2988 120.965 50.2988C120.372 50.2988 119.819 50.1849 119.305 49.957C118.797 49.7292 118.348 49.4102 117.957 49H114.852V47.1543ZM120.965 41.3926C120.639 41.3926 120.33 41.4577 120.037 41.5879C119.751 41.7181 119.5 41.8939 119.285 42.1152C119.07 42.3366 118.901 42.597 118.777 42.8965C118.654 43.196 118.592 43.515 118.592 43.8535V45.9629C118.592 46.3079 118.654 46.6302 118.777 46.9297C118.901 47.2292 119.07 47.4928 119.285 47.7207C119.5 47.9421 119.751 48.1178 120.037 48.248C120.33 48.3783 120.639 48.4434 120.965 48.4434C121.29 48.4434 121.596 48.3783 121.883 48.248C122.176 48.1178 122.43 47.9421 122.645 47.7207C122.866 47.4928 123.038 47.2292 123.162 46.9297C123.286 46.6302 123.348 46.3145 123.348 45.9824V43.8535C123.348 43.5215 123.286 43.209 123.162 42.916C123.038 42.6165 122.866 42.3561 122.645 42.1348C122.43 41.9069 122.176 41.7279 121.883 41.5977C121.596 41.4609 121.29 41.3926 120.965 41.3926ZM128.064 40.4551C128.24 40.3704 128.471 40.276 128.758 40.1719C129.044 40.0612 129.36 39.957 129.705 39.8594C130.057 39.7617 130.421 39.6803 130.799 39.6152C131.183 39.5501 131.557 39.5176 131.922 39.5176C132.456 39.5176 132.977 39.5827 133.484 39.7129C133.999 39.8431 134.454 40.0742 134.852 40.4062C135.255 40.7383 135.577 41.1908 135.818 41.7637C136.066 42.3301 136.189 43.0527 136.189 43.9316V47.1543H138.084V49H126.277V47.1543H134.344V43.9316C134.344 43.4238 134.272 43.0072 134.129 42.6816C133.992 42.3496 133.81 42.0892 133.582 41.9004C133.361 41.7051 133.104 41.5684 132.811 41.4902C132.518 41.4121 132.221 41.373 131.922 41.373C131.635 41.373 131.339 41.3991 131.033 41.4512C130.734 41.5033 130.447 41.5684 130.174 41.6465C129.9 41.7181 129.646 41.7995 129.412 41.8906C129.184 41.9753 128.999 42.0501 128.855 42.1152L128.064 40.4551ZM137.273 47.1543H139.324C139.272 46.9655 139.233 46.7734 139.207 46.5781C139.181 46.3763 139.168 46.1712 139.168 45.9629V43.8535C139.168 43.2611 139.279 42.7044 139.5 42.1836C139.721 41.6562 140.024 41.1973 140.408 40.8066C140.792 40.416 141.238 40.1068 141.746 39.8789C142.26 39.651 142.811 39.5371 143.396 39.5371C143.976 39.5371 144.523 39.6543 145.037 39.8887C145.551 40.123 146.001 40.4388 146.385 40.8359C146.769 41.2331 147.072 41.6921 147.293 42.2129C147.514 42.7337 147.625 43.2806 147.625 43.8535V45.9824C147.625 46.5618 147.514 47.112 147.293 47.6328C147.072 48.1536 146.769 48.6094 146.385 49C146.001 49.3971 145.551 49.7129 145.037 49.9473C144.523 50.1816 143.976 50.2988 143.396 50.2988C142.791 50.2988 142.231 50.1849 141.717 49.957C141.209 49.7292 140.763 49.4102 140.379 49H137.273V47.1543ZM143.396 41.3926C143.064 41.3926 142.752 41.4577 142.459 41.5879C142.173 41.7181 141.922 41.8939 141.707 42.1152C141.492 42.3366 141.323 42.597 141.199 42.8965C141.076 43.196 141.014 43.515 141.014 43.8535V45.9629C141.014 46.3079 141.076 46.6302 141.199 46.9297C141.323 47.2292 141.492 47.4928 141.707 47.7207C141.922 47.9421 142.173 48.1178 142.459 48.248C142.752 48.3783 143.064 48.4434 143.396 48.4434C143.722 48.4434 144.028 48.3783 144.314 48.248C144.607 48.1178 144.861 47.9421 145.076 47.7207C145.298 47.4928 145.47 47.2292 145.594 46.9297C145.717 46.6302 145.779 46.3145 145.779 45.9824V43.8535C145.779 43.5215 145.717 43.209 145.594 42.916C145.47 42.6165 145.298 42.3561 145.076 42.1348C144.861 41.9069 144.607 41.7279 144.314 41.5977C144.028 41.4609 143.722 41.3926 143.396 41.3926ZM163.299 47.1543V49H159.559V43.8535C159.565 43.5215 159.503 43.209 159.373 42.916C159.249 42.6165 159.077 42.3561 158.855 42.1348C158.634 41.9069 158.374 41.7279 158.074 41.5977C157.781 41.4609 157.469 41.3926 157.137 41.3926C156.805 41.3926 156.489 41.4577 156.189 41.5879C155.896 41.7181 155.639 41.8971 155.418 42.125C155.203 42.3529 155.031 42.6198 154.9 42.9258C154.777 43.2318 154.715 43.5605 154.715 43.9121V45.9922C154.715 46.1549 154.744 46.3079 154.803 46.4512C154.868 46.5879 154.952 46.7083 155.057 46.8125C155.161 46.9167 155.281 47.0013 155.418 47.0664C155.561 47.125 155.714 47.1543 155.877 47.1543H157.898V49H155.877C155.46 49 155.07 48.9219 154.705 48.7656C154.34 48.6094 154.021 48.3945 153.748 48.1211C153.475 47.8477 153.26 47.5286 153.104 47.1641C152.947 46.7995 152.869 46.4089 152.869 45.9922V43.9121C152.869 43.3066 152.98 42.7402 153.201 42.2129C153.429 41.679 153.735 41.2168 154.119 40.8262C154.503 40.429 154.956 40.1165 155.477 39.8887C155.997 39.6543 156.551 39.5371 157.137 39.5371C157.723 39.5371 158.276 39.6543 158.797 39.8887C159.318 40.1165 159.773 40.429 160.164 40.8262C160.555 41.2168 160.861 41.6758 161.082 42.2031C161.31 42.724 161.421 43.2741 161.414 43.8535V47.1543H163.299ZM157.625 36.8125C157.625 36.6823 157.648 36.5618 157.693 36.4512C157.745 36.334 157.814 36.2331 157.898 36.1484C157.99 36.0573 158.09 35.9889 158.201 35.9434C158.318 35.8913 158.442 35.8652 158.572 35.8652C158.702 35.8652 158.823 35.8913 158.934 35.9434C159.051 35.9889 159.152 36.0573 159.236 36.1484C159.321 36.2331 159.386 36.334 159.432 36.4512C159.484 36.5618 159.51 36.6823 159.51 36.8125C159.51 37.0729 159.419 37.2943 159.236 37.4766C159.054 37.6589 158.833 37.75 158.572 37.75C158.442 37.75 158.318 37.7272 158.201 37.6816C158.09 37.6296 157.99 37.5612 157.898 37.4766C157.814 37.3919 157.745 37.2943 157.693 37.1836C157.648 37.0664 157.625 36.9427 157.625 36.8125ZM154.861 36.8125C154.861 36.6823 154.884 36.5618 154.93 36.4512C154.982 36.334 155.05 36.2331 155.135 36.1484C155.226 36.0573 155.327 35.9889 155.438 35.9434C155.555 35.8913 155.678 35.8652 155.809 35.8652C155.939 35.8652 156.059 35.8913 156.17 35.9434C156.287 35.9889 156.388 36.0573 156.473 36.1484C156.564 36.2331 156.632 36.334 156.678 36.4512C156.73 36.5618 156.756 36.6823 156.756 36.8125C156.756 36.9427 156.73 37.0664 156.678 37.1836C156.632 37.2943 156.564 37.3919 156.473 37.4766C156.388 37.5612 156.287 37.6296 156.17 37.6816C156.059 37.7272 155.939 37.75 155.809 37.75C155.678 37.75 155.555 37.7272 155.438 37.6816C155.327 37.6296 155.226 37.5612 155.135 37.4766C155.05 37.3919 154.982 37.2943 154.93 37.1836C154.884 37.0664 154.861 36.9427 154.861 36.8125ZM166.238 39.5371V41.1973C166.551 40.9564 166.886 40.735 167.244 40.5332C167.602 40.3249 167.973 40.1491 168.357 40.0059C168.742 39.8561 169.129 39.7422 169.52 39.6641C169.91 39.5794 170.294 39.5371 170.672 39.5371C171.212 39.5371 171.723 39.6152 172.205 39.7715C172.693 39.9277 173.12 40.1816 173.484 40.5332C173.849 40.8783 174.135 41.3307 174.344 41.8906C174.559 42.4505 174.666 43.1341 174.666 43.9414V47.1543H176.551V49H162.488V47.1543H164.383V39.5371H166.238ZM170.672 41.3926C170.34 41.3926 169.998 41.4316 169.646 41.5098C169.301 41.5879 168.963 41.6953 168.631 41.832C168.305 41.9622 167.996 42.1217 167.703 42.3105C167.417 42.4928 167.163 42.6914 166.941 42.9062C166.727 43.1211 166.554 43.3457 166.424 43.5801C166.3 43.8145 166.238 44.0488 166.238 44.2832V47.1543H172.811V43.9414C172.811 43.4727 172.752 43.0788 172.635 42.7598C172.524 42.4342 172.371 42.1706 172.176 41.9688C171.98 41.7669 171.753 41.6204 171.492 41.5293C171.232 41.4382 170.958 41.3926 170.672 41.3926ZM178.133 36.8125C178.133 36.6823 178.156 36.5618 178.201 36.4512C178.253 36.334 178.322 36.2331 178.406 36.1484C178.497 36.0573 178.598 35.9889 178.709 35.9434C178.826 35.8913 178.95 35.8652 179.08 35.8652C179.21 35.8652 179.331 35.8913 179.441 35.9434C179.559 35.9889 179.66 36.0573 179.744 36.1484C179.829 36.2331 179.894 36.334 179.939 36.4512C179.992 36.5618 180.018 36.6823 180.018 36.8125C180.018 37.0729 179.926 37.2943 179.744 37.4766C179.562 37.6589 179.34 37.75 179.08 37.75C178.95 37.75 178.826 37.7272 178.709 37.6816C178.598 37.6296 178.497 37.5612 178.406 37.4766C178.322 37.3919 178.253 37.2943 178.201 37.1836C178.156 37.0664 178.133 36.9427 178.133 36.8125ZM180.74 39.5371V47.1543H182.635V49H175.73V47.1543H178.895V39.5371H180.74ZM181.824 47.1543H183.875C183.823 46.9655 183.784 46.7734 183.758 46.5781C183.732 46.3763 183.719 46.1712 183.719 45.9629V43.8535C183.719 43.2611 183.829 42.7044 184.051 42.1836C184.272 41.6562 184.575 41.1973 184.959 40.8066C185.343 40.416 185.789 40.1068 186.297 39.8789C186.811 39.651 187.361 39.5371 187.947 39.5371C188.527 39.5371 189.074 39.6543 189.588 39.8887C190.102 40.123 190.551 40.4388 190.936 40.8359C191.32 41.2331 191.622 41.6921 191.844 42.2129C192.065 42.7337 192.176 43.2806 192.176 43.8535V45.9824C192.176 46.5618 192.065 47.112 191.844 47.6328C191.622 48.1536 191.32 48.6094 190.936 49C190.551 49.3971 190.102 49.7129 189.588 49.9473C189.074 50.1816 188.527 50.2988 187.947 50.2988C187.342 50.2988 186.782 50.1849 186.268 49.957C185.76 49.7292 185.314 49.4102 184.93 49H181.824V47.1543ZM187.947 41.3926C187.615 41.3926 187.303 41.4577 187.01 41.5879C186.723 41.7181 186.473 41.8939 186.258 42.1152C186.043 42.3366 185.874 42.597 185.75 42.8965C185.626 43.196 185.564 43.515 185.564 43.8535V45.9629C185.564 46.3079 185.626 46.6302 185.75 46.9297C185.874 47.2292 186.043 47.4928 186.258 47.7207C186.473 47.9421 186.723 48.1178 187.01 48.248C187.303 48.3783 187.615 48.4434 187.947 48.4434C188.273 48.4434 188.579 48.3783 188.865 48.248C189.158 48.1178 189.412 47.9421 189.627 47.7207C189.848 47.4928 190.021 47.2292 190.145 46.9297C190.268 46.6302 190.33 46.3145 190.33 45.9824V43.8535C190.33 43.5215 190.268 43.209 190.145 42.916C190.021 42.6165 189.848 42.3561 189.627 42.1348C189.412 41.9069 189.158 41.7279 188.865 41.5977C188.579 41.4609 188.273 41.3926 187.947 41.3926Z" fill="white"/>
</g>
<g filter="url(#filter1_d_2801_2851)">
<path d="M45.9165 80.5771C45.9165 80.7074 45.9409 80.8783 45.9897 81.0898C46.0386 81.2933 46.2949 81.6676 46.7588 82.2129C47.2308 82.75 47.479 83.0186 47.5034 83.0186C47.5278 83.0186 47.6458 82.868 47.8574 82.5669C48.0771 82.2658 48.187 82.0583 48.187 81.9443C48.187 81.8223 48.187 81.6799 48.187 81.5171C48.187 81.3462 48.0405 81.1021 47.7476 80.7847C47.4627 80.4591 47.2267 80.2598 47.0396 80.1865C46.8524 80.1133 46.7018 80.0767 46.5879 80.0767C46.4821 80.0767 46.3438 80.1296 46.1729 80.2354C46.002 80.333 45.9165 80.4469 45.9165 80.5771ZM45.6479 75.5479C45.6154 75.4502 45.5951 75.3932 45.5869 75.377C45.5869 75.3525 45.5869 75.3281 45.5869 75.3037C45.5869 75.2712 45.5869 75.2101 45.5869 75.1206C45.5869 75.0311 45.6195 74.9172 45.6846 74.7788C45.7497 74.6405 45.8229 74.4858 45.9043 74.3149C45.9938 74.144 46.12 74.0301 46.2827 73.9731C46.4536 73.908 46.5553 73.8755 46.5879 73.8755C46.6204 73.8755 46.6774 73.8755 46.7588 73.8755C46.8483 73.8755 46.9826 73.9447 47.1616 74.083C47.3488 74.2214 47.4668 74.3841 47.5156 74.5713C47.5645 74.7503 47.5889 74.8724 47.5889 74.9375C47.5889 74.9945 47.5889 75.1572 47.5889 75.4258C47.5889 75.6862 47.4342 75.8734 47.125 75.9873C46.8158 76.0931 46.6408 76.146 46.6001 76.146C46.5594 76.146 46.4902 76.146 46.3926 76.146C46.2949 76.146 46.1525 76.0687 45.9653 75.9141C45.7863 75.7594 45.6805 75.6374 45.6479 75.5479ZM45.2329 88.1577C44.7446 88.3774 44.1343 88.585 43.4019 88.7803C42.6776 88.9756 41.998 89.1099 41.3633 89.1831C40.7285 89.2563 39.6543 89.236 38.1406 89.1221C36.6351 89.0163 35.1092 88.2839 33.563 86.9248C32.0168 85.5658 31.1948 84.2759 31.0972 83.0552C31.0076 81.8263 31.0402 80.7725 31.1948 79.8936C31.3494 79.0065 31.5326 78.2782 31.7441 77.7085C31.9557 77.1388 32.2202 76.5529 32.5376 75.9507C32.855 75.3485 33.2782 74.6974 33.8071 73.9976C34.3442 73.2896 34.6698 72.8989 34.7837 72.8257C34.9058 72.7443 34.979 72.6955 35.0034 72.6792C35.036 72.6548 35.0604 72.6426 35.0767 72.6426C35.1011 72.6426 35.1296 72.6426 35.1621 72.6426C35.2028 72.6426 35.2231 72.6792 35.2231 72.7524C35.2231 72.8257 35.2231 72.8826 35.2231 72.9233C35.2231 72.964 35.2191 73.0129 35.2109 73.0698C35.2028 73.1187 35.1784 73.257 35.1377 73.4849C35.097 73.7127 34.7023 74.4126 33.9536 75.5845C33.2131 76.7563 32.7777 77.9445 32.6475 79.1489C32.5173 80.3452 32.5173 81.3584 32.6475 82.1885C32.7777 83.0186 33.5101 83.9137 34.8447 84.874C36.1794 85.8343 37.3716 86.404 38.4214 86.583C39.4712 86.762 40.5413 86.8109 41.6318 86.7295C42.7305 86.64 43.4344 86.5545 43.7437 86.4731C44.0529 86.3918 44.3499 86.3145 44.6348 86.2412C44.9196 86.1598 45.3346 85.8302 45.8799 85.2524L45.6235 84.8374C45.5015 84.634 45.2492 84.2433 44.8667 83.6655C44.4842 83.0796 44.293 82.6971 44.293 82.5181C44.293 82.339 44.293 82.2048 44.293 82.1152C44.293 82.0176 44.3174 81.7165 44.3662 81.2119C44.415 80.6992 44.5005 80.3493 44.6226 80.1621C44.7528 79.9668 45.0295 79.4867 45.4526 78.7217C45.884 77.9486 46.2624 77.5173 46.5879 77.4277C46.9215 77.3301 47.186 77.2812 47.3813 77.2812C47.5767 77.2812 47.9836 77.5986 48.6021 78.2334C49.2287 78.86 49.5949 79.3239 49.7007 79.625C49.8146 79.9261 49.8716 80.1825 49.8716 80.394C49.8716 80.6056 49.7861 81.0166 49.6152 81.627C49.4443 82.2292 49.2531 82.7256 49.0415 83.1162C48.8381 83.4987 48.6427 83.9626 48.4556 84.5078L48.6265 84.8374C49.0741 85.4722 49.7414 86.0459 50.6284 86.5586H51.0068L51.019 89C50.5063 89 50.0547 88.8739 49.6641 88.6216C49.2734 88.3612 48.9764 88.1659 48.7729 88.0356C48.5776 87.8973 48.3416 87.7061 48.0649 87.4619C47.7882 87.2096 47.4953 86.9167 47.186 86.583L46.771 86.9858C46.2339 87.5474 45.7212 87.938 45.2329 88.1577ZM53.5825 78.1479H53.8267C54.3963 78.1479 55.145 79.0553 56.0728 80.8701C56.2355 81.3177 56.3169 81.8752 56.3169 82.5425C56.3169 85.0164 55.4543 86.8923 53.729 88.1699C52.9315 88.7477 52.0973 89.0285 51.2266 89.0122L50.7017 89V86.5586C51.2957 86.5586 51.9468 86.4894 52.6548 86.3511C53.4442 86.1151 53.9325 85.814 54.1196 85.4478C54.4451 85.0002 54.6079 84.3939 54.6079 83.6289C54.6079 82.6117 53.9406 81.6921 52.606 80.8701C52.4106 80.5609 52.313 80.2598 52.313 79.9668C52.6222 78.7542 53.0454 78.1479 53.5825 78.1479ZM55.377 89.2319C56.1582 89.2319 56.5488 89.6185 56.5488 90.3916C56.5488 91.0264 56.2233 91.4577 55.5723 91.6855L55.1328 91.7832H54.9375C54.2539 91.5716 53.9121 91.2298 53.9121 90.7578L53.8633 90.4404C53.8633 89.7731 54.3353 89.3703 55.2793 89.2319H55.377ZM52.1665 90.1597H52.606C53.0861 90.1597 53.4116 90.4242 53.5825 90.9531V91.4658C53.4035 92.2715 52.9803 92.6743 52.313 92.6743H52.0688C51.3201 92.3732 50.9458 91.9704 50.9458 91.4658V91.1851C51.1899 90.5015 51.5968 90.1597 52.1665 90.1597ZM59.7104 83.7266C59.8488 83.694 59.9709 83.6899 60.0767 83.7144C60.1825 83.7388 60.2435 83.7957 60.2598 83.8853C60.276 83.9748 60.2679 84.1294 60.2354 84.3491C60.2028 84.5688 60.276 84.9717 60.4551 85.5576C60.6423 86.1354 60.9678 86.4487 61.4316 86.4976C61.8955 86.5382 62.4367 86.5586 63.0552 86.5586V89C62.1844 89.0081 61.631 89.0041 61.395 88.9878C61.1672 88.9634 61.0044 89.0203 60.9067 89.1587C60.8172 89.297 60.7399 89.5859 60.6748 90.0254C60.6097 90.4648 60.4591 90.9165 60.2231 91.3804C59.9953 91.8524 59.7796 92.2633 59.5762 92.6133C59.3727 92.9632 59.2018 93.2318 59.0635 93.4189C58.9251 93.6061 58.4246 94.127 57.562 94.9814C56.6994 95.8359 56.0524 96.373 55.6211 96.5928C55.1816 96.8125 54.8276 96.9997 54.5591 97.1543C54.2824 97.3089 53.8022 97.4839 53.1187 97.6792C52.4269 97.8745 52.0566 97.9884 52.0078 98.021C51.959 98.0617 51.548 98.1146 50.7749 98.1797C49.9937 98.2448 49.3345 98.2611 48.7974 98.2285C48.2603 98.196 47.8493 98.1553 47.5645 98.1064C47.2796 98.0658 46.8239 97.9559 46.1973 97.7769C45.5625 97.5978 44.8545 97.3496 44.0732 97.0322C43.292 96.7148 42.8078 96.4463 42.6206 96.2266C42.4334 96.015 42.3358 95.8441 42.3276 95.7139C42.3114 95.5918 42.3154 95.4331 42.3398 95.2378C42.3643 95.0506 42.4701 94.9326 42.6572 94.8838C42.8363 94.8431 43.0316 94.835 43.2432 94.8594C43.4466 94.8919 43.7681 95.0384 44.2075 95.2988C44.6388 95.5674 45.0173 95.7464 45.3428 95.8359C45.6602 95.9336 45.8311 95.9824 45.8555 95.9824C45.8717 95.9906 46.0589 96.0435 46.417 96.1411C46.7669 96.2388 47.2837 96.3364 47.9673 96.4341C48.6427 96.5317 49.2165 96.5684 49.6885 96.5439C50.1523 96.5277 50.6162 96.4992 51.0801 96.4585C51.5358 96.4178 52.0566 96.2835 52.6426 96.0557C53.2204 95.8278 53.672 95.6406 53.9976 95.4941C54.3149 95.3558 54.7178 95.1157 55.2061 94.7739C55.6862 94.4403 56.0972 94.1188 56.439 93.8096C56.7726 93.5003 57.0697 93.1951 57.3301 92.894C57.5986 92.5929 57.8184 92.2796 57.9893 91.9541C58.1683 91.6367 58.3148 91.3356 58.4287 91.0508C58.5508 90.766 58.7013 90.2614 58.8804 89.5371C59.0675 88.821 59.0757 88.3083 58.9048 87.999C58.7339 87.6898 58.6159 87.2951 58.5508 86.8149C58.4938 86.3348 58.4775 86.0174 58.502 85.8628C58.5264 85.7082 58.5833 85.5413 58.6729 85.3623C58.7624 85.1833 58.8397 84.9839 58.9048 84.7642C58.9699 84.5444 59.0879 84.3247 59.2588 84.105C59.4297 83.8853 59.5802 83.7591 59.7104 83.7266ZM66.5098 79.5762C66.5098 79.2913 66.64 79.0228 66.9004 78.7705C67.1608 78.5101 67.4985 78.3799 67.9136 78.3799C68.7111 78.3799 69.1099 78.7786 69.1099 79.5762C69.1099 79.9098 68.9837 80.2272 68.7314 80.5283C68.4873 80.8294 68.1496 80.98 67.7183 80.98C67.4823 80.98 67.2218 80.8294 66.937 80.5283C66.6522 80.2272 66.5098 79.9098 66.5098 79.5762ZM70.2329 79.1733C70.2329 78.8722 70.3672 78.5996 70.6357 78.3555C70.9043 78.1032 71.238 77.9771 71.6367 77.9771C72.0843 77.9771 72.3936 78.091 72.5645 78.3188C72.7435 78.5386 72.833 78.8234 72.833 79.1733C72.833 79.6616 72.6702 80.0197 72.3447 80.2476C72.0273 80.4673 71.6571 80.5771 71.2339 80.5771C71.006 80.4958 70.7822 80.3696 70.5625 80.1987C70.3428 80.0197 70.2329 79.6779 70.2329 79.1733ZM68.1943 76.2192C68.1943 75.9425 68.3205 75.674 68.5728 75.4136C68.8332 75.1532 69.1709 75.0229 69.5859 75.0229C70.3916 75.0229 70.7944 75.4217 70.7944 76.2192C70.7944 76.5529 70.6683 76.8703 70.416 77.1714C70.1637 77.4725 69.8219 77.623 69.3906 77.623C69.1546 77.623 68.8942 77.4725 68.6094 77.1714C68.3327 76.8703 68.1943 76.5529 68.1943 76.2192ZM73.3945 81.1631C73.4189 81.1631 73.5736 81.1631 73.8584 81.1631C74.1514 81.1631 74.4443 81.3706 74.7373 81.7856C75.0303 82.2007 75.25 82.6401 75.3965 83.104C75.543 83.5679 75.6162 83.8446 75.6162 83.9341C75.6162 84.0236 75.6162 84.2596 75.6162 84.6421C75.6162 85.0246 75.5755 85.4355 75.4941 85.875C75.6813 86.0703 75.9417 86.2331 76.2754 86.3633C76.6172 86.4854 77.1014 86.5505 77.728 86.5586V89C77.02 89 76.3771 88.8901 75.7993 88.6704C75.2297 88.4507 74.7576 88.2065 74.3833 87.938C74.3101 87.9787 74.0496 88.1333 73.6021 88.4019C73.1626 88.6623 72.8778 88.8169 72.7476 88.8657C72.6255 88.9146 72.4505 88.9146 72.2227 88.8657C72.0029 88.8169 71.7669 88.6989 71.5146 88.5117C71.2624 88.3164 70.9084 88.0601 70.4526 87.7427C70.1027 88.0682 69.7284 88.3408 69.3296 88.5605C68.9308 88.7721 68.6094 88.8942 68.3652 88.9268C68.1292 88.9593 67.7061 88.9064 67.0957 88.7681C66.4935 88.6297 66.0662 88.4385 65.814 88.1943C65.5617 87.9421 65.3908 87.759 65.3013 87.645C64.4875 88.467 63.7103 88.9146 62.9697 88.9878L62.2007 89L62.2129 86.5464C62.7419 86.5708 63.161 86.5057 63.4702 86.3511C63.7876 86.1883 64.0724 85.9604 64.3247 85.6675C64.577 85.3745 64.752 85.0938 64.8496 84.8252C64.9554 84.5566 65.0897 84.3369 65.2524 84.166C65.4152 83.987 65.521 83.8975 65.5698 83.8975C65.6268 83.8975 65.7367 83.8975 65.8994 83.8975C66.0703 83.8975 66.2616 84.105 66.4731 84.52C66.6847 84.9269 66.876 85.1955 67.0469 85.3257C67.2178 85.4559 67.4782 85.5942 67.8281 85.7407C68.1862 85.8872 68.4548 85.9523 68.6338 85.936C68.8128 85.9198 69.0163 85.7896 69.2441 85.5454C69.472 85.3013 69.6063 85.0815 69.647 84.8862C69.6877 84.6909 69.8138 84.4468 70.0254 84.1538C70.2451 83.8608 70.4079 83.6981 70.5137 83.6655C70.6276 83.633 70.7415 83.633 70.8555 83.6655C70.9775 83.6981 71.0589 83.9259 71.0996 84.3491C71.1403 84.7723 71.3356 85.0897 71.6855 85.3013C72.0436 85.5047 72.3407 85.6512 72.5767 85.7407C72.8127 85.8221 73.0527 85.7855 73.2969 85.6309C73.5492 85.4681 73.6712 85.3298 73.6631 85.2158C73.6631 85.1019 73.6183 84.9066 73.5288 84.6299C73.4393 84.3451 73.2643 84.166 73.0039 84.0928C72.7516 84.0195 72.597 83.8812 72.54 83.6777C72.4912 83.4661 72.4668 83.1447 72.4668 82.7134C72.4668 82.2821 72.6133 81.9159 72.9062 81.6147C73.2074 81.3136 73.3701 81.1631 73.3945 81.1631ZM78.2529 72.313C78.7005 72.0607 79.0342 71.9712 79.2539 72.0444C79.4818 72.1095 79.7015 72.2804 79.9131 72.5571C80.1328 72.8338 80.3403 73.2692 80.5356 73.8633C80.731 74.4492 80.8571 75.0067 80.9141 75.5356C80.971 76.0565 81.0605 77.4237 81.1826 79.6372C81.3047 81.8507 81.4105 83.3441 81.5 84.1172C81.5977 84.8822 81.6465 85.4966 81.6465 85.9604C81.6546 86.4162 81.5814 86.8271 81.4268 87.1934C81.2803 87.5596 80.967 87.9054 80.4868 88.231C80.0067 88.5483 79.4696 88.7599 78.8755 88.8657C78.2896 88.9715 77.7524 89.0163 77.2642 89V86.5586C77.5246 86.5586 77.7199 86.5627 77.8501 86.5708C77.9803 86.5708 78.2733 86.5505 78.729 86.5098C79.1929 86.4691 79.494 86.3185 79.6323 86.0581C79.7707 85.7977 79.8236 85.4315 79.791 84.9595C79.7666 84.4793 79.734 83.9259 79.6934 83.2993C79.6527 82.6646 79.6242 81.5537 79.6079 79.9668C79.5916 78.3799 79.5021 77.2812 79.3394 76.6709C79.1766 76.0605 78.8714 75.6252 78.4238 75.3647C77.9844 75.1043 77.7362 74.8154 77.6792 74.498C77.6222 74.1807 77.5938 73.7982 77.5938 73.3506C77.5938 72.903 77.8135 72.5571 78.2529 72.313ZM84.0269 71.8125C84.2954 71.8125 84.6657 71.9753 85.1377 72.3008C85.6097 72.6263 85.8457 73.0698 85.8457 73.6313C85.8457 74.1847 85.8457 74.555 85.8457 74.7422C85.8457 74.9212 85.8579 75.1247 85.8823 75.3525C85.9149 75.5804 85.9312 75.8896 85.9312 76.2803C85.9312 76.6709 85.9312 76.9476 85.9312 77.1104C85.9312 77.2731 85.9352 77.4359 85.9434 77.5986C85.9596 77.7533 85.9718 77.916 85.98 78.0869C85.9963 78.2578 86.0085 78.6118 86.0166 79.1489C86.0247 79.6779 86.0247 80.4266 86.0166 81.395C86.0085 82.3553 86.0166 83.0023 86.041 83.3359C86.0736 83.6615 86.0898 83.9178 86.0898 84.105C86.0898 84.2922 86.1265 84.5729 86.1997 84.9473C86.2811 85.3216 86.4805 85.7651 86.7979 86.2778C87.1152 86.7824 87.2861 87.1283 87.3105 87.3154C87.335 87.4945 87.3472 87.645 87.3472 87.7671C87.3472 87.8892 87.3105 88.1252 87.2373 88.4751C87.1641 88.825 86.9525 89 86.6025 89C86.2607 89 85.8254 88.8739 85.2964 88.6216C84.7674 88.3693 84.5029 88.1536 84.5029 87.9746C84.5029 87.7956 84.5029 87.6043 84.5029 87.4009C84.5029 87.1974 84.5029 87.0143 84.5029 86.8516C84.5029 86.6807 84.5558 86.4406 84.6616 86.1313C84.7674 85.8221 84.8 85.11 84.7593 83.9951C84.7267 82.8802 84.7064 82.1274 84.6982 81.7368C84.6982 81.3381 84.6982 81.0247 84.6982 80.7969C84.7064 80.569 84.7023 80.3289 84.686 80.0767C84.6698 79.8244 84.6616 79.2466 84.6616 78.3433C84.6616 77.4399 84.625 76.7441 84.5518 76.2559C84.4867 75.7594 84.3442 75.438 84.1245 75.2915C83.9048 75.145 83.6769 74.8846 83.4409 74.5103C83.2049 74.1359 83.0869 73.8918 83.0869 73.7778C83.0869 73.6558 83.1764 73.2977 83.3555 72.7036C83.5345 72.1095 83.7583 71.8125 84.0269 71.8125ZM99.5908 82.7378C99.3304 83.0715 99.0822 83.1569 98.8462 82.9941C98.6102 82.8314 98.4067 82.75 98.2358 82.75C98.0731 82.75 97.7842 82.7785 97.3691 82.8354C96.9622 82.8924 96.6815 82.9738 96.5269 83.0796C96.3722 83.1854 96.2868 83.3034 96.2705 83.4336C96.2624 83.5638 96.2909 83.6574 96.356 83.7144C96.4211 83.7632 96.6164 83.7998 96.9419 83.8242C97.2756 83.8486 97.6011 83.9666 97.9185 84.1782C98.2358 84.3817 98.4759 84.634 98.6387 84.9351C98.8014 85.2362 98.9154 85.582 98.9805 85.9727C99.0456 86.3633 99.0781 86.7254 99.0781 87.0591C99.0781 87.3846 98.895 87.9502 98.5288 88.7559C98.1707 89.5534 97.7801 90.237 97.3569 90.8066C96.9419 91.3844 96.4943 91.9785 96.0142 92.5889C95.534 93.1992 94.9603 93.777 94.293 94.3223C93.6338 94.8757 92.9339 95.3883 92.1934 95.8604C91.4447 96.3324 90.7204 96.6986 90.0205 96.959C89.3206 97.2275 88.8039 97.4106 88.4702 97.5083C88.1284 97.6141 87.6279 97.7362 86.9688 97.8745C86.3096 98.0129 85.3818 98.1431 84.1855 98.2651C82.9893 98.3872 81.7401 98.4157 80.438 98.3506C79.1359 98.2936 78.1675 98.2163 77.5327 98.1187C76.8898 98.0291 76.2469 97.9315 75.604 97.8257C74.9611 97.728 74.3182 97.5612 73.6753 97.3252C73.0324 97.0892 72.4505 96.8369 71.9297 96.5684C71.4089 96.2998 70.9775 96.0435 70.6357 95.7993C70.2939 95.5633 69.9115 95.2866 69.4883 94.9692C69.057 94.66 68.5605 94.1676 67.999 93.4922C67.4375 92.8167 67.116 92.4058 67.0347 92.2593C66.9533 92.1209 66.8719 91.8849 66.7905 91.5513C66.701 91.2257 66.7336 90.9206 66.8882 90.6357C67.0347 90.359 67.2463 90.3306 67.5229 90.5503C67.7996 90.7782 67.9868 90.9938 68.0845 91.1973C68.1821 91.4089 68.4466 91.8117 68.8779 92.4058C69.3011 92.9998 69.9969 93.6143 70.9653 94.249C71.9338 94.8838 72.8656 95.3761 73.7607 95.7261C74.6478 96.0841 75.6732 96.3405 76.8369 96.4951C78.0007 96.6579 78.9202 96.7637 79.5957 96.8125C80.263 96.8695 81.0728 96.8939 82.0249 96.8857C82.9689 96.8776 83.9821 96.8166 85.0645 96.7026C86.1468 96.5887 87.1763 96.3893 88.1528 96.1045C89.1213 95.8197 89.9391 95.486 90.6064 95.1035C91.2738 94.7292 91.9289 94.2938 92.5718 93.7974C93.2065 93.3091 93.6826 92.8981 94 92.5645C94.3255 92.2389 94.7446 91.7791 95.2573 91.1851C95.77 90.5991 96.1525 90.0905 96.4048 89.6592C96.6571 89.236 96.8605 88.8617 97.0151 88.5361C97.1779 88.2025 97.3 87.8851 97.3813 87.584C97.4627 87.2747 97.4505 86.9655 97.3447 86.6562C97.2389 86.347 97.0314 86.1191 96.7222 85.9727C96.4211 85.818 96.0508 85.7367 95.6113 85.7285C95.18 85.7122 94.883 85.6634 94.7202 85.582C94.5575 85.5007 94.4354 85.3704 94.354 85.1914C94.2808 85.0042 94.2441 84.7682 94.2441 84.4834C94.2441 84.1904 94.3499 83.7876 94.5615 83.2749C94.7812 82.7541 94.9521 82.4082 95.0742 82.2373C95.2044 82.0583 95.3306 81.9118 95.4526 81.7979C95.5747 81.6758 95.7334 81.5252 95.9287 81.3462C96.1322 81.1672 96.3356 81.0085 96.5391 80.8701C96.7425 80.7318 96.9948 80.626 97.2959 80.5527C97.597 80.4795 97.9469 80.4185 98.3457 80.3696C98.7526 80.3127 99.127 80.3656 99.4688 80.5283C99.8187 80.6829 99.9937 80.9393 99.9937 81.2974C99.9937 81.6473 99.9937 81.8914 99.9937 82.0298C99.9937 82.1681 99.8594 82.4041 99.5908 82.7378ZM85.4795 98.8633C85.5853 98.8633 85.7399 98.8633 85.9434 98.8633C86.1387 98.8633 86.3421 98.9731 86.5537 99.1929C86.7572 99.4207 86.8548 99.6038 86.8467 99.7422C86.8304 99.8887 86.8141 100.039 86.7979 100.194C86.7816 100.348 86.6799 100.503 86.4927 100.658C86.3055 100.812 86.1143 100.89 85.9189 100.89C85.7236 100.898 85.5324 100.902 85.3452 100.902C85.158 100.902 84.9505 100.796 84.7227 100.584C84.4867 100.381 84.3768 100.226 84.3931 100.121C84.4012 100.015 84.4134 99.8968 84.4297 99.7666C84.4378 99.6364 84.5884 99.4533 84.8813 99.2173C85.1662 98.9894 85.3656 98.8714 85.4795 98.8633ZM88.8975 98.7412C88.9788 98.7168 89.1131 98.7046 89.3003 98.7046C89.4875 98.7046 89.7275 98.786 90.0205 98.9487C90.3053 99.1196 90.4396 99.3027 90.4233 99.498C90.4071 99.6934 90.3949 99.8602 90.3867 99.9985C90.3704 100.137 90.2769 100.292 90.106 100.462C89.9351 100.641 89.7397 100.731 89.52 100.731C89.3003 100.731 89.1009 100.731 88.9219 100.731C88.7347 100.731 88.5272 100.629 88.2993 100.426C88.0633 100.23 87.9535 100.076 87.9697 99.9619C87.9779 99.8561 87.9941 99.6893 88.0186 99.4614C88.0348 99.2336 88.165 99.0627 88.4092 98.9487C88.6533 98.8348 88.8161 98.7656 88.8975 98.7412ZM106.231 84.5078C106.012 84.695 105.882 84.8659 105.841 85.0205C105.808 85.1751 105.792 85.342 105.792 85.521C105.8 85.7 105.849 85.8465 105.938 85.9604C106.028 86.0744 106.227 86.2005 106.537 86.3389C106.846 86.4772 107.2 86.5586 107.599 86.583C107.623 86.2493 107.631 85.9035 107.623 85.5454C107.623 85.1873 107.566 84.9147 107.452 84.7275C107.346 84.5404 107.171 84.4102 106.927 84.3369C106.683 84.2637 106.451 84.3206 106.231 84.5078ZM106.622 82.0054C107.379 81.8752 108.14 82.0949 108.905 82.6646C109.678 83.2261 110.016 84.5322 109.918 86.583C110.073 86.583 110.272 86.5749 110.516 86.5586V89C110.15 89.0488 109.828 89.0814 109.552 89.0977C109.031 90.9531 108.421 92.3854 107.721 93.3945C107.021 94.4118 106.085 95.2988 104.913 96.0557C103.741 96.8125 102.602 97.3252 101.495 97.5938C100.396 97.8704 99.3385 98.0413 98.3213 98.1064C97.2959 98.1715 96.3315 98.1553 95.4282 98.0576C94.5249 97.9681 93.4832 97.724 92.3032 97.3252C91.1151 96.9346 90.11 96.4259 89.2881 95.7993C88.4661 95.1727 87.9901 94.6193 87.8599 94.1392C87.7297 93.6672 87.7174 93.3294 87.8232 93.126C87.9209 92.9307 88.047 92.8371 88.2017 92.8452C88.3563 92.8534 88.6574 93.1056 89.105 93.6021C89.5526 94.1066 90.0327 94.5176 90.5454 94.835C91.05 95.1605 91.6807 95.4697 92.4375 95.7627C93.1862 96.0638 94.0651 96.2957 95.0742 96.4585C96.0752 96.6213 97.3325 96.6335 98.8462 96.4951C100.36 96.3649 101.65 95.9946 102.716 95.3843C103.782 94.7739 104.567 94.2083 105.072 93.6875C105.576 93.1748 105.983 92.6174 106.292 92.0151C106.602 91.4129 106.968 90.3875 107.391 88.939C106.903 88.8494 106.484 88.764 106.134 88.6826C105.784 88.5931 105.418 88.4629 105.035 88.292C104.661 88.1211 104.323 87.7915 104.022 87.3032C103.729 86.8068 103.619 86.1883 103.692 85.4478C103.766 84.6991 104.083 83.9707 104.645 83.2627C105.206 82.5465 105.865 82.1274 106.622 82.0054ZM113.055 89.4761C113.853 89.5005 114.41 89.7568 114.728 90.2451L114.911 90.6113L114.898 91.1118C114.695 91.5024 114.349 91.7832 113.861 91.9541L112.945 92.1494H112.848C112.384 92.1331 111.928 91.8524 111.48 91.3071L111.517 90.4526C112.046 89.8504 112.547 89.5493 113.019 89.5493H113.055V89.4761ZM115.338 83.397H115.582C115.916 83.397 116.095 83.519 116.119 83.7632C116.152 83.9992 116.087 84.3247 115.924 84.7397C116.192 85.464 116.616 85.9604 117.193 86.229C117.625 86.4487 118.08 86.5586 118.561 86.5586V89L118.329 88.9878C116.75 88.9634 115.627 88.5036 114.959 87.6084C114.748 87.3887 114.532 87.0062 114.312 86.4609H114.264C114.166 86.4691 113.515 87.0265 112.311 88.1333C111.44 88.7111 110.715 89 110.138 89V86.5586C110.96 86.526 111.944 85.8872 113.092 84.6421C114.133 83.8039 114.882 83.3888 115.338 83.397ZM120.282 79.979C120.282 79.6942 120.408 79.4215 120.66 79.1611C120.921 78.9007 121.258 78.7705 121.673 78.7705C122.479 78.7705 122.882 79.1733 122.882 79.979C122.882 80.3127 122.756 80.63 122.503 80.9312C122.251 81.2241 121.909 81.3706 121.478 81.3706C121.242 81.3706 120.982 81.2241 120.697 80.9312C120.42 80.63 120.282 80.3127 120.282 79.979ZM123.541 83.397H123.785C124.119 83.397 124.298 83.519 124.322 83.7632C124.355 83.9992 124.29 84.3247 124.127 84.7397C124.396 85.464 124.819 85.9604 125.396 86.229C125.828 86.4487 126.284 86.5586 126.764 86.5586V89L126.532 88.9878C124.953 88.9634 123.83 88.5036 123.163 87.6084C122.951 87.3887 122.735 87.0062 122.516 86.4609H122.467C122.369 86.4691 121.718 87.0265 120.514 88.1333C119.643 88.7111 118.931 89 118.377 89V86.5586C119.175 86.526 120.147 85.8872 121.295 84.6421C122.337 83.8039 123.085 83.3888 123.541 83.397ZM127.569 72.313C128.017 72.0607 128.351 71.9712 128.57 72.0444C128.798 72.1095 129.018 72.2804 129.229 72.5571C129.449 72.8338 129.657 73.2692 129.852 73.8633C130.047 74.4492 130.174 75.0067 130.23 75.5356C130.287 76.0565 130.377 77.4237 130.499 79.6372C130.621 81.8507 130.727 83.3441 130.816 84.1172C130.914 84.8822 130.963 85.4966 130.963 85.9604C130.971 86.4162 130.898 86.8271 130.743 87.1934C130.597 87.5596 130.283 87.9054 129.803 88.231C129.323 88.5483 128.786 88.7599 128.192 88.8657C127.606 88.9715 127.069 89.0163 126.581 89V86.5586C126.841 86.5586 127.036 86.5627 127.167 86.5708C127.297 86.5708 127.59 86.5505 128.045 86.5098C128.509 86.4691 128.81 86.3185 128.949 86.0581C129.087 85.7977 129.14 85.4315 129.107 84.9595C129.083 84.4793 129.05 83.9259 129.01 83.2993C128.969 82.6646 128.941 81.5537 128.924 79.9668C128.908 78.3799 128.819 77.2812 128.656 76.6709C128.493 76.0605 128.188 75.6252 127.74 75.3647C127.301 75.1043 127.053 74.8154 126.996 74.498C126.939 74.1807 126.91 73.7982 126.91 73.3506C126.91 72.903 127.13 72.5571 127.569 72.313ZM133.343 71.8125C133.612 71.8125 133.982 71.9753 134.454 72.3008C134.926 72.6263 135.162 73.0698 135.162 73.6313C135.162 74.1847 135.162 74.555 135.162 74.7422C135.162 74.9212 135.174 75.1247 135.199 75.3525C135.231 75.5804 135.248 75.8896 135.248 76.2803C135.248 76.6709 135.248 76.9476 135.248 77.1104C135.248 77.2731 135.252 77.4359 135.26 77.5986C135.276 77.7533 135.288 77.916 135.296 78.0869C135.313 78.2578 135.325 78.6118 135.333 79.1489C135.341 79.6779 135.341 80.4266 135.333 81.395C135.325 82.3553 135.333 83.0023 135.357 83.3359C135.39 83.6615 135.406 83.9178 135.406 84.105C135.406 84.2922 135.443 84.5729 135.516 84.9473C135.597 85.3216 135.797 85.7651 136.114 86.2778C136.432 86.7824 136.603 87.1283 136.627 87.3154C136.651 87.4945 136.664 87.645 136.664 87.7671C136.664 87.8892 136.627 88.1252 136.554 88.4751C136.48 88.825 136.269 89 135.919 89C135.577 89 135.142 88.8739 134.613 88.6216C134.084 88.3693 133.819 88.1536 133.819 87.9746C133.819 87.7956 133.819 87.6043 133.819 87.4009C133.819 87.1974 133.819 87.0143 133.819 86.8516C133.819 86.6807 133.872 86.4406 133.978 86.1313C134.084 85.8221 134.116 85.11 134.076 83.9951C134.043 82.8802 134.023 82.1274 134.015 81.7368C134.015 81.3381 134.015 81.0247 134.015 80.7969C134.023 80.569 134.019 80.3289 134.002 80.0767C133.986 79.8244 133.978 79.2466 133.978 78.3433C133.978 77.4399 133.941 76.7441 133.868 76.2559C133.803 75.7594 133.661 75.438 133.441 75.2915C133.221 75.145 132.993 74.8846 132.757 74.5103C132.521 74.1359 132.403 73.8918 132.403 73.7778C132.403 73.6558 132.493 73.2977 132.672 72.7036C132.851 72.1095 133.075 71.8125 133.343 71.8125ZM157.989 79.4419C158.339 79.4419 158.559 79.4419 158.648 79.4419C158.738 79.4419 158.848 79.4785 158.978 79.5518C159.108 79.625 159.23 79.7796 159.344 80.0156C159.458 80.2516 159.458 80.6056 159.344 81.0776C159.238 81.5496 159.019 81.7856 158.685 81.7856C158.351 81.7856 158.091 81.7694 157.904 81.7368C157.725 81.6961 157.57 81.5537 157.44 81.3096C157.318 81.0573 157.241 80.8823 157.208 80.7847C157.184 80.6789 157.22 80.4307 157.318 80.04C157.424 79.6413 157.647 79.4419 157.989 79.4419ZM155.316 79.8691C155.471 79.8691 155.568 79.8691 155.609 79.8691C155.65 79.8691 155.772 79.8691 155.975 79.8691C156.187 79.8691 156.333 79.9627 156.415 80.1499C156.496 80.3371 156.537 80.5283 156.537 80.7236C156.537 80.9108 156.402 81.1712 156.134 81.5049C155.873 81.8385 155.621 82.0054 155.377 82.0054C155.133 82.0054 154.999 82.0054 154.974 82.0054C154.958 82.0054 154.848 81.9688 154.645 81.8955C154.449 81.8141 154.286 81.6595 154.156 81.4316C154.026 81.1956 154.046 80.9108 154.217 80.5771C154.396 80.2435 154.583 80.0441 154.779 79.979C154.982 79.9058 155.161 79.8691 155.316 79.8691ZM156.573 77.0371C156.728 77.0371 156.826 77.0371 156.866 77.0371C156.907 77.0371 157.029 77.0371 157.232 77.0371C157.444 77.0371 157.59 77.1307 157.672 77.3179C157.753 77.505 157.794 77.6963 157.794 77.8916C157.794 78.0788 157.66 78.3392 157.391 78.6729C157.131 79.0065 156.878 79.1733 156.634 79.1733C156.39 79.1733 156.256 79.1733 156.231 79.1733C156.215 79.1733 156.105 79.1367 155.902 79.0635C155.707 78.9821 155.544 78.8275 155.414 78.5996C155.283 78.3636 155.304 78.0788 155.475 77.7451C155.654 77.4115 155.841 77.2121 156.036 77.147C156.24 77.0737 156.419 77.0371 156.573 77.0371ZM148.773 72.7769C149.481 72.5897 150.185 72.4635 150.885 72.3984C151.585 72.3333 152.219 72.3659 152.789 72.4961C153.359 72.6182 153.884 72.8338 154.364 73.1431C154.852 73.4523 155.076 73.7127 155.035 73.9243C155.003 74.1359 154.929 74.2783 154.815 74.3516C154.71 74.4167 154.482 74.3434 154.132 74.1318C153.782 73.9202 153.347 73.7453 152.826 73.6069C152.313 73.4686 151.772 73.4279 151.202 73.4849C150.632 73.5418 150.152 73.611 149.762 73.6924C149.371 73.7656 148.964 73.8796 148.541 74.0342C148.118 74.1807 147.658 74.4329 147.162 74.791C146.665 75.1491 146.214 75.6089 145.807 76.1704C145.4 76.7319 145.115 77.2975 144.952 77.8672C144.798 78.4368 144.7 78.8153 144.659 79.0024C144.618 79.1896 144.61 79.5965 144.635 80.2231C144.659 80.8498 144.724 81.3869 144.83 81.8345C144.944 82.2739 145.111 82.7744 145.331 83.3359C145.55 83.8975 145.949 84.4183 146.527 84.8984C147.113 85.3786 147.833 85.7855 148.688 86.1191C149.55 86.4528 150.352 86.6562 151.092 86.7295C151.841 86.7946 152.561 86.7946 153.253 86.7295C153.953 86.6562 154.645 86.4894 155.328 86.229C156.012 85.9686 156.634 85.6593 157.196 85.3013C157.765 84.9432 158.229 84.5282 158.587 84.0562C158.954 83.576 159.356 83.3929 159.796 83.5068C160.243 83.6208 160.475 83.8405 160.492 84.166C160.508 84.4915 160.443 84.9025 160.296 85.3989C160.589 86.1965 161.102 86.5789 161.834 86.5464V89C161.11 89.0081 160.516 88.8413 160.052 88.4995C159.588 88.1577 159.206 87.7549 158.905 87.291C158.571 87.4701 158.103 87.7061 157.501 87.999C156.907 88.292 156.134 88.5687 155.182 88.8291C154.238 89.0814 153.054 89.1383 151.629 89C150.205 88.8535 148.94 88.5361 147.833 88.0479C146.734 87.5596 145.937 87.0754 145.44 86.5952C144.944 86.1069 144.505 85.5047 144.122 84.7886C143.748 84.0724 143.516 83.0796 143.426 81.8101C143.337 80.5324 143.418 79.3727 143.67 78.3311C143.923 77.2894 144.236 76.4593 144.61 75.8408C144.985 75.2223 145.375 74.7463 145.782 74.4126C146.197 74.0708 146.625 73.7616 147.064 73.4849C147.503 73.2 148.073 72.964 148.773 72.7769ZM164.3 78.1479H164.544C165.114 78.1479 165.863 79.0553 166.791 80.8701C166.953 81.3177 167.035 81.8752 167.035 82.5425C167.035 85.0164 166.172 86.8923 164.447 88.1699C163.649 88.7477 162.815 89.0285 161.944 89.0122L161.419 89V86.5586C162.014 86.5586 162.665 86.4894 163.373 86.3511C164.162 86.1151 164.65 85.814 164.837 85.4478C165.163 85.0002 165.326 84.3939 165.326 83.6289C165.326 82.6117 164.658 81.6921 163.324 80.8701C163.128 80.5609 163.031 80.2598 163.031 79.9668C163.34 78.7542 163.763 78.1479 164.3 78.1479ZM166.095 89.2319C166.876 89.2319 167.267 89.6185 167.267 90.3916C167.267 91.0264 166.941 91.4577 166.29 91.6855L165.851 91.7832H165.655C164.972 91.5716 164.63 91.2298 164.63 90.7578L164.581 90.4404C164.581 89.7731 165.053 89.3703 165.997 89.2319H166.095ZM162.884 90.1597H163.324C163.804 90.1597 164.129 90.4242 164.3 90.9531V91.4658C164.121 92.2715 163.698 92.6743 163.031 92.6743H162.787C162.038 92.3732 161.664 91.9704 161.664 91.4658V91.1851C161.908 90.5015 162.315 90.1597 162.884 90.1597ZM174.273 71.2388C174.42 71.2388 174.538 71.3039 174.627 71.4341C174.717 71.5562 174.741 71.666 174.701 71.7637C174.66 71.8532 174.623 72.02 174.591 72.2642C174.566 72.5002 174.465 72.724 174.286 72.9355C174.115 73.1471 173.993 73.2529 173.919 73.2529C173.854 73.2529 173.602 73.4401 173.163 73.8145C172.723 74.1888 172.442 74.4451 172.32 74.5835C172.198 74.7218 172.076 74.8927 171.954 75.0962C171.84 75.2915 171.738 75.5438 171.649 75.853C171.559 76.1623 171.502 76.4878 171.478 76.8296C171.462 77.1632 171.474 77.4847 171.515 77.7939C171.555 78.1032 171.657 78.5182 171.82 79.0391C171.991 79.5518 172.259 80.0116 172.625 80.4185C172.992 80.8172 173.272 81.1102 173.468 81.2974C173.671 81.4764 173.915 81.6717 174.2 81.8833C174.485 82.0949 174.806 82.3472 175.165 82.6401C175.523 82.9331 175.962 83.1569 176.483 83.3115C177.012 83.458 177.639 83.6493 178.363 83.8853C179.095 84.1131 179.571 84.2637 179.791 84.3369C180.011 84.4102 180.121 84.5363 180.121 84.7153C180.121 84.8944 180.129 84.992 180.145 85.0083C180.169 85.0246 180.182 85.2199 180.182 85.5942C180.182 85.9686 180.226 86.2209 180.316 86.3511C180.414 86.4731 180.589 86.5423 180.841 86.5586C181.101 86.5667 181.345 86.5586 181.573 86.5342L181.561 89C181.292 89 180.877 89 180.316 89C179.763 89 179.258 88.6989 178.802 88.0967C178.355 87.4945 178.041 87.1852 177.862 87.1689C177.683 87.1445 177.407 87.1445 177.032 87.1689C176.658 87.1852 176.039 87.1852 175.177 87.1689C174.322 87.1445 173.81 87.1323 173.639 87.1323C173.476 87.1323 173.268 87.291 173.016 87.6084C172.764 87.9176 172.536 88.1252 172.333 88.231C172.129 88.3286 171.917 88.3774 171.698 88.3774C171.486 88.3774 171.014 88.3042 170.282 88.1577C169.557 88.0031 169.195 87.877 169.195 87.7793C169.195 87.6816 169.122 87.5758 168.976 87.4619C168.837 87.348 168.727 87.1771 168.646 86.9492C168.573 86.7132 168.556 86.4609 168.597 86.1924C168.646 85.9157 168.715 85.6227 168.805 85.3135C168.894 85.0042 169.012 84.7764 169.159 84.6299C169.313 84.4753 169.48 84.3979 169.659 84.3979C169.838 84.3979 170.367 84.4508 171.246 84.5566C172.133 84.6624 172.695 84.7153 172.931 84.7153C173.175 84.7153 173.427 84.695 173.688 84.6543C173.956 84.6136 173.655 84.1619 172.784 83.2993C171.922 82.4367 171.405 81.8385 171.234 81.5049C171.063 81.1631 170.912 80.8213 170.782 80.4795C170.652 80.1296 170.562 79.8 170.514 79.4907C170.473 79.1733 170.44 78.9089 170.416 78.6973C170.4 78.4857 170.4 78.1927 170.416 77.8184C170.432 77.4359 170.477 77.0412 170.55 76.6343C170.624 76.2192 170.689 75.9263 170.746 75.7554C170.803 75.5845 170.876 75.3688 170.965 75.1084C171.063 74.848 171.254 74.4492 171.539 73.9121C171.832 73.3669 172.231 72.8786 172.735 72.4473C173.248 72.016 173.598 71.7067 173.785 71.5195C173.972 71.3324 174.135 71.2388 174.273 71.2388ZM185.052 85.6553C185.467 85.46 185.687 85.3582 185.711 85.3501C185.744 85.342 185.915 85.2728 186.224 85.1426C186.542 85.0042 187.107 84.7682 187.921 84.4346C188.735 84.1009 189.138 83.9056 189.129 83.8486C189.121 83.7917 189.109 83.7673 189.093 83.7754C189.076 83.7754 189.024 83.7306 188.934 83.6411C188.845 83.5435 188.539 83.3807 188.019 83.1528C187.506 82.925 187.103 82.7907 186.81 82.75C186.525 82.7093 186.2 82.7093 185.833 82.75C185.467 82.7826 185.146 82.9209 184.869 83.165C184.601 83.401 184.474 83.6533 184.491 83.9219C184.515 84.1823 184.576 84.5037 184.674 84.8862C184.78 85.2606 184.906 85.5169 185.052 85.6553ZM191.119 85.6675C191.437 86.9126 191.888 87.7183 192.474 88.0845C193.06 88.4588 193.622 88.6948 194.159 88.7925C194.704 88.8901 195.257 88.9634 195.819 89.0122L196.502 89V86.5464L195.904 86.5708C194.513 86.6278 193.723 86.3307 193.536 85.6797H193.524V85.6675H191.119ZM191.119 85.6675H190.899C190.769 85.6756 190.46 85.7773 189.972 85.9727C189.483 86.1598 188.332 86.5952 186.517 87.2788C186.639 87.5067 186.627 87.6857 186.48 87.8159C186.342 87.938 185.951 88.0275 185.309 88.0845C184.674 88.1414 184.283 88.1333 184.137 88.0601C182.949 88.646 181.923 88.9593 181.061 89V86.5586C181.565 86.5505 182.09 86.3551 182.635 85.9727C182.562 85.6309 182.513 85.3867 182.489 85.2402C182.464 85.0938 182.46 84.8984 182.477 84.6543C182.501 84.4102 182.513 84.1742 182.513 83.9463C182.521 83.7103 182.525 83.4621 182.525 83.2017C182.534 82.9412 182.643 82.5669 182.855 82.0786C183.075 81.5903 183.355 81.2078 183.697 80.9312C184.047 80.6545 184.621 80.4388 185.418 80.2842C186.224 80.1296 187.042 80.2638 187.872 80.687C188.702 81.1021 189.658 81.5496 190.741 82.0298C191.823 82.5018 192.454 82.7337 192.633 82.7256C192.82 82.7093 192.918 82.7012 192.926 82.7012C192.942 82.693 193.048 82.6646 193.243 82.6157C193.438 82.5669 193.593 82.5262 193.707 82.4937C193.821 82.453 193.931 82.4285 194.037 82.4204C194.142 82.4123 194.391 82.3919 194.781 82.3594C195.172 82.3268 195.489 82.4448 195.733 82.7134C195.986 82.9738 196.136 83.1691 196.185 83.2993C196.242 83.4295 196.234 83.7062 196.161 84.1294C196.096 84.5444 195.982 84.9188 195.819 85.2524C195.656 85.5861 195.53 85.7651 195.44 85.7896C195.351 85.814 195.29 85.8302 195.257 85.8384C195.225 85.8465 195.188 85.8506 195.147 85.8506C195.115 85.8424 195.054 85.8465 194.964 85.8628C194.883 85.8709 194.781 85.8669 194.659 85.8506C194.545 85.8343 194.484 85.8221 194.476 85.814C194.476 85.7977 194.448 85.7855 194.391 85.7773C194.334 85.7692 194.301 85.757 194.293 85.7407C194.285 85.7244 194.264 85.7082 194.232 85.6919C194.208 85.6919 193.976 85.6878 193.536 85.6797C193.528 85.6715 193.524 85.6634 193.524 85.6553C193.28 85.6634 192.478 85.6675 191.119 85.6675ZM203.302 89C202.602 89.0081 202.077 89.0041 201.727 88.9878C201.377 88.9634 201.137 88.8332 201.007 88.5972C200.877 88.353 200.706 88.0601 200.494 87.7183C200.283 87.3765 200.144 87.1974 200.079 87.1812C200.022 87.1567 199.953 87.1812 199.872 87.2544C199.79 87.3276 199.64 87.4904 199.42 87.7427C199.208 87.995 198.98 88.2269 198.736 88.4385C198.5 88.6501 198.252 88.7843 197.992 88.8413C197.739 88.8901 197.532 88.9268 197.369 88.9512C197.215 88.9674 196.938 88.9878 196.539 89.0122V86.5464C196.905 86.5545 197.19 86.5505 197.394 86.5342C197.605 86.5098 197.853 86.4569 198.138 86.3755C198.423 86.2941 198.651 86.1842 198.822 86.0459C198.993 85.9076 199.131 85.7611 199.237 85.6064C199.351 85.4437 199.461 85.1995 199.566 84.874C199.672 84.5404 199.725 84.3247 199.725 84.2271C199.725 84.1213 199.721 83.9992 199.713 83.8608C199.713 83.7144 199.697 83.5516 199.664 83.3726C199.64 83.1935 199.558 82.4814 199.42 81.2363C199.29 79.9831 199.029 78.7054 198.639 77.4033C198.256 76.1012 197.975 75.3159 197.796 75.0474C197.617 74.7707 197.475 74.498 197.369 74.2295C197.271 73.9528 197.227 73.7616 197.235 73.6558C197.243 73.5418 197.276 73.3994 197.333 73.2285C197.389 73.0576 197.471 72.8867 197.577 72.7158C197.682 72.5368 197.772 72.3822 197.845 72.252C197.918 72.1217 198.012 72.0566 198.126 72.0566C198.24 72.0566 198.439 72.1787 198.724 72.4229C199.009 72.667 199.221 73.0413 199.359 73.5459C199.497 74.0423 199.611 74.4248 199.701 74.6934C199.798 74.9538 200.002 76.4023 200.311 79.0391C200.628 81.6676 200.816 83.2057 200.873 83.6533C200.93 84.0928 200.97 84.4427 200.995 84.7031C201.019 84.9635 201.084 85.2158 201.19 85.46C201.304 85.696 201.471 85.9035 201.69 86.0825C201.918 86.2616 202.114 86.3918 202.276 86.4731C202.447 86.5464 202.789 86.5749 203.302 86.5586V89ZM203.839 72.313C204.286 72.0607 204.62 71.9712 204.84 72.0444C205.068 72.1095 205.287 72.2804 205.499 72.5571C205.719 72.8338 205.926 73.2692 206.122 73.8633C206.317 74.4492 206.443 75.0067 206.5 75.5356C206.557 76.0565 206.646 77.4237 206.769 79.6372C206.891 81.8507 206.996 83.3441 207.086 84.1172C207.184 84.8822 207.232 85.4966 207.232 85.9604C207.241 86.4162 207.167 86.8271 207.013 87.1934C206.866 87.5596 206.553 87.9054 206.073 88.231C205.593 88.5483 205.056 88.7599 204.461 88.8657C203.875 88.9715 203.338 89.0163 202.85 89V86.5586C203.111 86.5586 203.306 86.5627 203.436 86.5708C203.566 86.5708 203.859 86.5505 204.315 86.5098C204.779 86.4691 205.08 86.3185 205.218 86.0581C205.357 85.7977 205.41 85.4315 205.377 84.9595C205.353 84.4793 205.32 83.9259 205.279 83.2993C205.239 82.6646 205.21 81.5537 205.194 79.9668C205.178 78.3799 205.088 77.2812 204.925 76.6709C204.763 76.0605 204.457 75.6252 204.01 75.3647C203.57 75.1043 203.322 74.8154 203.265 74.498C203.208 74.1807 203.18 73.7982 203.18 73.3506C203.18 72.903 203.399 72.5571 203.839 72.313Z" fill="white"/>
</g>
<defs>
<filter id="filter0_d_2801_2851" x="42.8145" y="35.8652" width="153.361" height="24.7969" filterUnits="userSpaceOnUse" color-interpolation-filters="sRGB">
<feFlood flood-opacity="0" result="BackgroundImageFix"/>
<feColorMatrix in="SourceAlpha" type="matrix" values="0 0 0 0 0 0 0 0 0 0 0 0 0 0 0 0 0 0 127 0" result="hardAlpha"/>
<feOffset dy="4"/>
<feGaussianBlur stdDeviation="2"/>
<feComposite in2="hardAlpha" operator="out"/>
<feColorMatrix type="matrix" values="0 0 0 0 0 0 0 0 0 0 0 0 0 0 0 0 0 0 0.1 0"/>
<feBlend mode="normal" in2="BackgroundImageFix" result="effect1_dropShadow_2801_2851"/>
<feBlend mode="normal" in="SourceGraphic" in2="effect1_dropShadow_2801_2851" result="shape"/>
</filter>
<filter id="filter1_d_2801_2851" x="26.9629" y="71.2388" width="184.281" height="37.6631" filterUnits="userSpaceOnUse" color-interpolation-filters="sRGB">
<feFlood flood-opacity="0" result="BackgroundImageFix"/>
<feColorMatrix in="SourceAlpha" type="matrix" values="0 0 0 0 0 0 0 0 0 0 0 0 0 0 0 0 0 0 127 0" result="hardAlpha"/>
<feOffset dy="4"/>
<feGaussianBlur stdDeviation="2"/>
<feComposite in2="hardAlpha" operator="out"/>
<feColorMatrix type="matrix" values="0 0 0 0 0 0 0 0 0 0 0 0 0 0 0 0 0 0 0.1 0"/>
<feBlend mode="normal" in2="BackgroundImageFix" result="effect1_dropShadow_2801_2851"/>
<feBlend mode="normal" in="SourceGraphic" in2="effect1_dropShadow_2801_2851" result="shape"/>
</filter>
</defs>
</svg>
