<svg width="252" height="240" viewBox="0 0 252 240" fill="none" xmlns="http://www.w3.org/2000/svg">
<path d="M184.323 59.5458L184.326 59.5457L184.328 59.5457L184.329 59.5457L184.329 59.5457L184.354 59.546C184.38 59.5464 184.422 59.5474 184.481 59.5495C184.6 59.5539 184.784 59.5632 185.027 59.5833C185.514 59.6233 186.237 59.7061 187.146 59.8769C188.965 60.2186 191.52 60.9114 194.412 62.3156C200.172 65.1119 207.353 70.7696 212.707 82.3011C213.075 83.0949 213.436 83.8723 213.789 84.634C222.087 102.531 226.36 111.747 236.902 121.04C235.824 122.315 234.793 123.482 233.781 124.628C231.489 127.225 229.293 129.711 226.858 133.092C222.991 138.46 218.42 146.184 211.406 160.625L211.39 160.658L211.376 160.691C207.337 170.142 203.686 175.451 199.512 178.451C195.382 181.418 190.521 182.279 183.624 182.279H55.3758C48.4782 182.279 43.6176 181.418 39.4874 178.451C35.3132 175.451 31.6626 170.142 27.6238 160.691L27.6099 160.659L27.5945 160.627C20.5801 146.143 16.0093 138.396 12.1414 133.027C9.67398 129.601 7.4557 127.106 5.13339 124.494C4.15162 123.39 3.15125 122.265 2.10562 121.04C12.886 111.61 17.2071 102.258 25.7597 83.7468C25.9928 83.2422 26.2291 82.7307 26.4688 82.2123L26.4932 82.1594L26.5135 82.1047C31.0285 69.937 38.1694 64.3323 44.0793 61.7251C47.0554 60.4122 49.7523 59.8457 51.6965 59.6074C52.6678 59.4883 53.4479 59.4516 53.9766 59.444C54.2408 59.4402 54.4418 59.4437 54.5719 59.4478C54.637 59.4499 54.6843 59.4521 54.7129 59.4536L54.7416 59.4552L54.7417 59.4552L54.7432 59.4553L54.7444 59.4554L54.7453 59.4555L54.7957 59.4592L54.8499 59.4592L184.323 59.5458Z" fill="#129D59" stroke="white" stroke-width="3"/>
<g filter="url(#filter0_d_2674_2851)">
<path d="M62.4033 103.169C62.1637 103.656 61.8942 104.012 61.5947 104.236C61.2952 104.461 61.0295 104.599 60.7974 104.652C60.5653 104.697 60.2583 104.715 59.8765 104.708C59.4946 104.701 59.1615 104.409 58.877 103.832C58.7347 104.064 58.5438 104.248 58.3042 104.382C58.0721 104.51 57.6566 104.468 57.0576 104.259C57.1774 105.629 56.5373 106.999 55.1372 108.369C53.7371 109.747 52.6403 110.757 51.8467 111.401C51.0456 112.045 50.0461 112.685 48.8481 113.322C47.6502 113.958 46.8903 114.34 46.5684 114.467C46.2389 114.602 45.64 114.8 44.7715 115.062C43.8955 115.325 43.2367 115.497 42.7949 115.579C42.3457 115.669 41.9489 115.729 41.6045 115.759C41.2601 115.789 40.7922 115.822 40.2007 115.86C39.6017 115.905 38.752 115.89 37.6514 115.815C36.5433 115.748 35.4352 115.474 34.3271 114.995C33.2116 114.516 32.403 114.134 31.9014 113.85C31.3923 113.565 30.8981 113.251 30.4189 112.906C29.9323 112.562 29.4232 112.146 28.8916 111.66C28.3525 111.173 27.8958 110.686 27.5215 110.2C27.1471 109.713 26.8177 109.204 26.5332 108.672C26.2412 108.148 26.054 107.789 25.9717 107.594C25.8818 107.407 25.8481 107.194 25.8706 106.954C25.8856 106.722 26.0129 106.58 26.2524 106.527C26.4845 106.475 26.8289 106.752 27.2856 107.358C27.7349 107.972 28.1204 108.481 28.4424 108.886C28.7568 109.29 29.0638 109.627 29.3633 109.896C29.6553 110.174 30.0895 110.51 30.666 110.907C31.2425 111.312 31.8527 111.712 32.4966 112.109C33.1405 112.513 33.8442 112.888 34.6079 113.232C35.3716 113.584 36.1278 113.82 36.8765 113.939C37.6252 114.059 38.2503 114.112 38.752 114.097C39.2536 114.089 39.86 114.056 40.5713 113.996C41.2826 113.943 42.1061 113.823 43.042 113.636C43.9704 113.449 44.7116 113.258 45.2656 113.063C45.8122 112.869 46.7031 112.427 47.9385 111.738C49.1663 111.057 50.1958 110.387 51.0269 109.728C51.8579 109.077 52.5692 108.455 53.1606 107.864C53.7521 107.272 54.2275 106.759 54.5869 106.325C54.9463 105.891 55.1784 105.468 55.2832 105.056C55.3955 104.644 55.403 104.24 55.3057 103.843C55.2158 103.446 55.0549 102.979 54.8228 102.439C54.5981 101.9 54.4447 101.373 54.3623 100.856C54.2799 100.332 54.3136 99.965 54.4634 99.7554C54.6131 99.5457 54.8452 99.4447 55.1597 99.4521C55.4741 99.4521 55.7437 99.819 55.9683 100.553C56.2004 101.279 56.3688 101.743 56.4736 101.945C56.5859 102.14 56.7394 102.278 56.9341 102.361C57.1362 102.436 57.2935 102.473 57.4058 102.473C57.5181 102.473 57.6453 102.432 57.7876 102.35C57.9299 102.267 58.0534 102.11 58.1582 101.878C58.263 101.646 58.3791 101.35 58.5063 100.991C58.6336 100.631 58.8433 100.425 59.1353 100.373C59.4123 100.493 59.5658 100.688 59.5957 100.957C59.6257 101.219 59.6294 101.436 59.6069 101.608C59.5845 101.773 59.6968 102.009 59.9438 102.316C60.1909 102.615 60.4268 102.672 60.6514 102.484C60.876 102.297 61.0145 102.129 61.0669 101.979C61.1268 101.822 61.1605 101.631 61.168 101.406C61.1755 101.174 61.0632 101.024 60.8311 100.957C60.6064 100.89 60.4941 100.538 60.4941 99.9014C60.5016 99.265 60.6289 98.8083 60.876 98.5312C61.1305 98.2542 61.3776 98.1606 61.6172 98.2505C61.8643 98.3328 62.0664 98.5088 62.2236 98.7783C62.3883 99.0404 62.5269 99.3548 62.6392 99.7217C62.759 100.089 62.8263 100.463 62.8413 100.845C62.8563 101.219 62.8451 101.578 62.8076 101.923C62.7777 102.267 62.6429 102.683 62.4033 103.169ZM70.1187 89.895C70.6427 89.7303 70.9572 89.6704 71.062 89.7153C71.1743 89.7603 71.2342 89.8089 71.2417 89.8613C71.2492 89.9062 71.2529 90.0373 71.2529 90.2544C71.2529 90.464 71.2155 90.6886 71.1406 90.9282C71.0658 91.1678 70.9946 91.3213 70.9272 91.3887C70.8599 91.4486 70.5192 91.6545 69.9053 92.0063C69.2913 92.3582 68.8534 92.8075 68.5913 93.354C68.3368 93.8931 68.1683 94.5369 68.0859 95.2856C68.0036 96.0343 68.0148 96.6782 68.1196 97.2173C68.2244 97.7489 68.3779 98.2168 68.5801 98.6211C68.7897 99.0254 69.1416 99.5083 69.6357 100.07C70.1299 100.624 70.5454 100.976 70.8823 101.125C71.2267 101.275 71.6647 101.492 72.1963 101.777C72.7279 102.054 73.2482 102.192 73.7573 102.192C74.2664 102.192 74.5809 102.192 74.7007 102.192C74.8205 102.192 74.9964 102.271 75.2285 102.428C75.4681 102.578 75.5991 102.694 75.6216 102.776C75.644 102.859 75.6553 103.053 75.6553 103.36C75.6553 103.667 75.5954 103.986 75.4756 104.315C75.3558 104.644 75.2472 104.832 75.1499 104.876C75.0601 104.921 74.4012 104.888 73.1733 104.775C71.9455 104.656 70.9272 104.596 70.1187 104.596C69.3175 104.596 68.917 104.667 68.917 104.809C68.917 104.951 68.8758 105.139 68.7935 105.371C68.7186 105.603 68.625 105.741 68.5127 105.786C68.4004 105.839 68.2843 105.91 68.1646 106C68.0522 106.097 67.91 106.146 67.7378 106.146C67.5731 106.146 67.4009 106.146 67.2212 106.146C67.049 106.146 66.8019 106.052 66.48 105.865C66.1655 105.678 65.9521 105.554 65.8398 105.494C65.7275 105.434 65.6003 105.322 65.458 105.157C65.3158 105 65.2297 104.775 65.1997 104.483C65.1698 104.184 65.1548 103.952 65.1548 103.787C65.1548 103.622 65.1847 103.271 65.2446 102.731C65.3045 102.185 65.4692 101.912 65.7388 101.912C66.0083 101.912 66.2853 101.9 66.5698 101.878C66.8543 101.855 67.0415 101.87 67.1313 101.923C67.2287 101.968 67.3597 101.99 67.5244 101.99C67.6966 101.99 67.8538 101.99 67.9961 101.99C68.1383 101.99 68.2656 101.979 68.3779 101.957C68.4977 101.927 68.5576 101.855 68.5576 101.743C68.5576 101.623 68.4041 101.369 68.0972 100.979C67.7902 100.583 67.5544 100.208 67.3896 99.8564C67.2324 99.4971 67.1089 99.1377 67.019 98.7783C66.9367 98.4189 66.888 97.8499 66.873 97.0713C66.8656 96.2926 66.9779 95.4391 67.21 94.5107C67.4495 93.5749 67.6854 92.8748 67.9175 92.4106C68.1571 91.9465 68.4528 91.4523 68.8047 90.9282C69.1641 90.4041 69.6021 90.0597 70.1187 89.895ZM78.4966 89.0415C78.6313 88.9966 78.8148 89.0452 79.0469 89.1875C79.2865 89.3298 79.4362 89.4495 79.4961 89.5469C79.5635 89.6367 79.6271 89.7303 79.687 89.8276C79.7544 89.925 79.8031 90.056 79.833 90.2207C79.863 90.3854 79.8892 90.479 79.9116 90.5015C79.9416 90.5239 80.0352 90.7448 80.1924 91.1641C80.3496 91.5758 80.4919 92.1711 80.6191 92.9497C80.7539 93.7284 80.8325 94.2786 80.855 94.6006C80.8849 94.915 80.9111 95.1846 80.9336 95.4092C80.9635 95.6263 80.9897 95.8958 81.0122 96.2178C81.0422 96.5322 81.0422 97.12 81.0122 97.981C80.9897 98.8345 80.986 99.3848 81.001 99.6318C81.0234 99.8789 81.0422 100.122 81.0571 100.362C81.0796 100.594 81.1882 100.863 81.3828 101.17C81.5775 101.477 81.7684 101.736 81.9556 101.945C82.1427 102.155 82.5732 102.346 83.2471 102.518C83.9284 102.69 84.4263 102.776 84.7407 102.776L84.752 105.011C84.5423 105.011 84.1942 105.011 83.7075 105.011C83.2209 105.011 82.6182 104.783 81.8994 104.326C81.1807 103.862 80.7651 103.63 80.6528 103.63C80.548 103.63 80.3384 103.742 80.0239 103.967C79.717 104.184 79.4961 104.304 79.3613 104.326C79.234 104.341 79.0581 104.349 78.8335 104.349C78.6164 104.349 78.4741 104.27 78.4067 104.113C78.3394 103.956 78.3169 103.667 78.3394 103.248C78.3693 102.829 78.4217 102.499 78.4966 102.26C78.5789 102.02 78.8035 101.672 79.1704 101.215C79.5373 100.751 79.7207 100.489 79.7207 100.429C79.7207 100.369 79.7057 100.279 79.6758 100.16C79.6533 100.04 79.6683 99.7741 79.7207 99.3623C79.7731 98.943 79.7469 98.1831 79.6421 97.0825C79.5373 95.9819 79.4774 95.3643 79.4624 95.2295C79.4474 95.0947 79.3538 94.769 79.1816 94.2524C79.0169 93.7284 78.841 93.3053 78.6538 92.9834C78.4741 92.6615 78.2383 92.3695 77.9463 92.1074C77.6618 91.8379 77.5195 91.5871 77.5195 91.355C77.5195 91.1229 77.5195 90.8908 77.5195 90.6587C77.5195 90.4191 77.6506 90.1009 77.9126 89.7041C78.1746 89.2998 78.3693 89.0789 78.4966 89.0415ZM94.2754 97.79C94.2979 97.79 94.4401 97.79 94.7021 97.79C94.9717 97.79 95.2412 97.981 95.5107 98.3628C95.7803 98.7446 95.9824 99.1489 96.1172 99.5757C96.252 100.002 96.3193 100.257 96.3193 100.339C96.3193 100.422 96.3193 100.639 96.3193 100.991C96.3193 101.343 96.2819 101.721 96.207 102.125C96.3792 102.305 96.6188 102.454 96.9258 102.574C97.2402 102.687 97.6857 102.746 98.2622 102.754V105C97.6108 105 97.0194 104.899 96.4878 104.697C95.9637 104.495 95.5295 104.27 95.1851 104.023C95.1177 104.06 94.8781 104.203 94.4663 104.45C94.062 104.689 93.8 104.832 93.6802 104.876C93.5679 104.921 93.4069 104.921 93.1973 104.876C92.9951 104.832 92.778 104.723 92.5459 104.551C92.3138 104.371 91.9881 104.135 91.5688 103.843C91.2469 104.143 90.9025 104.394 90.5356 104.596C90.1688 104.79 89.873 104.903 89.6484 104.933C89.4313 104.963 89.042 104.914 88.4805 104.787C87.9264 104.659 87.5334 104.483 87.3013 104.259C87.0692 104.027 86.9119 103.858 86.8296 103.753C86.0809 104.51 85.3659 104.921 84.6846 104.989L83.9771 105L83.9883 102.743C84.4749 102.765 84.8605 102.705 85.145 102.563C85.437 102.413 85.6991 102.204 85.9312 101.934C86.1632 101.665 86.3242 101.406 86.4141 101.159C86.5114 100.912 86.6349 100.71 86.7847 100.553C86.9344 100.388 87.0317 100.306 87.0767 100.306C87.1291 100.306 87.2301 100.306 87.3799 100.306C87.5371 100.306 87.7131 100.497 87.9077 100.878C88.1024 101.253 88.2783 101.5 88.4355 101.62C88.5928 101.739 88.8324 101.867 89.1543 102.001C89.4837 102.136 89.7308 102.196 89.8955 102.181C90.0602 102.166 90.2474 102.046 90.457 101.822C90.6667 101.597 90.7902 101.395 90.8276 101.215C90.8651 101.036 90.9811 100.811 91.1758 100.542C91.3779 100.272 91.5277 100.122 91.625 100.092C91.7298 100.062 91.8346 100.062 91.9395 100.092C92.0518 100.122 92.1266 100.332 92.1641 100.721C92.2015 101.111 92.3812 101.403 92.7031 101.597C93.0326 101.784 93.3058 101.919 93.5229 102.001C93.7401 102.076 93.9609 102.043 94.1855 101.9C94.4176 101.751 94.5299 101.623 94.5225 101.519C94.5225 101.414 94.4813 101.234 94.3989 100.979C94.3166 100.717 94.1556 100.553 93.916 100.485C93.6839 100.418 93.5417 100.291 93.4893 100.104C93.4443 99.9089 93.4219 99.6131 93.4219 99.2163C93.4219 98.8195 93.5566 98.4826 93.8262 98.2056C94.1032 97.9285 94.2529 97.79 94.2754 97.79ZM98.8799 89.6479C99.2917 89.4159 99.5986 89.3335 99.8008 89.4009C100.01 89.4608 100.213 89.618 100.407 89.8726C100.609 90.1271 100.8 90.5277 100.98 91.0742C101.16 91.6133 101.276 92.1261 101.328 92.6128C101.381 93.092 101.463 94.3498 101.575 96.3862C101.688 98.4227 101.785 99.7965 101.867 100.508C101.957 101.212 102.002 101.777 102.002 102.204C102.009 102.623 101.942 103.001 101.8 103.338C101.665 103.675 101.377 103.993 100.935 104.292C100.493 104.584 99.9992 104.779 99.4526 104.876C98.9136 104.974 98.4194 105.015 97.9702 105V102.754C98.2098 102.754 98.3895 102.758 98.5093 102.765C98.6291 102.765 98.8986 102.746 99.3179 102.709C99.7446 102.672 100.022 102.533 100.149 102.293C100.276 102.054 100.325 101.717 100.295 101.283C100.272 100.841 100.243 100.332 100.205 99.7554C100.168 99.1714 100.141 98.1494 100.126 96.6895C100.111 95.2295 100.029 94.2188 99.8794 93.6572C99.7297 93.0957 99.4489 92.6951 99.0371 92.4556C98.6328 92.216 98.4045 91.9502 98.3521 91.6582C98.2996 91.3662 98.2734 91.0143 98.2734 90.6025C98.2734 90.1908 98.4756 89.8726 98.8799 89.6479ZM104.192 89.1875C104.439 89.1875 104.78 89.3372 105.214 89.6367C105.648 89.9362 105.865 90.3442 105.865 90.8608C105.865 91.37 105.865 91.7106 105.865 91.8828C105.865 92.0475 105.876 92.2347 105.899 92.4443C105.929 92.654 105.944 92.9385 105.944 93.2979C105.944 93.6572 105.944 93.9118 105.944 94.0615C105.944 94.2113 105.948 94.361 105.955 94.5107C105.97 94.653 105.981 94.8027 105.989 94.96C106.004 95.1172 106.015 95.4429 106.022 95.937C106.03 96.4237 106.03 97.1125 106.022 98.0034C106.015 98.8869 106.022 99.4821 106.045 99.7891C106.075 100.089 106.09 100.324 106.09 100.497C106.09 100.669 106.124 100.927 106.191 101.271C106.266 101.616 106.449 102.024 106.741 102.496C107.033 102.96 107.19 103.278 107.213 103.45C107.235 103.615 107.247 103.753 107.247 103.866C107.247 103.978 107.213 104.195 107.146 104.517C107.078 104.839 106.883 105 106.562 105C106.247 105 105.847 104.884 105.36 104.652C104.873 104.42 104.63 104.221 104.63 104.057C104.63 103.892 104.63 103.716 104.63 103.529C104.63 103.342 104.63 103.173 104.63 103.023C104.63 102.866 104.679 102.645 104.776 102.361C104.873 102.076 104.903 101.421 104.866 100.396C104.836 99.3698 104.817 98.6772 104.81 98.3179C104.81 97.951 104.81 97.6628 104.81 97.4531C104.817 97.2435 104.813 97.0226 104.798 96.7905C104.783 96.5584 104.776 96.0269 104.776 95.1958C104.776 94.3647 104.742 93.7246 104.675 93.2754C104.615 92.8187 104.484 92.5229 104.282 92.3882C104.08 92.2534 103.87 92.0138 103.653 91.6694C103.436 91.325 103.327 91.1004 103.327 90.9956C103.327 90.8833 103.41 90.5539 103.574 90.0073C103.739 89.4608 103.945 89.1875 104.192 89.1875ZM119.566 88.6597C119.701 88.6597 119.81 88.7196 119.892 88.8394C119.974 88.9517 119.997 89.0527 119.959 89.1426C119.922 89.2249 119.888 89.3784 119.858 89.603C119.836 89.8201 119.742 90.026 119.578 90.2207C119.42 90.4154 119.308 90.5127 119.241 90.5127C119.181 90.5127 118.949 90.6849 118.544 91.0293C118.14 91.3737 117.882 91.6095 117.77 91.7368C117.657 91.8641 117.545 92.0213 117.433 92.2085C117.328 92.3882 117.234 92.6203 117.152 92.9048C117.069 93.1893 117.017 93.4888 116.995 93.8032C116.98 94.1102 116.991 94.4059 117.028 94.6904C117.066 94.9749 117.159 95.3568 117.309 95.8359C117.466 96.3076 117.713 96.7306 118.05 97.105C118.387 97.4718 118.646 97.7414 118.825 97.9136C119.012 98.0783 119.237 98.258 119.499 98.4526C119.761 98.6473 120.057 98.8794 120.386 99.1489C120.716 99.4185 121.12 99.6243 121.599 99.7666C122.086 99.9014 122.662 100.077 123.329 100.294C124.002 100.504 124.44 100.643 124.643 100.71C124.845 100.777 124.946 100.893 124.946 101.058C124.946 101.223 124.953 101.313 124.968 101.328C124.991 101.343 125.002 101.522 125.002 101.867C125.002 102.211 125.043 102.443 125.125 102.563C125.215 102.675 125.376 102.739 125.608 102.754C125.848 102.761 126.073 102.754 126.282 102.731L126.271 105C126.024 105 125.642 105 125.125 105C124.616 105 124.152 104.723 123.733 104.169C123.321 103.615 123.033 103.33 122.868 103.315C122.703 103.293 122.449 103.293 122.104 103.315C121.76 103.33 121.191 103.33 120.397 103.315C119.611 103.293 119.14 103.282 118.982 103.282C118.833 103.282 118.642 103.428 118.41 103.72C118.178 104.004 117.968 104.195 117.781 104.292C117.594 104.382 117.399 104.427 117.197 104.427C117.002 104.427 116.568 104.36 115.894 104.225C115.228 104.083 114.895 103.967 114.895 103.877C114.895 103.787 114.827 103.69 114.692 103.585C114.565 103.48 114.464 103.323 114.389 103.113C114.322 102.896 114.307 102.664 114.344 102.417C114.389 102.162 114.453 101.893 114.535 101.608C114.618 101.324 114.726 101.114 114.861 100.979C115.003 100.837 115.157 100.766 115.321 100.766C115.486 100.766 115.973 100.815 116.781 100.912C117.597 101.009 118.114 101.058 118.331 101.058C118.556 101.058 118.788 101.039 119.027 101.002C119.274 100.965 118.997 100.549 118.196 99.7554C117.403 98.9618 116.927 98.4115 116.77 98.1045C116.613 97.79 116.474 97.4756 116.354 97.1611C116.235 96.8392 116.152 96.536 116.107 96.2515C116.07 95.9595 116.04 95.7161 116.018 95.5215C116.003 95.3268 116.003 95.0573 116.018 94.7129C116.033 94.361 116.074 93.9979 116.141 93.6235C116.208 93.2417 116.268 92.9722 116.321 92.8149C116.373 92.6577 116.441 92.4593 116.523 92.2197C116.613 91.9801 116.789 91.6133 117.051 91.1191C117.32 90.6175 117.687 90.1683 118.151 89.7715C118.623 89.3747 118.945 89.0902 119.117 88.918C119.289 88.7458 119.439 88.6597 119.566 88.6597ZM130.741 99.1826C131.04 99.1676 131.34 99.2051 131.639 99.2949C131.946 99.3848 132.231 99.542 132.493 99.7666C132.755 99.9837 132.968 100.216 133.133 100.463C133.298 100.71 133.447 101.013 133.582 101.373C133.717 101.732 133.803 102.091 133.84 102.451C134.192 102.668 134.567 102.769 134.963 102.754L135.469 102.743V105H135.199H134.683C134.106 104.985 133.59 104.832 133.133 104.54C132.489 105.101 131.924 105.412 131.437 105.472C130.958 105.539 130.557 105.55 130.235 105.505C129.921 105.468 129.633 105.356 129.371 105.168C129.116 104.981 128.888 104.779 128.686 104.562C127.959 104.884 127.151 105.03 126.26 105L125.867 105.011L125.766 105L125.777 102.765C125.919 102.765 126.099 102.769 126.316 102.776C126.533 102.776 126.713 102.78 126.855 102.788C127.005 102.795 127.237 102.773 127.551 102.72C127.866 102.668 128.064 102.466 128.146 102.114C128.229 101.754 128.367 101.343 128.562 100.878C128.757 100.407 129.094 100.01 129.573 99.688C130.059 99.366 130.449 99.1976 130.741 99.1826ZM130.539 101.384C130.389 101.384 130.265 101.406 130.168 101.451C130.078 101.489 130.007 101.556 129.955 101.653C129.902 101.743 129.872 101.874 129.865 102.046C129.857 102.219 129.887 102.413 129.955 102.63C130.029 102.847 130.213 103.02 130.505 103.147C130.797 103.267 131.051 103.3 131.269 103.248C131.486 103.196 131.628 103.139 131.695 103.08C131.763 103.012 131.815 102.9 131.853 102.743C131.68 102.174 131.456 101.807 131.179 101.642C130.902 101.47 130.688 101.384 130.539 101.384ZM147.755 92.478C147.882 92.478 148.088 92.5454 148.373 92.6802C148.665 92.8149 149.02 93.1369 149.439 93.646C149.859 94.1551 150.128 94.6305 150.248 95.0723C150.375 95.5065 150.431 95.9482 150.417 96.3975C150.402 96.8392 150.267 97.3558 150.012 97.9473C149.758 98.5387 149.608 98.8345 149.563 98.8345C149.526 98.8345 149.421 98.9281 149.249 99.1152C149.084 99.2949 148.878 99.4072 148.631 99.4521C148.384 99.4971 148.238 99.5195 148.193 99.5195C148.155 99.5195 147.994 99.5195 147.71 99.5195C147.433 99.5195 147.089 99.3361 146.677 98.9692C146.272 98.6024 146.048 98.4189 146.003 98.4189C145.965 98.4189 145.906 98.4526 145.823 98.52C145.741 98.5874 145.595 98.8195 145.385 99.2163C145.183 99.6056 145.026 99.8864 144.914 100.059C144.801 100.223 144.528 100.384 144.094 100.542C143.667 100.691 143.124 100.691 142.465 100.542C141.806 100.384 141.35 100.212 141.095 100.025C140.841 99.8377 140.567 99.396 140.275 98.6997C139.983 98.0034 139.796 97.644 139.714 97.6216C139.632 97.5991 139.34 97.6815 138.838 97.8687C138.344 98.0558 138.097 98.4938 138.097 99.1826C138.097 99.8714 138.115 100.384 138.153 100.721C138.198 101.058 138.333 101.335 138.557 101.552C138.789 101.762 139.059 101.96 139.366 102.147C139.68 102.335 139.909 102.428 140.051 102.428C140.201 102.428 140.609 102.451 141.275 102.496C141.941 102.541 142.334 102.563 142.454 102.563C142.581 102.563 142.862 102.563 143.296 102.563C143.738 102.563 144.622 102.496 145.947 102.361C147.279 102.219 148.006 102.147 148.125 102.147C148.253 102.147 148.65 102.234 149.316 102.406C149.982 102.57 150.315 102.836 150.315 103.203C150.315 103.562 150.312 103.776 150.304 103.843C150.297 103.911 150.226 104.176 150.091 104.641C149.964 105.097 149.746 105.326 149.439 105.326C149.132 105.326 148.949 105.337 148.889 105.359C148.829 105.382 148.549 105.299 148.047 105.112C147.545 104.933 146.808 104.865 145.834 104.91C144.861 104.955 144.206 104.978 143.869 104.978C143.54 104.978 143.24 104.978 142.971 104.978C142.701 104.978 142.222 104.985 141.533 105C140.852 105.022 140.103 105.034 139.287 105.034C138.479 105.041 137.284 105.034 135.705 105.011L135.109 105V102.765L135.368 102.754C135.772 102.761 136.139 102.765 136.468 102.765C136.805 102.765 137.015 102.731 137.097 102.664C137.18 102.597 137.191 102.323 137.131 101.844C137.071 101.358 137.09 100.654 137.187 99.7329C137.292 98.812 137.457 98.1681 137.681 97.8013C137.913 97.4269 138.216 97.0002 138.591 96.521C138.965 96.0343 139.31 95.7012 139.624 95.5215C139.938 95.3343 140.156 95.2407 140.275 95.2407C140.403 95.2407 140.552 95.2407 140.725 95.2407C140.897 95.2407 141.05 95.5402 141.185 96.1392C141.327 96.7381 141.477 97.236 141.634 97.6328C141.792 98.0221 142.098 98.2842 142.555 98.4189C143.012 98.5462 143.439 98.5462 143.835 98.4189C144.232 98.2842 144.535 98.1195 144.745 97.9248C144.962 97.7301 145.138 97.4419 145.273 97.0601C145.415 96.6782 145.636 96.0718 145.936 95.2407C146.235 94.4097 146.579 93.7433 146.969 93.2417C147.366 92.7326 147.628 92.478 147.755 92.478ZM147.014 95.4878C146.931 95.645 146.89 95.7461 146.89 95.791C146.89 95.8359 146.89 96.0081 146.89 96.3076C146.89 96.6071 147.148 96.783 147.665 96.8354C148.182 96.8804 148.481 96.9028 148.563 96.9028C148.653 96.9028 148.758 96.9028 148.878 96.9028C149.005 96.9028 149.069 96.8579 149.069 96.7681C149.069 96.6707 148.915 96.3937 148.608 95.937C148.309 95.4728 148.062 95.2407 147.867 95.2407C147.673 95.2407 147.553 95.2407 147.508 95.2407C147.47 95.2407 147.399 95.2407 147.294 95.2407C147.197 95.2407 147.104 95.3231 147.014 95.4878ZM158.592 90.5127C158.592 90.3105 158.592 90.0934 158.592 89.8613C158.592 89.6292 158.716 89.4458 158.963 89.311C159.217 89.1763 159.431 89.1089 159.603 89.1089C159.783 89.1089 159.966 89.1089 160.153 89.1089C160.348 89.1089 160.52 89.165 160.67 89.2773C160.827 89.3896 160.947 89.5431 161.029 89.7378C161.119 89.925 161.213 89.9025 161.31 89.6704C161.407 89.4308 161.561 89.2174 161.771 89.0303C161.98 88.8356 162.205 88.7383 162.444 88.7383C162.691 88.7383 162.894 88.7383 163.051 88.7383C163.215 88.7383 163.406 88.8955 163.624 89.21C163.841 89.5244 163.949 89.7378 163.949 89.8501C163.949 89.9624 163.949 90.1009 163.949 90.2656C163.949 90.4229 163.792 90.6063 163.478 90.8159C163.163 91.0256 162.912 91.1304 162.725 91.1304C162.538 91.1304 162.358 91.1304 162.186 91.1304C162.021 91.1304 161.902 91.0929 161.827 91.0181C161.752 90.9357 161.673 90.8421 161.591 90.7373C161.516 90.6325 161.456 90.5501 161.411 90.4902C161.366 90.4229 161.235 90.5239 161.018 90.7935C160.808 91.063 160.599 91.2502 160.389 91.355C160.187 91.4523 160.019 91.501 159.884 91.501C159.757 91.501 159.622 91.501 159.479 91.501C159.345 91.501 159.161 91.3849 158.929 91.1528C158.705 90.9207 158.592 90.7074 158.592 90.5127ZM161.13 92.3208C161.4 92.3208 161.748 92.3957 162.175 92.5454C162.602 92.6877 162.826 93.1593 162.849 93.9604C162.871 94.7616 162.871 95.2557 162.849 95.4429C162.826 95.63 162.826 95.7236 162.849 95.7236C162.871 95.7236 162.815 96.0531 162.68 96.7119C162.545 97.3708 162.478 97.7264 162.478 97.7788C162.478 97.8237 162.635 97.9473 162.95 98.1494C163.264 98.3516 163.421 98.7072 163.421 99.2163C163.421 99.7179 163.579 100.328 163.893 101.047C164.215 101.766 164.417 102.159 164.5 102.226C164.589 102.286 164.78 102.383 165.072 102.518C165.372 102.645 165.615 102.724 165.802 102.754C165.989 102.776 166.248 102.776 166.577 102.754L166.6 104.978C165.514 105.03 164.728 104.966 164.241 104.787C163.762 104.607 163.418 104.36 163.208 104.045C163.006 103.731 162.822 103.398 162.658 103.046C162.5 102.694 162.407 102.473 162.377 102.383C162.354 102.286 162.298 102.237 162.208 102.237C162.119 102.237 161.902 102.675 161.557 103.551C161.22 104.42 160.805 104.854 160.311 104.854C159.816 104.854 159.521 104.903 159.423 105C159.333 105.09 159.21 105.135 159.053 105.135C158.896 105.135 158.75 105.135 158.615 105.135C158.48 105.135 158.128 105.049 157.559 104.876C156.998 104.704 156.698 104.551 156.661 104.416C156.623 104.274 156.545 104.102 156.425 103.899C156.305 103.69 156.245 103.465 156.245 103.226C156.245 102.986 156.309 102.503 156.436 101.777C156.563 101.051 156.721 100.639 156.908 100.542C157.095 100.444 157.29 100.317 157.492 100.16C157.701 100.002 158.21 99.7179 159.019 99.3062C159.835 98.8944 160.434 98.4414 160.816 97.9473C161.198 97.4531 161.389 96.9814 161.389 96.5322C161.389 96.083 161.254 95.7311 160.984 95.4766C160.715 95.2145 160.535 95.0199 160.445 94.8926C160.355 94.7653 160.311 94.6605 160.311 94.5781C160.311 94.4883 160.382 94.0915 160.524 93.3877C160.666 92.6764 160.868 92.3208 161.13 92.3208ZM161.321 100.036C161.276 99.9912 160.958 100.291 160.367 100.935C159.775 101.571 159.322 101.923 159.008 101.99C158.701 102.058 158.547 102.106 158.547 102.136C158.547 102.159 158.555 102.204 158.57 102.271C158.585 102.338 158.675 102.372 158.839 102.372C159.004 102.372 159.337 102.372 159.839 102.372C160.34 102.372 160.655 102.185 160.782 101.811C160.917 101.436 161.052 101.084 161.187 100.755C161.321 100.418 161.389 100.227 161.389 100.182C161.389 100.13 161.366 100.081 161.321 100.036ZM166.24 102.754C166.824 102.694 167.214 102.664 167.408 102.664C167.61 102.664 167.738 102.481 167.79 102.114C167.85 101.739 167.914 101.369 167.981 101.002C168.048 100.628 168.374 100.212 168.958 99.7554C169.549 99.2912 170.448 98.5799 171.653 97.6216C172.859 96.6558 173.851 95.8809 174.629 95.2969C175.416 94.7129 176.018 94.3198 176.438 94.1177C176.864 93.908 177.179 93.7882 177.381 93.7583C177.59 93.7284 177.849 93.7134 178.156 93.7134C178.47 93.7059 178.875 93.7433 179.369 93.8257C179.87 93.9006 180.334 94.0428 180.761 94.2524C181.188 94.4546 181.551 94.7316 181.851 95.0835C182.15 95.4279 182.524 95.8247 182.974 96.2739C183.43 96.7157 183.895 97.236 184.366 97.835C184.838 98.4339 185.22 99.0029 185.512 99.542C185.811 100.074 185.961 100.452 185.961 100.676C185.961 100.901 185.961 101.088 185.961 101.238C185.961 101.38 185.95 101.556 185.927 101.766C185.905 101.968 185.894 102.174 185.894 102.383C185.894 102.585 185.995 102.701 186.197 102.731C186.406 102.754 186.594 102.765 186.758 102.765C186.923 102.765 187.219 102.765 187.646 102.765L187.679 105L186.904 105.011C186.515 104.869 186.159 104.738 185.837 104.618C185.515 104.498 185.257 104.536 185.062 104.73C184.875 104.925 184.621 105.052 184.299 105.112C183.984 105.172 183.786 105.202 183.704 105.202C183.629 105.202 183.408 105.112 183.041 104.933C182.674 104.753 182.255 104.652 181.783 104.629C181.319 104.607 180.525 104.592 179.402 104.584C178.287 104.577 177.497 104.581 177.033 104.596C176.569 104.603 176.284 104.607 176.179 104.607C176.074 104.607 175.715 104.611 175.101 104.618C174.495 104.618 173.768 104.648 172.922 104.708C172.084 104.76 171.185 104.813 170.227 104.865C169.269 104.918 168.674 104.936 168.441 104.921C168.209 104.906 168.018 104.903 167.869 104.91C167.719 104.91 167.464 104.933 167.105 104.978C166.746 105.022 166.491 105.034 166.341 105.011C166.199 104.989 166.016 104.989 165.791 105.011V102.754H166.24ZM168.98 101.968C168.965 102.05 169.059 102.162 169.261 102.305C169.463 102.447 169.759 102.514 170.148 102.507C170.538 102.499 170.86 102.484 171.114 102.462C171.369 102.439 171.676 102.424 172.035 102.417C172.395 102.41 172.69 102.406 172.922 102.406C173.154 102.406 173.652 102.368 174.416 102.293C175.187 102.219 175.902 102.17 176.561 102.147C177.22 102.118 177.796 102.088 178.291 102.058C178.792 102.028 179.178 102.005 179.447 101.99C179.724 101.975 180.305 101.964 181.188 101.957C182.079 101.942 182.805 101.84 183.367 101.653C183.936 101.466 184.183 101.245 184.108 100.991C184.041 100.736 183.943 100.467 183.816 100.182C183.689 99.8901 183.251 99.3923 182.502 98.6885C181.761 97.9772 181.166 97.4082 180.716 96.9814C180.267 96.5547 179.822 96.2402 179.38 96.0381C178.946 95.8285 178.534 95.7199 178.145 95.7124C177.763 95.7049 177.295 95.7349 176.741 95.8022C176.187 95.8621 175.438 96.2926 174.495 97.0938C173.551 97.8874 172.803 98.5238 172.249 99.0029C171.702 99.4821 171.024 100.032 170.216 100.654C169.415 101.275 169.014 101.631 169.014 101.721C169.014 101.803 169.003 101.885 168.98 101.968ZM188.825 96.7007C188.825 96.4386 188.941 96.1878 189.173 95.9482C189.412 95.7087 189.723 95.5889 190.105 95.5889C190.846 95.5889 191.217 95.9595 191.217 96.7007C191.217 97.0076 191.101 97.2996 190.869 97.5767C190.637 97.8462 190.322 97.981 189.925 97.981C189.708 97.981 189.469 97.8462 189.207 97.5767C188.952 97.2996 188.825 97.0076 188.825 96.7007ZM191.823 99.8452H192.048C192.355 99.8452 192.52 99.9575 192.542 100.182C192.572 100.399 192.512 100.699 192.362 101.081C192.609 101.747 192.999 102.204 193.53 102.451C193.927 102.653 194.346 102.754 194.788 102.754V105L194.575 104.989C193.122 104.966 192.089 104.543 191.475 103.72C191.28 103.518 191.082 103.166 190.88 102.664H190.835C190.745 102.672 190.146 103.184 189.038 104.203C188.237 104.734 187.582 105 187.073 105V102.754C187.806 102.724 188.701 102.136 189.757 100.991C190.715 100.22 191.404 99.8377 191.823 99.8452ZM199.932 98.52C200.261 98.4302 200.65 98.4339 201.1 98.5312C201.549 98.6211 201.961 99.119 202.335 100.025C202.709 100.923 202.908 101.597 202.93 102.046C202.96 102.488 202.904 102.922 202.762 103.349C202.619 103.776 202.41 104.206 202.133 104.641C201.863 105.075 201.481 105.344 200.987 105.449C200.501 105.554 199.913 105.595 199.224 105.573C198.543 105.55 197.88 105.105 197.236 104.236C196.974 104.446 196.671 104.629 196.327 104.787C195.99 104.944 195.552 105.019 195.013 105.011L194.62 105V102.754H195.024C195.713 102.627 196.192 102.469 196.461 102.282C196.731 102.088 196.993 101.751 197.248 101.271C197.51 100.785 197.94 100.227 198.539 99.5981C199.138 98.9618 199.602 98.6024 199.932 98.52ZM198.64 101.968C198.588 102.095 198.565 102.237 198.573 102.395C198.588 102.544 198.711 102.705 198.943 102.877C199.183 103.05 199.479 103.154 199.831 103.192C200.19 103.229 200.523 103.196 200.83 103.091C201.137 102.986 201.309 102.825 201.347 102.608C201.384 102.391 201.328 102.144 201.178 101.867C201.028 101.582 200.92 101.395 200.853 101.305C200.785 101.208 200.662 101.118 200.482 101.036C200.302 100.953 200.025 100.968 199.651 101.081C199.284 101.193 199.037 101.339 198.91 101.519C198.79 101.691 198.7 101.84 198.64 101.968Z" fill="white"/>
</g>
<g filter="url(#filter1_d_2674_2851)">
<path d="M45.8398 139.914C45.8398 140.039 45.8633 140.203 45.9102 140.406C45.957 140.602 46.2031 140.961 46.6484 141.484C47.1016 142 47.3398 142.258 47.3633 142.258C47.3867 142.258 47.5 142.113 47.7031 141.824C47.9141 141.535 48.0195 141.336 48.0195 141.227C48.0195 141.109 48.0195 140.973 48.0195 140.816C48.0195 140.652 47.8789 140.418 47.5977 140.113C47.3242 139.801 47.0977 139.609 46.918 139.539C46.7383 139.469 46.5938 139.434 46.4844 139.434C46.3828 139.434 46.25 139.484 46.0859 139.586C45.9219 139.68 45.8398 139.789 45.8398 139.914ZM45.582 135.086C45.5508 134.992 45.5312 134.938 45.5234 134.922C45.5234 134.898 45.5234 134.875 45.5234 134.852C45.5234 134.82 45.5234 134.762 45.5234 134.676C45.5234 134.59 45.5547 134.48 45.6172 134.348C45.6797 134.215 45.75 134.066 45.8281 133.902C45.9141 133.738 46.0352 133.629 46.1914 133.574C46.3555 133.512 46.4531 133.48 46.4844 133.48C46.5156 133.48 46.5703 133.48 46.6484 133.48C46.7344 133.48 46.8633 133.547 47.0352 133.68C47.2148 133.812 47.3281 133.969 47.375 134.148C47.4219 134.32 47.4453 134.438 47.4453 134.5C47.4453 134.555 47.4453 134.711 47.4453 134.969C47.4453 135.219 47.2969 135.398 47 135.508C46.7031 135.609 46.5352 135.66 46.4961 135.66C46.457 135.66 46.3906 135.66 46.2969 135.66C46.2031 135.66 46.0664 135.586 45.8867 135.438C45.7148 135.289 45.6133 135.172 45.582 135.086ZM45.1836 147.191C44.7148 147.402 44.1289 147.602 43.4258 147.789C42.7305 147.977 42.0781 148.105 41.4688 148.176C40.8594 148.246 39.8281 148.227 38.375 148.117C36.9297 148.016 35.4648 147.312 33.9805 146.008C32.4961 144.703 31.707 143.465 31.6133 142.293C31.5273 141.113 31.5586 140.102 31.707 139.258C31.8555 138.406 32.0312 137.707 32.2344 137.16C32.4375 136.613 32.6914 136.051 32.9961 135.473C33.3008 134.895 33.707 134.27 34.2148 133.598C34.7305 132.918 35.043 132.543 35.1523 132.473C35.2695 132.395 35.3398 132.348 35.3633 132.332C35.3945 132.309 35.418 132.297 35.4336 132.297C35.457 132.297 35.4844 132.297 35.5156 132.297C35.5547 132.297 35.5742 132.332 35.5742 132.402C35.5742 132.473 35.5742 132.527 35.5742 132.566C35.5742 132.605 35.5703 132.652 35.5625 132.707C35.5547 132.754 35.5312 132.887 35.4922 133.105C35.4531 133.324 35.0742 133.996 34.3555 135.121C33.6445 136.246 33.2266 137.387 33.1016 138.543C32.9766 139.691 32.9766 140.664 33.1016 141.461C33.2266 142.258 33.9297 143.117 35.2109 144.039C36.4922 144.961 37.6367 145.508 38.6445 145.68C39.6523 145.852 40.6797 145.898 41.7266 145.82C42.7812 145.734 43.457 145.652 43.7539 145.574C44.0508 145.496 44.3359 145.422 44.6094 145.352C44.8828 145.273 45.2812 144.957 45.8047 144.402L45.5586 144.004C45.4414 143.809 45.1992 143.434 44.832 142.879C44.4648 142.316 44.2812 141.949 44.2812 141.777C44.2812 141.605 44.2812 141.477 44.2812 141.391C44.2812 141.297 44.3047 141.008 44.3516 140.523C44.3984 140.031 44.4805 139.695 44.5977 139.516C44.7227 139.328 44.9883 138.867 45.3945 138.133C45.8086 137.391 46.1719 136.977 46.4844 136.891C46.8047 136.797 47.0586 136.75 47.2461 136.75C47.4336 136.75 47.8242 137.055 48.418 137.664C49.0195 138.266 49.3711 138.711 49.4727 139C49.582 139.289 49.6367 139.535 49.6367 139.738C49.6367 139.941 49.5547 140.336 49.3906 140.922C49.2266 141.5 49.043 141.977 48.8398 142.352C48.6445 142.719 48.457 143.164 48.2773 143.688L48.4414 144.004C48.8711 144.613 49.5117 145.164 50.3633 145.656H50.7266L50.7383 148C50.2461 148 49.8125 147.879 49.4375 147.637C49.0625 147.387 48.7773 147.199 48.582 147.074C48.3945 146.941 48.168 146.758 47.9023 146.523C47.6367 146.281 47.3555 146 47.0586 145.68L46.6602 146.066C46.1445 146.605 45.6523 146.98 45.1836 147.191ZM53.1992 137.582H53.4336C53.9805 137.582 54.6992 138.453 55.5898 140.195C55.7461 140.625 55.8242 141.16 55.8242 141.801C55.8242 144.176 54.9961 145.977 53.3398 147.203C52.5742 147.758 51.7734 148.027 50.9375 148.012L50.4336 148V145.656C51.0039 145.656 51.6289 145.59 52.3086 145.457C53.0664 145.23 53.5352 144.941 53.7148 144.59C54.0273 144.16 54.1836 143.578 54.1836 142.844C54.1836 141.867 53.543 140.984 52.2617 140.195C52.0742 139.898 51.9805 139.609 51.9805 139.328C52.2773 138.164 52.6836 137.582 53.1992 137.582ZM54.9219 148.223C55.6719 148.223 56.0469 148.594 56.0469 149.336C56.0469 149.945 55.7344 150.359 55.1094 150.578L54.6875 150.672H54.5C53.8438 150.469 53.5156 150.141 53.5156 149.688L53.4688 149.383C53.4688 148.742 53.9219 148.355 54.8281 148.223H54.9219ZM51.8398 149.113H52.2617C52.7227 149.113 53.0352 149.367 53.1992 149.875V150.367C53.0273 151.141 52.6211 151.527 51.9805 151.527H51.7461C51.0273 151.238 50.668 150.852 50.668 150.367V150.098C50.9023 149.441 51.293 149.113 51.8398 149.113ZM59.082 142.938C59.2148 142.906 59.332 142.902 59.4336 142.926C59.5352 142.949 59.5938 143.004 59.6094 143.09C59.625 143.176 59.6172 143.324 59.5859 143.535C59.5547 143.746 59.625 144.133 59.7969 144.695C59.9766 145.25 60.2891 145.551 60.7344 145.598C61.1797 145.637 61.6992 145.656 62.293 145.656V148C61.457 148.008 60.9258 148.004 60.6992 147.988C60.4805 147.965 60.3242 148.02 60.2305 148.152C60.1445 148.285 60.0703 148.562 60.0078 148.984C59.9453 149.406 59.8008 149.84 59.5742 150.285C59.3555 150.738 59.1484 151.133 58.9531 151.469C58.7578 151.805 58.5938 152.062 58.4609 152.242C58.3281 152.422 57.8477 152.922 57.0195 153.742C56.1914 154.562 55.5703 155.078 55.1562 155.289C54.7344 155.5 54.3945 155.68 54.1367 155.828C53.8711 155.977 53.4102 156.145 52.7539 156.332C52.0898 156.52 51.7344 156.629 51.6875 156.66C51.6406 156.699 51.2461 156.75 50.5039 156.812C49.7539 156.875 49.1211 156.891 48.6055 156.859C48.0898 156.828 47.6953 156.789 47.4219 156.742C47.1484 156.703 46.7109 156.598 46.1094 156.426C45.5 156.254 44.8203 156.016 44.0703 155.711C43.3203 155.406 42.8555 155.148 42.6758 154.938C42.4961 154.734 42.4023 154.57 42.3945 154.445C42.3789 154.328 42.3828 154.176 42.4062 153.988C42.4297 153.809 42.5312 153.695 42.7109 153.648C42.8828 153.609 43.0703 153.602 43.2734 153.625C43.4688 153.656 43.7773 153.797 44.1992 154.047C44.6133 154.305 44.9766 154.477 45.2891 154.562C45.5938 154.656 45.7578 154.703 45.7812 154.703C45.7969 154.711 45.9766 154.762 46.3203 154.855C46.6562 154.949 47.1523 155.043 47.8086 155.137C48.457 155.23 49.0078 155.266 49.4609 155.242C49.9062 155.227 50.3516 155.199 50.7969 155.16C51.2344 155.121 51.7344 154.992 52.2969 154.773C52.8516 154.555 53.2852 154.375 53.5977 154.234C53.9023 154.102 54.2891 153.871 54.7578 153.543C55.2188 153.223 55.6133 152.914 55.9414 152.617C56.2617 152.32 56.5469 152.027 56.7969 151.738C57.0547 151.449 57.2656 151.148 57.4297 150.836C57.6016 150.531 57.7422 150.242 57.8516 149.969C57.9688 149.695 58.1133 149.211 58.2852 148.516C58.4648 147.828 58.4727 147.336 58.3086 147.039C58.1445 146.742 58.0312 146.363 57.9688 145.902C57.9141 145.441 57.8984 145.137 57.9219 144.988C57.9453 144.84 58 144.68 58.0859 144.508C58.1719 144.336 58.2461 144.145 58.3086 143.934C58.3711 143.723 58.4844 143.512 58.6484 143.301C58.8125 143.09 58.957 142.969 59.082 142.938ZM65.6094 138.953C65.6094 138.68 65.7344 138.422 65.9844 138.18C66.2344 137.93 66.5586 137.805 66.957 137.805C67.7227 137.805 68.1055 138.188 68.1055 138.953C68.1055 139.273 67.9844 139.578 67.7422 139.867C67.5078 140.156 67.1836 140.301 66.7695 140.301C66.543 140.301 66.293 140.156 66.0195 139.867C65.7461 139.578 65.6094 139.273 65.6094 138.953ZM69.1836 138.566C69.1836 138.277 69.3125 138.016 69.5703 137.781C69.8281 137.539 70.1484 137.418 70.5312 137.418C70.9609 137.418 71.2578 137.527 71.4219 137.746C71.5938 137.957 71.6797 138.23 71.6797 138.566C71.6797 139.035 71.5234 139.379 71.2109 139.598C70.9062 139.809 70.5508 139.914 70.1445 139.914C69.9258 139.836 69.7109 139.715 69.5 139.551C69.2891 139.379 69.1836 139.051 69.1836 138.566ZM67.2266 135.73C67.2266 135.465 67.3477 135.207 67.5898 134.957C67.8398 134.707 68.1641 134.582 68.5625 134.582C69.3359 134.582 69.7227 134.965 69.7227 135.73C69.7227 136.051 69.6016 136.355 69.3594 136.645C69.1172 136.934 68.7891 137.078 68.375 137.078C68.1484 137.078 67.8984 136.934 67.625 136.645C67.3594 136.355 67.2266 136.051 67.2266 135.73ZM72.2188 140.477C72.2422 140.477 72.3906 140.477 72.6641 140.477C72.9453 140.477 73.2266 140.676 73.5078 141.074C73.7891 141.473 74 141.895 74.1406 142.34C74.2812 142.785 74.3516 143.051 74.3516 143.137C74.3516 143.223 74.3516 143.449 74.3516 143.816C74.3516 144.184 74.3125 144.578 74.2344 145C74.4141 145.188 74.6641 145.344 74.9844 145.469C75.3125 145.586 75.7773 145.648 76.3789 145.656V148C75.6992 148 75.082 147.895 74.5273 147.684C73.9805 147.473 73.5273 147.238 73.168 146.98C73.0977 147.02 72.8477 147.168 72.418 147.426C71.9961 147.676 71.7227 147.824 71.5977 147.871C71.4805 147.918 71.3125 147.918 71.0938 147.871C70.8828 147.824 70.6562 147.711 70.4141 147.531C70.1719 147.344 69.832 147.098 69.3945 146.793C69.0586 147.105 68.6992 147.367 68.3164 147.578C67.9336 147.781 67.625 147.898 67.3906 147.93C67.1641 147.961 66.7578 147.91 66.1719 147.777C65.5938 147.645 65.1836 147.461 64.9414 147.227C64.6992 146.984 64.5352 146.809 64.4492 146.699C63.668 147.488 62.9219 147.918 62.2109 147.988L61.4727 148L61.4844 145.645C61.9922 145.668 62.3945 145.605 62.6914 145.457C62.9961 145.301 63.2695 145.082 63.5117 144.801C63.7539 144.52 63.9219 144.25 64.0156 143.992C64.1172 143.734 64.2461 143.523 64.4023 143.359C64.5586 143.188 64.6602 143.102 64.707 143.102C64.7617 143.102 64.8672 143.102 65.0234 143.102C65.1875 143.102 65.3711 143.301 65.5742 143.699C65.7773 144.09 65.9609 144.348 66.125 144.473C66.2891 144.598 66.5391 144.73 66.875 144.871C67.2188 145.012 67.4766 145.074 67.6484 145.059C67.8203 145.043 68.0156 144.918 68.2344 144.684C68.4531 144.449 68.582 144.238 68.6211 144.051C68.6602 143.863 68.7812 143.629 68.9844 143.348C69.1953 143.066 69.3516 142.91 69.4531 142.879C69.5625 142.848 69.6719 142.848 69.7812 142.879C69.8984 142.91 69.9766 143.129 70.0156 143.535C70.0547 143.941 70.2422 144.246 70.5781 144.449C70.9219 144.645 71.207 144.785 71.4336 144.871C71.6602 144.949 71.8906 144.914 72.125 144.766C72.3672 144.609 72.4844 144.477 72.4766 144.367C72.4766 144.258 72.4336 144.07 72.3477 143.805C72.2617 143.531 72.0938 143.359 71.8438 143.289C71.6016 143.219 71.4531 143.086 71.3984 142.891C71.3516 142.688 71.3281 142.379 71.3281 141.965C71.3281 141.551 71.4688 141.199 71.75 140.91C72.0391 140.621 72.1953 140.477 72.2188 140.477ZM76.8828 131.98C77.3125 131.738 77.6328 131.652 77.8438 131.723C78.0625 131.785 78.2734 131.949 78.4766 132.215C78.6875 132.48 78.8867 132.898 79.0742 133.469C79.2617 134.031 79.3828 134.566 79.4375 135.074C79.4922 135.574 79.5781 136.887 79.6953 139.012C79.8125 141.137 79.9141 142.57 80 143.312C80.0938 144.047 80.1406 144.637 80.1406 145.082C80.1484 145.52 80.0781 145.914 79.9297 146.266C79.7891 146.617 79.4883 146.949 79.0273 147.262C78.5664 147.566 78.0508 147.77 77.4805 147.871C76.918 147.973 76.4023 148.016 75.9336 148V145.656C76.1836 145.656 76.3711 145.66 76.4961 145.668C76.6211 145.668 76.9023 145.648 77.3398 145.609C77.7852 145.57 78.0742 145.426 78.207 145.176C78.3398 144.926 78.3906 144.574 78.3594 144.121C78.3359 143.66 78.3047 143.129 78.2656 142.527C78.2266 141.918 78.1992 140.852 78.1836 139.328C78.168 137.805 78.082 136.75 77.9258 136.164C77.7695 135.578 77.4766 135.16 77.0469 134.91C76.625 134.66 76.3867 134.383 76.332 134.078C76.2773 133.773 76.25 133.406 76.25 132.977C76.25 132.547 76.4609 132.215 76.8828 131.98ZM82.4258 131.5C82.6836 131.5 83.0391 131.656 83.4922 131.969C83.9453 132.281 84.1719 132.707 84.1719 133.246C84.1719 133.777 84.1719 134.133 84.1719 134.312C84.1719 134.484 84.1836 134.68 84.207 134.898C84.2383 135.117 84.2539 135.414 84.2539 135.789C84.2539 136.164 84.2539 136.43 84.2539 136.586C84.2539 136.742 84.2578 136.898 84.2656 137.055C84.2812 137.203 84.293 137.359 84.3008 137.523C84.3164 137.688 84.3281 138.027 84.3359 138.543C84.3438 139.051 84.3438 139.77 84.3359 140.699C84.3281 141.621 84.3359 142.242 84.3594 142.562C84.3906 142.875 84.4062 143.121 84.4062 143.301C84.4062 143.48 84.4414 143.75 84.5117 144.109C84.5898 144.469 84.7812 144.895 85.0859 145.387C85.3906 145.871 85.5547 146.203 85.5781 146.383C85.6016 146.555 85.6133 146.699 85.6133 146.816C85.6133 146.934 85.5781 147.16 85.5078 147.496C85.4375 147.832 85.2344 148 84.8984 148C84.5703 148 84.1523 147.879 83.6445 147.637C83.1367 147.395 82.8828 147.188 82.8828 147.016C82.8828 146.844 82.8828 146.66 82.8828 146.465C82.8828 146.27 82.8828 146.094 82.8828 145.938C82.8828 145.773 82.9336 145.543 83.0352 145.246C83.1367 144.949 83.168 144.266 83.1289 143.195C83.0977 142.125 83.0781 141.402 83.0703 141.027C83.0703 140.645 83.0703 140.344 83.0703 140.125C83.0781 139.906 83.0742 139.676 83.0586 139.434C83.043 139.191 83.0352 138.637 83.0352 137.77C83.0352 136.902 83 136.234 82.9297 135.766C82.8672 135.289 82.7305 134.98 82.5195 134.84C82.3086 134.699 82.0898 134.449 81.8633 134.09C81.6367 133.73 81.5234 133.496 81.5234 133.387C81.5234 133.27 81.6094 132.926 81.7812 132.355C81.9531 131.785 82.168 131.5 82.4258 131.5ZM97.3672 141.988C97.1172 142.309 96.8789 142.391 96.6523 142.234C96.4258 142.078 96.2305 142 96.0664 142C95.9102 142 95.6328 142.027 95.2344 142.082C94.8438 142.137 94.5742 142.215 94.4258 142.316C94.2773 142.418 94.1953 142.531 94.1797 142.656C94.1719 142.781 94.1992 142.871 94.2617 142.926C94.3242 142.973 94.5117 143.008 94.8242 143.031C95.1445 143.055 95.457 143.168 95.7617 143.371C96.0664 143.566 96.2969 143.809 96.4531 144.098C96.6094 144.387 96.7188 144.719 96.7812 145.094C96.8438 145.469 96.875 145.816 96.875 146.137C96.875 146.449 96.6992 146.992 96.3477 147.766C96.0039 148.531 95.6289 149.188 95.2227 149.734C94.8242 150.289 94.3945 150.859 93.9336 151.445C93.4727 152.031 92.9219 152.586 92.2812 153.109C91.6484 153.641 90.9766 154.133 90.2656 154.586C89.5469 155.039 88.8516 155.391 88.1797 155.641C87.5078 155.898 87.0117 156.074 86.6914 156.168C86.3633 156.27 85.8828 156.387 85.25 156.52C84.6172 156.652 83.7266 156.777 82.5781 156.895C81.4297 157.012 80.2305 157.039 78.9805 156.977C77.7305 156.922 76.8008 156.848 76.1914 156.754C75.5742 156.668 74.957 156.574 74.3398 156.473C73.7227 156.379 73.1055 156.219 72.4883 155.992C71.8711 155.766 71.3125 155.523 70.8125 155.266C70.3125 155.008 69.8984 154.762 69.5703 154.527C69.2422 154.301 68.875 154.035 68.4688 153.73C68.0547 153.434 67.5781 152.961 67.0391 152.312C66.5 151.664 66.1914 151.27 66.1133 151.129C66.0352 150.996 65.957 150.77 65.8789 150.449C65.793 150.137 65.8242 149.844 65.9727 149.57C66.1133 149.305 66.3164 149.277 66.582 149.488C66.8477 149.707 67.0273 149.914 67.1211 150.109C67.2148 150.312 67.4688 150.699 67.8828 151.27C68.2891 151.84 68.957 152.43 69.8867 153.039C70.8164 153.648 71.7109 154.121 72.5703 154.457C73.4219 154.801 74.4062 155.047 75.5234 155.195C76.6406 155.352 77.5234 155.453 78.1719 155.5C78.8125 155.555 79.5898 155.578 80.5039 155.57C81.4102 155.562 82.3828 155.504 83.4219 155.395C84.4609 155.285 85.4492 155.094 86.3867 154.82C87.3164 154.547 88.1016 154.227 88.7422 153.859C89.3828 153.5 90.0117 153.082 90.6289 152.605C91.2383 152.137 91.6953 151.742 92 151.422C92.3125 151.109 92.7148 150.668 93.207 150.098C93.6992 149.535 94.0664 149.047 94.3086 148.633C94.5508 148.227 94.7461 147.867 94.8945 147.555C95.0508 147.234 95.168 146.93 95.2461 146.641C95.3242 146.344 95.3125 146.047 95.2109 145.75C95.1094 145.453 94.9102 145.234 94.6133 145.094C94.3242 144.945 93.9688 144.867 93.5469 144.859C93.1328 144.844 92.8477 144.797 92.6914 144.719C92.5352 144.641 92.418 144.516 92.3398 144.344C92.2695 144.164 92.2344 143.938 92.2344 143.664C92.2344 143.383 92.3359 142.996 92.5391 142.504C92.75 142.004 92.9141 141.672 93.0312 141.508C93.1562 141.336 93.2773 141.195 93.3945 141.086C93.5117 140.969 93.6641 140.824 93.8516 140.652C94.0469 140.48 94.2422 140.328 94.4375 140.195C94.6328 140.062 94.875 139.961 95.1641 139.891C95.4531 139.82 95.7891 139.762 96.1719 139.715C96.5625 139.66 96.9219 139.711 97.25 139.867C97.5859 140.016 97.7539 140.262 97.7539 140.605C97.7539 140.941 97.7539 141.176 97.7539 141.309C97.7539 141.441 97.625 141.668 97.3672 141.988ZM83.8203 157.469C83.9219 157.469 84.0703 157.469 84.2656 157.469C84.4531 157.469 84.6484 157.574 84.8516 157.785C85.0469 158.004 85.1406 158.18 85.1328 158.312C85.1172 158.453 85.1016 158.598 85.0859 158.746C85.0703 158.895 84.9727 159.043 84.793 159.191C84.6133 159.34 84.4297 159.414 84.2422 159.414C84.0547 159.422 83.8711 159.426 83.6914 159.426C83.5117 159.426 83.3125 159.324 83.0938 159.121C82.8672 158.926 82.7617 158.777 82.7773 158.676C82.7852 158.574 82.7969 158.461 82.8125 158.336C82.8203 158.211 82.9648 158.035 83.2461 157.809C83.5195 157.59 83.7109 157.477 83.8203 157.469ZM87.1016 157.352C87.1797 157.328 87.3086 157.316 87.4883 157.316C87.668 157.316 87.8984 157.395 88.1797 157.551C88.4531 157.715 88.582 157.891 88.5664 158.078C88.5508 158.266 88.5391 158.426 88.5312 158.559C88.5156 158.691 88.4258 158.84 88.2617 159.004C88.0977 159.176 87.9102 159.262 87.6992 159.262C87.4883 159.262 87.2969 159.262 87.125 159.262C86.9453 159.262 86.7461 159.164 86.5273 158.969C86.3008 158.781 86.1953 158.633 86.2109 158.523C86.2188 158.422 86.2344 158.262 86.2578 158.043C86.2734 157.824 86.3984 157.66 86.6328 157.551C86.8672 157.441 87.0234 157.375 87.1016 157.352ZM103.742 143.688C103.531 143.867 103.406 144.031 103.367 144.18C103.336 144.328 103.32 144.488 103.32 144.66C103.328 144.832 103.375 144.973 103.461 145.082C103.547 145.191 103.738 145.312 104.035 145.445C104.332 145.578 104.672 145.656 105.055 145.68C105.078 145.359 105.086 145.027 105.078 144.684C105.078 144.34 105.023 144.078 104.914 143.898C104.812 143.719 104.645 143.594 104.41 143.523C104.176 143.453 103.953 143.508 103.742 143.688ZM104.117 141.285C104.844 141.16 105.574 141.371 106.309 141.918C107.051 142.457 107.375 143.711 107.281 145.68C107.43 145.68 107.621 145.672 107.855 145.656V148C107.504 148.047 107.195 148.078 106.93 148.094C106.43 149.875 105.844 151.25 105.172 152.219C104.5 153.195 103.602 154.047 102.477 154.773C101.352 155.5 100.258 155.992 99.1953 156.25C98.1406 156.516 97.125 156.68 96.1484 156.742C95.1641 156.805 94.2383 156.789 93.3711 156.695C92.5039 156.609 91.5039 156.375 90.3711 155.992C89.2305 155.617 88.2656 155.129 87.4766 154.527C86.6875 153.926 86.2305 153.395 86.1055 152.934C85.9805 152.48 85.9688 152.156 86.0703 151.961C86.1641 151.773 86.2852 151.684 86.4336 151.691C86.582 151.699 86.8711 151.941 87.3008 152.418C87.7305 152.902 88.1914 153.297 88.6836 153.602C89.168 153.914 89.7734 154.211 90.5 154.492C91.2188 154.781 92.0625 155.004 93.0312 155.16C93.9922 155.316 95.1992 155.328 96.6523 155.195C98.1055 155.07 99.3438 154.715 100.367 154.129C101.391 153.543 102.145 153 102.629 152.5C103.113 152.008 103.504 151.473 103.801 150.895C104.098 150.316 104.449 149.332 104.855 147.941C104.387 147.855 103.984 147.773 103.648 147.695C103.312 147.609 102.961 147.484 102.594 147.32C102.234 147.156 101.91 146.84 101.621 146.371C101.34 145.895 101.234 145.301 101.305 144.59C101.375 143.871 101.68 143.172 102.219 142.492C102.758 141.805 103.391 141.402 104.117 141.285ZM110.293 148.457C111.059 148.48 111.594 148.727 111.898 149.195L112.074 149.547L112.062 150.027C111.867 150.402 111.535 150.672 111.066 150.836L110.188 151.023H110.094C109.648 151.008 109.211 150.738 108.781 150.215L108.816 149.395C109.324 148.816 109.805 148.527 110.258 148.527H110.293V148.457ZM112.484 142.621H112.719C113.039 142.621 113.211 142.738 113.234 142.973C113.266 143.199 113.203 143.512 113.047 143.91C113.305 144.605 113.711 145.082 114.266 145.34C114.68 145.551 115.117 145.656 115.578 145.656V148L115.355 147.988C113.84 147.965 112.762 147.523 112.121 146.664C111.918 146.453 111.711 146.086 111.5 145.562H111.453C111.359 145.57 110.734 146.105 109.578 147.168C108.742 147.723 108.047 148 107.492 148V145.656C108.281 145.625 109.227 145.012 110.328 143.816C111.328 143.012 112.047 142.613 112.484 142.621ZM117.23 139.34C117.23 139.066 117.352 138.805 117.594 138.555C117.844 138.305 118.168 138.18 118.566 138.18C119.34 138.18 119.727 138.566 119.727 139.34C119.727 139.66 119.605 139.965 119.363 140.254C119.121 140.535 118.793 140.676 118.379 140.676C118.152 140.676 117.902 140.535 117.629 140.254C117.363 139.965 117.23 139.66 117.23 139.34ZM120.359 142.621H120.594C120.914 142.621 121.086 142.738 121.109 142.973C121.141 143.199 121.078 143.512 120.922 143.91C121.18 144.605 121.586 145.082 122.141 145.34C122.555 145.551 122.992 145.656 123.453 145.656V148L123.23 147.988C121.715 147.965 120.637 147.523 119.996 146.664C119.793 146.453 119.586 146.086 119.375 145.562H119.328C119.234 145.57 118.609 146.105 117.453 147.168C116.617 147.723 115.934 148 115.402 148V145.656C116.168 145.625 117.102 145.012 118.203 143.816C119.203 143.012 119.922 142.613 120.359 142.621ZM124.227 131.98C124.656 131.738 124.977 131.652 125.188 131.723C125.406 131.785 125.617 131.949 125.82 132.215C126.031 132.48 126.23 132.898 126.418 133.469C126.605 134.031 126.727 134.566 126.781 135.074C126.836 135.574 126.922 136.887 127.039 139.012C127.156 141.137 127.258 142.57 127.344 143.312C127.438 144.047 127.484 144.637 127.484 145.082C127.492 145.52 127.422 145.914 127.273 146.266C127.133 146.617 126.832 146.949 126.371 147.262C125.91 147.566 125.395 147.77 124.824 147.871C124.262 147.973 123.746 148.016 123.277 148V145.656C123.527 145.656 123.715 145.66 123.84 145.668C123.965 145.668 124.246 145.648 124.684 145.609C125.129 145.57 125.418 145.426 125.551 145.176C125.684 144.926 125.734 144.574 125.703 144.121C125.68 143.66 125.648 143.129 125.609 142.527C125.57 141.918 125.543 140.852 125.527 139.328C125.512 137.805 125.426 136.75 125.27 136.164C125.113 135.578 124.82 135.16 124.391 134.91C123.969 134.66 123.73 134.383 123.676 134.078C123.621 133.773 123.594 133.406 123.594 132.977C123.594 132.547 123.805 132.215 124.227 131.98ZM129.77 131.5C130.027 131.5 130.383 131.656 130.836 131.969C131.289 132.281 131.516 132.707 131.516 133.246C131.516 133.777 131.516 134.133 131.516 134.312C131.516 134.484 131.527 134.68 131.551 134.898C131.582 135.117 131.598 135.414 131.598 135.789C131.598 136.164 131.598 136.43 131.598 136.586C131.598 136.742 131.602 136.898 131.609 137.055C131.625 137.203 131.637 137.359 131.645 137.523C131.66 137.688 131.672 138.027 131.68 138.543C131.688 139.051 131.688 139.77 131.68 140.699C131.672 141.621 131.68 142.242 131.703 142.562C131.734 142.875 131.75 143.121 131.75 143.301C131.75 143.48 131.785 143.75 131.855 144.109C131.934 144.469 132.125 144.895 132.43 145.387C132.734 145.871 132.898 146.203 132.922 146.383C132.945 146.555 132.957 146.699 132.957 146.816C132.957 146.934 132.922 147.16 132.852 147.496C132.781 147.832 132.578 148 132.242 148C131.914 148 131.496 147.879 130.988 147.637C130.48 147.395 130.227 147.188 130.227 147.016C130.227 146.844 130.227 146.66 130.227 146.465C130.227 146.27 130.227 146.094 130.227 145.938C130.227 145.773 130.277 145.543 130.379 145.246C130.48 144.949 130.512 144.266 130.473 143.195C130.441 142.125 130.422 141.402 130.414 141.027C130.414 140.645 130.414 140.344 130.414 140.125C130.422 139.906 130.418 139.676 130.402 139.434C130.387 139.191 130.379 138.637 130.379 137.77C130.379 136.902 130.344 136.234 130.273 135.766C130.211 135.289 130.074 134.98 129.863 134.84C129.652 134.699 129.434 134.449 129.207 134.09C128.98 133.73 128.867 133.496 128.867 133.387C128.867 133.27 128.953 132.926 129.125 132.355C129.297 131.785 129.512 131.5 129.77 131.5ZM153.43 138.824C153.766 138.824 153.977 138.824 154.062 138.824C154.148 138.824 154.254 138.859 154.379 138.93C154.504 139 154.621 139.148 154.73 139.375C154.84 139.602 154.84 139.941 154.73 140.395C154.629 140.848 154.418 141.074 154.098 141.074C153.777 141.074 153.527 141.059 153.348 141.027C153.176 140.988 153.027 140.852 152.902 140.617C152.785 140.375 152.711 140.207 152.68 140.113C152.656 140.012 152.691 139.773 152.785 139.398C152.887 139.016 153.102 138.824 153.43 138.824ZM150.863 139.234C151.012 139.234 151.105 139.234 151.145 139.234C151.184 139.234 151.301 139.234 151.496 139.234C151.699 139.234 151.84 139.324 151.918 139.504C151.996 139.684 152.035 139.867 152.035 140.055C152.035 140.234 151.906 140.484 151.648 140.805C151.398 141.125 151.156 141.285 150.922 141.285C150.688 141.285 150.559 141.285 150.535 141.285C150.52 141.285 150.414 141.25 150.219 141.18C150.031 141.102 149.875 140.953 149.75 140.734C149.625 140.508 149.645 140.234 149.809 139.914C149.98 139.594 150.16 139.402 150.348 139.34C150.543 139.27 150.715 139.234 150.863 139.234ZM152.07 136.516C152.219 136.516 152.312 136.516 152.352 136.516C152.391 136.516 152.508 136.516 152.703 136.516C152.906 136.516 153.047 136.605 153.125 136.785C153.203 136.965 153.242 137.148 153.242 137.336C153.242 137.516 153.113 137.766 152.855 138.086C152.605 138.406 152.363 138.566 152.129 138.566C151.895 138.566 151.766 138.566 151.742 138.566C151.727 138.566 151.621 138.531 151.426 138.461C151.238 138.383 151.082 138.234 150.957 138.016C150.832 137.789 150.852 137.516 151.016 137.195C151.188 136.875 151.367 136.684 151.555 136.621C151.75 136.551 151.922 136.516 152.07 136.516ZM144.582 132.426C145.262 132.246 145.938 132.125 146.609 132.062C147.281 132 147.891 132.031 148.438 132.156C148.984 132.273 149.488 132.48 149.949 132.777C150.418 133.074 150.633 133.324 150.594 133.527C150.562 133.73 150.492 133.867 150.383 133.938C150.281 134 150.062 133.93 149.727 133.727C149.391 133.523 148.973 133.355 148.473 133.223C147.98 133.09 147.461 133.051 146.914 133.105C146.367 133.16 145.906 133.227 145.531 133.305C145.156 133.375 144.766 133.484 144.359 133.633C143.953 133.773 143.512 134.016 143.035 134.359C142.559 134.703 142.125 135.145 141.734 135.684C141.344 136.223 141.07 136.766 140.914 137.312C140.766 137.859 140.672 138.223 140.633 138.402C140.594 138.582 140.586 138.973 140.609 139.574C140.633 140.176 140.695 140.691 140.797 141.121C140.906 141.543 141.066 142.023 141.277 142.562C141.488 143.102 141.871 143.602 142.426 144.062C142.988 144.523 143.68 144.914 144.5 145.234C145.328 145.555 146.098 145.75 146.809 145.82C147.527 145.883 148.219 145.883 148.883 145.82C149.555 145.75 150.219 145.59 150.875 145.34C151.531 145.09 152.129 144.793 152.668 144.449C153.215 144.105 153.66 143.707 154.004 143.254C154.355 142.793 154.742 142.617 155.164 142.727C155.594 142.836 155.816 143.047 155.832 143.359C155.848 143.672 155.785 144.066 155.645 144.543C155.926 145.309 156.418 145.676 157.121 145.645V148C156.426 148.008 155.855 147.848 155.41 147.52C154.965 147.191 154.598 146.805 154.309 146.359C153.988 146.531 153.539 146.758 152.961 147.039C152.391 147.32 151.648 147.586 150.734 147.836C149.828 148.078 148.691 148.133 147.324 148C145.957 147.859 144.742 147.555 143.68 147.086C142.625 146.617 141.859 146.152 141.383 145.691C140.906 145.223 140.484 144.645 140.117 143.957C139.758 143.27 139.535 142.316 139.449 141.098C139.363 139.871 139.441 138.758 139.684 137.758C139.926 136.758 140.227 135.961 140.586 135.367C140.945 134.773 141.32 134.316 141.711 133.996C142.109 133.668 142.52 133.371 142.941 133.105C143.363 132.832 143.91 132.605 144.582 132.426ZM159.488 137.582H159.723C160.27 137.582 160.988 138.453 161.879 140.195C162.035 140.625 162.113 141.16 162.113 141.801C162.113 144.176 161.285 145.977 159.629 147.203C158.863 147.758 158.062 148.027 157.227 148.012L156.723 148V145.656C157.293 145.656 157.918 145.59 158.598 145.457C159.355 145.23 159.824 144.941 160.004 144.59C160.316 144.16 160.473 143.578 160.473 142.844C160.473 141.867 159.832 140.984 158.551 140.195C158.363 139.898 158.27 139.609 158.27 139.328C158.566 138.164 158.973 137.582 159.488 137.582ZM161.211 148.223C161.961 148.223 162.336 148.594 162.336 149.336C162.336 149.945 162.023 150.359 161.398 150.578L160.977 150.672H160.789C160.133 150.469 159.805 150.141 159.805 149.688L159.758 149.383C159.758 148.742 160.211 148.355 161.117 148.223H161.211ZM158.129 149.113H158.551C159.012 149.113 159.324 149.367 159.488 149.875V150.367C159.316 151.141 158.91 151.527 158.27 151.527H158.035C157.316 151.238 156.957 150.852 156.957 150.367V150.098C157.191 149.441 157.582 149.113 158.129 149.113ZM169.062 130.949C169.203 130.949 169.316 131.012 169.402 131.137C169.488 131.254 169.512 131.359 169.473 131.453C169.434 131.539 169.398 131.699 169.367 131.934C169.344 132.16 169.246 132.375 169.074 132.578C168.91 132.781 168.793 132.883 168.723 132.883C168.66 132.883 168.418 133.062 167.996 133.422C167.574 133.781 167.305 134.027 167.188 134.16C167.07 134.293 166.953 134.457 166.836 134.652C166.727 134.84 166.629 135.082 166.543 135.379C166.457 135.676 166.402 135.988 166.379 136.316C166.363 136.637 166.375 136.945 166.414 137.242C166.453 137.539 166.551 137.938 166.707 138.438C166.871 138.93 167.129 139.371 167.48 139.762C167.832 140.145 168.102 140.426 168.289 140.605C168.484 140.777 168.719 140.965 168.992 141.168C169.266 141.371 169.574 141.613 169.918 141.895C170.262 142.176 170.684 142.391 171.184 142.539C171.691 142.68 172.293 142.863 172.988 143.09C173.691 143.309 174.148 143.453 174.359 143.523C174.57 143.594 174.676 143.715 174.676 143.887C174.676 144.059 174.684 144.152 174.699 144.168C174.723 144.184 174.734 144.371 174.734 144.73C174.734 145.09 174.777 145.332 174.863 145.457C174.957 145.574 175.125 145.641 175.367 145.656C175.617 145.664 175.852 145.656 176.07 145.633L176.059 148C175.801 148 175.402 148 174.863 148C174.332 148 173.848 147.711 173.41 147.133C172.98 146.555 172.68 146.258 172.508 146.242C172.336 146.219 172.07 146.219 171.711 146.242C171.352 146.258 170.758 146.258 169.93 146.242C169.109 146.219 168.617 146.207 168.453 146.207C168.297 146.207 168.098 146.359 167.855 146.664C167.613 146.961 167.395 147.16 167.199 147.262C167.004 147.355 166.801 147.402 166.59 147.402C166.387 147.402 165.934 147.332 165.23 147.191C164.535 147.043 164.188 146.922 164.188 146.828C164.188 146.734 164.117 146.633 163.977 146.523C163.844 146.414 163.738 146.25 163.66 146.031C163.59 145.805 163.574 145.562 163.613 145.305C163.66 145.039 163.727 144.758 163.812 144.461C163.898 144.164 164.012 143.945 164.152 143.805C164.301 143.656 164.461 143.582 164.633 143.582C164.805 143.582 165.312 143.633 166.156 143.734C167.008 143.836 167.547 143.887 167.773 143.887C168.008 143.887 168.25 143.867 168.5 143.828C168.758 143.789 168.469 143.355 167.633 142.527C166.805 141.699 166.309 141.125 166.145 140.805C165.98 140.477 165.836 140.148 165.711 139.82C165.586 139.484 165.5 139.168 165.453 138.871C165.414 138.566 165.383 138.312 165.359 138.109C165.344 137.906 165.344 137.625 165.359 137.266C165.375 136.898 165.418 136.52 165.488 136.129C165.559 135.73 165.621 135.449 165.676 135.285C165.73 135.121 165.801 134.914 165.887 134.664C165.98 134.414 166.164 134.031 166.438 133.516C166.719 132.992 167.102 132.523 167.586 132.109C168.078 131.695 168.414 131.398 168.594 131.219C168.773 131.039 168.93 130.949 169.062 130.949ZM179.41 144.789C179.809 144.602 180.02 144.504 180.043 144.496C180.074 144.488 180.238 144.422 180.535 144.297C180.84 144.164 181.383 143.938 182.164 143.617C182.945 143.297 183.332 143.109 183.324 143.055C183.316 143 183.305 142.977 183.289 142.984C183.273 142.984 183.223 142.941 183.137 142.855C183.051 142.762 182.758 142.605 182.258 142.387C181.766 142.168 181.379 142.039 181.098 142C180.824 141.961 180.512 141.961 180.16 142C179.809 142.031 179.5 142.164 179.234 142.398C178.977 142.625 178.855 142.867 178.871 143.125C178.895 143.375 178.953 143.684 179.047 144.051C179.148 144.41 179.27 144.656 179.41 144.789ZM185.234 144.801C185.539 145.996 185.973 146.77 186.535 147.121C187.098 147.48 187.637 147.707 188.152 147.801C188.676 147.895 189.207 147.965 189.746 148.012L190.402 148V145.645L189.828 145.668C188.492 145.723 187.734 145.438 187.555 144.812H187.543V144.801H185.234ZM185.234 144.801H185.023C184.898 144.809 184.602 144.906 184.133 145.094C183.664 145.273 182.559 145.691 180.816 146.348C180.934 146.566 180.922 146.738 180.781 146.863C180.648 146.98 180.273 147.066 179.656 147.121C179.047 147.176 178.672 147.168 178.531 147.098C177.391 147.66 176.406 147.961 175.578 148V145.656C176.062 145.648 176.566 145.461 177.09 145.094C177.02 144.766 176.973 144.531 176.949 144.391C176.926 144.25 176.922 144.062 176.938 143.828C176.961 143.594 176.973 143.367 176.973 143.148C176.98 142.922 176.984 142.684 176.984 142.434C176.992 142.184 177.098 141.824 177.301 141.355C177.512 140.887 177.781 140.52 178.109 140.254C178.445 139.988 178.996 139.781 179.762 139.633C180.535 139.484 181.32 139.613 182.117 140.02C182.914 140.418 183.832 140.848 184.871 141.309C185.91 141.762 186.516 141.984 186.688 141.977C186.867 141.961 186.961 141.953 186.969 141.953C186.984 141.945 187.086 141.918 187.273 141.871C187.461 141.824 187.609 141.785 187.719 141.754C187.828 141.715 187.934 141.691 188.035 141.684C188.137 141.676 188.375 141.656 188.75 141.625C189.125 141.594 189.43 141.707 189.664 141.965C189.906 142.215 190.051 142.402 190.098 142.527C190.152 142.652 190.145 142.918 190.074 143.324C190.012 143.723 189.902 144.082 189.746 144.402C189.59 144.723 189.469 144.895 189.383 144.918C189.297 144.941 189.238 144.957 189.207 144.965C189.176 144.973 189.141 144.977 189.102 144.977C189.07 144.969 189.012 144.973 188.926 144.988C188.848 144.996 188.75 144.992 188.633 144.977C188.523 144.961 188.465 144.949 188.457 144.941C188.457 144.926 188.43 144.914 188.375 144.906C188.32 144.898 188.289 144.887 188.281 144.871C188.273 144.855 188.254 144.84 188.223 144.824C188.199 144.824 187.977 144.82 187.555 144.812C187.547 144.805 187.543 144.797 187.543 144.789C187.309 144.797 186.539 144.801 185.234 144.801ZM196.93 148C196.258 148.008 195.754 148.004 195.418 147.988C195.082 147.965 194.852 147.84 194.727 147.613C194.602 147.379 194.438 147.098 194.234 146.77C194.031 146.441 193.898 146.27 193.836 146.254C193.781 146.23 193.715 146.254 193.637 146.324C193.559 146.395 193.414 146.551 193.203 146.793C193 147.035 192.781 147.258 192.547 147.461C192.32 147.664 192.082 147.793 191.832 147.848C191.59 147.895 191.391 147.93 191.234 147.953C191.086 147.969 190.82 147.988 190.438 148.012V145.645C190.789 145.652 191.062 145.648 191.258 145.633C191.461 145.609 191.699 145.559 191.973 145.48C192.246 145.402 192.465 145.297 192.629 145.164C192.793 145.031 192.926 144.891 193.027 144.742C193.137 144.586 193.242 144.352 193.344 144.039C193.445 143.719 193.496 143.512 193.496 143.418C193.496 143.316 193.492 143.199 193.484 143.066C193.484 142.926 193.469 142.77 193.438 142.598C193.414 142.426 193.336 141.742 193.203 140.547C193.078 139.344 192.828 138.117 192.453 136.867C192.086 135.617 191.816 134.863 191.645 134.605C191.473 134.34 191.336 134.078 191.234 133.82C191.141 133.555 191.098 133.371 191.105 133.27C191.113 133.16 191.145 133.023 191.199 132.859C191.254 132.695 191.332 132.531 191.434 132.367C191.535 132.195 191.621 132.047 191.691 131.922C191.762 131.797 191.852 131.734 191.961 131.734C192.07 131.734 192.262 131.852 192.535 132.086C192.809 132.32 193.012 132.68 193.145 133.164C193.277 133.641 193.387 134.008 193.473 134.266C193.566 134.516 193.762 135.906 194.059 138.438C194.363 140.961 194.543 142.438 194.598 142.867C194.652 143.289 194.691 143.625 194.715 143.875C194.738 144.125 194.801 144.367 194.902 144.602C195.012 144.828 195.172 145.027 195.383 145.199C195.602 145.371 195.789 145.496 195.945 145.574C196.109 145.645 196.438 145.672 196.93 145.656V148ZM197.445 131.98C197.875 131.738 198.195 131.652 198.406 131.723C198.625 131.785 198.836 131.949 199.039 132.215C199.25 132.48 199.449 132.898 199.637 133.469C199.824 134.031 199.945 134.566 200 135.074C200.055 135.574 200.141 136.887 200.258 139.012C200.375 141.137 200.477 142.57 200.562 143.312C200.656 144.047 200.703 144.637 200.703 145.082C200.711 145.52 200.641 145.914 200.492 146.266C200.352 146.617 200.051 146.949 199.59 147.262C199.129 147.566 198.613 147.77 198.043 147.871C197.48 147.973 196.965 148.016 196.496 148V145.656C196.746 145.656 196.934 145.66 197.059 145.668C197.184 145.668 197.465 145.648 197.902 145.609C198.348 145.57 198.637 145.426 198.77 145.176C198.902 144.926 198.953 144.574 198.922 144.121C198.898 143.66 198.867 143.129 198.828 142.527C198.789 141.918 198.762 140.852 198.746 139.328C198.73 137.805 198.645 136.75 198.488 136.164C198.332 135.578 198.039 135.16 197.609 134.91C197.188 134.66 196.949 134.383 196.895 134.078C196.84 133.773 196.812 133.406 196.812 132.977C196.812 132.547 197.023 132.215 197.445 131.98Z" fill="white"/>
</g>
<defs>
<filter id="filter0_d_2674_2851" x="21.8369" y="88.6597" width="185.138" height="35.2676" filterUnits="userSpaceOnUse" color-interpolation-filters="sRGB">
<feFlood flood-opacity="0" result="BackgroundImageFix"/>
<feColorMatrix in="SourceAlpha" type="matrix" values="0 0 0 0 0 0 0 0 0 0 0 0 0 0 0 0 0 0 127 0" result="hardAlpha"/>
<feOffset dy="4"/>
<feGaussianBlur stdDeviation="2"/>
<feComposite in2="hardAlpha" operator="out"/>
<feColorMatrix type="matrix" values="0 0 0 0 0 0 0 0 0 0 0 0 0 0 0 0 0 0 0.1 0"/>
<feBlend mode="normal" in2="BackgroundImageFix" result="effect1_dropShadow_2674_2851"/>
<feBlend mode="normal" in="SourceGraphic" in2="effect1_dropShadow_2674_2851" result="shape"/>
</filter>
<filter id="filter1_d_2674_2851" x="27.4844" y="130.949" width="177.23" height="36.4766" filterUnits="userSpaceOnUse" color-interpolation-filters="sRGB">
<feFlood flood-opacity="0" result="BackgroundImageFix"/>
<feColorMatrix in="SourceAlpha" type="matrix" values="0 0 0 0 0 0 0 0 0 0 0 0 0 0 0 0 0 0 127 0" result="hardAlpha"/>
<feOffset dy="4"/>
<feGaussianBlur stdDeviation="2"/>
<feComposite in2="hardAlpha" operator="out"/>
<feColorMatrix type="matrix" values="0 0 0 0 0 0 0 0 0 0 0 0 0 0 0 0 0 0 0.1 0"/>
<feBlend mode="normal" in2="BackgroundImageFix" result="effect1_dropShadow_2674_2851"/>
<feBlend mode="normal" in="SourceGraphic" in2="effect1_dropShadow_2674_2851" result="shape"/>
</filter>
</defs>
</svg>
