<svg width="239" height="127" viewBox="0 0 239 127" fill="none" xmlns="http://www.w3.org/2000/svg">
<path d="M184.323 2.54576L184.326 2.54573L184.328 2.54573L184.329 2.54573L184.329 2.54574L184.354 2.54603C184.38 2.54642 184.422 2.54736 184.481 2.54953C184.6 2.55389 184.784 2.56324 185.027 2.58327C185.514 2.62334 186.237 2.7061 187.146 2.87689C188.965 3.21858 191.52 3.91144 194.412 5.31562C200.172 8.11193 207.353 13.7696 212.707 25.3011C213.075 26.0949 213.436 26.8723 213.789 27.634C222.087 45.5311 226.36 54.7473 236.902 64.0398C235.824 65.3149 234.793 66.4823 233.781 67.6283C231.489 70.2246 229.293 72.7111 226.858 76.0916C222.991 81.4601 218.42 89.184 211.406 103.625L211.39 103.658L211.376 103.691C207.337 113.142 203.686 118.451 199.512 121.451C195.382 124.418 190.521 125.279 183.624 125.279H55.3758C48.4782 125.279 43.6176 124.418 39.4874 121.451C35.3132 118.451 31.6626 113.142 27.6238 103.691L27.6099 103.659L27.5945 103.627C20.5801 89.1428 16.0093 81.3963 12.1414 76.0267C9.67398 72.6013 7.4557 70.1064 5.13339 67.4944C4.15162 66.3902 3.15125 65.2651 2.10562 64.0399C12.886 54.6104 17.2071 45.2579 25.7597 26.7468C25.9928 26.2422 26.2291 25.7307 26.4688 25.2123L26.4932 25.1594L26.5135 25.1047C31.0285 12.937 38.1694 7.33228 44.0793 4.72512C47.0554 3.41219 49.7523 2.84571 51.6965 2.60739C52.6678 2.48833 53.4479 2.45157 53.9766 2.444C54.2408 2.44022 54.4418 2.44372 54.5719 2.44783C54.637 2.44989 54.6843 2.45209 54.7129 2.4536L54.7416 2.45522L54.7417 2.45524L54.7432 2.45533L54.7444 2.45542L54.7453 2.45548L54.7957 2.45917L54.8499 2.4592L184.323 2.54576Z" fill="#129D59" stroke="white" stroke-width="3"/>
<g filter="url(#filter0_d_2680_2851)">
<path d="M62.4033 46.1694C62.1637 46.6561 61.8942 47.0117 61.5947 47.2363C61.2952 47.4609 61.0295 47.5994 60.7974 47.6519C60.5653 47.6968 60.2583 47.7155 59.8765 47.708C59.4946 47.7005 59.1615 47.4085 58.877 46.832C58.7347 47.0641 58.5438 47.2476 58.3042 47.3823C58.0721 47.5096 57.6566 47.4684 57.0576 47.2588C57.1774 48.6289 56.5373 49.999 55.1372 51.3691C53.7371 52.7467 52.6403 53.7575 51.8467 54.4014C51.0456 55.0452 50.0461 55.6854 48.8481 56.3218C47.6502 56.9582 46.8903 57.34 46.5684 57.4673C46.2389 57.6021 45.64 57.8005 44.7715 58.0625C43.8955 58.3245 43.2367 58.4967 42.7949 58.5791C42.3457 58.6689 41.9489 58.7288 41.6045 58.7588C41.2601 58.7887 40.7922 58.8224 40.2007 58.8599C39.6017 58.9048 38.752 58.8898 37.6514 58.8149C36.5433 58.7476 35.4352 58.4743 34.3271 57.9951C33.2116 57.516 32.403 57.1341 31.9014 56.8496C31.3923 56.5651 30.8981 56.2507 30.4189 55.9062C29.9323 55.5618 29.4232 55.1463 28.8916 54.6597C28.3525 54.173 27.8958 53.6864 27.5215 53.1997C27.1471 52.7131 26.8177 52.2039 26.5332 51.6724C26.2412 51.1483 26.054 50.7889 25.9717 50.5942C25.8818 50.4071 25.8481 50.1937 25.8706 49.9541C25.8856 49.722 26.0129 49.5798 26.2524 49.5273C26.4845 49.4749 26.8289 49.752 27.2856 50.3584C27.7349 50.9723 28.1204 51.4814 28.4424 51.8857C28.7568 52.29 29.0638 52.627 29.3633 52.8965C29.6553 53.1735 30.0895 53.5104 30.666 53.9072C31.2425 54.3115 31.8527 54.7121 32.4966 55.1089C33.1405 55.5132 33.8442 55.8875 34.6079 56.2319C35.3716 56.5838 36.1278 56.8197 36.8765 56.9395C37.6252 57.0592 38.2503 57.1117 38.752 57.0967C39.2536 57.0892 39.86 57.0555 40.5713 56.9956C41.2826 56.9432 42.1061 56.8234 43.042 56.6362C43.9704 56.4491 44.7116 56.2581 45.2656 56.0635C45.8122 55.8688 46.7031 55.4271 47.9385 54.7383C49.1663 54.057 50.1958 53.3869 51.0269 52.728C51.8579 52.0767 52.5692 51.4552 53.1606 50.8638C53.7521 50.2723 54.2275 49.7594 54.5869 49.3252C54.9463 48.891 55.1784 48.4679 55.2832 48.0562C55.3955 47.6444 55.403 47.2401 55.3057 46.8433C55.2158 46.4465 55.0549 45.9785 54.8228 45.4395C54.5981 44.9004 54.4447 44.3726 54.3623 43.856C54.2799 43.3319 54.3136 42.965 54.4634 42.7554C54.6131 42.5457 54.8452 42.4447 55.1597 42.4521C55.4741 42.4521 55.7437 42.819 55.9683 43.5527C56.2004 44.279 56.3688 44.7432 56.4736 44.9453C56.5859 45.14 56.7394 45.2785 56.9341 45.3608C57.1362 45.4357 57.2935 45.4731 57.4058 45.4731C57.5181 45.4731 57.6453 45.432 57.7876 45.3496C57.9299 45.2673 58.0534 45.11 58.1582 44.8779C58.263 44.6458 58.3791 44.3501 58.5063 43.9907C58.6336 43.6313 58.8433 43.4255 59.1353 43.373C59.4123 43.4928 59.5658 43.6875 59.5957 43.957C59.6257 44.2191 59.6294 44.4362 59.6069 44.6084C59.5845 44.7731 59.6968 45.009 59.9438 45.3159C60.1909 45.6154 60.4268 45.6715 60.6514 45.4844C60.876 45.2972 61.0145 45.1287 61.0669 44.979C61.1268 44.8218 61.1605 44.6309 61.168 44.4062C61.1755 44.1742 61.0632 44.0244 60.8311 43.957C60.6064 43.8896 60.4941 43.5378 60.4941 42.9014C60.5016 42.265 60.6289 41.8083 60.876 41.5312C61.1305 41.2542 61.3776 41.1606 61.6172 41.2505C61.8643 41.3328 62.0664 41.5088 62.2236 41.7783C62.3883 42.0404 62.5269 42.3548 62.6392 42.7217C62.759 43.0885 62.8263 43.4629 62.8413 43.8447C62.8563 44.2191 62.8451 44.5785 62.8076 44.9229C62.7777 45.2673 62.6429 45.6828 62.4033 46.1694ZM70.1187 32.895C70.6427 32.7303 70.9572 32.6704 71.062 32.7153C71.1743 32.7603 71.2342 32.8089 71.2417 32.8613C71.2492 32.9062 71.2529 33.0373 71.2529 33.2544C71.2529 33.464 71.2155 33.6886 71.1406 33.9282C71.0658 34.1678 70.9946 34.3213 70.9272 34.3887C70.8599 34.4486 70.5192 34.6545 69.9053 35.0063C69.2913 35.3582 68.8534 35.8075 68.5913 36.354C68.3368 36.8931 68.1683 37.5369 68.0859 38.2856C68.0036 39.0343 68.0148 39.6782 68.1196 40.2173C68.2244 40.7489 68.3779 41.2168 68.5801 41.6211C68.7897 42.0254 69.1416 42.5083 69.6357 43.0698C70.1299 43.6239 70.5454 43.9757 70.8823 44.1255C71.2267 44.2752 71.6647 44.4924 72.1963 44.7769C72.7279 45.0539 73.2482 45.1924 73.7573 45.1924C74.2664 45.1924 74.5809 45.1924 74.7007 45.1924C74.8205 45.1924 74.9964 45.271 75.2285 45.4282C75.4681 45.578 75.5991 45.694 75.6216 45.7764C75.644 45.8587 75.6553 46.0534 75.6553 46.3604C75.6553 46.6673 75.5954 46.9855 75.4756 47.3149C75.3558 47.6444 75.2472 47.8315 75.1499 47.8765C75.0601 47.9214 74.4012 47.8877 73.1733 47.7754C71.9455 47.6556 70.9272 47.5957 70.1187 47.5957C69.3175 47.5957 68.917 47.6668 68.917 47.8091C68.917 47.9513 68.8758 48.1385 68.7935 48.3706C68.7186 48.6027 68.625 48.7412 68.5127 48.7861C68.4004 48.8385 68.2843 48.9097 68.1646 48.9995C68.0522 49.0968 67.91 49.1455 67.7378 49.1455C67.5731 49.1455 67.4009 49.1455 67.2212 49.1455C67.049 49.1455 66.8019 49.0519 66.48 48.8647C66.1655 48.6776 65.9521 48.554 65.8398 48.4941C65.7275 48.4342 65.6003 48.3219 65.458 48.1572C65.3158 48 65.2297 47.7754 65.1997 47.4834C65.1698 47.1839 65.1548 46.9518 65.1548 46.7871C65.1548 46.6224 65.1847 46.2705 65.2446 45.7314C65.3045 45.1849 65.4692 44.9116 65.7388 44.9116C66.0083 44.9116 66.2853 44.9004 66.5698 44.8779C66.8543 44.8555 67.0415 44.8704 67.1313 44.9229C67.2287 44.9678 67.3597 44.9902 67.5244 44.9902C67.6966 44.9902 67.8538 44.9902 67.9961 44.9902C68.1383 44.9902 68.2656 44.979 68.3779 44.9565C68.4977 44.9266 68.5576 44.8555 68.5576 44.7432C68.5576 44.6234 68.4041 44.3688 68.0972 43.9795C67.7902 43.5827 67.5544 43.2083 67.3896 42.8564C67.2324 42.4971 67.1089 42.1377 67.019 41.7783C66.9367 41.4189 66.888 40.8499 66.873 40.0713C66.8656 39.2926 66.9779 38.4391 67.21 37.5107C67.4495 36.5749 67.6854 35.8748 67.9175 35.4106C68.1571 34.9465 68.4528 34.4523 68.8047 33.9282C69.1641 33.4041 69.6021 33.0597 70.1187 32.895ZM78.4966 32.0415C78.6313 31.9966 78.8148 32.0452 79.0469 32.1875C79.2865 32.3298 79.4362 32.4495 79.4961 32.5469C79.5635 32.6367 79.6271 32.7303 79.687 32.8276C79.7544 32.925 79.8031 33.056 79.833 33.2207C79.863 33.3854 79.8892 33.479 79.9116 33.5015C79.9416 33.5239 80.0352 33.7448 80.1924 34.1641C80.3496 34.5758 80.4919 35.1711 80.6191 35.9497C80.7539 36.7284 80.8325 37.2786 80.855 37.6006C80.8849 37.915 80.9111 38.1846 80.9336 38.4092C80.9635 38.6263 80.9897 38.8958 81.0122 39.2178C81.0422 39.5322 81.0422 40.12 81.0122 40.981C80.9897 41.8345 80.986 42.3848 81.001 42.6318C81.0234 42.8789 81.0422 43.1222 81.0571 43.3618C81.0796 43.5939 81.1882 43.8634 81.3828 44.1704C81.5775 44.4774 81.7684 44.7357 81.9556 44.9453C82.1427 45.1549 82.5732 45.3459 83.2471 45.5181C83.9284 45.6903 84.4263 45.7764 84.7407 45.7764L84.752 48.0112C84.5423 48.0112 84.1942 48.0112 83.7075 48.0112C83.2209 48.0112 82.6182 47.7829 81.8994 47.3262C81.1807 46.862 80.7651 46.6299 80.6528 46.6299C80.548 46.6299 80.3384 46.7422 80.0239 46.9668C79.717 47.1839 79.4961 47.3037 79.3613 47.3262C79.234 47.3411 79.0581 47.3486 78.8335 47.3486C78.6164 47.3486 78.4741 47.27 78.4067 47.1128C78.3394 46.9556 78.3169 46.6673 78.3394 46.248C78.3693 45.8288 78.4217 45.4993 78.4966 45.2598C78.5789 45.0202 78.8035 44.672 79.1704 44.2153C79.5373 43.7511 79.7207 43.4891 79.7207 43.4292C79.7207 43.3693 79.7057 43.2795 79.6758 43.1597C79.6533 43.0399 79.6683 42.7741 79.7207 42.3623C79.7731 41.943 79.7469 41.1831 79.6421 40.0825C79.5373 38.9819 79.4774 38.3643 79.4624 38.2295C79.4474 38.0947 79.3538 37.769 79.1816 37.2524C79.0169 36.7284 78.841 36.3053 78.6538 35.9834C78.4741 35.6615 78.2383 35.3695 77.9463 35.1074C77.6618 34.8379 77.5195 34.5871 77.5195 34.355C77.5195 34.1229 77.5195 33.8908 77.5195 33.6587C77.5195 33.4191 77.6506 33.1009 77.9126 32.7041C78.1746 32.2998 78.3693 32.0789 78.4966 32.0415ZM94.2754 40.79C94.2979 40.79 94.4401 40.79 94.7021 40.79C94.9717 40.79 95.2412 40.981 95.5107 41.3628C95.7803 41.7446 95.9824 42.1489 96.1172 42.5757C96.252 43.0024 96.3193 43.257 96.3193 43.3394C96.3193 43.4217 96.3193 43.6388 96.3193 43.9907C96.3193 44.3426 96.2819 44.7207 96.207 45.125C96.3792 45.3047 96.6188 45.4544 96.9258 45.5742C97.2402 45.6865 97.6857 45.7464 98.2622 45.7539V48C97.6108 48 97.0194 47.8989 96.4878 47.6968C95.9637 47.4946 95.5295 47.27 95.1851 47.0229C95.1177 47.0604 94.8781 47.2026 94.4663 47.4497C94.062 47.6893 93.8 47.8315 93.6802 47.8765C93.5679 47.9214 93.4069 47.9214 93.1973 47.8765C92.9951 47.8315 92.778 47.723 92.5459 47.5508C92.3138 47.3711 91.9881 47.1353 91.5688 46.8433C91.2469 47.1427 90.9025 47.3936 90.5356 47.5957C90.1688 47.7904 89.873 47.9027 89.6484 47.9326C89.4313 47.9626 89.042 47.9139 88.4805 47.7866C87.9264 47.6593 87.5334 47.4834 87.3013 47.2588C87.0692 47.0267 86.9119 46.8582 86.8296 46.7534C86.0809 47.5096 85.3659 47.9214 84.6846 47.9888L83.9771 48L83.9883 45.7427C84.4749 45.7651 84.8605 45.7052 85.145 45.563C85.437 45.4132 85.6991 45.2036 85.9312 44.9341C86.1632 44.6646 86.3242 44.4062 86.4141 44.1592C86.5114 43.9121 86.6349 43.71 86.7847 43.5527C86.9344 43.388 87.0317 43.3057 87.0767 43.3057C87.1291 43.3057 87.2301 43.3057 87.3799 43.3057C87.5371 43.3057 87.7131 43.4966 87.9077 43.8784C88.1024 44.2528 88.2783 44.4998 88.4355 44.6196C88.5928 44.7394 88.8324 44.8667 89.1543 45.0015C89.4837 45.1362 89.7308 45.1961 89.8955 45.1812C90.0602 45.1662 90.2474 45.0464 90.457 44.8218C90.6667 44.5972 90.7902 44.395 90.8276 44.2153C90.8651 44.0356 90.9811 43.811 91.1758 43.5415C91.3779 43.272 91.5277 43.1222 91.625 43.0923C91.7298 43.0623 91.8346 43.0623 91.9395 43.0923C92.0518 43.1222 92.1266 43.3319 92.1641 43.7212C92.2015 44.1105 92.3812 44.4025 92.7031 44.5972C93.0326 44.7843 93.3058 44.9191 93.5229 45.0015C93.7401 45.0763 93.9609 45.0426 94.1855 44.9004C94.4176 44.7507 94.5299 44.6234 94.5225 44.5186C94.5225 44.4137 94.4813 44.234 94.3989 43.9795C94.3166 43.7174 94.1556 43.5527 93.916 43.4854C93.6839 43.418 93.5417 43.2907 93.4893 43.1035C93.4443 42.9089 93.4219 42.6131 93.4219 42.2163C93.4219 41.8195 93.5566 41.4826 93.8262 41.2056C94.1032 40.9285 94.2529 40.79 94.2754 40.79ZM98.8799 32.6479C99.2917 32.4159 99.5986 32.3335 99.8008 32.4009C100.01 32.4608 100.213 32.618 100.407 32.8726C100.609 33.1271 100.8 33.5277 100.98 34.0742C101.16 34.6133 101.276 35.1261 101.328 35.6128C101.381 36.092 101.463 37.3498 101.575 39.3862C101.688 41.4227 101.785 42.7965 101.867 43.5078C101.957 44.2116 102.002 44.7769 102.002 45.2036C102.009 45.6229 101.942 46.001 101.8 46.3379C101.665 46.6748 101.377 46.993 100.935 47.2925C100.493 47.5845 99.9992 47.7791 99.4526 47.8765C98.9136 47.9738 98.4194 48.015 97.9702 48V45.7539C98.2098 45.7539 98.3895 45.7576 98.5093 45.7651C98.6291 45.7651 98.8986 45.7464 99.3179 45.709C99.7446 45.6715 100.022 45.533 100.149 45.2935C100.276 45.0539 100.325 44.717 100.295 44.2827C100.272 43.841 100.243 43.3319 100.205 42.7554C100.168 42.1714 100.141 41.1494 100.126 39.6895C100.111 38.2295 100.029 37.2188 99.8794 36.6572C99.7297 36.0957 99.4489 35.6951 99.0371 35.4556C98.6328 35.216 98.4045 34.9502 98.3521 34.6582C98.2996 34.3662 98.2734 34.0143 98.2734 33.6025C98.2734 33.1908 98.4756 32.8726 98.8799 32.6479ZM104.192 32.1875C104.439 32.1875 104.78 32.3372 105.214 32.6367C105.648 32.9362 105.865 33.3442 105.865 33.8608C105.865 34.37 105.865 34.7106 105.865 34.8828C105.865 35.0475 105.876 35.2347 105.899 35.4443C105.929 35.654 105.944 35.9385 105.944 36.2979C105.944 36.6572 105.944 36.9118 105.944 37.0615C105.944 37.2113 105.948 37.361 105.955 37.5107C105.97 37.653 105.981 37.8027 105.989 37.96C106.004 38.1172 106.015 38.4429 106.022 38.937C106.03 39.4237 106.03 40.1125 106.022 41.0034C106.015 41.8869 106.022 42.4821 106.045 42.7891C106.075 43.0885 106.09 43.3244 106.09 43.4966C106.09 43.6688 106.124 43.9271 106.191 44.2715C106.266 44.6159 106.449 45.0239 106.741 45.4956C107.033 45.9598 107.19 46.278 107.213 46.4502C107.235 46.6149 107.247 46.7534 107.247 46.8657C107.247 46.978 107.213 47.1951 107.146 47.5171C107.078 47.839 106.883 48 106.562 48C106.247 48 105.847 47.884 105.36 47.6519C104.873 47.4198 104.63 47.2214 104.63 47.0566C104.63 46.8919 104.63 46.716 104.63 46.5288C104.63 46.3416 104.63 46.1732 104.63 46.0234C104.63 45.8662 104.679 45.6453 104.776 45.3608C104.873 45.0763 104.903 44.4212 104.866 43.3955C104.836 42.3698 104.817 41.6772 104.81 41.3179C104.81 40.951 104.81 40.6628 104.81 40.4531C104.817 40.2435 104.813 40.0226 104.798 39.7905C104.783 39.5584 104.776 39.0269 104.776 38.1958C104.776 37.3647 104.742 36.7246 104.675 36.2754C104.615 35.8187 104.484 35.5229 104.282 35.3882C104.08 35.2534 103.87 35.0138 103.653 34.6694C103.436 34.325 103.327 34.1004 103.327 33.9956C103.327 33.8833 103.41 33.5539 103.574 33.0073C103.739 32.4608 103.945 32.1875 104.192 32.1875ZM119.566 31.6597C119.701 31.6597 119.81 31.7196 119.892 31.8394C119.974 31.9517 119.997 32.0527 119.959 32.1426C119.922 32.2249 119.888 32.3784 119.858 32.603C119.836 32.8201 119.742 33.026 119.578 33.2207C119.42 33.4154 119.308 33.5127 119.241 33.5127C119.181 33.5127 118.949 33.6849 118.544 34.0293C118.14 34.3737 117.882 34.6095 117.77 34.7368C117.657 34.8641 117.545 35.0213 117.433 35.2085C117.328 35.3882 117.234 35.6203 117.152 35.9048C117.069 36.1893 117.017 36.4888 116.995 36.8032C116.98 37.1102 116.991 37.4059 117.028 37.6904C117.066 37.9749 117.159 38.3568 117.309 38.8359C117.466 39.3076 117.713 39.7306 118.05 40.105C118.387 40.4718 118.646 40.7414 118.825 40.9136C119.012 41.0783 119.237 41.258 119.499 41.4526C119.761 41.6473 120.057 41.8794 120.386 42.1489C120.716 42.4185 121.12 42.6243 121.599 42.7666C122.086 42.9014 122.662 43.0773 123.329 43.2944C124.002 43.5041 124.44 43.6426 124.643 43.71C124.845 43.7773 124.946 43.8934 124.946 44.0581C124.946 44.2228 124.953 44.3127 124.968 44.3276C124.991 44.3426 125.002 44.5223 125.002 44.8667C125.002 45.2111 125.043 45.4432 125.125 45.563C125.215 45.6753 125.376 45.7389 125.608 45.7539C125.848 45.7614 126.073 45.7539 126.282 45.7314L126.271 48C126.024 48 125.642 48 125.125 48C124.616 48 124.152 47.723 123.733 47.1689C123.321 46.6149 123.033 46.3304 122.868 46.3154C122.703 46.293 122.449 46.293 122.104 46.3154C121.76 46.3304 121.191 46.3304 120.397 46.3154C119.611 46.293 119.14 46.2817 118.982 46.2817C118.833 46.2817 118.642 46.4277 118.41 46.7197C118.178 47.0042 117.968 47.1951 117.781 47.2925C117.594 47.3823 117.399 47.4272 117.197 47.4272C117.002 47.4272 116.568 47.3599 115.894 47.2251C115.228 47.0828 114.895 46.9668 114.895 46.877C114.895 46.7871 114.827 46.6898 114.692 46.585C114.565 46.4801 114.464 46.3229 114.389 46.1133C114.322 45.8962 114.307 45.6641 114.344 45.417C114.389 45.1624 114.453 44.8929 114.535 44.6084C114.618 44.3239 114.726 44.1143 114.861 43.9795C115.003 43.8372 115.157 43.7661 115.321 43.7661C115.486 43.7661 115.973 43.8148 116.781 43.9121C117.597 44.0094 118.114 44.0581 118.331 44.0581C118.556 44.0581 118.788 44.0394 119.027 44.002C119.274 43.9645 118.997 43.549 118.196 42.7554C117.403 41.9618 116.927 41.4115 116.77 41.1045C116.613 40.79 116.474 40.4756 116.354 40.1611C116.235 39.8392 116.152 39.536 116.107 39.2515C116.07 38.9595 116.04 38.7161 116.018 38.5215C116.003 38.3268 116.003 38.0573 116.018 37.7129C116.033 37.361 116.074 36.9979 116.141 36.6235C116.208 36.2417 116.268 35.9722 116.321 35.8149C116.373 35.6577 116.441 35.4593 116.523 35.2197C116.613 34.9801 116.789 34.6133 117.051 34.1191C117.32 33.6175 117.687 33.1683 118.151 32.7715C118.623 32.3747 118.945 32.0902 119.117 31.918C119.289 31.7458 119.439 31.6597 119.566 31.6597ZM130.741 42.1826C131.04 42.1676 131.34 42.2051 131.639 42.2949C131.946 42.3848 132.231 42.542 132.493 42.7666C132.755 42.9837 132.968 43.2158 133.133 43.4629C133.298 43.71 133.447 44.0132 133.582 44.3726C133.717 44.7319 133.803 45.0913 133.84 45.4507C134.192 45.6678 134.567 45.7689 134.963 45.7539L135.469 45.7427V48H135.199H134.683C134.106 47.985 133.59 47.8315 133.133 47.5396C132.489 48.1011 131.924 48.4118 131.437 48.4717C130.958 48.5391 130.557 48.5503 130.235 48.5054C129.921 48.4679 129.633 48.3556 129.371 48.1685C129.116 47.9813 128.888 47.7791 128.686 47.562C127.959 47.884 127.151 48.0299 126.26 48L125.867 48.0112L125.766 48L125.777 45.7651C125.919 45.7651 126.099 45.7689 126.316 45.7764C126.533 45.7764 126.713 45.7801 126.855 45.7876C127.005 45.7951 127.237 45.7726 127.551 45.7202C127.866 45.6678 128.064 45.4657 128.146 45.1138C128.229 44.7544 128.367 44.3426 128.562 43.8784C128.757 43.4067 129.094 43.0099 129.573 42.688C130.059 42.366 130.449 42.1976 130.741 42.1826ZM130.539 44.3838C130.389 44.3838 130.265 44.4062 130.168 44.4512C130.078 44.4886 130.007 44.556 129.955 44.6533C129.902 44.7432 129.872 44.8742 129.865 45.0464C129.857 45.2186 129.887 45.4132 129.955 45.6304C130.029 45.8475 130.213 46.0197 130.505 46.147C130.797 46.2668 131.051 46.3005 131.269 46.248C131.486 46.1956 131.628 46.1395 131.695 46.0796C131.763 46.0122 131.815 45.8999 131.853 45.7427C131.68 45.1737 131.456 44.8068 131.179 44.6421C130.902 44.4699 130.688 44.3838 130.539 44.3838ZM147.755 35.478C147.882 35.478 148.088 35.5454 148.373 35.6802C148.665 35.8149 149.02 36.1369 149.439 36.646C149.859 37.1551 150.128 37.6305 150.248 38.0723C150.375 38.5065 150.431 38.9482 150.417 39.3975C150.402 39.8392 150.267 40.3558 150.012 40.9473C149.758 41.5387 149.608 41.8345 149.563 41.8345C149.526 41.8345 149.421 41.9281 149.249 42.1152C149.084 42.2949 148.878 42.4072 148.631 42.4521C148.384 42.4971 148.238 42.5195 148.193 42.5195C148.155 42.5195 147.994 42.5195 147.71 42.5195C147.433 42.5195 147.089 42.3361 146.677 41.9692C146.272 41.6024 146.048 41.4189 146.003 41.4189C145.965 41.4189 145.906 41.4526 145.823 41.52C145.741 41.5874 145.595 41.8195 145.385 42.2163C145.183 42.6056 145.026 42.8864 144.914 43.0586C144.801 43.2233 144.528 43.3843 144.094 43.5415C143.667 43.6912 143.124 43.6912 142.465 43.5415C141.806 43.3843 141.35 43.2121 141.095 43.0249C140.841 42.8377 140.567 42.396 140.275 41.6997C139.983 41.0034 139.796 40.644 139.714 40.6216C139.632 40.5991 139.34 40.6815 138.838 40.8687C138.344 41.0558 138.097 41.4938 138.097 42.1826C138.097 42.8714 138.115 43.3843 138.153 43.7212C138.198 44.0581 138.333 44.3351 138.557 44.5522C138.789 44.7619 139.059 44.9603 139.366 45.1475C139.68 45.3346 139.909 45.4282 140.051 45.4282C140.201 45.4282 140.609 45.4507 141.275 45.4956C141.941 45.5405 142.334 45.563 142.454 45.563C142.581 45.563 142.862 45.563 143.296 45.563C143.738 45.563 144.622 45.4956 145.947 45.3608C147.279 45.2186 148.006 45.1475 148.125 45.1475C148.253 45.1475 148.65 45.2336 149.316 45.4058C149.982 45.5705 150.315 45.8363 150.315 46.2031C150.315 46.5625 150.312 46.7759 150.304 46.8433C150.297 46.9106 150.226 47.1764 150.091 47.6406C149.964 48.0973 149.746 48.3257 149.439 48.3257C149.132 48.3257 148.949 48.3369 148.889 48.3594C148.829 48.3818 148.549 48.2995 148.047 48.1123C147.545 47.9326 146.808 47.8652 145.834 47.9102C144.861 47.9551 144.206 47.9775 143.869 47.9775C143.54 47.9775 143.24 47.9775 142.971 47.9775C142.701 47.9775 142.222 47.985 141.533 48C140.852 48.0225 140.103 48.0337 139.287 48.0337C138.479 48.0412 137.284 48.0337 135.705 48.0112L135.109 48V45.7651L135.368 45.7539C135.772 45.7614 136.139 45.7651 136.468 45.7651C136.805 45.7651 137.015 45.7314 137.097 45.6641C137.18 45.5967 137.191 45.3234 137.131 44.8442C137.071 44.3576 137.09 43.6538 137.187 42.7329C137.292 41.812 137.457 41.1681 137.681 40.8013C137.913 40.4269 138.216 40.0002 138.591 39.521C138.965 39.0343 139.31 38.7012 139.624 38.5215C139.938 38.3343 140.156 38.2407 140.275 38.2407C140.403 38.2407 140.552 38.2407 140.725 38.2407C140.897 38.2407 141.05 38.5402 141.185 39.1392C141.327 39.7381 141.477 40.236 141.634 40.6328C141.792 41.0221 142.098 41.2842 142.555 41.4189C143.012 41.5462 143.439 41.5462 143.835 41.4189C144.232 41.2842 144.535 41.1195 144.745 40.9248C144.962 40.7301 145.138 40.4419 145.273 40.0601C145.415 39.6782 145.636 39.0718 145.936 38.2407C146.235 37.4097 146.579 36.7433 146.969 36.2417C147.366 35.7326 147.628 35.478 147.755 35.478ZM147.014 38.4878C146.931 38.645 146.89 38.7461 146.89 38.791C146.89 38.8359 146.89 39.0081 146.89 39.3076C146.89 39.6071 147.148 39.783 147.665 39.8354C148.182 39.8804 148.481 39.9028 148.563 39.9028C148.653 39.9028 148.758 39.9028 148.878 39.9028C149.005 39.9028 149.069 39.8579 149.069 39.7681C149.069 39.6707 148.915 39.3937 148.608 38.937C148.309 38.4728 148.062 38.2407 147.867 38.2407C147.673 38.2407 147.553 38.2407 147.508 38.2407C147.47 38.2407 147.399 38.2407 147.294 38.2407C147.197 38.2407 147.104 38.3231 147.014 38.4878ZM158.592 33.5127C158.592 33.3105 158.592 33.0934 158.592 32.8613C158.592 32.6292 158.716 32.4458 158.963 32.311C159.217 32.1763 159.431 32.1089 159.603 32.1089C159.783 32.1089 159.966 32.1089 160.153 32.1089C160.348 32.1089 160.52 32.165 160.67 32.2773C160.827 32.3896 160.947 32.5431 161.029 32.7378C161.119 32.925 161.213 32.9025 161.31 32.6704C161.407 32.4308 161.561 32.2174 161.771 32.0303C161.98 31.8356 162.205 31.7383 162.444 31.7383C162.691 31.7383 162.894 31.7383 163.051 31.7383C163.215 31.7383 163.406 31.8955 163.624 32.21C163.841 32.5244 163.949 32.7378 163.949 32.8501C163.949 32.9624 163.949 33.1009 163.949 33.2656C163.949 33.4229 163.792 33.6063 163.478 33.8159C163.163 34.0256 162.912 34.1304 162.725 34.1304C162.538 34.1304 162.358 34.1304 162.186 34.1304C162.021 34.1304 161.902 34.0929 161.827 34.0181C161.752 33.9357 161.673 33.8421 161.591 33.7373C161.516 33.6325 161.456 33.5501 161.411 33.4902C161.366 33.4229 161.235 33.5239 161.018 33.7935C160.808 34.063 160.599 34.2502 160.389 34.355C160.187 34.4523 160.019 34.501 159.884 34.501C159.757 34.501 159.622 34.501 159.479 34.501C159.345 34.501 159.161 34.3849 158.929 34.1528C158.705 33.9207 158.592 33.7074 158.592 33.5127ZM161.13 35.3208C161.4 35.3208 161.748 35.3957 162.175 35.5454C162.602 35.6877 162.826 36.1593 162.849 36.9604C162.871 37.7616 162.871 38.2557 162.849 38.4429C162.826 38.63 162.826 38.7236 162.849 38.7236C162.871 38.7236 162.815 39.0531 162.68 39.7119C162.545 40.3708 162.478 40.7264 162.478 40.7788C162.478 40.8237 162.635 40.9473 162.95 41.1494C163.264 41.3516 163.421 41.7072 163.421 42.2163C163.421 42.7179 163.579 43.3281 163.893 44.0469C164.215 44.7656 164.417 45.1587 164.5 45.2261C164.589 45.286 164.78 45.3833 165.072 45.5181C165.372 45.6453 165.615 45.724 165.802 45.7539C165.989 45.7764 166.248 45.7764 166.577 45.7539L166.6 47.9775C165.514 48.0299 164.728 47.9663 164.241 47.7866C163.762 47.6069 163.418 47.3599 163.208 47.0454C163.006 46.731 162.822 46.3978 162.658 46.0459C162.5 45.694 162.407 45.4731 162.377 45.3833C162.354 45.286 162.298 45.2373 162.208 45.2373C162.119 45.2373 161.902 45.6753 161.557 46.5513C161.22 47.4198 160.805 47.854 160.311 47.854C159.816 47.854 159.521 47.9027 159.423 48C159.333 48.0898 159.21 48.1348 159.053 48.1348C158.896 48.1348 158.75 48.1348 158.615 48.1348C158.48 48.1348 158.128 48.0487 157.559 47.8765C156.998 47.7043 156.698 47.5508 156.661 47.416C156.623 47.2738 156.545 47.1016 156.425 46.8994C156.305 46.6898 156.245 46.4652 156.245 46.2256C156.245 45.986 156.309 45.5031 156.436 44.7769C156.563 44.0506 156.721 43.6388 156.908 43.5415C157.095 43.4442 157.29 43.3169 157.492 43.1597C157.701 43.0024 158.21 42.7179 159.019 42.3062C159.835 41.8944 160.434 41.4414 160.816 40.9473C161.198 40.4531 161.389 39.9814 161.389 39.5322C161.389 39.083 161.254 38.7311 160.984 38.4766C160.715 38.2145 160.535 38.0199 160.445 37.8926C160.355 37.7653 160.311 37.6605 160.311 37.5781C160.311 37.4883 160.382 37.0915 160.524 36.3877C160.666 35.6764 160.868 35.3208 161.13 35.3208ZM161.321 43.0361C161.276 42.9912 160.958 43.2907 160.367 43.9346C159.775 44.571 159.322 44.9229 159.008 44.9902C158.701 45.0576 158.547 45.1063 158.547 45.1362C158.547 45.1587 158.555 45.2036 158.57 45.271C158.585 45.3384 158.675 45.3721 158.839 45.3721C159.004 45.3721 159.337 45.3721 159.839 45.3721C160.34 45.3721 160.655 45.1849 160.782 44.8105C160.917 44.4362 161.052 44.0843 161.187 43.7549C161.321 43.418 161.389 43.2271 161.389 43.1821C161.389 43.1297 161.366 43.0811 161.321 43.0361ZM166.24 45.7539C166.824 45.694 167.214 45.6641 167.408 45.6641C167.61 45.6641 167.738 45.4806 167.79 45.1138C167.85 44.7394 167.914 44.3688 167.981 44.002C168.048 43.6276 168.374 43.2121 168.958 42.7554C169.549 42.2912 170.448 41.5799 171.653 40.6216C172.859 39.6558 173.851 38.8809 174.629 38.2969C175.416 37.7129 176.018 37.3198 176.438 37.1177C176.864 36.908 177.179 36.7882 177.381 36.7583C177.59 36.7284 177.849 36.7134 178.156 36.7134C178.47 36.7059 178.875 36.7433 179.369 36.8257C179.87 36.9006 180.334 37.0428 180.761 37.2524C181.188 37.4546 181.551 37.7316 181.851 38.0835C182.15 38.4279 182.524 38.8247 182.974 39.2739C183.43 39.7157 183.895 40.236 184.366 40.835C184.838 41.4339 185.22 42.0029 185.512 42.542C185.811 43.0736 185.961 43.4517 185.961 43.6763C185.961 43.9009 185.961 44.0881 185.961 44.2378C185.961 44.38 185.95 44.556 185.927 44.7656C185.905 44.9678 185.894 45.1737 185.894 45.3833C185.894 45.5854 185.995 45.7015 186.197 45.7314C186.406 45.7539 186.594 45.7651 186.758 45.7651C186.923 45.7651 187.219 45.7651 187.646 45.7651L187.679 48L186.904 48.0112C186.515 47.869 186.159 47.738 185.837 47.6182C185.515 47.4984 185.257 47.5358 185.062 47.7305C184.875 47.9251 184.621 48.0524 184.299 48.1123C183.984 48.1722 183.786 48.2021 183.704 48.2021C183.629 48.2021 183.408 48.1123 183.041 47.9326C182.674 47.7529 182.255 47.6519 181.783 47.6294C181.319 47.6069 180.525 47.592 179.402 47.5845C178.287 47.577 177.497 47.5807 177.033 47.5957C176.569 47.6032 176.284 47.6069 176.179 47.6069C176.074 47.6069 175.715 47.6107 175.101 47.6182C174.495 47.6182 173.768 47.6481 172.922 47.708C172.084 47.7604 171.185 47.8128 170.227 47.8652C169.269 47.9176 168.674 47.9364 168.441 47.9214C168.209 47.9064 168.018 47.9027 167.869 47.9102C167.719 47.9102 167.464 47.9326 167.105 47.9775C166.746 48.0225 166.491 48.0337 166.341 48.0112C166.199 47.9888 166.016 47.9888 165.791 48.0112V45.7539H166.24ZM168.98 44.9678C168.965 45.0501 169.059 45.1624 169.261 45.3047C169.463 45.4469 169.759 45.5143 170.148 45.5068C170.538 45.4993 170.86 45.4844 171.114 45.4619C171.369 45.4395 171.676 45.4245 172.035 45.417C172.395 45.4095 172.69 45.4058 172.922 45.4058C173.154 45.4058 173.652 45.3683 174.416 45.2935C175.187 45.2186 175.902 45.1699 176.561 45.1475C177.22 45.1175 177.796 45.0876 178.291 45.0576C178.792 45.0277 179.178 45.0052 179.447 44.9902C179.724 44.9753 180.305 44.964 181.188 44.9565C182.079 44.9416 182.805 44.8405 183.367 44.6533C183.936 44.4661 184.183 44.2453 184.108 43.9907C184.041 43.7362 183.943 43.4666 183.816 43.1821C183.689 42.8901 183.251 42.3923 182.502 41.6885C181.761 40.9772 181.166 40.4082 180.716 39.9814C180.267 39.5547 179.822 39.2402 179.38 39.0381C178.946 38.8285 178.534 38.7199 178.145 38.7124C177.763 38.7049 177.295 38.7349 176.741 38.8022C176.187 38.8621 175.438 39.2926 174.495 40.0938C173.551 40.8874 172.803 41.5238 172.249 42.0029C171.702 42.4821 171.024 43.0324 170.216 43.6538C169.415 44.2752 169.014 44.6309 169.014 44.7207C169.014 44.8031 169.003 44.8854 168.98 44.9678ZM188.825 39.7007C188.825 39.4386 188.941 39.1878 189.173 38.9482C189.412 38.7087 189.723 38.5889 190.105 38.5889C190.846 38.5889 191.217 38.9595 191.217 39.7007C191.217 40.0076 191.101 40.2996 190.869 40.5767C190.637 40.8462 190.322 40.981 189.925 40.981C189.708 40.981 189.469 40.8462 189.207 40.5767C188.952 40.2996 188.825 40.0076 188.825 39.7007ZM191.823 42.8452H192.048C192.355 42.8452 192.52 42.9575 192.542 43.1821C192.572 43.3993 192.512 43.6987 192.362 44.0806C192.609 44.7469 192.999 45.2036 193.53 45.4507C193.927 45.6528 194.346 45.7539 194.788 45.7539V48L194.575 47.9888C193.122 47.9663 192.089 47.5433 191.475 46.7197C191.28 46.5176 191.082 46.1657 190.88 45.6641H190.835C190.745 45.6715 190.146 46.1844 189.038 47.2026C188.237 47.7342 187.582 48 187.073 48V45.7539C187.806 45.724 188.701 45.1362 189.757 43.9907C190.715 43.2196 191.404 42.8377 191.823 42.8452ZM199.932 41.52C200.261 41.4302 200.65 41.4339 201.1 41.5312C201.549 41.6211 201.961 42.119 202.335 43.0249C202.709 43.9233 202.908 44.5972 202.93 45.0464C202.96 45.4881 202.904 45.9224 202.762 46.3491C202.619 46.7759 202.41 47.2064 202.133 47.6406C201.863 48.0749 201.481 48.3444 200.987 48.4492C200.501 48.554 199.913 48.5952 199.224 48.5728C198.543 48.5503 197.88 48.1048 197.236 47.2363C196.974 47.446 196.671 47.6294 196.327 47.7866C195.99 47.9438 195.552 48.0187 195.013 48.0112L194.62 48V45.7539H195.024C195.713 45.6266 196.192 45.4694 196.461 45.2822C196.731 45.0876 196.993 44.7507 197.248 44.2715C197.51 43.7848 197.94 43.2271 198.539 42.5981C199.138 41.9618 199.602 41.6024 199.932 41.52ZM198.64 44.9678C198.588 45.0951 198.565 45.2373 198.573 45.3945C198.588 45.5443 198.711 45.7052 198.943 45.8774C199.183 46.0496 199.479 46.1545 199.831 46.1919C200.19 46.2293 200.523 46.1956 200.83 46.0908C201.137 45.986 201.309 45.825 201.347 45.6079C201.384 45.3908 201.328 45.1437 201.178 44.8667C201.028 44.5822 200.92 44.395 200.853 44.3052C200.785 44.2078 200.662 44.118 200.482 44.0356C200.302 43.9533 200.025 43.9683 199.651 44.0806C199.284 44.1929 199.037 44.3389 198.91 44.5186C198.79 44.6908 198.7 44.8405 198.64 44.9678Z" fill="white"/>
</g>
<g filter="url(#filter1_d_2680_2851)">
<path d="M45.8398 82.9141C45.8398 83.0391 45.8633 83.2031 45.9102 83.4062C45.957 83.6016 46.2031 83.9609 46.6484 84.4844C47.1016 85 47.3398 85.2578 47.3633 85.2578C47.3867 85.2578 47.5 85.1133 47.7031 84.8242C47.9141 84.5352 48.0195 84.3359 48.0195 84.2266C48.0195 84.1094 48.0195 83.9727 48.0195 83.8164C48.0195 83.6523 47.8789 83.418 47.5977 83.1133C47.3242 82.8008 47.0977 82.6094 46.918 82.5391C46.7383 82.4688 46.5938 82.4336 46.4844 82.4336C46.3828 82.4336 46.25 82.4844 46.0859 82.5859C45.9219 82.6797 45.8398 82.7891 45.8398 82.9141ZM45.582 78.0859C45.5508 77.9922 45.5312 77.9375 45.5234 77.9219C45.5234 77.8984 45.5234 77.875 45.5234 77.8516C45.5234 77.8203 45.5234 77.7617 45.5234 77.6758C45.5234 77.5898 45.5547 77.4805 45.6172 77.3477C45.6797 77.2148 45.75 77.0664 45.8281 76.9023C45.9141 76.7383 46.0352 76.6289 46.1914 76.5742C46.3555 76.5117 46.4531 76.4805 46.4844 76.4805C46.5156 76.4805 46.5703 76.4805 46.6484 76.4805C46.7344 76.4805 46.8633 76.5469 47.0352 76.6797C47.2148 76.8125 47.3281 76.9688 47.375 77.1484C47.4219 77.3203 47.4453 77.4375 47.4453 77.5C47.4453 77.5547 47.4453 77.7109 47.4453 77.9688C47.4453 78.2188 47.2969 78.3984 47 78.5078C46.7031 78.6094 46.5352 78.6602 46.4961 78.6602C46.457 78.6602 46.3906 78.6602 46.2969 78.6602C46.2031 78.6602 46.0664 78.5859 45.8867 78.4375C45.7148 78.2891 45.6133 78.1719 45.582 78.0859ZM45.1836 90.1914C44.7148 90.4023 44.1289 90.6016 43.4258 90.7891C42.7305 90.9766 42.0781 91.1055 41.4688 91.1758C40.8594 91.2461 39.8281 91.2266 38.375 91.1172C36.9297 91.0156 35.4648 90.3125 33.9805 89.0078C32.4961 87.7031 31.707 86.4648 31.6133 85.293C31.5273 84.1133 31.5586 83.1016 31.707 82.2578C31.8555 81.4062 32.0312 80.707 32.2344 80.1602C32.4375 79.6133 32.6914 79.0508 32.9961 78.4727C33.3008 77.8945 33.707 77.2695 34.2148 76.5977C34.7305 75.918 35.043 75.543 35.1523 75.4727C35.2695 75.3945 35.3398 75.3477 35.3633 75.332C35.3945 75.3086 35.418 75.2969 35.4336 75.2969C35.457 75.2969 35.4844 75.2969 35.5156 75.2969C35.5547 75.2969 35.5742 75.332 35.5742 75.4023C35.5742 75.4727 35.5742 75.5273 35.5742 75.5664C35.5742 75.6055 35.5703 75.6523 35.5625 75.707C35.5547 75.7539 35.5312 75.8867 35.4922 76.1055C35.4531 76.3242 35.0742 76.9961 34.3555 78.1211C33.6445 79.2461 33.2266 80.3867 33.1016 81.543C32.9766 82.6914 32.9766 83.6641 33.1016 84.4609C33.2266 85.2578 33.9297 86.1172 35.2109 87.0391C36.4922 87.9609 37.6367 88.5078 38.6445 88.6797C39.6523 88.8516 40.6797 88.8984 41.7266 88.8203C42.7812 88.7344 43.457 88.6523 43.7539 88.5742C44.0508 88.4961 44.3359 88.4219 44.6094 88.3516C44.8828 88.2734 45.2812 87.957 45.8047 87.4023L45.5586 87.0039C45.4414 86.8086 45.1992 86.4336 44.832 85.8789C44.4648 85.3164 44.2812 84.9492 44.2812 84.7773C44.2812 84.6055 44.2812 84.4766 44.2812 84.3906C44.2812 84.2969 44.3047 84.0078 44.3516 83.5234C44.3984 83.0312 44.4805 82.6953 44.5977 82.5156C44.7227 82.3281 44.9883 81.8672 45.3945 81.1328C45.8086 80.3906 46.1719 79.9766 46.4844 79.8906C46.8047 79.7969 47.0586 79.75 47.2461 79.75C47.4336 79.75 47.8242 80.0547 48.418 80.6641C49.0195 81.2656 49.3711 81.7109 49.4727 82C49.582 82.2891 49.6367 82.5352 49.6367 82.7383C49.6367 82.9414 49.5547 83.3359 49.3906 83.9219C49.2266 84.5 49.043 84.9766 48.8398 85.3516C48.6445 85.7188 48.457 86.1641 48.2773 86.6875L48.4414 87.0039C48.8711 87.6133 49.5117 88.1641 50.3633 88.6562H50.7266L50.7383 91C50.2461 91 49.8125 90.8789 49.4375 90.6367C49.0625 90.3867 48.7773 90.1992 48.582 90.0742C48.3945 89.9414 48.168 89.7578 47.9023 89.5234C47.6367 89.2812 47.3555 89 47.0586 88.6797L46.6602 89.0664C46.1445 89.6055 45.6523 89.9805 45.1836 90.1914ZM53.1992 80.582H53.4336C53.9805 80.582 54.6992 81.4531 55.5898 83.1953C55.7461 83.625 55.8242 84.1602 55.8242 84.8008C55.8242 87.1758 54.9961 88.9766 53.3398 90.2031C52.5742 90.7578 51.7734 91.0273 50.9375 91.0117L50.4336 91V88.6562C51.0039 88.6562 51.6289 88.5898 52.3086 88.457C53.0664 88.2305 53.5352 87.9414 53.7148 87.5898C54.0273 87.1602 54.1836 86.5781 54.1836 85.8438C54.1836 84.8672 53.543 83.9844 52.2617 83.1953C52.0742 82.8984 51.9805 82.6094 51.9805 82.3281C52.2773 81.1641 52.6836 80.582 53.1992 80.582ZM54.9219 91.2227C55.6719 91.2227 56.0469 91.5938 56.0469 92.3359C56.0469 92.9453 55.7344 93.3594 55.1094 93.5781L54.6875 93.6719H54.5C53.8438 93.4688 53.5156 93.1406 53.5156 92.6875L53.4688 92.3828C53.4688 91.7422 53.9219 91.3555 54.8281 91.2227H54.9219ZM51.8398 92.1133H52.2617C52.7227 92.1133 53.0352 92.3672 53.1992 92.875V93.3672C53.0273 94.1406 52.6211 94.5273 51.9805 94.5273H51.7461C51.0273 94.2383 50.668 93.8516 50.668 93.3672V93.0977C50.9023 92.4414 51.293 92.1133 51.8398 92.1133ZM59.082 85.9375C59.2148 85.9062 59.332 85.9023 59.4336 85.9258C59.5352 85.9492 59.5938 86.0039 59.6094 86.0898C59.625 86.1758 59.6172 86.3242 59.5859 86.5352C59.5547 86.7461 59.625 87.1328 59.7969 87.6953C59.9766 88.25 60.2891 88.5508 60.7344 88.5977C61.1797 88.6367 61.6992 88.6562 62.293 88.6562V91C61.457 91.0078 60.9258 91.0039 60.6992 90.9883C60.4805 90.9648 60.3242 91.0195 60.2305 91.1523C60.1445 91.2852 60.0703 91.5625 60.0078 91.9844C59.9453 92.4062 59.8008 92.8398 59.5742 93.2852C59.3555 93.7383 59.1484 94.1328 58.9531 94.4688C58.7578 94.8047 58.5938 95.0625 58.4609 95.2422C58.3281 95.4219 57.8477 95.9219 57.0195 96.7422C56.1914 97.5625 55.5703 98.0781 55.1562 98.2891C54.7344 98.5 54.3945 98.6797 54.1367 98.8281C53.8711 98.9766 53.4102 99.1445 52.7539 99.332C52.0898 99.5195 51.7344 99.6289 51.6875 99.6602C51.6406 99.6992 51.2461 99.75 50.5039 99.8125C49.7539 99.875 49.1211 99.8906 48.6055 99.8594C48.0898 99.8281 47.6953 99.7891 47.4219 99.7422C47.1484 99.7031 46.7109 99.5977 46.1094 99.4258C45.5 99.2539 44.8203 99.0156 44.0703 98.7109C43.3203 98.4062 42.8555 98.1484 42.6758 97.9375C42.4961 97.7344 42.4023 97.5703 42.3945 97.4453C42.3789 97.3281 42.3828 97.1758 42.4062 96.9883C42.4297 96.8086 42.5312 96.6953 42.7109 96.6484C42.8828 96.6094 43.0703 96.6016 43.2734 96.625C43.4688 96.6562 43.7773 96.7969 44.1992 97.0469C44.6133 97.3047 44.9766 97.4766 45.2891 97.5625C45.5938 97.6562 45.7578 97.7031 45.7812 97.7031C45.7969 97.7109 45.9766 97.7617 46.3203 97.8555C46.6562 97.9492 47.1523 98.043 47.8086 98.1367C48.457 98.2305 49.0078 98.2656 49.4609 98.2422C49.9062 98.2266 50.3516 98.1992 50.7969 98.1602C51.2344 98.1211 51.7344 97.9922 52.2969 97.7734C52.8516 97.5547 53.2852 97.375 53.5977 97.2344C53.9023 97.1016 54.2891 96.8711 54.7578 96.543C55.2188 96.2227 55.6133 95.9141 55.9414 95.6172C56.2617 95.3203 56.5469 95.0273 56.7969 94.7383C57.0547 94.4492 57.2656 94.1484 57.4297 93.8359C57.6016 93.5312 57.7422 93.2422 57.8516 92.9688C57.9688 92.6953 58.1133 92.2109 58.2852 91.5156C58.4648 90.8281 58.4727 90.3359 58.3086 90.0391C58.1445 89.7422 58.0312 89.3633 57.9688 88.9023C57.9141 88.4414 57.8984 88.1367 57.9219 87.9883C57.9453 87.8398 58 87.6797 58.0859 87.5078C58.1719 87.3359 58.2461 87.1445 58.3086 86.9336C58.3711 86.7227 58.4844 86.5117 58.6484 86.3008C58.8125 86.0898 58.957 85.9688 59.082 85.9375ZM65.6094 81.9531C65.6094 81.6797 65.7344 81.4219 65.9844 81.1797C66.2344 80.9297 66.5586 80.8047 66.957 80.8047C67.7227 80.8047 68.1055 81.1875 68.1055 81.9531C68.1055 82.2734 67.9844 82.5781 67.7422 82.8672C67.5078 83.1562 67.1836 83.3008 66.7695 83.3008C66.543 83.3008 66.293 83.1562 66.0195 82.8672C65.7461 82.5781 65.6094 82.2734 65.6094 81.9531ZM69.1836 81.5664C69.1836 81.2773 69.3125 81.0156 69.5703 80.7812C69.8281 80.5391 70.1484 80.418 70.5312 80.418C70.9609 80.418 71.2578 80.5273 71.4219 80.7461C71.5938 80.957 71.6797 81.2305 71.6797 81.5664C71.6797 82.0352 71.5234 82.3789 71.2109 82.5977C70.9062 82.8086 70.5508 82.9141 70.1445 82.9141C69.9258 82.8359 69.7109 82.7148 69.5 82.5508C69.2891 82.3789 69.1836 82.0508 69.1836 81.5664ZM67.2266 78.7305C67.2266 78.4648 67.3477 78.207 67.5898 77.957C67.8398 77.707 68.1641 77.582 68.5625 77.582C69.3359 77.582 69.7227 77.9648 69.7227 78.7305C69.7227 79.0508 69.6016 79.3555 69.3594 79.6445C69.1172 79.9336 68.7891 80.0781 68.375 80.0781C68.1484 80.0781 67.8984 79.9336 67.625 79.6445C67.3594 79.3555 67.2266 79.0508 67.2266 78.7305ZM72.2188 83.4766C72.2422 83.4766 72.3906 83.4766 72.6641 83.4766C72.9453 83.4766 73.2266 83.6758 73.5078 84.0742C73.7891 84.4727 74 84.8945 74.1406 85.3398C74.2812 85.7852 74.3516 86.0508 74.3516 86.1367C74.3516 86.2227 74.3516 86.4492 74.3516 86.8164C74.3516 87.1836 74.3125 87.5781 74.2344 88C74.4141 88.1875 74.6641 88.3438 74.9844 88.4688C75.3125 88.5859 75.7773 88.6484 76.3789 88.6562V91C75.6992 91 75.082 90.8945 74.5273 90.6836C73.9805 90.4727 73.5273 90.2383 73.168 89.9805C73.0977 90.0195 72.8477 90.168 72.418 90.4258C71.9961 90.6758 71.7227 90.8242 71.5977 90.8711C71.4805 90.918 71.3125 90.918 71.0938 90.8711C70.8828 90.8242 70.6562 90.7109 70.4141 90.5312C70.1719 90.3438 69.832 90.0977 69.3945 89.793C69.0586 90.1055 68.6992 90.3672 68.3164 90.5781C67.9336 90.7812 67.625 90.8984 67.3906 90.9297C67.1641 90.9609 66.7578 90.9102 66.1719 90.7773C65.5938 90.6445 65.1836 90.4609 64.9414 90.2266C64.6992 89.9844 64.5352 89.8086 64.4492 89.6992C63.668 90.4883 62.9219 90.918 62.2109 90.9883L61.4727 91L61.4844 88.6445C61.9922 88.668 62.3945 88.6055 62.6914 88.457C62.9961 88.3008 63.2695 88.082 63.5117 87.8008C63.7539 87.5195 63.9219 87.25 64.0156 86.9922C64.1172 86.7344 64.2461 86.5234 64.4023 86.3594C64.5586 86.1875 64.6602 86.1016 64.707 86.1016C64.7617 86.1016 64.8672 86.1016 65.0234 86.1016C65.1875 86.1016 65.3711 86.3008 65.5742 86.6992C65.7773 87.0898 65.9609 87.3477 66.125 87.4727C66.2891 87.5977 66.5391 87.7305 66.875 87.8711C67.2188 88.0117 67.4766 88.0742 67.6484 88.0586C67.8203 88.043 68.0156 87.918 68.2344 87.6836C68.4531 87.4492 68.582 87.2383 68.6211 87.0508C68.6602 86.8633 68.7812 86.6289 68.9844 86.3477C69.1953 86.0664 69.3516 85.9102 69.4531 85.8789C69.5625 85.8477 69.6719 85.8477 69.7812 85.8789C69.8984 85.9102 69.9766 86.1289 70.0156 86.5352C70.0547 86.9414 70.2422 87.2461 70.5781 87.4492C70.9219 87.6445 71.207 87.7852 71.4336 87.8711C71.6602 87.9492 71.8906 87.9141 72.125 87.7656C72.3672 87.6094 72.4844 87.4766 72.4766 87.3672C72.4766 87.2578 72.4336 87.0703 72.3477 86.8047C72.2617 86.5312 72.0938 86.3594 71.8438 86.2891C71.6016 86.2188 71.4531 86.0859 71.3984 85.8906C71.3516 85.6875 71.3281 85.3789 71.3281 84.9648C71.3281 84.5508 71.4688 84.1992 71.75 83.9102C72.0391 83.6211 72.1953 83.4766 72.2188 83.4766ZM76.8828 74.9805C77.3125 74.7383 77.6328 74.6523 77.8438 74.7227C78.0625 74.7852 78.2734 74.9492 78.4766 75.2148C78.6875 75.4805 78.8867 75.8984 79.0742 76.4688C79.2617 77.0312 79.3828 77.5664 79.4375 78.0742C79.4922 78.5742 79.5781 79.8867 79.6953 82.0117C79.8125 84.1367 79.9141 85.5703 80 86.3125C80.0938 87.0469 80.1406 87.6367 80.1406 88.082C80.1484 88.5195 80.0781 88.9141 79.9297 89.2656C79.7891 89.6172 79.4883 89.9492 79.0273 90.2617C78.5664 90.5664 78.0508 90.7695 77.4805 90.8711C76.918 90.9727 76.4023 91.0156 75.9336 91V88.6562C76.1836 88.6562 76.3711 88.6602 76.4961 88.668C76.6211 88.668 76.9023 88.6484 77.3398 88.6094C77.7852 88.5703 78.0742 88.4258 78.207 88.1758C78.3398 87.9258 78.3906 87.5742 78.3594 87.1211C78.3359 86.6602 78.3047 86.1289 78.2656 85.5273C78.2266 84.918 78.1992 83.8516 78.1836 82.3281C78.168 80.8047 78.082 79.75 77.9258 79.1641C77.7695 78.5781 77.4766 78.1602 77.0469 77.9102C76.625 77.6602 76.3867 77.3828 76.332 77.0781C76.2773 76.7734 76.25 76.4062 76.25 75.9766C76.25 75.5469 76.4609 75.2148 76.8828 74.9805ZM82.4258 74.5C82.6836 74.5 83.0391 74.6562 83.4922 74.9688C83.9453 75.2812 84.1719 75.707 84.1719 76.2461C84.1719 76.7773 84.1719 77.1328 84.1719 77.3125C84.1719 77.4844 84.1836 77.6797 84.207 77.8984C84.2383 78.1172 84.2539 78.4141 84.2539 78.7891C84.2539 79.1641 84.2539 79.4297 84.2539 79.5859C84.2539 79.7422 84.2578 79.8984 84.2656 80.0547C84.2812 80.2031 84.293 80.3594 84.3008 80.5234C84.3164 80.6875 84.3281 81.0273 84.3359 81.543C84.3438 82.0508 84.3438 82.7695 84.3359 83.6992C84.3281 84.6211 84.3359 85.2422 84.3594 85.5625C84.3906 85.875 84.4062 86.1211 84.4062 86.3008C84.4062 86.4805 84.4414 86.75 84.5117 87.1094C84.5898 87.4688 84.7812 87.8945 85.0859 88.3867C85.3906 88.8711 85.5547 89.2031 85.5781 89.3828C85.6016 89.5547 85.6133 89.6992 85.6133 89.8164C85.6133 89.9336 85.5781 90.1602 85.5078 90.4961C85.4375 90.832 85.2344 91 84.8984 91C84.5703 91 84.1523 90.8789 83.6445 90.6367C83.1367 90.3945 82.8828 90.1875 82.8828 90.0156C82.8828 89.8438 82.8828 89.6602 82.8828 89.4648C82.8828 89.2695 82.8828 89.0938 82.8828 88.9375C82.8828 88.7734 82.9336 88.543 83.0352 88.2461C83.1367 87.9492 83.168 87.2656 83.1289 86.1953C83.0977 85.125 83.0781 84.4023 83.0703 84.0273C83.0703 83.6445 83.0703 83.3438 83.0703 83.125C83.0781 82.9062 83.0742 82.6758 83.0586 82.4336C83.043 82.1914 83.0352 81.6367 83.0352 80.7695C83.0352 79.9023 83 79.2344 82.9297 78.7656C82.8672 78.2891 82.7305 77.9805 82.5195 77.8398C82.3086 77.6992 82.0898 77.4492 81.8633 77.0898C81.6367 76.7305 81.5234 76.4961 81.5234 76.3867C81.5234 76.2695 81.6094 75.9258 81.7812 75.3555C81.9531 74.7852 82.168 74.5 82.4258 74.5ZM97.3672 84.9883C97.1172 85.3086 96.8789 85.3906 96.6523 85.2344C96.4258 85.0781 96.2305 85 96.0664 85C95.9102 85 95.6328 85.0273 95.2344 85.082C94.8438 85.1367 94.5742 85.2148 94.4258 85.3164C94.2773 85.418 94.1953 85.5312 94.1797 85.6562C94.1719 85.7812 94.1992 85.8711 94.2617 85.9258C94.3242 85.9727 94.5117 86.0078 94.8242 86.0312C95.1445 86.0547 95.457 86.168 95.7617 86.3711C96.0664 86.5664 96.2969 86.8086 96.4531 87.0977C96.6094 87.3867 96.7188 87.7188 96.7812 88.0938C96.8438 88.4688 96.875 88.8164 96.875 89.1367C96.875 89.4492 96.6992 89.9922 96.3477 90.7656C96.0039 91.5312 95.6289 92.1875 95.2227 92.7344C94.8242 93.2891 94.3945 93.8594 93.9336 94.4453C93.4727 95.0312 92.9219 95.5859 92.2812 96.1094C91.6484 96.6406 90.9766 97.1328 90.2656 97.5859C89.5469 98.0391 88.8516 98.3906 88.1797 98.6406C87.5078 98.8984 87.0117 99.0742 86.6914 99.168C86.3633 99.2695 85.8828 99.3867 85.25 99.5195C84.6172 99.6523 83.7266 99.7773 82.5781 99.8945C81.4297 100.012 80.2305 100.039 78.9805 99.9766C77.7305 99.9219 76.8008 99.8477 76.1914 99.7539C75.5742 99.668 74.957 99.5742 74.3398 99.4727C73.7227 99.3789 73.1055 99.2188 72.4883 98.9922C71.8711 98.7656 71.3125 98.5234 70.8125 98.2656C70.3125 98.0078 69.8984 97.7617 69.5703 97.5273C69.2422 97.3008 68.875 97.0352 68.4688 96.7305C68.0547 96.4336 67.5781 95.9609 67.0391 95.3125C66.5 94.6641 66.1914 94.2695 66.1133 94.1289C66.0352 93.9961 65.957 93.7695 65.8789 93.4492C65.793 93.1367 65.8242 92.8438 65.9727 92.5703C66.1133 92.3047 66.3164 92.2773 66.582 92.4883C66.8477 92.707 67.0273 92.9141 67.1211 93.1094C67.2148 93.3125 67.4688 93.6992 67.8828 94.2695C68.2891 94.8398 68.957 95.4297 69.8867 96.0391C70.8164 96.6484 71.7109 97.1211 72.5703 97.457C73.4219 97.8008 74.4062 98.0469 75.5234 98.1953C76.6406 98.3516 77.5234 98.4531 78.1719 98.5C78.8125 98.5547 79.5898 98.5781 80.5039 98.5703C81.4102 98.5625 82.3828 98.5039 83.4219 98.3945C84.4609 98.2852 85.4492 98.0938 86.3867 97.8203C87.3164 97.5469 88.1016 97.2266 88.7422 96.8594C89.3828 96.5 90.0117 96.082 90.6289 95.6055C91.2383 95.1367 91.6953 94.7422 92 94.4219C92.3125 94.1094 92.7148 93.668 93.207 93.0977C93.6992 92.5352 94.0664 92.0469 94.3086 91.6328C94.5508 91.2266 94.7461 90.8672 94.8945 90.5547C95.0508 90.2344 95.168 89.9297 95.2461 89.6406C95.3242 89.3438 95.3125 89.0469 95.2109 88.75C95.1094 88.4531 94.9102 88.2344 94.6133 88.0938C94.3242 87.9453 93.9688 87.8672 93.5469 87.8594C93.1328 87.8438 92.8477 87.7969 92.6914 87.7188C92.5352 87.6406 92.418 87.5156 92.3398 87.3438C92.2695 87.1641 92.2344 86.9375 92.2344 86.6641C92.2344 86.3828 92.3359 85.9961 92.5391 85.5039C92.75 85.0039 92.9141 84.6719 93.0312 84.5078C93.1562 84.3359 93.2773 84.1953 93.3945 84.0859C93.5117 83.9688 93.6641 83.8242 93.8516 83.6523C94.0469 83.4805 94.2422 83.3281 94.4375 83.1953C94.6328 83.0625 94.875 82.9609 95.1641 82.8906C95.4531 82.8203 95.7891 82.7617 96.1719 82.7148C96.5625 82.6602 96.9219 82.7109 97.25 82.8672C97.5859 83.0156 97.7539 83.2617 97.7539 83.6055C97.7539 83.9414 97.7539 84.1758 97.7539 84.3086C97.7539 84.4414 97.625 84.668 97.3672 84.9883ZM83.8203 100.469C83.9219 100.469 84.0703 100.469 84.2656 100.469C84.4531 100.469 84.6484 100.574 84.8516 100.785C85.0469 101.004 85.1406 101.18 85.1328 101.312C85.1172 101.453 85.1016 101.598 85.0859 101.746C85.0703 101.895 84.9727 102.043 84.793 102.191C84.6133 102.34 84.4297 102.414 84.2422 102.414C84.0547 102.422 83.8711 102.426 83.6914 102.426C83.5117 102.426 83.3125 102.324 83.0938 102.121C82.8672 101.926 82.7617 101.777 82.7773 101.676C82.7852 101.574 82.7969 101.461 82.8125 101.336C82.8203 101.211 82.9648 101.035 83.2461 100.809C83.5195 100.59 83.7109 100.477 83.8203 100.469ZM87.1016 100.352C87.1797 100.328 87.3086 100.316 87.4883 100.316C87.668 100.316 87.8984 100.395 88.1797 100.551C88.4531 100.715 88.582 100.891 88.5664 101.078C88.5508 101.266 88.5391 101.426 88.5312 101.559C88.5156 101.691 88.4258 101.84 88.2617 102.004C88.0977 102.176 87.9102 102.262 87.6992 102.262C87.4883 102.262 87.2969 102.262 87.125 102.262C86.9453 102.262 86.7461 102.164 86.5273 101.969C86.3008 101.781 86.1953 101.633 86.2109 101.523C86.2188 101.422 86.2344 101.262 86.2578 101.043C86.2734 100.824 86.3984 100.66 86.6328 100.551C86.8672 100.441 87.0234 100.375 87.1016 100.352ZM103.742 86.6875C103.531 86.8672 103.406 87.0312 103.367 87.1797C103.336 87.3281 103.32 87.4883 103.32 87.6602C103.328 87.832 103.375 87.9727 103.461 88.082C103.547 88.1914 103.738 88.3125 104.035 88.4453C104.332 88.5781 104.672 88.6562 105.055 88.6797C105.078 88.3594 105.086 88.0273 105.078 87.6836C105.078 87.3398 105.023 87.0781 104.914 86.8984C104.812 86.7188 104.645 86.5938 104.41 86.5234C104.176 86.4531 103.953 86.5078 103.742 86.6875ZM104.117 84.2852C104.844 84.1602 105.574 84.3711 106.309 84.918C107.051 85.457 107.375 86.7109 107.281 88.6797C107.43 88.6797 107.621 88.6719 107.855 88.6562V91C107.504 91.0469 107.195 91.0781 106.93 91.0938C106.43 92.875 105.844 94.25 105.172 95.2188C104.5 96.1953 103.602 97.0469 102.477 97.7734C101.352 98.5 100.258 98.9922 99.1953 99.25C98.1406 99.5156 97.125 99.6797 96.1484 99.7422C95.1641 99.8047 94.2383 99.7891 93.3711 99.6953C92.5039 99.6094 91.5039 99.375 90.3711 98.9922C89.2305 98.6172 88.2656 98.1289 87.4766 97.5273C86.6875 96.9258 86.2305 96.3945 86.1055 95.9336C85.9805 95.4805 85.9688 95.1562 86.0703 94.9609C86.1641 94.7734 86.2852 94.6836 86.4336 94.6914C86.582 94.6992 86.8711 94.9414 87.3008 95.418C87.7305 95.9023 88.1914 96.2969 88.6836 96.6016C89.168 96.9141 89.7734 97.2109 90.5 97.4922C91.2188 97.7812 92.0625 98.0039 93.0312 98.1602C93.9922 98.3164 95.1992 98.3281 96.6523 98.1953C98.1055 98.0703 99.3438 97.7148 100.367 97.1289C101.391 96.543 102.145 96 102.629 95.5C103.113 95.0078 103.504 94.4727 103.801 93.8945C104.098 93.3164 104.449 92.332 104.855 90.9414C104.387 90.8555 103.984 90.7734 103.648 90.6953C103.312 90.6094 102.961 90.4844 102.594 90.3203C102.234 90.1562 101.91 89.8398 101.621 89.3711C101.34 88.8945 101.234 88.3008 101.305 87.5898C101.375 86.8711 101.68 86.1719 102.219 85.4922C102.758 84.8047 103.391 84.4023 104.117 84.2852ZM110.293 91.457C111.059 91.4805 111.594 91.7266 111.898 92.1953L112.074 92.5469L112.062 93.0273C111.867 93.4023 111.535 93.6719 111.066 93.8359L110.188 94.0234H110.094C109.648 94.0078 109.211 93.7383 108.781 93.2148L108.816 92.3945C109.324 91.8164 109.805 91.5273 110.258 91.5273H110.293V91.457ZM112.484 85.6211H112.719C113.039 85.6211 113.211 85.7383 113.234 85.9727C113.266 86.1992 113.203 86.5117 113.047 86.9102C113.305 87.6055 113.711 88.082 114.266 88.3398C114.68 88.5508 115.117 88.6562 115.578 88.6562V91L115.355 90.9883C113.84 90.9648 112.762 90.5234 112.121 89.6641C111.918 89.4531 111.711 89.0859 111.5 88.5625H111.453C111.359 88.5703 110.734 89.1055 109.578 90.168C108.742 90.7227 108.047 91 107.492 91V88.6562C108.281 88.625 109.227 88.0117 110.328 86.8164C111.328 86.0117 112.047 85.6133 112.484 85.6211ZM117.23 82.3398C117.23 82.0664 117.352 81.8047 117.594 81.5547C117.844 81.3047 118.168 81.1797 118.566 81.1797C119.34 81.1797 119.727 81.5664 119.727 82.3398C119.727 82.6602 119.605 82.9648 119.363 83.2539C119.121 83.5352 118.793 83.6758 118.379 83.6758C118.152 83.6758 117.902 83.5352 117.629 83.2539C117.363 82.9648 117.23 82.6602 117.23 82.3398ZM120.359 85.6211H120.594C120.914 85.6211 121.086 85.7383 121.109 85.9727C121.141 86.1992 121.078 86.5117 120.922 86.9102C121.18 87.6055 121.586 88.082 122.141 88.3398C122.555 88.5508 122.992 88.6562 123.453 88.6562V91L123.23 90.9883C121.715 90.9648 120.637 90.5234 119.996 89.6641C119.793 89.4531 119.586 89.0859 119.375 88.5625H119.328C119.234 88.5703 118.609 89.1055 117.453 90.168C116.617 90.7227 115.934 91 115.402 91V88.6562C116.168 88.625 117.102 88.0117 118.203 86.8164C119.203 86.0117 119.922 85.6133 120.359 85.6211ZM124.227 74.9805C124.656 74.7383 124.977 74.6523 125.188 74.7227C125.406 74.7852 125.617 74.9492 125.82 75.2148C126.031 75.4805 126.23 75.8984 126.418 76.4688C126.605 77.0312 126.727 77.5664 126.781 78.0742C126.836 78.5742 126.922 79.8867 127.039 82.0117C127.156 84.1367 127.258 85.5703 127.344 86.3125C127.438 87.0469 127.484 87.6367 127.484 88.082C127.492 88.5195 127.422 88.9141 127.273 89.2656C127.133 89.6172 126.832 89.9492 126.371 90.2617C125.91 90.5664 125.395 90.7695 124.824 90.8711C124.262 90.9727 123.746 91.0156 123.277 91V88.6562C123.527 88.6562 123.715 88.6602 123.84 88.668C123.965 88.668 124.246 88.6484 124.684 88.6094C125.129 88.5703 125.418 88.4258 125.551 88.1758C125.684 87.9258 125.734 87.5742 125.703 87.1211C125.68 86.6602 125.648 86.1289 125.609 85.5273C125.57 84.918 125.543 83.8516 125.527 82.3281C125.512 80.8047 125.426 79.75 125.27 79.1641C125.113 78.5781 124.82 78.1602 124.391 77.9102C123.969 77.6602 123.73 77.3828 123.676 77.0781C123.621 76.7734 123.594 76.4062 123.594 75.9766C123.594 75.5469 123.805 75.2148 124.227 74.9805ZM129.77 74.5C130.027 74.5 130.383 74.6562 130.836 74.9688C131.289 75.2812 131.516 75.707 131.516 76.2461C131.516 76.7773 131.516 77.1328 131.516 77.3125C131.516 77.4844 131.527 77.6797 131.551 77.8984C131.582 78.1172 131.598 78.4141 131.598 78.7891C131.598 79.1641 131.598 79.4297 131.598 79.5859C131.598 79.7422 131.602 79.8984 131.609 80.0547C131.625 80.2031 131.637 80.3594 131.645 80.5234C131.66 80.6875 131.672 81.0273 131.68 81.543C131.688 82.0508 131.688 82.7695 131.68 83.6992C131.672 84.6211 131.68 85.2422 131.703 85.5625C131.734 85.875 131.75 86.1211 131.75 86.3008C131.75 86.4805 131.785 86.75 131.855 87.1094C131.934 87.4688 132.125 87.8945 132.43 88.3867C132.734 88.8711 132.898 89.2031 132.922 89.3828C132.945 89.5547 132.957 89.6992 132.957 89.8164C132.957 89.9336 132.922 90.1602 132.852 90.4961C132.781 90.832 132.578 91 132.242 91C131.914 91 131.496 90.8789 130.988 90.6367C130.48 90.3945 130.227 90.1875 130.227 90.0156C130.227 89.8438 130.227 89.6602 130.227 89.4648C130.227 89.2695 130.227 89.0938 130.227 88.9375C130.227 88.7734 130.277 88.543 130.379 88.2461C130.48 87.9492 130.512 87.2656 130.473 86.1953C130.441 85.125 130.422 84.4023 130.414 84.0273C130.414 83.6445 130.414 83.3438 130.414 83.125C130.422 82.9062 130.418 82.6758 130.402 82.4336C130.387 82.1914 130.379 81.6367 130.379 80.7695C130.379 79.9023 130.344 79.2344 130.273 78.7656C130.211 78.2891 130.074 77.9805 129.863 77.8398C129.652 77.6992 129.434 77.4492 129.207 77.0898C128.98 76.7305 128.867 76.4961 128.867 76.3867C128.867 76.2695 128.953 75.9258 129.125 75.3555C129.297 74.7852 129.512 74.5 129.77 74.5ZM153.43 81.8242C153.766 81.8242 153.977 81.8242 154.062 81.8242C154.148 81.8242 154.254 81.8594 154.379 81.9297C154.504 82 154.621 82.1484 154.73 82.375C154.84 82.6016 154.84 82.9414 154.73 83.3945C154.629 83.8477 154.418 84.0742 154.098 84.0742C153.777 84.0742 153.527 84.0586 153.348 84.0273C153.176 83.9883 153.027 83.8516 152.902 83.6172C152.785 83.375 152.711 83.207 152.68 83.1133C152.656 83.0117 152.691 82.7734 152.785 82.3984C152.887 82.0156 153.102 81.8242 153.43 81.8242ZM150.863 82.2344C151.012 82.2344 151.105 82.2344 151.145 82.2344C151.184 82.2344 151.301 82.2344 151.496 82.2344C151.699 82.2344 151.84 82.3242 151.918 82.5039C151.996 82.6836 152.035 82.8672 152.035 83.0547C152.035 83.2344 151.906 83.4844 151.648 83.8047C151.398 84.125 151.156 84.2852 150.922 84.2852C150.688 84.2852 150.559 84.2852 150.535 84.2852C150.52 84.2852 150.414 84.25 150.219 84.1797C150.031 84.1016 149.875 83.9531 149.75 83.7344C149.625 83.5078 149.645 83.2344 149.809 82.9141C149.98 82.5938 150.16 82.4023 150.348 82.3398C150.543 82.2695 150.715 82.2344 150.863 82.2344ZM152.07 79.5156C152.219 79.5156 152.312 79.5156 152.352 79.5156C152.391 79.5156 152.508 79.5156 152.703 79.5156C152.906 79.5156 153.047 79.6055 153.125 79.7852C153.203 79.9648 153.242 80.1484 153.242 80.3359C153.242 80.5156 153.113 80.7656 152.855 81.0859C152.605 81.4062 152.363 81.5664 152.129 81.5664C151.895 81.5664 151.766 81.5664 151.742 81.5664C151.727 81.5664 151.621 81.5312 151.426 81.4609C151.238 81.3828 151.082 81.2344 150.957 81.0156C150.832 80.7891 150.852 80.5156 151.016 80.1953C151.188 79.875 151.367 79.6836 151.555 79.6211C151.75 79.5508 151.922 79.5156 152.07 79.5156ZM144.582 75.4258C145.262 75.2461 145.938 75.125 146.609 75.0625C147.281 75 147.891 75.0312 148.438 75.1562C148.984 75.2734 149.488 75.4805 149.949 75.7773C150.418 76.0742 150.633 76.3242 150.594 76.5273C150.562 76.7305 150.492 76.8672 150.383 76.9375C150.281 77 150.062 76.9297 149.727 76.7266C149.391 76.5234 148.973 76.3555 148.473 76.2227C147.98 76.0898 147.461 76.0508 146.914 76.1055C146.367 76.1602 145.906 76.2266 145.531 76.3047C145.156 76.375 144.766 76.4844 144.359 76.6328C143.953 76.7734 143.512 77.0156 143.035 77.3594C142.559 77.7031 142.125 78.1445 141.734 78.6836C141.344 79.2227 141.07 79.7656 140.914 80.3125C140.766 80.8594 140.672 81.2227 140.633 81.4023C140.594 81.582 140.586 81.9727 140.609 82.5742C140.633 83.1758 140.695 83.6914 140.797 84.1211C140.906 84.543 141.066 85.0234 141.277 85.5625C141.488 86.1016 141.871 86.6016 142.426 87.0625C142.988 87.5234 143.68 87.9141 144.5 88.2344C145.328 88.5547 146.098 88.75 146.809 88.8203C147.527 88.8828 148.219 88.8828 148.883 88.8203C149.555 88.75 150.219 88.5898 150.875 88.3398C151.531 88.0898 152.129 87.793 152.668 87.4492C153.215 87.1055 153.66 86.707 154.004 86.2539C154.355 85.793 154.742 85.6172 155.164 85.7266C155.594 85.8359 155.816 86.0469 155.832 86.3594C155.848 86.6719 155.785 87.0664 155.645 87.543C155.926 88.3086 156.418 88.6758 157.121 88.6445V91C156.426 91.0078 155.855 90.8477 155.41 90.5195C154.965 90.1914 154.598 89.8047 154.309 89.3594C153.988 89.5312 153.539 89.7578 152.961 90.0391C152.391 90.3203 151.648 90.5859 150.734 90.8359C149.828 91.0781 148.691 91.1328 147.324 91C145.957 90.8594 144.742 90.5547 143.68 90.0859C142.625 89.6172 141.859 89.1523 141.383 88.6914C140.906 88.2227 140.484 87.6445 140.117 86.957C139.758 86.2695 139.535 85.3164 139.449 84.0977C139.363 82.8711 139.441 81.7578 139.684 80.7578C139.926 79.7578 140.227 78.9609 140.586 78.3672C140.945 77.7734 141.32 77.3164 141.711 76.9961C142.109 76.668 142.52 76.3711 142.941 76.1055C143.363 75.832 143.91 75.6055 144.582 75.4258ZM159.488 80.582H159.723C160.27 80.582 160.988 81.4531 161.879 83.1953C162.035 83.625 162.113 84.1602 162.113 84.8008C162.113 87.1758 161.285 88.9766 159.629 90.2031C158.863 90.7578 158.062 91.0273 157.227 91.0117L156.723 91V88.6562C157.293 88.6562 157.918 88.5898 158.598 88.457C159.355 88.2305 159.824 87.9414 160.004 87.5898C160.316 87.1602 160.473 86.5781 160.473 85.8438C160.473 84.8672 159.832 83.9844 158.551 83.1953C158.363 82.8984 158.27 82.6094 158.27 82.3281C158.566 81.1641 158.973 80.582 159.488 80.582ZM161.211 91.2227C161.961 91.2227 162.336 91.5938 162.336 92.3359C162.336 92.9453 162.023 93.3594 161.398 93.5781L160.977 93.6719H160.789C160.133 93.4688 159.805 93.1406 159.805 92.6875L159.758 92.3828C159.758 91.7422 160.211 91.3555 161.117 91.2227H161.211ZM158.129 92.1133H158.551C159.012 92.1133 159.324 92.3672 159.488 92.875V93.3672C159.316 94.1406 158.91 94.5273 158.27 94.5273H158.035C157.316 94.2383 156.957 93.8516 156.957 93.3672V93.0977C157.191 92.4414 157.582 92.1133 158.129 92.1133ZM169.062 73.9492C169.203 73.9492 169.316 74.0117 169.402 74.1367C169.488 74.2539 169.512 74.3594 169.473 74.4531C169.434 74.5391 169.398 74.6992 169.367 74.9336C169.344 75.1602 169.246 75.375 169.074 75.5781C168.91 75.7812 168.793 75.8828 168.723 75.8828C168.66 75.8828 168.418 76.0625 167.996 76.4219C167.574 76.7812 167.305 77.0273 167.188 77.1602C167.07 77.293 166.953 77.457 166.836 77.6523C166.727 77.8398 166.629 78.082 166.543 78.3789C166.457 78.6758 166.402 78.9883 166.379 79.3164C166.363 79.6367 166.375 79.9453 166.414 80.2422C166.453 80.5391 166.551 80.9375 166.707 81.4375C166.871 81.9297 167.129 82.3711 167.48 82.7617C167.832 83.1445 168.102 83.4258 168.289 83.6055C168.484 83.7773 168.719 83.9648 168.992 84.168C169.266 84.3711 169.574 84.6133 169.918 84.8945C170.262 85.1758 170.684 85.3906 171.184 85.5391C171.691 85.6797 172.293 85.8633 172.988 86.0898C173.691 86.3086 174.148 86.4531 174.359 86.5234C174.57 86.5938 174.676 86.7148 174.676 86.8867C174.676 87.0586 174.684 87.1523 174.699 87.168C174.723 87.1836 174.734 87.3711 174.734 87.7305C174.734 88.0898 174.777 88.332 174.863 88.457C174.957 88.5742 175.125 88.6406 175.367 88.6562C175.617 88.6641 175.852 88.6562 176.07 88.6328L176.059 91C175.801 91 175.402 91 174.863 91C174.332 91 173.848 90.7109 173.41 90.1328C172.98 89.5547 172.68 89.2578 172.508 89.2422C172.336 89.2188 172.07 89.2188 171.711 89.2422C171.352 89.2578 170.758 89.2578 169.93 89.2422C169.109 89.2188 168.617 89.207 168.453 89.207C168.297 89.207 168.098 89.3594 167.855 89.6641C167.613 89.9609 167.395 90.1602 167.199 90.2617C167.004 90.3555 166.801 90.4023 166.59 90.4023C166.387 90.4023 165.934 90.332 165.23 90.1914C164.535 90.043 164.188 89.9219 164.188 89.8281C164.188 89.7344 164.117 89.6328 163.977 89.5234C163.844 89.4141 163.738 89.25 163.66 89.0312C163.59 88.8047 163.574 88.5625 163.613 88.3047C163.66 88.0391 163.727 87.7578 163.812 87.4609C163.898 87.1641 164.012 86.9453 164.152 86.8047C164.301 86.6562 164.461 86.582 164.633 86.582C164.805 86.582 165.312 86.6328 166.156 86.7344C167.008 86.8359 167.547 86.8867 167.773 86.8867C168.008 86.8867 168.25 86.8672 168.5 86.8281C168.758 86.7891 168.469 86.3555 167.633 85.5273C166.805 84.6992 166.309 84.125 166.145 83.8047C165.98 83.4766 165.836 83.1484 165.711 82.8203C165.586 82.4844 165.5 82.168 165.453 81.8711C165.414 81.5664 165.383 81.3125 165.359 81.1094C165.344 80.9062 165.344 80.625 165.359 80.2656C165.375 79.8984 165.418 79.5195 165.488 79.1289C165.559 78.7305 165.621 78.4492 165.676 78.2852C165.73 78.1211 165.801 77.9141 165.887 77.6641C165.98 77.4141 166.164 77.0312 166.438 76.5156C166.719 75.9922 167.102 75.5234 167.586 75.1094C168.078 74.6953 168.414 74.3984 168.594 74.2188C168.773 74.0391 168.93 73.9492 169.062 73.9492ZM179.41 87.7891C179.809 87.6016 180.02 87.5039 180.043 87.4961C180.074 87.4883 180.238 87.4219 180.535 87.2969C180.84 87.1641 181.383 86.9375 182.164 86.6172C182.945 86.2969 183.332 86.1094 183.324 86.0547C183.316 86 183.305 85.9766 183.289 85.9844C183.273 85.9844 183.223 85.9414 183.137 85.8555C183.051 85.7617 182.758 85.6055 182.258 85.3867C181.766 85.168 181.379 85.0391 181.098 85C180.824 84.9609 180.512 84.9609 180.16 85C179.809 85.0312 179.5 85.1641 179.234 85.3984C178.977 85.625 178.855 85.8672 178.871 86.125C178.895 86.375 178.953 86.6836 179.047 87.0508C179.148 87.4102 179.27 87.6562 179.41 87.7891ZM185.234 87.8008C185.539 88.9961 185.973 89.7695 186.535 90.1211C187.098 90.4805 187.637 90.707 188.152 90.8008C188.676 90.8945 189.207 90.9648 189.746 91.0117L190.402 91V88.6445L189.828 88.668C188.492 88.7227 187.734 88.4375 187.555 87.8125H187.543V87.8008H185.234ZM185.234 87.8008H185.023C184.898 87.8086 184.602 87.9062 184.133 88.0938C183.664 88.2734 182.559 88.6914 180.816 89.3477C180.934 89.5664 180.922 89.7383 180.781 89.8633C180.648 89.9805 180.273 90.0664 179.656 90.1211C179.047 90.1758 178.672 90.168 178.531 90.0977C177.391 90.6602 176.406 90.9609 175.578 91V88.6562C176.062 88.6484 176.566 88.4609 177.09 88.0938C177.02 87.7656 176.973 87.5312 176.949 87.3906C176.926 87.25 176.922 87.0625 176.938 86.8281C176.961 86.5938 176.973 86.3672 176.973 86.1484C176.98 85.9219 176.984 85.6836 176.984 85.4336C176.992 85.1836 177.098 84.8242 177.301 84.3555C177.512 83.8867 177.781 83.5195 178.109 83.2539C178.445 82.9883 178.996 82.7812 179.762 82.6328C180.535 82.4844 181.32 82.6133 182.117 83.0195C182.914 83.418 183.832 83.8477 184.871 84.3086C185.91 84.7617 186.516 84.9844 186.688 84.9766C186.867 84.9609 186.961 84.9531 186.969 84.9531C186.984 84.9453 187.086 84.918 187.273 84.8711C187.461 84.8242 187.609 84.7852 187.719 84.7539C187.828 84.7148 187.934 84.6914 188.035 84.6836C188.137 84.6758 188.375 84.6562 188.75 84.625C189.125 84.5938 189.43 84.707 189.664 84.9648C189.906 85.2148 190.051 85.4023 190.098 85.5273C190.152 85.6523 190.145 85.918 190.074 86.3242C190.012 86.7227 189.902 87.082 189.746 87.4023C189.59 87.7227 189.469 87.8945 189.383 87.918C189.297 87.9414 189.238 87.957 189.207 87.9648C189.176 87.9727 189.141 87.9766 189.102 87.9766C189.07 87.9688 189.012 87.9727 188.926 87.9883C188.848 87.9961 188.75 87.9922 188.633 87.9766C188.523 87.9609 188.465 87.9492 188.457 87.9414C188.457 87.9258 188.43 87.9141 188.375 87.9062C188.32 87.8984 188.289 87.8867 188.281 87.8711C188.273 87.8555 188.254 87.8398 188.223 87.8242C188.199 87.8242 187.977 87.8203 187.555 87.8125C187.547 87.8047 187.543 87.7969 187.543 87.7891C187.309 87.7969 186.539 87.8008 185.234 87.8008ZM196.93 91C196.258 91.0078 195.754 91.0039 195.418 90.9883C195.082 90.9648 194.852 90.8398 194.727 90.6133C194.602 90.3789 194.438 90.0977 194.234 89.7695C194.031 89.4414 193.898 89.2695 193.836 89.2539C193.781 89.2305 193.715 89.2539 193.637 89.3242C193.559 89.3945 193.414 89.5508 193.203 89.793C193 90.0352 192.781 90.2578 192.547 90.4609C192.32 90.6641 192.082 90.793 191.832 90.8477C191.59 90.8945 191.391 90.9297 191.234 90.9531C191.086 90.9688 190.82 90.9883 190.438 91.0117V88.6445C190.789 88.6523 191.062 88.6484 191.258 88.6328C191.461 88.6094 191.699 88.5586 191.973 88.4805C192.246 88.4023 192.465 88.2969 192.629 88.1641C192.793 88.0312 192.926 87.8906 193.027 87.7422C193.137 87.5859 193.242 87.3516 193.344 87.0391C193.445 86.7188 193.496 86.5117 193.496 86.418C193.496 86.3164 193.492 86.1992 193.484 86.0664C193.484 85.9258 193.469 85.7695 193.438 85.5977C193.414 85.4258 193.336 84.7422 193.203 83.5469C193.078 82.3438 192.828 81.1172 192.453 79.8672C192.086 78.6172 191.816 77.8633 191.645 77.6055C191.473 77.3398 191.336 77.0781 191.234 76.8203C191.141 76.5547 191.098 76.3711 191.105 76.2695C191.113 76.1602 191.145 76.0234 191.199 75.8594C191.254 75.6953 191.332 75.5312 191.434 75.3672C191.535 75.1953 191.621 75.0469 191.691 74.9219C191.762 74.7969 191.852 74.7344 191.961 74.7344C192.07 74.7344 192.262 74.8516 192.535 75.0859C192.809 75.3203 193.012 75.6797 193.145 76.1641C193.277 76.6406 193.387 77.0078 193.473 77.2656C193.566 77.5156 193.762 78.9062 194.059 81.4375C194.363 83.9609 194.543 85.4375 194.598 85.8672C194.652 86.2891 194.691 86.625 194.715 86.875C194.738 87.125 194.801 87.3672 194.902 87.6016C195.012 87.8281 195.172 88.0273 195.383 88.1992C195.602 88.3711 195.789 88.4961 195.945 88.5742C196.109 88.6445 196.438 88.6719 196.93 88.6562V91ZM197.445 74.9805C197.875 74.7383 198.195 74.6523 198.406 74.7227C198.625 74.7852 198.836 74.9492 199.039 75.2148C199.25 75.4805 199.449 75.8984 199.637 76.4688C199.824 77.0312 199.945 77.5664 200 78.0742C200.055 78.5742 200.141 79.8867 200.258 82.0117C200.375 84.1367 200.477 85.5703 200.562 86.3125C200.656 87.0469 200.703 87.6367 200.703 88.082C200.711 88.5195 200.641 88.9141 200.492 89.2656C200.352 89.6172 200.051 89.9492 199.59 90.2617C199.129 90.5664 198.613 90.7695 198.043 90.8711C197.48 90.9727 196.965 91.0156 196.496 91V88.6562C196.746 88.6562 196.934 88.6602 197.059 88.668C197.184 88.668 197.465 88.6484 197.902 88.6094C198.348 88.5703 198.637 88.4258 198.77 88.1758C198.902 87.9258 198.953 87.5742 198.922 87.1211C198.898 86.6602 198.867 86.1289 198.828 85.5273C198.789 84.918 198.762 83.8516 198.746 82.3281C198.73 80.8047 198.645 79.75 198.488 79.1641C198.332 78.5781 198.039 78.1602 197.609 77.9102C197.188 77.6602 196.949 77.3828 196.895 77.0781C196.84 76.7734 196.812 76.4062 196.812 75.9766C196.812 75.5469 197.023 75.2148 197.445 74.9805Z" fill="white"/>
</g>
<defs>
<filter id="filter0_d_2680_2851" x="21.8369" y="31.6597" width="185.138" height="35.2676" filterUnits="userSpaceOnUse" color-interpolation-filters="sRGB">
<feFlood flood-opacity="0" result="BackgroundImageFix"/>
<feColorMatrix in="SourceAlpha" type="matrix" values="0 0 0 0 0 0 0 0 0 0 0 0 0 0 0 0 0 0 127 0" result="hardAlpha"/>
<feOffset dy="4"/>
<feGaussianBlur stdDeviation="2"/>
<feComposite in2="hardAlpha" operator="out"/>
<feColorMatrix type="matrix" values="0 0 0 0 0 0 0 0 0 0 0 0 0 0 0 0 0 0 0.1 0"/>
<feBlend mode="normal" in2="BackgroundImageFix" result="effect1_dropShadow_2680_2851"/>
<feBlend mode="normal" in="SourceGraphic" in2="effect1_dropShadow_2680_2851" result="shape"/>
</filter>
<filter id="filter1_d_2680_2851" x="27.4844" y="73.9492" width="177.23" height="36.4766" filterUnits="userSpaceOnUse" color-interpolation-filters="sRGB">
<feFlood flood-opacity="0" result="BackgroundImageFix"/>
<feColorMatrix in="SourceAlpha" type="matrix" values="0 0 0 0 0 0 0 0 0 0 0 0 0 0 0 0 0 0 127 0" result="hardAlpha"/>
<feOffset dy="4"/>
<feGaussianBlur stdDeviation="2"/>
<feComposite in2="hardAlpha" operator="out"/>
<feColorMatrix type="matrix" values="0 0 0 0 0 0 0 0 0 0 0 0 0 0 0 0 0 0 0.1 0"/>
<feBlend mode="normal" in2="BackgroundImageFix" result="effect1_dropShadow_2680_2851"/>
<feBlend mode="normal" in="SourceGraphic" in2="effect1_dropShadow_2680_2851" result="shape"/>
</filter>
</defs>
</svg>
