<svg width="221" height="115" viewBox="0 0 221 115" fill="none" xmlns="http://www.w3.org/2000/svg">
<path d="M2 57.4217C12.0709 47.9558 16.9462 38.9881 19.5262 32.2801C21.1631 28.0276 25.5046 15.3056 32.1236 8.77555C35.273 5.66177 38.9918 3.72233 38.9918 3.72233C41.981 2.17434 44.6855 1.46261 46.5538 1.10675C88.7767 1.07117 130.982 1.03559 173.205 1C175.411 1.55158 178.436 2.5302 181.745 4.3095C182.795 4.87888 184.984 6.07101 187.315 8.02825C189.219 9.61183 191.976 12.3342 195.855 19.3268C197.777 22.7787 198.133 23.9886 200.731 29.629C207.706 44.7887 211.157 49.2903 212.83 51.3365C215.125 54.1478 217.278 56.194 218.666 57.4217C209.503 67.2968 204.859 75.7663 202.296 81.7804C199.752 87.741 196.514 93.3814 193.756 99.2709C192.919 101.068 191.425 104.253 188.329 107.509C185.838 110.107 183.276 111.744 181.461 112.74C89.4884 113.221 55.8774 113.452 52.5323 113.541C51.0021 113.577 49.4007 113.505 46.1801 113.363C43.6713 113.256 42.5504 113.149 41.2159 112.722C40.4152 112.473 38.9028 111.904 36.9989 110.463C31.8034 106.513 27.8177 99.093 26.6968 96.94C24.6861 93.0789 24.5972 92.0469 21.4656 86.0863C21.0919 85.3746 20.1667 83.6131 18.9034 81.3711C17.5333 78.9157 15.0779 74.5742 12.0709 70.1259C9.82894 66.763 6.53723 62.3326 2 57.4217Z" fill="#129D59" stroke="white" stroke-width="2"/>
<path d="M44.6045 32.1458V40.6864H45.9034C46.0813 40.6864 46.2592 40.6509 46.4194 40.5797C46.5795 40.5085 46.7397 40.4196 46.8642 40.3128C46.9888 40.1882 47.0777 40.0637 47.1489 39.9036C47.2201 39.7434 47.2556 39.5833 47.2556 39.4053V32.1458H49.3196V39.4053C49.3196 39.868 49.2307 40.295 49.0527 40.7042C48.8748 41.1135 48.6257 41.4693 48.3232 41.7718C48.0208 42.0743 47.6471 42.3056 47.2379 42.4835C46.8286 42.6615 46.3838 42.7504 45.9212 42.7504H39.8182C39.7292 43.4266 39.5157 44.0315 39.1776 44.5298C38.8395 45.0457 38.4303 45.4728 37.9321 45.8286C37.4517 46.1667 36.9001 46.4336 36.2951 46.5937C35.6902 46.7717 35.0674 46.8606 34.4447 46.8606C33.7685 46.8606 33.0924 46.7539 32.4341 46.5582C31.7757 46.3624 31.2063 46.06 30.6903 45.6685C30.1921 45.2593 29.7829 44.7611 29.4626 44.1739C29.1423 43.5867 29 42.8928 29 42.0743V34.0852H31.0818V42.0743C31.0818 42.5191 31.1707 42.9284 31.3665 43.2486C31.5622 43.5867 31.8113 43.8714 32.1316 44.1027C32.4518 44.334 32.8077 44.4942 33.1992 44.6009C33.6084 44.7255 34.0176 44.7789 34.4447 44.7789C34.8717 44.7789 35.2809 44.7255 35.6902 44.6009C36.0994 44.4942 36.4553 44.3162 36.7578 44.1027C37.078 43.8714 37.3271 43.5867 37.5051 43.2486C37.7008 42.9106 37.8076 42.5191 37.8076 42.0743V32.1458H39.9071V40.6864H42.5583V32.1458H44.6045ZM52.2021 32.128C53.4654 32.128 54.5508 32.2347 55.4404 32.4483C56.3301 32.6618 57.0774 32.9821 57.6468 33.4091C58.2162 33.8183 58.6432 34.3343 58.9101 34.9571C59.177 35.562 59.3193 36.2738 59.3193 37.0745V39.3876C59.3193 39.8502 59.2304 40.295 59.0524 40.7042C58.8745 41.1135 58.6254 41.4693 58.3229 41.7718C58.0204 42.0743 57.6468 42.3056 57.2375 42.4835C56.8283 42.6615 56.3835 42.7504 55.9031 42.7504H51.6327V40.6864H55.9031C56.081 40.6864 56.2589 40.6509 56.4191 40.5797C56.5792 40.5085 56.7393 40.4196 56.8639 40.295C56.9884 40.1704 57.0774 40.0459 57.1486 39.8858C57.2198 39.7256 57.2553 39.5655 57.2553 39.3876V37.0745C57.2553 36.6118 57.1664 36.2026 56.9706 35.8645C56.7927 35.5087 56.4902 35.2062 56.081 34.9749C55.6718 34.7258 55.1558 34.5478 54.533 34.4233C53.8925 34.2987 53.1274 34.2454 52.2377 34.2454V32.128H52.2021ZM63.7142 28.0356V39.352C63.7142 39.5299 63.7498 39.7078 63.821 39.868C63.8921 40.0281 63.9811 40.1704 64.1057 40.295C64.2302 40.4196 64.3726 40.5085 64.5327 40.5797C64.6928 40.6509 64.8708 40.6864 65.0487 40.6864H66.0273V42.7504H65.0487C64.5861 42.7504 64.1412 42.6615 63.732 42.4835C63.3228 42.3056 62.9669 42.0565 62.6466 41.754C62.3441 41.4516 62.095 41.0957 61.9171 40.6864C61.7392 40.2772 61.6502 39.8324 61.6502 39.3698V28.0356H63.7142ZM80.5108 32.1458V40.6864H82.6282V42.7504H65.1021V40.6864H68.9632V32.1458H71.0272V40.6864H73.6961V32.1458H75.7601V40.6864H78.4468V32.1458H80.5108ZM86.0978 28.0356V39.352C86.0978 39.8146 86.0089 40.2594 85.8309 40.6687C85.653 41.0779 85.4217 41.4338 85.1014 41.7362C84.799 42.0387 84.4253 42.2878 84.0161 42.4658C83.6068 42.6437 83.162 42.7327 82.6994 42.7327H81.7208V40.6687H82.6994C82.8773 40.6687 83.0552 40.6331 83.2154 40.5619C83.3755 40.4907 83.5179 40.4018 83.6424 40.2772C83.767 40.1527 83.8559 40.0103 83.9271 39.8502C83.9983 39.69 84.0339 39.5121 84.0339 39.3342V28H86.0978V28.0356ZM90.4749 28.0356V42.7682H88.4109V28.0356H90.4749ZM96.9516 32.128C98.2149 32.128 99.3003 32.2347 100.208 32.4483C101.097 32.6618 101.845 32.9821 102.414 33.4091C102.983 33.8183 103.393 34.3343 103.66 34.9571C103.926 35.562 104.069 36.2738 104.069 37.0745V40.6864H106.186V42.7504H96.3822V40.6864H102.005V37.0745C102.005 36.6118 101.916 36.2026 101.72 35.8645C101.524 35.5087 101.24 35.2062 100.83 34.9749C100.421 34.7258 99.9052 34.5478 99.2825 34.4233C98.6419 34.2987 97.8768 34.2454 96.9872 34.2454V32.128H96.9516ZM105.261 40.6864H107.556C107.503 40.4729 107.449 40.2594 107.432 40.0459C107.396 39.8146 107.396 39.5833 107.396 39.352V36.9855C107.396 36.3272 107.521 35.7044 107.77 35.1172C108.019 34.5301 108.357 34.0141 108.784 33.5692C109.211 33.1244 109.727 32.7863 110.296 32.5372C110.866 32.2881 111.489 32.1458 112.129 32.1458C112.787 32.1458 113.392 32.2703 113.962 32.5372C114.531 32.8041 115.047 33.16 115.474 33.6048C115.919 34.0496 116.257 34.5656 116.506 35.1528C116.755 35.74 116.88 36.3449 116.88 36.9855V39.3698C116.88 39.6011 116.88 39.8324 116.844 40.0459C116.809 40.2594 116.755 40.4729 116.702 40.6864H118.997V42.7504H115.51C115.065 43.1953 114.567 43.5511 113.98 43.818C113.41 44.0849 112.787 44.2095 112.129 44.2095C111.471 44.2095 110.848 44.0849 110.261 43.818C109.691 43.5689 109.193 43.2131 108.748 42.7504H105.261V40.6864ZM112.111 34.2276C111.738 34.2276 111.4 34.2987 111.079 34.4411C110.759 34.5834 110.474 34.7792 110.243 35.0283C109.994 35.2774 109.816 35.562 109.674 35.9001C109.531 36.2382 109.46 36.594 109.46 36.9677V39.352C109.46 39.7434 109.531 40.0993 109.674 40.4373C109.816 40.7754 109.994 41.0601 110.243 41.327C110.492 41.5761 110.759 41.7718 111.079 41.9142C111.4 42.0565 111.755 42.1277 112.111 42.1277C112.485 42.1277 112.823 42.0565 113.143 41.9142C113.464 41.7718 113.748 41.5761 113.997 41.327C114.246 41.0779 114.442 40.7754 114.585 40.4373C114.727 40.0993 114.798 39.7434 114.798 39.3698V36.9855C114.798 36.6118 114.727 36.256 114.585 35.9357C114.442 35.5976 114.246 35.3129 113.997 35.0638C113.748 34.8147 113.464 34.6012 113.143 34.4589C112.823 34.2987 112.467 34.2276 112.111 34.2276ZM120.065 33.1778C120.26 33.0888 120.527 32.9821 120.848 32.8575C121.168 32.733 121.524 32.6084 121.915 32.5016C122.307 32.3949 122.716 32.3059 123.143 32.2347C123.57 32.1636 123.997 32.128 124.406 32.128C125.011 32.128 125.581 32.1992 126.15 32.3415C126.719 32.4839 127.235 32.7507 127.68 33.1244C128.125 33.4981 128.499 33.9963 128.766 34.6546C129.05 35.2952 129.175 36.0958 129.175 37.0922V40.7042H131.292V42.7682H118.054V40.7042H127.093V37.0922C127.093 36.5229 127.004 36.0603 126.844 35.6866C126.684 35.3129 126.488 35.0283 126.239 34.8147C125.99 34.6012 125.705 34.4411 125.367 34.3521C125.047 34.2632 124.709 34.2276 124.371 34.2276C124.05 34.2276 123.712 34.2632 123.374 34.3165C123.036 34.3699 122.716 34.4411 122.413 34.53C122.111 34.619 121.826 34.708 121.559 34.7969C121.31 34.8859 121.097 34.9749 120.937 35.046L120.065 33.1778ZM130.385 40.6864H132.68C132.627 40.4729 132.573 40.2594 132.555 40.0459C132.52 39.8146 132.52 39.5833 132.52 39.352V36.9855C132.52 36.3272 132.644 35.7044 132.894 35.1172C133.143 34.5301 133.481 34.0141 133.908 33.5692C134.335 33.1244 134.833 32.7863 135.402 32.5372C135.972 32.2881 136.594 32.1458 137.253 32.1458C137.911 32.1458 138.516 32.2703 139.086 32.5372C139.655 32.8041 140.171 33.16 140.598 33.6048C141.025 34.0496 141.363 34.5656 141.612 35.1528C141.861 35.74 141.986 36.3449 141.986 36.9855V39.3698C141.986 40.0281 141.861 40.6331 141.612 41.2202C141.363 41.8074 141.025 42.3234 140.598 42.7504C140.171 43.1953 139.655 43.5511 139.086 43.818C138.516 44.0849 137.893 44.2095 137.253 44.2095C136.577 44.2095 135.954 44.0849 135.367 43.818C134.797 43.5689 134.299 43.2131 133.872 42.7504H130.385V40.6864ZM137.253 34.2276C136.879 34.2276 136.523 34.2987 136.203 34.4411C135.883 34.5834 135.598 34.7792 135.367 35.0283C135.118 35.2774 134.94 35.562 134.797 35.9001C134.655 36.2382 134.584 36.594 134.584 36.9677V39.352C134.584 39.7434 134.655 40.0993 134.797 40.4373C134.94 40.7754 135.118 41.0601 135.367 41.327C135.616 41.5761 135.883 41.7718 136.203 41.9142C136.523 42.0565 136.879 42.1277 137.253 42.1277C137.626 42.1277 137.965 42.0565 138.285 41.9142C138.605 41.7718 138.89 41.5761 139.139 41.327C139.388 41.0779 139.584 40.7754 139.726 40.4373C139.868 40.0993 139.94 39.7434 139.94 39.3698V36.9855C139.94 36.6118 139.868 36.256 139.726 35.9357C139.584 35.5976 139.388 35.3129 139.139 35.0638C138.89 34.8147 138.605 34.6012 138.285 34.4589C137.965 34.2987 137.626 34.2276 137.253 34.2276ZM159.565 40.6864V42.7504H155.366V36.9855C155.366 36.6118 155.295 36.256 155.153 35.9357C155.01 35.5976 154.815 35.3129 154.565 35.0638C154.316 34.8147 154.032 34.6012 153.694 34.4589C153.373 34.2987 153.017 34.2276 152.644 34.2276C152.27 34.2276 151.914 34.2987 151.576 34.4411C151.256 34.5834 150.953 34.7792 150.704 35.046C150.455 35.2951 150.277 35.5976 150.117 35.9357C149.975 36.2738 149.904 36.6474 149.904 37.0389V39.3698C149.904 39.5477 149.939 39.7256 150.01 39.8858C150.082 40.0459 150.171 40.1704 150.295 40.295C150.42 40.4196 150.544 40.5085 150.704 40.5797C150.864 40.6509 151.042 40.6864 151.22 40.6864H153.48V42.7504H151.22C150.758 42.7504 150.313 42.6615 149.904 42.4835C149.494 42.3056 149.139 42.0743 148.836 41.754C148.534 41.4516 148.285 41.0957 148.107 40.6864C147.929 40.2772 147.84 39.8324 147.84 39.3698V37.0389C147.84 36.3627 147.964 35.7222 148.213 35.135C148.462 34.53 148.818 34.0141 149.245 33.587C149.672 33.1422 150.188 32.7863 150.776 32.5372C151.363 32.2703 151.985 32.1458 152.644 32.1458C153.302 32.1458 153.925 32.2703 154.512 32.5372C155.099 32.7863 155.597 33.1422 156.042 33.587C156.487 34.0318 156.825 34.5478 157.074 35.135C157.323 35.7222 157.448 36.3272 157.448 36.9855V40.6864H159.565ZM153.213 29.0854C153.213 28.943 153.231 28.8007 153.284 28.6761C153.338 28.5516 153.427 28.427 153.516 28.3381C153.622 28.2313 153.729 28.1601 153.854 28.1068C153.978 28.0534 154.121 28.0178 154.263 28.0178C154.405 28.0178 154.548 28.0534 154.672 28.1068C154.797 28.1601 154.921 28.2313 155.01 28.3381C155.099 28.427 155.17 28.5516 155.224 28.6761C155.277 28.8007 155.313 28.943 155.313 29.0854C155.313 29.3701 155.206 29.6192 155.01 29.8327C154.815 30.0284 154.565 30.1352 154.263 30.1352C154.121 30.1352 153.978 30.1174 153.854 30.064C153.729 30.0106 153.622 29.9216 153.516 29.8327C153.427 29.7437 153.338 29.637 153.284 29.5124C153.231 29.3701 153.213 29.2277 153.213 29.0854ZM150.099 29.0854C150.099 28.943 150.117 28.8007 150.171 28.6761C150.224 28.5516 150.313 28.427 150.402 28.3381C150.509 28.2313 150.615 28.1601 150.74 28.1068C150.865 28.0534 151.007 28.0178 151.149 28.0178C151.292 28.0178 151.434 28.0534 151.558 28.1068C151.683 28.1601 151.808 28.2313 151.896 28.3381C152.003 28.427 152.074 28.5516 152.128 28.6761C152.181 28.8007 152.217 28.943 152.217 29.0854C152.217 29.2277 152.181 29.3701 152.128 29.4946C152.074 29.6192 152.003 29.7259 151.896 29.8149C151.808 29.9039 151.683 29.9928 151.558 30.0462C151.434 30.0996 151.292 30.1174 151.149 30.1174C151.007 30.1174 150.865 30.0996 150.74 30.0462C150.615 29.9928 150.509 29.9039 150.402 29.8149C150.313 29.7259 150.224 29.6192 150.171 29.4946C150.135 29.3701 150.099 29.2277 150.099 29.0854ZM162.857 32.1458V34.0141C163.213 33.7472 163.587 33.4981 163.978 33.2667C164.387 33.0354 164.796 32.8397 165.223 32.6796C165.651 32.5194 166.095 32.3771 166.522 32.2881C166.967 32.1992 167.394 32.1458 167.821 32.1458C168.426 32.1458 168.996 32.2347 169.547 32.4127C170.099 32.5906 170.579 32.8753 170.988 33.2667C171.398 33.6582 171.718 34.1564 171.949 34.7969C172.198 35.4197 172.305 36.1848 172.305 37.0922V40.6864H174.422V42.7504H158.658V40.6864H160.775V32.1458H162.857ZM167.839 34.2276C167.465 34.2276 167.092 34.2632 166.683 34.3521C166.291 34.4411 165.917 34.5656 165.544 34.708C165.17 34.8503 164.832 35.0283 164.512 35.2418C164.191 35.4375 163.907 35.6688 163.658 35.9179C163.426 36.167 163.231 36.4161 163.071 36.6652C162.928 36.9321 162.857 37.199 162.857 37.4481V40.6687H170.223V37.0745C170.223 36.5407 170.152 36.1136 170.028 35.7578C169.903 35.3841 169.725 35.0994 169.512 34.8681C169.298 34.6368 169.031 34.4767 168.746 34.3699C168.462 34.2809 168.159 34.2276 167.839 34.2276ZM176.202 29.0854C176.202 28.943 176.22 28.8007 176.273 28.6761C176.326 28.5516 176.415 28.427 176.504 28.3381C176.611 28.2313 176.718 28.1601 176.842 28.1068C176.967 28.0534 177.109 28.0178 177.252 28.0178C177.394 28.0178 177.536 28.0534 177.661 28.1068C177.785 28.1601 177.91 28.2313 177.999 28.3381C178.088 28.427 178.159 28.5516 178.212 28.6761C178.266 28.8007 178.301 28.943 178.301 29.0854C178.301 29.3701 178.195 29.6192 177.999 29.8327C177.803 30.0462 177.554 30.1352 177.252 30.1352C177.109 30.1352 176.967 30.1174 176.842 30.064C176.718 30.0106 176.611 29.9216 176.504 29.8327C176.415 29.7437 176.326 29.637 176.273 29.5124C176.22 29.3701 176.202 29.2277 176.202 29.0854ZM179.12 32.1458V40.6864H181.237V42.7504H173.497V40.6864H177.038V32.1458H179.12ZM180.33 40.6864H182.625C182.572 40.4729 182.518 40.2594 182.501 40.0459C182.465 39.8146 182.465 39.5833 182.465 39.352V36.9855C182.465 36.3272 182.589 35.7044 182.839 35.1172C183.088 34.5301 183.426 34.0141 183.853 33.5692C184.28 33.1244 184.778 32.7863 185.347 32.5372C185.917 32.2881 186.54 32.1458 187.198 32.1458C187.856 32.1458 188.461 32.2703 189.031 32.5372C189.6 32.8041 190.116 33.16 190.543 33.6048C190.97 34.0496 191.308 34.5656 191.557 35.1528C191.806 35.74 191.931 36.3449 191.931 36.9855V39.3698C191.931 40.0281 191.806 40.6331 191.557 41.2202C191.308 41.8074 190.97 42.3234 190.543 42.7504C190.116 43.1953 189.6 43.5511 189.031 43.818C188.461 44.0849 187.838 44.2095 187.198 44.2095C186.522 44.2095 185.899 44.0849 185.312 43.818C184.742 43.5689 184.244 43.2131 183.817 42.7504H180.33V40.6864ZM187.198 34.2276C186.824 34.2276 186.468 34.2987 186.148 34.4411C185.828 34.5834 185.543 34.7792 185.312 35.0283C185.063 35.2774 184.885 35.562 184.742 35.9001C184.6 36.2382 184.529 36.594 184.529 36.9677V39.352C184.529 39.7434 184.6 40.0993 184.742 40.4373C184.885 40.7754 185.063 41.0601 185.312 41.327C185.561 41.5761 185.828 41.7718 186.148 41.9142C186.468 42.0565 186.824 42.1277 187.198 42.1277C187.572 42.1277 187.91 42.0565 188.23 41.9142C188.55 41.7718 188.835 41.5761 189.084 41.327C189.333 41.0779 189.529 40.7754 189.671 40.4373C189.813 40.0993 189.885 39.7434 189.885 39.3698V36.9855C189.885 36.6118 189.813 36.256 189.671 35.9357C189.529 35.5976 189.333 35.3129 189.084 35.0638C188.835 34.8147 188.55 34.6012 188.23 34.4589C187.91 34.2987 187.572 34.2276 187.198 34.2276Z" fill="white"/>
<path d="M44.9211 79.7067C44.1738 79.7067 43.5511 79.6177 43.0707 79.422C42.5902 79.2263 42.1988 79.0305 41.9319 78.7992C41.6472 78.5857 41.4515 78.3722 41.3447 78.1765C41.238 77.9807 41.1668 77.8918 41.149 77.8918C41.06 78.0341 40.9177 78.1765 40.7398 78.3544C40.5618 78.5323 40.3661 78.6925 40.1526 78.8704C39.9391 79.0483 39.7434 79.1907 39.5476 79.333C39.3519 79.4754 39.1918 79.5465 39.0672 79.5999H33.1955C32.4838 79.5999 31.8077 79.5287 31.1849 79.3686C30.5621 79.2085 30.0106 78.9771 29.5301 78.6391C29.0497 78.301 28.6761 77.8918 28.4092 77.3758C28.1423 76.8598 27.9999 76.237 27.9999 75.5253C27.9999 74.867 28.0711 74.2798 28.2135 73.7638C28.3558 73.23 28.5693 72.7318 28.8362 72.2692C29.1031 71.8066 29.4412 71.3439 29.8326 70.9169C30.2241 70.4721 30.6689 70.0273 31.1493 69.5646H31.5408V69.7426C31.2027 70.1162 30.8646 70.4543 30.5621 70.7924C30.2419 71.1126 29.975 71.4507 29.7437 71.7888C29.5123 72.1268 29.3344 72.5005 29.1921 72.8741C29.0497 73.2656 28.9786 73.6926 28.9786 74.1908C28.9786 74.7424 29.0497 75.205 29.1743 75.5965C29.2988 75.9879 29.4768 76.326 29.7081 76.5929C29.9394 76.8598 30.2063 77.0733 30.5265 77.2334C30.8468 77.3936 31.1849 77.5181 31.5586 77.6071C31.7543 77.6427 31.9678 77.696 32.2347 77.7138C32.4838 77.7494 32.8574 77.7672 33.3201 77.785C33.8005 77.8028 34.4232 77.8028 35.1883 77.8028C35.9534 77.8028 36.9676 77.8028 38.2132 77.8028C38.2843 77.8028 38.4445 77.785 38.6758 77.7672C38.9071 77.7316 39.1562 77.6783 39.4053 77.6071C39.6544 77.5181 39.8857 77.4114 40.0814 77.269C40.2771 77.1267 40.3839 76.9132 40.3839 76.6641C40.117 76.4327 39.8501 76.1658 39.5654 75.8812C39.2807 75.5965 39.1384 75.2584 39.1384 74.8314C39.1384 74.4399 39.2096 74.0485 39.3519 73.657C39.4943 73.2656 39.69 72.8919 39.9213 72.5717C40.1704 72.2514 40.4551 71.9845 40.7931 71.771C41.1312 71.5575 41.4871 71.4685 41.8429 71.4685C42.4835 71.4685 42.9461 71.682 43.2486 72.109C43.5511 72.5361 43.7112 73.0165 43.7112 73.5503C43.7112 73.9239 43.6578 74.2798 43.5333 74.6001C43.4087 74.9381 43.2664 75.2406 43.1062 75.5253C42.9461 75.81 42.786 76.0769 42.608 76.2904C42.4479 76.5039 42.3234 76.6996 42.2344 76.842C42.3056 77.0199 42.4123 77.1978 42.5725 77.3758C42.7148 77.5537 42.9283 77.696 43.1774 77.8028C43.2664 77.8384 43.3909 77.8562 43.5511 77.874C43.7112 77.8918 43.8891 77.8918 44.0671 77.8918C44.245 77.8918 44.4229 77.8918 44.5831 77.8918C44.7432 77.8918 44.8678 77.8918 44.9389 77.8918V79.7067H44.9211ZM41.9319 82.3045C41.9319 82.6247 41.8251 82.856 41.6294 83.0517C41.4337 83.2297 41.1846 83.3364 40.8999 83.3364C40.6152 83.3364 40.3661 83.2475 40.1704 83.0517C39.9747 82.8738 39.8857 82.6247 39.8857 82.3045C39.8857 81.9842 39.9747 81.7351 40.1704 81.5571C40.3661 81.3614 40.5974 81.2724 40.8999 81.2724C41.2024 81.2724 41.4337 81.3614 41.6294 81.5571C41.8429 81.7351 41.9319 81.9842 41.9319 82.3045ZM41.6294 75.4719C41.8785 75.4719 42.092 75.3652 42.2344 75.1517C42.3945 74.9381 42.4657 74.7602 42.4657 74.6179C42.4657 74.2976 42.3945 73.9773 42.2344 73.6926C42.0742 73.4079 41.8251 73.2656 41.4871 73.2656C41.238 73.2656 40.9711 73.3368 40.722 73.4613C40.4551 73.5859 40.3305 73.8172 40.3305 74.1374L41.6294 75.4719Z" fill="white"/>
<path d="M44.476 77.8564H47.2339C47.4652 77.8564 47.7143 77.8208 47.9812 77.7497C48.2481 77.6785 48.4794 77.5717 48.7107 77.4294C48.9242 77.2871 49.1199 77.1091 49.2801 76.9134C49.4402 76.7177 49.547 76.4864 49.6003 76.2373C49.5648 75.7213 49.3334 75.2764 48.9242 74.9206C48.8886 74.885 48.8175 74.8316 48.7285 74.7782C48.6395 74.7249 48.5683 74.6715 48.4794 74.6003C48.3904 74.5291 48.3192 74.458 48.2481 74.3868C48.1769 74.3156 48.1413 74.2445 48.1413 74.1733C48.1413 74.1021 48.1591 73.9954 48.1769 73.853C48.2125 73.7107 48.2303 73.5683 48.2659 73.4082C48.3015 73.248 48.337 73.1057 48.3726 72.9811C48.4082 72.8566 48.4438 72.7676 48.4794 72.732C48.5328 72.5897 48.6217 72.5363 48.7463 72.5363C48.9776 72.6253 49.2267 72.7854 49.458 72.9989C49.6893 73.2124 49.9028 73.4616 50.0986 73.7462C50.2943 74.0131 50.4544 74.2978 50.5612 74.5825C50.6857 74.8672 50.7391 75.0985 50.7391 75.2942C50.6146 76.0949 50.3832 76.86 50.0096 77.6073C49.6537 78.3546 49.1021 78.924 48.3904 79.3511C48.1769 79.4756 47.8388 79.5646 47.3584 79.6357C47.1271 79.6713 46.7535 79.6891 46.2553 79.7069C45.757 79.7247 45.1521 79.7247 44.4404 79.7247V77.8564H44.476ZM47.1449 82.0022C47.1449 82.3047 47.0559 82.5538 46.8602 82.7317C46.6645 82.9275 46.4154 83.0164 46.1307 83.0164C45.8282 83.0164 45.5969 82.9275 45.4012 82.7317C45.2055 82.536 45.1165 82.3047 45.1165 82.0022C45.1165 81.6819 45.2055 81.4328 45.4012 81.2371C45.5969 81.0414 45.846 80.9524 46.1307 80.9524C46.4332 80.9524 46.6645 81.0414 46.8602 81.2371C47.0382 81.4328 47.1449 81.6819 47.1449 82.0022ZM49.4046 81.931C49.4046 82.2335 49.3157 82.4826 49.1199 82.6606C48.9242 82.8563 48.6751 82.9453 48.3904 82.9453C48.0879 82.9453 47.8566 82.8563 47.6609 82.6606C47.4652 82.4648 47.3762 82.2335 47.3762 81.931C47.3762 81.6108 47.4652 81.3617 47.6609 81.1659C47.8566 80.9702 48.1057 80.8813 48.3904 80.8813C48.6929 80.8813 48.9242 80.9702 49.1199 81.1659C49.3157 81.3617 49.4046 81.6286 49.4046 81.931Z" fill="white"/>
<path d="M44.2092 87.4461C44.6896 87.5173 45.1167 87.5885 45.4903 87.6419C45.864 87.6953 46.3088 87.713 46.7892 87.713C48.8354 87.713 50.6859 87.286 52.3407 86.4142C53.9954 85.5423 55.3655 84.2078 56.4331 82.4285C56.611 82.0904 56.7711 81.7346 56.8957 81.3431C57.0202 80.9517 57.0914 80.5602 57.0914 80.151C57.0914 79.9197 57.038 79.6884 56.9491 79.4571C56.8601 79.2436 56.7355 79.03 56.5932 78.8521C56.4508 78.6742 56.2907 78.4962 56.1128 78.3361C55.9349 78.176 55.7569 78.0336 55.5968 77.9091V77.4109C55.5968 77.2863 55.5968 77.144 55.6146 76.966C55.6146 76.7881 55.6502 76.6102 55.7213 76.45C55.7747 76.2899 55.8637 76.1476 55.9704 76.0408C56.0772 75.934 56.2373 75.8807 56.4508 75.8807L56.7889 75.9696C57.0914 76.3433 57.3405 76.6458 57.5718 76.8949C57.8031 77.144 58.0166 77.3397 58.2479 77.4642C58.4793 77.6066 58.7284 77.7134 58.9953 77.7667C59.2622 77.8201 59.5824 77.8557 59.9739 77.8557H60.2586V79.7062H58.2124C58.07 81.0406 57.7142 82.2506 57.127 83.336C56.5398 84.4213 55.7925 85.3466 54.9029 86.1117C54.0132 86.8768 52.9812 87.4639 51.8602 87.891C50.7393 88.318 49.5471 88.5315 48.3194 88.5315C47.6433 88.5315 46.9672 88.4604 46.291 88.3358C45.6149 88.2112 44.9565 87.9977 44.2626 87.7308C44.2092 87.6953 44.1736 87.6419 44.1736 87.5707C44.1736 87.5173 44.1914 87.4639 44.2092 87.4461Z" fill="white"/>
<path d="M59.8671 77.8556H60.134C60.6856 77.8556 61.166 77.7488 61.5752 77.5175C61.9845 77.304 62.3581 77.0193 62.6962 76.6812C63.0343 76.3432 63.3367 75.9873 63.6214 75.6136C63.9061 75.24 64.2086 74.8841 64.4933 74.5816C64.5289 74.5461 64.5645 74.5105 64.6178 74.5105C64.6712 74.5105 64.7246 74.4927 64.7602 74.4927C65.0449 74.4927 65.1872 74.635 65.1872 74.9197C65.1516 75.151 65.1161 75.4001 65.0449 75.6492C64.9737 75.8983 64.9381 76.1296 64.9381 76.3787C64.9381 76.8058 65.0982 77.1439 65.4363 77.4107C65.7744 77.6598 66.1658 77.7844 66.6107 77.7844C67.0377 77.7488 67.358 77.6421 67.5359 77.4997C67.7316 77.3574 67.8562 77.1616 67.9273 76.9481C67.9985 76.7346 68.0519 76.4677 68.0697 76.1652C68.0875 75.8628 68.1409 75.5247 68.2298 75.151C68.2654 75.0265 68.3188 74.9375 68.4078 74.8841C68.4967 74.8308 68.5857 74.7952 68.6925 74.7952C68.7992 74.7952 68.8882 74.8308 68.9771 74.8841C69.0661 74.9375 69.1195 75.0265 69.1195 75.151C69.1195 75.3645 69.1551 75.6136 69.2262 75.8983C69.2974 76.1652 69.422 76.4321 69.5643 76.6456C69.7244 76.8769 69.9024 77.0727 70.1159 77.2328C70.3294 77.393 70.5785 77.4819 70.881 77.4819C71.0945 77.4463 71.2368 77.3574 71.308 77.2684C71.397 77.1616 71.4326 77.0371 71.4326 76.8947C71.4326 76.7524 71.397 76.5923 71.3436 76.4143C71.2902 76.2364 71.2191 76.0763 71.1301 75.8983C71.0411 75.7204 70.97 75.5603 70.9166 75.4001C70.8632 75.24 70.8098 75.0976 70.792 74.9731C70.8098 74.8308 70.8276 74.6884 70.8276 74.5461C70.8454 74.3859 70.8632 74.2436 70.8988 74.0834C70.9344 73.9411 70.9878 73.7988 71.0589 73.692C71.1301 73.5852 71.2368 73.4963 71.397 73.4607C71.6995 73.4607 71.9308 73.5674 72.0909 73.7987C72.2688 74.0123 72.3934 74.2614 72.4824 74.5105C72.6247 75.0087 72.7315 75.4535 72.8204 75.8627C72.9094 76.272 73.0517 76.6456 73.2297 76.9481C73.4076 77.2506 73.6745 77.4819 74.0126 77.6598C74.3506 77.8378 74.8488 77.9089 75.5072 77.9089C75.6495 77.9089 75.7741 77.9089 75.8986 77.9089C76.0232 77.9089 76.1655 77.9089 76.3079 77.8911V79.7416H75.4182C75.0979 79.7416 74.831 79.7238 74.5997 79.706C74.3684 79.6882 74.1549 79.6349 73.9236 79.5637C73.7101 79.4925 73.4966 79.4036 73.2653 79.279C73.0517 79.1545 72.767 78.9943 72.4646 78.7808C71.913 79.279 71.2724 79.5281 70.5251 79.5281C69.9024 79.5281 69.333 79.3502 68.817 78.9765C68.5145 79.2968 68.1764 79.5103 67.785 79.6705C67.3936 79.8128 67.0021 79.884 66.5751 79.884C65.8989 79.884 65.2584 79.6882 64.689 79.3146C64.1196 78.9409 63.7638 78.3716 63.6036 77.6421C63.1232 78.1936 62.5716 78.674 61.9311 79.0833C61.2905 79.4925 60.561 79.706 59.7603 79.7238V77.8556H59.8671ZM67.4469 71.4323C67.4469 71.7348 67.358 71.9661 67.1622 72.1618C66.9665 72.3575 66.7174 72.4465 66.4149 72.4465C66.1302 72.4465 65.8811 72.3575 65.6854 72.1618C65.4897 71.9661 65.4007 71.717 65.4007 71.4323C65.4007 71.112 65.4897 70.8629 65.6854 70.685C65.8811 70.4892 66.1125 70.4003 66.4149 70.4003C66.7174 70.4003 66.9665 70.4892 67.1622 70.685C67.358 70.8629 67.4469 71.112 67.4469 71.4323ZM69.0305 69.3327C69.0305 69.653 68.9416 69.8843 68.7458 70.08C68.5501 70.2579 68.301 70.3647 67.9985 70.3647C67.696 70.3647 67.4469 70.2757 67.2512 70.08C67.0555 69.9021 66.9665 69.653 66.9665 69.3327C66.9665 69.0124 67.0555 68.7633 67.2512 68.5854C67.4469 68.3897 67.696 68.3007 67.9985 68.3007C68.3188 68.3007 68.5679 68.3897 68.7458 68.5854C68.9238 68.7633 69.0305 69.0302 69.0305 69.3327ZM70.5429 71.4323C70.5429 71.7348 70.454 71.9661 70.2582 72.1618C70.0803 72.3575 69.8312 72.4465 69.5109 72.4465C69.2084 72.4465 68.9771 72.3575 68.7814 72.1618C68.5857 71.9661 68.4967 71.717 68.4967 71.4323C68.4967 71.112 68.5857 70.8629 68.7814 70.685C68.9771 70.4892 69.2262 70.4003 69.5109 70.4003C69.8312 70.4003 70.0625 70.4892 70.2582 70.685C70.4362 70.8629 70.5429 71.112 70.5429 71.4323Z" fill="white"/>
<path d="M75.8449 77.8561C76.1829 77.8561 76.5388 77.8027 76.8947 77.696C77.2505 77.5892 77.5708 77.4469 77.8199 77.2511C78.0868 77.0554 78.3181 76.8063 78.5138 76.5038C78.7096 76.2013 78.8519 75.8989 78.9409 75.5964C78.9231 75.2049 78.9053 74.6178 78.8697 73.7993C78.8341 72.9986 78.7985 72.0912 78.7274 71.0947C78.6562 70.0983 78.5672 69.0663 78.4783 67.9988C78.3715 66.9312 78.2291 65.9526 78.0512 65.0451C77.9623 64.8316 77.8199 64.707 77.642 64.6537C77.4641 64.6003 77.2683 64.5291 77.0726 64.4757C76.8769 64.4224 76.7167 64.3156 76.5566 64.191C76.4143 64.0487 76.3431 63.8174 76.3431 63.4615C76.3431 63.3904 76.3609 63.2302 76.3965 62.9989C76.4321 62.7676 76.4854 62.5185 76.5744 62.2516C76.6634 61.9847 76.7523 61.7534 76.8591 61.5577C76.9658 61.3619 77.1082 61.2552 77.2683 61.2552C78.158 61.2552 78.6918 61.4687 78.8697 61.8957C79.012 62.216 79.0832 62.4651 79.1366 62.6786C79.1722 62.8921 79.2078 63.1057 79.2078 63.337C79.2078 63.5505 79.2256 63.8174 79.2256 64.0843C79.2256 64.369 79.2611 64.7426 79.3323 65.1875C79.528 66.8244 79.6704 68.4614 79.7593 70.0983C79.8483 71.7353 79.9017 73.4968 79.9017 75.3651C79.9017 76.5216 79.5458 77.5002 78.8519 78.2831C78.6384 78.5322 78.4249 78.7458 78.2291 78.9237C78.0334 79.1016 77.8377 79.2439 77.6064 79.3507C77.3751 79.4575 77.126 79.5464 76.8591 79.582C76.5744 79.6176 76.2363 79.6532 75.8271 79.6532V77.8561H75.8449Z" fill="white"/>
<path d="M82.4642 78.5146C82.5353 78.0876 82.6421 77.6962 82.7667 77.3403C82.8912 76.9844 82.9624 76.6286 82.998 76.2549C82.9624 75.2229 82.9268 74.2265 82.8912 73.3013C82.8556 72.376 82.8023 71.4864 82.7489 70.6323C82.6955 69.7782 82.6421 68.942 82.5709 68.1235C82.4998 67.305 82.4464 66.4865 82.3752 65.6503C82.3574 65.5079 82.3574 65.3656 82.3396 65.2232C82.3396 65.0809 82.3218 64.9563 82.304 64.8318C82.1439 64.7606 81.966 64.6716 81.7525 64.6005C81.5567 64.5115 81.361 64.4225 81.2009 64.3336C81.0229 64.2446 80.8806 64.1201 80.7738 63.9955C80.6671 63.871 80.6137 63.7108 80.6137 63.5329C80.6137 63.3372 80.6493 63.1058 80.7205 62.8567C80.7916 62.5898 80.8806 62.3585 81.0051 62.1272C81.1297 61.8959 81.2898 61.7002 81.4678 61.5401C81.6457 61.3799 81.8592 61.291 82.0727 61.291C82.3396 61.291 82.5531 61.3621 82.7311 61.5045C82.909 61.6468 83.0514 61.8425 83.1581 62.0739C83.2649 62.3052 83.3538 62.5721 83.4072 62.8567C83.4606 63.1414 83.4962 63.4261 83.514 63.693C83.5496 64.6183 83.5851 65.5257 83.6207 66.3976C83.6563 67.2694 83.6919 68.1413 83.7453 69.0487C83.7809 69.9384 83.8342 70.8814 83.8876 71.86C83.941 72.8387 83.9944 73.9062 84.03 75.0628C84.0478 75.6678 84.1011 76.1482 84.1723 76.4684C84.2613 76.8065 84.3502 77.0734 84.4392 77.2513C84.5282 77.4471 84.6171 77.5894 84.6883 77.6962C84.7595 77.8029 84.7951 77.9275 84.7951 78.0698C84.7773 78.1588 84.7595 78.3011 84.7061 78.4791C84.6705 78.657 84.5993 78.8527 84.5104 79.0306C84.4214 79.2086 84.3324 79.3687 84.1901 79.5111C84.0656 79.6534 83.9232 79.7068 83.7809 79.689C83.3538 79.6 83.0158 79.4755 82.7845 79.2975C82.5709 79.1552 82.4642 78.8883 82.4642 78.5146Z" fill="white"/>
<path d="M90.4714 76.5214C90.4714 75.6139 90.5959 74.7243 90.845 73.8346C91.0941 72.945 91.4678 72.1621 91.966 71.4682C92.4642 70.7742 93.087 70.2048 93.8165 69.7778C94.5638 69.3508 95.4178 69.1373 96.4143 69.1373C96.4498 69.1551 96.521 69.1906 96.61 69.244C96.6989 69.2974 96.7701 69.3508 96.8591 69.4397C96.948 69.5109 97.0192 69.5999 97.0726 69.7066C97.126 69.8134 97.1616 69.9202 97.1616 70.0269C97.1616 70.1159 97.126 70.2048 97.0192 70.3116C96.9303 70.4006 96.8235 70.4895 96.6989 70.5785C96.5744 70.6675 96.4498 70.7208 96.3075 70.7742C96.1651 70.8276 96.0762 70.8454 95.9872 70.8454C95.8983 70.8454 95.8093 70.8098 95.7381 70.7386C95.667 70.6675 95.578 70.6319 95.489 70.6319C94.8663 70.6319 94.2969 70.8098 93.7631 71.1479C93.2293 71.4859 92.7845 71.913 92.4108 72.429C92.0372 72.945 91.7347 73.5144 91.539 74.1371C91.3254 74.7599 91.2187 75.347 91.2187 75.8986C91.2187 76.7705 91.3254 77.5712 91.5568 78.2651C91.7881 78.9768 92.1261 79.5818 92.5532 80.08C92.998 80.596 93.5318 80.9874 94.1723 81.2543C94.8129 81.5212 95.5424 81.6636 96.3431 81.6636C96.5566 81.6636 96.8413 81.628 97.2149 81.5568C97.5886 81.4856 97.9622 81.3789 98.3537 81.2187C98.7451 81.0586 99.0654 80.8629 99.3323 80.6138C99.5992 80.3647 99.7416 80.0622 99.7416 79.7063C99.7416 79.5284 99.6526 79.4038 99.4569 79.3149C99.2611 79.2259 99.0298 79.1725 98.7451 79.1192C98.4605 79.0658 98.158 79.0124 97.8199 78.9412C97.4818 78.8701 97.1616 78.7633 96.8947 78.621C96.61 78.4786 96.3787 78.2829 96.183 78.0338C95.9872 77.7847 95.8983 77.4288 95.8983 76.984C95.9338 76.6281 95.9872 76.2189 96.0762 75.7563C96.1652 75.2937 96.3431 74.8132 96.61 74.315C96.8769 73.8168 97.2505 73.3008 97.7487 72.7848C98.2469 72.2688 98.8875 71.7884 99.706 71.3436C99.8661 71.3436 99.9729 71.3614 100.044 71.3792C100.097 71.4148 100.151 71.4682 100.186 71.5393C100.507 72.0731 100.756 72.5002 100.934 72.8382C101.129 73.1763 101.272 73.4432 101.379 73.6389C101.485 73.8346 101.556 73.9948 101.574 74.0837C101.61 74.1727 101.61 74.2617 101.61 74.315C101.61 74.404 101.61 74.5108 101.592 74.6353C101.574 74.7599 101.556 74.8844 101.521 74.9912C101.485 75.0979 101.432 75.2047 101.379 75.2759C101.325 75.3648 101.236 75.4004 101.129 75.4004C100.863 75.3648 100.631 75.2403 100.453 75.0446C100.275 74.8488 100.115 74.6531 99.9907 74.4396C99.8483 74.2261 99.7416 74.0481 99.617 73.8702C99.5102 73.6923 99.3857 73.6211 99.2433 73.6211C99.012 73.6211 98.7807 73.7101 98.5494 73.8702C98.3359 74.0304 98.1224 74.2261 97.9445 74.4752C97.7665 74.7065 97.6064 74.9734 97.464 75.2403C97.3217 75.5072 97.2327 75.7563 97.1794 75.9698C97.1794 76.2901 97.2683 76.5036 97.4285 76.6459C97.6064 76.7883 97.8199 76.8772 98.069 76.9662C98.3359 77.0374 98.6028 77.1086 98.9231 77.1441C99.2256 77.1797 99.5102 77.2865 99.7771 77.411C100.044 77.5534 100.258 77.7491 100.418 77.9982C100.596 78.2651 100.667 78.6388 100.667 79.1192C100.667 79.8487 100.56 80.4892 100.347 81.0408C100.133 81.5924 99.8483 82.055 99.4747 82.4287C99.101 82.8023 98.6562 83.087 98.1402 83.2827C97.6242 83.4785 97.0548 83.5674 96.4498 83.5674C94.3859 83.5674 92.8734 82.9625 91.8948 81.7347C90.9162 80.507 90.4714 78.7633 90.4714 76.5214ZM95.6492 85.6136C95.6492 85.9161 95.5602 86.1474 95.3645 86.3431C95.1687 86.5389 94.9196 86.6278 94.6172 86.6278C94.3325 86.6278 94.0834 86.5389 93.8876 86.3431C93.6919 86.1474 93.603 85.8983 93.603 85.6136C93.603 85.2934 93.6919 85.0442 93.8876 84.8663C94.0834 84.6706 94.3147 84.5816 94.6172 84.5816C94.9196 84.5816 95.1687 84.6706 95.3645 84.8663C95.5602 85.0442 95.6492 85.3111 95.6492 85.6136ZM98.2647 85.6136C98.2647 85.9161 98.1758 86.1474 97.98 86.3431C97.7843 86.5389 97.553 86.6278 97.2505 86.6278C96.9481 86.6278 96.7167 86.5389 96.521 86.3431C96.3253 86.1474 96.2185 85.8983 96.2185 85.6136C96.2185 85.2934 96.3253 85.0442 96.521 84.8663C96.7167 84.6706 96.9658 84.5816 97.2505 84.5816C97.5352 84.5816 97.7843 84.6706 97.98 84.8663C98.1758 85.0442 98.2647 85.3111 98.2647 85.6136Z" fill="white"/>
<path d="M109.153 79.7066C109.011 80.6852 108.709 81.6638 108.228 82.6247C107.73 83.6033 107.125 84.4751 106.378 85.2402C105.63 86.0053 104.794 86.6281 103.869 87.1085C102.944 87.5889 101.965 87.8202 100.951 87.8202C100.132 87.8202 99.3495 87.6601 98.6022 87.322L98.5666 86.7704C99.1182 86.9484 99.6876 87.0373 100.275 87.0373C101.2 87.0373 102.125 86.8238 103.015 86.3968C103.905 85.9698 104.687 85.4182 105.364 84.7242C106.04 84.0303 106.591 83.2474 107 82.3756C107.41 81.5037 107.623 80.5963 107.623 79.6888C107.41 79.7244 107.214 79.7422 107.036 79.7422C106.858 79.7422 106.662 79.76 106.467 79.76C106.093 79.76 105.737 79.7244 105.399 79.6354C105.061 79.5465 104.759 79.4219 104.492 79.2262C104.225 79.0305 104.011 78.7814 103.851 78.4789C103.691 78.1764 103.62 77.785 103.62 77.3401C103.62 76.8953 103.655 76.4505 103.727 76.0056C103.798 75.5608 103.922 75.1516 104.118 74.7779C104.296 74.4043 104.545 74.1018 104.865 73.8705C105.186 73.6392 105.577 73.5324 106.04 73.5324C106.591 73.5324 107.072 73.6748 107.481 73.9239C107.89 74.1908 108.228 74.5288 108.495 74.9559C108.762 75.3829 108.958 75.8455 109.1 76.3437C109.242 76.8419 109.314 77.3401 109.349 77.8383H110.684V79.6888H109.153V79.7066ZM106.698 75.6676C106.573 75.6142 106.413 75.5608 106.2 75.543C105.986 75.5252 105.773 75.543 105.541 75.5786C105.328 75.632 105.114 75.7388 104.936 75.8989C104.759 76.059 104.634 76.3081 104.563 76.6284C104.598 77.1266 104.812 77.4647 105.186 77.6248C105.559 77.7849 105.986 77.8561 106.467 77.8205C106.645 77.8027 106.823 77.785 106.983 77.785C107.143 77.7672 107.303 77.7316 107.428 77.6782C107.57 77.6248 107.677 77.5536 107.748 77.4825C107.837 77.3935 107.872 77.2868 107.872 77.1444C107.872 76.8241 107.748 76.5216 107.516 76.237C107.285 75.9879 107.018 75.7921 106.698 75.6676Z" fill="white"/>
<path d="M114.046 75.1697C114.171 75.0985 114.296 75.0629 114.42 75.0629C114.634 75.0629 114.776 75.1341 114.865 75.2764C114.954 75.4188 115.007 75.5611 115.007 75.7391C115.007 75.8992 114.989 76.0593 114.936 76.2017C114.883 76.344 114.829 76.4508 114.794 76.5042C114.989 77.0557 115.31 77.4294 115.772 77.6429C116.128 77.8031 116.573 77.892 117.125 77.892V79.7425H116.626C115.826 79.7425 115.185 79.6002 114.687 79.2977C114.189 78.9952 113.833 78.5148 113.584 77.8386C113.335 77.981 113.086 78.1411 112.854 78.3546C112.623 78.5682 112.392 78.7817 112.16 78.9952C111.929 79.2087 111.68 79.3866 111.413 79.529C111.146 79.6713 110.861 79.7425 110.541 79.7425H110.114V77.892C110.915 77.892 111.751 77.4116 112.623 76.4508C113.388 75.7035 113.869 75.2764 114.046 75.1697ZM114.26 81.3439C114.26 81.6464 114.171 81.8777 113.975 82.0734C113.78 82.2691 113.53 82.3581 113.246 82.3581C112.943 82.3581 112.712 82.2691 112.516 82.0734C112.321 81.8777 112.232 81.6286 112.232 81.3439C112.232 81.0236 112.321 80.7745 112.516 80.5966C112.712 80.4008 112.961 80.3119 113.246 80.3119C113.548 80.3119 113.78 80.4008 113.975 80.5966C114.171 80.7745 114.26 81.0414 114.26 81.3439Z" fill="white"/>
<path d="M120.363 75.1688C120.488 75.0976 120.613 75.062 120.737 75.062C120.951 75.062 121.093 75.1332 121.182 75.2755C121.271 75.4179 121.324 75.5602 121.324 75.7382C121.324 75.8983 121.307 76.0584 121.253 76.2008C121.2 76.3431 121.146 76.4499 121.111 76.5033C121.307 77.0548 121.627 77.4285 122.089 77.642C122.445 77.8022 122.89 77.8911 123.442 77.8911V79.7416H122.943C122.143 79.7416 121.502 79.5993 121.004 79.2968C120.506 78.9943 120.15 78.5139 119.901 77.8377C119.652 77.9801 119.403 78.1402 119.171 78.3537C118.94 78.5673 118.709 78.7808 118.477 78.9943C118.246 79.2078 117.997 79.3857 117.73 79.5281C117.463 79.6704 117.179 79.7416 116.858 79.7416H116.431V77.8911C117.232 77.8911 118.068 77.4107 118.94 76.4499C119.705 75.7026 120.186 75.2755 120.363 75.1688ZM121.36 72.9447C121.36 73.2649 121.271 73.4962 121.075 73.692C120.879 73.8699 120.63 73.9766 120.328 73.9766C120.043 73.9766 119.794 73.8877 119.598 73.692C119.403 73.514 119.314 73.2649 119.314 72.9447C119.314 72.6244 119.403 72.3753 119.598 72.1973C119.794 72.0016 120.025 71.9127 120.328 71.9127C120.63 71.9127 120.879 72.0016 121.075 72.1973C121.253 72.3753 121.36 72.6244 121.36 72.9447Z" fill="white"/>
<path d="M122.854 77.8561C123.192 77.8561 123.548 77.8027 123.904 77.696C124.26 77.5892 124.58 77.4469 124.829 77.2511C125.096 77.0554 125.328 76.8063 125.523 76.5038C125.719 76.2013 125.861 75.8989 125.95 75.5964C125.932 75.2049 125.915 74.6178 125.879 73.7993C125.844 72.9986 125.808 72.0912 125.737 71.0947C125.666 70.0983 125.577 69.0663 125.488 67.9988C125.381 66.9312 125.239 65.9526 125.061 65.0451C124.972 64.8316 124.829 64.707 124.651 64.6537C124.473 64.6003 124.278 64.5291 124.082 64.4757C123.886 64.4224 123.726 64.3156 123.566 64.191C123.424 64.0487 123.352 63.8174 123.352 63.4615C123.352 63.3904 123.37 63.2302 123.406 62.9989C123.441 62.7676 123.495 62.5185 123.584 62.2516C123.673 61.9847 123.762 61.7534 123.868 61.5577C123.975 61.3619 124.118 61.2552 124.278 61.2552C125.167 61.2552 125.701 61.4687 125.879 61.8957C126.021 62.216 126.093 62.4651 126.146 62.6786C126.182 62.8921 126.217 63.1057 126.217 63.337C126.217 63.5505 126.235 63.8174 126.235 64.0843C126.235 64.369 126.271 64.7426 126.342 65.1875C126.537 66.8244 126.68 68.4614 126.769 70.0983C126.858 71.7353 126.911 73.4968 126.911 75.3651C126.911 76.5216 126.555 77.5002 125.861 78.2831C125.648 78.5322 125.434 78.7458 125.239 78.9237C125.043 79.1016 124.847 79.2439 124.616 79.3507C124.384 79.4575 124.135 79.5464 123.868 79.582C123.584 79.6176 123.246 79.6532 122.836 79.6532V77.8561H122.854Z" fill="white"/>
<path d="M129.456 78.5146C129.527 78.0876 129.634 77.6962 129.758 77.3403C129.883 76.9844 129.954 76.6286 129.989 76.2549C129.954 75.2229 129.918 74.2265 129.883 73.3013C129.847 72.376 129.794 71.4864 129.74 70.6323C129.687 69.7782 129.634 68.942 129.562 68.1235C129.491 67.305 129.438 66.4865 129.367 65.6503C129.349 65.5079 129.349 65.3656 129.331 65.2232C129.331 65.0809 129.313 64.9563 129.296 64.8318C129.135 64.7606 128.957 64.6716 128.744 64.6005C128.548 64.5115 128.352 64.4225 128.192 64.3336C128.014 64.2446 127.872 64.1201 127.765 63.9955C127.659 63.871 127.605 63.7108 127.605 63.5329C127.605 63.3372 127.641 63.1058 127.712 62.8567C127.783 62.5898 127.872 62.3585 127.997 62.1272C128.121 61.8959 128.281 61.7002 128.459 61.5401C128.637 61.3799 128.851 61.291 129.064 61.291C129.331 61.291 129.545 61.3621 129.723 61.5045C129.9 61.6468 130.043 61.8425 130.15 62.0739C130.256 62.3052 130.345 62.5721 130.399 62.8567C130.452 63.1414 130.488 63.4261 130.505 63.693C130.541 64.6183 130.577 65.5257 130.612 66.3976C130.648 67.2694 130.683 68.1413 130.737 69.0487C130.772 69.9384 130.826 70.8814 130.879 71.86C130.932 72.8387 130.986 73.9062 131.021 75.0628C131.039 75.6678 131.093 76.1482 131.164 76.4684C131.253 76.8065 131.342 77.0734 131.431 77.2513C131.52 77.4471 131.609 77.5894 131.68 77.6962C131.751 77.8029 131.787 77.9275 131.787 78.0698C131.769 78.1588 131.751 78.3011 131.698 78.4791C131.662 78.657 131.591 78.8527 131.502 79.0306C131.413 79.2086 131.324 79.3687 131.182 79.5111C131.057 79.6534 130.915 79.7068 130.772 79.689C130.345 79.6 130.007 79.4755 129.776 79.2975C129.562 79.1552 129.456 78.8883 129.456 78.5146Z" fill="white"/>
<path d="M154.971 79.7063C154.597 79.7063 154.277 79.7063 154.01 79.6885C153.743 79.6707 153.494 79.6529 153.281 79.6173C153.067 79.5817 152.871 79.5283 152.693 79.4572C152.515 79.386 152.337 79.2792 152.142 79.1725C151.964 79.0657 151.804 78.9412 151.661 78.7988C151.519 78.6565 151.394 78.5141 151.27 78.3718C151.145 78.2294 151.056 78.1227 150.95 78.0337C150.861 77.9448 150.789 77.8914 150.736 77.8914C150.078 78.265 149.491 78.5675 148.957 78.7988C148.423 79.0301 147.925 79.2258 147.48 79.3504C147.035 79.4927 146.608 79.5817 146.199 79.6351C145.807 79.6885 145.416 79.7063 145.042 79.7063C143.957 79.7063 142.961 79.5105 142.035 79.1369C141.11 78.7454 140.327 78.2294 139.651 77.5533C138.975 76.8772 138.459 76.0765 138.085 75.1512C137.712 74.226 137.516 73.2118 137.516 72.1442C137.516 71.3435 137.676 70.4717 138.014 69.5286C138.334 68.5856 138.797 67.7137 139.366 66.8953C139.936 66.0768 140.612 65.4006 141.377 64.8491C142.142 64.2975 142.978 64.0306 143.886 64.0306C144.402 64.0306 144.669 64.1373 144.669 64.3509C144.669 64.4932 144.544 64.6177 144.313 64.7245C143.494 64.8313 142.747 65.0804 142.053 65.4896C141.359 65.8989 140.772 66.4148 140.256 67.0554C139.74 67.6959 139.349 68.4077 139.046 69.2262C138.761 70.0268 138.619 70.8809 138.619 71.7706C138.619 72.678 138.797 73.4965 139.171 74.2438C139.526 74.9911 140.025 75.6317 140.63 76.1832C141.252 76.717 141.946 77.1441 142.747 77.4465C143.548 77.749 144.366 77.9092 145.256 77.9092C145.79 77.9092 146.288 77.8736 146.75 77.7846C147.213 77.6956 147.676 77.5889 148.103 77.4288C148.548 77.2686 148.975 77.0729 149.402 76.8238C149.829 76.5747 150.273 76.3078 150.718 75.9875C151.11 75.7206 151.43 75.5427 151.679 75.4359C151.928 75.347 152.124 75.2936 152.231 75.2936C152.355 75.2936 152.444 75.3292 152.515 75.4003C152.587 75.4715 152.64 75.5605 152.676 75.6494C152.711 75.7384 152.729 75.8452 152.747 75.9519C152.747 76.0587 152.765 76.1299 152.765 76.1654C152.765 76.3256 152.729 76.4857 152.658 76.6281C152.587 76.7704 152.551 76.9128 152.551 77.0551C152.551 77.1797 152.622 77.2864 152.747 77.3754C152.889 77.4643 153.049 77.5533 153.245 77.6245C153.441 77.6956 153.654 77.7668 153.885 77.8024C154.117 77.838 154.295 77.8736 154.455 77.8736H154.971V79.7063ZM147.871 70.5606C147.871 70.8631 147.782 71.0944 147.587 71.2901C147.391 71.4859 147.142 71.5748 146.857 71.5748C146.555 71.5748 146.323 71.4859 146.128 71.2901C145.932 71.0944 145.843 70.8453 145.843 70.5606C145.843 70.2404 145.932 69.9913 146.128 69.8133C146.323 69.6176 146.573 69.5286 146.857 69.5286C147.16 69.5286 147.391 69.6176 147.587 69.8133C147.765 69.9913 147.871 70.2404 147.871 70.5606ZM149.206 68.4433C149.206 68.7457 149.117 68.977 148.921 69.1728C148.725 69.3685 148.494 69.4575 148.192 69.4575C147.889 69.4575 147.64 69.3685 147.444 69.1728C147.249 68.977 147.16 68.7279 147.16 68.4433C147.16 68.123 147.249 67.8739 147.444 67.6959C147.64 67.5002 147.889 67.4113 148.192 67.4113C148.476 67.4113 148.725 67.5002 148.921 67.6959C149.099 67.8739 149.206 68.1408 149.206 68.4433ZM150.469 70.5606C150.469 70.8631 150.38 71.0944 150.185 71.2901C149.989 71.4859 149.757 71.5748 149.455 71.5748C149.153 71.5748 148.903 71.4859 148.708 71.2901C148.512 71.0944 148.423 70.8453 148.423 70.5606C148.423 70.2404 148.512 69.9913 148.708 69.8133C148.903 69.6176 149.153 69.5286 149.455 69.5286C149.74 69.5286 149.989 69.6176 150.185 69.8133C150.38 69.9913 150.469 70.2404 150.469 70.5606Z" fill="white"/>
<path d="M154.491 77.8564H157.249C157.48 77.8564 157.729 77.8208 157.996 77.7497C158.263 77.6785 158.494 77.5717 158.725 77.4294C158.939 77.2871 159.135 77.1091 159.295 76.9134C159.455 76.7177 159.562 76.4864 159.615 76.2373C159.58 75.7213 159.348 75.2764 158.939 74.9206C158.903 74.885 158.832 74.8316 158.743 74.7782C158.654 74.7249 158.583 74.6715 158.494 74.6003C158.405 74.5291 158.334 74.458 158.263 74.3868C158.192 74.3156 158.156 74.2445 158.156 74.1733C158.156 74.1021 158.174 73.9954 158.192 73.853C158.227 73.7107 158.245 73.5683 158.281 73.4082C158.316 73.248 158.352 73.1057 158.387 72.9811C158.423 72.8566 158.459 72.7676 158.494 72.732C158.548 72.5897 158.637 72.5363 158.761 72.5363C158.992 72.6253 159.241 72.7854 159.473 72.9989C159.704 73.2124 159.918 73.4616 160.113 73.7462C160.309 74.0131 160.469 74.2978 160.576 74.5825C160.701 74.8672 160.754 75.0985 160.754 75.2942C160.629 76.0949 160.398 76.86 160.024 77.6073C159.669 78.3546 159.117 78.924 158.405 79.3511C158.192 79.4756 157.854 79.5646 157.373 79.6357C157.142 79.6713 156.768 79.6891 156.27 79.7069C155.772 79.7247 155.167 79.7247 154.455 79.7247V77.8564H154.491ZM157.16 82.0022C157.16 82.3047 157.071 82.5538 156.875 82.7317C156.679 82.9275 156.43 83.0164 156.145 83.0164C155.843 83.0164 155.612 82.9275 155.416 82.7317C155.22 82.536 155.131 82.3047 155.131 82.0022C155.131 81.6819 155.22 81.4328 155.416 81.2371C155.612 81.0414 155.861 80.9524 156.145 80.9524C156.448 80.9524 156.679 81.0414 156.875 81.2371C157.071 81.4328 157.16 81.6819 157.16 82.0022ZM159.437 81.931C159.437 82.2335 159.348 82.4826 159.153 82.6606C158.957 82.8563 158.708 82.9453 158.423 82.9453C158.121 82.9453 157.889 82.8563 157.693 82.6606C157.498 82.4648 157.409 82.2335 157.409 81.931C157.409 81.6108 157.498 81.3617 157.693 81.1659C157.889 80.9702 158.138 80.8813 158.423 80.8813C158.725 80.8813 158.957 80.9702 159.153 81.1659C159.33 81.3617 159.437 81.6286 159.437 81.931Z" fill="white"/>
<path d="M165.486 67.4825C165.362 67.8206 165.291 68.1586 165.237 68.4789C165.202 68.7992 165.166 69.1373 165.166 69.4753C165.166 70.187 165.273 70.881 165.504 71.5393C165.735 72.2155 166.056 72.8026 166.483 73.3542C166.91 73.888 167.426 74.3506 168.031 74.7421C168.636 75.1157 169.312 75.3826 170.077 75.5072C170.29 75.5428 170.575 75.5783 170.895 75.5783H171.589C171.785 75.7385 171.91 75.9164 171.963 76.0943C172.016 76.2723 172.052 76.4502 172.052 76.6459C172.052 76.8416 172.034 77.0374 171.981 77.2153C171.945 77.411 171.874 77.589 171.803 77.7491C171.66 77.7847 171.536 77.7847 171.465 77.7847C171.554 77.8203 171.66 77.8559 171.785 77.8559C171.91 77.8559 172.034 77.8736 172.176 77.8736C172.39 77.8736 172.586 77.8737 172.781 77.8559C172.977 77.8381 173.119 77.8381 173.208 77.8381V79.6885C173.119 79.7063 173.031 79.7063 172.959 79.7063C172.87 79.7063 172.799 79.7063 172.71 79.7063C171.963 79.6885 171.322 79.5284 170.806 79.2081C170.29 78.8879 169.952 78.443 169.774 77.8914C169.685 77.8914 169.507 77.9092 169.241 77.927C168.974 77.9448 168.689 77.9626 168.369 77.9982C168.048 78.0338 167.764 78.0338 167.497 78.0516C167.23 78.0694 167.052 78.0694 166.981 78.0694C166.874 78.0694 166.785 78.0694 166.696 78.0872C166.607 78.0872 166.536 78.105 166.465 78.1405C166.073 78.5676 165.664 78.9056 165.237 79.1369C164.81 79.3683 164.401 79.4928 164.009 79.4928C163.778 79.4928 163.547 79.4572 163.315 79.3683C163.084 79.2793 162.871 79.1547 162.693 78.9946C162.515 78.8167 162.355 78.6032 162.248 78.3541C162.141 78.0872 162.088 77.7847 162.088 77.4288C162.088 76.8061 162.23 76.3257 162.515 76.0054C162.799 75.6851 163.173 75.5072 163.618 75.5072C163.725 75.5428 163.814 75.5961 163.92 75.6673C164.009 75.7385 164.116 75.8097 164.241 75.8808C164.347 75.952 164.49 76.0232 164.65 76.0766C164.81 76.1299 165.006 76.1655 165.255 76.1655C165.308 76.1655 165.415 76.1655 165.575 76.1477C165.735 76.1477 165.895 76.1299 166.073 76.1299C166.251 76.1299 166.411 76.1121 166.572 76.0943C166.714 76.0766 166.821 76.0588 166.856 76.0232C166.323 75.5428 165.878 75.0446 165.54 74.493C165.184 73.9592 164.917 73.4076 164.703 72.8382C164.49 72.2688 164.347 71.7173 164.276 71.1657C164.187 70.6141 164.152 70.0981 164.152 69.5999C164.152 69.3508 164.17 69.0127 164.187 68.5857C164.223 68.1586 164.276 67.7138 164.347 67.2512C164.436 66.7886 164.543 66.3082 164.668 65.8278C164.81 65.3473 164.97 64.9203 165.166 64.5289C165.362 64.1374 165.593 63.8349 165.86 63.5858C166.127 63.3367 166.429 63.2122 166.785 63.2122C166.945 63.2122 167.105 63.3011 167.283 63.4613C167.443 63.6392 167.532 63.8705 167.532 64.1552C167.532 64.3154 167.443 64.5289 167.283 64.7602C167.105 65.0093 166.91 65.2762 166.696 65.5609C166.483 65.8455 166.251 66.148 166.02 66.4683C165.771 66.8598 165.593 67.18 165.486 67.4825Z" fill="white"/>
<path d="M171.999 77.8565H174.223C173.867 77.3938 173.564 76.9134 173.298 76.4152C173.031 75.917 172.906 75.3298 172.906 74.6715C172.906 74.3512 172.959 73.9954 173.084 73.5683C173.209 73.1413 173.386 72.7321 173.618 72.3406C173.849 71.9492 174.152 71.6111 174.49 71.3442C174.828 71.0773 175.219 70.935 175.646 70.935C175.949 70.935 176.198 71.0239 176.429 71.2196C176.643 71.4154 176.892 71.6111 177.141 71.789C177.461 72.0381 177.746 72.2516 178.013 72.394C178.28 72.5541 178.564 72.6787 178.849 72.7676C179.134 72.8566 179.418 72.9278 179.721 72.9634C180.023 72.999 180.361 73.0167 180.735 73.0167C181.251 73.0167 181.767 72.9812 182.301 72.9278C182.817 72.8744 183.315 72.7854 183.778 72.6787C184.24 72.5719 184.667 72.4296 185.059 72.2694C185.45 72.1093 185.753 71.9314 185.984 71.7356C185.842 68.8354 185.664 66.6646 185.486 65.2234C185.308 63.7821 185.148 63.0348 185.023 62.9815C184.899 62.9459 184.756 62.8569 184.596 62.7324C184.436 62.6078 184.276 62.4655 184.116 62.3053C183.956 62.1452 183.831 61.985 183.724 61.8071C183.618 61.647 183.564 61.5046 183.564 61.4157C183.617 61.0242 183.671 60.6861 183.724 60.437C183.76 60.1879 183.831 59.9922 183.938 59.8321C184.027 59.6897 184.169 59.583 184.329 59.5118C184.489 59.4406 184.721 59.405 185.005 59.3695C185.326 59.4406 185.557 59.583 185.753 59.7787C185.931 59.9744 186.091 60.2057 186.197 60.4726C186.304 60.7395 186.393 61.0064 186.429 61.2911C186.464 61.5758 186.518 61.8427 186.536 62.1096C186.589 62.679 186.642 63.2483 186.696 63.8355C186.749 64.4227 186.802 65.0455 186.891 65.7216C187.105 67.5365 187.283 69.3692 187.461 71.2196C187.639 73.0523 187.834 74.9206 188.03 76.8244C188.048 76.9668 188.101 77.1625 188.208 77.376C188.315 77.5896 188.439 77.8031 188.6 77.981C188.76 78.1767 188.955 78.3369 189.187 78.4792C189.418 78.6216 189.667 78.6749 189.952 78.6749C190.379 78.6749 190.735 78.586 191.037 78.4258C191.322 78.2479 191.553 78.0344 191.731 77.7497C191.909 77.4828 192.034 77.1625 192.105 76.7889C192.176 76.433 192.212 76.0593 192.212 75.6679C192.105 74.5647 192.016 73.4972 191.927 72.4474C191.838 71.3976 191.767 70.3656 191.678 69.3336C191.589 68.3016 191.482 67.2518 191.375 66.202C191.269 65.1344 191.126 64.049 190.966 62.9459C190.913 62.7323 190.788 62.6078 190.592 62.5544C190.414 62.501 190.219 62.4477 190.023 62.3943C189.827 62.3409 189.649 62.2519 189.507 62.1096C189.365 61.9673 189.276 61.7181 189.276 61.3623C189.276 61.2911 189.293 61.131 189.329 60.8997C189.365 60.6684 189.418 60.4193 189.507 60.1524C189.596 59.8855 189.685 59.6542 189.792 59.4584C189.898 59.2627 190.041 59.1559 190.201 59.1559C191.091 59.1559 191.624 59.3695 191.802 59.7965C191.909 60.1168 191.98 60.3481 191.998 60.526C192.034 60.7039 192.051 60.8819 192.051 61.042C192.051 61.2199 192.069 61.4157 192.087 61.6292C192.105 61.8427 192.14 62.163 192.229 62.5366C192.478 64.7963 192.728 67.0205 192.959 69.2446C193.19 71.4687 193.386 73.764 193.528 76.1127V76.3974C193.528 76.9312 193.439 77.4472 193.279 77.9454C193.119 78.4436 192.888 78.8884 192.603 79.2621C192.318 79.6535 191.98 79.956 191.607 80.1873C191.215 80.4187 190.806 80.5254 190.361 80.5254C189.382 80.5254 188.635 80.3119 188.119 79.9027C187.603 79.4934 187.229 78.9596 186.998 78.3013C186.767 77.6429 186.607 76.9134 186.536 76.1127C186.464 75.312 186.393 74.5114 186.322 73.7285C186.304 73.5505 186.251 73.4616 186.144 73.4616C186.091 73.4616 186.037 73.4616 185.984 73.4794C185.148 73.764 184.294 73.9954 183.422 74.1733C182.55 74.3512 181.66 74.458 180.771 74.458C179.845 74.458 178.956 74.3334 178.084 74.0843C177.212 73.8352 176.376 73.4082 175.593 72.8032C175.201 72.8388 174.952 72.9989 174.81 73.248C174.668 73.4972 174.596 73.8352 174.596 74.28C174.596 74.6537 174.703 74.9918 174.917 75.2765C175.13 75.5789 175.397 75.8458 175.735 76.0771C176.073 76.3085 176.447 76.522 176.838 76.6999C177.248 76.8778 177.639 77.0202 178.048 77.1269C178.44 77.2337 178.796 77.3227 179.134 77.376C179.454 77.4294 179.721 77.465 179.917 77.465C180.664 77.465 181.429 77.3938 182.176 77.2693C182.924 77.1447 183.706 77.0736 184.525 77.0736C184.881 77.0736 185.237 77.1625 185.575 77.3405C185.913 77.5184 186.091 77.7853 186.091 78.1234C186.091 78.2657 186.073 78.4436 186.055 78.6216C186.02 78.7995 185.966 78.9774 185.895 79.1375C185.824 79.3155 185.717 79.4578 185.61 79.5646C185.486 79.6891 185.343 79.7425 185.148 79.7603C184.916 79.7603 184.721 79.7425 184.596 79.6891C184.472 79.6358 184.365 79.5824 184.294 79.5112C184.222 79.44 184.134 79.3867 184.062 79.3155C183.973 79.2621 183.867 79.2265 183.724 79.2265L181.055 79.4222C179.561 79.5468 178.297 79.618 177.248 79.6358C176.216 79.6713 175.29 79.6713 174.507 79.6713C174.009 79.6713 173.564 79.6713 173.155 79.6535C172.746 79.6535 172.355 79.6358 171.963 79.6358V77.8565H171.999Z" fill="white"/>
</svg>
