<svg width="156" height="83" viewBox="0 0 156 83" fill="none" xmlns="http://www.w3.org/2000/svg">
<path d="M119.785 2.22146L119.786 2.22146L119.786 2.22147L119.796 2.22159C119.809 2.22179 119.833 2.2223 119.868 2.22357C119.937 2.22613 120.049 2.23175 120.199 2.24408C120.499 2.26877 120.951 2.32028 121.522 2.42763C122.665 2.64245 124.28 3.07966 126.112 3.96876C129.749 5.73492 134.327 9.3247 137.753 16.7052C138 17.2367 138.241 17.7571 138.478 18.2668C143.75 29.6391 146.564 35.7088 153.221 41.7092C152.655 42.3704 152.103 42.9955 151.557 43.6141C150.054 45.3171 148.595 46.9697 147 49.1839C144.462 52.7079 141.476 57.758 136.912 67.1543L136.896 67.1869L136.882 67.2203C134.267 73.3381 131.942 76.6784 129.349 78.5415C126.8 80.3729 123.777 80.9308 119.33 80.9308H35.9866C31.5394 80.9308 28.5167 80.3729 25.9678 78.5415C23.3749 76.6784 21.0491 73.3381 18.4346 67.2203L18.4207 67.1878L18.4053 67.1559C13.8413 57.7319 10.8556 52.6669 8.31636 49.1417C6.69926 46.8967 5.22567 45.2388 3.70359 43.5262C3.17884 42.9358 2.64832 42.3389 2.10418 41.7092C8.91218 35.6201 11.7591 29.4578 17.1924 17.6972C17.3519 17.3519 17.5136 17.0018 17.6778 16.6468L17.7022 16.5939L17.7225 16.5392C20.606 8.76839 25.1433 5.23158 28.8574 3.59307C30.7356 2.76448 32.4367 2.40752 33.6595 2.25763C34.27 2.18278 34.758 2.15998 35.0848 2.15529C35.2481 2.15296 35.3706 2.15515 35.4476 2.15758C35.4861 2.15879 35.5131 2.16007 35.5281 2.16086L35.5379 2.16136L35.5393 2.16146L35.5408 2.16158L35.5412 2.16159L35.5414 2.16161L35.5418 2.16163L35.5903 2.16519L35.6445 2.16523L119.784 2.22148L119.785 2.22146Z" fill="#129D59" stroke="white" stroke-width="3"/>
<g clip-path="url(#clip0)">
<g filter="url(#filter0_d)">
<path d="M40.6255 24.307V29.6014H41.4261C41.5352 29.6014 41.6444 29.5832 41.7445 29.5374C41.8446 29.4917 41.9356 29.4368 42.0083 29.3637C42.0811 29.2905 42.1448 29.2082 42.1903 29.1168C42.2358 29.0162 42.254 28.9156 42.254 28.8059V24.307H43.5368V28.8059C43.5368 29.0894 43.4822 29.3637 43.373 29.6106C43.2638 29.8666 43.1092 30.0861 42.9181 30.269C42.7271 30.461 42.4996 30.6073 42.2449 30.717C41.9901 30.8268 41.7172 30.8816 41.4261 30.8816H37.6596C37.605 31.3022 37.4776 31.668 37.2684 31.9881C37.0591 32.3081 36.8044 32.5733 36.5042 32.7836C36.2039 32.9939 35.8582 33.1585 35.4852 33.2591C35.1122 33.3688 34.7301 33.4145 34.348 33.4145C33.9295 33.4145 33.5201 33.3505 33.1198 33.2317C32.7195 33.1128 32.3556 32.9208 32.0462 32.6739C31.7369 32.427 31.4822 32.1161 31.2911 31.7503C31.1001 31.3845 31 30.9456 31 30.4518V25.4957H32.2828V30.4518C32.2828 30.7353 32.3465 30.9822 32.4647 31.1925C32.583 31.4028 32.7377 31.5766 32.9378 31.7229C33.138 31.8692 33.3563 31.9698 33.602 32.0429C33.8476 32.1161 34.1023 32.1527 34.3571 32.1527C34.6209 32.1527 34.8757 32.1161 35.1213 32.0429C35.3669 31.9698 35.5853 31.8692 35.7854 31.7229C35.9856 31.5766 36.1312 31.4028 36.2585 31.1925C36.3768 30.9822 36.4405 30.7353 36.4405 30.4518V24.2979H37.7233V29.5923H39.3609V24.2979H40.6255V24.307Z" fill="white"/>
<path d="M45.3203 24.3066C46.1027 24.3066 46.7668 24.3706 47.3218 24.5078C47.8768 24.645 48.3316 24.837 48.6865 25.1022C49.0413 25.3674 49.296 25.6783 49.4598 26.0623C49.6235 26.4464 49.7054 26.8761 49.7054 27.3699V28.8055C49.7054 29.0982 49.6508 29.3633 49.5417 29.6194C49.4325 29.8754 49.2778 30.0949 49.0868 30.2777C48.8957 30.4698 48.6683 30.6161 48.4135 30.7258C48.1588 30.8355 47.8859 30.8904 47.5856 30.8904H44.9473V29.6102H47.5856C47.6948 29.6102 47.804 29.5919 47.904 29.5462C48.0041 29.5005 48.0951 29.4456 48.1679 29.3725C48.2407 29.2993 48.3043 29.217 48.3498 29.1164C48.3953 29.0159 48.4135 28.9153 48.4135 28.8055V27.3699C48.4135 27.0865 48.3589 26.8304 48.2407 26.611C48.1224 26.3915 47.9404 26.2086 47.6948 26.0532C47.4492 25.8977 47.1216 25.788 46.7304 25.7057C46.3392 25.6325 45.8661 25.5868 45.3112 25.5868V24.3066H45.3203Z" fill="white"/>
<path d="M52.3987 21.7461V28.7688C52.3987 28.8785 52.4169 28.9882 52.4624 29.0888C52.5079 29.1894 52.5625 29.2717 52.6352 29.354C52.708 29.4272 52.799 29.4912 52.8991 29.5277C52.9991 29.5735 53.0992 29.5917 53.2175 29.5917H53.8179V30.8719H53.2175C52.9264 30.8719 52.6534 30.8171 52.4078 30.7073C52.1531 30.5976 51.9347 30.4421 51.7437 30.2593C51.5526 30.0672 51.3979 29.8478 51.2888 29.5917C51.1796 29.3357 51.125 29.0614 51.125 28.7779V21.7552H52.3987V21.7461Z" fill="white"/>
<path d="M62.7692 24.3066V29.6011H64.0702V30.8813H53.2529V29.6011H55.6366V24.3066H56.9193V29.6011H58.5569V24.3066H59.8397V29.6011H61.4864V24.3066H62.7692Z" fill="white"/>
<path d="M66.1991 21.7464V28.7691C66.1991 29.0617 66.1445 29.3361 66.0353 29.583C65.9262 29.839 65.7715 30.0584 65.5896 30.2505C65.3985 30.4425 65.1802 30.5888 64.9163 30.6985C64.6616 30.8083 64.3887 30.8631 64.0975 30.8631H63.4971V29.583H64.0975C64.2067 29.583 64.3159 29.5647 64.4159 29.5189C64.516 29.4732 64.607 29.4184 64.6798 29.3452C64.7526 29.2721 64.8163 29.1806 64.8526 29.08C64.889 28.9794 64.9163 28.8697 64.9163 28.76V21.7373H66.1991V21.7464Z" fill="white"/>
<path d="M68.9019 21.7461V30.8719H67.6191V21.7461H68.9019Z" fill="white"/>
<path d="M72.8688 24.3066C73.6512 24.3066 74.3244 24.3706 74.8703 24.5078C75.4253 24.645 75.8802 24.837 76.2259 25.1022C76.5807 25.3582 76.8354 25.6783 76.9992 26.0623C77.163 26.4464 77.2448 26.8761 77.2448 27.3699V29.6102H78.5458V30.8904H72.5049V29.6102H75.9802V27.3699C75.9802 27.0865 75.9257 26.8304 75.8074 26.611C75.6891 26.3915 75.5072 26.2086 75.2524 26.0532C75.0068 25.8977 74.6793 25.788 74.288 25.7057C73.8968 25.6325 73.4238 25.5868 72.8688 25.5868V24.3066V24.3066Z" fill="white"/>
<path d="M77.9899 29.6014H79.4C79.3636 29.4733 79.3363 29.3362 79.3181 29.199C79.3 29.0618 79.2909 28.9155 79.2909 28.7784V27.3153C79.2909 26.9038 79.3636 26.5198 79.5183 26.154C79.673 25.7883 79.8822 25.4682 80.1461 25.203C80.4099 24.9287 80.7192 24.7184 81.074 24.5629C81.4288 24.4075 81.8109 24.3252 82.2112 24.3252C82.6116 24.3252 82.9937 24.4075 83.3485 24.5721C83.7033 24.7367 84.0126 24.9561 84.2856 25.2305C84.5494 25.5048 84.7677 25.8248 84.9133 26.1906C85.068 26.5564 85.1407 26.9313 85.1407 27.3336V28.815C85.1407 28.9613 85.1407 29.0984 85.1134 29.2356C85.0862 29.3727 85.0589 29.5008 85.0225 29.6288H86.4417V30.909H84.2946C84.0217 31.1833 83.7124 31.4027 83.3485 31.5673C82.9937 31.7319 82.6116 31.8142 82.2022 31.8142C81.7928 31.8142 81.4106 31.7319 81.0558 31.5765C80.701 31.421 80.3917 31.1924 80.1188 30.909H77.9717V29.6014H77.9899ZM82.2203 25.5962C81.9929 25.5962 81.7837 25.6419 81.5835 25.7334C81.3834 25.8248 81.2105 25.9437 81.0558 26.0992C80.9012 26.2546 80.792 26.4375 80.701 26.6387C80.6191 26.849 80.5736 27.0684 80.5736 27.3062V28.7784C80.5736 29.0161 80.6191 29.2447 80.701 29.455C80.7829 29.6654 80.9012 29.8482 81.0558 30.0037C81.2014 30.1591 81.3743 30.2872 81.5835 30.3786C81.7837 30.47 81.9929 30.5158 82.2203 30.5158C82.4478 30.5158 82.657 30.47 82.8572 30.3786C83.0573 30.2872 83.2302 30.1683 83.3849 30.0037C83.5395 29.8482 83.6578 29.6654 83.7397 29.455C83.8216 29.2447 83.867 29.0253 83.867 28.7967V27.3153C83.867 27.0867 83.8216 26.8673 83.7397 26.6569C83.6578 26.4466 83.5395 26.2729 83.3849 26.1174C83.2302 25.962 83.0573 25.834 82.8572 25.7425C82.657 25.6419 82.4387 25.5962 82.2203 25.5962Z" fill="white"/>
<path d="M87.124 24.9467C87.2423 24.8919 87.4061 24.8187 87.6062 24.7456C87.8064 24.6724 88.0247 24.5993 88.2612 24.5352C88.4978 24.4712 88.7525 24.4072 89.0164 24.3706C89.2802 24.3249 89.5349 24.3066 89.7897 24.3066C90.1627 24.3066 90.5175 24.3524 90.8723 24.4438C91.2271 24.5352 91.5456 24.6907 91.8185 24.9284C92.0914 25.1662 92.3189 25.4679 92.4917 25.8703C92.6646 26.2726 92.7465 26.7664 92.7465 27.3791V29.6194H94.0566V30.8996H85.8867V29.6194H91.4637V27.3791C91.4637 27.0224 91.4182 26.739 91.3181 26.5104C91.218 26.2818 91.0907 26.0989 90.936 25.9709C90.7813 25.8337 90.5994 25.7423 90.3992 25.6874C90.1991 25.6325 89.9898 25.6051 89.7806 25.6051C89.5804 25.6051 89.3803 25.6234 89.171 25.66C88.9618 25.6965 88.7616 25.7423 88.5706 25.7971C88.3795 25.852 88.2067 25.9069 88.0429 25.9709C87.8791 26.0349 87.7518 26.0806 87.6517 26.1263L87.124 24.9467Z" fill="white"/>
<path d="M93.4844 29.6014H94.8945C94.8581 29.4733 94.8308 29.3362 94.8127 29.199C94.7945 29.0618 94.7854 28.9155 94.7854 28.7784V27.3153C94.7854 26.9038 94.8581 26.5198 95.0128 26.154C95.1675 25.7883 95.3767 25.4682 95.6406 25.203C95.9044 24.9287 96.2137 24.7184 96.5685 24.5629C96.9233 24.4075 97.3055 24.3252 97.7058 24.3252C98.1061 24.3252 98.4882 24.4075 98.843 24.5721C99.1978 24.7367 99.5071 24.9561 99.7801 25.2305C100.053 25.5048 100.253 25.8248 100.408 26.1906C100.562 26.5564 100.635 26.9313 100.635 27.3336V28.815C100.635 29.2173 100.562 29.6014 100.408 29.958C100.253 30.3237 100.044 30.6346 99.7801 30.909C99.5162 31.1833 99.2069 31.4027 98.8521 31.5673C98.4973 31.7319 98.1152 31.8142 97.7148 31.8142C97.2963 31.8142 96.9051 31.7319 96.5594 31.5765C96.2137 31.421 95.8953 31.1924 95.6315 30.909H93.4844V29.6014ZM97.7148 25.5962C97.4874 25.5962 97.2691 25.6419 97.0689 25.7334C96.8688 25.8248 96.6959 25.9437 96.5412 26.0992C96.3866 26.2546 96.2774 26.4375 96.1864 26.6387C96.1045 26.849 96.059 27.0684 96.059 27.3062V28.7784C96.059 29.0161 96.1045 29.2447 96.1864 29.455C96.2683 29.6654 96.3866 29.8482 96.5412 30.0037C96.6868 30.1591 96.8597 30.2872 97.0689 30.3786C97.2691 30.47 97.4874 30.5158 97.7148 30.5158C97.9423 30.5158 98.1515 30.47 98.3517 30.3786C98.5519 30.2872 98.7247 30.1683 98.8794 30.0037C99.034 29.8482 99.1523 29.6654 99.2342 29.455C99.3161 29.2447 99.3616 29.0253 99.3616 28.7967V27.3153C99.3616 27.0867 99.3161 26.8673 99.2342 26.6569C99.1523 26.4466 99.034 26.2729 98.8794 26.1174C98.7247 25.962 98.5519 25.834 98.3517 25.7425C98.1515 25.6419 97.9423 25.5962 97.7148 25.5962Z" fill="white"/>
<path d="M111.47 29.6012V30.8814H108.886V27.3061C108.886 27.0775 108.85 26.858 108.759 26.6477C108.668 26.4374 108.549 26.2636 108.395 26.1082C108.24 25.9527 108.067 25.8247 107.858 25.7333C107.649 25.6418 107.439 25.5961 107.212 25.5961C106.985 25.5961 106.766 25.6418 106.566 25.7333C106.357 25.8247 106.184 25.9527 106.029 26.1082C105.875 26.2636 105.756 26.4557 105.674 26.666C105.584 26.8763 105.547 27.1049 105.547 27.3518V28.7966C105.547 28.9063 105.565 29.016 105.611 29.1075C105.656 29.208 105.711 29.2903 105.784 29.3635C105.856 29.4367 105.938 29.4915 106.038 29.5372C106.138 29.583 106.239 29.6012 106.357 29.6012H107.758V30.8814H106.357C106.066 30.8814 105.802 30.8266 105.547 30.7168C105.292 30.6071 105.074 30.4608 104.883 30.2688C104.692 30.0767 104.546 29.8573 104.437 29.6012C104.328 29.3452 104.273 29.08 104.273 28.7874V27.3427C104.273 26.922 104.355 26.5288 104.51 26.1631C104.665 25.7973 104.874 25.4772 105.138 25.2029C105.402 24.9286 105.72 24.7091 106.075 24.5537C106.439 24.3891 106.821 24.3159 107.221 24.3159C107.621 24.3159 108.013 24.3982 108.367 24.5537C108.731 24.7183 109.041 24.9286 109.314 25.2029C109.587 25.4772 109.796 25.7973 109.95 26.1631C110.105 26.5288 110.178 26.9129 110.178 27.3152V29.6104H111.47V29.6012ZM105.638 22.4048C105.638 22.3134 105.656 22.2311 105.693 22.1488C105.729 22.0665 105.775 22.0025 105.838 21.9385C105.902 21.8745 105.966 21.8287 106.048 21.7922C106.129 21.7556 106.211 21.7373 106.302 21.7373C106.393 21.7373 106.475 21.7556 106.557 21.7922C106.639 21.8287 106.703 21.8745 106.766 21.9385C106.83 22.0025 106.875 22.0665 106.912 22.1488C106.948 22.2311 106.966 22.3134 106.966 22.4048C106.966 22.4963 106.948 22.5786 106.912 22.6609C106.875 22.7432 106.83 22.8072 106.766 22.8712C106.703 22.926 106.639 22.9718 106.557 23.0083C106.475 23.0449 106.393 23.0632 106.302 23.0632C106.211 23.0632 106.129 23.0449 106.048 23.0083C105.966 22.9718 105.902 22.926 105.838 22.8712C105.775 22.8163 105.729 22.7432 105.693 22.6609C105.656 22.5877 105.638 22.4963 105.638 22.4048ZM107.549 22.4048C107.549 22.3134 107.567 22.2311 107.603 22.1488C107.64 22.0665 107.685 22.0025 107.749 21.9385C107.812 21.8745 107.876 21.8287 107.958 21.7922C108.04 21.7556 108.122 21.7373 108.213 21.7373C108.304 21.7373 108.386 21.7556 108.468 21.7922C108.549 21.8287 108.613 21.8745 108.677 21.9385C108.731 22.0025 108.786 22.0665 108.813 22.1488C108.841 22.2311 108.868 22.3134 108.868 22.4048C108.868 22.5877 108.804 22.7432 108.677 22.862C108.549 22.9809 108.395 23.0541 108.222 23.0541C108.131 23.0541 108.049 23.0358 107.967 22.9992C107.885 22.9626 107.822 22.9169 107.758 22.862C107.694 22.8072 107.649 22.734 107.612 22.6517C107.567 22.5877 107.549 22.4963 107.549 22.4048Z" fill="white"/>
<path d="M113.499 24.3066V25.4588C113.717 25.2942 113.945 25.1388 114.191 24.9924C114.436 24.8461 114.691 24.7273 114.964 24.6267C115.237 24.5261 115.501 24.4438 115.764 24.3889C116.028 24.3341 116.301 24.3066 116.565 24.3066C116.938 24.3066 117.293 24.3615 117.63 24.4712C117.966 24.581 118.257 24.7547 118.512 24.9924C118.767 25.2302 118.967 25.5502 119.112 25.9343C119.258 26.3183 119.331 26.7938 119.331 27.3608V29.5919H120.632V30.8721H110.906V29.5919H112.216V24.3066H113.499ZM116.565 25.596C116.338 25.596 116.101 25.6234 115.855 25.6783C115.619 25.7331 115.382 25.8063 115.155 25.8977C114.927 25.9892 114.709 26.0989 114.509 26.2269C114.309 26.3549 114.136 26.4921 113.981 26.6475C113.827 26.7938 113.708 26.9493 113.626 27.1139C113.536 27.2785 113.499 27.4431 113.499 27.5985V29.5919H118.048V27.3608C118.048 27.0316 118.012 26.7573 117.93 26.5378C117.848 26.3092 117.748 26.1355 117.611 25.9892C117.475 25.8429 117.32 25.7514 117.138 25.6874C116.956 25.6234 116.765 25.596 116.565 25.596Z" fill="white"/>
<path d="M123.534 24.3068V29.6012H124.844V30.8814H120.059V29.6012H122.251V24.3068H123.534ZM121.723 22.4048C121.723 22.3134 121.742 22.2311 121.778 22.1488C121.814 22.0665 121.86 22.0025 121.924 21.9385C121.987 21.8745 122.051 21.8287 122.133 21.7922C122.215 21.7556 122.297 21.7373 122.388 21.7373C122.479 21.7373 122.56 21.7556 122.642 21.7922C122.724 21.8287 122.788 21.8745 122.852 21.9385C122.906 22.0025 122.961 22.0665 122.988 22.1488C123.015 22.2311 123.043 22.3134 123.043 22.4048C123.043 22.5877 122.979 22.7432 122.852 22.862C122.724 22.99 122.57 23.0541 122.397 23.0541C122.306 23.0541 122.224 23.0358 122.142 22.9992C122.06 22.9626 121.996 22.9169 121.933 22.862C121.869 22.8072 121.824 22.734 121.787 22.6517C121.742 22.5877 121.723 22.4963 121.723 22.4048Z" fill="white"/>
<path d="M124.271 29.6014H125.681C125.644 29.4733 125.617 29.3362 125.599 29.199C125.581 29.0618 125.571 28.9155 125.571 28.7784V27.3153C125.571 26.9038 125.644 26.5198 125.799 26.154C125.954 25.7883 126.163 25.4682 126.427 25.203C126.691 24.9287 127 24.7184 127.355 24.5629C127.709 24.4075 128.092 24.3252 128.492 24.3252C128.892 24.3252 129.274 24.4075 129.629 24.5721C129.984 24.7367 130.293 24.9561 130.566 25.2305C130.839 25.5048 131.039 25.8248 131.194 26.1906C131.349 26.5564 131.421 26.9313 131.421 27.3336V28.815C131.421 29.2173 131.349 29.6014 131.194 29.958C131.039 30.3237 130.83 30.6346 130.566 30.909C130.302 31.1833 129.993 31.4027 129.638 31.5673C129.283 31.7319 128.901 31.8142 128.501 31.8142C128.082 31.8142 127.691 31.7319 127.346 31.5765C127 31.421 126.681 31.1924 126.418 30.909H124.271V29.6014V29.6014ZM128.51 25.5962C128.283 25.5962 128.064 25.6419 127.864 25.7334C127.664 25.8248 127.491 25.9437 127.336 26.0992C127.182 26.2546 127.073 26.4375 126.982 26.6387C126.9 26.849 126.854 27.0684 126.854 27.3062V28.7784C126.854 29.0161 126.9 29.2447 126.982 29.455C127.064 29.6654 127.182 29.8482 127.336 30.0037C127.482 30.1591 127.655 30.2872 127.864 30.3786C128.064 30.47 128.283 30.5158 128.51 30.5158C128.738 30.5158 128.947 30.47 129.147 30.3786C129.347 30.2872 129.52 30.1683 129.675 30.0037C129.829 29.8482 129.948 29.6654 130.029 29.455C130.111 29.2447 130.157 29.0253 130.157 28.7967V27.3153C130.157 27.0867 130.111 26.8673 130.029 26.6569C129.948 26.4466 129.829 26.2729 129.675 26.1174C129.52 25.962 129.347 25.834 129.147 25.7425C128.947 25.6419 128.728 25.5962 128.51 25.5962Z" fill="white"/>
</g>
<g filter="url(#filter1_d)">
<path d="M37.9716 54.4418C37.4403 54.4418 37.0027 54.3711 36.6588 54.2375C36.315 54.104 36.0493 53.9548 35.8461 53.7977C35.643 53.6406 35.5101 53.4914 35.432 53.3579C35.3538 53.2244 35.3069 53.1537 35.2991 53.1537C35.2366 53.2479 35.1428 53.3579 35.01 53.4757C34.8771 53.5935 34.7365 53.7192 34.5958 53.837C34.4552 53.9548 34.3067 54.0648 34.166 54.159C34.0254 54.2533 33.9082 54.3161 33.83 54.3475H29.6806C29.1805 54.3475 28.7038 54.2925 28.2584 54.1826C27.8129 54.0726 27.4222 53.8998 27.0862 53.6642C26.7502 53.4286 26.4845 53.1301 26.2891 52.761C26.0938 52.3997 26 51.9598 26 51.4415C26 50.9781 26.0547 50.5618 26.1563 50.1848C26.2579 49.8078 26.4063 49.4543 26.5939 49.1245C26.7814 48.7946 27.0159 48.4726 27.2894 48.1584C27.5629 47.8442 27.8755 47.5301 28.2271 47.2002H28.5084V47.3259C28.2662 47.5929 28.0396 47.8364 27.8129 48.072C27.5941 48.3076 27.3988 48.5433 27.2425 48.7867C27.0784 49.0302 26.9455 49.2894 26.8518 49.5643C26.7502 49.8392 26.7033 50.1455 26.7033 50.499C26.7033 50.8917 26.7502 51.2215 26.8361 51.5043C26.9221 51.787 27.0471 52.0148 27.2112 52.2112C27.3753 52.3997 27.5629 52.5567 27.7817 52.6667C28.0005 52.7845 28.2427 52.8709 28.5084 52.9337C28.6413 52.9652 28.8054 52.9887 28.9773 53.0123C29.157 53.0359 29.4149 53.0516 29.7509 53.0594C30.0869 53.0673 30.5245 53.0751 31.0715 53.0751C31.6185 53.0751 32.3297 53.0751 33.2127 53.0751C33.2674 53.0751 33.3768 53.0673 33.5409 53.0437C33.705 53.0201 33.8847 52.9809 34.0566 52.9259C34.2364 52.8709 34.3927 52.7845 34.5333 52.6824C34.674 52.5803 34.7443 52.4389 34.7443 52.2583C34.5568 52.0776 34.3614 51.897 34.166 51.7006C33.9707 51.5043 33.8691 51.253 33.8691 50.9623C33.8691 50.6875 33.916 50.4126 34.0176 50.1298C34.1192 49.8471 34.252 49.5879 34.4239 49.3601C34.5958 49.1323 34.799 48.9438 35.0334 48.7946C35.2679 48.6454 35.5179 48.5747 35.7836 48.5747C36.2369 48.5747 36.5651 48.7239 36.7839 49.0302C36.9948 49.3365 37.1043 49.6743 37.1043 50.0513C37.1043 50.3105 37.0652 50.5618 36.9792 50.7974C36.8933 51.033 36.7995 51.253 36.6823 51.4572C36.5651 51.6614 36.4557 51.842 36.3384 51.9991C36.2212 52.1562 36.1353 52.2897 36.0728 52.3918C36.1275 52.5175 36.2056 52.6431 36.3072 52.7688C36.4088 52.8945 36.5494 52.9966 36.7292 53.0673C36.7917 53.0908 36.8776 53.1065 36.9948 53.1144C37.1121 53.1222 37.2293 53.1301 37.3543 53.1301C37.4793 53.1301 37.5966 53.1301 37.7138 53.1301C37.831 53.1301 37.9091 53.1301 37.9638 53.1301V54.4418H37.9716ZM35.8618 56.2875C35.8618 56.5074 35.7914 56.688 35.6508 56.8137C35.5101 56.9472 35.3382 57.0101 35.1272 57.0101C34.9162 57.0101 34.7521 56.9472 34.6115 56.8137C34.4786 56.6802 34.4083 56.5074 34.4083 56.2875C34.4083 56.0676 34.4786 55.8869 34.6115 55.7534C34.7443 55.6199 34.9162 55.5492 35.1272 55.5492C35.3382 55.5492 35.5101 55.6199 35.6508 55.7534C35.7914 55.8869 35.8618 56.0676 35.8618 56.2875ZM35.643 51.4415C35.8227 51.4415 35.9633 51.3708 36.0728 51.2215C36.1822 51.0723 36.2369 50.9466 36.2369 50.8445C36.2369 50.6168 36.1822 50.3968 36.0728 50.1926C35.9633 49.9884 35.7836 49.8863 35.5492 49.8863C35.3695 49.8863 35.1897 49.9335 35.01 50.0198C34.8303 50.1062 34.7365 50.2712 34.7365 50.499L35.643 51.4415Z" fill="white"/>
<path d="M37.2607 53.1294H39.2143C39.3784 53.1294 39.5582 53.1059 39.7379 53.0509C39.9176 52.9959 40.0896 52.9252 40.2458 52.8231C40.4021 52.721 40.5428 52.6032 40.6522 52.4618C40.7694 52.3204 40.8397 52.1555 40.871 51.9827C40.8397 51.6136 40.6834 51.2994 40.4021 51.0481C40.3709 51.0166 40.324 50.9852 40.2693 50.946C40.2146 50.9067 40.1521 50.8674 40.0896 50.8203C40.027 50.7732 39.9723 50.726 39.9255 50.6711C39.8786 50.6161 39.8551 50.569 39.8551 50.514C39.8551 50.459 39.8629 50.3883 39.8864 50.2862C39.9098 50.1841 39.9255 50.082 39.9489 49.972C39.9723 49.8621 39.9958 49.76 40.0192 49.6736C40.0427 49.5872 40.0661 49.5244 40.0896 49.4929C40.1286 49.3987 40.1911 49.3516 40.2771 49.3516C40.4412 49.4144 40.6131 49.5244 40.7772 49.6814C40.9413 49.8385 41.0976 50.0192 41.2305 50.2077C41.3633 50.404 41.4805 50.6004 41.5587 50.7967C41.6446 50.9931 41.6837 51.1659 41.6837 51.2994C41.5977 51.8649 41.4258 52.4147 41.1758 52.9409C40.9179 53.4672 40.5428 53.8756 40.0349 54.174C39.8864 54.2604 39.6441 54.3233 39.3081 54.3782C39.144 54.4018 38.8783 54.4175 38.5267 54.4254C38.175 54.4332 37.7452 54.4411 37.2451 54.4411V53.1294H37.2607ZM39.144 56.0747C39.144 56.2868 39.0737 56.4596 38.9408 56.5931C38.808 56.7266 38.6283 56.7895 38.4251 56.7895C38.2141 56.7895 38.0422 56.7266 37.9093 56.5931C37.7765 56.4596 37.7062 56.2868 37.7062 56.0747C37.7062 55.8548 37.7765 55.6663 37.9093 55.5328C38.0422 55.3914 38.2219 55.3286 38.4251 55.3286C38.6361 55.3286 38.808 55.3993 38.9408 55.5328C39.0815 55.6742 39.144 55.8548 39.144 56.0747ZM40.7538 56.0276C40.7538 56.2397 40.6835 56.4125 40.5506 56.546C40.4178 56.6795 40.238 56.7423 40.0349 56.7423C39.8239 56.7423 39.652 56.6795 39.5191 56.546C39.3863 56.4125 39.3159 56.2397 39.3159 56.0276C39.3159 55.8077 39.3863 55.6192 39.5191 55.4857C39.652 55.3443 39.8317 55.2815 40.0349 55.2815C40.2458 55.2815 40.4178 55.3522 40.5506 55.4857C40.6835 55.627 40.7538 55.8077 40.7538 56.0276Z" fill="white"/>
<path d="M39.8232 59.9391C40.1593 59.994 40.4562 60.0333 40.7297 60.0726C40.9954 60.1119 41.3002 60.1276 41.6518 60.1276C43.0975 60.1276 44.4103 59.8212 45.5825 59.2008C46.7546 58.5881 47.7236 57.6378 48.4738 56.3654C48.5988 56.1219 48.7082 55.8706 48.802 55.5957C48.8958 55.3287 48.9426 55.0459 48.9426 54.7474C48.9426 54.5825 48.9114 54.4176 48.8411 54.2605C48.7707 54.1034 48.6926 53.9542 48.591 53.8285C48.4894 53.695 48.38 53.5693 48.255 53.4594C48.1299 53.3416 48.0049 53.2473 47.8955 53.1609V52.8153C47.8955 52.7289 47.8955 52.6268 47.9033 52.5012C47.9111 52.3755 47.9346 52.2577 47.9737 52.1399C48.0127 52.0221 48.0752 51.9278 48.1534 51.8493C48.2315 51.7707 48.3409 51.7314 48.4894 51.7314L48.7238 51.7943C48.9348 52.0613 49.1146 52.2734 49.2709 52.4462C49.4271 52.619 49.5912 52.7603 49.7475 52.8546C49.9116 52.9567 50.0835 53.0274 50.2711 53.0667C50.4586 53.1059 50.6931 53.1295 50.9588 53.1295H51.1619V54.4411H49.7163C49.6225 55.3915 49.3646 56.2476 48.9505 57.0252C48.5363 57.8027 48.0127 58.4546 47.3798 58.9966C46.7468 59.5385 46.0279 59.9626 45.223 60.2611C44.4181 60.5595 43.582 60.7088 42.7146 60.7088C42.2301 60.7088 41.7534 60.6616 41.2845 60.5752C40.8157 60.4889 40.339 60.3396 39.8545 60.1433C39.8154 60.1197 39.792 60.0883 39.792 60.0333C39.8076 59.994 39.8154 59.9626 39.8232 59.9391Z" fill="white"/>
<path d="M50.4981 53.1298H50.6856C51.0763 53.1298 51.4123 53.0512 51.7093 52.8941C52.0062 52.737 52.2641 52.5407 52.5064 52.3051C52.7486 52.0694 52.9596 51.8181 53.1628 51.5432C53.3659 51.2762 53.5769 51.0327 53.7801 50.8049C53.8035 50.7735 53.827 50.7578 53.8661 50.7499C53.9051 50.7421 53.9364 50.7421 53.9676 50.7421C54.163 50.7421 54.2646 50.8442 54.2646 51.0405C54.2411 51.2055 54.2099 51.3783 54.163 51.5511C54.1161 51.7239 54.0927 51.8967 54.0927 52.0616C54.0927 52.3679 54.2099 52.6114 54.4443 52.792C54.6788 52.9727 54.9523 53.0591 55.2726 53.0591C55.5774 53.0277 55.7962 52.957 55.9291 52.8549C56.0619 52.7528 56.1557 52.6192 56.2104 52.4622C56.2651 52.3051 56.2963 52.1166 56.3041 51.9045C56.312 51.6924 56.351 51.449 56.4136 51.1819C56.437 51.0955 56.4761 51.0327 56.5386 50.9934C56.6011 50.9542 56.6714 50.9306 56.7418 50.9306C56.8121 50.9306 56.8824 50.9542 56.9449 50.9934C57.0074 51.0327 57.0387 51.0955 57.0387 51.1819C57.0387 51.339 57.0621 51.5197 57.1168 51.7082C57.1715 51.9045 57.2497 52.0852 57.3591 52.2422C57.4685 52.3993 57.6013 52.5486 57.7498 52.6585C57.8983 52.7685 58.0858 52.8313 58.289 52.8313C58.4375 52.7999 58.5391 52.7449 58.5938 52.6742C58.6485 52.6035 58.6797 52.5093 58.6797 52.4072C58.6797 52.3051 58.6563 52.1873 58.6172 52.0694C58.5781 51.9516 58.5234 51.826 58.4687 51.7082C58.414 51.5903 58.3593 51.4725 58.3124 51.3626C58.2656 51.2526 58.2343 51.1505 58.2265 51.0563C58.2343 50.962 58.2499 50.8599 58.2577 50.7499C58.2656 50.64 58.289 50.53 58.3124 50.4279C58.3359 50.3258 58.375 50.2316 58.4297 50.153C58.4844 50.0745 58.5625 50.0195 58.6641 49.9881C58.8751 49.9881 59.0392 50.0666 59.1564 50.2237C59.2736 50.3808 59.3674 50.5536 59.4299 50.7264C59.5237 51.072 59.6018 51.394 59.6643 51.6924C59.7269 51.9909 59.8206 52.2422 59.9535 52.4622C60.0863 52.6821 60.2739 52.847 60.5083 52.9648C60.7427 53.0826 61.1022 53.1455 61.5632 53.1455C61.657 53.1455 61.7508 53.1455 61.8367 53.1455C61.9227 53.1455 62.0243 53.1376 62.1259 53.1298V54.4414H61.5007C61.2819 54.4414 61.0866 54.4336 60.9303 54.4178C60.774 54.4021 60.6099 54.3707 60.4614 54.3236C60.3129 54.2765 60.1566 54.2136 60.0004 54.1272C59.8441 54.0408 59.6565 53.9309 59.4377 53.7817C59.047 54.1429 58.5938 54.3157 58.0702 54.3157C57.6326 54.3157 57.2262 54.1822 56.859 53.923C56.648 54.1429 56.4057 54.3079 56.14 54.41C55.8665 54.5121 55.5852 54.5671 55.2883 54.5671C54.8038 54.5671 54.3662 54.4336 53.9598 54.1665C53.5535 53.8995 53.3034 53.4989 53.194 52.9727C52.858 53.3654 52.4595 53.7031 52.0062 53.9937C51.553 54.2843 51.0372 54.4336 50.4746 54.4414V53.1298H50.4981ZM55.8587 48.5665C55.8587 48.7785 55.7884 48.9513 55.6556 49.0849C55.5227 49.2184 55.343 49.2891 55.1242 49.2891C54.921 49.2891 54.7491 49.2184 54.6084 49.0849C54.4756 48.9513 54.4053 48.7707 54.4053 48.5665C54.4053 48.3466 54.4756 48.1659 54.6084 48.0324C54.7413 47.8989 54.9132 47.8282 55.1242 47.8282C55.343 47.8282 55.5149 47.8989 55.6556 48.0324C55.7962 48.1659 55.8587 48.3466 55.8587 48.5665ZM56.9762 47.082C56.9762 47.302 56.9137 47.4826 56.7808 47.6083C56.648 47.7418 56.4682 47.8046 56.2494 47.8046C56.0385 47.8046 55.8587 47.7418 55.7259 47.6083C55.5852 47.4748 55.5227 47.302 55.5227 47.082C55.5227 46.8621 55.593 46.6815 55.7259 46.548C55.8665 46.4144 56.0385 46.3438 56.2494 46.3438C56.4682 46.3438 56.648 46.4144 56.7808 46.548C56.9059 46.6815 56.9762 46.8543 56.9762 47.082ZM58.0468 48.5665C58.0468 48.7785 57.9842 48.9513 57.8514 49.0849C57.7186 49.2184 57.5466 49.2891 57.3278 49.2891C57.1168 49.2891 56.9449 49.2184 56.8121 49.0849C56.6792 48.9513 56.6089 48.7707 56.6089 48.5665C56.6089 48.3466 56.6792 48.1659 56.8121 48.0324C56.9449 47.8989 57.1247 47.8282 57.3278 47.8282C57.5466 47.8282 57.7264 47.8989 57.8514 48.0324C57.9764 48.1659 58.0468 48.3466 58.0468 48.5665Z" fill="white"/>
<path d="M61.4072 53.1298C61.6495 53.1298 61.8995 53.0905 62.1574 53.0199C62.4153 52.9492 62.6341 52.8392 62.806 52.7057C62.9936 52.5722 63.1577 52.3915 63.2905 52.1795C63.4233 51.9674 63.5249 51.7475 63.5874 51.5433C63.5796 51.2684 63.564 50.8443 63.5406 50.2709C63.5171 49.6975 63.4859 49.0535 63.439 48.3545C63.3921 47.6476 63.3296 46.9172 63.2592 46.1553C63.1889 45.3934 63.0873 44.6944 62.9623 44.0504C62.8998 43.9012 62.806 43.8069 62.6732 43.7676C62.5403 43.7284 62.4075 43.6812 62.2746 43.642C62.1418 43.6027 62.0167 43.532 61.9152 43.4378C61.8136 43.3435 61.7589 43.1707 61.7589 42.9194C61.7589 42.8644 61.7745 42.7544 61.7979 42.5895C61.8214 42.4246 61.8683 42.2439 61.923 42.0633C61.9777 41.8826 62.048 41.7177 62.1262 41.5763C62.2043 41.4349 62.2981 41.3643 62.4153 41.3643C63.0404 41.3643 63.4233 41.5135 63.5484 41.8198C63.6421 42.0397 63.7047 42.2282 63.7359 42.3774C63.7672 42.5267 63.7828 42.6838 63.7906 42.8408C63.7984 42.9979 63.7984 43.1786 63.8062 43.3749C63.8141 43.5713 63.8375 43.8383 63.8766 44.1682C64.0094 45.3306 64.111 46.493 64.1813 47.6633C64.2517 48.8336 64.2829 50.0824 64.2829 51.4098C64.2829 52.2344 64.0329 52.9178 63.5406 53.4833C63.3843 53.6639 63.2358 53.8131 63.103 53.9388C62.9701 54.0645 62.8216 54.1666 62.6653 54.2451C62.5091 54.3237 62.3293 54.3786 62.134 54.41C61.9386 54.4415 61.6964 54.4572 61.415 54.4572V53.1298H61.4072Z" fill="white"/>
<path d="M65.682 53.601C65.7367 53.2947 65.807 53.0198 65.8929 52.7606C65.9789 52.5093 66.0336 52.2501 66.057 51.9831C66.0336 51.2448 66.0102 50.5458 65.9789 49.886C65.9476 49.2262 65.9164 48.5979 65.8773 47.9931C65.8382 47.3884 65.7992 46.7915 65.7523 46.2181C65.7054 45.6447 65.6585 45.0557 65.6194 44.4666C65.6116 44.3645 65.6038 44.2624 65.596 44.1682C65.5882 44.0739 65.5804 43.9797 65.5726 43.8854C65.4553 43.8304 65.3303 43.7755 65.1897 43.7205C65.049 43.6655 64.9161 43.6027 64.7989 43.532C64.6739 43.4613 64.5801 43.3827 64.502 43.2885C64.4238 43.1942 64.3848 43.0843 64.3848 42.9586C64.3848 42.8251 64.4082 42.6602 64.4551 42.4795C64.502 42.2989 64.5723 42.1182 64.6583 41.9611C64.7442 41.8041 64.8536 41.6548 64.9865 41.5449C65.1193 41.4271 65.26 41.3721 65.4163 41.3721C65.6038 41.3721 65.7601 41.4271 65.8773 41.5292C65.9945 41.6313 66.0961 41.7726 66.1743 41.9376C66.2524 42.1025 66.3071 42.291 66.3462 42.4952C66.3853 42.6994 66.4087 42.8958 66.4165 43.0843C66.44 43.744 66.4634 44.3881 66.4868 45.0007C66.5103 45.6133 66.5415 46.2417 66.5728 46.8779C66.6041 47.514 66.6353 48.1816 66.6744 48.8728C66.7135 49.5718 66.7447 50.3258 66.776 51.1505C66.7838 51.5825 66.8229 51.9202 66.8776 52.1559C66.9323 52.3915 66.9948 52.58 67.0651 52.7135C67.1354 52.847 67.1901 52.957 67.2448 53.0277C67.2995 53.0984 67.323 53.1926 67.323 53.2947C67.3152 53.3575 67.2917 53.4518 67.2605 53.5853C67.2292 53.7188 67.1823 53.8524 67.1276 53.978C67.0729 54.1116 66.9948 54.2215 66.9088 54.3158C66.8229 54.41 66.7213 54.4493 66.6197 54.4414C66.3149 54.3786 66.0805 54.2843 65.9242 54.1665C65.7679 54.0566 65.682 53.8681 65.682 53.601Z" fill="white"/>
<path d="M70.5576 52.1792C70.5576 51.5351 70.6436 50.8989 70.8233 50.2785C71.003 49.6501 71.2687 49.0925 71.6204 48.5977C71.972 48.1028 72.4096 47.7023 72.9332 47.396C73.4568 47.0897 74.0741 46.9404 74.7696 46.9404C74.8008 46.9483 74.8477 46.9718 74.9024 47.0111C74.9571 47.0504 75.0196 47.0897 75.0743 47.1446C75.129 47.1996 75.1837 47.2625 75.2228 47.3331C75.2619 47.4038 75.2853 47.4824 75.2853 47.5531C75.2853 47.6159 75.2541 47.6787 75.1916 47.7494C75.129 47.8201 75.0509 47.8829 74.9649 47.9379C74.879 47.9929 74.7852 48.04 74.6914 48.0793C74.5977 48.1186 74.5273 48.1343 74.4726 48.1343C74.4101 48.1343 74.3554 48.1107 74.3007 48.0636C74.246 48.0165 74.1913 47.9929 74.1288 47.9929C73.6912 47.9929 73.2848 48.1107 72.9098 48.3542C72.5347 48.5977 72.2143 48.8961 71.9486 49.2653C71.6829 49.6266 71.4719 50.035 71.3312 50.4748C71.1828 50.9146 71.1124 51.3309 71.1124 51.7236C71.1124 52.3441 71.1906 52.9096 71.3547 53.4044C71.5188 53.9071 71.7532 54.3391 72.0658 54.7004C72.3784 55.0617 72.7535 55.3444 73.2067 55.5408C73.6599 55.7371 74.1679 55.8314 74.7461 55.8314C74.8946 55.8314 75.0978 55.8078 75.3635 55.7607C75.6292 55.7135 75.8948 55.635 76.1684 55.525C76.434 55.4151 76.6685 55.2737 76.856 55.1009C77.0436 54.9281 77.1452 54.7161 77.1452 54.4647C77.1452 54.3391 77.0748 54.2448 76.942 54.1898C76.8091 54.1349 76.6372 54.0877 76.4419 54.0485C76.2465 54.0092 76.0199 53.9699 75.7854 53.9228C75.5432 53.8757 75.3244 53.805 75.129 53.7029C74.9337 53.6008 74.7618 53.4673 74.6289 53.2866C74.4726 53.0903 74.4101 52.8468 74.4101 52.5326C74.4336 52.2813 74.4726 51.9907 74.5351 51.6608C74.5977 51.3309 74.7227 50.9932 74.9102 50.6319C75.0978 50.2706 75.3635 49.9093 75.7151 49.5402C76.0589 49.171 76.52 48.8254 77.0983 48.5113C77.2155 48.5113 77.2936 48.5191 77.3327 48.5427C77.3718 48.5662 77.403 48.5977 77.4265 48.6526C77.6453 49.0296 77.825 49.3438 77.9579 49.5794C78.0907 49.8151 78.2001 50.0036 78.2704 50.1449C78.3408 50.2863 78.3876 50.3963 78.4111 50.4591C78.4345 50.5298 78.4423 50.5848 78.4423 50.624C78.4423 50.6869 78.4345 50.7654 78.4267 50.8518C78.4189 50.9382 78.3955 51.0246 78.372 51.1031C78.3486 51.1817 78.3095 51.2524 78.2704 51.3074C78.2314 51.3623 78.1688 51.3938 78.0985 51.3938C77.911 51.3623 77.7547 51.2759 77.6296 51.1424C77.5046 51.0089 77.3952 50.8675 77.3014 50.7183C77.2077 50.5691 77.1217 50.4355 77.0436 50.3177C76.9654 50.1999 76.8795 50.1371 76.7857 50.1371C76.6216 50.1371 76.4575 50.1921 76.3012 50.3099C76.1449 50.4277 75.9964 50.5691 75.8714 50.734C75.7386 50.8989 75.6292 51.0874 75.5354 51.2759C75.4416 51.4723 75.3713 51.6451 75.3322 51.7865C75.3322 52.0064 75.3947 52.1635 75.5119 52.2577C75.6292 52.352 75.7854 52.4226 75.9652 52.4776C76.1449 52.5326 76.3481 52.5719 76.5591 52.6033C76.7701 52.6347 76.9732 52.6975 77.153 52.7918C77.3327 52.886 77.489 53.0274 77.6062 53.2081C77.7234 53.3887 77.7859 53.6558 77.7859 54.0092C77.7859 54.5276 77.7156 54.9753 77.5671 55.368C77.4187 55.7607 77.2155 56.0906 76.9498 56.3576C76.6841 56.6246 76.3715 56.8288 76.0043 56.9624C75.637 57.0959 75.2384 57.1666 74.8086 57.1666C73.3552 57.1666 72.2768 56.7346 71.5891 55.8628C70.9015 55.0145 70.5576 53.7814 70.5576 52.1792ZM74.2226 58.6432C74.2226 58.8552 74.1522 59.028 74.0194 59.1615C73.8865 59.2951 73.7068 59.3657 73.488 59.3657C73.277 59.3657 73.1129 59.2951 72.9723 59.1615C72.8394 59.028 72.7691 58.8474 72.7691 58.6432C72.7691 58.4232 72.8394 58.2426 72.9723 58.1091C73.1051 57.9756 73.277 57.9049 73.488 57.9049C73.7068 57.9049 73.8787 57.9756 74.0194 58.1091C74.1522 58.2426 74.2226 58.4232 74.2226 58.6432ZM76.0746 58.6432C76.0746 58.8552 76.0043 59.028 75.8714 59.1615C75.7386 59.2951 75.5666 59.3657 75.3557 59.3657C75.1447 59.3657 74.9728 59.2951 74.8321 59.1615C74.6914 59.028 74.6211 58.8474 74.6211 58.6432C74.6211 58.4232 74.6914 58.2426 74.8321 58.1091C74.9728 57.9756 75.1447 57.9049 75.3557 57.9049C75.5666 57.9049 75.7307 57.9756 75.8714 58.1091C76.0043 58.2426 76.0746 58.4232 76.0746 58.6432Z" fill="white"/>
<path d="M83.3651 54.4411C83.2713 55.1402 83.0525 55.8313 82.7087 56.5225C82.3649 57.2137 81.9272 57.8341 81.4037 58.3761C80.8801 58.9259 80.2862 59.3657 79.6298 59.7034C78.9734 60.0412 78.2857 60.2061 77.5746 60.2061C76.9964 60.2061 76.4415 60.0883 75.9102 59.8605L75.8789 59.4678C76.2696 59.5935 76.6682 59.6563 77.0901 59.6563C77.7465 59.6563 78.3951 59.5071 79.0203 59.2086C79.6454 58.9102 80.2081 58.5096 80.6848 58.0226C81.1692 57.5357 81.5522 56.978 81.8491 56.3576C82.146 55.7371 82.2867 55.1009 82.2867 54.449C82.1382 54.4726 81.9976 54.4804 81.8725 54.4883C81.7397 54.4961 81.6069 54.4961 81.474 54.4961C81.2161 54.4961 80.9583 54.4647 80.7238 54.4097C80.4816 54.3547 80.2706 54.2526 80.0752 54.1191C79.8799 53.9856 79.7392 53.805 79.6298 53.585C79.5204 53.3651 79.4657 53.0981 79.4657 52.7761C79.4657 52.454 79.4892 52.1477 79.5439 51.8257C79.5986 51.5115 79.6845 51.2209 79.8174 50.9539C79.9502 50.6868 80.1221 50.4748 80.3409 50.3177C80.5597 50.1528 80.841 50.0742 81.1771 50.0742C81.5678 50.0742 81.9038 50.1685 82.1929 50.357C82.4821 50.5455 82.7165 50.7889 82.9119 51.0953C83.1072 51.4016 83.2401 51.7236 83.3338 52.0849C83.4276 52.4462 83.4823 52.7996 83.5057 53.1452H84.4513V54.4568H83.3651V54.4411ZM81.6381 51.5822C81.5522 51.5429 81.4349 51.5115 81.2865 51.4958C81.1302 51.4801 80.9817 51.488 80.8254 51.5272C80.6691 51.5665 80.5207 51.6372 80.3956 51.755C80.2706 51.8728 80.1768 52.0456 80.1378 52.2734C80.169 52.6347 80.3175 52.8703 80.5754 52.9881C80.8332 53.1059 81.138 53.1531 81.4896 53.1295C81.6147 53.1216 81.7397 53.1059 81.8491 53.0981C81.9663 53.0902 82.0679 53.0667 82.1617 53.0274C82.2554 52.9881 82.3336 52.941 82.3883 52.886C82.443 52.831 82.4743 52.7446 82.4743 52.6425C82.4743 52.4148 82.3883 52.1948 82.2242 52.0063C82.0601 51.8178 81.8569 51.6686 81.6381 51.5822Z" fill="white"/>
<path d="M86.4362 51.2211C86.5222 51.1661 86.6081 51.1426 86.7019 51.1426C86.8504 51.1426 86.952 51.1897 87.0145 51.2918C87.077 51.3939 87.1082 51.5039 87.1082 51.6138C87.1082 51.7316 87.0926 51.8416 87.0535 51.9358C87.0145 52.0301 86.9832 52.1086 86.952 52.1479C87.0848 52.5406 87.3192 52.8077 87.6396 52.9569C87.8897 53.0747 88.2101 53.1297 88.6008 53.1297V54.4413H88.257C87.6943 54.4413 87.2333 54.3392 86.8894 54.1272C86.5456 53.9151 86.2799 53.5695 86.1002 53.0826C85.9205 53.1768 85.7485 53.3025 85.5923 53.4517C85.436 53.6009 85.2641 53.758 85.1078 53.8994C84.9437 54.0486 84.7717 54.1743 84.5842 54.2764C84.3967 54.3785 84.1935 54.4335 83.9747 54.4335H83.6777V53.1218C84.2404 53.1218 84.8343 52.7762 85.4516 52.0929C85.9752 51.5981 86.3112 51.2997 86.4362 51.2211ZM86.5925 55.6116C86.5925 55.8237 86.5222 55.9965 86.3893 56.13C86.2565 56.2635 86.0767 56.3342 85.8736 56.3342C85.6626 56.3342 85.4907 56.2635 85.3578 56.13C85.225 55.9965 85.1547 55.8158 85.1547 55.6116C85.1547 55.3917 85.225 55.211 85.3578 55.0775C85.4907 54.944 85.6704 54.8733 85.8736 54.8733C86.0846 54.8733 86.2565 54.944 86.3893 55.0775C86.5222 55.211 86.5925 55.3917 86.5925 55.6116Z" fill="white"/>
<path d="M90.5075 51.2213C90.5935 51.1663 90.6794 51.1428 90.7732 51.1428C90.9217 51.1428 91.0232 51.1899 91.0858 51.292C91.1483 51.3941 91.1795 51.5041 91.1795 51.614C91.1795 51.7318 91.1639 51.8418 91.1248 51.9361C91.0858 52.0303 91.0545 52.1088 91.0232 52.1481C91.1561 52.5408 91.3905 52.8079 91.7187 52.9571C91.9688 53.0749 92.2892 53.1299 92.6799 53.1299V54.4415H92.3361C91.7734 54.4415 91.3124 54.3394 90.9685 54.1274C90.6247 53.9153 90.359 53.5697 90.1793 53.0828C89.9996 53.177 89.8276 53.3027 89.6714 53.4519C89.5073 53.6011 89.3432 53.7582 89.1869 53.8996C89.0228 54.0488 88.8508 54.1745 88.6633 54.2766C88.4758 54.3787 88.2726 54.4337 88.046 54.4337H87.749V53.122C88.3117 53.122 88.9055 52.7765 89.5229 52.0931C90.0464 51.5983 90.3825 51.2999 90.5075 51.2213ZM91.2108 49.6348C91.2108 49.8547 91.1405 50.0353 91.0076 50.161C90.8748 50.2945 90.695 50.3574 90.4762 50.3574C90.2653 50.3574 90.1012 50.2945 89.9605 50.161C89.8276 50.0275 89.7573 49.8547 89.7573 49.6348C89.7573 49.4149 89.8276 49.2342 89.9605 49.1007C90.0933 48.9672 90.2653 48.8965 90.4762 48.8965C90.695 48.8965 90.867 48.9672 91.0076 49.1007C91.1405 49.2342 91.2108 49.4149 91.2108 49.6348Z" fill="white"/>
<path d="M91.8594 53.1298C92.1016 53.1298 92.3517 53.0905 92.6096 53.0199C92.8674 52.9492 93.0862 52.8392 93.2582 52.7057C93.4457 52.5722 93.6098 52.3915 93.7426 52.1795C93.8755 51.9674 93.9771 51.7475 94.0396 51.5433C94.0318 51.2684 94.0161 50.8443 93.9927 50.2709C93.9693 49.6975 93.938 49.0535 93.8911 48.3545C93.8442 47.6476 93.7817 46.9172 93.7114 46.1553C93.6411 45.3934 93.5395 44.6944 93.4144 44.0504C93.3519 43.9012 93.2581 43.8069 93.1253 43.7676C92.9925 43.7284 92.8596 43.6812 92.7268 43.642C92.5939 43.6027 92.4689 43.532 92.3673 43.4378C92.2657 43.3435 92.211 43.1707 92.211 42.9194C92.211 42.8644 92.2267 42.7544 92.2501 42.5895C92.2735 42.4246 92.3204 42.2439 92.3751 42.0633C92.4298 41.8826 92.5002 41.7177 92.5783 41.5763C92.6564 41.4349 92.7502 41.3643 92.8674 41.3643C93.4926 41.3643 93.8755 41.5135 94.0005 41.8198C94.0943 42.0397 94.1568 42.2282 94.1881 42.3774C94.2193 42.5267 94.2349 42.6838 94.2428 42.8408C94.2506 42.9979 94.2506 43.1786 94.2584 43.3749C94.2662 43.5713 94.2896 43.8383 94.3287 44.1682C94.4616 45.3306 94.5631 46.493 94.6335 47.6633C94.7038 48.8336 94.7351 50.0824 94.7351 51.4098C94.7351 52.2344 94.485 52.9178 93.9927 53.4833C93.8364 53.6639 93.6879 53.8131 93.5551 53.9388C93.4223 54.0645 93.2738 54.1666 93.1175 54.2451C92.9612 54.3237 92.7815 54.3786 92.5861 54.41C92.3908 54.4415 92.1485 54.4572 91.8672 54.4572V53.1298H91.8594Z" fill="white"/>
<path d="M96.1341 53.601C96.1888 53.2947 96.2591 53.0198 96.3451 52.7606C96.4311 52.5093 96.4858 52.2501 96.5092 51.9831C96.4858 51.2448 96.4623 50.5458 96.4311 49.886C96.3998 49.2262 96.3685 48.5979 96.3295 47.9931C96.2904 47.3884 96.2513 46.7915 96.2044 46.2181C96.1576 45.6447 96.1107 45.0557 96.0716 44.4666C96.0638 44.3645 96.056 44.2624 96.0482 44.1682C96.0403 44.0739 96.0325 43.9797 96.0247 43.8854C95.9075 43.8304 95.7825 43.7755 95.6418 43.7205C95.5011 43.6655 95.3683 43.6027 95.2511 43.532C95.126 43.4613 95.0323 43.3827 94.9541 43.2885C94.876 43.1942 94.8369 43.0843 94.8369 42.9586C94.8369 42.8251 94.8604 42.6602 94.9072 42.4795C94.9541 42.2989 95.0245 42.1182 95.1104 41.9611C95.1964 41.8041 95.3058 41.6548 95.4386 41.5449C95.5715 41.4271 95.7121 41.3721 95.8684 41.3721C96.056 41.3721 96.2123 41.4271 96.3295 41.5292C96.4467 41.6313 96.5483 41.7726 96.6264 41.9376C96.7046 42.1025 96.7593 42.291 96.7983 42.4952C96.8374 42.6994 96.8608 42.8958 96.8687 43.0843C96.8921 43.744 96.9156 44.3881 96.939 45.0007C96.9624 45.6133 96.9937 46.2417 97.025 46.8779C97.0562 47.514 97.0875 48.1816 97.1265 48.8728C97.1656 49.5718 97.1969 50.3258 97.2281 51.1505C97.2359 51.5825 97.275 51.9202 97.3297 52.1559C97.3844 52.3915 97.4469 52.58 97.5173 52.7135C97.5876 52.847 97.6423 52.957 97.697 53.0277C97.7517 53.0984 97.7751 53.1926 97.7751 53.2947C97.7673 53.3575 97.7439 53.4518 97.7126 53.5853C97.6814 53.7188 97.6345 53.8524 97.5798 53.978C97.5251 54.1116 97.4469 54.2215 97.361 54.3158C97.275 54.41 97.1734 54.4493 97.0718 54.4414C96.7671 54.3786 96.5326 54.2843 96.3764 54.1665C96.2123 54.0566 96.1341 53.8681 96.1341 53.601Z" fill="white"/>
<path d="M113.381 54.441C113.123 54.441 112.896 54.4332 112.701 54.4253C112.514 54.4175 112.342 54.3939 112.193 54.3703C112.045 54.3468 111.904 54.3075 111.779 54.2525C111.654 54.1975 111.521 54.1347 111.388 54.0483C111.263 53.9776 111.146 53.8834 111.052 53.7813C110.951 53.6792 110.857 53.5771 110.779 53.4828C110.693 53.3886 110.622 53.31 110.56 53.2393C110.497 53.1686 110.443 53.1372 110.404 53.1372C109.943 53.4043 109.521 53.6163 109.146 53.7891C108.77 53.9541 108.419 54.0876 108.098 54.1818C107.778 54.2761 107.481 54.3389 107.192 54.3782C106.903 54.4175 106.637 54.4332 106.371 54.4332C105.606 54.4332 104.902 54.2996 104.246 54.0247C103.597 53.7499 103.035 53.3729 102.566 52.8937C102.097 52.4146 101.722 51.8491 101.456 51.1894C101.19 50.5296 101.058 49.8149 101.058 49.0452C101.058 48.4797 101.175 47.8592 101.401 47.1916C101.628 46.524 101.948 45.8957 102.355 45.3223C102.761 44.7411 103.23 44.262 103.777 43.8693C104.324 43.4766 104.918 43.2881 105.551 43.2881C105.918 43.2881 106.098 43.3588 106.098 43.508C106.098 43.6101 106.012 43.7044 105.848 43.775C105.27 43.8457 104.738 44.0342 104.254 44.317C103.769 44.6076 103.339 44.9767 102.98 45.4323C102.62 45.8878 102.339 46.3983 102.128 46.9717C101.917 47.545 101.823 48.1498 101.823 48.7782C101.823 49.4222 101.948 50.0113 102.206 50.5375C102.464 51.0716 102.808 51.5271 103.246 51.912C103.683 52.2968 104.176 52.5953 104.738 52.8152C105.301 53.0273 105.887 53.1372 106.504 53.1372C106.879 53.1372 107.239 53.1058 107.567 53.0508C107.895 52.9959 108.216 52.9095 108.528 52.7995C108.841 52.6895 109.146 52.5482 109.45 52.3754C109.755 52.2026 110.068 52.0062 110.38 51.7863C110.654 51.5978 110.88 51.4643 111.052 51.4015C111.232 51.3308 111.365 51.2993 111.443 51.2993C111.521 51.2993 111.591 51.3229 111.646 51.3779C111.701 51.4329 111.74 51.4878 111.763 51.5585C111.787 51.6292 111.802 51.6999 111.81 51.7706C111.818 51.8413 111.818 51.8963 111.818 51.9277C111.818 52.0455 111.795 52.1555 111.74 52.2497C111.685 52.3518 111.662 52.4539 111.662 52.556C111.662 52.6424 111.709 52.7131 111.802 52.7838C111.896 52.8545 112.013 52.9095 112.154 52.9644C112.295 53.0194 112.443 53.0587 112.599 53.0901C112.756 53.1215 112.896 53.1372 113.006 53.1372H113.365V54.441H113.381ZM108.364 47.9456C108.364 48.1577 108.294 48.3305 108.161 48.464C108.028 48.5975 107.848 48.6682 107.645 48.6682C107.442 48.6682 107.262 48.5975 107.129 48.464C106.997 48.3305 106.926 48.1498 106.926 47.9456C106.926 47.7257 106.997 47.5451 107.129 47.4115C107.262 47.278 107.442 47.2073 107.645 47.2073C107.848 47.2073 108.028 47.278 108.161 47.4115C108.294 47.5451 108.364 47.7257 108.364 47.9456ZM109.31 46.4455C109.31 46.6575 109.239 46.8303 109.106 46.9638C108.974 47.0974 108.802 47.168 108.591 47.168C108.372 47.168 108.2 47.0974 108.059 46.9638C107.926 46.8303 107.856 46.6497 107.856 46.4455C107.856 46.2255 107.926 46.0449 108.059 45.9114C108.192 45.7779 108.372 45.7072 108.591 45.7072C108.802 45.7072 108.966 45.7779 109.106 45.9114C109.239 46.0449 109.31 46.2255 109.31 46.4455ZM110.2 47.9456C110.2 48.1577 110.13 48.3305 109.997 48.464C109.864 48.5975 109.693 48.6682 109.482 48.6682C109.263 48.6682 109.091 48.5975 108.95 48.464C108.817 48.3305 108.747 48.1498 108.747 47.9456C108.747 47.7257 108.817 47.5451 108.95 47.4115C109.083 47.278 109.263 47.2073 109.482 47.2073C109.685 47.2073 109.857 47.278 109.997 47.4115C110.138 47.5451 110.2 47.7257 110.2 47.9456Z" fill="white"/>
<path d="M112.653 53.1294H114.599C114.763 53.1294 114.943 53.1059 115.123 53.0509C115.302 52.9959 115.474 52.9252 115.631 52.8231C115.787 52.721 115.928 52.6032 116.037 52.4618C116.154 52.3204 116.225 52.1555 116.256 51.9827C116.225 51.6136 116.068 51.2994 115.787 51.0481C115.756 51.0166 115.709 50.9852 115.654 50.946C115.599 50.9067 115.537 50.8674 115.474 50.8203C115.412 50.7732 115.357 50.726 115.31 50.6711C115.263 50.6161 115.24 50.569 115.24 50.514C115.24 50.459 115.248 50.3883 115.271 50.2862C115.295 50.1841 115.31 50.082 115.334 49.972C115.357 49.8621 115.381 49.76 115.404 49.6736C115.427 49.5872 115.451 49.5244 115.474 49.4929C115.513 49.3987 115.576 49.3516 115.662 49.3516C115.826 49.4144 115.998 49.5244 116.162 49.6814C116.326 49.8385 116.482 50.0192 116.615 50.2077C116.748 50.404 116.857 50.6004 116.943 50.7967C117.029 50.9931 117.068 51.1659 117.068 51.2994C116.983 51.8649 116.811 52.4147 116.561 52.9409C116.303 53.4672 115.92 53.8756 115.42 54.174C115.271 54.2604 115.029 54.3233 114.701 54.3782C114.537 54.4018 114.271 54.4175 113.919 54.4254C113.568 54.4332 113.138 54.4411 112.638 54.4411V53.1294H112.653ZM114.544 56.0747C114.544 56.2868 114.474 56.4596 114.341 56.5931C114.208 56.7266 114.029 56.7895 113.825 56.7895C113.614 56.7895 113.443 56.7266 113.31 56.5931C113.177 56.4596 113.107 56.2868 113.107 56.0747C113.107 55.8548 113.177 55.6663 113.31 55.5328C113.443 55.3914 113.622 55.3286 113.825 55.3286C114.036 55.3286 114.208 55.3993 114.341 55.5328C114.474 55.6742 114.544 55.8548 114.544 56.0747ZM116.146 56.0276C116.146 56.2397 116.076 56.4125 115.943 56.546C115.81 56.6795 115.631 56.7423 115.427 56.7423C115.216 56.7423 115.045 56.6795 114.912 56.546C114.779 56.4125 114.709 56.2397 114.709 56.0276C114.709 55.8077 114.779 55.6192 114.912 55.4857C115.045 55.3443 115.224 55.2815 115.427 55.2815C115.638 55.2815 115.81 55.3522 115.943 55.4857C116.076 55.627 116.146 55.8077 116.146 56.0276Z" fill="white"/>
<path d="M120.031 45.7708C119.945 46.0143 119.89 46.25 119.859 46.4856C119.828 46.7133 119.812 46.9568 119.812 47.2003C119.812 47.703 119.89 48.1978 120.054 48.669C120.218 49.1403 120.445 49.5723 120.75 49.9571C121.047 50.342 121.414 50.6719 121.844 50.9389C122.274 51.2059 122.758 51.3866 123.289 51.4808C123.446 51.5123 123.641 51.528 123.868 51.528H124.352C124.485 51.6458 124.579 51.7636 124.618 51.8893C124.657 52.0149 124.68 52.1484 124.68 52.282C124.68 52.4155 124.665 52.5569 124.634 52.6904C124.602 52.8239 124.563 52.9574 124.509 53.0674C124.407 53.0909 124.329 53.0988 124.274 53.0988C124.337 53.1302 124.415 53.1459 124.501 53.1538C124.587 53.1616 124.68 53.1616 124.774 53.1616C124.923 53.1616 125.063 53.1538 125.196 53.1459C125.329 53.1381 125.431 53.1302 125.493 53.1302V54.4419C125.431 54.4497 125.368 54.4576 125.313 54.4576C125.259 54.4576 125.196 54.4576 125.134 54.4576C124.602 54.4497 124.149 54.3319 123.79 54.1041C123.43 53.8764 123.188 53.5622 123.055 53.1616C122.993 53.1616 122.867 53.1695 122.68 53.1852C122.492 53.2009 122.289 53.2166 122.063 53.2323C121.844 53.248 121.633 53.2637 121.445 53.2716C121.25 53.2794 121.125 53.2873 121.078 53.2873C121.008 53.2873 120.937 53.2873 120.883 53.2951C120.828 53.303 120.773 53.3109 120.719 53.3344C120.445 53.6407 120.156 53.8764 119.851 54.0492C119.546 54.2141 119.257 54.3005 118.984 54.3005C118.82 54.3005 118.648 54.2691 118.491 54.2141C118.327 54.1591 118.179 54.0649 118.054 53.947C117.921 53.8292 117.819 53.6722 117.741 53.4915C117.663 53.3109 117.624 53.0909 117.624 52.8396C117.624 52.3998 117.726 52.062 117.921 51.8264C118.116 51.5908 118.382 51.4808 118.71 51.4808C118.781 51.5044 118.851 51.5358 118.921 51.5908C118.992 51.6458 119.062 51.6929 119.14 51.7479C119.218 51.8029 119.312 51.85 119.429 51.8893C119.546 51.9285 119.687 51.9521 119.851 51.9521C119.89 51.9521 119.968 51.9521 120.078 51.9442C120.187 51.9364 120.304 51.9364 120.429 51.9285C120.554 51.9207 120.672 51.9128 120.773 51.905C120.875 51.8971 120.945 51.8814 120.976 51.8578C120.601 51.5201 120.289 51.1588 120.039 50.774C119.789 50.3891 119.593 49.9964 119.453 49.5958C119.304 49.1953 119.203 48.8026 119.148 48.4099C119.093 48.0171 119.062 47.648 119.062 47.3024C119.062 47.1218 119.07 46.8861 119.093 46.5798C119.117 46.2814 119.156 45.9672 119.21 45.6295C119.265 45.2996 119.343 44.9619 119.437 44.6163C119.531 44.2707 119.648 43.9644 119.781 43.6895C119.914 43.4146 120.078 43.1947 120.265 43.0219C120.453 42.8491 120.672 42.7627 120.922 42.7627C121.039 42.7627 121.148 42.8255 121.266 42.9433C121.383 43.0612 121.437 43.2339 121.437 43.4382C121.437 43.556 121.375 43.6973 121.258 43.8701C121.141 44.0429 121 44.2314 120.844 44.4356C120.687 44.6398 120.531 44.8598 120.375 45.0797C120.234 45.3232 120.109 45.5431 120.031 45.7708Z" fill="white"/>
<path d="M126.329 53.0983C126.243 53.0747 126.149 53.004 126.047 52.8862C125.946 52.7684 125.844 52.6035 125.758 52.4071C125.672 52.2108 125.594 51.9751 125.539 51.7081C125.485 51.4489 125.453 51.1583 125.453 50.8363C125.453 50.5064 125.5 50.1687 125.602 49.8152C125.703 49.4618 125.828 49.1398 125.993 48.8413C126.157 48.5429 126.344 48.3072 126.555 48.1109C126.766 47.9224 127.001 47.8281 127.243 47.8281C127.571 47.8281 127.813 47.8752 127.977 47.9774C128.141 48.0795 128.313 48.1816 128.485 48.2994C128.665 48.4172 128.899 48.5271 129.204 48.6214C129.509 48.7156 129.954 48.7706 130.548 48.7706V50.0823C129.79 50.0823 129.228 50.0351 128.86 49.9409C128.485 49.8466 128.22 49.7445 128.056 49.6267C127.891 49.5089 127.782 49.4068 127.735 49.3126C127.68 49.2183 127.602 49.1712 127.485 49.1712C127.18 49.1712 126.969 49.2811 126.852 49.5011C126.735 49.721 126.672 49.988 126.672 50.31C126.672 50.742 126.813 51.119 127.094 51.441C127.376 51.7631 127.719 52.0301 128.126 52.2422C128.532 52.4542 128.954 52.6113 129.392 52.7056C129.829 52.7998 130.212 52.8548 130.525 52.8548C131.15 52.8548 131.799 52.7998 132.455 52.6899C133.111 52.5799 133.76 52.5249 134.385 52.5249C134.502 52.5249 134.62 52.5406 134.745 52.5642C134.87 52.5878 134.979 52.6349 135.081 52.6899C135.182 52.7448 135.26 52.8234 135.323 52.9098C135.385 52.9962 135.417 53.1061 135.417 53.2161C135.417 53.3025 135.409 53.4046 135.393 53.5381C135.378 53.6716 135.346 53.7973 135.299 53.923C135.253 54.0486 135.182 54.1664 135.081 54.2607C134.979 54.3628 134.854 54.4178 134.698 54.4256C134.549 54.4256 134.44 54.4099 134.377 54.3707C134.307 54.3314 134.252 54.2921 134.198 54.245C134.143 54.1979 134.088 54.1507 134.034 54.1115C133.979 54.0722 133.893 54.0486 133.791 54.0486C133.065 54.1115 132.314 54.1664 131.533 54.2136C130.751 54.2607 129.97 54.3 129.189 54.3314C128.407 54.3628 127.634 54.3864 126.868 54.4021C126.102 54.4178 125.375 54.4256 124.68 54.4256V53.114L126.329 53.0983Z" fill="white"/>
<path d="M129.744 53.1298C129.775 53.1298 129.846 53.1141 129.947 53.0748C130.049 53.0356 130.174 52.9884 130.299 52.9256C130.432 52.8628 130.565 52.7921 130.705 52.7214C130.846 52.6507 130.979 52.5722 131.104 52.4858C131.377 52.3051 131.62 52.1166 131.823 51.9203C132.034 51.7239 132.135 51.5354 132.135 51.3705C132.135 50.805 132.112 50.2081 132.073 49.5876C132.034 48.9671 131.979 48.3388 131.909 47.7104C131.838 47.0821 131.752 46.4459 131.659 45.8254C131.557 45.1971 131.456 44.5923 131.338 44.019C131.307 43.8619 131.237 43.7441 131.135 43.6734C131.034 43.6027 130.916 43.532 130.807 43.4692C130.69 43.4063 130.588 43.3278 130.502 43.2414C130.416 43.155 130.369 43.0136 130.369 42.8251C130.369 42.6995 130.385 42.5502 130.416 42.3853C130.447 42.2204 130.494 42.0554 130.565 41.9062C130.635 41.757 130.721 41.6234 130.823 41.5213C130.924 41.4192 131.049 41.3643 131.198 41.3643C131.26 41.3643 131.346 41.3878 131.455 41.4428C131.565 41.4978 131.674 41.5763 131.784 41.6784C131.893 41.7805 131.987 41.9219 132.065 42.079C132.143 42.2439 132.182 42.4403 132.182 42.6681V42.6995C132.182 42.9194 132.198 43.155 132.229 43.4063C132.26 43.6577 132.299 43.909 132.339 44.1761C132.487 44.985 132.604 45.739 132.69 46.4223C132.776 47.1057 132.854 47.8989 132.932 48.7943C133.011 49.6897 133.042 50.6243 133.042 51.5904C133.042 51.6768 133.034 51.7396 133.018 51.7789C133.003 51.8182 132.995 51.8967 132.995 52.0145C132.995 52.0852 133.042 52.1873 133.143 52.313C133.245 52.4387 133.362 52.5643 133.503 52.6821C133.644 52.7999 133.8 52.9099 133.964 53.0042C134.128 53.0984 134.284 53.1534 134.417 53.1612V54.4729H134.37C134.276 54.4729 134.175 54.465 134.058 54.4415C133.94 54.4179 133.808 54.3629 133.667 54.2765C133.518 54.1901 133.347 54.0566 133.143 53.8917C132.94 53.7267 132.714 53.4911 132.44 53.1927C132.385 53.1377 132.315 53.1141 132.229 53.1141C132.174 53.1141 132.151 53.122 132.151 53.1298C132.034 53.2319 131.885 53.3654 131.713 53.5147C131.534 53.6639 131.338 53.8131 131.127 53.9545C130.916 54.0959 130.682 54.2216 130.44 54.3158C130.197 54.4101 129.955 54.465 129.721 54.465V53.1298H129.744Z" fill="white"/>
<path d="M133.737 53.1298C133.98 53.1298 134.23 53.0905 134.487 53.0199C134.745 52.9492 134.964 52.8392 135.136 52.7057C135.324 52.5722 135.488 52.3915 135.621 52.1795C135.753 51.9674 135.855 51.7475 135.918 51.5433C135.91 51.2684 135.894 50.8443 135.871 50.2709C135.847 49.6975 135.816 49.0535 135.769 48.3545C135.722 47.6476 135.66 46.9172 135.589 46.1553C135.519 45.3934 135.417 44.6944 135.292 44.0504C135.23 43.9012 135.136 43.8069 135.003 43.7676C134.87 43.7284 134.738 43.6812 134.605 43.642C134.472 43.6027 134.347 43.532 134.245 43.4378C134.144 43.3435 134.089 43.1707 134.089 42.9194C134.089 42.8644 134.105 42.7544 134.128 42.5895C134.151 42.4246 134.198 42.2439 134.253 42.0633C134.308 41.8826 134.378 41.7177 134.456 41.5763C134.534 41.4349 134.628 41.3643 134.745 41.3643C135.371 41.3643 135.753 41.5135 135.878 41.8198C135.972 42.0397 136.035 42.2282 136.066 42.3774C136.097 42.5267 136.113 42.6838 136.121 42.8408C136.128 42.9979 136.129 43.1786 136.136 43.3749C136.144 43.5713 136.168 43.8383 136.207 44.1682C136.339 45.3306 136.441 46.493 136.511 47.6633C136.582 48.8336 136.613 50.0824 136.613 51.4098C136.613 52.2344 136.363 52.9178 135.871 53.4833C135.714 53.6639 135.566 53.8131 135.433 53.9388C135.3 54.0645 135.152 54.1666 134.995 54.2451C134.839 54.3237 134.659 54.3786 134.464 54.41C134.269 54.4415 134.026 54.4572 133.745 54.4572V53.1298H133.737Z" fill="white"/>
</g>
</g>
<defs>
<filter id="filter0_d" x="27" y="21.7373" width="108.421" height="19.6772" filterUnits="userSpaceOnUse" color-interpolation-filters="sRGB">
<feFlood flood-opacity="0" result="BackgroundImageFix"/>
<feColorMatrix in="SourceAlpha" type="matrix" values="0 0 0 0 0 0 0 0 0 0 0 0 0 0 0 0 0 0 127 0"/>
<feOffset dy="4"/>
<feGaussianBlur stdDeviation="2"/>
<feColorMatrix type="matrix" values="0 0 0 0 0 0 0 0 0 0 0 0 0 0 0 0 0 0 0.25 0"/>
<feBlend mode="normal" in2="BackgroundImageFix" result="effect1_dropShadow"/>
<feBlend mode="normal" in="SourceGraphic" in2="effect1_dropShadow" result="shape"/>
</filter>
<filter id="filter1_d" x="22" y="41.3643" width="118.613" height="27.3445" filterUnits="userSpaceOnUse" color-interpolation-filters="sRGB">
<feFlood flood-opacity="0" result="BackgroundImageFix"/>
<feColorMatrix in="SourceAlpha" type="matrix" values="0 0 0 0 0 0 0 0 0 0 0 0 0 0 0 0 0 0 127 0"/>
<feOffset dy="4"/>
<feGaussianBlur stdDeviation="2"/>
<feColorMatrix type="matrix" values="0 0 0 0 0 0 0 0 0 0 0 0 0 0 0 0 0 0 0.25 0"/>
<feBlend mode="normal" in2="BackgroundImageFix" result="effect1_dropShadow"/>
<feBlend mode="normal" in="SourceGraphic" in2="effect1_dropShadow" result="shape"/>
</filter>
<clipPath id="clip0">
<rect width="129" height="53" fill="white" transform="translate(17 14)"/>
</clipPath>
</defs>
</svg>
