<svg width="221" height="115" viewBox="0 0 221 115" fill="none" xmlns="http://www.w3.org/2000/svg">
<path d="M2 57.4217C12.0709 47.9558 16.9462 38.9881 19.5262 32.2801C21.1631 28.0276 25.5046 15.3056 32.1236 8.77555C35.273 5.66177 38.9918 3.72233 38.9918 3.72233C41.981 2.17434 44.6855 1.46261 46.5538 1.10675C88.7767 1.07117 130.982 1.03559 173.205 1C175.411 1.55158 178.436 2.5302 181.745 4.3095C182.795 4.87888 184.984 6.07101 187.315 8.02825C189.219 9.61183 191.976 12.3342 195.855 19.3268C197.777 22.7787 198.133 23.9886 200.731 29.629C207.706 44.7887 211.157 49.2903 212.83 51.3365C215.125 54.1478 217.278 56.194 218.666 57.4217C209.503 67.2968 204.859 75.7663 202.296 81.7804C199.752 87.741 196.514 93.3814 193.756 99.2709C192.919 101.068 191.425 104.253 188.329 107.509C185.838 110.107 183.276 111.744 181.461 112.74C89.4884 113.221 55.8774 113.452 52.5323 113.541C51.0021 113.577 49.4007 113.505 46.1801 113.363C43.6713 113.256 42.5504 113.149 41.2159 112.722C40.4152 112.473 38.9028 111.904 36.9989 110.463C31.8034 106.513 27.8177 99.093 26.6968 96.94C24.6861 93.0789 24.5972 92.0469 21.4656 86.0863C21.0919 85.3746 20.1667 83.6131 18.9034 81.3711C17.5333 78.9157 15.0779 74.5742 12.0709 70.1259C9.82894 66.763 6.53723 62.3326 2 57.4217Z" fill="#129D59" stroke="white" stroke-width="2"/>
<path d="M44.6045 32.1458V40.6864H45.9034C46.0813 40.6864 46.2592 40.6509 46.4194 40.5797C46.5795 40.5085 46.7397 40.4196 46.8642 40.3128C46.9888 40.1882 47.0777 40.0637 47.1489 39.9036C47.2201 39.7434 47.2556 39.5833 47.2556 39.4053V32.1458H49.3196V39.4053C49.3196 39.868 49.2307 40.295 49.0527 40.7042C48.8748 41.1135 48.6257 41.4693 48.3232 41.7718C48.0208 42.0743 47.6471 42.3056 47.2379 42.4835C46.8286 42.6615 46.3838 42.7504 45.9212 42.7504H39.8182C39.7292 43.4266 39.5157 44.0315 39.1776 44.5298C38.8395 45.0457 38.4303 45.4728 37.9321 45.8286C37.4517 46.1667 36.9001 46.4336 36.2951 46.5937C35.6902 46.7717 35.0674 46.8606 34.4447 46.8606C33.7685 46.8606 33.0924 46.7539 32.4341 46.5582C31.7757 46.3624 31.2063 46.06 30.6903 45.6685C30.1921 45.2593 29.7829 44.7611 29.4626 44.1739C29.1423 43.5867 29 42.8928 29 42.0743V34.0852H31.0818V42.0743C31.0818 42.5191 31.1707 42.9284 31.3665 43.2486C31.5622 43.5867 31.8113 43.8714 32.1316 44.1027C32.4518 44.334 32.8077 44.4942 33.1992 44.6009C33.6084 44.7255 34.0176 44.7789 34.4447 44.7789C34.8717 44.7789 35.2809 44.7255 35.6902 44.6009C36.0994 44.4942 36.4553 44.3162 36.7578 44.1027C37.078 43.8714 37.3271 43.5867 37.5051 43.2486C37.7008 42.9106 37.8076 42.5191 37.8076 42.0743V32.1458H39.9071V40.6864H42.5583V32.1458H44.6045ZM52.2021 32.128C53.4654 32.128 54.5508 32.2347 55.4404 32.4483C56.3301 32.6618 57.0774 32.9821 57.6468 33.4091C58.2162 33.8183 58.6432 34.3343 58.9101 34.9571C59.177 35.562 59.3193 36.2738 59.3193 37.0745V39.3876C59.3193 39.8502 59.2304 40.295 59.0524 40.7042C58.8745 41.1135 58.6254 41.4693 58.3229 41.7718C58.0204 42.0743 57.6468 42.3056 57.2375 42.4835C56.8283 42.6615 56.3835 42.7504 55.9031 42.7504H51.6327V40.6864H55.9031C56.081 40.6864 56.2589 40.6509 56.4191 40.5797C56.5792 40.5085 56.7393 40.4196 56.8639 40.295C56.9884 40.1704 57.0774 40.0459 57.1486 39.8858C57.2198 39.7256 57.2553 39.5655 57.2553 39.3876V37.0745C57.2553 36.6118 57.1664 36.2026 56.9706 35.8645C56.7927 35.5087 56.4902 35.2062 56.081 34.9749C55.6718 34.7258 55.1558 34.5478 54.533 34.4233C53.8925 34.2987 53.1274 34.2454 52.2377 34.2454V32.128H52.2021ZM63.7142 28.0356V39.352C63.7142 39.5299 63.7498 39.7078 63.821 39.868C63.8921 40.0281 63.9811 40.1704 64.1057 40.295C64.2302 40.4196 64.3726 40.5085 64.5327 40.5797C64.6928 40.6509 64.8708 40.6864 65.0487 40.6864H66.0273V42.7504H65.0487C64.5861 42.7504 64.1412 42.6615 63.732 42.4835C63.3228 42.3056 62.9669 42.0565 62.6466 41.754C62.3441 41.4516 62.095 41.0957 61.9171 40.6864C61.7392 40.2772 61.6502 39.8324 61.6502 39.3698V28.0356H63.7142ZM80.5108 32.1458V40.6864H82.6282V42.7504H65.1021V40.6864H68.9632V32.1458H71.0272V40.6864H73.6961V32.1458H75.7601V40.6864H78.4468V32.1458H80.5108ZM86.0978 28.0356V39.352C86.0978 39.8146 86.0089 40.2594 85.8309 40.6687C85.653 41.0779 85.4217 41.4338 85.1014 41.7362C84.799 42.0387 84.4253 42.2878 84.0161 42.4658C83.6068 42.6437 83.162 42.7327 82.6994 42.7327H81.7208V40.6687H82.6994C82.8773 40.6687 83.0552 40.6331 83.2154 40.5619C83.3755 40.4907 83.5179 40.4018 83.6424 40.2772C83.767 40.1527 83.8559 40.0103 83.9271 39.8502C83.9983 39.69 84.0339 39.5121 84.0339 39.3342V28H86.0978V28.0356ZM90.4749 28.0356V42.7682H88.4109V28.0356H90.4749ZM96.9516 32.128C98.2149 32.128 99.3003 32.2347 100.208 32.4483C101.097 32.6618 101.845 32.9821 102.414 33.4091C102.983 33.8183 103.393 34.3343 103.66 34.9571C103.926 35.562 104.069 36.2738 104.069 37.0745V40.6864H106.186V42.7504H96.3822V40.6864H102.005V37.0745C102.005 36.6118 101.916 36.2026 101.72 35.8645C101.524 35.5087 101.24 35.2062 100.83 34.9749C100.421 34.7258 99.9052 34.5478 99.2825 34.4233C98.6419 34.2987 97.8768 34.2454 96.9872 34.2454V32.128H96.9516ZM105.261 40.6864H107.556C107.503 40.4729 107.449 40.2594 107.432 40.0459C107.396 39.8146 107.396 39.5833 107.396 39.352V36.9855C107.396 36.3272 107.521 35.7044 107.77 35.1172C108.019 34.5301 108.357 34.0141 108.784 33.5692C109.211 33.1244 109.727 32.7863 110.296 32.5372C110.866 32.2881 111.489 32.1458 112.129 32.1458C112.787 32.1458 113.392 32.2703 113.962 32.5372C114.531 32.8041 115.047 33.16 115.474 33.6048C115.919 34.0496 116.257 34.5656 116.506 35.1528C116.755 35.74 116.88 36.3449 116.88 36.9855V39.3698C116.88 39.6011 116.88 39.8324 116.844 40.0459C116.809 40.2594 116.755 40.4729 116.702 40.6864H118.997V42.7504H115.51C115.065 43.1953 114.567 43.5511 113.98 43.818C113.41 44.0849 112.787 44.2095 112.129 44.2095C111.471 44.2095 110.848 44.0849 110.261 43.818C109.691 43.5689 109.193 43.2131 108.748 42.7504H105.261V40.6864ZM112.111 34.2276C111.738 34.2276 111.4 34.2987 111.079 34.4411C110.759 34.5834 110.474 34.7792 110.243 35.0283C109.994 35.2774 109.816 35.562 109.674 35.9001C109.531 36.2382 109.46 36.594 109.46 36.9677V39.352C109.46 39.7434 109.531 40.0993 109.674 40.4373C109.816 40.7754 109.994 41.0601 110.243 41.327C110.492 41.5761 110.759 41.7718 111.079 41.9142C111.4 42.0565 111.755 42.1277 112.111 42.1277C112.485 42.1277 112.823 42.0565 113.143 41.9142C113.464 41.7718 113.748 41.5761 113.997 41.327C114.246 41.0779 114.442 40.7754 114.585 40.4373C114.727 40.0993 114.798 39.7434 114.798 39.3698V36.9855C114.798 36.6118 114.727 36.256 114.585 35.9357C114.442 35.5976 114.246 35.3129 113.997 35.0638C113.748 34.8147 113.464 34.6012 113.143 34.4589C112.823 34.2987 112.467 34.2276 112.111 34.2276ZM120.065 33.1778C120.26 33.0888 120.527 32.9821 120.848 32.8575C121.168 32.733 121.524 32.6084 121.915 32.5016C122.307 32.3949 122.716 32.3059 123.143 32.2347C123.57 32.1636 123.997 32.128 124.406 32.128C125.011 32.128 125.581 32.1992 126.15 32.3415C126.719 32.4839 127.235 32.7507 127.68 33.1244C128.125 33.4981 128.499 33.9963 128.766 34.6546C129.05 35.2952 129.175 36.0958 129.175 37.0922V40.7042H131.292V42.7682H118.054V40.7042H127.093V37.0922C127.093 36.5229 127.004 36.0603 126.844 35.6866C126.684 35.3129 126.488 35.0283 126.239 34.8147C125.99 34.6012 125.705 34.4411 125.367 34.3521C125.047 34.2632 124.709 34.2276 124.371 34.2276C124.05 34.2276 123.712 34.2632 123.374 34.3165C123.036 34.3699 122.716 34.4411 122.413 34.53C122.111 34.619 121.826 34.708 121.559 34.7969C121.31 34.8859 121.097 34.9749 120.937 35.046L120.065 33.1778ZM130.385 40.6864H132.68C132.627 40.4729 132.573 40.2594 132.555 40.0459C132.52 39.8146 132.52 39.5833 132.52 39.352V36.9855C132.52 36.3272 132.644 35.7044 132.894 35.1172C133.143 34.5301 133.481 34.0141 133.908 33.5692C134.335 33.1244 134.833 32.7863 135.402 32.5372C135.972 32.2881 136.594 32.1458 137.253 32.1458C137.911 32.1458 138.516 32.2703 139.086 32.5372C139.655 32.8041 140.171 33.16 140.598 33.6048C141.025 34.0496 141.363 34.5656 141.612 35.1528C141.861 35.74 141.986 36.3449 141.986 36.9855V39.3698C141.986 40.0281 141.861 40.6331 141.612 41.2202C141.363 41.8074 141.025 42.3234 140.598 42.7504C140.171 43.1953 139.655 43.5511 139.086 43.818C138.516 44.0849 137.893 44.2095 137.253 44.2095C136.577 44.2095 135.954 44.0849 135.367 43.818C134.797 43.5689 134.299 43.2131 133.872 42.7504H130.385V40.6864ZM137.253 34.2276C136.879 34.2276 136.523 34.2987 136.203 34.4411C135.883 34.5834 135.598 34.7792 135.367 35.0283C135.118 35.2774 134.94 35.562 134.797 35.9001C134.655 36.2382 134.584 36.594 134.584 36.9677V39.352C134.584 39.7434 134.655 40.0993 134.797 40.4373C134.94 40.7754 135.118 41.0601 135.367 41.327C135.616 41.5761 135.883 41.7718 136.203 41.9142C136.523 42.0565 136.879 42.1277 137.253 42.1277C137.626 42.1277 137.965 42.0565 138.285 41.9142C138.605 41.7718 138.89 41.5761 139.139 41.327C139.388 41.0779 139.584 40.7754 139.726 40.4373C139.868 40.0993 139.94 39.7434 139.94 39.3698V36.9855C139.94 36.6118 139.868 36.256 139.726 35.9357C139.584 35.5976 139.388 35.3129 139.139 35.0638C138.89 34.8147 138.605 34.6012 138.285 34.4589C137.965 34.2987 137.626 34.2276 137.253 34.2276ZM159.565 40.6864V42.7504H155.366V36.9855C155.366 36.6118 155.295 36.256 155.153 35.9357C155.01 35.5976 154.815 35.3129 154.565 35.0638C154.316 34.8147 154.032 34.6012 153.694 34.4589C153.373 34.2987 153.017 34.2276 152.644 34.2276C152.27 34.2276 151.914 34.2987 151.576 34.4411C151.256 34.5834 150.953 34.7792 150.704 35.046C150.455 35.2951 150.277 35.5976 150.117 35.9357C149.975 36.2738 149.904 36.6474 149.904 37.0389V39.3698C149.904 39.5477 149.939 39.7256 150.01 39.8858C150.082 40.0459 150.171 40.1704 150.295 40.295C150.42 40.4196 150.544 40.5085 150.704 40.5797C150.864 40.6509 151.042 40.6864 151.22 40.6864H153.48V42.7504H151.22C150.758 42.7504 150.313 42.6615 149.904 42.4835C149.494 42.3056 149.139 42.0743 148.836 41.754C148.534 41.4516 148.285 41.0957 148.107 40.6864C147.929 40.2772 147.84 39.8324 147.84 39.3698V37.0389C147.84 36.3627 147.964 35.7222 148.213 35.135C148.462 34.53 148.818 34.0141 149.245 33.587C149.672 33.1422 150.188 32.7863 150.776 32.5372C151.363 32.2703 151.985 32.1458 152.644 32.1458C153.302 32.1458 153.925 32.2703 154.512 32.5372C155.099 32.7863 155.597 33.1422 156.042 33.587C156.487 34.0318 156.825 34.5478 157.074 35.135C157.323 35.7222 157.448 36.3272 157.448 36.9855V40.6864H159.565ZM153.213 29.0854C153.213 28.943 153.231 28.8007 153.284 28.6761C153.338 28.5516 153.427 28.427 153.516 28.3381C153.622 28.2313 153.729 28.1601 153.854 28.1068C153.978 28.0534 154.121 28.0178 154.263 28.0178C154.405 28.0178 154.548 28.0534 154.672 28.1068C154.797 28.1601 154.921 28.2313 155.01 28.3381C155.099 28.427 155.17 28.5516 155.224 28.6761C155.277 28.8007 155.313 28.943 155.313 29.0854C155.313 29.3701 155.206 29.6192 155.01 29.8327C154.815 30.0284 154.565 30.1352 154.263 30.1352C154.121 30.1352 153.978 30.1174 153.854 30.064C153.729 30.0106 153.622 29.9216 153.516 29.8327C153.427 29.7437 153.338 29.637 153.284 29.5124C153.231 29.3701 153.213 29.2277 153.213 29.0854ZM150.099 29.0854C150.099 28.943 150.117 28.8007 150.171 28.6761C150.224 28.5516 150.313 28.427 150.402 28.3381C150.509 28.2313 150.615 28.1601 150.74 28.1068C150.865 28.0534 151.007 28.0178 151.149 28.0178C151.292 28.0178 151.434 28.0534 151.558 28.1068C151.683 28.1601 151.808 28.2313 151.896 28.3381C152.003 28.427 152.074 28.5516 152.128 28.6761C152.181 28.8007 152.217 28.943 152.217 29.0854C152.217 29.2277 152.181 29.3701 152.128 29.4946C152.074 29.6192 152.003 29.7259 151.896 29.8149C151.808 29.9039 151.683 29.9928 151.558 30.0462C151.434 30.0996 151.292 30.1174 151.149 30.1174C151.007 30.1174 150.865 30.0996 150.74 30.0462C150.615 29.9928 150.509 29.9039 150.402 29.8149C150.313 29.7259 150.224 29.6192 150.171 29.4946C150.135 29.3701 150.099 29.2277 150.099 29.0854ZM162.857 32.1458V34.0141C163.213 33.7472 163.587 33.4981 163.978 33.2667C164.387 33.0354 164.796 32.8397 165.223 32.6796C165.651 32.5194 166.095 32.3771 166.522 32.2881C166.967 32.1992 167.394 32.1458 167.821 32.1458C168.426 32.1458 168.996 32.2347 169.547 32.4127C170.099 32.5906 170.579 32.8753 170.988 33.2667C171.398 33.6582 171.718 34.1564 171.949 34.7969C172.198 35.4197 172.305 36.1848 172.305 37.0922V40.6864H174.422V42.7504H158.658V40.6864H160.775V32.1458H162.857ZM167.839 34.2276C167.465 34.2276 167.092 34.2632 166.683 34.3521C166.291 34.4411 165.917 34.5656 165.544 34.708C165.17 34.8503 164.832 35.0283 164.512 35.2418C164.191 35.4375 163.907 35.6688 163.658 35.9179C163.426 36.167 163.231 36.4161 163.071 36.6652C162.928 36.9321 162.857 37.199 162.857 37.4481V40.6687H170.223V37.0745C170.223 36.5407 170.152 36.1136 170.028 35.7578C169.903 35.3841 169.725 35.0994 169.512 34.8681C169.298 34.6368 169.031 34.4767 168.746 34.3699C168.462 34.2809 168.159 34.2276 167.839 34.2276ZM176.202 29.0854C176.202 28.943 176.22 28.8007 176.273 28.6761C176.326 28.5516 176.415 28.427 176.504 28.3381C176.611 28.2313 176.718 28.1601 176.842 28.1068C176.967 28.0534 177.109 28.0178 177.252 28.0178C177.394 28.0178 177.536 28.0534 177.661 28.1068C177.785 28.1601 177.91 28.2313 177.999 28.3381C178.088 28.427 178.159 28.5516 178.212 28.6761C178.266 28.8007 178.301 28.943 178.301 29.0854C178.301 29.3701 178.195 29.6192 177.999 29.8327C177.803 30.0462 177.554 30.1352 177.252 30.1352C177.109 30.1352 176.967 30.1174 176.842 30.064C176.718 30.0106 176.611 29.9216 176.504 29.8327C176.415 29.7437 176.326 29.637 176.273 29.5124C176.22 29.3701 176.202 29.2277 176.202 29.0854ZM179.12 32.1458V40.6864H181.237V42.7504H173.497V40.6864H177.038V32.1458H179.12ZM180.33 40.6864H182.625C182.572 40.4729 182.518 40.2594 182.501 40.0459C182.465 39.8146 182.465 39.5833 182.465 39.352V36.9855C182.465 36.3272 182.589 35.7044 182.839 35.1172C183.088 34.5301 183.426 34.0141 183.853 33.5692C184.28 33.1244 184.778 32.7863 185.347 32.5372C185.917 32.2881 186.54 32.1458 187.198 32.1458C187.856 32.1458 188.461 32.2703 189.031 32.5372C189.6 32.8041 190.116 33.16 190.543 33.6048C190.97 34.0496 191.308 34.5656 191.557 35.1528C191.806 35.74 191.931 36.3449 191.931 36.9855V39.3698C191.931 40.0281 191.806 40.6331 191.557 41.2202C191.308 41.8074 190.97 42.3234 190.543 42.7504C190.116 43.1953 189.6 43.5511 189.031 43.818C188.461 44.0849 187.838 44.2095 187.198 44.2095C186.522 44.2095 185.899 44.0849 185.312 43.818C184.742 43.5689 184.244 43.2131 183.817 42.7504H180.33V40.6864ZM187.198 34.2276C186.824 34.2276 186.468 34.2987 186.148 34.4411C185.828 34.5834 185.543 34.7792 185.312 35.0283C185.063 35.2774 184.885 35.562 184.742 35.9001C184.6 36.2382 184.529 36.594 184.529 36.9677V39.352C184.529 39.7434 184.6 40.0993 184.742 40.4373C184.885 40.7754 185.063 41.0601 185.312 41.327C185.561 41.5761 185.828 41.7718 186.148 41.9142C186.468 42.0565 186.824 42.1277 187.198 42.1277C187.572 42.1277 187.91 42.0565 188.23 41.9142C188.55 41.7718 188.835 41.5761 189.084 41.327C189.333 41.0779 189.529 40.7754 189.671 40.4373C189.813 40.0993 189.885 39.7434 189.885 39.3698V36.9855C189.885 36.6118 189.813 36.256 189.671 35.9357C189.529 35.5976 189.333 35.3129 189.084 35.0638C188.835 34.8147 188.55 34.6012 188.23 34.4589C187.91 34.2987 187.572 34.2276 187.198 34.2276Z" fill="white"/>
<path fill-rule="evenodd" clip-rule="evenodd" d="M94.1492 84.4635C94.6096 84.4635 95.0941 84.3908 95.5787 84.2455C96.0633 84.1001 96.4994 83.9063 96.8386 83.6398C97.202 83.3733 97.517 83.0341 97.7835 82.6222C98.05 82.2103 98.2438 81.7984 98.365 81.3865C98.3542 81.1508 98.3435 80.8629 98.3307 80.5187V80.5186C98.3146 80.0846 98.2951 79.561 98.268 78.9395L98.2493 78.5128C98.2064 77.5302 98.1587 76.4395 98.0742 75.2568C97.9935 74.1271 97.896 72.9639 97.7958 71.7671L97.735 71.041C97.5897 69.5873 97.3958 68.2548 97.1535 67.0191C97.0324 66.7284 96.8386 66.5588 96.5963 66.4861C96.4989 66.4569 96.3976 66.4238 96.294 66.3899L96.2937 66.3898C96.1396 66.3394 95.9803 66.2873 95.821 66.2438C95.5545 66.1711 95.3364 66.0258 95.1184 65.8562C94.9245 65.6623 94.8276 65.3474 94.8276 64.8628C94.8276 64.7659 94.8519 64.5478 94.9003 64.2329C94.9488 63.9179 95.0215 63.5787 95.1426 63.2153C95.2637 62.8519 95.3849 62.5369 95.5302 62.2704C95.6756 62.0039 95.8694 61.8585 96.0875 61.8585C97.2989 61.8585 98.0258 62.1492 98.268 62.7307C98.4619 63.1668 98.5588 63.506 98.6315 63.7968L98.6315 63.7969C98.6799 64.0876 98.7284 64.3783 98.7284 64.6932C98.7284 64.8304 98.7338 64.9837 98.7395 65.1456L98.7395 65.146L98.7395 65.1464C98.7459 65.3274 98.7526 65.5191 98.7526 65.7108C98.7526 66.0985 98.8011 66.6073 98.898 67.213C99.1645 69.442 99.3583 71.671 99.4795 73.9C99.6006 76.129 99.6733 78.5276 99.6733 81.0716C99.6733 82.6464 99.1887 83.979 98.2438 85.045C97.9531 85.3842 97.6623 85.675 97.3958 85.9172C97.1293 86.1595 96.8628 86.3533 96.5478 86.4987C96.2329 86.6441 95.8937 86.7652 95.5302 86.8137C95.3059 86.8417 95.0573 86.8697 94.7797 86.8884V87.031H93.5682C93.1321 87.031 92.7687 87.0068 92.4537 86.9826C92.1388 86.9583 91.848 86.8856 91.5331 86.7887C91.2423 86.6918 90.9516 86.5707 90.6366 86.4011L90.5307 86.3396L90.5306 86.3395C90.2548 86.1794 89.91 85.9794 89.5463 85.7227C88.7953 86.4011 87.923 86.7403 86.9055 86.7403C86.0575 86.7403 85.2821 86.498 84.5795 85.9892C84.1676 86.4253 83.7073 86.716 83.1743 86.9341C82.6413 87.1279 82.1082 87.2248 81.5268 87.2248C80.6061 87.2248 79.7339 86.9583 78.9586 86.4495C78.1833 85.9407 77.6987 85.1654 77.4806 84.1721C76.8265 84.9232 76.0754 85.5773 75.2032 86.1346C74.5154 86.574 73.7523 86.8477 72.9257 86.9557V86.9827H72.6799C72.5375 86.9955 72.3933 87.0036 72.2473 87.0068V86.9827H70.1395C69.9457 88.7999 69.4611 90.4474 68.6615 91.9253C67.862 93.4033 66.8444 94.6631 65.633 95.7049C64.4216 96.7468 63.0163 97.5463 61.49 98.1278C59.9636 98.7093 58.3403 99 56.6685 99C55.7478 99 54.8272 98.9031 53.9065 98.7335C52.9858 98.5639 52.0894 98.2732 51.1445 97.9097C51.0718 97.8613 51.0233 97.7886 51.0233 97.6917C51.0233 97.619 51.0475 97.5463 51.0718 97.5221C51.3782 97.5675 51.6686 97.6129 51.9432 97.6558L51.9438 97.6559L51.9441 97.6559L51.9441 97.6559C52.2553 97.7046 52.546 97.75 52.8162 97.7886C53.325 97.8613 53.9307 97.8855 54.5849 97.8855C57.3711 97.8855 59.8909 97.304 62.1441 96.1168C64.3974 94.9296 66.2629 93.1125 67.7166 90.6897C67.9589 90.2293 68.177 89.7448 68.3466 89.2118C68.5162 88.6787 68.6131 88.1457 68.6131 87.5884C68.6131 87.2735 68.5404 86.9585 68.4193 86.6436C68.2981 86.3528 68.1285 86.0621 67.9347 85.8198C67.7409 85.5775 67.5228 85.3352 67.2805 85.1172C67.0383 84.8991 66.796 84.7053 66.5779 84.5357V83.8573C66.5779 83.6877 66.5779 83.4939 66.6021 83.2516C66.6021 83.0093 66.6506 82.767 66.7475 82.549C66.8202 82.3309 66.9413 82.1371 67.0867 81.9917C67.2321 81.8463 67.4501 81.7736 67.7409 81.7736L68.2012 81.8948C68.6131 82.4036 68.9523 82.8155 69.2673 83.1547C69.5822 83.4939 69.873 83.7604 70.1879 83.93C70.5029 84.1238 70.8421 84.2692 71.2055 84.3419C71.5561 84.412 71.9743 84.4595 72.4818 84.4628H72.7561C73.5072 84.4628 74.1614 84.3174 74.7186 84.0025C75.2759 83.7117 75.7847 83.3241 76.245 82.8637C76.7053 82.4034 77.1172 81.9188 77.5049 81.41C77.8925 80.9012 78.3044 80.4167 78.692 80.0048C78.7405 79.9563 78.789 79.9079 78.8616 79.9079C78.9017 79.9079 78.9417 79.9005 78.9776 79.8939C79.007 79.8885 79.0337 79.8837 79.0555 79.8837C79.4431 79.8837 79.637 80.0775 79.637 80.4651L79.6266 80.5327C79.5814 80.8284 79.5331 81.1434 79.4431 81.4585C79.3462 81.7977 79.2978 82.1127 79.2978 82.4519C79.2978 83.0333 79.5158 83.4937 79.9761 83.8571C80.4365 84.1963 80.9695 84.3659 81.5752 84.3659C82.1567 84.3174 82.5928 84.1721 82.8351 83.9783C83.1016 83.7844 83.2712 83.5179 83.3681 83.2272C83.465 82.9364 83.5377 82.573 83.5619 82.1611C83.5862 81.7492 83.6589 81.2889 83.78 80.7801C83.8284 80.6105 83.9011 80.4894 84.0223 80.4167C84.1434 80.344 84.2646 80.2955 84.4099 80.2955C84.5553 80.2955 84.6764 80.344 84.7976 80.4167C84.9187 80.4894 84.9914 80.6105 84.9914 80.7801C84.9914 81.0708 85.0399 81.41 85.1368 81.7977C85.2337 82.1611 85.4033 82.5245 85.5971 82.8153C85.8152 83.1302 86.0575 83.3968 86.3482 83.6148C86.6389 83.8329 86.9781 83.954 87.39 83.954C87.6808 83.9056 87.8746 83.7844 87.9715 83.6633C88.0926 83.5179 88.1411 83.3483 88.1411 83.1545C88.1411 82.9607 88.0926 82.7426 88.02 82.5003C87.9473 82.258 87.8503 82.04 87.7292 81.7977C87.6081 81.5554 87.5112 81.3373 87.4385 81.1193C87.4261 81.0822 87.4138 81.0459 87.4017 81.0102C87.3425 80.8361 87.289 80.6786 87.2689 80.5378C87.2931 80.344 87.3173 80.1502 87.3173 79.9563C87.3416 79.7383 87.3658 79.5445 87.4142 79.3264C87.4627 79.1326 87.5354 78.9387 87.6323 78.7934C87.7292 78.648 87.8746 78.5269 88.0926 78.4784C88.5045 78.4784 88.8195 78.6238 89.0375 78.9387C89.2798 79.2295 89.4494 79.5687 89.5706 79.9079C89.7644 80.5863 89.9098 81.192 90.0309 81.7492C90.152 82.3065 90.3459 82.8153 90.5882 83.2272C90.8304 83.639 91.1939 83.954 91.6542 84.1963C92.1145 84.4386 92.7929 84.5355 93.6894 84.5355H94.125V84.4635H94.1492ZM82.3263 76.7097C82.5928 76.4432 82.714 76.1283 82.714 75.7164C82.714 75.2803 82.5928 74.9411 82.3263 74.6988C82.0598 74.4323 81.7206 74.3111 81.3087 74.3111C80.8968 74.3111 80.5819 74.4323 80.3153 74.6988C80.0488 74.9411 79.9277 75.2803 79.9277 75.7164C79.9277 76.104 80.0488 76.4432 80.3153 76.7097C80.5819 76.9763 80.921 77.0974 81.3087 77.0974C81.7206 77.0974 82.0598 76.9763 82.3263 76.7097ZM84.4826 73.875C84.7491 73.6085 84.8703 73.2935 84.8703 72.8574C84.8703 72.4456 84.7249 72.0821 84.4826 71.8398C84.2403 71.5733 83.9011 71.4522 83.465 71.4522C83.0531 71.4522 82.7139 71.5733 82.4474 71.8398C82.1809 72.0821 82.0598 72.4213 82.0598 72.8574C82.0598 73.2935 82.1809 73.6327 82.4474 73.875C82.7139 74.1415 83.0531 74.2627 83.465 74.2627C83.8769 74.2627 84.2161 74.1173 84.4826 73.875ZM86.542 76.7097C86.8085 76.4432 86.9297 76.1283 86.9297 75.7164C86.9297 75.2803 86.7843 74.9411 86.542 74.6988C86.2755 74.4323 85.9605 74.3111 85.5244 74.3111C85.1368 74.3111 84.7976 74.4323 84.5311 74.6988C84.2646 74.9411 84.1434 75.2803 84.1434 75.7164C84.1434 76.104 84.2646 76.4432 84.5311 76.7097C84.7976 76.9763 85.1126 77.0974 85.5244 77.0974C85.9605 77.0974 86.2997 76.9763 86.542 76.7097ZM51.3865 84.5121V84.464H51.4349H55.1903C55.5053 84.464 55.8445 84.4155 56.2079 84.3186C56.5713 84.2217 56.8863 84.0763 57.2013 83.8825C57.492 83.6887 57.7585 83.4464 57.9766 83.1799C58.1946 82.9134 58.34 82.5984 58.4127 82.2592C58.3642 81.5566 58.0493 80.9509 57.492 80.4663C57.4436 80.4179 57.3467 80.3452 57.2255 80.2725C57.1044 80.1998 57.0075 80.1271 56.8863 80.0302C56.7652 79.9333 56.6683 79.8364 56.5713 79.7395C56.4744 79.6426 56.426 79.5456 56.426 79.4487C56.426 79.3778 56.439 79.2809 56.4554 79.158C56.4614 79.113 56.4679 79.0646 56.4744 79.0126C56.5011 78.9061 56.5204 78.7995 56.5404 78.6889C56.5569 78.5983 56.5738 78.5051 56.5956 78.4069C56.644 78.1889 56.6925 77.995 56.7409 77.8254C56.7894 77.6558 56.8379 77.5347 56.8863 77.4862C56.959 77.2924 57.0801 77.2197 57.2497 77.2197C57.5647 77.3409 57.9039 77.5589 58.2189 77.8497C58.5338 78.1404 58.8246 78.4796 59.0911 78.8672C59.3576 79.2307 59.5757 79.6183 59.721 80.006C59.8906 80.3936 59.9633 80.7086 59.9633 80.9751C59.7937 82.0654 59.4787 83.1072 58.9699 84.1248C58.4854 85.1424 57.7343 85.9177 56.7652 86.4992C56.4744 86.6688 56.0141 86.7899 55.3599 86.8868C55.045 86.9353 54.5362 86.9595 53.8578 86.9837C53.1794 87.008 52.3556 87.008 51.3865 87.008V86.9651C50.6553 86.9222 50.0298 86.8029 49.5214 86.5958C48.8673 86.3292 48.3342 86.0627 47.9708 85.7478C47.5832 85.457 47.3166 85.1663 47.1713 84.8998C47.0259 84.6333 46.929 84.5121 46.9048 84.5121C46.7836 84.7059 46.5898 84.8998 46.3475 85.1421C46.1256 85.364 45.8834 85.5655 45.6208 85.784L45.6208 85.7841L45.548 85.8447C45.2572 86.087 44.9907 86.2808 44.7242 86.4746C44.4577 86.6684 44.2396 86.7654 44.07 86.838H36.0747C35.1055 86.838 34.1849 86.7411 33.3369 86.5231C32.4889 86.305 31.7378 85.99 31.0836 85.5297C30.4295 85.0694 29.9207 84.5121 29.5572 83.8095C29.1938 83.1069 29 82.2589 29 81.2897C29 80.3933 29.0969 79.5938 29.2907 78.8911C29.4846 78.1643 29.7753 77.4859 30.1387 76.856C30.5022 76.226 30.9625 75.5961 31.4955 75.0146C32.0285 74.4089 32.6342 73.8032 33.2884 73.1733H33.8214V73.4155C33.5974 73.6632 33.3733 73.8994 33.1548 74.1297L33.1548 74.1297L33.1548 74.1297L33.1547 74.1298C32.9244 74.3726 32.7002 74.6088 32.4889 74.845C32.0528 75.2811 31.6893 75.7415 31.3744 76.2018C31.0594 76.6621 30.8171 77.1709 30.6233 77.6797C30.4295 78.2128 30.3326 78.7942 30.3326 79.4726C30.3326 80.2237 30.4295 80.8536 30.5991 81.3867C30.7687 81.9197 31.0109 82.38 31.3259 82.7434C31.6409 83.1069 32.0043 83.3976 32.4404 83.6157C32.8765 83.8337 33.3369 84.0033 33.8457 84.1245C33.9084 84.1359 33.9725 84.1486 34.0386 84.1618L34.0388 84.1618C34.2533 84.2045 34.4886 84.2513 34.7663 84.2698C35.1055 84.3183 35.6143 84.3425 36.2443 84.3667C36.8982 84.391 37.7459 84.391 38.7873 84.391H38.7883H42.9071C42.967 84.391 43.0732 84.3817 43.2199 84.3689L43.2201 84.3689L43.2202 84.3689L43.2207 84.3689L43.2211 84.3688L43.2211 84.3688C43.3115 84.3609 43.4173 84.3517 43.537 84.3425C43.852 84.2941 44.1912 84.2214 44.5304 84.1245C44.8696 84.0033 45.1845 83.8579 45.4511 83.6641C45.7176 83.4703 45.8629 83.1796 45.8629 82.8404C45.4996 82.5255 45.1362 82.1621 44.7487 81.7745L44.7484 81.7743C44.3608 81.3867 44.1669 80.9263 44.1669 80.3448C44.1669 79.8118 44.2639 79.2788 44.4577 78.7458C44.6515 78.2127 44.918 77.704 45.233 77.2678C45.5722 76.8317 45.9599 76.4683 46.4202 76.1776C46.8805 75.8868 47.3651 75.7657 47.8497 75.7657C48.7219 75.7657 49.3518 76.0564 49.7637 76.6379C50.1756 77.2194 50.3936 77.8736 50.3936 78.6004C50.3936 79.1092 50.321 79.5938 50.1514 80.0299C49.9818 80.4902 49.7879 80.9021 49.5699 81.2897C49.3518 81.6774 49.1338 82.0408 48.8915 82.3316C48.6734 82.6223 48.5038 82.8888 48.3827 83.0826C48.4796 83.3249 48.625 83.5672 48.843 83.8095C49.0369 84.0518 49.3276 84.2456 49.6668 84.391C49.7879 84.4394 49.9575 84.4637 50.1756 84.4879C50.3936 84.5121 50.6358 84.5121 50.878 84.5121H50.8782H51.3865ZM47.5589 91.5383C47.8254 91.2718 47.9708 90.9569 47.9708 90.5207C47.9708 90.0846 47.8497 89.7454 47.5589 89.5032C47.2924 89.2366 46.9774 89.1155 46.5656 89.1155C46.1537 89.1155 45.8387 89.2366 45.5722 89.5032C45.3057 89.7454 45.1845 90.0846 45.1845 90.5207C45.1845 90.9569 45.3057 91.296 45.5722 91.5383C45.8387 91.8048 46.1779 91.926 46.5656 91.926C46.9532 91.926 47.2924 91.7806 47.5589 91.5383ZM48.3827 80.781C48.1889 81.0717 47.8981 81.2171 47.5589 81.2171L45.7903 79.3999C45.7903 78.9638 45.9599 78.6489 46.3233 78.4793C46.6625 78.3097 47.0259 78.2127 47.3651 78.2127C47.8254 78.2127 48.1646 78.4066 48.3827 78.7942C48.6007 79.1819 48.6977 79.618 48.6977 80.0541C48.6977 80.2479 48.6007 80.4902 48.3827 80.781ZM54.6815 91.1026C54.948 90.8603 55.0692 90.5211 55.0692 90.1092C55.0692 89.6731 54.9238 89.3339 54.6815 89.0674C54.415 88.8009 54.1001 88.6797 53.6882 88.6797C53.3005 88.6797 52.9613 88.8009 52.6948 89.0674C52.4283 89.3339 52.3072 89.6731 52.3072 90.1092C52.3072 90.5211 52.4283 90.8361 52.6948 91.1026C52.9613 91.3691 53.2763 91.4902 53.6882 91.4902C54.0758 91.4902 54.415 91.3691 54.6815 91.1026ZM57.7585 91.0057C58.025 90.7634 58.1462 90.4242 58.1462 90.0123C58.1462 89.6004 58.025 89.237 57.7585 88.9705C57.492 88.704 57.177 88.5828 56.7652 88.5828C56.3775 88.5828 56.0383 88.704 55.7718 88.9705C55.5053 89.237 55.3842 89.5762 55.3842 90.0123C55.3842 90.4242 55.5053 90.7391 55.7718 91.0057C56.0383 91.2722 56.3533 91.3933 56.7652 91.3933C57.1528 91.3933 57.492 91.2722 57.7585 91.0057ZM103.574 83.7612C103.405 84.2457 103.259 84.7788 103.163 85.3602C103.163 85.869 103.308 86.2325 103.599 86.4263C103.914 86.6686 104.374 86.8382 104.955 86.9593C105.149 86.9835 105.343 86.9109 105.513 86.717C105.707 86.5232 105.828 86.3051 105.949 86.0629C106.07 85.8206 106.167 85.5541 106.215 85.3118C106.271 85.1279 106.298 84.972 106.318 84.8545C106.325 84.8172 106.331 84.7837 106.336 84.7545C106.336 84.5607 106.288 84.3911 106.191 84.2457C106.094 84.1004 105.973 83.9065 105.852 83.64C105.731 83.3977 105.61 83.0343 105.488 82.574C105.392 82.1379 105.319 81.4837 105.295 80.6599C105.246 79.0851 105.174 77.6314 105.101 76.2988C105.092 76.1444 105.084 75.9906 105.076 75.8375C105.012 74.6696 104.95 73.5418 104.907 72.4708C104.834 71.2351 104.786 70.0479 104.737 68.8607C104.689 67.6735 104.641 66.4379 104.592 65.178C104.568 64.8146 104.519 64.4269 104.447 64.0393C104.374 63.6516 104.253 63.2882 104.107 62.9732C103.962 62.6583 103.768 62.3918 103.526 62.1979C103.284 62.0041 102.993 61.9072 102.63 61.9072C102.339 61.9072 102.048 62.0283 101.806 62.2464C101.564 62.4644 101.345 62.7309 101.176 63.0459C101.006 63.3609 100.885 63.6758 100.788 64.0393C100.691 64.3785 100.643 64.6935 100.643 64.96C100.643 65.2022 100.716 65.4203 100.861 65.5899C101.006 65.7595 101.2 65.9291 101.442 66.0502C101.66 66.1714 101.927 66.2925 102.193 66.4137C102.42 66.4892 102.617 66.5795 102.796 66.6615C102.847 66.6847 102.896 66.7073 102.945 66.7286C102.969 66.8982 102.993 67.0678 102.993 67.2617C103.005 67.3586 103.011 67.4555 103.017 67.5524C103.023 67.6493 103.029 67.7462 103.041 67.8431C103.088 68.3901 103.129 68.9315 103.17 69.4699C103.214 70.0525 103.258 70.6317 103.308 71.2109C103.405 72.3254 103.478 73.4641 103.55 74.6271C103.623 75.79 103.696 77.0015 103.744 78.2613C103.793 79.5212 103.841 80.878 103.889 82.2832C103.841 82.792 103.744 83.2766 103.574 83.7612Z" fill="white"/>
<path fill-rule="evenodd" clip-rule="evenodd" d="M162.138 84.464H161.081H161.032V84.4743C160.95 84.4686 160.87 84.4632 160.79 84.4632C160.62 84.4632 160.475 84.4148 160.354 84.3663C160.45 84.3663 160.62 84.3663 160.814 84.3178C160.911 84.0998 161.008 83.8575 161.056 83.591C161.129 83.3487 161.153 83.0822 161.153 82.8157C161.153 82.5492 161.105 82.3069 161.032 82.0646C160.959 81.8223 160.79 81.58 160.523 81.362H159.578C159.142 81.362 158.755 81.3135 158.464 81.2651C157.422 81.0955 156.501 80.7321 155.678 80.2233C154.854 79.6902 154.151 79.0603 153.57 78.3334C152.988 77.5824 152.552 76.7828 152.237 75.8622C151.922 74.9657 151.777 74.0208 151.777 73.0517C151.777 72.5913 151.825 72.131 151.874 71.6949C151.946 71.2588 152.043 70.7984 152.213 70.3381C152.358 69.9262 152.601 69.4901 152.94 68.9571C153.177 68.6282 153.415 68.3131 153.642 68.0117L153.643 68.0104C153.717 67.9126 153.789 67.8163 153.86 67.7214C154.151 67.3338 154.418 66.9703 154.66 66.6311C154.878 66.3162 154.999 66.0254 154.999 65.8074C154.999 65.4197 154.878 65.1048 154.66 64.8625C154.418 64.6444 154.2 64.5233 153.982 64.5233C153.497 64.5233 153.085 64.6929 152.722 65.0321C152.358 65.3713 152.043 65.7832 151.777 66.3162C151.51 66.8492 151.292 67.4307 151.098 68.0848C150.929 68.739 150.783 69.3932 150.662 70.0231C150.565 70.653 150.493 71.2588 150.444 71.8402C150.439 71.967 150.434 72.088 150.429 72.2032C150.411 72.6166 150.396 72.956 150.396 73.2213C150.396 73.8997 150.444 74.6023 150.565 75.3533C150.662 76.1044 150.856 76.8555 151.147 77.6308C151.438 78.4061 151.801 79.1572 152.286 79.8841C152.746 80.6351 153.352 81.3135 154.078 81.9677C154.03 82.0161 153.885 82.0404 153.691 82.0646L153.691 82.0646C153.473 82.0888 153.255 82.1131 153.012 82.1131C152.888 82.1131 152.77 82.1194 152.655 82.1257H152.655C152.546 82.1315 152.44 82.1373 152.334 82.1373C152.116 82.1615 151.971 82.1615 151.898 82.1615C151.559 82.1615 151.292 82.1131 151.074 82.0404C150.856 81.9677 150.662 81.8708 150.517 81.7739C150.347 81.6769 150.202 81.58 150.081 81.4831C149.935 81.3862 149.814 81.3135 149.669 81.2651C149.063 81.2651 148.554 81.5074 148.167 81.9435C147.779 82.3796 147.585 83.0337 147.585 83.8817C147.585 84.3663 147.658 84.7782 147.803 85.1416C147.949 85.4808 148.167 85.7715 148.409 86.0138C148.651 86.2319 148.942 86.4015 149.257 86.5226C149.572 86.6438 149.887 86.6922 150.202 86.6922C150.735 86.6922 151.292 86.5226 151.874 86.2076C152.455 85.8927 153.012 85.4323 153.545 84.8509C153.642 84.8024 153.739 84.7782 153.86 84.7782C153.982 84.754 154.103 84.7539 154.248 84.7539H154.248C154.345 84.7539 154.587 84.7539 154.951 84.7297C155.079 84.7212 155.21 84.7157 155.345 84.71C155.593 84.6995 155.855 84.6884 156.138 84.657C156.543 84.612 156.906 84.5879 157.247 84.5653L157.325 84.5601C157.464 84.5509 157.585 84.5416 157.689 84.5337C157.856 84.5209 157.977 84.5117 158.052 84.5117C158.294 85.2627 158.755 85.8685 159.457 86.3046C159.913 86.5875 160.44 86.7787 161.032 86.8846V86.8869C161.036 86.8869 161.04 86.8869 161.045 86.8869C161.361 86.9429 161.697 86.9746 162.05 86.983H162.389H162.389C162.486 86.983 162.607 86.983 162.728 86.9587V86.9141C163.265 86.9353 163.847 86.9353 164.496 86.9353H164.497H164.498C165.563 86.9353 166.823 86.9353 168.228 86.8869C169.657 86.8626 171.378 86.7657 173.413 86.5961L177.047 86.3296C177.241 86.3296 177.386 86.378 177.507 86.4507C177.556 86.4992 177.61 86.5416 177.665 86.584C177.719 86.6264 177.774 86.6688 177.822 86.7173C177.919 86.8142 178.065 86.8869 178.234 86.9595C178.404 87.0322 178.67 87.0564 178.985 87.0564C179.252 87.0322 179.446 86.9595 179.615 86.7899C179.761 86.6446 179.906 86.4507 180.003 86.2084C180.1 85.9904 180.173 85.7481 180.221 85.5058C180.245 85.2636 180.269 85.0213 180.269 84.8274C180.269 84.3671 180.027 84.0037 179.567 83.7614C179.107 83.5191 178.622 83.398 178.137 83.398C177.023 83.398 175.957 83.4949 174.939 83.6645C173.922 83.8341 172.88 83.931 171.862 83.931C171.596 83.931 171.232 83.8825 170.796 83.8098C170.336 83.7372 169.851 83.616 169.318 83.4706C168.761 83.3253 168.228 83.1315 167.671 82.8892C167.138 82.6469 166.629 82.3561 166.169 82.0412C165.708 81.7262 165.345 81.3628 165.054 80.9509C164.763 80.5633 164.618 80.1029 164.618 79.5941C164.618 78.9884 164.715 78.5281 164.909 78.1889C165.103 77.8497 165.442 77.6316 165.975 77.5832C167.041 78.4069 168.18 78.9884 169.367 79.3276C170.554 79.6668 171.765 79.8364 173.025 79.8364C174.237 79.8364 175.448 79.691 176.635 79.4487C177.822 79.2065 178.985 78.8915 180.124 78.5038C180.197 78.4796 180.269 78.4796 180.342 78.4796H180.342C180.488 78.4796 180.56 78.6008 180.584 78.843C180.681 79.902 180.777 80.9849 180.873 82.068L180.875 82.0896C180.972 83.1799 181.19 84.1733 181.505 85.0697C181.82 85.9662 182.329 86.693 183.032 87.2503C183.734 87.8075 184.752 88.0983 186.084 88.0983C186.69 88.0983 187.247 87.9529 187.78 87.6379C188.289 87.323 188.749 86.9111 189.137 86.378C189.525 85.8693 189.84 85.2636 190.058 84.5852C190.276 83.9068 190.397 83.2041 190.397 82.4773V82.0896C190.203 78.8915 189.937 75.766 189.622 72.7375C189.364 70.2589 189.09 67.7803 188.813 65.2751C188.751 64.7193 188.69 64.1621 188.628 63.6034C188.507 63.0946 188.459 62.6585 188.434 62.3677C188.432 62.3432 188.43 62.3188 188.428 62.2946C188.406 62.0322 188.386 61.79 188.386 61.5682C188.386 61.3502 188.362 61.1079 188.313 60.8656C188.289 60.6233 188.192 60.3083 188.047 59.8722C187.805 59.2907 187.078 59 185.866 59C185.648 59 185.454 59.1454 185.309 59.4119C185.164 59.6784 185.042 59.9934 184.921 60.3568C184.8 60.7202 184.728 61.0594 184.679 61.3744C184.631 61.6893 184.606 61.9074 184.606 62.0043C184.606 62.4889 184.728 62.8281 184.921 63.0219C185.115 63.2157 185.357 63.3369 185.624 63.4096C185.89 63.4823 186.157 63.5549 186.399 63.6276C186.666 63.7003 186.835 63.8699 186.908 64.1606C187.126 65.6628 187.32 67.1407 187.465 68.5944C187.611 70.0239 187.756 71.4534 187.877 72.8586C187.94 73.5895 187.997 74.3204 188.053 75.0546C188.106 75.7322 188.158 76.4126 188.216 77.0986C188.228 77.2307 188.239 77.363 188.25 77.4955C188.36 78.7972 188.472 80.1206 188.604 81.4839C188.604 82.0169 188.556 82.5257 188.459 83.0103C188.362 83.5191 188.192 83.9552 187.95 84.3186C187.708 84.7063 187.393 84.997 187.005 85.2393C186.593 85.4574 186.109 85.5785 185.527 85.5785C185.139 85.5785 184.8 85.5058 184.485 85.312C184.17 85.1182 183.904 84.9001 183.686 84.6336C183.468 84.3913 183.298 84.1006 183.153 83.8098C183.007 83.5191 182.935 83.2526 182.91 83.0588C182.855 82.5242 182.8 81.9917 182.746 81.4613C182.535 79.4193 182.327 77.4078 182.135 75.4268C181.893 72.9071 181.65 70.4116 181.36 67.9403C181.25 67.1069 181.18 66.3331 181.114 65.6008C181.107 65.5241 181.1 65.4479 181.093 65.3721C181.021 64.5756 180.948 63.8032 180.876 63.0308L180.875 63.0219C180.86 62.7913 180.825 62.5606 180.789 62.3238C180.768 62.1874 180.748 62.049 180.73 61.9074C180.681 61.5197 180.56 61.1563 180.415 60.7929C180.269 60.4295 180.051 60.1145 179.809 59.848C179.543 59.5815 179.228 59.3877 178.792 59.2907C178.404 59.3392 178.089 59.3877 177.871 59.4846C177.653 59.5815 177.459 59.7268 177.338 59.9207C177.192 60.1387 177.096 60.4052 177.047 60.7444C176.974 61.0836 176.902 61.544 176.829 62.077C176.829 62.1981 176.902 62.392 177.047 62.61C177.192 62.8523 177.362 63.0704 177.58 63.2884C177.798 63.5065 178.016 63.7003 178.234 63.8699C178.452 64.0395 178.646 64.1606 178.816 64.2091C178.985 64.2818 179.203 65.2994 179.446 67.2619C179.688 69.2244 179.93 72.1802 180.124 76.1295C179.809 76.396 179.397 76.6383 178.864 76.8563C178.331 77.0744 177.75 77.2682 177.12 77.4136C176.49 77.5589 175.811 77.6801 175.109 77.7528C174.382 77.8254 173.679 77.8739 172.977 77.8739C172.468 77.8739 172.008 77.8497 171.596 77.8012C171.184 77.7528 170.796 77.6558 170.409 77.5347C170.021 77.4136 169.633 77.244 169.27 77.0259C168.906 76.8321 168.519 76.5413 168.083 76.2021C167.743 75.9599 167.404 75.6933 167.113 75.4268C166.799 75.1603 166.459 75.0392 166.047 75.0392C165.466 75.0392 164.933 75.233 164.473 75.5964C164.012 75.9599 163.6 76.4202 163.285 76.9532C162.97 77.4862 162.728 78.0435 162.559 78.625C162.389 79.2065 162.316 79.691 162.316 80.1271C162.316 81.0236 162.486 81.8231 162.849 82.5015C163.213 83.1799 163.625 83.8341 164.109 84.464H162.728V84.439C162.607 84.439 162.413 84.439 162.146 84.4632C162.144 84.4635 162.141 84.4638 162.138 84.464ZM137.192 84.4873V84.464H137.241H140.996C141.311 84.464 141.65 84.4155 142.014 84.3186C142.377 84.2217 142.692 84.0763 143.007 83.8825C143.298 83.6887 143.564 83.4464 143.782 83.1799C144 82.9134 144.146 82.5984 144.218 82.2592C144.17 81.5566 143.855 80.9509 143.298 80.4663C143.249 80.4179 143.152 80.3452 143.031 80.2725C142.91 80.1998 142.813 80.1271 142.692 80.0302C142.571 79.9333 142.474 79.8364 142.377 79.7395L142.377 79.7395C142.28 79.6426 142.232 79.5456 142.232 79.4487C142.232 79.3778 142.245 79.281 142.261 79.1582L142.261 79.1582C142.267 79.1132 142.274 79.0646 142.28 79.0126C142.307 78.9061 142.326 78.7996 142.346 78.689L142.346 78.689L142.346 78.6889L142.346 78.6888C142.362 78.5983 142.379 78.505 142.401 78.4069C142.45 78.1889 142.498 77.995 142.547 77.8254C142.595 77.6558 142.643 77.5347 142.692 77.4862C142.765 77.2924 142.886 77.2197 143.055 77.2197C143.37 77.3409 143.71 77.5589 144.024 77.8496C144.339 78.1404 144.63 78.4796 144.897 78.8672C145.163 79.2307 145.381 79.6183 145.527 80.006C145.696 80.3936 145.769 80.7086 145.769 80.9751C145.599 82.0654 145.284 83.1072 144.776 84.1248C144.291 85.1424 143.54 85.9177 142.571 86.4992C142.28 86.6688 141.82 86.7899 141.166 86.8868C140.851 86.9353 140.342 86.9595 139.663 86.9837C138.985 87.008 138.161 87.008 137.192 87.008V86.9799C136.972 86.9769 136.769 86.9709 136.586 86.9586C136.223 86.9344 135.883 86.9102 135.593 86.8617C135.302 86.8133 135.035 86.7406 134.793 86.6437C134.604 86.5679 134.414 86.4624 134.213 86.3505C134.157 86.3193 134.1 86.2877 134.042 86.256C133.8 86.1106 133.582 85.941 133.388 85.7472C133.194 85.5535 133.025 85.3598 132.855 85.1661L132.855 85.1657L132.795 85.0976L132.795 85.0975C132.656 84.9371 132.546 84.8119 132.419 84.7054C132.298 84.5843 132.201 84.5116 132.128 84.5116C131.231 85.0204 130.432 85.4322 129.705 85.7472C128.978 86.0622 128.3 86.3287 127.694 86.4983C127.088 86.6921 126.507 86.8133 125.95 86.886C125.417 86.9586 124.884 86.9829 124.375 86.9829C122.897 86.9829 121.54 86.7163 120.28 86.2075C119.02 85.6745 117.954 84.9719 117.034 84.0512C116.113 83.1306 115.41 82.0403 114.902 80.7804C114.393 79.5205 114.126 78.1395 114.126 76.6858C114.126 75.5955 114.344 74.4083 114.805 73.1242C115.241 71.8401 115.871 70.6529 116.646 69.5384C117.421 68.4239 118.342 67.5032 119.384 66.7522C120.426 66.0011 121.564 65.6377 122.8 65.6377C123.503 65.6377 123.866 65.783 123.866 66.0738C123.866 66.2676 123.696 66.4372 123.382 66.5826C122.267 66.7279 121.249 67.0671 120.305 67.6244C119.36 68.1817 118.56 68.8843 117.857 69.7565C117.155 70.6287 116.622 71.5979 116.21 72.7124C115.822 73.8026 115.628 74.9656 115.628 76.177C115.628 77.4127 115.871 78.5272 116.38 79.5447C116.864 80.5623 117.542 81.4346 118.366 82.1856C119.214 82.9125 120.159 83.494 121.249 83.9059C122.34 84.3177 123.454 84.5358 124.666 84.5358C125.392 84.5358 126.071 84.4873 126.701 84.3662C127.331 84.2451 127.961 84.0997 128.542 83.8816C129.148 83.6636 129.729 83.3971 130.311 83.0579C130.892 82.7187 131.498 82.3552 132.104 81.9191C132.637 81.5557 133.073 81.3134 133.412 81.168C133.751 81.0469 134.018 80.9742 134.163 80.9742C134.333 80.9742 134.454 81.0227 134.551 81.1196C134.648 81.2165 134.72 81.3377 134.769 81.4588C134.817 81.5799 134.842 81.7253 134.866 81.8707C134.866 81.9628 134.875 82.0355 134.883 82.0887C134.887 82.1195 134.89 82.1437 134.89 82.1614C134.89 82.3795 134.842 82.5975 134.745 82.7914C134.648 82.9852 134.599 83.179 134.599 83.3728C134.599 83.5424 134.696 83.6878 134.866 83.8089C135.06 83.9301 135.278 84.0512 135.544 84.1481C135.811 84.245 136.101 84.342 136.416 84.3904C136.482 84.4005 136.545 84.4106 136.604 84.4203L136.605 84.4203L136.605 84.4203C136.831 84.457 137.019 84.4873 137.192 84.4873H137.192ZM127.84 75.5228C128.106 75.2563 128.227 74.9414 128.227 74.5295C128.227 74.0934 128.082 73.7542 127.84 73.5119C127.573 73.2454 127.258 73.1242 126.846 73.1242C126.459 73.1242 126.119 73.2454 125.853 73.5119C125.586 73.7542 125.465 74.0934 125.465 74.5295C125.465 74.9171 125.586 75.2563 125.853 75.5228C126.119 75.7894 126.434 75.9105 126.846 75.9105C127.234 75.9105 127.573 75.7894 127.84 75.5228ZM129.657 72.6397C129.923 72.3731 130.044 72.0582 130.044 71.6463C130.044 71.2344 129.899 70.871 129.657 70.6287C129.39 70.3622 129.051 70.2411 128.663 70.2411C128.251 70.2411 127.912 70.3622 127.646 70.6287C127.379 70.871 127.258 71.2102 127.258 71.6463C127.258 72.034 127.379 72.3731 127.646 72.6397C127.912 72.9062 128.251 73.0273 128.663 73.0273C129.075 73.0273 129.39 72.9062 129.657 72.6397ZM131.377 75.5228C131.643 75.2563 131.765 74.9414 131.765 74.5295C131.765 74.0934 131.643 73.7542 131.377 73.5119C131.11 73.2454 130.771 73.1242 130.383 73.1242C129.972 73.1242 129.632 73.2454 129.366 73.5119C129.099 73.7542 128.978 74.0934 128.978 74.5295C128.978 74.9171 129.099 75.2563 129.366 75.5228C129.632 75.7894 129.972 75.9105 130.383 75.9105C130.795 75.9105 131.11 75.7894 131.377 75.5228ZM140.487 91.1026C140.754 90.8603 140.875 90.5211 140.875 90.1092C140.875 89.6731 140.754 89.3339 140.487 89.0674C140.221 88.8009 139.906 88.6797 139.494 88.6797C139.106 88.6797 138.767 88.8009 138.5 89.0674C138.234 89.3339 138.113 89.6731 138.113 90.1092C138.113 90.5211 138.234 90.836 138.5 91.1026C138.767 91.3691 139.082 91.4902 139.494 91.4902C139.881 91.4902 140.221 91.3691 140.487 91.1026ZM143.588 91.0057C143.855 90.7634 143.976 90.4242 143.976 90.0123C143.976 89.6004 143.831 89.237 143.588 88.9705C143.322 88.704 143.007 88.5828 142.595 88.5828C142.207 88.5828 141.868 88.704 141.602 88.9705C141.335 89.237 141.214 89.5762 141.214 90.0123C141.214 90.4242 141.335 90.7391 141.602 91.0057C141.868 91.2722 142.183 91.3933 142.595 91.3933C142.983 91.3933 143.322 91.2722 143.588 91.0057Z" fill="white"/>
</svg>
